<svg width="16" height="16" viewBox="0 0 16 16" fill="none" xmlns="http://www.w3.org/2000/svg">
<path d="M8.00003 8.93337L4.73337 12.2C4.61114 12.3223 4.45559 12.3834 4.2667 12.3834C4.07781 12.3834 3.92225 12.3223 3.80003 12.2C3.67781 12.0778 3.6167 11.9223 3.6167 11.7334C3.6167 11.5445 3.67781 11.3889 3.80003 11.2667L7.0667 8.00003L3.80003 4.73337C3.67781 4.61114 3.6167 4.45559 3.6167 4.2667C3.6167 4.07781 3.67781 3.92225 3.80003 3.80003C3.92225 3.67781 4.07781 3.6167 4.2667 3.6167C4.45559 3.6167 4.61114 3.67781 4.73337 3.80003L8.00003 7.0667L11.2667 3.80003C11.3889 3.67781 11.5445 3.6167 11.7334 3.6167C11.9223 3.6167 12.0778 3.67781 12.2 3.80003C12.3223 3.92225 12.3834 4.07781 12.3834 4.2667C12.3834 4.45559 12.3223 4.61114 12.2 4.73337L8.93337 8.00003L12.2 11.2667C12.3223 11.3889 12.3834 11.5445 12.3834 11.7334C12.3834 11.9223 12.3223 12.0778 12.2 12.2C12.0778 12.3223 11.9223 12.3834 11.7334 12.3834C11.5445 12.3834 11.3889 12.3223 11.2667 12.2L8.00003 8.93337Z" fill="#23A8F2"/>
</svg>
