<svg width="17" height="16" viewBox="0 0 17 16" fill="none" xmlns="http://www.w3.org/2000/svg">
<path d="M4.79175 14C4.42508 14 4.1113 13.8696 3.85041 13.6087C3.58908 13.3473 3.45841 13.0333 3.45841 12.6667V4C3.26953 4 3.11108 3.93622 2.98308 3.80867C2.85553 3.68067 2.79175 3.52222 2.79175 3.33333C2.79175 3.14444 2.85553 2.986 2.98308 2.858C3.11108 2.73044 3.26953 2.66667 3.45841 2.66667H6.12508C6.12508 2.47778 6.18908 2.31933 6.31708 2.19133C6.44464 2.06378 6.60286 2 6.79175 2H9.45842C9.6473 2 9.80575 2.06378 9.93375 2.19133C10.0613 2.31933 10.1251 2.47778 10.1251 2.66667H12.7917C12.9806 2.66667 13.1389 2.73044 13.2664 2.858C13.3944 2.986 13.4584 3.14444 13.4584 3.33333C13.4584 3.52222 13.3944 3.68067 13.2664 3.80867C13.1389 3.93622 12.9806 4 12.7917 4V12.6667C12.7917 13.0333 12.6613 13.3473 12.4004 13.6087C12.1391 13.8696 11.8251 14 11.4584 14H4.79175ZM6.12508 10.6667C6.12508 10.8556 6.18908 11.0138 6.31708 11.1413C6.44464 11.2693 6.60286 11.3333 6.79175 11.3333C6.98064 11.3333 7.13908 11.2693 7.26708 11.1413C7.39464 11.0138 7.45842 10.8556 7.45842 10.6667V6C7.45842 5.81111 7.39464 5.65267 7.26708 5.52467C7.13908 5.39711 6.98064 5.33333 6.79175 5.33333C6.60286 5.33333 6.44464 5.39711 6.31708 5.52467C6.18908 5.65267 6.12508 5.81111 6.12508 6V10.6667ZM8.79175 10.6667C8.79175 10.8556 8.85575 11.0138 8.98375 11.1413C9.1113 11.2693 9.26953 11.3333 9.45842 11.3333C9.6473 11.3333 9.80575 11.2693 9.93375 11.1413C10.0613 11.0138 10.1251 10.8556 10.1251 10.6667V6C10.1251 5.81111 10.0613 5.65267 9.93375 5.52467C9.80575 5.39711 9.6473 5.33333 9.45842 5.33333C9.26953 5.33333 9.1113 5.39711 8.98375 5.52467C8.85575 5.65267 8.79175 5.81111 8.79175 6V10.6667Z" fill="#EC892D"/>
</svg>
