<svg width="24" height="24" viewBox="0 0 24 24" fill="none" xmlns="http://www.w3.org/2000/svg">
<path fill-rule="evenodd" clip-rule="evenodd" d="M12.7763 4.01847C12.586 4.00259 12.3081 4.00005 11.7881 4.00005H8.57631C7.72073 4.00005 7.13552 4.00074 6.68238 4.03549C6.23919 4.06948 6.00795 4.13156 5.84581 4.20911C5.46385 4.3918 5.1652 4.6775 4.98216 5.01471C4.91088 5.14603 4.84845 5.34038 4.81341 5.74288C4.77719 6.15906 4.77631 6.69961 4.77631 7.50575V12.1333C4.77631 12.6856 4.32859 13.1333 3.77631 13.1333C3.22402 13.1333 2.77631 12.6856 2.77631 12.1333V7.46258C2.77629 6.71074 2.77628 6.08265 2.82095 5.56946C2.86766 5.03279 2.96872 4.53166 3.22442 4.06059C3.61662 3.33805 4.23585 2.76214 4.98286 2.40486C5.46246 2.17547 5.97212 2.08409 6.52944 2.04135C7.06814 2.00003 7.73034 2.00004 8.53718 2.00005L11.8868 2.00003C12.5251 1.99977 12.9979 1.99957 13.4538 2.10233C13.6906 2.15567 13.9218 2.22953 14.1447 2.32302C14.1608 2.32942 14.1767 2.33622 14.1925 2.34343C14.3319 2.40401 14.4679 2.47234 14.5998 2.54821C15.0055 2.78156 15.3456 3.10119 15.7952 3.52353L19.1299 6.65378C19.5759 7.07205 19.9191 7.39383 20.1716 7.78059C20.2545 7.90754 20.3295 8.03905 20.3962 8.17443C20.4038 8.18916 20.411 8.20411 20.4179 8.21926C20.5208 8.43537 20.6028 8.66102 20.6622 8.89345C20.777 9.34219 20.7767 9.80707 20.7764 10.3965L20.7763 12.1333C20.7763 12.6856 20.3286 13.1333 19.7763 13.1333C19.224 13.1333 18.7763 12.6856 18.7763 12.1333V10.4985C18.7763 10.0463 18.7736 9.79722 18.7613 9.63218L15.3457 9.63218C15.0921 9.6322 14.8487 9.63223 14.643 9.61646C14.4192 9.59929 14.1565 9.55906 13.8908 9.43199C13.5202 9.2547 13.2069 8.96599 13.0064 8.5967C12.8597 8.32643 12.8132 8.05713 12.7937 7.83352C12.7762 7.63282 12.7763 7.39733 12.7763 7.16268L12.7763 4.01847ZM14.7763 5.31028V7.13028C14.7763 7.37732 14.777 7.52025 14.7833 7.62128L14.796 7.62231C14.9156 7.63149 15.0808 7.63218 15.3763 7.63218H17.2499L14.7763 5.31028Z" fill="currentColor"/>
<path d="M18.1772 14.3788C18.0191 14.3349 17.851 14.3441 17.6986 14.4048C17.5462 14.4656 17.4179 14.5747 17.3334 14.7154L15.7266 17.3938L14.1197 14.7154C14.0353 14.5747 13.9071 14.4656 13.7547 14.4047C13.6024 14.3439 13.4343 14.3347 13.2762 14.3785C13.1181 14.4224 12.9787 14.5168 12.8795 14.6474C12.7802 14.778 12.7265 14.9376 12.7266 15.1016V20.3516C12.7266 20.5506 12.8056 20.7413 12.9462 20.882C13.0869 21.0226 13.2776 21.1016 13.4766 21.1016C13.6755 21.1016 13.8662 21.0226 14.0069 20.882C14.1475 20.7413 14.2266 20.5506 14.2266 20.3516V17.8091L15.0834 19.2379C15.1501 19.349 15.2443 19.4409 15.357 19.5047C15.4697 19.5685 15.597 19.602 15.7266 19.602C15.8561 19.602 15.9834 19.5685 16.0961 19.5047C16.2088 19.4409 16.3031 19.349 16.3697 19.2379L17.2266 17.8091V20.3516C17.2266 20.5506 17.3056 20.7413 17.4462 20.882C17.5869 21.0226 17.7776 21.1016 17.9766 21.1016C18.1755 21.1016 18.3662 21.0226 18.5069 20.882C18.6475 20.7413 18.7266 20.5506 18.7266 20.3516V15.1016C18.7266 14.9377 18.6729 14.7782 18.5737 14.6477C18.4744 14.5171 18.3352 14.4227 18.1772 14.3788Z" fill="currentColor"/>
<path d="M5.97656 14.3516C5.77765 14.3516 5.58688 14.4307 5.44623 14.5713C5.30558 14.712 5.22656 14.9027 5.22656 15.1016V16.9766H3.72656V15.1016C3.72656 14.9027 3.64754 14.712 3.50689 14.5713C3.36624 14.4307 3.17547 14.3516 2.97656 14.3516C2.77765 14.3516 2.58688 14.4307 2.44623 14.5713C2.30558 14.712 2.22656 14.9027 2.22656 15.1016V20.3516C2.22656 20.5506 2.30558 20.7413 2.44623 20.882C2.58688 21.0226 2.77765 21.1016 2.97656 21.1016C3.17547 21.1016 3.36624 21.0226 3.50689 20.882C3.64754 20.7413 3.72656 20.5506 3.72656 20.3516V18.4766H5.22656V20.3516C5.22656 20.5506 5.30558 20.7413 5.44623 20.882C5.58688 21.0226 5.77765 21.1016 5.97656 21.1016C6.17548 21.1016 6.36624 21.0226 6.50689 20.882C6.64754 20.7413 6.72656 20.5506 6.72656 20.3516V15.1016C6.72656 14.9027 6.64754 14.712 6.50689 14.5713C6.36624 14.4307 6.17548 14.3516 5.97656 14.3516Z" fill="currentColor"/>
<path d="M11.9766 15.1016C11.9766 15.3006 11.8975 15.4913 11.7569 15.632C11.6162 15.7726 11.4255 15.8516 11.2266 15.8516H10.4766V20.3516C10.4766 20.5506 10.3975 20.7413 10.2569 20.882C10.1162 21.0226 9.92548 21.1016 9.72656 21.1016C9.52765 21.1016 9.33689 21.0226 9.19623 20.882C9.05558 20.7413 8.97656 20.5506 8.97656 20.3516V15.8516H8.22656C8.02765 15.8516 7.83688 15.7726 7.69623 15.632C7.55558 15.4913 7.47656 15.3006 7.47656 15.1016C7.47656 14.9027 7.55558 14.712 7.69623 14.5713C7.83688 14.4307 8.02765 14.3516 8.22656 14.3516H11.2266C11.4255 14.3516 11.6162 14.4307 11.7569 14.5713C11.8975 14.712 11.9766 14.9027 11.9766 15.1016Z" fill="currentColor"/>
<path d="M21.3516 19.6016H22.4766C22.6755 19.6016 22.8662 19.6807 23.0069 19.8213C23.1475 19.962 23.2266 20.1527 23.2266 20.3516C23.2266 20.5506 23.1475 20.7413 23.0069 20.882C22.8662 21.0226 22.6755 21.1016 22.4766 21.1016H20.6016C20.4027 21.1016 20.2119 21.0226 20.0712 20.882C19.9306 20.7413 19.8516 20.5506 19.8516 20.3516V15.1016C19.8516 14.9027 19.9306 14.712 20.0712 14.5713C20.2119 14.4307 20.4027 14.3516 20.6016 14.3516C20.8005 14.3516 20.9912 14.4307 21.1319 14.5713C21.2725 14.712 21.3516 14.9027 21.3516 15.1016V19.6016Z" fill="currentColor"/>
</svg>
