<svg xmlns="http://www.w3.org/2000/svg" width="24" height="24" viewBox="0 0 24 24" fill="none">
  <path fill-rule="evenodd" clip-rule="evenodd" d="M13 3.63151C12.8097 3.61563 12.5318 3.61309 12.0118 3.61309H8.8C7.94442 3.61309 7.35921 3.61378 6.90608 3.64853C6.46289 3.68252 6.23164 3.7446 6.0695 3.82215C5.68754 4.00483 5.38889 4.29054 5.20585 4.62774C5.13457 4.75906 5.07214 4.95341 5.03711 5.35592C5.00088 5.7721 5 6.31265 5 7.11879V16.8811C5 17.6873 5.00088 18.2278 5.03711 18.644C5.07214 19.0465 5.13457 19.2409 5.20585 19.3722C5.38889 19.7094 5.68754 19.9951 6.0695 20.1778C6.23164 20.2553 6.46289 20.3174 6.90608 20.3514C7.35921 20.3861 7.94442 20.3868 8.8 20.3868H15.2C16.0556 20.3868 16.6408 20.3861 17.0939 20.3514C17.5371 20.3174 17.7684 20.2553 17.9305 20.1778C18.3125 19.9951 18.6111 19.7094 18.7941 19.3722C18.8654 19.2409 18.9279 19.0465 18.9629 18.644C18.9991 18.2278 19 17.6873 19 16.8811V10.1115C19 9.65934 18.9973 9.41026 18.985 9.24521L15.5694 9.24521C15.3158 9.24524 15.0723 9.24527 14.8667 9.2295C14.6429 9.21233 14.3802 9.1721 14.1145 9.04503C13.7438 8.86773 13.4306 8.57903 13.2301 8.20974C13.0834 7.93947 13.0369 7.67016 13.0174 7.44655C12.9999 7.24586 13 7.01037 13 6.77572C13 6.76491 13 6.75411 13 6.74331V3.63151ZM14.3684 1.93605C14.1455 1.84257 13.9143 1.76871 13.6775 1.71536C13.2216 1.61261 12.7488 1.6128 12.1104 1.61306C12.078 1.61308 12.0451 1.61309 12.0118 1.61309L8.76087 1.61309C7.95404 1.61308 7.29183 1.61307 6.75314 1.65438C6.19582 1.69713 5.68616 1.78851 5.20656 2.0179C4.45954 2.37518 3.84031 2.95108 3.44811 3.67363C3.19241 4.1447 3.09135 4.64583 3.04464 5.18249C2.99997 5.6957 2.99998 6.32379 3 7.07565V16.9243C2.99998 17.6761 2.99997 18.3042 3.04464 18.8174C3.09135 19.3541 3.19241 19.8552 3.44811 20.3263C3.84031 21.0488 4.45954 21.6247 5.20656 21.982C5.68616 22.2114 6.19582 22.3028 6.75314 22.3455C7.29182 22.3869 7.95401 22.3868 8.76082 22.3868H15.2392C16.046 22.3868 16.7082 22.3869 17.2469 22.3455C17.8042 22.3028 18.3138 22.2114 18.7934 21.982C19.5405 21.6247 20.1597 21.0488 20.5519 20.3263C20.8076 19.8552 20.9087 19.3541 20.9554 18.8174C21 18.3042 21 17.6761 21 16.9242V10.1115C21 10.0771 21 10.0431 21 10.0095C21.0004 9.42011 21.0007 8.95522 20.8859 8.50648C20.8265 8.27406 20.7445 8.04841 20.6416 7.8323C20.6347 7.81715 20.6275 7.8022 20.6199 7.78747C20.5532 7.65209 20.4782 7.52058 20.3953 7.39362C20.1428 7.00686 19.7996 6.68507 19.3535 6.2668C19.3288 6.24364 19.3038 6.22019 19.2785 6.19642L16.0903 3.20367C16.0662 3.18102 16.0424 3.15865 16.0188 3.13656C15.5693 2.71422 15.2291 2.3946 14.8235 2.16124C14.6916 2.08538 14.5556 2.01705 14.4161 1.95646C14.4004 1.94926 14.3845 1.94245 14.3684 1.93605ZM15 4.92332V6.74331C15 6.99036 15.0007 7.13329 15.007 7.23432C15.011 7.23467 15.0152 7.23501 15.0197 7.23535C15.1393 7.24453 15.3045 7.24521 15.6 7.24521H17.4736L15 4.92332Z" fill="#D92D20"/>
  <path d="M6.54325 18.433C6.36725 18.433 6.23125 18.385 6.13525 18.289C6.03925 18.189 5.99125 18.051 5.99125 17.875V14.707C5.99125 14.527 6.03925 14.389 6.13525 14.293C6.23525 14.197 6.37325 14.149 6.54925 14.149H8.02525C8.50525 14.149 8.87525 14.273 9.13525 14.521C9.39925 14.765 9.53125 15.103 9.53125 15.535C9.53125 15.967 9.39925 16.307 9.13525 16.555C8.87525 16.799 8.50525 16.921 8.02525 16.921H7.09525V17.875C7.09525 18.051 7.04925 18.189 6.95725 18.289C6.86525 18.385 6.72725 18.433 6.54325 18.433ZM7.09525 16.075H7.83325C8.04125 16.075 8.20125 16.031 8.31325 15.943C8.42525 15.851 8.48125 15.715 8.48125 15.535C8.48125 15.351 8.42525 15.215 8.31325 15.127C8.20125 15.039 8.04125 14.995 7.83325 14.995H7.09525V16.075Z" fill="#D92D20"/>
  <path d="M10.7419 18.379C10.5539 18.379 10.4099 18.331 10.3099 18.235C10.2139 18.135 10.1659 17.993 10.1659 17.809V14.719C10.1659 14.535 10.2139 14.395 10.3099 14.299C10.4099 14.199 10.5539 14.149 10.7419 14.149H11.9179C12.6539 14.149 13.2219 14.333 13.6219 14.701C14.0259 15.069 14.2279 15.589 14.2279 16.261C14.2279 16.597 14.1759 16.897 14.0719 17.161C13.9679 17.421 13.8179 17.643 13.6219 17.827C13.4259 18.007 13.1839 18.145 12.8959 18.241C12.6119 18.333 12.2859 18.379 11.9179 18.379H10.7419ZM11.2699 17.485H11.8459C12.0579 17.485 12.2399 17.459 12.3919 17.407C12.5479 17.355 12.6759 17.279 12.7759 17.179C12.8799 17.079 12.9559 16.953 13.0039 16.801C13.0559 16.649 13.0819 16.469 13.0819 16.261C13.0819 15.845 12.9799 15.539 12.7759 15.343C12.5719 15.143 12.2619 15.043 11.8459 15.043H11.2699V17.485Z" fill="#D92D20"/>
  <path d="M15.5607 18.433C15.3847 18.433 15.2467 18.385 15.1467 18.289C15.0507 18.189 15.0027 18.047 15.0027 17.863V14.719C15.0027 14.535 15.0507 14.395 15.1467 14.299C15.2467 14.199 15.3907 14.149 15.5787 14.149H17.5767C17.7207 14.149 17.8287 14.185 17.9007 14.257C17.9727 14.329 18.0087 14.433 18.0087 14.569C18.0087 14.709 17.9727 14.817 17.9007 14.893C17.8287 14.965 17.7207 15.001 17.5767 15.001H16.1067V15.853H17.4447C17.5847 15.853 17.6907 15.889 17.7627 15.961C17.8387 16.033 17.8767 16.137 17.8767 16.273C17.8767 16.413 17.8387 16.519 17.7627 16.591C17.6907 16.663 17.5847 16.699 17.4447 16.699H16.1067V17.863C16.1067 18.243 15.9247 18.433 15.5607 18.433Z" fill="#D92D20"/>
  <path fill-rule="evenodd" clip-rule="evenodd" d="M7.09525 14.995V16.075H7.83325C8.04125 16.075 8.20125 16.031 8.31325 15.943C8.42525 15.851 8.48125 15.715 8.48125 15.535C8.48125 15.351 8.42525 15.215 8.31325 15.127C8.20125 15.039 8.04125 14.995 7.83325 14.995H7.09525ZM7.83325 15.975H7.19525V15.095H7.83325C8.02881 15.095 8.16358 15.1366 8.25147 15.2056C8.3326 15.2694 8.38125 15.3719 8.38125 15.535C8.38125 15.6925 8.33348 15.7965 8.25061 15.865C8.16271 15.9337 8.02817 15.975 7.83325 15.975Z" fill="#D92D20"/>
  <path fill-rule="evenodd" clip-rule="evenodd" d="M5.89125 17.875C5.89125 18.0695 5.94477 18.235 6.06311 18.3582L6.06454 18.3597C6.18439 18.4795 6.34893 18.533 6.54325 18.533C6.74378 18.533 6.91228 18.4805 7.02947 18.3582L7.03085 18.3567C7.14437 18.2333 7.19525 18.0684 7.19525 17.875V17.021H8.02525C8.5217 17.021 8.91954 16.8946 9.20372 16.6279C9.49169 16.3574 9.63125 15.9888 9.63125 15.535C9.63125 15.0815 9.49188 14.7147 9.2037 14.4481C8.9196 14.1774 8.52177 14.049 8.02525 14.049H6.54925C6.35471 14.049 6.18926 14.1025 6.06598 14.2208L6.06454 14.2223C5.94429 14.3425 5.89125 14.5094 5.89125 14.707V17.875ZM8.02525 16.921H7.09525V17.875C7.09525 18.051 7.04925 18.189 6.95725 18.289C6.86525 18.385 6.72725 18.433 6.54325 18.433C6.36725 18.433 6.23125 18.385 6.13525 18.289C6.03925 18.189 5.99125 18.051 5.99125 17.875V14.707C5.99125 14.527 6.03925 14.389 6.13525 14.293C6.23525 14.197 6.37325 14.149 6.54925 14.149H8.02525C8.50525 14.149 8.87525 14.273 9.13525 14.521C9.39925 14.765 9.53125 15.103 9.53125 15.535C9.53125 15.967 9.39925 16.307 9.13525 16.555C8.87525 16.799 8.50525 16.921 8.02525 16.921Z" fill="#D92D20"/>
  <path fill-rule="evenodd" clip-rule="evenodd" d="M11.2699 15.043V17.485H11.8459C12.0579 17.485 12.2399 17.459 12.3919 17.407C12.5479 17.355 12.6759 17.279 12.7759 17.179C12.8799 17.079 12.9559 16.953 13.0039 16.801C13.0559 16.649 13.0819 16.469 13.0819 16.261C13.0819 15.845 12.9799 15.539 12.7759 15.343C12.5719 15.143 12.2619 15.043 11.8459 15.043H11.2699ZM12.7052 17.1083C12.6179 17.1956 12.504 17.2642 12.3603 17.3121C12.2215 17.3596 12.0502 17.385 11.8459 17.385H11.3699V15.143H11.8459C12.2477 15.143 12.5277 15.2396 12.7059 15.4144L12.7067 15.4151C12.8834 15.5849 12.9819 15.8594 12.9819 16.261C12.9819 16.461 12.9569 16.6296 12.9093 16.7686L12.9086 16.7709C12.8651 16.9086 12.7973 17.0197 12.7066 17.1069L12.7052 17.1083Z" fill="#D92D20"/>
  <path fill-rule="evenodd" clip-rule="evenodd" d="M10.0659 17.809C10.0659 18.0101 10.1187 18.1802 10.2378 18.3042L10.2407 18.3071C10.3651 18.4266 10.5375 18.479 10.7419 18.479H11.9179C12.2941 18.479 12.6316 18.4317 12.9276 18.3359C13.2271 18.236 13.4818 18.0914 13.6896 17.9006L13.6904 17.8999C13.8975 17.7055 14.0558 17.4706 14.165 17.1976C14.2743 16.92 14.3279 16.6073 14.3279 16.261C14.3279 15.5679 14.1188 15.0184 13.6895 14.6272C13.2653 14.2371 12.6699 14.049 11.9179 14.049H10.7419C10.5365 14.049 10.3635 14.104 10.2392 14.2283C10.1186 14.3489 10.0659 14.5181 10.0659 14.719V17.809ZM10.3099 18.235C10.4099 18.331 10.5539 18.379 10.7419 18.379H11.9179C12.2859 18.379 12.6119 18.333 12.8959 18.241C13.1839 18.145 13.4259 18.007 13.6219 17.827C13.8179 17.643 13.9679 17.421 14.0719 17.161C14.1759 16.897 14.2279 16.597 14.2279 16.261C14.2279 15.589 14.0259 15.069 13.6219 14.701C13.2219 14.333 12.6539 14.149 11.9179 14.149H10.7419C10.5539 14.149 10.4099 14.199 10.3099 14.299C10.2139 14.395 10.1659 14.535 10.1659 14.719V17.809C10.1659 17.993 10.2139 18.135 10.3099 18.235Z" fill="#D92D20"/>
  <path fill-rule="evenodd" clip-rule="evenodd" d="M14.9027 17.863C14.9027 18.0641 14.9555 18.2342 15.0746 18.3582L15.0775 18.3611C15.2008 18.4795 15.3662 18.533 15.5607 18.533C15.7593 18.533 15.9263 18.4809 16.0425 18.3597C16.1579 18.2392 16.2067 18.0674 16.2067 17.863V16.799H17.4447C17.6006 16.799 17.7357 16.7588 17.8325 16.6626C17.9338 16.5661 17.9767 16.4303 17.9767 16.273C17.9767 16.1187 17.9332 15.9854 17.8325 15.8893C17.7357 15.7931 17.6006 15.753 17.4447 15.753H16.2067V15.101H17.5767C17.7362 15.101 17.8741 15.0611 17.9715 14.9637L17.9733 14.9618C18.0682 14.8616 18.1087 14.7257 18.1087 14.569C18.1087 14.4157 18.0678 14.2827 17.9714 14.1863C17.8741 14.0889 17.7362 14.049 17.5767 14.049H15.5787C15.3733 14.049 15.2003 14.104 15.076 14.2283C14.9554 14.3489 14.9027 14.5181 14.9027 14.719V17.863ZM17.8325 15.8893L17.8315 15.8884L17.7627 15.961L17.8334 15.8903L17.8325 15.8893ZM17.8325 16.6626L17.8315 16.6636L17.7627 16.591L17.8334 16.6617L17.8325 16.6626Z" fill="#D92D20"/>
</svg>