<svg xmlns="http://www.w3.org/2000/svg" width="24" height="24" viewBox="0 0 24 24" fill="none">
  <path d="M7.93647 10.2293C8.7649 10.2293 9.43647 9.55769 9.43647 8.72926C9.43647 7.90083 8.7649 7.22926 7.93647 7.22926C7.10804 7.22926 6.43647 7.90083 6.43647 8.72926C6.43647 9.55769 7.10804 10.2293 7.93647 10.2293Z" fill="#9E53C1"/>
  <path fill-rule="evenodd" clip-rule="evenodd" d="M2 8.77782C2 6.76163 2 5.75354 2.39238 4.98346C2.73752 4.30607 3.28825 3.75534 3.96563 3.4102C4.73572 3.01782 5.74381 3.01782 7.76 3.01782H16.24C18.2562 3.01782 19.2643 3.01782 20.0344 3.4102C20.7118 3.75534 21.2625 4.30607 21.6076 4.98346C22 5.75354 22 6.76163 22 8.77782V15.2222C22 17.2384 22 18.2465 21.6076 19.0166C21.2625 19.694 20.7118 20.2447 20.0344 20.5898C19.2643 20.9822 18.2562 20.9822 16.24 20.9822H7.76C5.74381 20.9822 4.73572 20.9822 3.96563 20.5898C3.28825 20.2447 2.73752 19.694 2.39238 19.0166C2 18.2465 2 17.2384 2 15.2222V8.77782ZM7.76 5.01782H16.24C17.2811 5.01782 17.9416 5.01938 18.4416 5.06023C18.9182 5.09917 19.0703 5.16362 19.1264 5.19221C19.4274 5.34561 19.6722 5.59038 19.8256 5.89144C19.8542 5.94754 19.9187 6.09959 19.9576 6.57621C19.9984 7.07619 20 7.73673 20 8.77782V15.2222C20 15.2342 20 15.2462 20 15.2582L15.1493 10.4074C14.7587 10.0169 14.1256 10.0169 13.735 10.4074L5.23863 18.9039C5.00661 18.8686 4.91456 18.8287 4.87362 18.8078C4.57256 18.6544 4.32779 18.4096 4.17439 18.1086C4.1458 18.0525 4.08135 17.9004 4.0424 17.4238C4.00156 16.9238 4 16.2633 4 15.2222V8.77782C4 7.73673 4.00156 7.07619 4.0424 6.57621C4.08135 6.09959 4.1458 5.94754 4.17439 5.89144C4.32779 5.59038 4.57256 5.34561 4.87362 5.19221C4.92972 5.16362 5.08177 5.09917 5.55839 5.06023C6.05836 5.01938 6.7189 5.01782 7.76 5.01782ZM14.4422 12.5288L7.98871 18.9822H16.24C17.2811 18.9822 17.9416 18.9806 18.4416 18.9398C18.9182 18.9009 19.0703 18.8364 19.1264 18.8078C19.4274 18.6544 19.6722 18.4096 19.8256 18.1086C19.8379 18.0844 19.8569 18.0424 19.8776 17.9643L14.4422 12.5288Z" fill="#9E53C1"/>
</svg>