<svg width="28" height="28" viewBox="0 0 28 28" fill="none" xmlns="http://www.w3.org/2000/svg">
<path d="M12.8333 0V3.5H15.1667V0H12.8333ZM4.92643 3.27669L3.27669 4.92643L5.7513 7.40104L7.40104 5.7513L4.92643 3.27669ZM23.0736 3.27669L20.599 5.7513L22.2487 7.40104L24.7233 4.92643L23.0736 3.27669ZM14 5.83333C9.50328 5.83333 5.83333 9.50328 5.83333 14C5.83333 17.2291 7.76547 19.9526 10.5 21.2734V24.5C10.5 25.7752 11.5581 26.8333 12.8333 26.8333H15.1667C16.4419 26.8333 17.5 25.7752 17.5 24.5V21.2734C20.2345 19.9526 22.1667 17.2291 22.1667 14C22.1667 9.50328 18.4967 5.83333 14 5.83333ZM14 8.16667C17.2359 8.16667 19.8333 10.7641 19.8333 14C19.8333 16.5484 18.2062 18.6933 15.9437 19.4938L15.1667 19.7673V24.5H12.8333V19.7673L12.0563 19.4938C9.79378 18.6933 8.16667 16.5484 8.16667 14C8.16667 10.7641 10.7641 8.16667 14 8.16667ZM0 12.8333V15.1667H3.5V12.8333H0ZM24.5 12.8333V15.1667H28V12.8333H24.5ZM5.7513 20.599L3.27669 23.0736L4.92643 24.7233L7.40104 22.2487L5.7513 20.599ZM22.2487 20.599L20.599 22.2487L23.0736 24.7233L24.7233 23.0736L22.2487 20.599Z" fill="white"/>
</svg>
