<svg width="24" height="25" viewBox="0 0 24 25" fill="none" xmlns="http://www.w3.org/2000/svg">
<path d="M21.1127 17.3506C20.8627 17.6006 20.5667 17.7256 20.2247 17.7256C19.8834 17.7256 19.5877 17.6006 19.3377 17.3506L12.0127 10.0256L4.6627 17.3756C4.42936 17.6089 4.1377 17.7256 3.7877 17.7256C3.4377 17.7256 3.1377 17.6006 2.8877 17.3506C2.6377 17.1006 2.5127 16.8046 2.5127 16.4626C2.5127 16.1213 2.6377 15.8256 2.8877 15.5756L11.3127 7.17558C11.4127 7.07558 11.521 7.00459 11.6377 6.96259C11.7544 6.92125 11.8794 6.90059 12.0127 6.90059C12.146 6.90059 12.271 6.92125 12.3877 6.96259C12.5044 7.00459 12.6127 7.07558 12.7127 7.17558L21.1377 15.6006C21.371 15.8339 21.4877 16.1213 21.4877 16.4626C21.4877 16.8046 21.3627 17.1006 21.1127 17.3506Z" fill="white" fill-opacity="0.7"/>
</svg>
