<svg width="24" height="25" viewBox="0 0 24 25" fill="none" xmlns="http://www.w3.org/2000/svg">
<g clip-path="url(#clip0_2098_8112)">
<path d="M20.9063 5.83331H18.333V7.16665H20.6663V20.5H18.333V21.8333H21.9997V6.94665C22.0014 6.80163 21.9745 6.6577 21.9204 6.52314C21.8664 6.38857 21.7862 6.26603 21.6846 6.16256C21.583 6.05908 21.4619 5.97673 21.3283 5.92022C21.1948 5.86372 21.0514 5.83418 20.9063 5.83331Z" fill="white" fill-opacity="0.9"/>
<path d="M3.33341 7.16665H5.66675V5.83331H3.09341C2.94839 5.83418 2.80498 5.86372 2.67141 5.92022C2.53785 5.97673 2.41678 6.05908 2.31517 6.16256C2.21355 6.26603 2.1334 6.38857 2.07933 6.52314C2.02525 6.6577 1.99832 6.80163 2.00008 6.94665V21.8333H5.66675V20.5H3.33341V7.16665Z" fill="white" fill-opacity="0.9"/>
<path d="M12.0066 19.02C12.6694 19.02 13.2066 18.4857 13.2066 17.8266C13.2066 17.1676 12.6694 16.6333 12.0066 16.6333C11.3439 16.6333 10.8066 17.1676 10.8066 17.8266C10.8066 18.4857 11.3439 19.02 12.0066 19.02Z" fill="white" fill-opacity="0.9"/>
<path d="M16.2137 3.16669H7.78699C7.48995 3.16669 7.20507 3.28469 6.99503 3.49473C6.78499 3.70477 6.66699 3.98964 6.66699 4.28669V21.8334H17.3337V4.28669C17.3337 3.98964 17.2157 3.70477 17.0056 3.49473C16.7956 3.28469 16.5107 3.16669 16.2137 3.16669ZM16.0003 20.5H8.00033V4.50002H16.0003V20.5Z" fill="white" fill-opacity="0.9"/>
<path d="M9 6.64001H15V7.70668H9V6.64001Z" fill="white" fill-opacity="0.9"/>
</g>
<defs>
<clipPath id="clip0_2098_8112">
<rect width="24" height="24" fill="white" transform="translate(0 0.5)"/>
</clipPath>
</defs>
</svg>
