<svg width="24" height="25" viewBox="0 0 24 25" fill="none" xmlns="http://www.w3.org/2000/svg">
<path d="M16.5 10.9531H7.5C7.39687 10.9531 7.3125 11.0375 7.3125 11.1406V20.5625C7.3125 20.6656 7.39687 20.75 7.5 20.75H16.5C16.6031 20.75 16.6875 20.6656 16.6875 20.5625V11.1406C16.6875 11.0375 16.6031 10.9531 16.5 10.9531ZM8.8125 12.4531H15.1875V15.1953H8.8125V12.4531ZM15.1875 19.25H8.8125V16.5078H15.1875V19.25Z" fill="white" fill-opacity="0.9"/>
<path d="M9.9375 18.0312C9.9375 18.2302 10.0165 18.4209 10.1572 18.5616C10.2978 18.7022 10.4886 18.7812 10.6875 18.7812C10.8864 18.7812 11.0772 18.7022 11.2178 18.5616C11.3585 18.4209 11.4375 18.2302 11.4375 18.0312C11.4375 17.8323 11.3585 17.6416 11.2178 17.5009C11.0772 17.3603 10.8864 17.2812 10.6875 17.2812C10.4886 17.2812 10.2978 17.3603 10.1572 17.5009C10.0165 17.6416 9.9375 17.8323 9.9375 18.0312ZM9.9375 13.8594C9.9375 14.0583 10.0165 14.2491 10.1572 14.3897C10.2978 14.5304 10.4886 14.6094 10.6875 14.6094C10.8864 14.6094 11.0772 14.5304 11.2178 14.3897C11.3585 14.2491 11.4375 14.0583 11.4375 13.8594C11.4375 13.6605 11.3585 13.4697 11.2178 13.329C11.0772 13.1884 10.8864 13.1094 10.6875 13.1094C10.4886 13.1094 10.2978 13.1884 10.1572 13.329C10.0165 13.4697 9.9375 13.6605 9.9375 13.8594Z" fill="white" fill-opacity="0.9"/>
<path d="M19.0173 9.14609C17.9438 6.3125 15.2087 4.29688 12.0048 4.29688C8.80085 4.29688 6.06569 6.31016 4.99226 9.14375C2.97429 9.67578 1.48835 11.5203 1.50007 13.7094C1.51413 16.1562 3.41257 18.1461 5.80319 18.3594C5.91335 18.3687 6.0071 18.282 6.0071 18.1719V16.7562C6.0071 16.6625 5.93679 16.5828 5.84304 16.5711C5.21022 16.4914 4.61257 16.2148 4.15319 15.7625C3.59069 15.2117 3.28132 14.4711 3.28132 13.6859C3.28132 13.0297 3.4946 12.4109 3.89538 11.8953C4.28679 11.3938 4.83757 11.0305 5.4446 10.8711L6.33288 10.6367L6.65866 9.77656C6.86022 9.24219 7.14147 8.74062 7.49538 8.28828C7.8446 7.83828 8.25944 7.44453 8.72351 7.11641C9.68679 6.43906 10.8212 6.08047 12.0048 6.08047C13.1883 6.08047 14.3227 6.43906 15.286 7.11875C15.7524 7.44687 16.1649 7.84062 16.5141 8.29062C16.868 8.74297 17.1493 9.24453 17.3508 9.77891L17.6743 10.6367L18.5602 10.8711C19.8305 11.2086 20.7188 12.3641 20.7188 13.6836C20.7188 14.4711 20.4094 15.2094 19.8469 15.7602C19.3899 16.2102 18.7946 16.4891 18.1618 16.5687C18.068 16.5805 18.0001 16.6602 18.0001 16.7539V18.1719C18.0001 18.282 18.0962 18.3687 18.2063 18.3594C20.5899 18.1438 22.4837 16.1562 22.5001 13.7141C22.5141 11.525 21.0305 9.68047 19.0173 9.14609Z" fill="white" fill-opacity="0.9"/>
</svg>
