<svg width="22" height="23" viewBox="0 0 22 23" fill="none" xmlns="http://www.w3.org/2000/svg">
<path d="M6.87546 6.11539C6.51219 6.11991 6.16507 6.26622 5.90819 6.52311C5.65129 6.78 5.50498 7.12712 5.50046 7.49039V15.7404C5.50498 16.1037 5.65129 16.4508 5.90819 16.7077C6.16507 16.9646 6.51219 17.1109 6.87546 17.1154H15.1255C15.4887 17.1109 15.8359 16.9646 16.0927 16.7077C16.3496 16.4508 16.4959 16.1037 16.5005 15.7404V7.49039C16.4959 7.12712 16.3496 6.78 16.0927 6.52311C15.8359 6.26622 15.4887 6.11991 15.1255 6.11539H6.87546ZM6.87546 4.74039H15.1255C15.8991 4.75506 16.5472 5.02364 17.0697 5.54614C17.5922 6.06864 17.8608 6.71764 17.8755 7.49039V15.7404C17.8617 16.5141 17.5931 17.1621 17.0697 17.6846C16.5472 18.2071 15.8991 18.4757 15.1255 18.4904H6.87546C6.1018 18.4766 5.45371 18.2081 4.93121 17.6846C4.40871 17.1621 4.14013 16.5141 4.12546 15.7404V7.49039C4.14013 6.71673 4.40871 6.06864 4.93121 5.54614C5.45371 5.02364 6.10271 4.75506 6.87546 4.74039ZM11.0005 1.99039C11.0917 1.987 11.1827 2.00232 11.2679 2.03543C11.353 2.06854 11.4305 2.11872 11.4955 2.18289C11.6238 2.31214 11.688 2.47714 11.688 2.67789V5.42789H10.313V2.67789C10.3096 2.58661 10.3249 2.49561 10.358 2.41048C10.3911 2.32535 10.4413 2.24789 10.5055 2.18289C10.5705 2.11872 10.6479 2.06854 10.733 2.03543C10.8182 2.00232 10.9092 1.987 11.0005 1.99039ZM14.438 1.99039C14.5292 1.987 14.6202 2.00232 14.7054 2.03543C14.7905 2.06854 14.868 2.11872 14.933 2.18289C15.0613 2.31214 15.1255 2.47714 15.1255 2.67789V5.42789H13.7505V2.67789C13.7471 2.58661 13.7624 2.49561 13.7955 2.41048C13.8286 2.32535 13.8788 2.24789 13.943 2.18289C14.008 2.11872 14.0854 2.06854 14.1705 2.03543C14.2557 2.00232 14.3467 1.987 14.438 1.99039ZM7.56296 1.99039C7.65424 1.987 7.74525 2.00232 7.83038 2.03543C7.91551 2.06854 7.99296 2.11872 8.05796 2.18289C8.1863 2.31214 8.25046 2.47714 8.25046 2.67789V5.42789H6.87546V2.67789C6.87207 2.58661 6.88739 2.49561 6.9205 2.41048C6.95361 2.32535 7.00379 2.24789 7.06796 2.18289C7.13297 2.11872 7.21042 2.06854 7.29555 2.03543C7.38068 2.00232 7.47169 1.987 7.56296 1.99039ZM11.0005 21.2404C10.9092 21.2438 10.8182 21.2285 10.733 21.1954C10.6479 21.1622 10.5705 21.1121 10.5055 21.0479C10.4413 20.9829 10.3911 20.9054 10.358 20.8203C10.3249 20.7352 10.3096 20.6442 10.313 20.5529V17.8029H11.688V20.5529C11.6914 20.6442 11.676 20.7352 11.6429 20.8203C11.6098 20.9054 11.5596 20.9829 11.4955 21.0479C11.4305 21.1121 11.353 21.1622 11.2679 21.1954C11.1827 21.2285 11.0917 21.2438 11.0005 21.2404ZM14.438 21.2404C14.3467 21.2438 14.2557 21.2285 14.1705 21.1954C14.0854 21.1622 14.008 21.1121 13.943 21.0479C13.8788 20.9829 13.8286 20.9054 13.7955 20.8203C13.7624 20.7352 13.7471 20.6442 13.7505 20.5529V17.8029H15.1255V20.5529C15.1289 20.6442 15.1135 20.7352 15.0804 20.8203C15.0473 20.9054 14.9971 20.9829 14.933 21.0479C14.868 21.1121 14.7905 21.1622 14.7054 21.1954C14.6202 21.2285 14.5292 21.2438 14.438 21.2404ZM7.56296 21.2404C7.47169 21.2438 7.38068 21.2285 7.29555 21.1954C7.21042 21.1622 7.13297 21.1121 7.06796 21.0479C7.00379 20.9829 6.95361 20.9054 6.9205 20.8203C6.88739 20.7352 6.87207 20.6442 6.87546 20.5529V17.8029H8.25046V20.5529C8.25386 20.6442 8.23853 20.7352 8.20543 20.8203C8.17232 20.9054 8.12214 20.9829 8.05796 21.0479C7.99296 21.1121 7.91551 21.1622 7.83038 21.1954C7.74525 21.2285 7.65424 21.2438 7.56296 21.2404ZM1.37546 11.6154C1.37207 11.5241 1.38739 11.4331 1.4205 11.348C1.45361 11.2628 1.50379 11.1854 1.56796 11.1204C1.63296 11.0562 1.71042 11.006 1.79555 10.9729C1.88068 10.9398 1.97168 10.9245 2.06296 10.9279H4.81296V12.3029H2.06296C1.97168 12.3063 1.88068 12.291 1.79555 12.2579C1.71042 12.2247 1.63296 12.1746 1.56796 12.1104C1.50379 12.0454 1.45361 11.9679 1.4205 11.8828C1.38739 11.7977 1.37207 11.7067 1.37546 11.6154ZM1.37546 8.17789C1.37207 8.08661 1.38739 7.99561 1.4205 7.91048C1.45361 7.82535 1.50379 7.74789 1.56796 7.68289C1.63296 7.61872 1.71042 7.56854 1.79555 7.53543C1.88068 7.50232 1.97168 7.487 2.06296 7.49039H4.81296V8.86539H2.06296C1.97168 8.86879 1.88068 8.85346 1.79555 8.82036C1.71042 8.78725 1.63296 8.73706 1.56796 8.67289C1.50379 8.60789 1.45361 8.53044 1.4205 8.44531C1.38739 8.36018 1.37207 8.26917 1.37546 8.17789ZM1.37546 15.0529C1.37207 14.9616 1.38739 14.8706 1.4205 14.7855C1.45361 14.7003 1.50379 14.6229 1.56796 14.5579C1.63296 14.4937 1.71042 14.4435 1.79555 14.4104C1.88068 14.3773 1.97168 14.362 2.06296 14.3654H4.81296V15.7404H2.06296C1.97168 15.7438 1.88068 15.7285 1.79555 15.6954C1.71042 15.6622 1.63296 15.6121 1.56796 15.5479C1.50379 15.4829 1.45361 15.4054 1.4205 15.3203C1.38739 15.2352 1.37207 15.1442 1.37546 15.0529ZM20.6255 11.6154C20.6289 11.7067 20.6135 11.7977 20.5804 11.8828C20.5473 11.9679 20.4971 12.0454 20.433 12.1104C20.368 12.1746 20.2905 12.2247 20.2054 12.2579C20.1203 12.291 20.0292 12.3063 19.938 12.3029H17.188V10.9279H19.938C20.0292 10.9245 20.1203 10.9398 20.2054 10.9729C20.2905 11.006 20.368 11.0562 20.433 11.1204C20.5613 11.2496 20.6255 11.4146 20.6255 11.6154ZM20.6255 8.17789C20.6289 8.26917 20.6135 8.36018 20.5804 8.44531C20.5473 8.53044 20.4971 8.60789 20.433 8.67289C20.368 8.73706 20.2905 8.78725 20.2054 8.82036C20.1203 8.85346 20.0292 8.86879 19.938 8.86539H17.188V7.49039H19.938C20.0292 7.487 20.1203 7.50232 20.2054 7.53543C20.2905 7.56854 20.368 7.61872 20.433 7.68289C20.5613 7.81214 20.6255 7.97714 20.6255 8.17789ZM20.6255 15.0529C20.6289 15.1442 20.6135 15.2352 20.5804 15.3203C20.5473 15.4054 20.4971 15.4829 20.433 15.5479C20.368 15.6121 20.2905 15.6622 20.2054 15.6954C20.1203 15.7285 20.0292 15.7438 19.938 15.7404H17.188V14.3654H19.938C20.0292 14.362 20.1203 14.3773 20.2054 14.4104C20.2905 14.4435 20.368 14.4937 20.433 14.5579C20.5613 14.6871 20.6255 14.8521 20.6255 15.0529Z" fill="currentColor" fill-opacity="0.9"/>
</svg>
