<svg width="22" height="23" viewBox="0 0 22 23" fill="none" xmlns="http://www.w3.org/2000/svg">
<path d="M19.3873 13.9221H2.6123V19.3739H19.3873V13.9221Z" stroke="white" stroke-opacity="0.9" stroke-width="1.62354" stroke-linejoin="round"/>
<path d="M15.8219 17.6965C16.0999 17.6965 16.3666 17.586 16.5632 17.3894C16.7599 17.1928 16.8703 16.9261 16.8703 16.6481C16.8703 16.37 16.7599 16.1033 16.5632 15.9067C16.3666 15.7101 16.0999 15.5996 15.8219 15.5996C15.5438 15.5996 15.2771 15.7101 15.0805 15.9067C14.8839 16.1033 14.7734 16.37 14.7734 16.6481C14.7734 16.9261 14.8839 17.1928 15.0805 17.3894C15.2771 17.586 15.5438 17.6965 15.8219 17.6965Z" fill="white" fill-opacity="0.9"/>
<path d="M2.6123 13.9221L4.72512 3.8567H17.2988L19.3873 13.9217" stroke="white" stroke-opacity="0.9" stroke-width="1.62354" stroke-linejoin="round"/>
</svg>
