<svg width="22" height="23" viewBox="0 0 22 23" fill="none" xmlns="http://www.w3.org/2000/svg">
<path d="M7.283 3.75663C7.48556 2.93803 8.56087 2.91352 8.82518 3.66751L11.6838 15.9917L13.4802 9.62971C13.6779 8.9274 14.5605 8.8113 14.9299 9.39617L16.7742 13.1741H19.8981C20.3536 13.1741 20.7228 13.5439 20.7228 13.9999C20.7228 14.4818 20.3327 14.8725 19.8514 14.8725H16.2784C16.0096 14.8727 15.7584 14.733 15.6075 14.4997L14.4577 12.1526L12.3833 19.5013C12.1579 20.2986 11.1069 20.3045 10.8485 19.5608L8.03984 7.45571L6.35761 14.2373C6.27324 14.5772 5.99791 14.8276 5.66481 14.8674L2.08981 14.8714C1.64023 14.8719 1.27539 14.5071 1.27539 14.0567V13.9678C1.27539 13.5294 1.63034 13.1739 2.06815 13.1739H4.94616L7.283 3.75663Z" fill="white" fill-opacity="0.9"/>
</svg>
