<svg width="1321" height="658" viewBox="0 0 1321 658" fill="none" xmlns="http://www.w3.org/2000/svg">
<g clip-path="url(#clip0_2144_14951)">
<path d="M9.53674e-05 5.89649e-05H1455.32M9.53674e-05 90.0001H1455.32M9.53674e-05 180H1455.32M9.53674e-05 270H1455.32M9.53674e-05 360H1455.32M9.53674e-05 450H1455.32M9.53674e-05 540H1455.32M9.53674e-05 630H1455.32M9.53674e-05 720H1455.32M1336 5.90104e-05L1336 1455.32M1246 5.50764e-05L1246 1455.32M1156 5.11423e-05L1156 1455.32M1066 4.72083e-05L1066 1455.32M976 4.32743e-05L976 1455.32M886 3.93402e-05L886 1455.32M796 3.54062e-05L796 1455.32M706 3.14722e-05L706 1455.32M616 2.75382e-05L616 1455.32M526 2.36041e-05L526 1455.32M436 1.96701e-05L436 1455.32M346 1.57361e-05L346 1455.32M256 1.18021e-05L256 1455.32M166 7.86805e-06L166 1455.32M76.0001 3.93402e-06L76 1455.32M-13.9999 0L-14 1455.32" stroke="url(#paint0_linear_2144_14951)" stroke-width="2"/>
</g>
<defs>
<linearGradient id="paint0_linear_2144_14951" x1="-39.8656" y1="-3.60847e-06" x2="1322.11" y2="727.661" gradientUnits="userSpaceOnUse">
<stop stop-color="#068AFF" stop-opacity="0.06"/>
<stop offset="1" stop-color="white" stop-opacity="0"/>
</linearGradient>
<clipPath id="clip0_2144_14951">
<rect width="1321" height="658" fill="white"/>
</clipPath>
</defs>
</svg>
