<svg width="24" height="24" viewBox="0 0 24 24" fill="none" xmlns="http://www.w3.org/2000/svg">
<path d="M15.5007 2.33331L15.6207 2.34398C15.7556 2.36875 15.8796 2.43453 15.9757 2.53236C16.0719 2.6302 16.1355 2.75531 16.158 2.89065L16.1673 3.01065V7.49998L16.1567 7.61998C16.1319 7.75491 16.0661 7.87891 15.9683 7.97507C15.8704 8.07123 15.7453 8.13487 15.61 8.15731L15.49 8.16665L12.7993 8.16531L12.666 8.29865V11.2L12.7993 11.3333H17.5007L17.6207 11.344C17.7556 11.3687 17.8796 11.4345 17.9757 11.5324C18.0719 11.6302 18.1355 11.7553 18.158 11.8906L18.1673 12.0106V15.7L18.3007 15.8333H21.0007L21.1207 15.844C21.2556 15.8687 21.3796 15.9345 21.4757 16.0324C21.5719 16.1302 21.6355 16.2553 21.658 16.3906L21.6673 16.5106V21L21.6567 21.12C21.6319 21.2549 21.5661 21.3789 21.4683 21.4751C21.3704 21.5712 21.2453 21.6349 21.11 21.6573L20.99 21.6666H14.0007L13.8807 21.656C13.7457 21.6312 13.6217 21.5654 13.5256 21.4676C13.4294 21.3698 13.3658 21.2446 13.3433 21.1093L13.334 20.9893V16.5L13.3447 16.38C13.3694 16.2451 13.4352 16.1211 13.533 16.0249C13.6309 15.9287 13.756 15.8651 13.8913 15.8426L14.0113 15.8333H16.7007L16.834 15.7V12.8L16.7007 12.6666H7.30065L7.16732 12.8L7.16598 15.7L7.29932 15.8333H10.0007L10.1207 15.844C10.2556 15.8687 10.3796 15.9345 10.4757 16.0324C10.5719 16.1302 10.6355 16.2553 10.658 16.3906L10.6673 16.5106V21L10.6567 21.12C10.6319 21.2549 10.5661 21.3789 10.4683 21.4751C10.3704 21.5712 10.2453 21.6349 10.11 21.6573L9.98998 21.6666H3.00065L2.88065 21.656C2.74572 21.6312 2.62172 21.5654 2.52556 21.4676C2.4294 21.3698 2.36576 21.2446 2.34332 21.1093L2.33398 20.9893V16.5L2.34465 16.38C2.36942 16.2451 2.4352 16.1211 2.53304 16.0249C2.63087 15.9287 2.75598 15.8651 2.89132 15.8426L3.01132 15.8333H5.70065L5.83398 15.7V12L5.84465 11.88C5.86942 11.7451 5.9352 11.6211 6.03304 11.5249C6.13087 11.4287 6.25598 11.3651 6.39132 11.3426L6.51132 11.3333H11.2007L11.334 11.2V8.29865L11.2007 8.16531L8.50065 8.16665L8.38065 8.15598C8.24572 8.13121 8.12172 8.06543 8.02556 7.9676C7.9294 7.86976 7.86576 7.74465 7.84332 7.60931L7.83398 7.48931V2.99998L7.84465 2.87998C7.86942 2.74505 7.9352 2.62105 8.03304 2.52489C8.13087 2.42873 8.25598 2.36508 8.39132 2.34265L8.51132 2.33331H15.5007ZM9.20065 17.1666H3.80065L3.66732 17.3V20.2L3.80065 20.3333H9.20065L9.33398 20.2V17.3L9.20065 17.1666ZM20.2007 17.1666H14.8007L14.6673 17.3V20.2L14.8007 20.3333H20.2007L20.334 20.2V17.3L20.2007 17.1666ZM14.7007 3.66665H9.30065L9.16732 3.79998V6.69998L9.30065 6.83331H14.7007L14.834 6.69998V3.79998L14.7007 3.66665Z" fill="white" fill-opacity="0.9"/>
</svg>
