<svg width="24" height="25" viewBox="0 0 24 25" fill="none" xmlns="http://www.w3.org/2000/svg">
<path d="M19.5 5V8H4.5V5H19.5ZM19.5 3.5H4.5C4.10218 3.5 3.72064 3.65804 3.43934 3.93934C3.15804 4.22064 3 4.60218 3 5V8C3 8.39782 3.15804 8.77936 3.43934 9.06066C3.72064 9.34196 4.10218 9.5 4.5 9.5H19.5C19.8978 9.5 20.2794 9.34196 20.5607 9.06066C20.842 8.77936 21 8.39782 21 8V5C21 4.60218 20.842 4.22064 20.5607 3.93934C20.2794 3.65804 19.8978 3.5 19.5 3.5ZM7.5 12.5V20H4.5V12.5H7.5ZM7.5 11H4.5C4.10218 11 3.72064 11.158 3.43934 11.4393C3.15804 11.7206 3 12.1022 3 12.5V20C3 20.3978 3.15804 20.7794 3.43934 21.0607C3.72064 21.342 4.10218 21.5 4.5 21.5H7.5C7.89782 21.5 8.27936 21.342 8.56066 21.0607C8.84196 20.7794 9 20.3978 9 20V12.5C9 12.1022 8.84196 11.7206 8.56066 11.4393C8.27936 11.158 7.89782 11 7.5 11ZM19.5 12.5V20H12V12.5H19.5ZM19.5 11H12C11.6022 11 11.2206 11.158 10.9393 11.4393C10.658 11.7206 10.5 12.1022 10.5 12.5V20C10.5 20.3978 10.658 20.7794 10.9393 21.0607C11.2206 21.342 11.6022 21.5 12 21.5H19.5C19.8978 21.5 20.2794 21.342 20.5607 21.0607C20.842 20.7794 21 20.3978 21 20V12.5C21 12.1022 20.842 11.7206 20.5607 11.4393C20.2794 11.158 19.8978 11 19.5 11Z" fill="white" fill-opacity="0.9"/>
</svg>
