<svg width="22" height="23" viewBox="0 0 22 23" fill="none" xmlns="http://www.w3.org/2000/svg">
<path d="M3.66699 4.28207V18.9487C3.66699 19.9598 4.48924 20.7821 5.50033 20.7821H16.5003C17.5114 20.7821 18.3337 19.9598 18.3337 18.9487V7.94873C18.3338 7.82834 18.3101 7.70911 18.264 7.59789C18.2179 7.48667 18.1503 7.38566 18.0651 7.30065L13.4817 2.71731C13.3968 2.63203 13.2958 2.56439 13.1845 2.51829C13.0733 2.4722 12.9541 2.44856 12.8337 2.44873H5.50033C4.48924 2.44873 3.66699 3.27098 3.66699 4.28207ZM16.5003 8.32823L16.5012 18.9487H5.50033V4.28207H12.4542L16.5003 8.32823Z" fill="currentColor" fill-opacity="0.9"/>
<path d="M7.33301 6.11536H9.16634V9.78202H7.33301V6.11536ZM10.9997 6.11536H12.833V9.78202H10.9997V6.11536Z" fill="currentColor" fill-opacity="0.9"/>
</svg>
