<svg width="24" height="25" viewBox="0 0 24 25" fill="none" xmlns="http://www.w3.org/2000/svg">
<path d="M15.375 7.77503C16.2 6.87503 17.175 5.52503 17.175 4.10003C17.175 3.27503 16.95 2.60003 16.425 2.07503C15.45 1.10003 13.725 1.10003 11.775 1.10003H11.25C10.95 1.10003 10.65 1.10003 10.35 1.10003C8.55 1.10003 7.05 1.02503 6.075 2.00003C5.55 2.52503 5.325 3.20003 5.325 4.10003C5.325 6.12503 7.125 7.92503 7.95 8.60003C8.25 8.90003 8.775 8.82503 9 8.52503C9.3 8.22503 9.225 7.70003 8.925 7.47503C7.65 6.35003 6.825 5.07503 6.825 4.10003C6.825 3.35003 7.05 3.12503 7.125 3.05003C7.65 2.60003 8.925 2.60003 10.35 2.60003C10.65 2.60003 10.95 2.60003 11.325 2.60003H11.925C13.5 2.60003 15 2.60003 15.525 3.12503C15.525 3.20003 15.75 3.42503 15.75 4.10003C15.75 5.00003 14.925 6.27503 13.575 7.40003C13.35 7.55003 13.275 7.85003 13.35 8.07503C13.425 8.30003 13.575 8.52503 13.8 8.67503C16.575 9.72503 19.5 12.575 19.5 16.475C19.5 20.15 17.25 21.5 11.25 21.5C5.25 21.5 3 20.15 3 16.475C3 14.225 4.05 11.975 5.925 10.325C6.225 10.025 6.3 9.57503 6 9.27503C5.7 8.97503 5.25 8.90003 4.95 9.20003C2.775 11.15 1.5 13.775 1.5 16.475C1.5 23 8.1 23 11.25 23C14.4 23 21 23 21 16.475C21.075 12.875 18.75 9.50003 15.375 7.77503Z" fill="white" fill-opacity="0.9"/>
<path d="M14.325 11.45C14.625 11.15 14.625 10.7 14.325 10.4C14.025 10.1 13.575 10.1 13.275 10.4L11.4 12.2L9.525 10.4C9.225 10.1 8.775 10.1 8.475 10.4C8.175 10.7 8.175 11.15 8.475 11.45L10.575 13.475V13.925H9.075C8.625 13.925 8.325 14.225 8.325 14.675C8.325 15.125 8.625 15.425 9.075 15.425H10.575V16.175H9.075C8.625 16.175 8.325 16.475 8.325 16.925C8.325 17.375 8.625 17.675 9.075 17.675H10.575V19.25C10.575 19.7 10.875 20 11.325 20C11.775 20 12.075 19.7 12.075 19.25V17.675H13.575C14.025 17.675 14.325 17.375 14.325 16.925C14.325 16.475 14.025 16.175 13.575 16.175H12.075V15.425H13.575C14.025 15.425 14.325 15.125 14.325 14.675C14.325 14.225 14.025 13.925 13.575 13.925H12.075V13.625L14.325 11.45Z" fill="white" fill-opacity="0.9"/>
</svg>
