

<svg width="24" height="24" viewBox="0 0 24 24" fill="none" xmlns="http://www.w3.org/2000/svg">
<path d="M6.609 5.013C8.10822 3.7202 10.0204 3.00621 12 3C16.035 3 19.3845 6 19.749 9.8685C22.137 10.206 24 12.2055 24 14.6595C24 17.3535 21.753 19.5 19.0305 19.5H5.6715C2.562 19.5 0 17.049 0 13.977C0 11.3325 1.899 9.1425 4.413 8.5875C4.6275 7.293 5.46 6.003 6.609 5.013ZM7.5885 6.1485C6.453 7.128 5.859 8.3085 5.859 9.2325V9.9045L5.1915 9.978C3.096 10.2075 1.5 11.928 1.5 13.977C1.5 16.1775 3.345 18 5.6715 18H19.0305C20.97 18 22.5 16.482 22.5 14.6595C22.5 12.8355 20.97 11.3175 19.0305 11.3175H18.2805V10.5675C18.282 7.2375 15.492 4.5 12 4.5C10.3798 4.50647 8.81526 5.09015 7.5885 6.1485Z" fill="white" fill-opacity="0.9"/>
</svg>
