<svg width="24" height="25" viewBox="0 0 24 25" fill="none" xmlns="http://www.w3.org/2000/svg">
<path d="M20.7475 18.4413C20.4573 18.7059 20.4365 19.1556 20.7011 19.4458C20.9656 19.736 21.4154 19.7568 21.7056 19.4922L23.275 18.0615C23.4337 17.9168 23.5118 17.7167 23.5068 17.5177L23.5063 17.5033C23.498 17.3213 23.4203 17.1424 23.275 17.01L21.7056 15.5792C21.4154 15.3147 20.9656 15.3354 20.7011 15.6257C20.4699 15.8792 20.4566 16.2545 20.6504 16.5217C19.9687 16.1656 19.5034 15.452 19.5034 14.6296V9.23015C19.5034 7.26655 17.9116 5.67475 15.948 5.67475H11.4146C10.2364 5.67475 9.28131 4.71966 9.28131 3.5415V3.26729C9.28131 2.87458 8.96295 2.55621 8.57023 2.55621C8.17751 2.55621 7.85915 2.87458 7.85915 3.26729V3.5415C7.85915 5.5051 9.45096 7.09691 11.4146 7.09691H15.948C17.1261 7.09691 18.0812 8.05199 18.0812 9.23015V14.6296C18.0812 16.4027 19.3791 17.8726 21.0767 18.1412L20.7475 18.4413Z" fill="white" fill-opacity="0.9"/>
<path d="M3.29911 5.55405C3.56369 5.84427 3.5429 6.29402 3.25269 6.5586L2.9236 6.85862C4.62157 7.12682 5.9199 8.59695 5.9199 10.3703V15.7698C5.9199 16.9479 6.87499 17.903 8.05314 17.903H12.5865C14.5501 17.903 16.1419 19.4948 16.1419 21.4584V21.7326C16.1419 22.1254 15.8236 22.4437 15.4309 22.4437C15.0381 22.4437 14.7198 22.1254 14.7198 21.7326V21.4584C14.7198 20.2803 13.7647 19.3252 12.5865 19.3252H8.05314C6.08955 19.3252 4.49774 17.7334 4.49774 15.7698V10.3703C4.49774 9.54745 4.03183 8.8334 3.34943 8.47757C3.54362 8.74482 3.53039 9.12042 3.29911 9.37411C3.03453 9.66433 2.58478 9.68511 2.29456 9.42053L0.725191 7.98979C0.59103 7.86748 0.514449 7.7056 0.497019 7.5382C0.496259 7.53091 0.495611 7.52362 0.495076 7.51632C0.479675 7.30618 0.557403 7.09133 0.725185 6.93837L2.29456 5.50763C2.58477 5.24305 3.03452 5.26384 3.29911 5.55405Z" fill="white" fill-opacity="0.9"/>
<path d="M9.70413 12.4993C9.70413 12.0445 9.33551 11.6756 8.88043 11.6756C8.4256 11.6756 8.05674 12.0443 8.05674 12.4993C8.05674 12.9542 8.42535 13.323 8.88043 13.323C9.33527 13.323 9.70413 12.9544 9.70413 12.4993Z" fill="white" fill-opacity="0.9"/>
<path d="M12.7084 12.4993C12.7084 12.0445 12.3398 11.6756 11.8847 11.6756C11.4299 11.6756 11.061 12.0443 11.061 12.4993C11.061 12.9542 11.4297 13.323 11.8847 13.323C12.3396 13.323 12.7084 12.9544 12.7084 12.4993Z" fill="white" fill-opacity="0.9"/>
<path d="M15.7125 12.4993C15.7125 12.0445 15.3439 11.6756 14.8888 11.6756C14.434 11.6756 14.0651 12.0443 14.0651 12.4993C14.0651 12.9542 14.4337 13.323 14.8888 13.323C15.3439 13.323 15.7125 12.9544 15.7125 12.4993Z" fill="white" fill-opacity="0.9"/>
</svg>
