<svg width="24" height="25" viewBox="0 0 24 25" fill="none" xmlns="http://www.w3.org/2000/svg">
<path d="M21.75 20H21V9.5C21 7.85 19.65 6.5 18 6.5H13.5V5C13.5 3.35 12.15 2 10.5 2H4.5C2.85 2 1.5 3.35 1.5 5V20H0.75C0.33 20 0 20.33 0 20.75C0 21.17 0.33 21.5 0.75 21.5H21.75C22.17 21.5 22.5 21.17 22.5 20.75C22.5 20.33 22.17 20 21.75 20ZM12 6.5V8V20H3V5C3 4.175 3.675 3.5 4.5 3.5H10.5C11.325 3.5 12 4.175 12 5V6.5ZM19.5 20H13.5V8H18C18.825 8 19.5 8.675 19.5 9.5V20ZM9.75 6.5H5.25C4.83 6.5 4.5 6.83 4.5 7.25C4.5 7.67 4.83 8 5.25 8H9.75C10.17 8 10.5 7.67 10.5 7.25C10.5 6.83 10.17 6.5 9.75 6.5ZM9.75 11H5.25C4.83 11 4.5 11.33 4.5 11.75C4.5 12.17 4.83 12.5 5.25 12.5H9.75C10.17 12.5 10.5 12.17 10.5 11.75C10.5 11.33 10.17 11 9.75 11ZM9.75 15.5H5.25C4.83 15.5 4.5 15.83 4.5 16.25C4.5 16.67 4.83 17 5.25 17H9.75C10.17 17 10.5 16.67 10.5 16.25C10.5 15.83 10.17 15.5 9.75 15.5ZM17.25 11H15.75C15.33 11 15 11.33 15 11.75C15 12.17 15.33 12.5 15.75 12.5H17.25C17.67 12.5 18 12.17 18 11.75C18 11.33 17.67 11 17.25 11ZM17.25 15.5H15.75C15.33 15.5 15 15.83 15 16.25C15 16.67 15.33 17 15.75 17H17.25C17.67 17 18 16.67 18 16.25C18 15.83 17.67 15.5 17.25 15.5Z" fill="white" fill-opacity="0.9"/>
</svg>