<svg xmlns="http://www.w3.org/2000/svg" fill="none" viewBox="0 0 16 16"><g clip-path="url(#clip0_1916_6168)"><path fill="#24282C" d="M14.666 12.4507L11.7113 10.7467L8.52262 12.5893V16L14.666 12.4507ZM7.47729 16V12.5873L4.28729 10.746L1.33396 12.4507L7.47729 16ZM7.99662 11.6833L11.1893 9.84V6.15733L7.99929 4.31733L4.81062 6.15733V9.842L7.99796 11.6827L7.99662 11.6833ZM0.813289 4.45467V11.5487L3.76796 9.84267V6.15933L0.812622 4.45333L0.813289 4.45467ZM13.89 5.202L12.234 6.15933V9.84067L15.1873 11.5467V4.452L13.89 5.202ZM1.33396 3.54933L4.29062 5.25533L7.47796 3.414V0.002L1.33396 3.54933ZM11.7113 5.25533L14.6673 3.54933L8.52129 0V3.414L11.7113 5.25533Z"/></g><defs><clipPath id="clip0_1916_6168"><rect width="16" height="16" fill="#fff"/></clipPath></defs></svg>