<svg width="48" height="49" viewBox="0 0 48 49" fill="none" xmlns="http://www.w3.org/2000/svg">
<path d="M40.0754 35.1128L32.9485 31.0509L25.2572 35.4433V43.5735L40.0754 35.1128ZM22.7358 43.5735V35.4386L15.0413 31.0493L7.91765 35.1128L22.7358 43.5735ZM23.9885 33.2837L31.6894 28.8896V20.1111L23.9949 15.725L16.3036 20.1111V28.8944L23.9917 33.2821L23.9885 33.2837ZM6.66176 16.0523V32.9627L13.7886 28.896V20.1158L6.66016 16.0492L6.66176 16.0523ZM38.2036 17.8338L34.2092 20.1158V28.8912L41.3329 32.9579V16.046L38.2036 17.8338ZM7.91765 13.8943L15.0493 17.9609L22.7374 13.5717V5.4383L7.91765 13.8943ZM32.9485 17.9609L40.0786 13.8943L25.254 5.43353V13.5717L32.9485 17.9609Z" fill="url(#paint0_angular_4715_17889)"/>
<defs>
<radialGradient id="paint0_angular_4715_17889" cx="0" cy="0" r="1" gradientUnits="userSpaceOnUse" gradientTransform="translate(-0.0660923 43.5735) rotate(-42.6537) scale(56.2897 62.0611)">
<stop stop-color="#206DC7"/>
<stop offset="1" stop-color="#4B8BD6"/>
</radialGradient>
</defs>
</svg>
