<svg xmlns="http://www.w3.org/2000/svg" width="59" height="59" viewBox="0 0 59 59" fill="none">
  <path d="M9.26774 8.73901H50.1222C50.7241 8.73901 51.3015 8.97814 51.7271 9.40379C52.1528 9.82944 52.3919 10.4067 52.3919 11.0087V47.3238C52.3919 47.9257 52.1528 48.503 51.7271 48.9287C51.3015 49.3543 50.7241 49.5935 50.1222 49.5935H9.26774C8.66578 49.5935 8.08847 49.3543 7.66282 48.9287C7.23717 48.503 6.99805 47.9257 6.99805 47.3238V11.0087C6.99805 10.4067 7.23717 9.82944 7.66282 9.40379C8.08847 8.97814 8.66578 8.73901 9.26774 8.73901ZM29.695 35.9753V40.5147H43.3131V35.9753H29.695ZM21.5558 29.1662L15.1372 35.5849L18.3465 38.7965L27.9768 29.1662L18.3465 19.5359L15.1372 22.7476L21.5558 29.1662Z" fill="#24282C"/>
</svg>