<svg width="48" height="49" viewBox="0 0 48 49" fill="none" xmlns="http://www.w3.org/2000/svg">
<path d="M7.17273 7.67133H40.8327C41.3287 7.67133 41.8043 7.86834 42.155 8.21904C42.5057 8.56973 42.7027 9.04537 42.7027 9.54133V39.4613C42.7027 39.9573 42.5057 40.4329 42.155 40.7836C41.8043 41.1343 41.3287 41.3313 40.8327 41.3313H7.17273C6.67678 41.3313 6.20114 41.1343 5.85044 40.7836C5.49975 40.4329 5.30273 39.9573 5.30273 39.4613V9.54133C5.30273 9.04537 5.49975 8.56973 5.85044 8.21904C6.20114 7.86834 6.67678 7.67133 7.17273 7.67133ZM24.0027 30.1113V33.8513H35.2227V30.1113H24.0027ZM17.2969 24.5013L12.0086 29.7897L14.6527 32.4357L22.5871 24.5013L14.6527 16.5669L12.0086 19.213L17.2969 24.5013Z" fill="url(#paint0_angular_4715_17934)"/>
<defs>
<radialGradient id="paint0_angular_4715_17934" cx="0" cy="0" r="1" gradientUnits="userSpaceOnUse" gradientTransform="translate(6.90579 41.3313) rotate(-43.2378) scale(49.1367 54.5963)">
<stop stop-color="#13243C"/>
<stop offset="1" stop-color="#213654"/>
</radialGradient>
</defs>
</svg>
