<svg xmlns="http://www.w3.org/2000/svg" xmlns:xlink="http://www.w3.org/1999/xlink" id="layout_1" data-name="layout 1" viewBox="0 0 198.77 208.77"><defs><style>.cls-1{fill:url(#gradient_595)}.cls-2{fill:url(#gradient_230)}.cls-3{fill:url(#gradient_588)}.cls-4{clip-path:url(#clip-path)}.cls-5{fill:url(#gradient_593)}</style><linearGradient id="gradient_595" x1="174.65" x2="46.97" y1="52.02" y2="172.04" gradientUnits="userSpaceOnUse"><stop offset="0" stop-color="#64b0ff"/><stop offset=".1" stop-color="#43b9ff"/><stop offset=".3" stop-color="#1fc3ff"/><stop offset=".4" stop-color="#08c9ff"/><stop offset=".5" stop-color="#00cbff"/><stop offset=".6" stop-color="#0cc7ff"/><stop offset=".7" stop-color="#2dbeff"/><stop offset=".9" stop-color="#62aeff"/><stop offset="1" stop-color="#85a4ff"/></linearGradient><linearGradient id="gradient_230" x1="174.65" x2="46.97" y1="52.02" y2="172.04" gradientUnits="userSpaceOnUse"><stop offset="0" stop-color="#6378ff"/><stop offset="1" stop-color="#6312ff"/></linearGradient><linearGradient id="gradient_588" x1="11.45" x2="82.94" y1="84.91" y2="62.26" gradientUnits="userSpaceOnUse"><stop offset="0" stop-color="#948bde"/><stop offset=".4" stop-color="#57aef4"/><stop offset=".6" stop-color="#3abfff"/><stop offset="1" stop-color="#00daff"/></linearGradient><clipPath id="clip-path"><path d="M 183.1 66.2 a 35.9 35.9 0 0 0 -1.9 -4.8 l 0 -0.1 h 0 a 35.1 35.1 0 0 0 -66.6 15.3 A 34.7 34.7 0 0 0 115.4 84 v 0 a 0.7 0.7 0 0 1 0 0.1 c 0.2 1 0.5 2 0.8 3 A 54.1 54.1 0 1 1 10.5 109.9 A 89.5 89.5 0 1 0 183.1 66.2 Z" class="cls-1"/></clipPath><linearGradient id="gradient_593" x1="146.81" x2="31.88" y1="36.3" y2="144.34" gradientUnits="userSpaceOnUse"><stop offset="0" stop-color="#64acff"/><stop offset=".1" stop-color="#5cacfe"/><stop offset=".3" stop-color="#48acfc"/><stop offset=".5" stop-color="#30acfa"/><stop offset=".8" stop-color="#179ef4"/><stop offset="1" stop-color="#0091ee"/></linearGradient></defs><path d="M 183.1 66.2 a 35.9 35.9 0 0 0 -1.9 -4.8 l 0 -0.1 h 0 a 35.1 35.1 0 0 0 -66.6 15.3 A 34.7 34.7 0 0 0 115.4 84 v 0 a 0.7 0.7 0 0 1 0 0.1 c 0.2 1 0.5 2 0.8 3 A 54.1 54.1 0 1 1 10.5 109.9 A 89.5 89.5 0 1 0 183.1 66.2 Z" class="cls-2"/><path d="M 41 96.3 c 11.6 16.9 35.6 15.4 35.6 15.4 c -6 -5.8 -9.9 -11.1 -10.3 -26.2 S 57.3 66.4 57.3 66.4 c 15.4 -9.7 9.9 -20.2 9.4 -31.9 c -0.3 -7.3 4 -12.7 7.4 -15.8 a 76.8 76.8 0 0 0 -65 84 C 10.5 98.8 30.3 80.7 41 96.3 Z" class="cls-3"/><path d="M 183.1 66.2 a 35.9 35.9 0 0 0 -1.9 -4.8 l 0 -0.1 h 0 a 35.1 35.1 0 0 0 -66.6 15.3 A 34.7 34.7 0 0 0 115.4 84 v 0 a 0.7 0.7 0 0 1 0 0.1 c 0.2 1 0.5 2 0.8 3 A 54.1 54.1 0 1 1 10.5 109.9 A 89.5 89.5 0 1 0 183.1 66.2 Z" class="cls-1"/><g class="cls-4"><circle cx="89.3" cy="90.3" r="78.9" class="cls-5"/></g></svg>