<svg width="25" height="25" viewBox="0 0 25 25" fill="none" xmlns="http://www.w3.org/2000/svg">
<path d="M16.3502 8.2672C16.7402 8.2672 17.1202 8.2972 17.4902 8.3472C16.8102 5.3772 13.6902 3.1272 9.94023 3.1272C5.69023 3.1272 2.24023 6.0072 2.24023 9.5572C2.24023 11.6072 3.39023 13.4172 5.18023 14.5972L4.17023 16.6272L6.93023 15.4372C7.52023 15.6472 8.14023 15.8172 8.80023 15.9072C8.71023 15.5172 8.66023 15.1172 8.66023 14.6972C8.65023 11.1572 12.1002 8.2672 16.3502 8.2672ZM12.5002 6.0172C12.6263 6.0172 12.7511 6.04203 12.8676 6.09027C12.9841 6.13852 13.0899 6.20923 13.1791 6.29837C13.2682 6.38752 13.3389 6.49335 13.3872 6.60982C13.4354 6.72629 13.4602 6.85113 13.4602 6.9772C13.4602 7.10327 13.4354 7.2281 13.3872 7.34457C13.3389 7.46105 13.2682 7.56688 13.1791 7.65602C13.0899 7.74516 12.9841 7.81588 12.8676 7.86412C12.7511 7.91237 12.6263 7.9372 12.5002 7.9372C12.2456 7.9372 12.0014 7.83605 11.8214 7.65602C11.6414 7.47598 11.5402 7.2318 11.5402 6.9772C11.5402 6.72259 11.6414 6.47841 11.8214 6.29837C12.0014 6.11834 12.2456 6.0172 12.5002 6.0172ZM7.37023 7.9472C7.11563 7.9472 6.87145 7.84606 6.69141 7.66602C6.51138 7.48598 6.41023 7.24181 6.41023 6.9872C6.41023 6.73259 6.51138 6.48841 6.69141 6.30837C6.87145 6.12834 7.11563 6.0272 7.37023 6.0272C7.62484 6.0272 7.86902 6.12834 8.04906 6.30837C8.22909 6.48841 8.33023 6.73259 8.33023 6.9872C8.33023 7.24181 8.22909 7.48598 8.04906 7.66602C7.86902 7.84606 7.62484 7.9472 7.37023 7.9472Z" fill="#33BABB"/>
<path d="M22.7603 14.6973C22.7603 11.8573 19.8903 9.55725 16.3503 9.55725C12.8103 9.55725 9.94034 11.8573 9.94034 14.6973C9.94034 17.5373 12.8103 19.8372 16.3503 19.8372C16.9303 19.8372 17.4903 19.7573 18.0203 19.6373L21.4803 21.1273L20.2803 18.7273C21.7803 17.7873 22.7603 16.3473 22.7603 14.6973ZM14.4203 14.3773C14.2305 14.3773 14.0449 14.3209 13.887 14.2155C13.7291 14.11 13.6061 13.96 13.5334 13.7846C13.4608 13.6092 13.4417 13.4162 13.4788 13.23C13.5158 13.0437 13.6073 12.8727 13.7415 12.7384C13.8758 12.6042 14.0468 12.5127 14.2331 12.4757C14.4193 12.4387 14.6123 12.4577 14.7877 12.5303C14.9631 12.603 15.1131 12.726 15.2185 12.8839C15.324 13.0418 15.3803 13.2274 15.3803 13.4173C15.3903 13.9473 14.9503 14.3773 14.4203 14.3773ZM18.2703 14.3773C18.0157 14.3773 17.7716 14.2761 17.5915 14.0961C17.4115 13.916 17.3103 13.6719 17.3103 13.4173C17.3103 13.1626 17.4115 12.9185 17.5915 12.7384C17.7716 12.5584 18.0157 12.4573 18.2703 12.4573C18.5249 12.4573 18.7691 12.5584 18.9492 12.7384C19.1292 12.9185 19.2303 13.1626 19.2303 13.4173C19.2303 13.6719 19.1292 13.916 18.9492 14.0961C18.7691 14.2761 18.5249 14.3773 18.2703 14.3773Z" fill="#33BABB"/>
</svg>
