<svg xmlns="http://www.w3.org/2000/svg" width="23" height="22" viewBox="0 0 23 22" fill="none">
  <path d="M22.0287 6.38649C21.9655 6.18486 21.8878 5.98807 21.7964 5.79763V5.78536C21.3698 4.91429 20.6625 4.21342 19.7891 3.79643C18.9157 3.37944 17.9276 3.27079 16.985 3.48811C16.0424 3.70542 15.2006 4.23596 14.5962 4.99365C13.9917 5.75135 13.6601 6.69176 13.655 7.66236C13.6551 7.96761 13.6879 8.27197 13.7528 8.57018C13.7531 8.57427 13.7531 8.57837 13.7528 8.58245C13.7773 8.70513 13.8139 8.82781 13.8506 8.95049C14.0688 9.81469 14.1113 10.7142 13.9754 11.5952C13.8396 12.4762 13.5284 13.3208 13.0602 14.0784C12.592 14.8361 11.9765 15.4913 11.2504 16.005C10.5244 16.5187 9.70265 16.8803 8.83428 17.0683C7.9659 17.2563 7.06869 17.2668 6.19619 17.0991C5.32369 16.9315 4.49379 16.5891 3.75602 16.0925C3.01825 15.5959 2.38773 14.9553 1.9021 14.2088C1.41648 13.4622 1.08569 12.6252 0.929483 11.7476C1.15037 13.2689 1.68714 14.7267 2.50503 16.0266C3.32293 17.3265 4.40372 18.4395 5.67744 19.2937C6.95116 20.1478 8.38941 20.724 9.89909 20.9849C11.4088 21.2458 12.9562 21.1856 14.4413 20.8083C15.9263 20.431 17.3158 19.7449 18.5199 18.7944C19.724 17.844 20.7157 16.6504 21.431 15.2909C22.1462 13.9313 22.569 12.4363 22.672 10.9024C22.775 9.36848 22.5558 7.82999 22.0287 6.38649V6.38649Z" fill="#6378FF"/>
  <path d="M4.65795 10.0791C6.07597 12.1524 9.00982 11.9684 9.00982 11.9684C8.27636 11.2568 7.79961 10.6066 7.75071 8.75418C7.70181 6.90172 6.65052 6.41101 6.65052 6.41101C8.53307 5.22102 7.86073 3.93288 7.79961 2.49754C7.76293 1.60198 8.28858 0.93951 8.70421 0.559204C6.31199 0.91882 4.1504 2.19119 2.67007 4.11105C1.18974 6.03091 0.504922 8.4501 0.758384 10.8643C0.929524 10.3858 3.34994 8.16532 4.65795 10.0791Z" fill="#0AA3F9"/>
  <path d="M22.0287 6.38649C21.9655 6.18486 21.8878 5.98807 21.7964 5.79763V5.78536C21.3698 4.91429 20.6625 4.21342 19.7891 3.79643C18.9157 3.37944 17.9276 3.27079 16.985 3.48811C16.0424 3.70542 15.2006 4.23596 14.5962 4.99365C13.9917 5.75135 13.6601 6.69176 13.655 7.66236C13.6551 7.96761 13.6879 8.27197 13.7528 8.57018C13.7531 8.57427 13.7531 8.57837 13.7528 8.58245C13.7773 8.70513 13.8139 8.82781 13.8506 8.95049C14.0688 9.81469 14.1113 10.7142 13.9754 11.5952C13.8396 12.4762 13.5284 13.3208 13.0602 14.0784C12.592 14.8361 11.9765 15.4913 11.2504 16.005C10.5244 16.5187 9.70265 16.8803 8.83428 17.0683C7.9659 17.2563 7.06869 17.2668 6.19619 17.0991C5.32369 16.9315 4.49379 16.5891 3.75602 16.0925C3.01825 15.5959 2.38773 14.9553 1.9021 14.2088C1.41648 13.4622 1.08569 12.6252 0.929483 11.7476C1.15037 13.2689 1.68714 14.7267 2.50503 16.0266C3.32293 17.3265 4.40372 18.4395 5.67744 19.2937C6.95116 20.1478 8.38941 20.724 9.89909 20.9849C11.4088 21.2458 12.9562 21.1856 14.4413 20.8083C15.9263 20.431 17.3158 19.7449 18.5199 18.7944C19.724 17.844 20.7157 16.6504 21.431 15.2909C22.1462 13.9313 22.569 12.4363 22.672 10.9024C22.775 9.36848 22.5558 7.82999 22.0287 6.38649V6.38649Z" fill="#0AA3F9"/>
  <path fill-rule="evenodd" clip-rule="evenodd" d="M20.2073 9.34279C20.2073 14.6886 15.8891 19.0222 10.5623 19.0222C7.73578 19.0222 5.19322 17.802 3.42912 15.8578C3.53555 15.9393 3.64457 16.0176 3.75602 16.0926C4.49379 16.5892 5.32369 16.9316 6.19619 17.0992C7.06869 17.2669 7.96591 17.2564 8.83428 17.0684C9.70265 16.8804 10.5244 16.5188 11.2504 16.0051C11.9765 15.4914 12.592 14.8362 13.0602 14.0785C13.5284 13.3209 13.8396 12.4763 13.9755 11.5953C14.1113 10.7143 14.0688 9.81481 13.8506 8.95061C13.8139 8.82793 13.7773 8.70525 13.7528 8.58257C13.7531 8.57848 13.7531 8.57438 13.7528 8.5703C13.6879 8.27209 13.6551 7.96772 13.655 7.66247C13.6601 6.69188 13.9917 5.75147 14.5962 4.99377C15.2006 4.23608 16.0424 3.70554 16.985 3.48822C17.374 3.39854 17.7707 3.36438 18.164 3.38448C19.4443 5.02724 20.2073 7.09558 20.2073 9.34279Z" fill="#7ABBFD"/>
</svg>