<svg width="58" height="54" viewBox="0 0 58 54" fill="none" xmlns="http://www.w3.org/2000/svg">
<g filter="url(#filter0_dd_2386_65447)">
<path d="M18.9597 11.6031C22.496 11.6031 25.7002 11.9944 27.9484 12.5993C29.0757 12.9017 29.964 13.2655 30.5012 13.606C31.0363 13.9465 31.1146 14.1855 31.1146 14.2236C31.1146 14.2617 31.0363 14.4986 30.5012 14.837C29.964 15.1796 29.0757 15.5434 27.9505 15.8458C25.7002 16.4528 22.496 16.8441 18.9597 16.8441C15.4214 16.8441 12.2172 16.4528 9.96681 15.8458C8.84164 15.5434 7.95335 15.1796 7.41826 14.8391C6.88105 14.4964 6.80491 14.2617 6.80491 14.2236C6.80491 14.1855 6.88105 13.9487 7.41826 13.606C7.95335 13.2655 8.84164 12.9017 9.96681 12.5993C12.2172 11.9944 15.4235 11.6031 18.9597 11.6031Z" fill="#24282C"/>
<path d="M6.80279 16.4718C7.54727 16.8948 8.41018 17.2628 9.50575 17.5589C11.9761 18.223 15.2924 18.6164 18.9597 18.6164C22.625 18.6164 25.9434 18.223 28.4137 17.5589C29.3561 17.3135 30.2631 16.9482 31.1125 16.4718V23.0769C31.1125 23.0981 31.1125 23.1763 30.9221 23.3624C30.6121 23.6373 30.2601 23.8608 29.8794 24.0244C28.8748 24.4918 27.3055 24.9318 25.3428 25.2363C21.4174 25.8454 16.5 25.8454 12.5725 25.2363C10.6098 24.9318 9.04045 24.4918 8.03795 24.0244C7.65643 23.8612 7.30365 23.6377 6.99314 23.3624C6.80702 23.1763 6.80279 23.0959 6.80279 23.0769V16.4718Z" fill="#24282C"/>
<path d="M6.80279 25.3167C6.97834 25.4161 7.09255 25.543 7.28924 25.6339C8.53708 26.2177 10.2291 26.6703 12.3018 26.9918C16.4471 27.6347 21.4702 27.6347 25.6156 26.9918C27.6883 26.6703 29.3803 26.2177 30.6281 25.6339C30.8248 25.543 30.939 25.4161 31.1146 25.3167V31.9302C31.1146 31.9514 31.1103 32.0297 30.9242 32.2158C30.6138 32.4917 30.261 32.7159 29.8794 32.8799C28.8748 33.3473 27.3055 33.7872 25.3428 34.0918C21.4174 34.7009 16.5 34.7009 12.5725 34.0918C10.6098 33.7872 9.04045 33.3473 8.03795 32.8799C7.65627 32.7161 7.30348 32.4918 6.99314 32.2158C6.80702 32.0297 6.80279 31.9493 6.80279 31.9302V25.3167Z" fill="#24282C"/>
<path d="M6.80279 34.1721C6.97834 34.2715 7.09255 34.3984 7.28924 34.4894C8.53708 35.071 10.2291 35.5257 12.3018 35.8472C16.4471 36.4902 21.4702 36.4902 25.6156 35.8472C27.6883 35.5236 29.3803 35.071 30.6281 34.4894C30.8248 34.3984 30.939 34.2715 31.1146 34.1721V40.7857C31.1146 40.8069 31.1103 40.8851 30.9242 41.0712C30.6138 41.3471 30.261 41.5713 29.8794 41.7353C28.8748 42.2027 27.3055 42.6427 25.3428 42.9472C21.4174 43.5563 16.5 43.5563 12.5725 42.9472C10.6098 42.6427 9.04045 42.2027 8.03795 41.7353C7.65627 41.5715 7.30348 41.3473 6.99314 41.0712C6.80702 40.8851 6.80279 40.8047 6.80279 40.7857V34.1721Z" fill="#24282C"/>
<path fill-rule="evenodd" clip-rule="evenodd" d="M50.2212 16.4466C50.4314 16.2364 50.5495 15.9512 50.5495 15.6539C50.5495 15.5066 50.5204 15.3606 50.464 15.2245C50.4075 15.0884 50.3247 14.9647 50.2204 14.8606C50.1161 14.7565 49.9923 14.6739 49.856 14.6177C49.7198 14.5615 49.5738 14.5327 49.4264 14.533C49.1291 14.533 48.844 14.6511 48.6338 14.8613C48.4236 15.0715 48.3055 15.3567 48.3055 15.6539C48.3055 15.8013 48.3346 15.9473 48.391 16.0834C48.4475 16.2195 48.5303 16.3432 48.6346 16.4473C48.7389 16.5514 48.8627 16.634 48.9989 16.6902C49.1352 16.7464 49.2812 16.7752 49.4286 16.7749C49.7258 16.7749 50.011 16.6568 50.2212 16.4466ZM47.3284 2.72714C47.3284 2.72714 47.6964 2.68908 48.2547 2.706C48.9588 2.72443 49.6581 2.82667 50.338 3.01055C51.1079 3.22628 51.9264 3.59006 52.582 4.2584C53.2377 4.92673 53.6776 5.9102 53.6776 7.10517C53.6845 7.8497 53.4147 8.57028 52.9204 9.1271C52.472 9.61777 51.92 9.90541 51.4103 10.0894C50.9773 10.2451 50.7856 10.2553 50.551 10.2678C50.4796 10.2716 50.4042 10.2756 50.3168 10.284V13.2598H48.5403V8.6618L49.4328 8.66603C49.4328 8.66603 50.1476 8.65968 50.8075 8.42069C51.1085 8.32149 51.3823 8.15349 51.607 7.93001C51.791 7.7312 51.901 7.51971 51.901 7.10517C51.901 6.30993 51.6683 5.86156 51.3151 5.50201C50.9598 5.14035 50.4332 4.88232 49.8579 4.72158C48.7095 4.4001 47.4891 4.49527 47.4891 4.49527L47.3284 2.72714ZM34.6807 11.3817L40.7592 6.1217L41.9203 7.46472L37.4091 11.369L41.9352 15.2119L40.7846 16.5655L34.6807 11.3817Z" fill="#24282C"/>
</g>
<defs>
<filter id="filter0_dd_2386_65447" x="-4" y="-2" width="62" height="62" filterUnits="userSpaceOnUse" color-interpolation-filters="sRGB">
<feFlood flood-opacity="0" result="BackgroundImageFix"/>
<feColorMatrix in="SourceAlpha" type="matrix" values="0 0 0 0 0 0 0 0 0 0 0 0 0 0 0 0 0 0 127 0" result="hardAlpha"/>
<feOffset/>
<feGaussianBlur stdDeviation="0.5"/>
<feComposite in2="hardAlpha" operator="out"/>
<feColorMatrix type="matrix" values="0 0 0 0 0.473958 0 0 0 0 0.552499 0 0 0 0 0.625 0 0 0 0.25 0"/>
<feBlend mode="normal" in2="BackgroundImageFix" result="effect1_dropShadow_2386_65447"/>
<feColorMatrix in="SourceAlpha" type="matrix" values="0 0 0 0 0 0 0 0 0 0 0 0 0 0 0 0 0 0 127 0" result="hardAlpha"/>
<feOffset dy="2"/>
<feGaussianBlur stdDeviation="2"/>
<feComposite in2="hardAlpha" operator="out"/>
<feColorMatrix type="matrix" values="0 0 0 0 0.632917 0 0 0 0 0.655278 0 0 0 0 0.7 0 0 0 0.25 0"/>
<feBlend mode="normal" in2="effect1_dropShadow_2386_65447" result="effect2_dropShadow_2386_65447"/>
<feBlend mode="normal" in="SourceGraphic" in2="effect2_dropShadow_2386_65447" result="shape"/>
</filter>
</defs>
</svg>
