<svg xmlns="http://www.w3.org/2000/svg" width="20" height="20" viewBox="0 0 20 20" fill="none">
  <path d="M10 12.5C7.35827 12.5 5.009 13.7755 3.51333 15.7549C3.19142 16.181 3.03047 16.394 3.03573 16.6819C3.0398 16.9043 3.17947 17.1849 3.35447 17.3222C3.58099 17.5 3.89489 17.5 4.52269 17.5H15.4773C16.1051 17.5 16.419 17.5 16.6455 17.3222C16.8205 17.1849 16.9602 16.9043 16.9643 16.6819C16.9695 16.394 16.8086 16.181 16.4867 15.7549C14.991 13.7755 12.6417 12.5 10 12.5Z" fill="#219BF4"/>
  <path d="M10 9.99996C12.0711 9.99996 13.75 8.32103 13.75 6.24996C13.75 4.17889 12.0711 2.49996 10 2.49996C7.92893 2.49996 6.25 4.17889 6.25 6.24996C6.25 8.32103 7.92893 9.99996 10 9.99996Z" fill="#219BF4"/>
  <path fill-rule="evenodd" clip-rule="evenodd" d="M10 3.33329C8.38917 3.33329 7.08333 4.63913 7.08333 6.24996C7.08333 7.86079 8.38917 9.16662 10 9.16662C11.6108 9.16662 12.9167 7.86079 12.9167 6.24996C12.9167 4.63913 11.6108 3.33329 10 3.33329ZM5.41667 6.24996C5.41667 3.71865 7.46869 1.66663 10 1.66663C12.5313 1.66663 14.5833 3.71865 14.5833 6.24996C14.5833 8.78126 12.5313 10.8333 10 10.8333C7.46869 10.8333 5.41667 8.78126 5.41667 6.24996ZM10 13.3333C7.63414 13.3333 5.5254 14.4744 4.1782 16.2573C4.09579 16.3664 4.03271 16.45 3.98025 16.5234C3.94042 16.5792 3.91323 16.6201 3.89431 16.6511C4.01816 16.6653 4.19464 16.6666 4.52269 16.6666H15.4773C15.8054 16.6666 15.9818 16.6653 16.1057 16.6511C16.0868 16.6201 16.0596 16.5792 16.0197 16.5234C15.9673 16.45 15.9042 16.3664 15.8218 16.2573C14.4746 14.4744 12.3659 13.3333 10 13.3333ZM2.84845 15.2526C4.49259 13.0766 7.0824 11.6666 10 11.6666C12.9176 11.6666 15.5074 13.0766 17.1515 15.2526C17.159 15.2624 17.1664 15.2723 17.1739 15.2822C17.3153 15.4691 17.4669 15.6696 17.5752 15.8629C17.7063 16.097 17.8035 16.3678 17.7975 16.6971C17.7926 16.9618 17.7124 17.2096 17.615 17.4053C17.5176 17.6009 17.3683 17.8143 17.16 17.9778C16.8822 18.1958 16.5798 18.2729 16.3111 18.3051C16.0754 18.3334 15.7961 18.3334 15.5153 18.3333C15.5026 18.3333 15.49 18.3333 15.4773 18.3333H4.52269C4.51003 18.3333 4.49737 18.3333 4.48472 18.3333C4.20389 18.3334 3.92457 18.3334 3.68887 18.3051C3.42021 18.2729 3.11779 18.1958 2.84002 17.9778C2.63173 17.8143 2.48237 17.6009 2.38498 17.4053C2.28758 17.2096 2.20738 16.9618 2.20254 16.6971C2.19651 16.3678 2.29369 16.097 2.4248 15.8629C2.53312 15.6696 2.68469 15.4691 2.82606 15.2822C2.83355 15.2723 2.84102 15.2624 2.84845 15.2526Z" fill="#219BF4"/>
</svg>