<svg xmlns="http://www.w3.org/2000/svg" width="16" height="16" fill="none" viewBox="0 0 16 16"><path fill="#24282C" d="M1.33337 6H14C14.1769 6 14.3464 6.07024 14.4714 6.19526C14.5965 6.32029 14.6667 6.48986 14.6667 6.66667V13.3333C14.6667 13.5101 14.5965 13.6797 14.4714 13.8047C14.3464 13.9298 14.1769 14 14 14H2.00004C1.82323 14 1.65366 13.9298 1.52864 13.8047C1.40361 13.6797 1.33337 13.5101 1.33337 13.3333V6ZM2.00004 2H12V4.66667H1.33337V2.66667C1.33337 2.48986 1.40361 2.32029 1.52864 2.19526C1.65366 2.07024 1.82323 2 2.00004 2ZM10 9.33333V10.6667H12V9.33333H10Z"/></svg>