<svg xmlns="http://www.w3.org/2000/svg" width="78" height="78" fill="none" viewBox="0 0 78 78"><g clip-path="url(#clip0_1179_19162)"><rect width="78" height="78" fill="url(#paint0_linear_1179_19162)"/><path fill="url(#paint1_linear_1179_19162)" d="M55.2402 16.6968C56.8042 16.6968 58.0722 17.9649 58.0723 19.5288C58.0723 21.0928 56.8042 22.3608 55.2402 22.3608H52.0811L52.082 22.3638H23.0488C20.8397 22.3638 19.0488 24.1546 19.0488 26.3638V27.8667H57C61.4183 27.8667 65 31.4484 65 35.8667V55.3032C64.9999 59.7214 61.4182 63.3032 57 63.3032H21C16.5819 63.3031 13.0001 59.7213 13 55.3032V24.6968C13 20.2785 16.5817 16.6968 21 16.6968H55.2402Z"/><path fill="url(#paint2_linear_1179_19162)" d="M40.8748 44.4988C40.8748 41.9031 42.979 39.7988 45.5748 39.7988H58.0172C59.6645 39.7988 61 41.1343 61 42.7816V46.216C61 47.8634 59.6646 49.1988 58.0172 49.1988H45.5748C42.979 49.1988 40.8748 47.0946 40.8748 44.4988Z"/><circle cx="46.308" cy="44.499" r="2.71" fill="url(#paint3_linear_1179_19162)" transform="rotate(75 46.3081 44.4989)"/></g><defs><linearGradient id="paint0_linear_1179_19162" x1="78" x2="0" y1="0" y2="78" gradientUnits="userSpaceOnUse"><stop stop-color="#83E4EB"/><stop offset="1" stop-color="#00BECC"/></linearGradient><linearGradient id="paint1_linear_1179_19162" x1="39" x2="39" y1="14.697" y2="64.896" gradientUnits="userSpaceOnUse"><stop stop-color="#fff"/><stop offset="1" stop-color="#fff" stop-opacity=".8"/></linearGradient><linearGradient id="paint2_linear_1179_19162" x1="50.937" x2="50.937" y1="39.799" y2="49.842" gradientUnits="userSpaceOnUse"><stop stop-color="#00B2C0"/><stop offset="1" stop-color="#73DFE7"/></linearGradient><linearGradient id="paint3_linear_1179_19162" x1="43.598" x2="49.018" y1="44.499" y2="44.499" gradientUnits="userSpaceOnUse"><stop stop-color="#FDFFFF" stop-opacity=".6"/><stop offset="1" stop-color="#FDFFFF"/></linearGradient><clipPath id="clip0_1179_19162"><rect width="78" height="78" fill="#fff"/></clipPath></defs></svg>