
<svg width="48" height="49" viewBox="0 0 48 49" fill="none" xmlns="http://www.w3.org/2000/svg">
<path d="M5.2998 18.8921H40.8298C41.3257 18.8921 41.8014 19.0891 42.1521 19.4398C42.5028 19.7905 42.6998 20.2662 42.6998 20.7621V39.4621C42.6998 39.9581 42.5028 40.4337 42.1521 40.7844C41.8014 41.1351 41.3257 41.3321 40.8298 41.3321H7.1698C6.67385 41.3321 6.19821 41.1351 5.84751 40.7844C5.49682 40.4337 5.2998 39.9581 5.2998 39.4621V18.8921ZM7.1698 7.67212H35.2198V15.1521H5.2998V9.54212C5.2998 9.04616 5.49682 8.57052 5.84751 8.21983C6.19821 7.86914 6.67385 7.67212 7.1698 7.67212ZM29.6098 28.2421V31.9821H35.2198V28.2421H29.6098Z" fill="url(#paint0_angular_4715_17891)"/>
<defs>
<radialGradient id="paint0_angular_4715_17891" cx="0" cy="0" r="1" gradientUnits="userSpaceOnUse" gradientTransform="translate(6.90286 41.3321) rotate(-43.2378) scale(49.1367 54.5963)">
<stop stop-color="#AF5656"/>
<stop offset="1" stop-color="#BE6767"/>
</radialGradient>
</defs>
</svg>
