<svg width="49" height="48" viewBox="0 0 49 48" fill="none" xmlns="http://www.w3.org/2000/svg">
<path fill-rule="evenodd" clip-rule="evenodd" d="M32.1024 4.12481C32.9598 4.07477 33.8105 4.30201 34.5287 4.77292L43.2681 10.5031C44.1138 11.0575 44.6232 12.0007 44.6232 13.0119V39.674C44.6232 41.2792 43.3597 42.5999 41.7561 42.6711L14.5254 43.879C13.5352 43.923 12.5872 43.4749 11.9925 42.682L5.97658 34.6608C5.4573 33.9684 5.17659 33.1263 5.17658 32.2608L5.17654 7.58288C5.17654 6.52357 6.00251 5.64799 7.06002 5.58628L32.1024 4.12481ZM30.6626 8.10123C31.167 8.07043 31.8341 8.26762 32.3903 8.61191L35.95 10.8157C36.7484 11.3101 36.8287 11.9492 36.0969 11.985L18.1634 12.8617C17.5108 12.8936 16.6236 12.5541 16.0503 12.053L13.9956 10.2572C13.3601 9.70183 13.4338 9.15322 14.1496 9.10951L30.6626 8.10123ZM27.0775 35.632C26.6188 35.5454 26.3264 35.1098 26.4117 34.6401L28.6969 22.0556C28.7891 21.5482 29.2832 21.2004 29.7787 21.294L30.8075 21.4883C31.2663 21.575 31.5587 22.0106 31.4734 22.4803L29.1881 35.0648C29.096 35.5722 28.6019 35.92 28.1063 35.8264L27.0775 35.632ZM23.4858 22.552C23.128 22.1706 22.5009 22.2095 22.151 22.6349L19.4149 25.9615L17.1633 28.7052C16.8727 29.0593 16.8776 29.5612 17.1748 29.8787L19.6568 32.5313L22.2743 35.322C22.632 35.7034 23.2592 35.6645 23.609 35.2391L24.4103 34.2649C24.7017 33.9106 24.6968 33.4076 24.3988 33.0899L21.1557 29.6321C20.8577 29.3144 20.8528 28.8114 21.1443 28.457L24.3163 24.6005C24.6078 24.2461 24.6029 23.7431 24.3049 23.4254L23.4858 22.552ZM35.6107 21.7983L38.3585 24.728L40.7103 27.2416C41.0074 27.5591 41.0123 28.0611 40.7217 28.4151L38.4216 31.2179L35.734 34.4854C35.3841 34.9108 34.757 34.9498 34.3993 34.5684L33.5801 33.695C33.2821 33.3773 33.2772 32.8743 33.5687 32.5199L36.7407 28.6634C37.0322 28.309 37.0273 27.806 36.7293 27.4883L33.4862 24.0305C33.1882 23.7128 33.1833 23.2098 33.4747 22.8554L34.276 21.8813C34.6259 21.4559 35.253 21.4169 35.6107 21.7983Z" fill="url(#paint0_linear_2809_3660)"/>
<defs>
<linearGradient id="paint0_linear_2809_3660" x1="24.5717" y1="2.18558" x2="8.06826" y2="43.882" gradientUnits="userSpaceOnUse">
<stop stop-color="#213654"/>
<stop offset="1" stop-color="#0F1D32"/>
</linearGradient>
</defs>
</svg>
