<svg width="78" height="78" viewBox="0 0 78 78" fill="none" xmlns="http://www.w3.org/2000/svg">
<g clip-path="url(#clip0_1172_18743)">
<rect width="78" height="78" fill="url(#paint0_linear_1172_18743)"/>
<path d="M30.203 38.3615C33.2506 36.6019 34.7745 35.7221 36.5316 35.3925C38.0773 35.1026 39.7422 35.1026 41.2879 35.3925C43.0451 35.7221 44.5689 36.6019 47.6166 38.3615L52.2811 41.0546C57.8685 44.2804 60.6622 45.8934 61.7089 47.7533C62.6296 49.3893 62.6296 51.1517 61.7089 52.7877C60.6622 54.6476 57.8685 56.2606 52.2811 59.4864L46.3458 62.9132C43.8061 64.3795 42.5362 65.1126 41.0719 65.3873C39.7838 65.629 38.3964 65.629 37.1083 65.3873C35.644 65.1126 34.3742 64.3795 31.8344 62.9132L21.3654 56.8689C17.3018 54.5228 15.2701 53.3497 14.5088 51.9971C13.8392 50.8072 13.8392 49.5255 14.5088 48.3357C15.2701 46.983 17.3018 45.81 21.3654 43.4639L30.203 38.3615Z" fill="url(#paint1_linear_1172_18743)"/>
<path d="M34.1122 15.9421C37.1599 14.1825 38.6837 13.3027 40.4409 12.9731C41.9865 12.6831 43.6515 12.6831 45.1971 12.9731C46.9543 13.3027 48.4781 14.1825 51.5258 15.9421L58.5364 19.9896C60.6464 21.2078 62.0259 22.0043 62.8646 22.7158C63.4638 23.128 63.9761 23.6839 64.3846 24.3737C65.4719 26.2102 65.4719 29.4361 65.4719 35.8878V41.8276C65.4719 45.3467 65.4719 47.1063 64.8788 48.7928C64.3571 50.2764 63.5246 51.7183 62.5007 52.9119C61.3366 54.2688 59.8128 55.1486 56.7651 56.9082L50.0517 60.7842C44.4643 64.01 41.6706 65.623 39.5365 65.5995C37.6593 65.5789 36.1331 64.6977 35.1766 63.0823C34.0893 61.2459 34.0893 58.02 34.0893 51.5682L34.0892 43.8122C34.0892 42.0317 32.8392 39.8666 31.2973 38.9764L25.6617 35.7227V35.7209L24.3671 34.9734C20.3035 32.6273 18.2718 31.4543 17.5105 30.1016C16.8409 28.9117 16.8409 27.6301 17.5105 26.4402C18.2718 25.0875 20.3035 23.9145 24.3671 21.5684L34.1122 15.9421Z" fill="#EBECF7"/>
<path d="M52.2177 32.7564C52.3609 31.9321 52.9977 31.0974 53.6399 30.8919C54.2822 30.6865 54.6867 31.1883 54.5435 32.0126L50.5665 54.8985C50.4233 55.7228 49.7865 56.5576 49.1442 56.763C48.502 56.9684 48.0975 56.4667 48.2407 55.6423L52.2177 32.7564Z" fill="url(#paint2_linear_1172_18743)"/>
<path d="M56.0619 34.9704C56.5272 34.1645 57.2816 33.729 57.7469 33.9976L62.2403 36.5919C62.5993 36.7991 62.6813 37.365 62.4863 37.9829C62.4286 38.1659 62.3466 38.3535 62.2402 38.5377L57.7469 46.3204C57.2816 47.1263 56.5272 47.5619 56.0618 47.2933C55.5965 47.0246 55.5965 46.1535 56.0618 45.3476L59.7128 39.024L56.0619 36.9161C55.5966 36.6475 55.5966 35.7764 56.0619 34.9704Z" fill="url(#paint3_linear_1172_18743)"/>
<path d="M45.3832 41.1354C45.8485 40.3294 46.6029 39.8939 47.0682 40.1625C47.5335 40.4312 47.5335 41.3023 47.0682 42.1082L43.4173 48.4317L47.0682 50.5395C47.5335 50.8082 47.5335 51.6793 47.0682 52.4852C46.6029 53.2912 45.8485 53.7267 45.3832 53.4581L40.8907 50.8643C40.4254 50.5956 40.4245 49.724 40.8898 48.9181L45.3832 41.1354Z" fill="url(#paint4_linear_1172_18743)"/>
</g>
<defs>
<linearGradient id="paint0_linear_1172_18743" x1="78" y1="0" x2="9.29832e-06" y2="78" gradientUnits="userSpaceOnUse">
<stop stop-color="#636363"/>
<stop offset="1"/>
</linearGradient>
<linearGradient id="paint1_linear_1172_18743" x1="49.56" y1="60.9796" x2="19.8" y2="61.3291" gradientUnits="userSpaceOnUse">
<stop stop-color="#7A9BFF"/>
<stop offset="1" stop-color="#7A9BFF" stop-opacity="0.2"/>
</linearGradient>
<linearGradient id="paint2_linear_1172_18743" x1="39.5852" y1="40.8765" x2="48.4217" y2="56.809" gradientUnits="userSpaceOnUse">
<stop/>
<stop offset="1" stop-color="#666666"/>
</linearGradient>
<linearGradient id="paint3_linear_1172_18743" x1="39.5852" y1="40.8765" x2="48.4217" y2="56.809" gradientUnits="userSpaceOnUse">
<stop/>
<stop offset="1" stop-color="#666666"/>
</linearGradient>
<linearGradient id="paint4_linear_1172_18743" x1="39.5852" y1="40.8765" x2="48.4217" y2="56.809" gradientUnits="userSpaceOnUse">
<stop/>
<stop offset="1" stop-color="#666666"/>
</linearGradient>
<clipPath id="clip0_1172_18743">
<rect width="78" height="78" fill="white"/>
</clipPath>
</defs>
</svg>
