<svg xmlns="http://www.w3.org/2000/svg" width="602" height="128" viewBox="0 0 602 128" fill="none">
  <path d="M24.5 16.5H55V0H55.5V16.5H86V0H86.5V16.5H117V0H117.5V16.5H148V0H148.5V16.5H179V0H179.5V16.5H210V0H210.5V16.5H241V0H241.5V16.5H272V0H272.5V16.5H303V0H303.5V16.5H334V0H334.5V16.5H365V0H365.5V16.5H396V0H396.5V16.5H427V0H427.5V16.5H458V0H458.5V16.5H489V0H489.5V16.5H520V0H520.5V16.5H551V0H551.5V16.5H582V0H582.5V16.5H602V17H582.5V47.5H602V48H582.5V78.5H602V79H582.5V109.5H602V110H582.5V128H582V110H551.5V128H551V110H520.5V128H520V110H489.5V128H489V110H458.5V128H458V110H427.5V128H427V110H396.5V128H396V110H365.5V128H365V110H334.5V128H334V110H303.5V128H303V110H272.5V128H272V110H241.5V128H241V110H210.5V128H210V110H179.5V128H179V110H148.5V128H148V110H117.5V128H117V110H86.5V128H86V110H55.5V128H55V110H24.5V128H24V110H0V109.5H24V79H0V78.5H24V48H0V47.5H24V17H0V16.5H24V0H24.5V16.5ZM24.5 79V109.5H55V79H24.5ZM55.5 79V109.5H86V79H55.5ZM86.5 79V109.5H117V79H86.5ZM117.5 79V109.5H148V79H117.5ZM148.5 79V109.5H179V79H148.5ZM179.5 79V109.5H210V79H179.5ZM210.5 79V109.5H241V79H210.5ZM241.5 79V109.5H272V79H241.5ZM272.5 79V109.5H303V79H272.5ZM303.5 79V109.5H334V79H303.5ZM334.5 79V109.5H365V79H334.5ZM365.5 79V109.5H396V79H365.5ZM396.5 79V109.5H427V79H396.5ZM427.5 79V109.5H458V79H427.5ZM458.5 79V109.5H489V79H458.5ZM489.5 79V109.5H520V79H489.5ZM520.5 79V109.5H551V79H520.5ZM551.5 79V109.5H582V79H551.5ZM24.5 48V78.5H55V48H24.5ZM55.5 48V78.5H86V48H55.5ZM86.5 48V78.5H117V48H86.5ZM117.5 48V78.5H148V48H117.5ZM148.5 48V78.5H179V48H148.5ZM179.5 48V78.5H210V48H179.5ZM210.5 48V78.5H241V48H210.5ZM241.5 48V78.5H272V48H241.5ZM272.5 48V78.5H303V48H272.5ZM303.5 48V78.5H334V48H303.5ZM334.5 48V78.5H365V48H334.5ZM365.5 48V78.5H396V48H365.5ZM396.5 48V78.5H427V48H396.5ZM427.5 48V78.5H458V48H427.5ZM458.5 48V78.5H489V48H458.5ZM489.5 48V78.5H520V48H489.5ZM520.5 48V78.5H551V48H520.5ZM551.5 48V78.5H582V48H551.5ZM24.5 17V47.5H55V17H24.5ZM55.5 17V47.5H86V17H55.5ZM86.5 17V47.5H117V17H86.5ZM117.5 17V47.5H148V17H117.5ZM148.5 17V47.5H179V17H148.5ZM179.5 17V47.5H210V17H179.5ZM210.5 17V47.5H241V17H210.5ZM241.5 17V47.5H272V17H241.5ZM272.5 17V47.5H303V17H272.5ZM303.5 17V47.5H334V17H303.5ZM334.5 17V47.5H365V17H334.5ZM365.5 17V47.5H396V17H365.5ZM396.5 17V47.5H427V17H396.5ZM427.5 17V47.5H458V17H427.5ZM458.5 17V47.5H489V17H458.5ZM489.5 17V47.5H520V17H489.5ZM520.5 17V47.5H551V17H520.5ZM551.5 17V47.5H582V17H551.5Z" fill="url(#paint0_linear_5631_72055)"/>
  <defs>
    <linearGradient id="paint0_linear_5631_72055" x1="0" y1="64" x2="602" y2="64" gradientUnits="userSpaceOnUse">
      <stop stop-color="#E4E4E7"/>
      <stop offset="1" stop-color="#EDEDF0"/>
    </linearGradient>
  </defs>
</svg>