<svg width="262" height="262" viewBox="0 0 262 262" fill="none" xmlns="http://www.w3.org/2000/svg">
<path fill-rule="evenodd" clip-rule="evenodd" d="M220.716 23.4429C221.093 22.7665 221.189 21.9793 221.032 21.1337C221.008 21.0068 220.96 20.8858 220.89 20.7777C220.819 20.6695 220.728 20.5762 220.622 20.5031C220.516 20.4301 220.396 20.3787 220.27 20.352C220.143 20.3252 220.013 20.3235 219.886 20.3471C219.759 20.3707 219.638 20.419 219.53 20.4893C219.422 20.5596 219.329 20.6506 219.256 20.7569C219.183 20.8633 219.131 20.983 219.105 21.1092C219.078 21.2355 219.076 21.3657 219.1 21.4926C219.178 21.9129 219.138 22.2378 218.999 22.4869C218.011 24.2629 212.147 23.4179 205.975 20.1088L205.481 19.8391C199.132 16.3068 195.088 11.5732 196.102 9.74985C196.251 9.48252 196.534 9.26509 196.983 9.10781C197.228 9.02122 197.43 8.84053 197.542 8.60548C197.655 8.37044 197.67 8.1003 197.583 7.85449C197.496 7.60868 197.316 7.40733 197.081 7.29475C196.846 7.18217 196.575 7.16756 196.33 7.25416C195.456 7.56212 194.785 8.07631 194.385 8.79435C193.569 10.2618 194.089 12.1945 195.577 14.2453C195.249 16.3401 195.476 18.4845 196.237 20.4638C196.997 22.4432 198.264 24.1882 199.91 25.5244C204.461 29.2207 210.981 29.1134 215.396 25.3575L215.454 25.3035C217.982 25.4872 219.9 24.91 220.716 23.4429ZM218.282 21.7528C221.141 16.6474 219.783 10.4421 215.191 6.7124C209.997 2.49284 202.364 3.28336 198.145 8.47801C197.682 9.04745 197.401 9.44351 197.059 10.0815C196.904 10.3709 197.083 10.8888 197.514 11.5454C199.145 13.607 202.423 16.4599 205.851 18.408C208.606 19.9732 212.115 21.2852 214.917 21.9537C216.684 22.2914 217.991 22.2738 218.282 21.7528ZM215.337 18.6582C215.949 16.7755 215.86 14.7352 215.087 12.9128L215.086 12.9133C214.983 12.6762 214.79 12.4895 214.549 12.3938C214.309 12.2982 214.04 12.3012 213.802 12.4024C213.564 12.5036 213.375 12.6946 213.277 12.9341C213.179 13.1736 213.179 13.4421 213.278 13.6813C213.865 15.0666 213.933 16.6175 213.469 18.0489C213.393 18.2953 213.417 18.5618 213.535 18.7908C213.654 19.0198 213.858 19.193 214.103 19.273C214.348 19.353 214.615 19.3333 214.846 19.2183C215.077 19.1033 215.253 18.9021 215.337 18.6582ZM213.071 10.4245C213.044 10.1653 212.916 9.92739 212.713 9.76309C212.123 9.28319 211.476 8.89239 210.789 8.59571C210.67 8.54466 210.543 8.51746 210.414 8.51565C210.285 8.51384 210.157 8.53746 210.037 8.58516C209.917 8.63286 209.808 8.70371 209.715 8.79366C209.623 8.88362 209.549 8.99091 209.498 9.10942C209.447 9.22792 209.42 9.35533 209.418 9.48435C209.416 9.61337 209.44 9.74149 209.487 9.86138C209.535 9.98127 209.606 10.0906 209.696 10.1831C209.786 10.2756 209.893 10.3495 210.012 10.4006C210.533 10.625 211.024 10.9225 211.474 11.2884C211.677 11.4527 211.936 11.5299 212.195 11.5031C212.454 11.4762 212.692 11.3475 212.857 11.1452C213.021 10.943 213.098 10.6837 213.071 10.4245Z" fill="url(#paint0_linear_6_1247)"/>
<path d="M37.2986 131L39.118 147.375L27.7465 150.104L37.2986 131Z" fill="url(#paint1_linear_6_1247)"/>
<path d="M50.9444 138.278L52.1953 150.957L45.2871 150.14L50.9444 138.278Z" fill="url(#paint2_linear_6_1247)"/>
<path d="M50.9445 138.278L58.8477 148.369L51.8542 151.014L50.9445 138.278Z" fill="url(#paint3_linear_6_1247)"/>
<path d="M25.4722 141.917L26.3819 151.469L18.6493 155.108L25.4722 141.917Z" fill="url(#paint4_linear_6_1247)"/>
<path d="M25.4722 141.917L31.3854 149.649L26.382 151.469L25.4722 141.917Z" fill="url(#paint5_linear_6_1247)"/>
<path d="M37.2986 131L48.2153 144.191L39.118 146.92L37.2986 131Z" fill="url(#paint6_linear_6_1247)"/>
<path opacity="0.8" d="M131 217.736C203.349 217.736 262 199.179 262 176.287C262 153.395 203.349 134.838 131 134.838C58.6507 134.838 0 153.395 0 176.287C0 199.179 58.6507 217.736 131 217.736Z" fill="url(#paint7_linear_6_1247)"/>
<path d="M231.809 141.746L230.562 157.865L221.318 155.219L231.809 141.746Z" fill="url(#paint8_linear_6_1247)"/>
<path d="M231.514 141.746L239.229 155.949L230.273 157.865L231.514 141.746Z" fill="url(#paint9_linear_6_1247)"/>
<path opacity="0.8" d="M41.7097 75.1825C40.7496 70.0654 36.2829 66.3904 31.1302 66.4781C28.3722 66.4652 25.7102 67.5009 23.6728 69.3796C22.5311 68.8595 21.2933 68.59 20.041 68.5889C16.0732 68.5257 12.5995 71.269 11.7009 75.1753C8.65144 75.8566 6.45253 78.5485 6.36804 81.7036C6.48528 85.5315 9.62751 88.5519 13.4163 88.4785H39.9727C43.7726 88.568 46.9324 85.543 47.0497 81.7036C46.9637 78.5481 44.7608 75.858 41.7097 75.1825Z" fill="url(#paint10_linear_6_1247)"/>
<path opacity="0.8" d="M241.877 31.637C239.445 26.6184 234.359 23.4238 228.774 23.4069C225.665 23.4126 222.64 24.4191 220.149 26.277C217.184 20.5045 210.746 17.3931 204.371 18.6525C197.997 19.9119 193.231 25.2369 192.692 31.7016C185.913 33.9202 181.738 40.7119 182.827 47.7509C183.917 54.7899 189.95 60.0073 197.084 60.0801H237.651C244.883 60.0937 251.03 54.8093 252.09 47.6676C253.15 40.5259 248.802 33.6889 241.877 31.6083V31.637Z" fill="url(#paint11_linear_6_1247)"/>
<path d="M128.726 169.389C139.528 169.389 148.285 170.814 148.285 172.573C148.285 174.331 139.528 175.757 128.726 175.757C117.924 175.757 109.167 174.331 109.167 172.573C109.167 170.814 117.924 169.389 128.726 169.389Z" fill="url(#paint12_linear_6_1247)"/>
<path d="M103.638 115.022C109.121 122.798 120.465 122.108 120.465 122.108C117.629 119.44 115.785 117.001 115.596 110.053C115.407 103.105 111.342 101.265 111.342 101.265C118.621 96.8019 116.022 91.9706 115.785 86.5872C115.644 83.2284 117.676 80.7438 119.283 79.3174C110.033 80.6661 101.675 85.4382 95.9516 92.6387C90.2277 99.8393 87.5798 108.913 88.5599 117.967C89.2216 116.173 98.5804 107.845 103.638 115.022Z" fill="url(#paint13_linear_6_1247)"/>
<path d="M170.432 101.548C170.189 100.776 169.891 100.021 169.54 99.2911V99.2441C167.9 95.905 165.181 93.2183 161.824 91.6198C158.467 90.0213 154.669 89.6049 151.046 90.4379C147.423 91.2709 144.187 93.3048 141.864 96.2092C139.54 99.1137 138.266 102.719 138.246 106.439C138.246 107.609 138.373 108.776 138.622 109.919C138.623 109.935 138.623 109.951 138.622 109.966C138.716 110.437 138.857 110.907 138.998 111.377C139.837 114.69 140 118.138 139.478 121.515C138.956 124.893 137.759 128.13 135.96 131.035C134.16 133.939 131.794 136.451 129.004 138.42C126.213 140.389 123.054 141.775 119.717 142.496C116.379 143.216 112.93 143.256 109.576 142.614C106.223 141.971 103.033 140.659 100.197 138.755C97.3614 136.852 94.9379 134.396 93.0712 131.534C91.2046 128.672 89.9332 125.464 89.3328 122.1C90.1818 127.931 92.245 133.519 95.3888 138.502C98.5325 143.486 102.687 147.752 107.583 151.026C112.478 154.301 118.007 156.509 123.809 157.509C129.612 158.51 135.56 158.279 141.268 156.833C146.976 155.386 152.317 152.756 156.945 149.113C161.574 145.469 165.386 140.894 168.135 135.682C170.884 130.471 172.509 124.739 172.905 118.859C173.301 112.98 172.458 107.082 170.432 101.548Z" fill="url(#paint14_linear_6_1247)"/>
<path fill-rule="evenodd" clip-rule="evenodd" d="M164.244 112.645C164.244 132.924 147.469 149.364 126.776 149.364C115.794 149.364 105.915 144.733 99.0615 137.355C99.4766 137.665 99.9018 137.963 100.337 138.249C103.203 140.133 106.426 141.432 109.816 142.068C113.205 142.704 116.691 142.664 120.064 141.951C123.437 141.238 126.629 139.866 129.45 137.917C132.27 135.969 134.661 133.483 136.48 130.609C138.299 127.734 139.508 124.531 140.036 121.188C140.563 117.846 140.398 114.434 139.551 111.155C139.408 110.69 139.266 110.225 139.171 109.759C139.172 109.744 139.172 109.728 139.171 109.713C138.918 108.582 138.791 107.427 138.791 106.269C138.81 102.587 140.099 99.0193 142.447 96.1449C144.795 93.2706 148.065 91.2579 151.727 90.4336C153.237 90.0935 154.778 89.9639 156.305 90.0399C161.279 96.272 164.244 104.119 164.244 112.645Z" fill="url(#paint15_linear_6_1247)"/>
<path d="M165.5 72.75C165.503 74.2484 165.003 75.6969 164.092 76.8684C163.84 77.1918 163.839 77.6584 164.129 77.9482C164.424 78.2436 164.907 78.2423 165.17 77.9174C165.744 77.2067 166.197 76.4039 166.509 75.5413C166.907 74.4401 167.066 73.2666 166.975 72.0992C166.883 70.9319 166.544 69.7974 165.979 68.7715C165.535 67.9645 164.96 67.2394 164.278 66.625C163.971 66.3482 163.5 66.4177 163.251 66.7481C163.002 67.0801 163.074 67.5487 163.377 67.8323C163.956 68.374 164.436 69.0157 164.792 69.7285C165.262 70.6664 165.504 71.7014 165.5 72.75Z" fill="url(#paint16_linear_6_1247)"/>
<path d="M161.75 72.75C161.749 73.3005 161.627 73.8413 161.395 74.3351C161.237 74.6725 161.265 75.084 161.529 75.3475C161.855 75.6744 162.399 75.6419 162.619 75.2355C163.106 74.335 163.322 73.3053 163.228 72.2731C163.132 71.2004 162.707 70.1901 162.022 69.3746C161.755 69.0576 161.277 69.0871 161 69.3956C160.724 69.7044 160.757 70.1754 161.005 70.5077C161.17 70.7282 161.31 70.9667 161.423 71.2192C161.638 71.7008 161.75 72.2224 161.75 72.75ZM167.97 84.9698C168.263 84.6769 168.263 84.2021 167.97 83.9093L149.091 65.0303C148.798 64.7374 148.323 64.7374 148.03 65.0303C147.737 65.3231 147.737 65.7979 148.03 66.0908L150.283 68.343C149.171 70.0946 148.761 72.2014 149.135 74.2421C149.463 76.0363 150.377 77.6633 151.722 78.8752C152.029 79.1523 152.501 79.0826 152.749 78.7515C152.998 78.4199 152.927 77.9522 152.625 77.6686C151.622 76.7277 150.926 75.497 150.642 74.139C150.307 72.5349 150.569 70.8635 151.379 69.4388L153.027 71.0865C152.698 72.0579 152.662 73.1047 152.924 74.0963C153.122 74.8454 153.483 75.538 153.978 76.1261C154.245 76.4428 154.723 76.4131 154.999 76.1047C155.276 75.7957 155.242 75.3244 154.994 74.992C154.83 74.7716 154.69 74.5332 154.577 74.2808C154.362 73.7992 154.25 73.2776 154.25 72.75C154.252 72.613 154.262 72.4763 154.28 72.3405L157.25 75.3105V84.75C157.25 85.1642 157.586 85.5 158 85.5C158.414 85.5 158.75 85.1642 158.75 84.75V76.8105L166.909 84.9698C167.202 85.2626 167.677 85.2626 167.97 84.9698Z" fill="url(#paint17_linear_6_1247)"/>
<defs>
<linearGradient id="paint0_linear_6_1247" x1="217.5" y1="31" x2="203.488" y2="-2.91946" gradientUnits="userSpaceOnUse">
<stop stop-color="#0D84FF"/>
<stop offset="1" stop-color="#B2D5FF"/>
</linearGradient>
<linearGradient id="paint1_linear_6_1247" x1="32.1103" y1="130.714" x2="37.2487" y2="158.555" gradientUnits="userSpaceOnUse">
<stop stop-color="#F8FBFF"/>
<stop offset="1" stop-color="#F3F8FF" stop-opacity="0"/>
</linearGradient>
<linearGradient id="paint2_linear_6_1247" x1="48.7412" y1="138.54" x2="51.4288" y2="151.672" gradientUnits="userSpaceOnUse">
<stop stop-color="#F8FBFF"/>
<stop offset="1" stop-color="#F3F8FF" stop-opacity="0"/>
</linearGradient>
<linearGradient id="paint3_linear_6_1247" x1="51.1719" y1="138.676" x2="52.647" y2="152.421" gradientUnits="userSpaceOnUse">
<stop stop-color="#E0EDFF"/>
<stop offset="1" stop-color="#E4EFFF" stop-opacity="0"/>
</linearGradient>
<linearGradient id="paint4_linear_6_1247" x1="22.6435" y1="141.746" x2="25.9271" y2="158.292" gradientUnits="userSpaceOnUse">
<stop stop-color="#F8FBFF"/>
<stop offset="1" stop-color="#F3F8FF" stop-opacity="0"/>
</linearGradient>
<linearGradient id="paint5_linear_6_1247" x1="23.6528" y1="141.917" x2="35.4792" y2="156.472" gradientUnits="userSpaceOnUse">
<stop stop-color="#D5E6FF"/>
<stop offset="1" stop-color="#E4EFFF"/>
</linearGradient>
<linearGradient id="paint6_linear_6_1247" x1="37.6113" y1="131" x2="40.5395" y2="159.96" gradientUnits="userSpaceOnUse">
<stop stop-color="#E0EDFF"/>
<stop offset="1" stop-color="#E4EFFF" stop-opacity="0"/>
</linearGradient>
<linearGradient id="paint7_linear_6_1247" x1="131" y1="217.736" x2="131" y2="134.838" gradientUnits="userSpaceOnUse">
<stop offset="0.120601" stop-color="white" stop-opacity="0"/>
<stop offset="0.293078" stop-color="#FBFDFF" stop-opacity="0.1"/>
<stop offset="0.432925" stop-color="#F1F7FF" stop-opacity="0.2"/>
<stop offset="0.653246" stop-color="#EAF3FF" stop-opacity="0.478824"/>
<stop offset="0.81" stop-color="#E1EEFF" stop-opacity="0.82"/>
<stop offset="1" stop-color="#D9E9FF"/>
</linearGradient>
<linearGradient id="paint8_linear_6_1247" x1="226.563" y1="141.568" x2="229.644" y2="158.98" gradientUnits="userSpaceOnUse">
<stop stop-color="#EEF5FF"/>
<stop offset="1" stop-color="#D8E9FF"/>
</linearGradient>
<linearGradient id="paint9_linear_6_1247" x1="230.434" y1="141.746" x2="232.644" y2="159.723" gradientUnits="userSpaceOnUse">
<stop stop-color="#A4C9FF"/>
<stop offset="1" stop-color="#E4EFFF"/>
</linearGradient>
<linearGradient id="paint10_linear_6_1247" x1="26.6945" y1="88.5075" x2="26.6945" y2="66.4636" gradientUnits="userSpaceOnUse">
<stop offset="0.208333" stop-color="white" stop-opacity="0"/>
<stop offset="0.494792" stop-color="#F7FAFF" stop-opacity="0.213439"/>
<stop offset="0.755208" stop-color="#EFF6FF" stop-opacity="0.409091"/>
<stop offset="1" stop-color="#D9E9FF"/>
</linearGradient>
<linearGradient id="paint11_linear_6_1247" x1="217.367" y1="60.1088" x2="217.367" y2="18.3483" gradientUnits="userSpaceOnUse">
<stop offset="0.0207315" stop-color="white" stop-opacity="0"/>
<stop offset="0.404824" stop-color="#F5F9FF" stop-opacity="0.1"/>
<stop offset="0.571948" stop-color="#EEF5FF" stop-opacity="0.3"/>
<stop offset="0.772394" stop-color="#E4EFFF" stop-opacity="0.74"/>
<stop offset="1" stop-color="#D9E9FF"/>
</linearGradient>
<linearGradient id="paint12_linear_6_1247" x1="109.167" y1="172.573" x2="148.285" y2="172.573" gradientUnits="userSpaceOnUse">
<stop stop-color="#D4E7FF" stop-opacity="0.9"/>
<stop offset="1" stop-color="#B6D3FA"/>
</linearGradient>
<linearGradient id="paint13_linear_6_1247" x1="91.9567" y1="86.6219" x2="103.444" y2="127.347" gradientUnits="userSpaceOnUse">
<stop stop-color="#C8E0FF"/>
<stop offset="1" stop-color="#4CA2FD"/>
</linearGradient>
<linearGradient id="paint14_linear_6_1247" x1="124.261" y1="96.2225" x2="149.487" y2="151.515" gradientUnits="userSpaceOnUse">
<stop stop-color="#B7D9FE"/>
<stop offset="1" stop-color="#3597FB"/>
</linearGradient>
<linearGradient id="paint15_linear_6_1247" x1="136.22" y1="90.4295" x2="147.014" y2="160.755" gradientUnits="userSpaceOnUse">
<stop stop-color="#C9E0FF"/>
<stop offset="0.35936" stop-color="#8ABDFF"/>
<stop offset="1" stop-color="#3094FF"/>
</linearGradient>
<linearGradient id="paint16_linear_6_1247" x1="162.854" y1="68.347" x2="168.386" y2="69.1481" gradientUnits="userSpaceOnUse">
<stop stop-color="#65AFFF"/>
<stop offset="1" stop-color="#1789FD"/>
</linearGradient>
<linearGradient id="paint17_linear_6_1247" x1="147.775" y1="68.2403" x2="171.688" y2="78.4096" gradientUnits="userSpaceOnUse">
<stop stop-color="#65AFFF"/>
<stop offset="1" stop-color="#1789FD"/>
</linearGradient>
</defs>
</svg>
