<svg xmlns="http://www.w3.org/2000/svg" width="78" height="78" fill="none" viewBox="0 0 78 78"><g clip-path="url(#clip0_1172_18729)"><rect width="78" height="78" fill="url(#paint0_linear_1172_18729)"/><path fill="url(#paint1_linear_1172_18729)" d="M12.3032 24.9426V34.4117L38.9999 38.3053L65.6966 31.6847V24.9426V52.1153L50.4046 56.0405L38.9999 55.4499L26.1671 56.0405L12.3032 52.6561V24.9426Z"/><path fill="url(#paint2_linear_1172_18729)" d="M65.6967 25.7014V24.2321L65.6951 24.0945C65.5369 17.2915 53.6458 13.3792 39.0002 13.3792C24.3538 13.3792 12.4606 17.2361 12.3037 24.0945V25.7014H12.3169C12.3081 25.8144 12.3037 25.9285 12.3037 26.0434C12.3037 31.2098 21.8021 34.3671 39.0002 34.3671C56.1983 34.3671 65.6967 31.2098 65.6967 26.0434C65.6967 25.9285 65.6922 25.8145 65.6833 25.7014H65.6967Z"/><path fill="#FAFAFF" d="M12.3036 26.0312V36.4539C12.303 36.4784 12.3032 36.5029 12.3034 36.5274L12.3036 36.5644C12.3036 41.7245 21.8021 45.9077 39.0001 45.9077C56.1982 45.9077 65.6966 41.7245 65.6966 36.5644C65.6966 36.5275 65.6962 36.4906 65.6952 36.4539L65.6966 26.0312C64.3011 30.7353 54.8136 34.3671 39.0001 34.3671C23.1866 34.3671 13.6992 30.7353 12.3036 26.0312Z"/><path fill="#FAFAFF" d="M12.3036 41.6668V52.1436H12.3162C12.706 57.9633 22.1633 62.6204 39.0001 62.6204C55.837 62.6204 65.2942 57.9633 65.6841 52.1436H65.6966V41.6668C65.6966 47.2788 56.1982 51.8282 39.0001 51.8282C21.8021 51.8282 12.3036 47.2788 12.3036 41.6668Z"/><path fill="#FAFAFF" d="M12.3036 26.0312V36.4539C12.303 36.4784 12.3032 36.5029 12.3034 36.5274L12.3036 36.5644C12.3036 41.7245 21.8021 45.9077 39.0001 45.9077C56.1982 45.9077 65.6966 41.7245 65.6966 36.5644C65.6966 36.5275 65.6962 36.4906 65.6952 36.4539L65.6966 26.0312C64.3011 30.7353 54.8136 34.3671 39.0001 34.3671C23.1866 34.3671 13.6992 30.7353 12.3036 26.0312Z"/><path fill="#FAFAFF" d="M12.3036 41.6668V52.1436H12.3162C12.706 57.9633 22.1633 62.6204 39.0001 62.6204C55.837 62.6204 65.2942 57.9633 65.6841 52.1436H65.6966V41.6668C65.6966 47.2788 56.1982 51.8282 39.0001 51.8282C21.8021 51.8282 12.3036 47.2788 12.3036 41.6668Z"/><path fill="url(#paint3_linear_1172_18729)" d="M27.344 61.7292C30.7055 62.3027 34.6009 62.6206 39.0002 62.6206C55.837 62.6206 65.2943 57.9636 65.6841 52.1439H65.6967V41.6671C65.6967 47.279 56.1982 51.8284 39.0002 51.8284C34.6009 51.8284 30.7055 51.5308 27.344 50.9938V61.7292Z"/><path fill="url(#paint4_linear_1172_18729)" d="M27.344 45.1404C30.7055 45.6342 34.6009 45.9079 39.0002 45.9079C56.1983 45.9079 65.6967 41.7248 65.6967 36.5646C65.6967 36.5277 65.6962 36.4909 65.6953 36.4541L65.6967 26.0315C64.3012 30.7356 54.8137 34.3673 39.0002 34.3673C34.616 34.3673 30.7181 34.0882 27.344 33.5844V45.1404Z"/><path fill="url(#paint5_linear_1172_18729)" d="M16.0981 36.2702C16.0981 35.0245 17.0471 34.36 18.2177 34.7861C19.3883 35.2122 20.3372 36.5674 20.3372 37.8131C20.3372 39.0589 19.3883 39.7233 18.2177 39.2973C17.0471 38.8712 16.0981 37.5159 16.0981 36.2702Z"/><path fill="url(#paint6_linear_1172_18729)" d="M16.0981 52.7849C16.0981 51.5392 17.0471 50.8747 18.2177 51.3007C19.3883 51.7268 20.3372 53.0821 20.3372 54.3278C20.3372 55.5735 19.3883 56.238 18.2177 55.8119C17.0471 55.3858 16.0981 54.0306 16.0981 52.7849Z"/></g><defs><linearGradient id="paint0_linear_1172_18729" x1="78" x2="0" y1="0" y2="78" gradientUnits="userSpaceOnUse"><stop stop-color="#70CCBB"/><stop offset="1" stop-color="#1EBB9E"/></linearGradient><linearGradient id="paint1_linear_1172_18729" x1="39" x2="39" y1="24.943" y2="56.041" gradientUnits="userSpaceOnUse"><stop stop-color="#82DEAB"/><stop offset="1" stop-color="#82DEAB" stop-opacity=".5"/></linearGradient><linearGradient id="paint2_linear_1172_18729" x1="39" x2="39" y1="13.379" y2="34.367" gradientUnits="userSpaceOnUse"><stop stop-color="#B7E0CD"/><stop offset="1" stop-color="#7FE2AB"/></linearGradient><linearGradient id="paint3_linear_1172_18729" x1="65.697" x2="27.344" y1="42.45" y2="44.326" gradientUnits="userSpaceOnUse"><stop stop-color="#D6EAF0"/><stop offset="1" stop-color="#D6EAF0" stop-opacity="0"/></linearGradient><linearGradient id="paint4_linear_1172_18729" x1="65.697" x2="27.344" y1="42.45" y2="44.326" gradientUnits="userSpaceOnUse"><stop stop-color="#D6EAF0"/><stop offset="1" stop-color="#D6EAF0" stop-opacity="0"/></linearGradient><linearGradient id="paint5_linear_1172_18729" x1="18.218" x2="16.768" y1="34.786" y2="38.77" gradientUnits="userSpaceOnUse"><stop stop-color="#40714C"/><stop offset="1" stop-color="#65C1B0"/></linearGradient><linearGradient id="paint6_linear_1172_18729" x1="18.218" x2="16.768" y1="51.301" y2="55.284" gradientUnits="userSpaceOnUse"><stop stop-color="#40714C"/><stop offset="1" stop-color="#65C1B0"/></linearGradient><clipPath id="clip0_1172_18729"><rect width="78" height="78" fill="#fff"/></clipPath></defs></svg>