<svg width="48" height="49" viewBox="0 0 48 49" fill="none" xmlns="http://www.w3.org/2000/svg">
<path d="M39.2688 35.9457C39.2688 40.1602 32.438 43.5737 24.0128 43.5737C15.5877 43.5737 8.75684 40.1602 8.75684 35.9457V28.2681C9.71415 29.4447 11.0738 30.4211 12.5861 31.1763C15.5839 32.6752 19.6267 33.562 24.0128 33.562C28.3989 33.562 32.4418 32.6752 35.4396 31.1782C36.9518 30.4211 38.3115 29.4428 39.2688 28.2681V35.9457Z" fill="url(#paint0_angular_4715_17893)"/>
<path d="M24.0128 22.12C28.3989 22.12 32.4418 21.2332 35.4396 19.7362C36.9518 18.9791 38.3115 18.0008 39.2688 16.8261V24.5037C39.2688 25.4572 35.8629 27.5378 34.16 28.619C31.637 29.8795 28.0519 30.7015 24.0128 30.7015C19.9738 30.7015 16.3886 29.8815 13.8657 28.619C11.6173 27.4939 8.75684 25.4572 8.75684 24.5037V16.8261C9.71415 18.0028 11.0738 18.9791 12.5861 19.7343C15.5839 21.2332 19.6267 22.12 24.0128 22.12Z" fill="url(#paint1_angular_4715_17893)"/>
<path d="M34.16 17.177C31.637 18.4375 28.0519 19.2595 24.0128 19.2595C19.9738 19.2595 16.3886 18.4395 13.8657 17.177C12.8836 16.7918 10.6753 15.5694 9.14014 13.5938C9.01102 13.4277 8.91719 13.237 8.86439 13.0333C8.81159 12.8297 8.80095 12.6174 8.83312 12.4095C8.87698 12.1273 8.938 11.8355 9.01619 11.6543C10.3358 8.11496 16.5488 5.43372 24.0128 5.43372C31.4768 5.43372 37.6898 8.11496 39.0095 11.6543C39.0877 11.8355 39.1487 12.1273 39.1925 12.4095C39.2244 12.6175 39.2135 12.8299 39.1604 13.0335C39.1072 13.2372 39.0131 13.4278 38.8836 13.5938C37.3504 15.5694 35.1421 16.7918 34.16 17.177Z" fill="url(#paint2_angular_4715_17893)"/>
<defs>
<radialGradient id="paint0_angular_4715_17893" cx="0" cy="0" r="1" gradientUnits="userSpaceOnUse" gradientTransform="translate(-1.83745 43.5737) rotate(-42.8564) scale(56.0748 60.2633)">
<stop stop-color="#5654BF"/>
<stop offset="1" stop-color="#5C68D1"/>
</radialGradient>
<radialGradient id="paint1_angular_4715_17893" cx="0" cy="0" r="1" gradientUnits="userSpaceOnUse" gradientTransform="translate(-1.83745 43.5737) rotate(-42.8564) scale(56.0748 60.2633)">
<stop stop-color="#5654BF"/>
<stop offset="1" stop-color="#5C68D1"/>
</radialGradient>
<radialGradient id="paint2_angular_4715_17893" cx="0" cy="0" r="1" gradientUnits="userSpaceOnUse" gradientTransform="translate(-1.83745 43.5737) rotate(-42.8564) scale(56.0748 60.2633)">
<stop stop-color="#5654BF"/>
<stop offset="1" stop-color="#5C68D1"/>
</radialGradient>
</defs>
</svg>
