<svg xmlns="http://www.w3.org/2000/svg" width="59" height="59" viewBox="0 0 59 59" fill="none">
  <path d="M48.3908 43.0553C48.3908 48.1704 40.1002 52.3134 29.8746 52.3134C19.649 52.3134 11.3584 48.1704 11.3584 43.0553V33.7371C12.5203 35.1651 14.1705 36.3502 16.006 37.2667C19.6444 39.0859 24.5512 40.1622 29.8746 40.1622C35.198 40.1622 40.1048 39.0859 43.7432 37.269C45.5786 36.3502 47.2289 35.1628 48.3908 33.7371V43.0553Z" fill="#24282C"/>
  <path d="M29.8746 26.275C35.198 26.275 40.1048 25.1988 43.7432 23.3819C45.5786 22.463 47.2289 21.2757 48.3908 19.8499V29.1682C48.3908 30.3255 44.257 32.8506 42.1902 34.1629C39.1281 35.6928 34.7768 36.6904 29.8746 36.6904C24.9724 36.6904 20.6211 35.6951 17.559 34.1629C14.8302 32.7974 11.3584 30.3255 11.3584 29.1682V19.8499C12.5203 21.278 14.1705 22.463 16.006 23.3796C19.6444 25.1988 24.5512 26.275 29.8746 26.275Z" fill="#24282C"/>
  <path d="M42.1902 20.2758C39.1281 21.8057 34.7768 22.8032 29.8746 22.8032C24.9724 22.8032 20.6211 21.808 17.559 20.2758C16.367 19.8083 13.6868 18.3246 11.8236 15.9268C11.6669 15.7252 11.553 15.4938 11.4889 15.2466C11.4249 14.9994 11.4119 14.7418 11.451 14.4895C11.5042 14.1469 11.5783 13.7928 11.6732 13.5729C13.2748 9.27717 20.8155 6.02295 29.8746 6.02295C38.9336 6.02295 46.4744 9.27717 48.076 13.5729C48.1709 13.7928 48.245 14.1469 48.2982 14.4895C48.3369 14.742 48.3236 14.9997 48.2591 15.2469C48.1947 15.494 48.0804 15.7254 47.9232 15.9268C46.0624 18.3246 43.3821 19.8083 42.1902 20.2758Z" fill="#24282C"/>
</svg>