<svg xmlns="http://www.w3.org/2000/svg" width="24" height="24" viewBox="0 0 24 24" fill="none">
  <path fill-rule="evenodd" clip-rule="evenodd" d="M11.5971 1.18505C11.8629 1.13038 12.1371 1.13038 12.4029 1.18505C12.7102 1.24824 12.9848 1.40207 13.2032 1.52436C13.2235 1.53575 13.2434 1.54687 13.2627 1.55761L20.6627 5.66872C20.6832 5.68009 20.7042 5.6917 20.7258 5.70359C20.957 5.8309 21.2476 5.99097 21.4708 6.23315C21.6637 6.44253 21.8097 6.6907 21.8991 6.96105C22.0024 7.27375 22.0012 7.60553 22.0002 7.8694C22.0001 7.89406 22 7.91813 22 7.94153V16.0586C22 16.082 22.0001 16.1061 22.0002 16.1308C22.0012 16.3946 22.0024 16.7264 21.8991 17.0391C21.8097 17.3095 21.6637 17.5576 21.4708 17.767C21.2476 18.0092 20.957 18.1693 20.7258 18.2966C20.7042 18.3085 20.6832 18.3201 20.6627 18.3314L13.2627 22.4426C13.2434 22.4533 13.2235 22.4644 13.2032 22.4758C12.9848 22.5981 12.7102 22.7519 12.4029 22.8151C12.1371 22.8698 11.8629 22.8698 11.5971 22.8151C11.2898 22.7519 11.0152 22.5981 10.7969 22.4758C10.7765 22.4644 10.7567 22.4533 10.7374 22.4426L3.33735 18.3314C3.3169 18.3201 3.29582 18.3085 3.27422 18.2966C3.04309 18.1693 2.75247 18.0092 2.52929 17.767C2.33634 17.5576 2.19032 17.3095 2.101 17.0391C1.99768 16.7264 1.99889 16.3946 1.99985 16.1308C1.99994 16.1061 2.00003 16.082 2.00003 16.0586V7.94153C2.00003 7.91813 1.99994 7.89406 1.99985 7.8694C1.99889 7.60553 1.99768 7.27375 2.10099 6.96105C2.19032 6.6907 2.33634 6.44253 2.52929 6.23315C2.75247 5.99097 3.04308 5.8309 3.27421 5.7036C3.29581 5.6917 3.3169 5.68009 3.33735 5.66872L10.7374 1.55761C10.7567 1.54687 10.7765 1.53575 10.7969 1.52436C11.0152 1.40207 11.2899 1.24824 11.5971 1.18505ZM12 3.14907C11.9985 3.1498 11.9969 3.15056 11.9952 3.15136C11.9375 3.1792 11.8602 3.22173 11.7086 3.30592L5.05916 7.00008L12 10.8561L18.9409 7.00006L12.2914 3.30592C12.1399 3.22173 12.0625 3.1792 12.0048 3.15136C12.0031 3.15056 12.0016 3.1498 12 3.14907ZM20 8.69955V16.0586C20 16.2416 19.9996 16.3353 19.9955 16.4031C19.9954 16.4051 19.9953 16.407 19.9952 16.4088C19.9936 16.4098 19.992 16.4108 19.9903 16.4119C19.933 16.4484 19.8514 16.4943 19.6914 16.5831L13 20.3006L13 12.5885L20 8.69955ZM11 12.5885L4.00003 8.69959V16.0586C4.00003 16.2416 4.00044 16.3353 4.00453 16.4031C4.00465 16.4051 4.00477 16.407 4.00489 16.4088C4.00643 16.4098 4.00804 16.4108 4.00973 16.4119C4.06702 16.4484 4.14869 16.4943 4.30864 16.5831L11 20.3006L11 12.5885Z" fill="#111824"/>
</svg>