<svg width="10" height="10" viewBox="0 0 10 10" fill="none" xmlns="http://www.w3.org/2000/svg">
<path fill-rule="evenodd" clip-rule="evenodd" d="M9.33 5.165C9.33 7.46522 7.46522 9.33 5.165 9.33C2.86478 9.33 1 7.46522 1 5.165C1 2.86478 2.86478 1 5.165 1C7.46522 1 9.33 2.86478 9.33 5.165Z" fill="#9FE499"/>
<path d="M4 4.41667C4 4.18655 4.18655 4 4.41667 4C4.64679 4 4.83333 4.18655 4.83333 4.41667V6.08333C4.83333 6.31345 4.64679 6.5 4.41667 6.5C4.18655 6.5 4 6.31345 4 6.08333V4.41667ZM6.5 6.08333C6.5 6.31345 6.31345 6.5 6.08333 6.5C5.85321 6.5 5.66667 6.31345 5.66667 6.08333V4.41667C5.66667 4.18655 5.85321 4 6.08333 4C6.31345 4 6.5 4.18655 6.5 4.41667V6.08333Z" fill="white"/>
</svg>
