<svg width="11" height="10" viewBox="0 0 11 10" fill="none" xmlns="http://www.w3.org/2000/svg">
<path d="M6.5 3H1.5C0.9485 3 0.5 3.4485 0.5 4V9C0.5 9.5515 0.9485 10 1.5 10H6.5C7.0515 10 7.5 9.5515 7.5 9V4C7.5 3.4485 7.0515 3 6.5 3Z" fill="#8A8886"/>
<path d="M9.5 0H4.5C4.23478 0 3.98043 0.105357 3.79289 0.292893C3.60536 0.48043 3.5 0.734784 3.5 1V2H7.5C7.76522 2 8.01957 2.10536 8.20711 2.29289C8.39464 2.48043 8.5 2.73478 8.5 3V7H9.5C9.76522 7 10.0196 6.89464 10.2071 6.70711C10.3946 6.51957 10.5 6.26522 10.5 6V1C10.5 0.734784 10.3946 0.48043 10.2071 0.292893C10.0196 0.105357 9.76522 0 9.5 0Z" fill="#8A8886"/>
</svg>
