<svg width="16" height="8" viewBox="0 0 16 8" fill="none" xmlns="http://www.w3.org/2000/svg">
<path d="M8.04943 2.66929C7.7161 1.75626 7.05054 0.990938 6.17635 0.515446C5.30216 0.0399544 4.27876 -0.113387 3.29621 0.0839008C1.7141 0.390416 0.429071 1.60982 0.0974506 3.13573C-0.036246 3.72018 -0.0323279 4.3261 0.108917 4.90889C0.250161 5.49169 0.525135 6.0365 0.913592 6.50323C1.30205 6.96996 1.7941 7.34671 2.35351 7.60575C2.91292 7.86478 3.52544 7.99951 4.14598 8C5.00263 8.00003 5.83818 7.74366 6.53734 7.26625C7.23651 6.78885 7.76484 6.11394 8.04943 5.33465H11.0547V6.66732C11.0547 7.4003 11.6765 8 12.4365 8C13.1965 8 13.8182 7.4003 13.8182 6.66732V5.33465C14.5782 5.33465 15.2 4.73494 15.2 4.00197C15.2 3.269 14.5782 2.66929 13.8182 2.66929H8.04943ZM4.14598 5.33465C3.38602 5.33465 2.76423 4.73494 2.76423 4.00197C2.76423 3.269 3.38602 2.66929 4.14598 2.66929C4.90595 2.66929 5.52774 3.269 5.52774 4.00197C5.52774 4.73494 4.90595 5.33465 4.14598 5.33465Z" fill="#605E5C"/>
</svg>
