<svg width="13" height="14" viewBox="0 0 13 14" fill="none" xmlns="http://www.w3.org/2000/svg">
<path d="M11.6333 3.90453L6.29938 1L1 3.88378L6.33395 6.78831L11.6333 3.90453Z" fill="#605E5C" stroke="#605E5C" stroke-width="1.1" stroke-linecap="round" stroke-linejoin="round"/>
<path d="M6.33395 6.90921L1 3.89453V9.88389L6.33395 12.8986V6.90921Z" fill="#605E5C"/>
<path d="M6.33395 6.90921L1 3.89453V9.88389L6.33395 12.8986M6.33395 6.90921V12.8986M6.33395 6.90921L11.6333 3.91606V7.5316M6.33395 12.8986L8.7 11.4847" stroke="#605E5C" stroke-width="1.1" stroke-linecap="round" stroke-linejoin="round"/>
<path fill-rule="evenodd" clip-rule="evenodd" d="M10.7166 7.8752C10.7166 7.57144 10.4703 7.3252 10.1666 7.3252C9.86282 7.3252 9.61658 7.57144 9.61658 7.8752V9.04382L8.33345 9.04382C8.02969 9.04382 7.78345 9.29007 7.78345 9.59382C7.78345 9.89758 8.02969 10.1438 8.33345 10.1438H9.61658V11.6564C9.61658 11.9602 9.86282 12.2064 10.1666 12.2064C10.4703 12.2064 10.7166 11.9602 10.7166 11.6564V10.1438H12.0001C12.3039 10.1438 12.5501 9.89758 12.5501 9.59382C12.5501 9.29007 12.3039 9.04382 12.0001 9.04382L10.7166 9.04382V7.8752Z" fill="#605E5C"/>
<path d="M9.61658 9.04382V9.14382C9.6431 9.14382 9.66853 9.13329 9.68729 9.11453C9.70604 9.09578 9.71658 9.07035 9.71658 9.04382H9.61658ZM8.33345 9.04382V8.94382V9.04382ZM9.61658 10.1438H9.71658C9.71658 10.0886 9.67181 10.0438 9.61658 10.0438V10.1438ZM9.61658 11.6564H9.51658H9.61658ZM10.7166 10.1438V10.0438C10.6613 10.0438 10.6166 10.0886 10.6166 10.1438H10.7166ZM12.0001 9.04382V9.14382V9.04382ZM10.7166 9.04382H10.6166C10.6166 9.09905 10.6613 9.14382 10.7166 9.14382V9.04382ZM10.1666 7.4252C10.4151 7.4252 10.6166 7.62667 10.6166 7.8752H10.8166C10.8166 7.51621 10.5256 7.2252 10.1666 7.2252V7.4252ZM9.71658 7.8752C9.71658 7.62667 9.91805 7.4252 10.1666 7.4252V7.2252C9.80759 7.2252 9.51658 7.51621 9.51658 7.8752H9.71658ZM9.71658 9.04382V7.8752H9.51658V9.04382H9.71658ZM8.33345 9.14382L9.61658 9.14382V8.94382L8.33345 8.94382V9.14382ZM7.88345 9.59382C7.88345 9.3453 8.08492 9.14382 8.33345 9.14382V8.94382C7.97446 8.94382 7.68345 9.23484 7.68345 9.59382H7.88345ZM8.33345 10.0438C8.08492 10.0438 7.88345 9.84235 7.88345 9.59382H7.68345C7.68345 9.95281 7.97446 10.2438 8.33345 10.2438V10.0438ZM9.61658 10.0438H8.33345V10.2438H9.61658V10.0438ZM9.71658 11.6564V10.1438H9.51658V11.6564H9.71658ZM10.1666 12.1064C9.91805 12.1064 9.71658 11.905 9.71658 11.6564H9.51658C9.51658 12.0154 9.80759 12.3064 10.1666 12.3064V12.1064ZM10.6166 11.6564C10.6166 11.905 10.4151 12.1064 10.1666 12.1064V12.3064C10.5256 12.3064 10.8166 12.0154 10.8166 11.6564H10.6166ZM10.6166 10.1438V11.6564H10.8166V10.1438H10.6166ZM12.0001 10.0438H10.7166V10.2438H12.0001V10.0438ZM12.4501 9.59382C12.4501 9.84235 12.2486 10.0438 12.0001 10.0438V10.2438C12.3591 10.2438 12.6501 9.95281 12.6501 9.59382H12.4501ZM12.0001 9.14382C12.2486 9.14382 12.4501 9.3453 12.4501 9.59382H12.6501C12.6501 9.23484 12.3591 8.94382 12.0001 8.94382V9.14382ZM10.7166 9.14382L12.0001 9.14382V8.94382L10.7166 8.94382V9.14382ZM10.6166 7.8752V9.04382H10.8166V7.8752H10.6166Z" fill="#F0F3F7"/>
</svg>
