<svg width="10" height="10" viewBox="0 0 10 10" fill="none" xmlns="http://www.w3.org/2000/svg">
<g clip-path="url(#clip0_276_1509)">
<path d="M5 0.625C4.13471 0.625 3.28885 0.881589 2.56938 1.36232C1.84992 1.84305 1.28916 2.52633 0.958029 3.32576C0.626896 4.12519 0.540256 5.00485 0.709066 5.85352C0.877877 6.70219 1.29456 7.48174 1.90641 8.09359C2.51826 8.70545 3.29782 9.12212 4.14648 9.29094C4.99515 9.45975 5.87482 9.37311 6.67424 9.04197C7.47367 8.71084 8.15695 8.15008 8.63768 7.43062C9.11841 6.71115 9.375 5.86529 9.375 5C9.375 3.83968 8.91407 2.72688 8.09359 1.90641C7.27312 1.08594 6.16032 0.625 5 0.625ZM3.59375 5C3.43924 5 3.28819 4.95418 3.15971 4.86834C3.03124 4.78249 2.9311 4.66048 2.87197 4.51772C2.81284 4.37497 2.79737 4.21788 2.82751 4.06634C2.85766 3.91479 2.93207 3.77558 3.04132 3.66632C3.15058 3.55706 3.28979 3.48266 3.44134 3.45251C3.59289 3.42237 3.74997 3.43784 3.89272 3.49697C4.03548 3.5561 4.15749 3.65623 4.24334 3.78471C4.32918 3.91319 4.375 4.06423 4.375 4.21875C4.37583 4.32158 4.3562 4.42354 4.31723 4.5187C4.27826 4.61387 4.22075 4.70032 4.14804 4.77303C4.07532 4.84575 3.98887 4.90326 3.89371 4.94223C3.79854 4.98119 3.69658 5.00083 3.59375 5ZM6.40625 5C6.25174 5 6.10069 4.95418 5.97221 4.86834C5.84374 4.78249 5.7436 4.66048 5.68447 4.51772C5.62534 4.37497 5.60987 4.21788 5.64001 4.06634C5.67016 3.91479 5.74457 3.77558 5.85382 3.66632C5.96308 3.55706 6.10229 3.48266 6.25384 3.45251C6.40539 3.42237 6.56247 3.43784 6.70522 3.49697C6.84798 3.5561 6.96999 3.65623 7.05584 3.78471C7.14168 3.91319 7.1875 4.06423 7.1875 4.21875C7.18833 4.32158 7.1687 4.42354 7.12973 4.5187C7.09076 4.61387 7.03325 4.70032 6.96054 4.77303C6.88782 4.84575 6.80137 4.90326 6.70621 4.94223C6.61104 4.98119 6.50908 5.00083 6.40625 5Z" fill="#FFC80A" fill-opacity="0.6"/>
</g>
<defs>
<clipPath id="clip0_276_1509">
<rect width="10" height="10" fill="white"/>
</clipPath>
</defs>
</svg>
