<svg width="8" height="14" viewBox="0 0 8 14" fill="none" xmlns="http://www.w3.org/2000/svg">
<path d="M6.0832 13.0667L0.466536 7.46668C0.39987 7.40002 0.352759 7.32779 0.325203 7.25002C0.297203 7.17224 0.283203 7.08891 0.283203 7.00002C0.283203 6.91113 0.297203 6.82779 0.325203 6.75002C0.352759 6.67224 0.39987 6.60002 0.466536 6.53335L6.0832 0.916683C6.23876 0.761127 6.4332 0.68335 6.66654 0.68335C6.89987 0.68335 7.09987 0.766683 7.26653 0.93335C7.4332 1.10002 7.51653 1.29446 7.51653 1.51668C7.51653 1.73891 7.4332 1.93335 7.26653 2.10002L2.36654 7.00002L7.26653 11.9C7.42209 12.0556 7.49987 12.2471 7.49987 12.4747C7.49987 12.7027 7.41654 12.9 7.24987 13.0667C7.0832 13.2334 6.88876 13.3167 6.66654 13.3167C6.44431 13.3167 6.24987 13.2334 6.0832 13.0667Z" fill="#8A8886"/>
</svg>
