<?xml version="1.0" standalone="no"?><!DOCTYPE svg PUBLIC "-//W3C//DTD SVG 1.1//EN" "http://www.w3.org/Graphics/SVG/1.1/DTD/svg11.dtd"><svg t="1689846684484" class="icon" viewBox="0 0 1024 1024" version="1.1" xmlns="http://www.w3.org/2000/svg" p-id="1496" xmlns:xlink="http://www.w3.org/1999/xlink" width="64" height="64"><path d="M385.024 378.88V319.488c5.632-0.512 11.776-0.512 17.408-0.512 163.328-5.12 270.336 140.288 270.336 140.288S557.568 619.52 433.664 619.52c-16.384 0-32.768-2.56-48.128-7.68V430.592c63.488 7.68 76.288 35.84 114.176 99.328l84.992-71.168s-61.952-81.408-166.4-81.408c-11.264-0.512-22.016 0.512-33.28 1.536m0-197.12v89.088l17.408-1.024c226.816-7.68 374.784 185.856 374.784 185.856s-169.984 206.336-346.624 206.336c-15.36 0-30.72-1.536-45.568-4.096v55.296c12.288 1.536 25.6 2.56 37.888 2.56 164.864 0 283.648-83.968 398.848-183.296 18.944 15.36 97.28 52.736 113.664 68.608-109.568 91.648-365.056 165.888-509.44 165.888-13.824 0-27.136-0.512-40.448-2.048v77.312h625.664v-660.48H385.024z m0 429.568v47.104c-152.064-27.136-194.56-185.344-194.56-185.344s73.216-80.896 194.56-94.208v51.2h-0.512C321.024 422.4 271.36 482.304 271.36 482.304s28.16 99.84 113.664 129.024M115.2 466.432s90.112-133.12 270.336-146.944v-48.64C185.344 286.72 12.8 456.192 12.8 456.192s97.792 283.136 372.224 308.736v-51.2c-201.216-25.6-269.824-247.296-269.824-247.296z" fill="#76B900" p-id="1497"></path></svg>