<svg width="48" height="49" viewBox="0 0 48 49" fill="none" xmlns="http://www.w3.org/2000/svg">
<path d="M40.001 30.5009C40.5262 30.5009 41.0464 30.6044 41.5317 30.8054C42.017 31.0064 42.458 31.3011 42.8294 31.6725C43.2008 32.0439 43.4955 32.4849 43.6965 32.9702C43.8975 33.4555 44.001 33.9757 44.001 34.5009V40.5009C44.001 41.0262 43.8975 41.5464 43.6965 42.0317C43.4955 42.517 43.2008 42.9579 42.8294 43.3294C42.458 43.7008 42.017 43.9954 41.5317 44.1965C41.0464 44.3975 40.5262 44.5009 40.001 44.5009H8.00098C7.47569 44.5009 6.95554 44.3975 6.47024 44.1965C5.98494 43.9954 5.54398 43.7008 5.17255 43.3294C4.80111 42.9579 4.50648 42.517 4.30546 42.0317C4.10444 41.5464 4.00098 41.0262 4.00098 40.5009V34.5009C4.00098 33.9757 4.10444 33.4555 4.30546 32.9702C4.50648 32.4849 4.80111 32.0439 5.17255 31.6725C5.54398 31.3011 5.98494 31.0064 6.47024 30.8054C6.95554 30.6044 7.47569 30.5009 8.00098 30.5009H40.001ZM27.201 35.9009H20.801C20.3766 35.9009 19.9697 36.0695 19.6696 36.3696C19.3695 36.6696 19.201 37.0766 19.201 37.5009C19.201 37.9253 19.3695 38.3323 19.6696 38.6323C19.9697 38.9324 20.3766 39.1009 20.801 39.1009H27.201C27.6253 39.1009 28.0323 38.9324 28.3323 38.6323C28.6324 38.3323 28.801 37.9253 28.801 37.5009C28.801 37.0766 28.6324 36.6696 28.3323 36.3696C28.0323 36.0695 27.6253 35.9009 27.201 35.9009ZM40.001 14.5009C40.5262 14.5009 41.0464 14.6044 41.5317 14.8054C42.017 15.0064 42.458 15.3011 42.8294 15.6725C43.2008 16.044 43.4955 16.4849 43.6965 16.9702C43.8975 17.4555 44.001 17.9757 44.001 18.5009V24.5009C44.001 25.0262 43.8975 25.5464 43.6965 26.0317C43.4955 26.517 43.2008 26.9579 42.8294 27.3294C42.458 27.7008 42.017 27.9954 41.5317 28.1965C41.0464 28.3975 40.5262 28.5009 40.001 28.5009H8.00098C7.47569 28.5009 6.95554 28.3975 6.47024 28.1965C5.98494 27.9954 5.54398 27.7008 5.17255 27.3294C4.80111 26.9579 4.50648 26.517 4.30546 26.0317C4.10444 25.5464 4.00098 25.0262 4.00098 24.5009V18.5009C4.00098 17.9757 4.10444 17.4555 4.30546 16.9702C4.50648 16.4849 4.80111 16.044 5.17255 15.6725C5.54398 15.3011 5.98494 15.0064 6.47024 14.8054C6.95554 14.6044 7.47569 14.5009 8.00098 14.5009H40.001ZM27.201 19.9009H20.801C20.3766 19.9009 19.9697 20.0695 19.6696 20.3696C19.3695 20.6696 19.201 21.0766 19.201 21.5009C19.201 21.9253 19.3695 22.3323 19.6696 22.6323C19.9697 22.9324 20.3766 23.1009 20.801 23.1009H27.201C27.6253 23.1009 28.0323 22.9324 28.3323 22.6323C28.6324 22.3323 28.801 21.9253 28.801 21.5009C28.801 21.0766 28.6324 20.6696 28.3323 20.3696C28.0323 20.0695 27.6253 19.9009 27.201 19.9009ZM14.875 4.50095H33.127C33.7136 4.50087 34.2931 4.62983 34.8243 4.87869C35.3555 5.12754 35.8255 5.49019 36.201 5.94095L40.001 10.5009H8.00098L11.801 5.94095C12.1764 5.49019 12.6464 5.12754 13.1776 4.87869C13.7089 4.62983 14.2883 4.50087 14.875 4.50095Z" fill="url(#paint0_angular_4715_17928)"/>
<defs>
<radialGradient id="paint0_angular_4715_17928" cx="0" cy="0" r="1" gradientUnits="userSpaceOnUse" gradientTransform="translate(5.71548 44.5009) rotate(-46.2546) scale(55.3695 61.5791)">
<stop stop-color="#915AB3"/>
<stop offset="1" stop-color="#9E6CBD"/>
</radialGradient>
</defs>
</svg>
