<svg width="16" height="16" viewBox="0 0 16 16" fill="none" xmlns="http://www.w3.org/2000/svg">
<g id="oss 2">
<path id="Vector" d="M13.3334 9.99992C13.5085 9.99992 13.6819 10.0344 13.8436 10.1014C14.0054 10.1684 14.1524 10.2666 14.2762 10.3904C14.4 10.5143 14.4982 10.6612 14.5652 10.823C14.6322 10.9848 14.6667 11.1582 14.6667 11.3333V13.3333C14.6667 13.5083 14.6322 13.6817 14.5652 13.8435C14.4982 14.0053 14.4 14.1522 14.2762 14.2761C14.1524 14.3999 14.0054 14.4981 13.8436 14.5651C13.6819 14.6321 13.5085 14.6666 13.3334 14.6666H2.66671C2.49161 14.6666 2.31823 14.6321 2.15646 14.5651C1.9947 14.4981 1.84771 14.3999 1.7239 14.2761C1.60009 14.1522 1.50187 14.0053 1.43487 13.8435C1.36786 13.6817 1.33337 13.5083 1.33337 13.3333V11.3333C1.33337 11.1582 1.36786 10.9848 1.43487 10.823C1.50187 10.6612 1.60009 10.5143 1.7239 10.3904C1.84771 10.2666 1.9947 10.1684 2.15646 10.1014C2.31823 10.0344 2.49161 9.99992 2.66671 9.99992H13.3334ZM9.06671 11.7999H6.93337C6.79192 11.7999 6.65627 11.8561 6.55625 11.9561C6.45623 12.0561 6.40004 12.1918 6.40004 12.3333C6.40004 12.4747 6.45623 12.6104 6.55625 12.7104C6.65627 12.8104 6.79192 12.8666 6.93337 12.8666H9.06671C9.20816 12.8666 9.34381 12.8104 9.44383 12.7104C9.54385 12.6104 9.60004 12.4747 9.60004 12.3333C9.60004 12.1918 9.54385 12.0561 9.44383 11.9561C9.34381 11.8561 9.20816 11.7999 9.06671 11.7999ZM13.3334 4.66658C13.5085 4.66658 13.6819 4.70107 13.8436 4.76808C14.0054 4.83509 14.1524 4.9333 14.2762 5.05711C14.4 5.18092 14.4982 5.32791 14.5652 5.48967C14.6322 5.65144 14.6667 5.82482 14.6667 5.99992V7.99992C14.6667 8.17501 14.6322 8.34839 14.5652 8.51016C14.4982 8.67193 14.4 8.81892 14.2762 8.94273C14.1524 9.06654 14.0054 9.16475 13.8436 9.23176C13.6819 9.29876 13.5085 9.33325 13.3334 9.33325H2.66671C2.49161 9.33325 2.31823 9.29876 2.15646 9.23176C1.9947 9.16475 1.84771 9.06654 1.7239 8.94273C1.60009 8.81892 1.50187 8.67193 1.43487 8.51016C1.36786 8.34839 1.33337 8.17501 1.33337 7.99992V5.99992C1.33337 5.82482 1.36786 5.65144 1.43487 5.48967C1.50187 5.32791 1.60009 5.18092 1.7239 5.05711C1.84771 4.9333 1.9947 4.83509 2.15646 4.76808C2.31823 4.70107 2.49161 4.66658 2.66671 4.66658H13.3334ZM9.06671 6.46658H6.93337C6.79192 6.46658 6.65627 6.52277 6.55625 6.62279C6.45623 6.72281 6.40004 6.85847 6.40004 6.99992C6.40004 7.14137 6.45623 7.27702 6.55625 7.37704C6.65627 7.47706 6.79192 7.53325 6.93337 7.53325H9.06671C9.20816 7.53325 9.34381 7.47706 9.44383 7.37704C9.54385 7.27702 9.60004 7.14137 9.60004 6.99992C9.60004 6.85847 9.54385 6.72281 9.44383 6.62279C9.34381 6.52277 9.20816 6.46658 9.06671 6.46658ZM4.95804 1.33325H11.042C11.2376 1.33323 11.4307 1.37621 11.6078 1.45917C11.7849 1.54212 11.9416 1.663 12.0667 1.81325L13.3334 3.33325H2.66671L3.93337 1.81325C4.05852 1.663 4.21519 1.54212 4.39226 1.45917C4.56934 1.37621 4.7625 1.33323 4.95804 1.33325Z" fill="#24282C"/>
</g>
</svg>
