<svg xmlns="http://www.w3.org/2000/svg" width="24" height="24" viewBox="0 0 24 24" fill="none">
  <path fill-rule="evenodd" clip-rule="evenodd" d="M13 3.63151C12.8097 3.61563 12.5318 3.61309 12.0118 3.61309H8.8C7.94442 3.61309 7.35921 3.61377 6.90608 3.64853C6.46289 3.68252 6.23164 3.7446 6.0695 3.82215C5.68754 4.00483 5.38889 4.29054 5.20585 4.62774C5.13457 4.75906 5.07214 4.95341 5.03711 5.35592C5.00088 5.7721 5 6.31265 5 7.11879V16.8811C5 17.6873 5.00088 18.2278 5.03711 18.644C5.07214 19.0465 5.13457 19.2409 5.20585 19.3722C5.38889 19.7094 5.68754 19.9951 6.0695 20.1778C6.23164 20.2553 6.46289 20.3174 6.90608 20.3514C7.35921 20.3861 7.94442 20.3868 8.8 20.3868H15.2C16.0556 20.3868 16.6408 20.3861 17.0939 20.3514C17.5371 20.3174 17.7684 20.2553 17.9305 20.1778C18.3125 19.9951 18.6111 19.7094 18.7941 19.3722C18.8654 19.2409 18.9279 19.0465 18.9629 18.644C18.9991 18.2278 19 17.6873 19 16.8811V10.1115C19 9.65934 18.9973 9.41026 18.985 9.24521L15.5694 9.24521C15.3158 9.24524 15.0723 9.24526 14.8667 9.2295C14.6429 9.21233 14.3802 9.1721 14.1145 9.04503C13.7438 8.86773 13.4306 8.57903 13.2301 8.20974C13.0834 7.93946 13.0369 7.67016 13.0174 7.44655C12.9999 7.24586 13 7.01036 13 6.77572C13 6.76491 13 6.75411 13 6.74331V3.63151ZM14.3684 1.93605C14.1455 1.84257 13.9143 1.76871 13.6775 1.71536C13.2216 1.61261 12.7488 1.6128 12.1104 1.61306C12.078 1.61308 12.0451 1.61309 12.0118 1.61309L8.76087 1.61309C7.95404 1.61308 7.29183 1.61307 6.75314 1.65438C6.19582 1.69713 5.68616 1.78851 5.20656 2.0179C4.45954 2.37518 3.84031 2.95108 3.44811 3.67363C3.19241 4.1447 3.09135 4.64582 3.04464 5.18249C2.99997 5.6957 2.99998 6.32379 3 7.07565V16.9243C2.99998 17.6761 2.99997 18.3042 3.04464 18.8174C3.09135 19.3541 3.19241 19.8552 3.44811 20.3263C3.84031 21.0488 4.45954 21.6247 5.20656 21.982C5.68616 22.2114 6.19582 22.3028 6.75314 22.3455C7.29182 22.3869 7.95401 22.3868 8.76082 22.3868H15.2392C16.046 22.3868 16.7082 22.3869 17.2469 22.3455C17.8042 22.3028 18.3138 22.2114 18.7934 21.982C19.5405 21.6247 20.1597 21.0488 20.5519 20.3263C20.8076 19.8552 20.9087 19.3541 20.9554 18.8174C21 18.3042 21 17.6761 21 16.9242V10.1115C21 10.0771 21 10.0431 21 10.0095C21.0004 9.42011 21.0007 8.95522 20.8859 8.50648C20.8265 8.27406 20.7445 8.04841 20.6416 7.8323C20.6347 7.81715 20.6275 7.8022 20.6199 7.78747C20.5532 7.65209 20.4782 7.52058 20.3953 7.39362C20.1428 7.00686 19.7996 6.68507 19.3535 6.26679C19.3288 6.24364 19.3038 6.22019 19.2785 6.19642L16.0903 3.20367C16.0662 3.18102 16.0424 3.15865 16.0188 3.13656C15.5693 2.71422 15.2291 2.3946 14.8235 2.16124C14.6916 2.08538 14.5556 2.01705 14.4161 1.95646C14.4004 1.94926 14.3845 1.94245 14.3684 1.93605ZM15 4.92332V6.74331C15 6.99036 15.0007 7.13329 15.007 7.23432C15.011 7.23466 15.0152 7.23501 15.0197 7.23535C15.1393 7.24453 15.3045 7.24521 15.6 7.24521H17.4736L15 4.92332Z" fill="#039855"/>
  <path d="M8.23315 18.445C7.76515 18.445 7.36315 18.355 7.02715 18.175C6.69115 17.995 6.43315 17.741 6.25315 17.413C6.07715 17.085 5.98915 16.701 5.98915 16.261C5.98915 15.933 6.03915 15.635 6.13915 15.367C6.24315 15.099 6.39115 14.869 6.58315 14.677C6.77915 14.485 7.01515 14.339 7.29115 14.239C7.57115 14.135 7.88515 14.083 8.23315 14.083C8.41715 14.083 8.60715 14.105 8.80315 14.149C9.00315 14.189 9.17915 14.251 9.33115 14.335C9.44315 14.395 9.52115 14.471 9.56515 14.563C9.60915 14.655 9.62315 14.749 9.60715 14.845C9.59515 14.941 9.56115 15.027 9.50515 15.103C9.44915 15.179 9.37715 15.231 9.28915 15.259C9.20115 15.283 9.10515 15.269 9.00115 15.217C8.88115 15.161 8.76115 15.119 8.64115 15.091C8.52515 15.059 8.40315 15.043 8.27515 15.043C8.02715 15.043 7.81915 15.091 7.65115 15.187C7.48715 15.279 7.36315 15.415 7.27915 15.595C7.19515 15.775 7.15315 15.997 7.15315 16.261C7.15315 16.525 7.19515 16.749 7.27915 16.933C7.36315 17.113 7.48715 17.251 7.65115 17.347C7.81915 17.439 8.02715 17.485 8.27515 17.485C8.37915 17.485 8.49115 17.473 8.61115 17.449C8.73115 17.421 8.84915 17.379 8.96515 17.323C9.08515 17.271 9.19115 17.257 9.28315 17.281C9.37915 17.305 9.45515 17.353 9.51115 17.425C9.57115 17.497 9.60915 17.581 9.62515 17.677C9.64115 17.769 9.62715 17.861 9.58315 17.953C9.54315 18.045 9.47115 18.119 9.36715 18.175C9.22715 18.259 9.05315 18.325 8.84515 18.373C8.64115 18.421 8.43715 18.445 8.23315 18.445Z" fill="#039855"/>
  <path d="M11.8145 18.445C11.6545 18.445 11.4865 18.433 11.3105 18.409C11.1385 18.389 10.9745 18.357 10.8185 18.313C10.6625 18.269 10.5225 18.217 10.3985 18.157C10.2905 18.105 10.2145 18.037 10.1705 17.953C10.1265 17.865 10.1105 17.773 10.1225 17.677C10.1345 17.581 10.1685 17.497 10.2245 17.425C10.2805 17.349 10.3545 17.299 10.4465 17.275C10.5385 17.247 10.6425 17.259 10.7585 17.311C10.9105 17.383 11.0825 17.439 11.2745 17.479C11.4665 17.519 11.6465 17.539 11.8145 17.539C12.0785 17.539 12.2625 17.505 12.3665 17.437C12.4745 17.365 12.5285 17.277 12.5285 17.173C12.5285 17.081 12.4905 17.007 12.4145 16.951C12.3425 16.895 12.2125 16.847 12.0245 16.807L11.3225 16.657C10.9385 16.577 10.6525 16.437 10.4645 16.237C10.2765 16.037 10.1825 15.779 10.1825 15.463C10.1825 15.255 10.2245 15.067 10.3085 14.899C10.3965 14.727 10.5185 14.581 10.6745 14.461C10.8345 14.341 11.0225 14.249 11.2385 14.185C11.4585 14.117 11.7025 14.083 11.9705 14.083C12.1785 14.083 12.3885 14.107 12.6005 14.155C12.8165 14.199 13.0025 14.267 13.1585 14.359C13.2505 14.407 13.3165 14.473 13.3565 14.557C13.3965 14.641 13.4125 14.729 13.4045 14.821C13.3965 14.909 13.3645 14.987 13.3085 15.055C13.2565 15.123 13.1845 15.169 13.0925 15.193C13.0045 15.213 12.8985 15.197 12.7745 15.145C12.6585 15.093 12.5265 15.055 12.3785 15.031C12.2345 15.003 12.0945 14.989 11.9585 14.989C11.8105 14.989 11.6845 15.007 11.5805 15.043C11.4765 15.075 11.3965 15.123 11.3405 15.187C11.2885 15.251 11.2625 15.325 11.2625 15.409C11.2625 15.493 11.2965 15.565 11.3645 15.625C11.4365 15.681 11.5665 15.729 11.7545 15.769L12.4505 15.919C12.8385 16.003 13.1285 16.141 13.3205 16.333C13.5125 16.525 13.6085 16.775 13.6085 17.083C13.6085 17.291 13.5665 17.479 13.4825 17.647C13.3985 17.815 13.2785 17.959 13.1225 18.079C12.9665 18.195 12.7785 18.285 12.5585 18.349C12.3385 18.413 12.0905 18.445 11.8145 18.445Z" fill="#039855"/>
  <path d="M16.0367 18.433C15.8847 18.433 15.7607 18.401 15.6647 18.337C15.5727 18.273 15.4947 18.171 15.4307 18.031L13.9787 14.827C13.9147 14.687 13.8947 14.561 13.9187 14.449C13.9427 14.337 13.9987 14.251 14.0867 14.191C14.1747 14.127 14.2847 14.095 14.4167 14.095C14.5807 14.095 14.7027 14.131 14.7827 14.203C14.8667 14.275 14.9387 14.381 14.9987 14.521L16.2227 17.353H15.8867L17.1107 14.515C17.1707 14.375 17.2427 14.271 17.3267 14.203C17.4107 14.131 17.5287 14.095 17.6807 14.095C17.8047 14.095 17.9087 14.127 17.9927 14.191C18.0767 14.251 18.1287 14.337 18.1487 14.449C18.1727 14.561 18.1527 14.687 18.0887 14.827L16.6307 18.031C16.5707 18.171 16.4947 18.273 16.4027 18.337C16.3107 18.401 16.1887 18.433 16.0367 18.433Z" fill="#039855"/>
  <path d="M15.7875 16.9856H16.3052V17.353H15.7875V16.9856Z" fill="#039855"/>
</svg>