<svg xmlns="http://www.w3.org/2000/svg" width="24" height="24" viewBox="0 0 24 24" fill="none">
  <path fill-rule="evenodd" clip-rule="evenodd" d="M12.7997 3.63151C12.6095 3.61563 12.3315 3.61309 11.8115 3.61309H8.59975C7.74417 3.61309 7.15896 3.61378 6.70582 3.64853C6.26263 3.68252 6.03138 3.7446 5.86925 3.82215C5.48729 4.00483 5.18864 4.29054 5.0056 4.62774C4.93432 4.75906 4.87188 4.95341 4.83685 5.35592C4.80063 5.7721 4.79975 6.31265 4.79975 7.11879V16.8811C4.79975 17.6873 4.80063 18.2278 4.83685 18.644C4.87188 19.0465 4.93432 19.2409 5.0056 19.3722C5.18864 19.7094 5.48729 19.9951 5.86925 20.1778C6.03138 20.2553 6.26263 20.3174 6.70582 20.3514C7.15896 20.3861 7.74417 20.3868 8.59975 20.3868H14.9997C15.8553 20.3868 16.4405 20.3861 16.8937 20.3514C17.3369 20.3174 17.5681 20.2553 17.7302 20.1778C18.1122 19.9951 18.4109 19.7094 18.5939 19.3722C18.6652 19.2409 18.7276 19.0465 18.7626 18.644C18.7989 18.2278 18.7997 17.6873 18.7997 16.8811V10.1115C18.7997 9.65934 18.797 9.41026 18.7848 9.24521L15.3691 9.24521C15.1156 9.24524 14.8721 9.24527 14.6665 9.2295C14.4427 9.21233 14.18 9.1721 13.9143 9.04503C13.5436 8.86773 13.2303 8.57903 13.0299 8.20974C12.8832 7.93947 12.8366 7.67016 12.8171 7.44655C12.7997 7.24586 12.7997 7.01037 12.7997 6.77572C12.7997 6.76491 12.7997 6.75411 12.7997 6.74331V3.63151ZM14.1681 1.93605C13.9453 1.84257 13.714 1.76871 13.4773 1.71536C13.0213 1.61261 12.5485 1.6128 11.9102 1.61306C11.8777 1.61308 11.8449 1.61309 11.8115 1.61309L8.56061 1.61309C7.75378 1.61308 7.09157 1.61307 6.55288 1.65438C5.99556 1.69713 5.4859 1.78851 5.0063 2.0179C4.25929 2.37518 3.64006 2.95108 3.24785 3.67363C2.99215 4.1447 2.8911 4.64583 2.84438 5.18249C2.79971 5.6957 2.79973 6.32379 2.79974 7.07565V16.9243C2.79973 17.6761 2.79971 18.3042 2.84438 18.8174C2.8911 19.3541 2.99215 19.8552 3.24785 20.3263C3.64006 21.0488 4.25929 21.6247 5.0063 21.982C5.4859 22.2114 5.99556 22.3028 6.55288 22.3455C7.09156 22.3869 7.75376 22.3868 8.56057 22.3868H15.0389C15.8457 22.3868 16.5079 22.3869 17.0466 22.3455C17.6039 22.3028 18.1136 22.2114 18.5932 21.982C19.3402 21.6247 19.9594 21.0488 20.3516 20.3263C20.6073 19.8552 20.7084 19.3541 20.7551 18.8174C20.7998 18.3042 20.7998 17.6761 20.7997 16.9242V10.1115C20.7997 10.0771 20.7998 10.0431 20.7998 10.0095C20.8002 9.42011 20.8004 8.95522 20.6857 8.50648C20.6262 8.27406 20.5443 8.04841 20.4413 7.8323C20.4344 7.81715 20.4272 7.8022 20.4196 7.78747C20.3529 7.65209 20.2779 7.52058 20.195 7.39362C19.9425 7.00686 19.5994 6.68507 19.1533 6.26679C19.1286 6.24364 19.1036 6.22019 19.0783 6.19642L15.89 3.20367C15.8659 3.18102 15.8421 3.15865 15.8186 3.13657C15.3691 2.71422 15.0289 2.3946 14.6232 2.16124C14.4913 2.08538 14.3553 2.01705 14.2159 1.95646C14.2002 1.94926 14.1842 1.94245 14.1681 1.93605ZM14.7997 4.92332V6.74331C14.7997 6.99036 14.8004 7.13329 14.8067 7.23432C14.8108 7.23467 14.815 7.23501 14.8194 7.23535C14.939 7.24453 15.1042 7.24521 15.3997 7.24521H17.2733L14.7997 4.92332Z" fill="#9E53C1"/>
</svg>