<svg xmlns="http://www.w3.org/2000/svg"   viewBox="0 0 17 16" fill="none">
  <path fill-rule="evenodd" clip-rule="evenodd" d="M8.76008 5.16963L7.83966 3.40236C7.79374 3.31418 7.70257 3.25887 7.60315 3.25887H3.54046C3.31955 3.25887 3.14046 3.43796 3.14046 3.65887V11.8076C3.14046 12.323 3.55833 12.7409 4.0738 12.7409H13.6072C14.1227 12.7409 14.5405 12.323 14.5405 11.8076V6.10297C14.5405 5.5875 14.1227 5.16963 13.6072 5.16963H8.76008ZM1.80713 3.65887C1.80713 2.70158 2.58317 1.92554 3.54046 1.92554H7.60315C8.19968 1.92554 8.74667 2.25739 9.02222 2.78647L9.56899 3.8363H13.6072C14.8591 3.8363 15.8739 4.85112 15.8739 6.10297V11.8076C15.8739 13.0594 14.8591 14.0742 13.6072 14.0742H4.0738C2.82195 14.0742 1.80713 13.0594 1.80713 11.8076V3.65887Z" fill="currentColor"/>
</svg>