<svg xmlns="http://www.w3.org/2000/svg" width="24" height="24" viewBox="0 0 24 24" fill="none">
  <path fill-rule="evenodd" clip-rule="evenodd" d="M13 3.62834C12.8098 3.61246 12.5318 3.60992 12.0118 3.60992H8.8C7.94442 3.60992 7.35922 3.6106 6.9061 3.64536C6.46293 3.67936 6.23172 3.74146 6.06961 3.81902C5.68768 4.00174 5.389 4.28754 5.20591 4.62493C5.13459 4.75636 5.07215 4.95086 5.03711 5.35353C5.00088 5.76987 5 6.31062 5 7.11699V16.8823C5 17.6887 5.00088 18.2294 5.03711 18.6458C5.07215 19.0484 5.13459 19.2429 5.20591 19.3744C5.389 19.7118 5.68768 19.9976 6.06961 20.1803C6.23172 20.2578 6.46293 20.3199 6.9061 20.3539C7.35922 20.3887 7.94442 20.3894 8.8 20.3894H15.2C16.0556 20.3894 16.6408 20.3887 17.0939 20.3539C17.5371 20.3199 17.7683 20.2578 17.9304 20.1803C18.3123 19.9976 18.611 19.7118 18.7941 19.3744C18.8654 19.2429 18.9279 19.0484 18.9629 18.6458C18.9991 18.2294 19 17.6887 19 16.8823V10.1106C19 9.65816 18.9973 9.40896 18.985 9.24382L15.5694 9.24383C15.3158 9.24385 15.0723 9.24388 14.8667 9.2281C14.6429 9.21093 14.3801 9.17068 14.1144 9.04356C13.7437 8.86619 13.4305 8.57741 13.2301 8.20808C13.0834 7.9378 13.0368 7.6685 13.0174 7.44487C12.9999 7.24414 13 7.00859 13 6.77386C13 6.76306 13 6.75226 13 6.74147V3.62834ZM14.3715 1.93429C14.1477 1.84016 13.9154 1.76584 13.6776 1.71223C13.2216 1.60944 12.7488 1.60963 12.1105 1.60989C12.078 1.6099 12.0451 1.60992 12.0118 1.60992L8.76085 1.60992C7.95404 1.6099 7.29182 1.6099 6.75311 1.65122C6.19577 1.69398 5.68608 1.7854 5.20645 2.01487C4.45941 2.37227 3.84021 2.94835 3.44805 3.67104C3.19239 4.14217 3.09135 4.64337 3.04464 5.18016C2.99997 5.69349 2.99998 6.32176 3 7.07387V16.9254C2.99998 17.6775 2.99997 18.3058 3.04464 18.8191C3.09135 19.3559 3.19239 19.8571 3.44805 20.3283C3.84021 21.051 4.45941 21.627 5.20645 21.9844C5.68608 22.2139 6.19577 22.3053 6.75311 22.3481C7.29181 22.3894 7.95402 22.3894 8.76083 22.3894H15.2392C16.046 22.3894 16.7082 22.3894 17.2469 22.3481C17.8042 22.3053 18.3139 22.2139 18.7936 21.9844C19.5406 21.627 20.1598 21.051 20.552 20.3283C20.8076 19.8571 20.9087 19.3559 20.9554 18.8191C21 18.3058 21 17.6775 21 16.9254V10.1106C21 10.0762 21 10.0422 21 10.0086C21.0004 9.41901 21.0007 8.95406 20.8859 8.50525C20.8264 8.27229 20.7442 8.04614 20.641 7.82956C20.6345 7.81541 20.6277 7.80143 20.6207 7.78764C20.5538 7.6517 20.4785 7.51965 20.3954 7.39219C20.1429 7.00534 19.7997 6.68347 19.3536 6.26506C19.329 6.2419 19.304 6.21844 19.2786 6.19466L16.0904 3.20101C16.0663 3.17835 16.0425 3.15597 16.019 3.13387C15.5694 2.71141 15.2293 2.39169 14.8236 2.15826C14.6908 2.08183 14.5537 2.01304 14.4132 1.95211C14.3995 1.94587 14.3856 1.93992 14.3715 1.93429ZM15 4.92063V6.74147C15 6.98879 15.0007 7.13182 15.007 7.23293C15.011 7.23327 15.0153 7.23362 15.0197 7.23396C15.1393 7.24314 15.3045 7.24382 15.6 7.24382H17.4742L15 4.92063ZM7 12.9386C7 12.3863 7.44772 11.9386 8 11.9386H16C16.5523 11.9386 17 12.3863 17 12.9386C17 13.4909 16.5523 13.9386 16 13.9386H8C7.44772 13.9386 7 13.4909 7 12.9386ZM7 16.6945C7 16.1422 7.44772 15.6945 8 15.6945H14C14.5523 15.6945 15 16.1422 15 16.6945C15 17.2468 14.5523 17.6945 14 17.6945H8C7.44772 17.6945 7 17.2468 7 16.6945Z" fill="#667085"/>
</svg>