<svg width="78" height="78" viewBox="0 0 78 78" fill="none" xmlns="http://www.w3.org/2000/svg">
<g clip-path="url(#clip0_1180_19206)">
<rect width="78" height="78" fill="url(#paint0_linear_1180_19206)"/>
<path d="M34.6741 11.6189C38.27 10.7207 42.1288 10.5496 46.0638 11.2435C61.2729 13.9254 71.8597 28.497 69.7104 43.7905C68.3655 53.3593 62.3534 60.9428 54.3156 64.6231L54.3187 64.6251L54.2883 64.6352C52.8133 65.3086 51.2699 65.8484 49.6752 66.2471L46.0658 67.51L47.0574 66.7652C44.2307 67.1793 41.2771 67.1552 38.2794 66.6266C23.0703 63.9446 12.4834 49.372 14.6328 34.0785C15.8409 25.4834 20.8144 18.4891 27.6395 14.4875L26.662 14.188L31.3784 12.6722C32.4262 12.2605 33.5043 11.9136 34.6073 11.6351L34.6761 11.6138L34.6741 11.6189Z" fill="url(#paint1_linear_1180_19206)"/>
<path d="M34.6741 11.6189C38.27 10.7207 42.1288 10.5496 46.0638 11.2435C61.2729 13.9254 71.8597 28.497 69.7104 43.7905L69.5708 44.6822C67.9879 53.8297 62.1021 61.0578 54.3156 64.6231L54.3187 64.6251L54.2883 64.6352C52.8133 65.3086 51.2699 65.8484 49.6752 66.2471L46.0658 67.51L47.0574 66.7652C44.4074 67.1534 41.6459 67.1565 38.8411 66.7199L38.2794 66.6266C23.308 63.9865 12.8151 49.8247 14.5409 34.7951L14.6328 34.0785C15.8409 25.4834 20.8144 18.4891 27.6395 14.4875L26.662 14.188L31.3784 12.6722C32.4262 12.2605 33.5043 11.9136 34.6073 11.6351L34.6761 11.6138L34.6741 11.6189ZM45.9455 11.9166C42.1056 11.2395 38.3427 11.4067 34.8391 12.2819L34.7238 12.3102C33.9351 12.511 33.1598 12.7483 32.3995 13.0195L31.6284 13.3079L31.6082 13.316L31.587 13.3231L28.9429 14.172L29.3274 14.2904L27.9847 15.0767C21.5433 18.8532 16.7922 25.3669 15.4303 33.3927L15.3099 34.1738C13.2118 49.1028 23.5514 63.3358 38.3979 65.9539L38.9463 66.045C41.683 66.471 44.3756 66.4679 46.9584 66.0895L47.097 66.4244L49.4496 65.6018L49.479 65.5916L49.5093 65.5846C51.0638 65.1959 52.5676 64.6699 54.0041 64.0141L54.0375 63.9989L54.0385 63.9979C61.8654 60.4112 67.7223 53.0253 69.0335 43.6956L69.1226 42.9964C70.7806 28.5574 60.8822 14.9323 46.6376 12.0471L45.9455 11.9166Z" fill="url(#paint2_linear_1180_19206)" fill-opacity="0.5"/>
<path d="M64.0334 45.6592C61.8841 60.9529 47.812 71.1768 32.6027 68.495C17.3934 65.8132 6.80621 51.2412 8.95559 35.9475C11.105 20.6539 25.177 10.4299 40.3863 13.1118C55.5956 15.7936 66.1828 30.3656 64.0334 45.6592Z" fill="white" fill-opacity="0.6"/>
<path d="M64.6065 45.7632C62.409 61.3991 48.0221 71.8518 32.4724 69.11C16.9227 66.3682 6.09854 51.47 8.29602 35.8341C10.4935 20.1982 24.8805 9.74546 40.4302 12.4873C55.9799 15.2291 66.804 30.1272 64.6065 45.7632Z" fill="url(#paint3_linear_1180_19206)" fill-opacity="0.3"/>
<path d="M64.0334 45.6592C61.8841 60.9529 47.812 71.1768 32.6027 68.495C17.3934 65.8132 6.80621 51.2412 8.95559 35.9475C11.105 20.6539 25.177 10.43 40.3863 13.1118C55.5956 15.7936 66.1828 30.3656 64.0334 45.6592Z" fill="url(#paint4_linear_1180_19206)"/>
<path d="M60.5176 45.0388C62.363 31.9064 53.4427 19.384 40.5085 16.7643L39.8888 16.6468C26.6215 14.3077 14.3463 23.2262 12.4711 36.5669L12.3914 37.1926C10.8859 50.3034 20.0389 62.6566 33.0988 64.9597C46.1591 67.2626 58.2584 58.6566 60.4219 45.6617L60.5176 45.0388ZM63.9238 46.3726C61.4437 61.2693 47.5736 71.1348 32.602 68.4949C17.6307 65.8548 7.13807 51.6936 8.86387 36.6641L8.95545 35.947C11.105 20.6538 25.1766 10.4302 40.3856 13.1117L41.0958 13.2462C55.9231 16.2492 66.1488 30.6043 64.0333 45.6587L63.9238 46.3726Z" fill="url(#paint5_linear_1180_19206)"/>
<g filter="url(#filter0_d_1180_19206)">
<path d="M47.8099 30.3695C48.4081 29.853 49.3248 29.9389 49.8561 30.5609C50.387 31.1831 50.3327 32.1064 49.7348 32.623L40.7062 40.4207C40.2515 40.8134 39.6138 40.8575 39.1005 40.5832L37.5327 41.9364C37.8078 42.4623 37.9318 43.0714 37.8443 43.6939C37.6261 45.2468 36.1964 46.2847 34.652 46.0123C33.1078 45.7398 32.0327 44.2604 32.2509 42.7076C32.3164 42.2416 32.4925 41.8231 32.7463 41.4713L31.3033 39.9754C30.7941 40.1417 30.2035 40.0104 29.7945 39.5861L25.8035 35.4455C25.2361 34.8568 25.2336 33.9298 25.7973 33.3753C26.3613 32.8211 27.2787 32.8491 27.8462 33.4378L31.8372 37.5784C32.2682 38.0257 32.3731 38.6677 32.1515 39.1936L33.6042 40.7005C34.138 40.3973 34.7793 40.2721 35.4423 40.3889C35.9491 40.4783 36.4041 40.6997 36.7807 41.009L38.3531 39.6525C38.2039 39.1229 38.3505 38.5395 38.7814 38.1672L47.8099 30.3695Z" fill="url(#paint6_linear_1180_19206)"/>
</g>
</g>
<defs>
<filter id="filter0_d_1180_19206" x="24.3401" y="29.5139" width="26.9175" height="18.096" filterUnits="userSpaceOnUse" color-interpolation-filters="sRGB">
<feFlood flood-opacity="0" result="BackgroundImageFix"/>
<feColorMatrix in="SourceAlpha" type="matrix" values="0 0 0 0 0 0 0 0 0 0 0 0 0 0 0 0 0 0 127 0" result="hardAlpha"/>
<feOffset dy="0.518082"/>
<feGaussianBlur stdDeviation="0.518082"/>
<feComposite in2="hardAlpha" operator="out"/>
<feColorMatrix type="matrix" values="0 0 0 0 0 0 0 0 0 0.0780125 0 0 0 0 0.258151 0 0 0 0.2 0"/>
<feBlend mode="normal" in2="BackgroundImageFix" result="effect1_dropShadow_1180_19206"/>
<feBlend mode="normal" in="SourceGraphic" in2="effect1_dropShadow_1180_19206" result="shape"/>
</filter>
<linearGradient id="paint0_linear_1180_19206" x1="78" y1="0" x2="0" y2="78" gradientUnits="userSpaceOnUse">
<stop stop-color="#7FA5FF"/>
<stop offset="1" stop-color="#4D7FFF"/>
</linearGradient>
<linearGradient id="paint1_linear_1180_19206" x1="43.3418" y1="9.05109" x2="43.3418" y2="64.1861" gradientUnits="userSpaceOnUse">
<stop stop-color="#D2E3FF"/>
<stop offset="1" stop-color="#BAD4FF"/>
</linearGradient>
<linearGradient id="paint2_linear_1180_19206" x1="43.3421" y1="9.05113" x2="43.3421" y2="64.1862" gradientUnits="userSpaceOnUse">
<stop stop-color="#95B9FF"/>
<stop offset="1" stop-color="#C0D6FF"/>
</linearGradient>
<linearGradient id="paint3_linear_1180_19206" x1="40.4301" y1="12.4872" x2="30.5071" y2="68.7634" gradientUnits="userSpaceOnUse">
<stop stop-color="#7294E6"/>
<stop offset="1" stop-color="#D9E4FF"/>
</linearGradient>
<linearGradient id="paint4_linear_1180_19206" x1="40.3863" y1="13.1117" x2="30.6805" y2="68.156" gradientUnits="userSpaceOnUse">
<stop stop-color="#EBF2FF"/>
<stop offset="1" stop-color="#E3ECFF"/>
</linearGradient>
<linearGradient id="paint5_linear_1180_19206" x1="43.7386" y1="67.4691" x2="23.5787" y2="16.783" gradientUnits="userSpaceOnUse">
<stop stop-color="white"/>
<stop offset="1" stop-color="#8EB7FF"/>
</linearGradient>
<linearGradient id="paint6_linear_1180_19206" x1="25.8635" y1="33.7853" x2="48.753" y2="51.1876" gradientUnits="userSpaceOnUse">
<stop stop-color="#7FAEFF"/>
<stop offset="1" stop-color="#517AFF"/>
</linearGradient>
<clipPath id="clip0_1180_19206">
<rect width="78" height="78" fill="white"/>
</clipPath>
</defs>
</svg>
