<svg width="32" height="33" viewBox="0 0 32 33" fill="none" xmlns="http://www.w3.org/2000/svg">
<path d="M28.85 8.18286L16.775 1.23286C16.575 1.10786 16.3 1.05786 16 1.05786C15.7 1.05786 15.425 1.13286 15.225 1.23286L3.225 8.20786C2.8 8.45786 2.5 9.08286 2.5 9.55786V23.4829C2.5 23.7579 2.55 24.0829 2.75 24.3579L29.45 8.85786C29.3 8.55786 29.075 8.33286 28.85 8.18286Z" fill="#659AD3"/>
<path d="M2.67499 24.3328C2.79999 24.5328 2.97499 24.7078 3.14999 24.8078L15.2 31.7828C15.4 31.9078 15.675 31.9578 15.975 31.9578C16.275 31.9578 16.55 31.8828 16.75 31.7828L28.75 24.8078C29.175 24.5578 29.475 23.9328 29.475 23.4578V9.53276C29.475 9.30776 29.45 9.05776 29.325 8.83276L2.67499 24.3328Z" fill="#03599C"/>
<path d="M21.325 19.5328C20.275 21.3828 18.275 22.6328 16 22.6328C12.625 22.6328 9.875 19.8828 9.875 16.5078C9.875 13.1328 12.625 10.3828 16 10.3828C18.275 10.3828 20.275 11.6328 21.325 13.5078L24.575 11.6328C22.875 8.65781 19.675 6.63281 16 6.63281C10.55 6.63281 6.125 11.0578 6.125 16.5078C6.125 21.9578 10.55 26.3828 16 26.3828C19.65 26.3828 22.85 24.3828 24.55 21.4328L21.325 19.5328Z" fill="white"/>
</svg>
