<svg width="32" height="33" viewBox="0 0 32 33" fill="none" xmlns="http://www.w3.org/2000/svg">
<g clip-path="url(#clip0_1715_1690)">
<path d="M18.5066 17.4145C17.9733 17.4145 18.6133 17.6811 19.3066 17.7878C19.4933 17.6545 19.6666 17.4945 19.8266 17.3478C19.3934 17.4431 18.9473 17.4656 18.5066 17.4145ZM21.36 16.7078C21.6666 16.2678 21.8933 15.7878 21.9866 15.2945C21.9066 15.6545 21.72 15.9611 21.5466 16.2678C20.5466 16.8945 21.4533 15.9078 21.5466 15.5211C20.48 16.8678 21.4 16.3211 21.36 16.7078ZM22.4 13.9745C22.4666 13.0145 22.2133 13.3078 22.1333 13.6811C22.2266 13.7345 22.3066 14.3478 22.4 13.9745ZM16.5066 0.921146C16.7733 0.974479 17.1066 1.01448 17.0666 1.08115C17.3733 1.01448 17.44 0.947812 16.4933 0.921146M17.0666 1.08115L16.8666 1.12115L17.0533 1.10781V1.08115M25.8933 14.3345C25.92 15.1878 25.6266 15.6011 25.3866 16.3345L24.92 16.5745C24.5466 17.2945 24.96 17.0411 24.6933 17.6145C24.1066 18.1345 22.9066 19.2411 22.5333 19.3478C22.2666 19.3478 22.72 19.0145 22.7866 18.8945C22 19.4278 22.1466 19.6945 20.96 20.0278L20.92 19.9478C17.96 21.3345 13.8533 18.5878 13.92 14.8278C13.88 15.0545 13.8266 15.0011 13.76 15.0945C13.6788 14.138 13.8904 13.1794 14.3667 12.3459C14.8429 11.5125 15.5614 10.8435 16.4266 10.4278C17.2249 10.0264 18.125 9.87279 19.0112 9.98683C19.8975 10.1009 20.7293 10.4773 21.4 11.0678C20.9737 10.5148 20.4233 10.0698 19.7933 9.76869C19.1633 9.4676 18.4714 9.31886 17.7733 9.33448C16.2 9.34781 14.7333 10.3478 14.24 11.4278C13.44 11.9345 13.3466 13.3878 13 13.6411C12.52 17.1078 13.88 18.6011 16.1733 20.3611C16.5333 20.6145 16.28 20.6411 16.3333 20.8278C15.5541 20.4581 14.8596 19.9316 14.2933 19.2811C14.6 19.7211 14.92 20.1611 15.36 20.4945C14.6266 20.2545 13.6666 18.7611 13.3866 18.6945C14.6266 20.9078 18.4266 22.5878 20.4 21.7611C19.3501 21.8356 18.2957 21.7089 17.2933 21.3878C16.8533 21.1745 16.2666 20.7078 16.36 20.6278C17.6499 21.1703 19.0628 21.3527 20.4482 21.1554C21.8335 20.9582 23.1394 20.3888 24.2266 19.5078C24.8133 19.0411 25.4666 18.2545 25.6533 18.2411C25.3866 18.6678 25.7066 18.4545 25.4933 18.8278C26.08 17.8678 25.2266 18.4278 26.1066 17.1745L26.4266 17.6145C26.3066 16.8145 27.4133 15.8545 27.3066 14.6011C27.56 14.2011 27.5733 15.0011 27.3066 15.8945C27.6933 14.9078 27.4133 14.7611 27.5066 13.9478C27.6133 14.2145 27.7466 14.5078 27.8133 14.7878C27.5733 13.8545 28.08 13.1878 28.1866 12.6545C28.0666 12.5878 27.8133 13.0545 27.76 11.9478C27.76 11.4545 27.8933 11.6811 27.9466 11.5745C27.84 11.5078 27.6 11.1478 27.44 10.4278C27.5466 10.2545 27.7333 10.8678 27.8933 10.8811C27.7866 10.3211 27.6266 9.88115 27.6266 9.44115C27.1733 8.53448 27.4666 9.57448 27.0933 9.04115C26.64 7.58781 27.4933 8.70781 27.5466 8.05448C28.2666 9.08115 28.6666 10.6678 28.8533 11.3345C28.72 10.5345 28.48 9.73448 28.2 8.98781C28.4133 9.08115 27.8533 7.33448 28.48 8.49448C27.6501 5.99751 25.9069 3.90661 23.6 2.64115C23.84 2.86781 24.16 3.16115 24.04 3.20115C23.04 2.60115 23.2133 2.56115 23.0666 2.30781C22.2533 1.97448 22.2 2.33448 21.6533 2.30781C20.1066 1.48115 19.8133 1.57448 18.4 1.04115L18.4666 1.34781C17.44 1.01448 17.2666 1.48115 16.16 1.34781C16.0933 1.29448 16.52 1.16115 16.8666 1.10781C15.88 1.24115 15.9333 0.921146 14.96 1.14781C15.1866 0.974479 15.44 0.867813 15.6933 0.721146C14.8933 0.774479 13.7733 1.18781 14.12 0.814479C12.8 1.41448 10.4666 2.24115 9.15998 3.46781L9.11998 3.17448C8.51998 3.89448 6.50664 5.32115 6.34664 6.25448L6.17331 6.29448C5.86664 6.82781 5.66664 7.42781 5.41331 7.97448C5.01331 8.66781 4.81331 8.24115 4.87998 8.34781C4.07998 9.97448 3.67998 11.3478 3.33331 12.4811C3.57331 12.8411 3.33331 14.6811 3.42664 16.1611C3.02664 23.4411 8.54665 30.5211 14.5733 32.1611C15.4666 32.4678 16.7733 32.4678 17.8933 32.4945C16.5733 32.1211 16.4 32.2945 15.12 31.8411C14.1866 31.4145 13.9866 30.9078 13.3333 30.3345L13.6 30.8011C12.3066 30.3478 12.84 30.2411 11.7866 29.9078L12.0666 29.5478C11.6533 29.5078 10.96 28.8411 10.7733 28.4678L10.32 28.4811C9.77331 27.8145 9.47998 27.3211 9.50664 26.9345L9.35998 27.2011C9.18664 26.9211 7.33331 24.6678 8.29331 25.1878C8.11998 25.0278 7.87998 24.9211 7.62664 24.4545L7.81331 24.2278C7.34664 23.6411 6.95998 22.8678 6.98664 22.6278C7.25331 22.9478 7.41331 23.0278 7.58664 23.0678C6.41331 20.1745 6.34664 22.9078 5.45331 20.1345L5.65331 20.1078C5.51998 19.8945 5.41331 19.6545 5.30664 19.4278L5.38664 18.6278C4.54664 17.6411 5.14664 14.4945 5.26664 12.7611C5.35998 12.0411 5.97331 11.2945 6.43998 10.1211L6.15998 10.0678C6.69331 9.12115 9.27998 6.24115 10.48 6.38781C11.0533 5.65448 10.36 6.38781 10.24 6.20115C11.52 4.88115 11.92 5.26781 12.7733 5.02781C13.7066 4.49448 11.9733 5.24115 12.4133 4.82781C14.0133 4.42781 13.5466 3.89448 15.64 3.69448C15.8533 3.82781 15.12 3.88115 14.9466 4.04115C16.28 3.38781 19.1466 3.54781 21.0266 4.40115C23.2 5.42781 25.64 8.41448 25.7333 11.2411L25.84 11.2678C25.7866 12.4011 26.0133 13.6945 25.6133 14.8811L25.88 14.3211M12.72 18.1478L12.6533 18.5211C13 18.9878 13.28 19.4945 13.72 19.8678C13.4 19.2411 13.16 18.9878 12.72 18.1345M13.5466 18.1078C13.36 17.9078 13.2533 17.6545 13.1333 17.4145C13.24 17.8411 13.48 18.2145 13.7066 18.5878L13.5466 18.1078ZM28.1333 14.9345L28.04 15.1345C27.9066 16.1478 27.5866 17.1478 27.12 18.0811C27.6533 17.1078 27.9866 16.0278 28.12 14.9345M16.6 0.667812C16.96 0.534479 17.48 0.601146 17.8666 0.507812C17.3733 0.547812 16.88 0.574479 16.4 0.641146L16.6 0.667812ZM4.01331 7.36115C4.10664 8.12115 3.43998 8.42781 4.15998 7.92115C4.55998 7.04115 4.01331 7.68115 4.02664 7.36115M3.17331 10.9078C3.33331 10.3878 3.37331 10.0811 3.43998 9.78781C2.97331 10.3745 3.21331 10.4945 3.17331 10.8945" fill="#A80030"/>
</g>
<defs>
<clipPath id="clip0_1715_1690">
<rect width="32" height="32" fill="white" transform="translate(0 0.507812)"/>
</clipPath>
</defs>
</svg>
