<svg width="1493" height="391" viewBox="0 0 1493 391" fill="none" xmlns="http://www.w3.org/2000/svg">
<g clip-path="url(#clip0_3260_2027)">
<path fill-rule="evenodd" clip-rule="evenodd" d="M1345.21 24.7042L1457.47 89.0092C1464.04 92.7733 1469.5 98.2061 1473.3 104.758C1477.1 111.31 1479.1 118.748 1479.1 126.321V268.558C1479.1 275.716 1477.18 282.743 1473.54 288.906C1469.9 295.069 1464.67 300.142 1458.4 303.595L1337.51 370.179C1331.19 373.662 1324.07 375.457 1316.85 375.388C1309.63 375.32 1302.55 373.392 1296.3 369.79L1190.05 308.635C1181.37 303.637 1174.16 296.44 1169.15 287.767C1164.13 279.094 1161.49 269.253 1161.49 259.235V138.71C1161.49 127.639 1164.36 116.757 1169.83 107.127C1175.29 97.4976 1183.16 89.4502 1192.66 83.7712L1290.67 25.2072C1298.9 20.2903 1308.29 17.6522 1317.87 17.5638C1327.46 17.4754 1336.89 19.9399 1345.21 24.7042Z" fill="#EBB951" stroke="#FCD804" stroke-width="27"/>
<path fill-rule="evenodd" clip-rule="evenodd" d="M958.07 22.82L1075.38 89.6C1081.67 93.1818 1086.91 98.3663 1090.55 104.626C1094.18 110.887 1096.1 117.999 1096.1 125.24V264.74C1096.1 272.758 1093.96 280.63 1089.9 287.543C1085.84 294.456 1080 300.158 1073 304.06L955.68 369.4C949.011 373.115 941.489 375.03 933.856 374.958C926.222 374.886 918.738 372.83 912.14 368.99L806.32 307.39C797.853 302.462 790.827 295.399 785.943 286.906C781.06 278.413 778.49 268.787 778.49 258.99V140.07C778.49 128.285 781.552 116.701 787.378 106.456C793.203 96.2113 801.592 87.6562 811.72 81.63L909.78 23.28C917.072 18.9412 925.383 16.6128 933.868 16.532C942.353 16.4512 950.707 18.6209 958.08 22.82H958.07Z" fill="#33BA91" stroke="#00A88A" stroke-width="27"/>
<path fill-rule="evenodd" clip-rule="evenodd" d="M575.26 20.9698L692.49 89.8698C698.466 93.3826 703.427 98.3884 706.886 104.396C710.345 110.404 712.183 117.208 712.22 124.14L712.95 262.81C712.998 271.406 710.737 279.857 706.402 287.28C702.068 294.703 695.819 300.827 688.31 305.01L573.18 369.12C566.359 372.919 558.667 374.878 550.859 374.804C543.052 374.731 535.398 372.627 528.65 368.7L422.82 307.1C414.505 302.26 407.606 295.323 402.81 286.983C398.015 278.643 395.49 269.191 395.49 259.57V136.52C395.489 125.782 398.233 115.222 403.461 105.843C408.689 96.4638 416.227 88.5765 425.36 82.9298L524.66 21.5298C532.245 16.8411 540.966 14.3112 549.882 14.2125C558.799 14.1138 567.573 16.4501 575.26 20.9698Z" fill="#0594CB" stroke="#0083C0" stroke-width="27"/>
<path fill-rule="evenodd" clip-rule="evenodd" d="M195.81 24.1302L310.22 90.6702C316.877 94.5416 322.401 100.092 326.241 106.768C330.08 113.443 332.101 121.009 332.1 128.71V265.14C332.099 273.653 329.834 282.012 325.538 289.361C321.241 296.71 315.068 302.784 307.65 306.96L194.1 370.9C186.693 375.07 178.329 377.241 169.83 377.201C161.33 377.161 152.987 374.91 145.62 370.67L41.05 310.48C32.9773 305.833 26.2718 299.141 21.609 291.078C16.9461 283.015 14.4907 273.865 14.49 264.55V135.08C14.4892 125.701 16.8868 116.478 21.455 108.287C26.0232 100.095 32.6102 93.2084 40.59 88.2802L143.39 24.8202C151.247 19.971 160.273 17.3457 169.505 17.2241C178.736 17.1026 187.828 19.4895 195.81 24.1302Z" fill="#FF4088" stroke="#C9177E" stroke-width="27"/>
<path fill-rule="evenodd" clip-rule="evenodd" d="M1320.72 89.1499C1379.51 89.1499 1427.24 136.88 1427.24 195.66C1427.24 254.46 1379.51 302.18 1320.72 302.18C1261.94 302.18 1214.2 254.45 1214.2 195.66C1214.2 136.88 1261.94 89.1499 1320.72 89.1499ZM1320.72 128.72C1357.67 128.72 1387.66 158.72 1387.66 195.66C1387.65 213.411 1380.6 230.433 1368.04 242.985C1355.49 255.537 1338.47 262.592 1320.72 262.6C1283.77 262.6 1253.78 232.61 1253.78 195.66C1253.79 177.91 1260.84 160.89 1273.39 148.338C1285.94 135.787 1302.96 128.731 1320.71 128.72H1320.72ZM1036.92 194.03C1036.92 241.21 1027.98 254.96 1010.11 274.61C992.24 294.26 968.54 302.18 939.01 302.18C912.01 302.18 890.26 292.6 871.4 275.95C850.52 257.5 835.32 228.91 835.32 197C835.32 165.63 847.04 138.52 867.81 118.33C886.03 100.66 913.15 89.1499 941.11 89.1499C974.88 89.1499 1009.94 105.13 1031.55 136.68L999.82 163.5C986.37 138.47 966.88 130.04 939 129.24C908.17 128.36 874.23 157.77 876.75 196.99C878.15 218.93 888.4 256.64 937.71 263.56C963.61 267.19 993.07 239.54 993.07 224.52H944.4V187.02H1036.9V194L1036.92 194.03ZM474.32 99.3799H516.61V211.55C516.61 229.35 517.1 240.88 518.08 246.16C519.77 254.64 522.89 260.53 529.25 265.66C535.62 270.79 543.05 272.25 554.09 272.25C565.29 272.25 569.05 270.51 574.75 265.65C580.44 260.8 583.87 256.19 585.03 249.12C586.18 242.05 588.1 230.32 588.1 213.94V99.3799H630.38V208.16C630.38 233.02 629.31 250.59 627.17 260.85C625.03 271.12 621.09 279.78 615.35 286.85C609.61 293.91 601.93 299.54 592.32 303.73C582.7 307.92 570.16 310.01 554.67 310.01C535.97 310.01 521.8 307.73 512.15 303.16C502.49 298.59 494.85 292.66 489.25 285.36C483.64 278.06 479.95 270.41 478.17 262.4C475.59 250.54 474.29 233.02 474.29 209.85V99.3799H474.32ZM93.91 299.92V92.6999H137.26V168.18H209.18V92.6999H252.66V299.92H209.18V209.31H137.26V299.92H93.91Z" fill="white"/>
</g>
<defs>
<clipPath id="clip0_3260_2027">
<rect width="1493" height="391" fill="white"/>
</clipPath>
</defs>
</svg>