<svg width="48" height="48" viewBox="0 0 48 48" fill="none" xmlns="http://www.w3.org/2000/svg">
<path fill-rule="evenodd" clip-rule="evenodd" d="M30.1737 8.42169C28.4435 6.69143 25.6381 6.69137 23.9078 8.42173L7.19827 25.1312C6.62149 25.708 5.68636 25.708 5.10958 25.1312C4.53281 24.5544 4.53281 23.6193 5.10958 23.0425L21.8191 6.33304C24.7029 3.44921 29.3786 3.44913 32.2624 6.33301C33.9706 8.04113 34.667 10.3779 34.3517 12.5986C36.5724 12.2832 38.9091 12.9796 40.6173 14.6877L40.6181 14.6885L40.7042 14.7748L40.7045 14.775C43.5882 17.6589 43.5881 22.3344 40.7042 25.2182L25.5921 40.3305C25.3999 40.5227 25.3998 40.8343 25.592 41.0265L28.6952 44.1298C29.2719 44.7066 29.2719 45.6418 28.6951 46.2185C28.1183 46.7953 27.1832 46.7953 26.6064 46.2185L23.5034 43.1153C22.1576 41.7695 22.1576 39.5876 23.5034 38.2418L38.6156 23.1295C40.3459 21.3992 40.346 18.5938 38.6156 16.8635L38.6148 16.8627L38.5287 16.7765L38.5284 16.7762C36.798 15.0461 33.9928 15.0462 32.2624 16.7765L19.8174 29.2216L19.8097 29.2293L19.6433 29.3956C19.0666 29.9724 18.1314 29.9724 17.5547 29.3956C16.9779 28.8188 16.9779 27.8837 17.5546 27.3069L30.1737 14.6878C31.9041 12.9575 31.9041 10.152 30.1737 8.42169ZM28.0852 12.5991C28.6619 12.0223 28.6619 11.0872 28.0852 10.5104C27.5084 9.93362 26.5733 9.93362 25.9965 10.5104L13.6384 22.8684C10.7545 25.7523 10.7546 30.4279 13.6383 33.3119C16.5222 36.1956 21.1979 36.1956 24.0818 33.3119L36.4399 20.9538C37.0166 20.377 37.0166 19.4419 36.4399 18.8651C35.8631 18.2883 34.928 18.2884 34.3512 18.8651L21.9932 31.2232C20.2628 32.9534 17.4574 32.9534 15.7271 31.2233C13.9967 29.4928 13.9968 26.6874 15.7271 24.9571L28.0852 12.5991Z" fill="black"/>
</svg>
