<svg t="1730789771065" class="icon" viewBox="0 0 1024 1024" version="1.1" xmlns="http://www.w3.org/2000/svg" p-id="4301" width="200" height="200"><path d="M512 0L68.48 256v512L512 1024l443.52-256V256L512 0z m256 707.84c0 30.08-27.563 55.04-65.237 55.04-26.923 0-57.643-10.88-76.843-34.56l-256-304.683v284.16c0 30.763-24.32 55.04-54.357 55.04h-3.243c-30.763 0-55.04-25.6-55.04-55.04V316.16c0-30.08 26.88-55.04 64-55.04 27.563 0 58.88 10.88 78.08 34.56l254.72 304.683V316.16c0-30.763 25.6-55.04 55.04-55.04h3.2c30.72 0 55.04 25.6 55.04 55.04v391.68h0.64z" fill="#0E932E" p-id="4302"></path></svg>