<svg xmlns="http://www.w3.org/2000/svg" width="49" height="48" fill="none" viewBox="0 0 49 48"><path fill="url(#paint0_linear_2859_2749)" d="M25.8472 3.76723C25.553 3.59869 25.2198 3.51001 24.8808 3.51001C24.5417 3.51001 24.2086 3.59869 23.9144 3.76723L7.95879 13.0341C7.35189 13.3774 7.0108 14.0253 7.0108 14.7123V33.2838C7.0108 33.9701 7.38968 34.6183 7.95815 34.962L23.9137 44.2285C24.208 44.3971 24.5412 44.4858 24.8803 44.4858C25.2194 44.4858 25.5526 44.3971 25.8469 44.2285L41.8025 34.9617C42.409 34.6183 42.7498 33.9701 42.7498 33.2835V14.7123C42.7498 14.0256 42.3709 13.3777 41.8025 13.0341L25.8472 3.76723Z"/><path fill="url(#paint1_linear_2859_2749)" d="M41.8409 13.0341L25.8097 3.76725C25.6524 3.68691 25.4873 3.62305 25.3168 3.57669L7.35254 34.504C7.50136 34.6865 7.68096 34.8415 7.88322 34.962L23.9147 44.2285C24.3695 44.4953 24.8998 44.5719 25.3927 44.4191L42.2579 13.3774C42.1472 13.2324 42.0045 13.1149 41.8409 13.0341Z"/><path fill="url(#paint2_linear_2859_2749)" d="M41.8412 34.9611C42.296 34.6943 42.6371 34.2366 42.7885 33.7408L25.2412 3.53763C24.7865 3.46141 24.2936 3.49952 23.8769 3.76662L7.95911 12.9954L25.1272 44.495C25.3546 44.4566 25.6204 44.3804 25.8478 44.266L41.8412 34.9611Z"/><defs><linearGradient id="paint0_linear_2859_2749" x1="31.378" x2="16.807" y1="10.668" y2="40.209" gradientUnits="userSpaceOnUse"><stop stop-color="#3F873F"/><stop offset=".33" stop-color="#3F8B3D"/><stop offset=".637" stop-color="#3E9638"/><stop offset=".934" stop-color="#3DA92E"/><stop offset="1" stop-color="#3DAE2B"/></linearGradient><linearGradient id="paint1_linear_2859_2749" x1="22.456" x2="63.113" y1="26.167" y2="-3.687" gradientUnits="userSpaceOnUse"><stop offset=".138" stop-color="#3F873F"/><stop offset=".402" stop-color="#52A044"/><stop offset=".713" stop-color="#64B749"/><stop offset=".908" stop-color="#6ABF4B"/></linearGradient><linearGradient id="paint2_linear_2859_2749" x1="6.427" x2="43.347" y1="23.992" y2="23.992" gradientUnits="userSpaceOnUse"><stop offset=".092" stop-color="#6ABF4B"/><stop offset=".287" stop-color="#64B749"/><stop offset=".598" stop-color="#52A044"/><stop offset=".862" stop-color="#3F873F"/></linearGradient></defs></svg>