<?xml version="1.0" encoding="UTF-8"?>
<svg width="139px" height="32px" viewBox="0 0 139 32" version="1.1" xmlns="http://www.w3.org/2000/svg" xmlns:xlink="http://www.w3.org/1999/xlink">
    <defs>
        <polygon id="path-1" points="0 0 29.4999793 0 29.4999793 32 0 32"></polygon>
    </defs>
    <g id="页面-1" stroke="none" stroke-width="1" fill="none" fill-rule="evenodd">
        <g id="logo-light版本" transform="translate(-252.000000, -24.000000)">
            <g id="编组" transform="translate(252.000000, 24.000000)">
                <path d="M58.5998847,20.1674504 C56.7897904,20.1674504 55.3219103,18.7649172 55.3219103,17.0348429 C55.3219103,15.3047685 56.7897904,13.9022353 58.5998847,13.9022353 C60.4101271,13.9022353 61.8778592,15.3047685 61.8778592,17.0348429 C61.8778592,18.7649172 60.4101271,20.1674504 58.5998847,20.1674504 M58.5998847,11.2228301 C57.2399087,11.2228301 55.9884288,11.654782 54.9755515,12.3755991 L54.9755515,11.4044511 C54.9755515,11.3041487 54.890294,11.2228301 54.7853503,11.2228301 L52.4375118,11.2228301 C52.3327161,11.2228301 52.2476065,11.3041487 52.2476065,11.4044511 L52.2476065,26.3808143 C52.2476065,26.4812584 52.3327161,26.562577 52.4375118,26.562577 L54.7853503,26.562577 C54.890294,26.562577 54.9755515,26.4812584 54.9755515,26.3808143 L54.9755515,21.6939449 C55.9884288,22.4149037 57.2399087,22.8467139 58.5998847,22.8467139 C61.9588243,22.8467139 64.6814407,20.2445189 64.6814407,17.0348429 C64.6814407,13.8247418 61.9588243,11.2228301 58.5998847,11.2228301" id="Fill-1" fill="#000000"></path>
                <path d="M70.0107469,14.8778601 C70.620279,14.3057965 71.3836004,14.0196231 72.3004149,14.0196231 C73.2388398,14.0196231 74.0088219,14.3023964 74.6116933,14.8678015 C74.8264653,15.0693979 74.9786263,15.2588108 75.1142095,15.5050333 C75.1296032,15.5330839 75.1669034,15.5969771 75.1766724,15.6272945 C75.2043515,15.7125799 75.136856,15.7125799 75.136856,15.7125799 L69.4848441,15.7125799 C69.4848441,15.7125799 69.4029909,15.7125799 69.4422153,15.6353697 C69.4814397,15.5583012 69.5252526,15.4834994 69.5717298,15.410256 C69.6926593,15.2194265 69.8366794,15.0407806 70.0107469,14.8778601 M74.6592066,19.2245797 C74.6387803,19.2473886 74.6187981,19.2709058 74.5958555,19.2924397 C73.9823269,19.8674783 73.213825,20.1549268 72.2897577,20.1549268 C71.3656904,20.1549268 70.602369,19.8710201 70.0002377,19.3020733 C69.7323278,19.0493339 69.528509,18.7594771 69.3830087,18.4359027 C69.3190656,18.293666 69.2656316,18.1450542 69.224335,17.9900672 C69.2161941,17.9598914 69.2203385,17.9382159 69.2298116,17.9227739 C69.2401727,17.9057735 69.2619312,17.885798 69.2887222,17.885373 C69.3066322,17.8852313 69.3910016,17.885373 69.3910016,17.885373 L71.6796335,17.885373 L75.4097985,17.885373 C76.0718765,17.8852313 77.4994961,17.8852313 78.1614261,17.885373 C78.1645345,17.885373 78.3329773,17.8882064 78.3510353,17.7473864 C78.3510353,17.7473864 78.3908518,17.4147452 78.3909999,17.0770039 C78.3911478,16.2675013 78.1729714,15.5160835 78.1728234,15.5160835 C78.0378323,15.0516892 77.8403782,14.6035869 77.5803132,14.17206 C77.0402008,13.2751471 76.2881287,12.5650969 75.324689,12.0413429 C74.3606572,11.5184388 73.3313501,11.2566326 72.2367678,11.2566326 C70.7222624,11.2566326 69.3816766,11.7595612 68.2156022,12.765135 C66.8855255,13.9201707 66.2209312,15.3646383 66.2209312,17.097546 C66.2209312,18.7145677 66.8091489,20.0891919 67.9858805,21.2205687 C69.1627601,22.3519455 70.5832749,22.9179173 72.2471289,22.9179173 C73.3775313,22.9179173 74.4129071,22.6610695 75.351332,22.1480824 C76.1609825,21.7055052 76.8146236,21.106241 77.3301652,20.3675735 C77.3406744,20.3526981 77.346151,20.3174223 77.3088508,20.3002802 C77.0365004,20.1753273 76.7579332,20.0625579 76.4821784,19.9439801 C76.0378327,19.7528673 75.592895,19.5623211 75.1476612,19.3723416 C74.9028418,19.2677891 74.8608051,19.2500804 74.8168442,19.2312382 C74.770071,19.2109794 74.7101243,19.1681951 74.6592066,19.2245797" id="Fill-3" fill="#000000"></path>
                <path d="M85.1908356,11.2639003 C82.3897705,11.2639003 80.1191966,13.43386 80.1191966,16.1107151 L80.1191966,19.1540706 L80.1191966,21.3534977 L80.1191966,22.6667788 C80.1191966,22.7750147 80.2109669,22.8627085 80.3241995,22.8627085 L82.8456614,22.8627085 C82.9590421,22.8627085 83.0508124,22.7750147 83.0508124,22.6667788 L83.0508124,21.3534977 L83.0508124,20.5002191 L83.0508124,19.1540706 L83.0508124,16.1107151 C83.0508124,14.9810384 84.0089235,14.065425 85.1908356,14.065425 C86.3725998,14.065425 87.3308589,14.9810384 87.3308589,16.1107151 L87.3308589,19.1540706 L87.3308589,20.5002191 L87.3308589,21.3534977 L87.3308589,22.6667788 C87.3308589,22.7750147 87.4226292,22.8627085 87.5358618,22.8627085 L90.0573237,22.8627085 C90.1707044,22.8627085 90.2624747,22.7750147 90.2624747,22.6667788 L90.2624747,21.3534977 L90.2624747,19.1540706 L90.2624747,16.1107151 C90.2624747,13.43386 87.9917528,11.2639003 85.1908356,11.2639003" id="Fill-5" fill="#000000"></path>
                <path d="M101.756256,10.6229851 C101.869488,10.6229851 101.961259,10.5351497 101.961259,10.4270554 L101.961259,8.01384824 C101.961259,7.90561235 101.869488,7.8179186 101.756256,7.8179186 L94.782752,7.8179186 L92.1097212,7.8179186 C91.9964885,7.8179186 91.9047183,7.90561235 91.9047183,8.01384824 L91.9047183,10.4270554 L91.9047183,13.5202787 L91.9047183,15.9333443 L91.9047183,20.269722 L91.9047183,22.6829292 C91.9047183,22.7911651 91.9964885,22.8788588 92.1097212,22.8788588 L94.782752,22.8788588 L101.756256,22.8788588 C101.869488,22.8788588 101.961259,22.7911651 101.961259,22.6829292 L101.961259,20.269722 C101.961259,20.1614861 101.869488,20.0737924 101.756256,20.0737924 L94.9877549,20.0737924 L94.9877549,16.1294156 L101.409009,16.1294156 C101.52239,16.1294156 101.61416,16.0415802 101.61416,15.9333443 L101.61416,13.5202787 C101.61416,13.4120428 101.52239,13.3243491 101.409009,13.3243491 L94.9877549,13.3243491 L94.9877549,10.6229851 L101.756256,10.6229851 Z" id="Fill-7" fill="#000000"></path>
                <path d="M108.140476,22.8333828 C105.339559,22.8333828 103.068837,20.663423 103.068837,17.9865679 L103.068837,14.9432125 L103.068837,12.7436437 L103.068837,11.4303625 C103.068837,11.3222683 103.160607,11.2344329 103.273988,11.2344329 L105.79545,11.2344329 C105.908682,11.2344329 106.000453,11.3222683 106.000453,11.4303625 L106.000453,12.7436437 L106.000453,13.5970639 L106.000453,14.9432125 L106.000453,17.9865679 C106.000453,19.116103 106.958712,20.0317164 108.140476,20.0317164 C109.322388,20.0317164 110.280499,19.116103 110.280499,17.9865679 L110.280499,14.9432125 L110.280499,13.5970639 L110.280499,12.7436437 L110.280499,11.4303625 C110.280499,11.3222683 110.372269,11.2344329 110.48565,11.2344329 L113.007112,11.2344329 C113.120345,11.2344329 113.212115,11.3222683 113.212115,11.4303625 L113.212115,12.7436437 L113.212115,14.9432125 L113.212115,17.9865679 C113.212115,20.663423 110.941541,22.8333828 108.140476,22.8333828" id="Fill-9" fill="#000000"></path>
                <path d="M117.611374,22.8121464 L114.834731,22.8121464 C114.793879,22.8121464 114.760723,22.7804123 114.760723,22.7413114 L114.760723,7.88876778 C114.760723,7.84966685 114.793879,7.81793277 114.834731,7.81793277 L117.611374,7.81793277 C117.652226,7.81793277 117.685382,7.84966685 117.685382,7.88876778 L117.685382,22.7413114 C117.685382,22.7804123 117.652226,22.8121464 117.611374,22.8121464" id="Fill-11" fill="#000000"></path>
                <path d="M138.180908,11.7228686 C137.230346,11.9039229 136.413294,12.3260996 135.791033,12.8975965 L135.791033,11.4259283 C135.791033,11.3176924 135.699263,11.2299986 135.586178,11.2299986 L133.232123,11.2299986 C133.119186,11.2299986 133.027268,11.3176924 133.027268,11.4259283 L133.027268,22.6899702 C133.027268,22.7982061 133.119186,22.8858998 133.232123,22.8858998 L135.586178,22.8858998 C135.699263,22.8858998 135.791033,22.7982061 135.791033,22.6899702 L135.791033,16.8290813 C135.844319,16.2506426 136.016758,15.8376745 136.43002,15.4190396 C137.017054,14.7453986 137.833513,14.3389473 138.826704,14.1498178 C138.870961,14.1414593 138.915958,14.1367842 138.915958,14.1367842 C138.960955,14.1329591 138.999143,14.1078835 138.999143,14.0547572 C138.995295,12.6119897 138.998107,12.0869606 138.998995,12.0573516 C139.001068,11.9865166 138.999291,11.7453942 138.999291,11.6873095 C138.999291,11.652742 138.991595,11.6341832 138.935644,11.637725 C138.935644,11.637725 138.544437,11.653592 138.180908,11.7228686" id="Fill-13" fill="#000000"></path>
                <path d="M123.013682,14.825428 C123.623214,14.2533644 124.386535,13.9670493 125.30335,13.9670493 C126.241923,13.9670493 127.011905,14.2499644 127.614628,14.8153694 C127.829548,15.0169659 127.981561,15.2063787 128.117144,15.4524595 C128.132686,15.4806519 128.169838,15.544545 128.179607,15.5748624 C128.207435,15.6601478 128.139791,15.6601478 128.139791,15.6601478 L122.487927,15.6601478 C122.487927,15.6601478 122.405926,15.6601478 122.44515,15.5829376 C122.484523,15.5058691 122.528188,15.4310674 122.574665,15.3578239 C122.695742,15.1669944 122.839762,14.9883485 123.013682,14.825428 M127.66229,19.172006 C127.641715,19.1949565 127.621733,19.2183321 127.59879,19.2400076 C126.98541,19.8150462 126.216908,20.1024947 125.292693,20.1024947 C124.368625,20.1024947 123.605304,19.818588 123.003173,19.2496412 C122.735263,18.9969019 122.531592,18.707045 122.386092,18.3834706 C122.322001,18.2412339 122.268715,18.0926221 122.22727,17.9374934 C122.219129,17.9074594 122.223422,17.8857839 122.232895,17.8703418 C122.243108,17.8533414 122.264866,17.8333659 122.291657,17.8329409 C122.309715,17.8327993 122.393937,17.8329409 122.393937,17.8329409 L124.682568,17.8329409 L128.412882,17.8329409 C129.074812,17.8327993 130.502431,17.8327993 131.164361,17.8329409 C131.167617,17.8329409 131.33606,17.8357743 131.35397,17.6949543 C131.35397,17.6949543 131.393935,17.3623131 131.393935,17.0245718 C131.394231,16.2150693 131.175906,15.4636515 131.175906,15.4636515 C131.040767,14.9992571 130.843313,14.5511548 130.583248,14.1196279 C130.043136,13.2225733 129.291064,12.5125232 128.327624,11.9889108 C127.36374,11.4660067 126.334433,11.2040588 125.239703,11.2040588 C123.725197,11.2040588 122.384612,11.7071291 121.218537,12.7125613 C119.88846,13.8677386 119.223866,15.3122062 119.223866,17.0451139 C119.223866,18.6621356 119.812084,20.0366182 120.988815,21.1681366 C122.165695,22.2993718 123.58621,22.8654852 125.250064,22.8654852 C126.380614,22.8654852 127.415842,22.6086374 128.354415,22.0956503 C129.163917,21.6530731 129.817707,21.0538089 130.333248,20.3151414 C130.343609,20.3002661 130.349234,20.2649902 130.311934,20.2478482 C130.039435,20.1228952 129.760868,20.0101259 129.485261,19.8915481 C129.040768,19.7004352 128.595978,19.509889 128.150744,19.3199095 C127.905777,19.215357 127.863888,19.1976483 127.819927,19.1788062 C127.773006,19.1585474 127.713059,19.115763 127.66229,19.172006" id="Fill-15" fill="#000000"></path>
                <path d="M47.1898959,17.0159157 C47.1898959,17.2033452 47.0852482,17.376466 46.9154732,17.4702515 L43.828144,19.1736919 C43.6585171,19.2674774 43.4490737,19.2674774 43.2791507,19.1736919 L40.1919695,17.4702515 C40.0217505,17.376466 39.9175468,17.2033452 39.9175468,17.0159157 L39.9175468,13.609035 C39.9175468,13.4216056 40.0217505,13.2484848 40.1919695,13.1544159 L43.2791507,11.4511172 C43.4490737,11.3574733 43.6585171,11.3574733 43.828144,11.4511172 L46.9154732,13.1544159 C47.0852482,13.2484848 47.1898959,13.4216056 47.1898959,13.609035 L47.1898959,17.0159157 Z M49.8682553,11.1095508 L44.2051422,7.98487672 C43.8017971,7.76231312 43.3053496,7.76231312 42.9021525,7.98487672 L37.2391874,11.1095508 C36.8359903,11.3319727 36.5876185,11.7429575 36.5876185,12.1876597 L36.5876185,18.4370078 C36.5876185,18.8819933 36.8362863,19.292978 37.2391874,19.5154 L42.9021525,22.6402157 C43.3053496,22.8623543 43.8017971,22.8623543 44.2051422,22.6402157 L49.8682553,19.5154 C50.2711564,19.292978 50.5195281,18.8819933 50.5195281,18.4370078 L50.5195281,12.1876597 C50.5195281,11.7429575 50.2711564,11.3319727 49.8682553,11.1095508 L49.8682553,11.1095508 Z" id="Fill-17" fill="#000000"></path>
                <g>
                    <mask id="mask-2" fill="white">
                        <use xlink:href="#path-1"></use>
                    </mask>
                    <g id="Clip-20"></g>
                    <path d="M26.4617917,12.4766665 C25.811555,13.2647768 24.139708,13.5845261 22.8114075,13.1787831 C21.5440899,12.7914573 21.1355642,11.9029029 21.8220649,11.202628 C22.4836989,10.5282787 23.9637164,10.2371468 25.1972863,10.541879 C26.4859184,10.8600699 27.0858294,11.7202902 26.4617917,12.4766665 M20.6013725,10.8674367 C19.9076189,11.5451861 18.4191645,11.836743 17.3441203,11.5082102 C16.7459854,11.3254559 16.4160565,10.9446469 16.3984426,10.6265977 C16.384825,10.3816502 15.9987979,10.1571032 15.5736944,10.035692 C15.1457785,9.91314742 14.6512552,9.92462269 14.1553998,9.98242406 C14.0291417,9.99729942 13.763896,10.0521257 13.593973,10.1063853 C13.1380821,10.2517388 12.7428779,10.4157927 12.4139851,10.6774572 C12.0047193,11.0031566 11.8685441,11.5814536 11.8778692,11.796367 C11.8913387,12.0975575 12.1818952,12.3552553 12.6237245,12.5143507 C13.0581531,12.6706128 13.5985615,12.6990884 14.1367497,12.6176282 C14.7943872,12.4486158 15.5143397,12.4415323 16.1047777,12.6404371 C17.1860386,13.0046707 17.4592772,13.9367178 16.6410417,14.7357367 C15.7892065,15.5681898 14.1496271,15.8807138 13.0602253,15.4222696 C12.4564658,15.1682553 12.2439141,14.703861 12.2117945,14.2747424 C12.1864837,13.9398345 11.8725406,13.6715115 11.4456608,13.5040575 C11.0164128,13.3356119 10.5144887,13.341562 9.95320998,13.3876048 C9.87934972,13.3936966 9.54572042,13.4578731 9.3398294,13.509866 C9.05859796,13.580701 8.48088937,13.7359713 7.99554311,14.1929988 C7.61218025,14.5542574 7.44122114,14.8951155 7.34323418,15.1003953 C7.28728393,15.2181231 7.21890028,15.4850295 7.21593995,15.5764066 C7.20335854,15.9535322 7.42701155,16.294957 7.86336433,16.5141205 C8.29320439,16.7300256 8.86069984,16.7876853 9.4480295,16.7055167 C10.1786392,16.5163872 10.9453649,16.5360794 11.5383192,16.8129026 C12.628017,17.321923 12.7553113,18.5316433 11.7319248,19.531267 C10.6607291,20.5776418 8.83612909,20.9133998 7.7566444,20.2683762 C7.16517027,19.9150511 6.99347108,19.3822302 7.07695241,18.7614321 C7.07695241,18.7602987 7.07621233,18.7591654 7.07621233,18.7578904 C7.07621233,18.7546319 7.07428811,18.6094202 7.05415786,18.5316433 C7.05415786,18.5315017 7.03817208,18.4085321 6.95646694,18.2508533 C6.84678668,18.0394817 6.66502236,17.8639525 6.4185748,17.7279493 C5.99805979,17.4954688 5.44240567,17.4355424 4.86232881,17.518561 C4.13571558,17.7066988 3.42464408,17.6799231 2.9579479,17.4011165 C2.16221094,16.9253886 2.39992551,15.915848 3.42168375,15.1533799 C3.94891869,14.7598206 4.59131051,14.5014145 5.19699423,14.4005454 L5.19951051,14.398562 C5.77692307,14.2869261 6.37150554,14.0365951 6.83686957,13.6795867 C7.29379666,13.3288117 7.53195528,12.9471527 7.5526776,12.6167782 L7.55460181,12.6153615 C7.55682206,12.6079946 7.56200264,12.4375656 7.53003107,12.257078 C7.50960478,11.9718962 7.52455445,11.6899729 7.79542474,11.3822656 C7.9686041,11.1860526 8.34412208,10.9953647 8.75516404,10.921413 C9.0365435,10.8706951 9.39903602,10.8821704 9.60389093,10.8716868 C9.78136277,10.8626199 10.0911614,10.8280524 10.2002496,10.7967434 C10.6145479,10.6780239 10.8615875,10.5452791 11.1687219,10.3096818 C11.4823689,10.0689844 11.6768627,9.81638679 11.7109065,9.58617301 C11.7181593,9.53743852 11.7351812,9.31204151 11.7300006,9.28498253 C11.6253529,8.7449364 12.4114688,8.15233069 13.486217,7.96121783 C14.0307699,7.86459887 14.5442393,7.88981614 14.9326347,8.00811061 C14.9459562,8.01108568 14.9601658,8.01349407 14.9734873,8.01661081 C15.3667672,8.11365478 15.6167672,8.2945674 15.7117938,8.51599764 L15.7159383,8.517131 C15.7165303,8.52265614 15.7177145,8.52789793 15.7184545,8.53342306 C15.7338483,8.573374 15.7453936,8.61417497 15.7505741,8.65653431 C15.8438246,8.8938316 16.1141028,9.09741142 16.5528238,9.21301416 C16.9837,9.32649185 17.4968734,9.33456704 17.9934689,9.25509016 C18.5917518,9.1022282 19.2680394,9.07743595 19.8476722,9.22052267 C20.9055465,9.4817622 21.2702592,10.2139129 20.6013725,10.8674367 M18.0901237,22.8809131 C17.0306212,24.1722353 14.9144287,24.5452525 13.4976142,23.6987741 C12.1635411,22.9014552 12.0457199,21.3590937 13.1180998,20.261576 C14.1408942,19.2143512 15.9586854,18.8776015 17.2823974,19.4959912 C18.6813018,20.1492317 19.0958961,21.655184 18.0901237,22.8809131 M28.4816255,7.28644351 L15.7684841,0.261168689 C15.1382297,-0.0870562297 14.3618829,-0.0870562297 13.7317764,0.261168689 L1.01833905,7.28644351 C0.388084588,7.63466843 -1.4801655e-05,8.27827534 -1.4801655e-05,8.97458351 L-1.4801655e-05,23.0252748 C-1.4801655e-05,23.7218663 0.388084588,24.3651899 1.01833905,24.7135565 L13.7317764,31.738973 C14.3618829,32.0870562 15.1382297,32.0870562 15.7684841,31.738973 L28.4816255,24.7135565 C29.1118799,24.3651899 29.4999852,23.7218663 29.4999852,23.0252748 L29.4999852,8.97458351 C29.4999852,8.27827534 29.1118799,7.63466843 28.4816255,7.28644351" id="Fill-19" fill="#002FA7" mask="url(#mask-2)"></path>
                </g>
            </g>
        </g>
    </g>
</svg>