<svg width="49" height="48" viewBox="0 0 49 48" fill="none" xmlns="http://www.w3.org/2000/svg">
<g clip-path="url(#clip0_2863_3000)">
<path d="M24.8999 11C11.4419 11 0.899902 16.71 0.899902 24C0.899902 31.29 11.4419 37 24.8999 37C38.3579 37 48.8999 31.29 48.8999 24C48.8999 16.71 38.3579 11 24.8999 11ZM22.4079 15H25.0279L24.1959 19H26.5359C28.0199 19 29.0159 19.208 29.5839 19.726C30.1379 20.238 30.3059 21.078 30.0839 22.222L29.0439 27H26.3799L27.3379 22.582C27.4539 21.976 27.4079 21.554 27.2039 21.332C27.0019 21.11 26.5559 21 25.8879 21H23.7899L22.5239 27H19.8999L22.4079 15ZM10.8999 19H16.2319C18.7739 19 20.3139 20.704 19.7119 23.246C19.0119 26.2 17.1399 27 13.6919 27H12.0439L11.5219 30H8.8719L10.8999 19ZM31.8999 19H37.2319C39.7739 19 41.3139 20.704 40.7119 23.246C40.0119 26.2 38.1379 27 34.6919 27H33.0439L32.5219 30H29.8719L31.8999 19ZM13.1699 21L12.4159 25H14.1259C15.6059 25 16.9819 24.832 17.2119 22.626C17.2979 21.77 16.9419 21 15.2319 21H13.1699ZM34.1699 21L33.4159 25H35.1259C36.6059 25 37.9819 24.832 38.2119 22.626C38.2979 21.77 37.9439 21 36.2319 21H34.1699Z" fill="#4F63C0"/>
</g>
<defs>
<clipPath id="clip0_2863_3000">
<rect width="48" height="48" fill="white" transform="translate(0.899902)"/>
</clipPath>
</defs>
</svg>
