<svg t="1733820285222" class="icon" viewBox="0 0 1024 1024" version="1.1" xmlns="http://www.w3.org/2000/svg" p-id="2470" width="200" height="200"><path d="M512.221422 0L211.290644 300.930778a420.902893 420.902893 0 0 0-0.032 598.233584l0.032 0.031999a420.902893 420.902893 0 0 0 598.233583 0.032l0.032-0.032c169.937745-166.405771 170.033745-435.390786 3.599973-598.295582l-74.389451 74.357451c123.925085 123.928085 123.925085 325.683596-0.004 449.61168-123.899085 123.899085-325.684596 123.899085-449.61368 0-123.902085-123.928085-123.902085-325.716595-0.003-449.61368l198.289536-198.255537 24.817817-28.38179z m152.214876 166.373772a56.644582 56.644582 0 0 0-56.635582 56.635582 56.644582 56.644582 0 0 0 56.635582 56.635581 56.644582 56.644582 0 0 0 56.635582-56.635581 56.644582 56.644582 0 0 0-56.635582-56.635582z" fill="#EE4C2C" p-id="2471"></path></svg>