<?xml version="1.0" standalone="no"?><!DOCTYPE svg PUBLIC "-//W3C//DTD SVG 1.1//EN" "http://www.w3.org/Graphics/SVG/1.1/DTD/svg11.dtd"><svg t="1730693679485" class="icon" viewBox="0 0 6808 1024" version="1.1" xmlns="http://www.w3.org/2000/svg" p-id="4268" xmlns:xlink="http://www.w3.org/1999/xlink" width="1329.6875" height="200"><path d="M1816.349922 101.229714c103.862857 0 184.945039 32.768 243.273143 98.290702 58.328104 65.536 87.478857 155.993766 87.478857 271.399896 0 92.000416-18.618182 168.494545-55.881143 229.469091a278.700883 278.700883 0 0 1-157.762493 123.810909l172.085195 177.910026h-122.055481l-140.926338-162.177663-27.222441 1.010702c-106.549195 0-188.72187-32.35574-246.518026-97.08052-57.782857-64.711481-86.707532-156.033662-86.787325-273.953247 0-116.962078 29.017766-207.619325 87.053299-271.985039 58.048831-64.365714 140.460883-96.588468 247.262753-96.694857zM6790.662649 140.966234l-26.158545 72.717298c-59.751065-24.868571-117.786597-37.289558-174.119896-37.289558-44.497455 0-79.273558 9.495273-104.315013 28.499117-25.041455 19.003844-37.58213 45.375169-37.608727 79.127273 0 24.855273 4.614649 45.242182 13.843948 61.160727 9.242597 15.905247 24.815377 30.480623 46.731636 43.739428 21.942857 13.245506 55.495481 27.913974 100.644571 44.005403 75.869091 26.850078 128.039896 55.668364 156.525715 86.468156 28.485818 30.799792 42.728727 70.96187 42.728727 120.512831 0 63.222026-23.086545 112.520312-69.259636 147.908156-46.173091 35.374545-108.836571 53.128312-187.963845 53.274597-85.71013 0-151.645091-10.971429-197.818181-32.927584v-80.776312a521.176104 521.176104 0 0 0 96.947532 29.469922c34.177662 7.101506 68.967065 10.665558 103.862857 10.65226 56.040727 0 98.237506-10.65226 126.577039-31.970078 28.339532-21.304519 42.555844-50.694649 42.622338-88.170389 0-24.868571-5.026909-45.255481-15.080727-61.174026-10.053818-15.905247-26.850078-30.573714-50.402078-43.992104-23.618494-13.431688-59.471792-28.672-107.559896-45.720935-67.27813-23.85787-115.339636-52.277195-144.171221-85.244676-28.844883-32.954182-43.260675-75.709506-43.260676-128.239376 0-55.322597 20.932156-99.394494 62.809767-132.189091 41.87761-32.768 97.253403-49.138701 166.127376-49.112104a493.089247 493.089247 0 0 1 198.283637 39.271065z m-4284.043636-28.299637v468.845715c0 59.963844 16.49039 105.977351 49.444571 138.040519 32.967481 32.076468 81.427948 48.061506 145.394702 47.955117 60.961247 0 107.93226-16.118026 140.926337-48.380675 32.994078-32.249351 49.471169-78.382545 49.444572-138.412883V112.679896h84.074389v464.856104c0 81.866805-24.868571 146.245818-74.605714 193.137039-49.710545 46.877922-118.198857 70.296935-205.425039 70.270338-87.053299 0-154.397922-23.605195-202.03387-70.815585-47.635948-47.21039-71.387429-112.108052-71.281039-194.719584V112.679896h84.07439z m3112.082286 0v468.845715c0 59.963844 16.49039 105.977351 49.444571 138.040519 32.967481 32.076468 81.427948 48.061506 145.394701 47.955117 60.987844 0 107.985455-16.118026 140.966234-48.380675 33.007377-32.249351 49.484468-78.528831 49.444572-138.838442V112.679896h84.074389v464.856104c0 81.866805-24.868571 146.245818-74.579117 193.137039-49.737143 46.877922-118.145662 70.296935-205.238857 70.270338-87.013403 0-154.358026-23.605195-202.020571-70.815585-47.675844-47.21039-71.520416-112.108052-71.547013-194.719584V112.679896h84.061091z m-2072.735585-2.925714l284.352831 721.388052h-87.000103l-90.032208-228.564779h-289.778702l-89.034805 228.564779h-85.244675l286.055065-721.388052h70.695896z m703.647585 2.925714c88.795429 0 154.31813 16.876052 196.554805 50.614858 42.223377 33.738805 63.408208 84.513247 63.554493 152.323324 0 94.979325-48.473766 159.185455-145.394701 192.658286l196.275533 322.86587h-99.367897L4286.171429 532.413506l-150.780676-0.053194v298.781922h-84.127584V112.679896h198.35013z m1060.664519-0.106389l-290.789402 312.160415 301.654441 406.408312h-98.942338l-263.553662-348.439273-75.66961 66.812676v281.626597h-84.061091V112.679896h84.074389v356.165818l327.866182-356.272208h99.421091zM1816.336623 176.088104c-80.124675 0-141.032727 25.134545-182.737454 75.443532-41.704727 50.28239-62.543792 123.411948-62.543792 219.388676h-0.10639c0 97.293299 20.839065 171.074494 62.543792 221.370182 41.691429 50.295688 102.267013 75.430234 181.726753 75.403636 80.137974 0 140.633766-25.068052 181.527273-75.190857 40.880208-50.109506 61.307013-123.970494 61.307013-221.582961 0-96.641662-20.347013-169.930805-61.094234-219.880728-40.747221-49.936623-100.937143-74.924883-180.622961-74.95148z m1692.964572 25.041454a919.312623 919.312623 0 0 1-31.158857 103.676676l-85.244676 222.593662 234.150234 0.053195-84.07439-222.646857c-10.904935-28.126753-22.129039-62.690078-33.672311-103.676676z m735.351688-15.240311h-109.275428v274.697974h115.180051c59.352104 0 102.878753-11.716156 130.593247-35.161766 27.701195-23.44561 41.531844-58.567481 41.491948-105.37891 0-47.489662-14.070026-81.720519-42.236675-102.665974-28.166649-20.958753-73.42213-31.451429-135.753143-31.491324z" fill="#091313" p-id="4269"></path><path d="M849.787013 0c93.184 0.319169 168.627532 75.802597 168.893506 168.999896V849.787013c-0.265974 93.223896-75.776 168.733922-168.999896 168.999896H748.450909l-46.412467-112.693195H849.787013a57.051429 57.051429 0 0 0 56.306701-56.306701V168.999896A57.051429 57.051429 0 0 0 849.787013 112.679896H168.999896a57.051429 57.051429 0 0 0-56.32 56.32V849.787013a57.051429 57.051429 0 0 0 56.32 56.306701H418.111169l91.268987-192.964156 125.84561 305.657351h-466.252467C75.776 1018.520935 0.265974 943.010909 0 849.787013V168.999896C0.265974 75.776 75.776 0.265974 168.999896 0zM674.776104 556.018701v181.088416L517.904623 646.582857l156.844883-90.564156zM343.997506 374.903688V556.018701L187.165922 465.454545l156.844883-90.524259z m322.227533-195.903169v181.088416l-156.844883-90.564156 156.844883-90.52426z" fill="#4695EB" p-id="4270"></path><path d="M344.010805 556.018701l156.858182 90.564156-156.858182 90.52426V556.005403zM674.776104 374.903688L831.620987 465.454545l-156.858182 90.564156V374.916987zM352.548571 179.013818l156.858182 90.52426-156.858182 90.564156V179.013818z" fill="#FF004A" p-id="4271"></path><path d="M344.010805 374.916987L500.868987 465.454545V646.582857l-156.858182-90.564156V374.903688z m330.752 0V556.018701L517.917922 646.582857V465.441247l156.844883-90.52426z m-165.36935-105.378909l156.844883 90.564156-156.844883 90.577454-156.858182-90.564156 156.858182-90.577454z" fill="#091313" p-id="4272"></path></svg>