<svg width="49" height="48" viewBox="0 0 49 48" fill="none" xmlns="http://www.w3.org/2000/svg">
<path d="M45.0768 23.4985L43.3592 22.4353C43.3447 22.2684 43.3284 22.1016 43.3103 21.9351L44.7864 20.5583C44.8602 20.4896 44.9151 20.4033 44.946 20.3074C44.977 20.2115 44.9828 20.1093 44.963 20.0106C44.9435 19.9118 44.8991 19.8196 44.8339 19.7428C44.7687 19.666 44.685 19.6073 44.5906 19.572L42.7037 18.8664C42.6563 18.7035 42.607 18.5411 42.5559 18.3793L43.7329 16.7446C43.7919 16.6629 43.8289 16.5674 43.8406 16.4673C43.8523 16.3672 43.8382 16.2658 43.7997 16.1727C43.7611 16.0796 43.6994 15.9979 43.6204 15.9354C43.5414 15.8728 43.4477 15.8315 43.3482 15.8154L41.3585 15.4918C41.2812 15.3409 41.2006 15.1923 41.1194 15.0449L41.9554 13.2098C41.9976 13.1182 42.0155 13.0174 42.0074 12.9169C41.9993 12.8164 41.9656 12.7197 41.9094 12.636C41.8537 12.5521 41.7773 12.4839 41.6877 12.4379C41.598 12.392 41.498 12.3698 41.3974 12.3736L39.3779 12.4439C39.2736 12.3133 39.1673 12.1843 39.0589 12.057L39.523 10.09C39.5462 9.99192 39.5438 9.88953 39.5162 9.79258C39.4887 9.69564 39.4368 9.60735 39.3655 9.5361C39.2943 9.46486 39.206 9.41299 39.1091 9.38541C39.0122 9.35783 38.9099 9.35546 38.8119 9.37852L36.8453 9.84215C36.7177 9.73391 36.5884 9.62757 36.4576 9.52316L36.5283 7.50389C36.5321 7.40321 36.51 7.30323 36.4641 7.21354C36.4182 7.12385 36.3501 7.04746 36.2662 6.99168C36.1825 6.93558 36.0858 6.90187 35.9853 6.89375C35.8849 6.88564 35.784 6.9034 35.6924 6.94533L33.8577 7.78181C33.7098 7.70013 33.5608 7.62021 33.4109 7.54208L33.0865 5.55206C33.0702 5.45269 33.0289 5.35911 32.9664 5.2802C32.9038 5.20128 32.8222 5.13964 32.7292 5.10111C32.6361 5.06259 32.5348 5.04845 32.4348 5.06005C32.3348 5.07165 32.2394 5.10859 32.1576 5.16739L30.5218 6.34443C30.3609 6.29318 30.1988 6.24406 30.0356 6.19708L29.33 4.30982C29.2949 4.21527 29.2362 4.1313 29.1593 4.06594C29.0825 4.00058 28.9903 3.95601 28.8913 3.93649C28.7926 3.91711 28.6906 3.92316 28.5948 3.95409C28.4991 3.98501 28.4128 4.03978 28.3441 4.11324L26.9673 5.59042C26.8008 5.57176 26.634 5.55545 26.4671 5.54151L25.4038 3.8235C25.3508 3.73789 25.2769 3.66724 25.1889 3.61824C25.101 3.56924 25.002 3.54352 24.9013 3.54352C24.8006 3.54352 24.7016 3.56924 24.6136 3.61824C24.5257 3.66724 24.4517 3.73789 24.3987 3.8235L23.3355 5.54151C23.1684 5.55543 23.0014 5.57173 22.8348 5.59042L21.4577 4.11324C21.389 4.03947 21.3027 3.98448 21.2068 3.95352C21.1109 3.92256 21.0087 3.91665 20.9098 3.93635C20.811 3.95605 20.7189 4.00071 20.6422 4.06608C20.5655 4.13146 20.5068 4.21536 20.4718 4.30982L19.7663 6.19708C19.6028 6.2439 19.4411 6.29361 19.2797 6.34443L17.6441 5.16739C17.5624 5.10837 17.4669 5.07128 17.3668 5.05967C17.2667 5.04806 17.1652 5.06231 17.0722 5.10106C16.9792 5.13961 16.8975 5.20127 16.835 5.28019C16.7725 5.35912 16.7312 5.4527 16.715 5.55206L16.3905 7.54208C16.2403 7.61991 16.0919 7.69998 15.9437 7.78181L14.1089 6.94517C14.0173 6.90332 13.9165 6.88562 13.8161 6.89376C13.7157 6.9019 13.6191 6.93561 13.5354 6.99168C13.4515 7.04742 13.3833 7.1238 13.3373 7.21349C13.2914 7.30319 13.2692 7.40318 13.273 7.50389L13.3433 9.52316C13.2127 9.62776 13.0835 9.7341 12.9556 9.84215L10.9891 9.37868C10.891 9.3557 10.7887 9.35809 10.6918 9.38563C10.5948 9.41317 10.5065 9.46496 10.4352 9.5361C10.3639 9.60735 10.312 9.69564 10.2844 9.79258C10.2568 9.88953 10.2545 9.99192 10.2776 10.09L10.7409 12.057C10.6333 12.1845 10.5272 12.3134 10.4227 12.4439L8.40329 12.3736C8.30272 12.3704 8.20299 12.3928 8.11343 12.4387C8.02387 12.4846 7.94742 12.5524 7.89124 12.6359C7.83526 12.7196 7.8016 12.8163 7.79346 12.9167C7.78532 13.0171 7.80297 13.1179 7.84474 13.2096L8.68121 15.0449C8.59986 15.1923 8.51948 15.3409 8.44149 15.4918L6.45194 15.8154C6.35252 15.8316 6.25889 15.873 6.17993 15.9355C6.10097 15.9981 6.03929 16.0798 6.00076 16.1728C5.96223 16.2659 5.94811 16.3673 5.95975 16.4673C5.97139 16.5674 6.0084 16.6628 6.06727 16.7446L7.24431 18.3795C7.19295 18.5408 7.14368 18.7031 7.09648 18.8664L5.20938 19.572C5.11514 19.6074 5.03149 19.6663 4.96635 19.7431C4.90121 19.8198 4.85673 19.9119 4.83713 20.0107C4.81753 20.1094 4.82345 20.2115 4.85433 20.3074C4.88521 20.4032 4.94003 20.4895 5.0136 20.5583L6.48982 21.9349C6.47144 22.1011 6.45514 22.2684 6.44108 22.4353L4.72322 23.4985C4.63768 23.5516 4.56709 23.6256 4.51815 23.7136C4.46921 23.8015 4.44353 23.9005 4.44354 24.0012C4.44354 24.2064 4.5495 24.3964 4.72338 24.5035L6.44108 25.5667C6.45514 25.7342 6.47139 25.901 6.48982 26.0671L5.01344 27.4442C4.93974 27.5129 4.8848 27.5992 4.85385 27.695C4.82289 27.7909 4.81695 27.893 4.83658 27.9918C4.85621 28.0906 4.90076 28.1827 4.96601 28.2594C5.03126 28.3361 5.11503 28.3949 5.20938 28.4301L7.09648 29.1357C7.14347 29.299 7.19317 29.4613 7.24431 29.6227L6.06727 31.2577C6.00829 31.3395 5.9712 31.4349 5.95953 31.535C5.94787 31.6351 5.96201 31.7366 6.00061 31.8297C6.03921 31.9228 6.101 32.0044 6.18008 32.0669C6.25916 32.1294 6.35292 32.1706 6.45242 32.1866L8.44165 32.5102C8.51948 32.6611 8.59922 32.8097 8.68137 32.9577L7.84474 34.7924C7.80282 34.884 7.78509 34.9849 7.79323 35.0853C7.80137 35.1857 7.83512 35.2824 7.89124 35.3661C7.94699 35.45 8.02335 35.5182 8.11301 35.5641C8.20267 35.6101 8.30263 35.6322 8.40329 35.6284L10.4218 35.5577C10.5271 35.6889 10.633 35.8176 10.7409 35.9454L10.2776 37.9128C10.2544 38.0107 10.2567 38.113 10.2843 38.2097C10.3118 38.3065 10.3638 38.3946 10.4352 38.4656C10.5063 38.5371 10.5946 38.589 10.6916 38.6166C10.7886 38.6441 10.8911 38.6462 10.9891 38.6227L12.9556 38.1595C13.0835 38.2682 13.2129 38.3737 13.3435 38.4776L13.2732 40.4975C13.2696 40.5981 13.2917 40.698 13.3376 40.7877C13.3835 40.8773 13.4515 40.9538 13.5353 41.0097C13.6191 41.0656 13.7157 41.0992 13.8161 41.1072C13.9165 41.1153 14.0173 41.0975 14.1089 41.0555L15.9437 40.2196C16.0914 40.3016 16.2404 40.3815 16.3905 40.4591L16.715 42.448C16.731 42.5475 16.7722 42.6413 16.8347 42.7203C16.8973 42.7993 16.979 42.861 17.0722 42.8995C17.1652 42.9381 17.2666 42.9524 17.3667 42.9408C17.4668 42.9293 17.5623 42.8923 17.6441 42.8335L19.2789 41.6557C19.4403 41.7068 19.6025 41.7568 19.7659 41.8038L20.4714 43.6903C20.5066 43.7846 20.5654 43.8684 20.6422 43.9336C20.719 43.9989 20.8111 44.0433 20.91 44.0628C21.0087 44.0827 21.1109 44.0769 21.2067 44.0459C21.3026 44.015 21.3889 43.9599 21.4573 43.886L22.8345 42.4097C23.0007 42.4288 23.1678 42.4448 23.3352 42.4597L24.3984 44.1774C24.4514 44.2629 24.5254 44.3334 24.6133 44.3824C24.7012 44.4313 24.8001 44.457 24.9007 44.4571C25.0014 44.4571 25.1004 44.4314 25.1883 44.3825C25.2763 44.3335 25.3503 44.2629 25.4033 44.1774L26.4666 42.4597C26.6339 42.4448 26.8009 42.4288 26.967 42.4097L28.3438 43.886C28.4122 43.9599 28.4985 44.0149 28.5943 44.0459C28.6901 44.0768 28.7923 44.0826 28.891 44.0628C28.9898 44.0433 29.082 43.9989 29.1588 43.9336C29.2355 43.8684 29.2943 43.7846 29.3295 43.6903L30.0351 41.8038C30.1984 41.7568 30.3608 41.7068 30.5222 41.6557L32.1573 42.8335C32.2391 42.8923 32.3346 42.9292 32.4346 42.9408C32.5347 42.9523 32.6361 42.9381 32.7291 42.8995C32.8222 42.8609 32.9038 42.7992 32.9663 42.7201C33.0288 42.6411 33.07 42.5475 33.0862 42.448L33.4106 40.4591C33.5606 40.3813 33.7091 40.3004 33.8573 40.2194L35.6921 41.0555C35.7837 41.0976 35.8845 41.1155 35.9849 41.1075C36.0854 41.0996 36.1821 41.066 36.2659 41.01C36.3498 40.9541 36.4178 40.8776 36.4637 40.7879C36.5096 40.6982 36.5317 40.5982 36.5279 40.4975L36.4576 38.4777C36.5884 38.3737 36.7175 38.2676 36.8449 38.1595L38.8115 38.6227C39.0113 38.6697 39.2207 38.6115 39.365 38.4656C39.4364 38.3946 39.4883 38.3065 39.5159 38.2097C39.5435 38.113 39.5458 38.0107 39.5226 37.9128L39.0594 35.9454C39.1673 35.8176 39.2736 35.6889 39.3774 35.5577L41.3969 35.6284C41.4975 35.6322 41.5975 35.6101 41.6871 35.5642C41.7768 35.5183 41.8532 35.4502 41.9089 35.3663C41.9651 35.2825 41.9988 35.1858 42.0069 35.0853C42.0149 34.9848 41.9971 34.8839 41.9551 34.7922L41.119 32.9579C41.2006 32.8097 41.2808 32.6611 41.3582 32.5104L43.3479 32.1866C43.4474 32.1706 43.5411 32.1294 43.6201 32.0668C43.6991 32.0043 43.7606 31.9225 43.7989 31.8292C43.8374 31.7362 43.8515 31.6349 43.8399 31.5349C43.8283 31.4349 43.7914 31.3395 43.7326 31.2577L42.5555 29.6228C42.6066 29.4613 42.6558 29.2989 42.7034 29.1357L44.5901 28.4301C44.6846 28.3951 44.7685 28.3363 44.8337 28.2595C44.899 28.1826 44.9434 28.0903 44.9627 27.9914C44.9825 27.8927 44.9767 27.7906 44.9457 27.6948C44.9148 27.5989 44.8598 27.5127 44.7859 27.4442L43.31 26.0671C43.3279 25.9009 43.3444 25.7337 43.3588 25.5669L45.0765 24.5035C45.1621 24.4506 45.2328 24.3767 45.2817 24.2887C45.3307 24.2008 45.3564 24.1018 45.3563 24.0012C45.3563 23.7964 45.2508 23.6061 45.0768 23.4985ZM33.5809 37.7471C32.9251 37.6056 32.5079 36.9592 32.6487 36.3012C32.7891 35.644 33.435 35.2258 34.0908 35.3672C34.7466 35.5077 35.1644 36.1553 35.0238 36.812C34.8831 37.4688 34.2365 37.8875 33.5809 37.7471ZM32.9973 33.7998C32.855 33.7693 32.708 33.7671 32.5649 33.7934C32.4217 33.8198 32.2852 33.8741 32.163 33.9532C32.0409 34.0323 31.9355 34.1348 31.853 34.2547C31.7704 34.3746 31.7123 34.5095 31.682 34.6519L31.0722 37.4977C29.1903 38.3518 27.1007 38.8263 24.8999 38.8263C22.6488 38.8263 20.5136 38.3283 18.5984 37.4378L17.9889 34.5921C17.8607 33.9933 17.2719 33.6118 16.6739 33.7403L14.1616 34.2799C13.6946 33.7994 13.2606 33.2879 12.8626 32.7488H25.0869C25.2251 32.7488 25.3174 32.7237 25.3174 32.5978V28.2737C25.3174 28.1479 25.2251 28.1228 25.0867 28.1228H21.5118V25.382H25.3786C25.7314 25.382 27.2658 25.4827 27.7563 27.4439C27.91 28.047 28.2473 30.0089 28.478 30.637C28.7078 31.3415 29.6436 32.7487 30.6408 32.7487H36.7322C36.8014 32.7487 36.8752 32.7408 36.953 32.7268C36.5304 33.3007 36.0674 33.8439 35.5676 34.3521L32.9973 33.7998ZM16.0904 37.6876C15.4344 37.8292 14.7886 37.411 14.6474 36.7538C14.5071 36.0955 14.9242 35.4494 15.5801 35.3079C15.8954 35.2406 16.2246 35.3013 16.4952 35.4766C16.7657 35.6519 16.9556 35.9276 17.0229 36.2429C17.1633 36.8997 16.746 37.547 16.0904 37.6876ZM11.453 18.8837C11.7252 19.4977 11.4483 20.2174 10.835 20.4891C10.2218 20.7615 9.5041 20.4843 9.23209 19.8698C9.10134 19.5749 9.09298 19.2402 9.20886 18.9392C9.32474 18.6382 9.55538 18.3955 9.8501 18.2644C9.99599 18.1998 10.1532 18.1645 10.3127 18.1606C10.4723 18.1567 10.631 18.1843 10.7799 18.2418C10.9287 18.2993 11.0648 18.3856 11.1803 18.4957C11.2958 18.6058 11.3885 18.7378 11.453 18.8837ZM10.0278 22.262L12.645 21.0991C12.9137 20.9796 13.124 20.7583 13.2296 20.4839C13.3352 20.2094 13.3275 19.9043 13.2081 19.6355L12.6692 18.4167H14.789V27.9718H10.5122C10.1331 26.6372 9.9413 25.2564 9.94231 23.869C9.94231 23.3259 9.97156 22.7894 10.0278 22.262ZM21.5125 21.3338V18.5177H26.5604C26.8212 18.5177 28.4015 18.8191 28.4015 20.0008C28.4015 20.9819 27.1894 21.3337 26.1927 21.3337L21.5125 21.3338ZM39.858 23.8688C39.858 24.2424 39.8443 24.6125 39.8169 24.9792H38.2822C38.1286 24.9792 38.0668 25.0802 38.0668 25.2306V25.9354C38.0668 27.5943 37.1314 27.9552 36.3117 28.0471C35.5312 28.1349 34.6656 27.7202 34.559 27.2425C34.0984 24.6526 33.3311 24.0994 32.1194 23.1436C33.6233 22.1887 35.1879 20.7799 35.1879 18.8941C35.1879 16.858 33.7921 15.5755 32.8405 14.9467C31.5057 14.0667 30.0278 13.8903 29.629 13.8903H13.7574C15.9097 11.4882 18.8266 9.78669 22.1257 9.16757L23.9965 11.1301C24.0969 11.2354 24.217 11.32 24.3501 11.3788C24.4832 11.4376 24.6265 11.4697 24.772 11.473C24.9175 11.4764 25.0622 11.451 25.1978 11.3984C25.3335 11.3457 25.4574 11.2668 25.5625 11.1662L27.6558 9.16405C32.0419 9.98071 35.7556 12.711 37.8956 16.4569L36.4626 19.6937C36.2152 20.2538 36.4677 20.9089 37.0262 21.1571L39.7853 22.3825C39.8329 22.8724 39.858 23.3672 39.858 23.8688ZM23.9973 7.4983C24.482 7.03403 25.2509 7.05241 25.715 7.53777C26.1781 8.02457 26.1605 8.79424 25.6747 9.25818C25.19 9.72261 24.4211 9.70455 23.957 9.21823C23.7346 8.98465 23.6139 8.67238 23.6215 8.34993C23.629 8.02749 23.7642 7.72121 23.9973 7.4983ZM38.2181 18.9427C38.2826 18.7967 38.3753 18.6649 38.4907 18.5548C38.6062 18.4447 38.7423 18.3584 38.8911 18.3009C39.04 18.2434 39.1987 18.2159 39.3582 18.2198C39.5178 18.2238 39.6749 18.2591 39.8208 18.3239C40.4341 18.5959 40.7109 19.3152 40.4388 19.9292C40.3743 20.0752 40.2817 20.2071 40.1662 20.3173C40.0507 20.4275 39.9147 20.5138 39.7658 20.5714C39.6169 20.6289 39.4581 20.6565 39.2985 20.6525C39.139 20.6486 38.9817 20.6133 38.8358 20.5485C38.2233 20.2763 37.9465 19.5577 38.2181 18.9427Z" fill="black"/>
</svg>
