<svg width="29" height="30" viewBox="0 0 29 30" fill="none" xmlns="http://www.w3.org/2000/svg">
<g clip-path="url(#clip0_1114_1237)">
<path d="M26.3957 2.0863C25.9784 3.10069 25.4389 3.99997 24.8417 4.80573C22.2086 2.12227 18.5252 0.417236 14.4604 0.417236C6.47483 0.417236 -0.050354 6.90644 -0.050354 14.9208C-0.050354 19.1079 1.74101 22.8777 4.58274 25.5395L5.12231 26.0216C7.6331 28.1439 10.8993 29.4316 14.4532 29.4316C22.0791 29.4316 28.3597 23.482 28.8993 15.9712C29.3309 12.3237 28.223 7.65465 26.3957 2.0863ZM6.68346 25.6618C6.26619 26.2014 5.48921 26.259 4.94965 25.8417C4.41008 25.4244 4.35252 24.6475 4.76979 24.1079C5.18706 23.5683 5.96403 23.5108 6.5036 23.928C7.01439 24.3453 7.10072 25.1223 6.68346 25.6618ZM26.3094 21.3237C22.7482 26.0791 15.0935 24.4676 10.2158 24.705C10.2158 24.705 9.34533 24.7626 8.48202 24.8849C8.48202 24.8849 8.81295 24.7338 9.23022 24.5827C12.6691 23.3885 14.2878 23.1439 16.3813 22.0719C20.3022 20.0647 24.2158 15.669 25 11.1223C23.5036 15.4892 18.9568 19.259 14.8273 20.7841C11.9856 21.8345 6.87051 22.8489 6.87051 22.8489L6.66188 22.7266C3.19425 21.0216 3.07195 13.482 9.41727 11.0575C12.2014 9.97839 14.8345 10.5755 17.8561 9.86328C21.0576 9.11508 24.7698 6.71939 26.259 3.5827C27.9209 8.64026 29.9568 16.4748 26.3094 21.3237Z" fill="#6CB52D"/>
<path d="M6.68344 25.6618C6.26617 26.2014 5.48919 26.2589 4.94963 25.8416C4.41006 25.4244 4.3525 24.6474 4.76977 24.1078C5.18704 23.5683 5.96401 23.5107 6.50358 23.928C7.01437 24.3452 7.10071 25.1222 6.68344 25.6618Z" fill="#6CB52D"/>
<path d="M26.3093 21.3238C22.7482 26.0792 15.0935 24.4677 10.2158 24.7051C10.2158 24.7051 9.3453 24.7626 8.48199 24.8849C8.48199 24.8849 8.81293 24.7338 9.2302 24.5828C12.669 23.3885 14.2877 23.1439 16.3813 22.072C20.3021 20.0648 24.2158 15.6691 25 11.1223C23.5036 15.4892 18.9568 19.259 14.8273 20.7842C11.9856 21.8346 6.87048 22.849 6.87048 22.849L6.66185 22.7267C3.19422 21.0216 3.07192 13.482 9.41725 11.0576C12.2014 9.97845 14.8345 10.5756 17.8561 9.86334C21.0575 9.11514 24.7698 6.71945 26.259 3.58276C27.9208 8.64032 29.9568 16.4748 26.3093 21.3238Z" fill="white"/>
</g>
<defs>
<clipPath id="clip0_1114_1237">
<rect width="28.9928" height="30" fill="white"/>
</clipPath>
</defs>
</svg>
