<svg t="1730289258813" class="icon" viewBox="0 0 1024 1024" version="1.1" xmlns="http://www.w3.org/2000/svg" p-id="5507" width="200" height="200"><path d="M1022.548 510.732c0 282.056-228.66 510.72-510.732 510.72C229.736 1021.452 1.08 792.788 1.08 510.732 1.08 228.66 229.744 0 511.816 0c282.076 0 510.732 228.66 510.732 510.732z" fill="#DD4814" p-id="5508"></path><path d="M164.532 442.532c-37.676 0-68.2 30.524-68.2 68.2 0 37.656 30.524 68.184 68.2 68.184 37.66 0 68.184-30.528 68.184-68.184 0-37.676-30.524-68.2-68.184-68.2z m486.86 309.912c-32.612 18.84-43.8 60.52-24.96 93.116 18.82 32.616 60.5 43.796 93.116 24.96 32.612-18.82 43.796-60.5 24.96-93.12-18.82-32.592-60.524-43.772-93.116-24.956z m-338.744-241.712c0-67.384 33.472-126.92 84.684-162.968L347.48 264.268c-59.656 39.88-104.048 100.816-122.496 172.188 21.528 17.56 35.304 44.3 35.304 74.272 0 29.956-13.776 56.696-35.304 74.26C243.408 656.376 287.8 717.32 347.48 757.2l49.852-83.52c-51.212-36.028-84.684-95.56-84.684-162.948z m199.168-199.188c104.052 0 189.42 79.776 198.38 181.52l97.16-1.432c-4.776-75.112-37.592-142.544-88.008-192.128-25.928 9.796-55.88 8.296-81.76-6.624-25.932-14.964-42.192-40.208-46.636-67.608a297.04 297.04 0 0 0-79.14-10.76 295.148 295.148 0 0 0-131.276 30.652l47.38 84.908a198.384 198.384 0 0 1 83.9-18.528z m0 398.36a198.404 198.404 0 0 1-83.896-18.528l-47.38 84.9a294.848 294.848 0 0 0 131.28 30.684 296.16 296.16 0 0 0 79.136-10.788c4.444-27.4 20.708-52.62 46.632-67.608 25.904-14.948 55.836-16.42 81.76-6.624 50.42-49.584 83.232-117.016 88.016-192.128l-97.188-1.432c-8.94 101.772-94.304 181.52-198.36 181.52z m139.552-440.924c32.616 18.832 74.3 7.68 93.116-24.936 18.84-32.616 7.68-74.3-24.936-93.14-32.616-18.816-74.296-7.64-93.14 24.976-18.812 32.6-7.632 74.28 24.96 93.1z" fill="#FFFFFF" p-id="5509"></path></svg>