<svg xmlns="http://www.w3.org/2000/svg" fill="none" viewBox="0 0 12 13"><path d="M2.66666 12.7859C2.29999 12.7859 1.98599 12.6552 1.72466 12.3939C1.46333 12.1326 1.33288 11.8188 1.33333 11.4526V2.78589C1.14444 2.78589 0.985992 2.72189 0.857992 2.59389C0.729992 2.46589 0.666214 2.30767 0.666659 2.11922C0.666659 1.93034 0.730659 1.77189 0.858659 1.64389C0.986659 1.51589 1.14488 1.45211 1.33333 1.45256H3.99999C3.99999 1.26367 4.06399 1.10522 4.19199 0.977224C4.31999 0.849224 4.47821 0.785447 4.66666 0.785891H7.33333C7.52221 0.785891 7.68066 0.849891 7.80866 0.977891C7.93666 1.10589 8.00044 1.26411 7.99999 1.45256H10.6667C10.8555 1.45256 11.014 1.51656 11.142 1.64456C11.27 1.77256 11.3338 1.93078 11.3333 2.11922C11.3333 2.30811 11.2693 2.46656 11.1413 2.59456C11.0133 2.72256 10.8551 2.78634 10.6667 2.78589V11.4526C10.6667 11.8192 10.536 12.1332 10.2747 12.3946C10.0133 12.6559 9.69955 12.7863 9.33333 12.7859H2.66666ZM2.66666 2.78589V11.4526H9.33333V2.78589H2.66666ZM3.99999 9.45256C3.99999 9.64145 4.06399 9.79989 4.19199 9.92789C4.31999 10.0559 4.47821 10.1197 4.66666 10.1192C4.85555 10.1192 5.01399 10.0552 5.14199 9.92723C5.26999 9.79922 5.33377 9.641 5.33333 9.45256V4.78589C5.33333 4.597 5.26933 4.43856 5.14133 4.31056C5.01333 4.18256 4.8551 4.11878 4.66666 4.11922C4.47777 4.11922 4.31933 4.18322 4.19133 4.31122C4.06333 4.43922 3.99955 4.59745 3.99999 4.78589V9.45256ZM6.66666 9.45256C6.66666 9.64145 6.73066 9.79989 6.85866 9.92789C6.98666 10.0559 7.14488 10.1197 7.33333 10.1192C7.52221 10.1192 7.68066 10.0552 7.80866 9.92723C7.93666 9.79922 8.00044 9.641 7.99999 9.45256V4.78589C7.99999 4.597 7.93599 4.43856 7.80799 4.31056C7.67999 4.18256 7.52177 4.11878 7.33333 4.11922C7.14444 4.11922 6.98599 4.18322 6.85799 4.31122C6.72999 4.43922 6.66621 4.59745 6.66666 4.78589V9.45256Z"/></svg>