<svg xmlns="http://www.w3.org/2000/svg" width="20" height="20" viewBox="0 0 20 20" fill="none">
  <path fill-rule="evenodd" clip-rule="evenodd" d="M7.34833 3.33329H12.6517C13.5813 3.33329 14.1767 3.33463 14.6283 3.37214C15.06 3.40799 15.2092 3.46808 15.2748 3.50217C15.5488 3.64449 15.7721 3.86787 15.9145 4.14183C15.9485 4.20745 16.0086 4.35658 16.0445 4.78829C16.082 5.23995 16.0833 5.83529 16.0833 6.76496V13.235C16.0833 14.1646 16.082 14.76 16.0445 15.2116C16.0086 15.6433 15.9485 15.7925 15.9145 15.8581C15.7721 16.1321 15.5488 16.3554 15.2748 16.4977C15.2092 16.5318 15.06 16.5919 14.6283 16.6278C14.1767 16.6653 13.5813 16.6666 12.6517 16.6666H7.34834C6.41867 16.6666 5.82333 16.6653 5.37167 16.6278C4.93995 16.5919 4.79083 16.5318 4.72521 16.4977C4.45124 16.3554 4.22786 16.1321 4.08555 15.8581C4.05146 15.7925 3.99137 15.6433 3.95551 15.2116C3.91801 14.76 3.91667 14.1646 3.91667 13.235V6.76496C3.91667 5.83529 3.91801 5.23995 3.95551 4.78829C3.99137 4.35658 4.05146 4.20745 4.08555 4.14183C4.22786 3.86787 4.45124 3.64449 4.72521 3.50217C4.79083 3.46808 4.93995 3.40799 5.37167 3.37214C5.82333 3.33463 6.41866 3.33329 7.34833 3.33329ZM2.25 6.76496C2.25 4.96157 2.25 4.05988 2.60652 3.37354C2.90696 2.79517 3.37854 2.32359 3.95691 2.02315C4.64325 1.66663 5.54495 1.66663 7.34833 1.66663H12.6517C14.4551 1.66663 15.3567 1.66663 16.0431 2.02315C16.6215 2.32359 17.093 2.79517 17.3935 3.37354C17.75 4.05988 17.75 4.96157 17.75 6.76496V13.235C17.75 15.0383 17.75 15.94 17.3935 16.6264C17.093 17.2047 16.6215 17.6763 16.0431 17.9768C15.3567 18.3333 14.4551 18.3333 12.6517 18.3333H7.34834C5.54495 18.3333 4.64325 18.3333 3.95691 17.9768C3.37854 17.6763 2.90696 17.2047 2.60652 16.6264C2.25 15.94 2.25 15.0383 2.25 13.235V6.76496ZM6.37346 5.80534C5.91322 5.80534 5.54013 6.17844 5.54013 6.63868C5.54013 7.09892 5.91322 7.47201 6.37346 7.47201L13.6265 7.47201C14.0868 7.47201 14.4599 7.09891 14.4599 6.63868C14.4599 6.17844 14.0868 5.80534 13.6265 5.80534H6.37346ZM6.37346 9.27737C5.91322 9.27737 5.54013 9.65046 5.54013 10.1107C5.54013 10.5709 5.91322 10.944 6.37346 10.944L13.6265 10.944C14.0868 10.944 14.4599 10.5709 14.4599 10.1107C14.4599 9.65046 14.0868 9.27737 13.6265 9.27737L6.37346 9.27737ZM5.54013 13.5207C5.54013 13.0605 5.91322 12.6874 6.37346 12.6874L10.9413 12.6874C11.4016 12.6874 11.7747 13.0605 11.7747 13.5207C11.7747 13.981 11.4016 14.3541 10.9413 14.3541L6.37346 14.3541C5.91322 14.3541 5.54013 13.981 5.54013 13.5207Z" fill="#485264"/>
</svg>