<svg xmlns="http://www.w3.org/2000/svg" width="20" height="20" viewBox="0 0 20 20" fill="none">
  <path d="M5.96651 10.1909L2.52464 5.08813C2.31271 4.77393 1.92408 4.6502 1.58042 4.76001C1.16079 4.80324 0.833496 5.15785 0.833496 5.58891V14.1771C0.833496 14.6373 1.20659 15.0104 1.66683 15.0104C2.12707 15.0104 2.50016 14.6373 2.50016 14.1771L2.50016 8.03233L5.26876 12.1369C5.43096 12.3774 5.69667 12.5063 5.96651 12.5043C6.23635 12.5063 6.50206 12.3774 6.66426 12.1369L9.34089 8.16867V14.1771C9.34089 14.6373 9.71399 15.0104 10.1742 15.0104C10.6345 15.0104 11.0076 14.6373 11.0076 14.1771V5.58891C11.0076 5.23882 10.7917 4.93915 10.4858 4.81577C10.1146 4.62086 9.64827 4.73248 9.40838 5.08813L5.96651 10.1909Z" fill="#485264"/>
  <path d="M16.6846 5.58891C16.6846 5.12868 16.3115 4.75558 15.8513 4.75558C15.391 4.75558 15.0179 5.12868 15.0179 5.58891V12.5856L13.7466 11.3142C13.4211 10.9887 12.8935 10.9887 12.568 11.3142C12.2426 11.6396 12.2426 12.1673 12.568 12.4927L15.1108 15.0354C15.285 15.2097 15.5173 15.2906 15.7454 15.2783C15.9735 15.2906 16.2058 15.2097 16.38 15.0354L18.9227 12.4927C19.2482 12.1673 19.2482 11.6396 18.9227 11.3142C18.5973 10.9887 18.0697 10.9887 17.7442 11.3142L16.6846 12.3738V5.58891Z" fill="#485264"/>
</svg>