<svg width="24" height="24" viewBox="0 0 24 24" fill="none" xmlns="http://www.w3.org/2000/svg">
<g filter="url(#filter0_d_112_5717)">
<path d="M17.5938 9.08679C17.5592 8.97653 17.5168 8.86891 17.4668 8.76476V8.75805C17.2335 8.28169 16.8466 7.8984 16.369 7.67036C15.8914 7.44231 15.351 7.3829 14.8356 7.50174C14.3201 7.62059 13.8597 7.91072 13.5291 8.32509C13.1986 8.73945 13.0172 9.25374 13.0145 9.78453C13.0145 9.95147 13.0324 10.1179 13.0679 10.281C13.0681 10.2832 13.0681 10.2855 13.0679 10.2877C13.0813 10.3548 13.1014 10.4219 13.1214 10.489C13.2407 10.9616 13.264 11.4535 13.1897 11.9353C13.1154 12.4171 12.9452 12.879 12.6891 13.2933C12.4331 13.7077 12.0965 14.066 11.6995 14.3469C11.3024 14.6278 10.853 14.8256 10.3781 14.9284C9.90322 15.0312 9.41256 15.0369 8.93541 14.9453C8.45826 14.8536 8.00441 14.6664 7.60094 14.3948C7.19747 14.1232 6.85266 13.7728 6.58708 13.3646C6.3215 12.9563 6.1406 12.4986 6.05518 12.0186C6.17597 12.8506 6.46952 13.6478 6.91681 14.3587C7.36409 15.0696 7.95515 15.6783 8.65172 16.1454C9.34828 16.6125 10.1348 16.9276 10.9604 17.0703C11.786 17.213 12.6323 17.1801 13.4444 16.9737C14.2566 16.7674 15.0165 16.3922 15.6749 15.8724C16.3334 15.3526 16.8758 14.6998 17.2669 13.9564C17.6581 13.2129 17.8893 12.3953 17.9456 11.5564C18.0019 10.7176 17.8821 9.87621 17.5938 9.08679Z" fill="#7B838B"/>
<path d="M8.09419 11.1062C8.86967 12.24 10.4741 12.1394 10.4741 12.1394C10.073 11.7503 9.81228 11.3947 9.78554 10.3816C9.7588 9.36856 9.18387 9.1002 9.18387 9.1002C10.2134 8.44942 9.84571 7.74498 9.81228 6.96002C9.79222 6.47026 10.0797 6.10797 10.307 5.89999C8.99874 6.09666 7.81662 6.79249 7.00707 7.84241C6.19751 8.89233 5.823 10.2153 5.96161 11.5356C6.05521 11.2739 7.37887 10.0596 8.09419 11.1062Z" fill="#7B838B"/>
<path d="M17.5938 9.08679C17.5592 8.97653 17.5168 8.86891 17.4668 8.76476V8.75805C17.2335 8.28169 16.8466 7.8984 16.369 7.67036C15.8914 7.44231 15.351 7.3829 14.8356 7.50174C14.3201 7.62059 13.8597 7.91072 13.5291 8.32509C13.1986 8.73945 13.0172 9.25374 13.0145 9.78453C13.0145 9.95147 13.0324 10.1179 13.0679 10.281C13.0681 10.2832 13.0681 10.2855 13.0679 10.2877C13.0813 10.3548 13.1014 10.4219 13.1214 10.489C13.2407 10.9616 13.264 11.4535 13.1897 11.9353C13.1154 12.4171 12.9452 12.879 12.6891 13.2933C12.4331 13.7077 12.0965 14.066 11.6995 14.3469C11.3024 14.6278 10.853 14.8256 10.3781 14.9284C9.90322 15.0312 9.41256 15.0369 8.93541 14.9453C8.45826 14.8536 8.00441 14.6664 7.60094 14.3948C7.19747 14.1232 6.85266 13.7728 6.58708 13.3646C6.3215 12.9563 6.1406 12.4986 6.05518 12.0186C6.17597 12.8506 6.46952 13.6478 6.91681 14.3587C7.36409 15.0696 7.95515 15.6783 8.65172 16.1454C9.34828 16.6125 10.1348 16.9276 10.9604 17.0703C11.786 17.213 12.6323 17.1801 13.4444 16.9737C14.2566 16.7674 15.0165 16.3922 15.6749 15.8724C16.3334 15.3526 16.8758 14.6998 17.2669 13.9564C17.6581 13.2129 17.8893 12.3953 17.9456 11.5564C18.0019 10.7176 17.8821 9.87621 17.5938 9.08679Z" fill="#7B838B"/>
<path fill-rule="evenodd" clip-rule="evenodd" d="M16.5978 10.7036C16.5978 13.6271 14.2362 15.997 11.3231 15.997C9.77707 15.997 8.38635 15.3295 7.42159 14.2659C7.47998 14.3106 7.53979 14.3536 7.60095 14.3948C8.00442 14.6663 8.45827 14.8535 8.93542 14.9452C9.41257 15.0369 9.90323 15.0312 10.3781 14.9284C10.853 14.8256 11.3024 14.6278 11.6995 14.3469C12.0965 14.066 12.4331 13.7076 12.6892 13.2933C12.9452 12.879 13.1154 12.4171 13.1897 11.9353C13.264 11.4535 13.2408 10.9616 13.1214 10.489C13.1014 10.4219 13.0813 10.3548 13.068 10.2877C13.0681 10.2854 13.0681 10.2832 13.068 10.281C13.0324 10.1179 13.0145 9.95144 13.0145 9.7845C13.0172 9.25371 13.1986 8.73942 13.5292 8.32506C13.8597 7.91069 14.3201 7.62056 14.8356 7.50171C15.0482 7.45268 15.2651 7.43399 15.4801 7.44497C16.1804 8.34338 16.5978 9.47459 16.5978 10.7036Z" fill="#7B838B"/>
</g>
<defs>
<filter id="filter0_d_112_5717" x="0.219049" y="0.785708" width="23.4544" height="22.686" filterUnits="userSpaceOnUse" color-interpolation-filters="sRGB">
<feFlood flood-opacity="0" result="BackgroundImageFix"/>
<feColorMatrix in="SourceAlpha" type="matrix" values="0 0 0 0 0 0 0 0 0 0 0 0 0 0 0 0 0 0 127 0" result="hardAlpha"/>
<feOffset dy="0.6"/>
<feGaussianBlur stdDeviation="2.85714"/>
<feComposite in2="hardAlpha" operator="out"/>
<feColorMatrix type="matrix" values="0 0 0 0 1 0 0 0 0 1 0 0 0 0 1 0 0 0 0.25 0"/>
<feBlend mode="normal" in2="BackgroundImageFix" result="effect1_dropShadow_112_5717"/>
<feBlend mode="normal" in="SourceGraphic" in2="effect1_dropShadow_112_5717" result="shape"/>
</filter>
</defs>
</svg>
