<svg width="20" height="21" viewBox="0 0 20 21" fill="none" xmlns="http://www.w3.org/2000/svg">
<path d="M5.83335 8.83333H8.33335V6.33333L5.41669 3.41666C6.34971 2.97106 7.39794 2.82567 8.41702 3.00052C9.4361 3.17536 10.3759 3.66185 11.107 4.39298C11.8382 5.1241 12.3247 6.06392 12.4995 7.083C12.6743 8.10208 12.529 9.15031 12.0834 10.0833L17.0834 15.0833C17.4149 15.4149 17.6011 15.8645 17.6011 16.3333C17.6011 16.8022 17.4149 17.2518 17.0834 17.5833C16.7518 17.9149 16.3022 18.1011 15.8334 18.1011C15.3645 18.1011 14.9149 17.9149 14.5834 17.5833L9.58335 12.5833C8.65033 13.0289 7.6021 13.1743 6.58302 12.9995C5.56394 12.8246 4.62413 12.3381 3.893 11.607C3.16187 10.8759 2.67539 9.93608 2.50054 8.917C2.32569 7.89791 2.47108 6.84969 2.91669 5.91666L5.83335 8.83333Z" stroke="#5A646E" stroke-width="1.33333" stroke-linecap="round" stroke-linejoin="round"/>
</svg>
