<svg xmlns="http://www.w3.org/2000/svg" width="32" height="33" viewBox="0 0 32 33" fill="none">
  <path d="M20.9964 18.364C20.4752 18.3642 19.9602 18.4754 19.4857 18.6899C19.0113 18.9044 18.5884 19.2174 18.2455 19.6078L16.5218 18.3933C16.7047 17.8915 16.8102 17.3538 16.8102 16.7903C16.8102 16.236 16.7091 15.7075 16.5323 15.2127L18.2525 14.0113C18.5955 14.3997 19.0177 14.7108 19.4911 14.924C19.9644 15.1372 20.4781 15.2476 20.9977 15.2477C23.0204 15.2477 24.6667 13.611 24.6667 11.5972C24.6667 9.58378 23.0204 7.94666 20.9977 7.94666C20.4271 7.94752 19.8645 8.08067 19.3546 8.33554C18.8447 8.59041 18.4015 8.95998 18.0602 9.41495C17.7189 9.86992 17.4888 10.3978 17.3882 10.9566C17.2877 11.5155 17.3194 12.0899 17.4808 12.6345L15.7597 13.8363C15.0254 12.9305 13.9805 12.3267 12.8259 12.141V10.0773C13.6491 9.90379 14.3875 9.45452 14.9178 8.80452C15.4481 8.15452 15.7381 7.34315 15.7395 6.50597C15.7395 4.49216 14.0932 2.85547 12.0705 2.85547C10.0478 2.85547 8.40277 4.49216 8.40277 6.50597C8.40407 7.33147 8.6863 8.1322 9.20348 8.7777C9.72066 9.4232 10.4423 9.87541 11.2508 10.0607V12.1515C10.1545 12.3443 9.16131 12.9147 8.44511 13.7628C7.72891 14.6109 7.33536 15.6826 7.33337 16.7903C7.33542 17.9039 7.73322 18.9809 8.4564 19.8309C9.17958 20.6808 10.1816 21.249 11.2851 21.4348V23.642C10.4693 23.8214 9.73923 24.2721 9.21547 24.9199C8.6917 25.5676 8.40551 26.3736 8.40409 27.205C8.40277 29.2188 10.0478 30.8555 12.0705 30.8555C14.0932 30.8555 15.7395 29.2188 15.7395 27.205C15.7383 26.3736 15.4522 25.5674 14.9284 24.9196C14.4046 24.2718 13.6744 23.8211 12.8585 23.642V21.4348C13.9916 21.2446 15.0167 20.6513 15.743 19.7653L17.4786 20.9877C17.3795 21.321 17.329 21.6668 17.3287 22.0145C17.3287 24.027 18.975 25.665 20.9977 25.665C23.0204 25.665 24.6667 24.0283 24.6667 22.0145C24.6667 20.0007 23.0191 18.364 20.9964 18.364ZM20.9964 9.82834C21.468 9.82892 21.9201 10.0156 22.2536 10.3475C22.587 10.6793 22.7746 11.1292 22.775 11.5985C22.7744 12.0676 22.5869 12.5174 22.2534 12.8492C21.92 13.1809 21.4679 13.3676 20.9964 13.3682C20.5249 13.3673 20.0729 13.1806 19.7396 12.8489C19.4062 12.5172 19.2185 12.0676 19.2177 11.5985C19.2185 11.1294 19.4062 10.6797 19.7396 10.348C20.0729 10.0163 20.5249 9.82959 20.9964 9.82878V9.82834ZM10.2918 6.50641C10.2924 6.03723 10.48 5.58744 10.8134 5.25569C11.1469 4.92393 11.5989 4.7373 12.0705 4.73672C12.5421 4.73718 12.9943 4.92377 13.3278 5.25553C13.6614 5.5873 13.849 6.03716 13.8496 6.50641C13.849 6.97565 13.6614 7.42551 13.3278 7.75728C12.9943 8.08905 12.5421 8.27563 12.0705 8.27609C11.5989 8.27551 11.1469 8.08888 10.8134 7.75712C10.48 7.42537 10.2924 6.97558 10.2918 6.50641ZM13.8491 27.2054C13.8486 27.6746 13.661 28.1244 13.3275 28.4561C12.9941 28.7879 12.542 28.9745 12.0705 28.9751C11.5989 28.9745 11.1469 28.7879 10.8134 28.4561C10.48 28.1244 10.2924 27.6746 10.2918 27.2054C10.2924 26.7362 10.48 26.2864 10.8134 25.9547C11.1469 25.6229 11.5989 25.4363 12.0705 25.4357C12.5421 25.4362 12.9943 25.6228 13.3278 25.9545C13.6614 26.2863 13.849 26.7362 13.8496 27.2054H13.8491ZM12.0705 19.2591C11.4127 19.2584 10.7821 18.9981 10.317 18.5354C9.85188 18.0726 9.59028 17.4452 9.58958 16.7907C9.59016 16.1362 9.85171 15.5087 10.3168 15.0458C10.782 14.5829 11.4126 14.3226 12.0705 14.3219C12.7284 14.3225 13.3592 14.5828 13.8244 15.0456C14.2896 15.5085 14.5512 16.1361 14.5518 16.7907C14.5511 17.4452 14.2895 18.0727 13.8243 18.5355C13.3591 18.9983 12.7283 19.2585 12.0705 19.2591ZM20.9964 23.7846C20.5248 23.784 20.0727 23.5974 19.7393 23.2656C19.4059 22.9339 19.2183 22.4841 19.2177 22.0149C19.2183 21.5457 19.4059 21.0959 19.7393 20.7642C20.0727 20.4324 20.5248 20.2458 20.9964 20.2452C21.4679 20.2458 21.92 20.4324 22.2534 20.7642C22.5869 21.0959 22.7744 21.5457 22.775 22.0149C22.7744 22.4841 22.5869 22.9339 22.2534 23.2656C21.92 23.5974 21.4679 23.784 20.9964 23.7846Z" fill="#111824"/>
</svg>