<svg xmlns="http://www.w3.org/2000/svg" width="30" height="31" viewBox="0 0 30 31" fill="none">
  <path d="M22.2242 22.7269C22.4161 21.1299 22.3587 20.8955 23.5482 21.1543L23.8501 21.1807C24.7648 21.2223 25.9614 21.0336 26.6644 20.707C28.1778 20.0047 29.0749 18.8326 27.5831 19.1403C24.1793 19.8426 23.9454 18.69 23.9454 18.69C27.5395 13.3574 29.0419 6.58782 27.7449 4.93069C24.2077 0.411059 18.085 2.54828 17.9825 2.60353L17.9498 2.60964C17.2773 2.47006 16.5246 2.3867 15.6791 2.37301C14.1388 2.34759 12.9701 2.77684 12.0835 3.44908C12.0835 3.44908 1.16072 -1.051 1.66893 9.10834C1.77698 11.2695 4.7666 25.4615 8.33264 21.1749C9.63604 19.6075 10.8954 18.2821 10.8954 18.2821C11.5208 18.6974 12.2697 18.9096 13.0549 18.8333L13.1158 18.7815C13.0967 18.976 13.105 19.1665 13.14 19.3919C12.2216 20.4183 12.4915 20.5985 10.6549 20.9764C8.7966 21.3592 9.88831 22.041 10.6009 22.2192C11.465 22.4353 13.4639 22.7413 14.8147 20.8507L14.7609 21.0663C15.1213 21.3548 15.0971 23.1385 15.1479 24.4129C15.199 25.6874 15.2843 26.8767 15.5442 27.578C15.804 28.2791 16.1105 30.0851 18.5242 29.5678C20.5414 29.1366 22.0837 28.5145 22.2242 22.7269Z" fill="#2971A4"/>
  <path d="M17.7361 30.8293C16.6686 30.8293 15.9734 30.4164 15.5512 30.0177C14.9139 29.4164 14.6612 28.6417 14.5101 28.179L14.4448 27.9859C14.1408 27.165 14.0376 25.9831 13.9765 24.4611C13.9672 24.2326 13.9608 23.9972 13.9537 23.7476C13.9486 23.565 13.9423 23.3359 13.933 23.0964C13.5484 23.2798 13.1401 23.4088 12.72 23.4797C11.9674 23.6083 11.1582 23.5667 10.3146 23.3557C9.71939 23.2069 9.10093 22.8984 8.74844 22.4219C7.72101 23.3218 6.74101 23.1998 6.20713 23.0216C5.26527 22.7075 4.42241 21.8248 3.63014 20.3236C3.06571 19.2541 2.51985 17.8608 2.00749 16.1819C1.11524 13.2583 0.548365 10.1789 0.498008 9.16787C0.339605 6.00347 1.19151 3.74035 3.02953 2.44208C5.92895 0.394079 10.322 1.59848 11.9236 2.14532C12.9997 1.49679 14.2657 1.18121 15.6962 1.20394C16.4645 1.21641 17.1961 1.28388 17.8757 1.40512C18.5846 1.18219 19.9848 0.862201 21.5877 0.882245C24.5409 0.917446 26.9881 2.06832 28.6643 4.21043C29.8606 5.73873 29.269 8.94811 28.8102 10.7253C28.1644 13.225 27.0328 15.8836 25.6429 18.1981C26.0203 18.2008 26.5671 18.1556 27.3445 17.995C28.8781 17.6784 29.3267 18.5007 29.4484 18.8689C29.9361 20.3458 27.8163 21.462 27.155 21.769C26.3078 22.1623 24.9264 22.4019 23.7951 22.3501L23.7457 22.3469L23.4484 22.3207L23.4191 22.5686L23.3907 22.8109C23.3147 25.744 22.8957 27.6016 22.0336 28.829C21.1298 30.1158 19.8738 30.4763 18.7675 30.7134C18.39 30.7941 18.0471 30.8293 17.7361 30.8293ZM15.4896 20.1539C16.1787 20.7054 16.2391 21.7431 16.2931 23.6823C16.3 23.9243 16.3063 24.1534 16.3149 24.3673C16.3408 25.0151 16.4017 26.5319 16.6393 27.1728C16.6728 27.2635 16.7028 27.3554 16.7346 27.453C16.9993 28.2636 17.1321 28.6701 18.2768 28.4254C19.2378 28.2193 19.7318 28.0345 20.1185 27.484C20.6805 26.6837 20.9949 25.0737 21.0526 22.6989L22.2218 22.7273L21.0606 22.5879L21.0949 22.298C21.2061 21.3422 21.2863 20.6519 21.925 20.1952C22.4376 19.8291 23.0216 19.8645 23.4868 19.9484C22.9757 19.5621 22.8344 19.1092 22.7967 18.9234L22.6992 18.443L22.9732 18.0365C24.5516 15.6947 25.8531 12.8165 26.5444 10.1398C27.2548 7.3895 27.0382 5.92891 26.8216 5.65268C23.9544 1.98911 18.9826 3.50177 18.4634 3.67337L18.3756 3.7208L17.9356 3.80269L17.7102 3.756C17.0888 3.62693 16.3985 3.55555 15.6585 3.54357C14.4959 3.52401 13.558 3.79878 12.7889 4.38228L12.2553 4.78684L11.6361 4.53188C10.3132 3.99091 6.42738 2.90336 4.37694 4.35563C3.23878 5.16183 2.7203 6.74146 2.83568 9.05078C2.87382 9.81322 3.39181 12.6994 4.2464 15.4986C5.42734 19.3671 6.50047 20.6521 6.94855 20.8015C7.02677 20.8279 7.22967 20.6702 7.43158 20.4277C8.27347 19.4185 9.14524 18.4345 10.0457 17.4772L10.7229 16.7646L11.5415 17.3085C11.8715 17.5278 12.2355 17.6522 12.6093 17.6757L14.5617 16.0105L14.2789 18.897C14.2725 18.9618 14.2693 19.05 14.2948 19.2138L14.3798 19.7609L14.0107 20.1735L13.9682 20.2214L15.0408 20.7164L15.4896 20.1539Z" fill="#2971A4"/>
  <path d="M27.5835 19.1381C24.1796 19.8404 23.9456 18.6878 23.9456 18.6878C27.5398 13.3549 29.0422 6.58513 27.7456 4.92849C24.2084 0.409101 18.0852 2.54633 17.983 2.60182L17.95 2.60768C17.2775 2.4681 16.5249 2.38499 15.6788 2.3713C14.1385 2.34612 12.9703 2.77513 12.0837 3.44737C12.0837 3.44737 1.16071 -1.05246 1.66867 9.10663C1.77672 11.2681 4.76634 25.4601 8.33237 21.1734C9.63578 19.606 10.8949 18.2806 10.8949 18.2806C11.5205 18.6959 12.2692 18.9081 13.0542 18.8318L13.1153 18.78C13.0962 18.9746 13.105 19.165 13.1397 19.3904C12.2211 20.4168 12.491 20.597 10.6544 20.9749C8.7961 21.3577 9.88781 22.0395 10.6006 22.2177C11.4645 22.4338 13.4636 22.7398 14.8142 20.8493L14.7602 21.0649C15.1203 21.3533 15.373 22.9403 15.3307 24.3789C15.2882 25.8175 15.2598 26.8053 15.5436 27.5768C15.8272 28.3482 16.1098 30.0838 18.524 29.5666C20.5412 29.1344 21.5864 28.0141 21.7321 26.1455C21.8353 24.8169 22.0687 25.0135 22.0837 23.8257L22.2711 23.2635C22.4872 21.4626 22.3054 20.8818 23.5484 21.1519L23.8503 21.1783C24.765 21.2199 25.9621 21.0311 26.6649 20.7045C28.178 20.0027 29.0754 18.8304 27.5835 19.1381Z" fill="#3B8CCD"/>
  <path d="M17.8848 30.1002C15.8724 30.1002 15.2349 28.5067 14.9741 27.855C14.5923 26.8999 14.5099 23.1935 14.595 20.1541C14.5962 20.1028 14.6076 20.0523 14.6285 20.0055C14.6493 19.9586 14.6793 19.9164 14.7165 19.8812C14.7538 19.8459 14.7977 19.8184 14.8456 19.8002C14.8935 19.7821 14.9446 19.7735 14.9959 19.7752C15.047 19.7765 15.0975 19.788 15.1442 19.8089C15.191 19.8298 15.2332 19.8597 15.2684 19.8969C15.3036 19.9341 15.3311 19.9779 15.3493 20.0258C15.3676 20.0736 15.3762 20.1246 15.3747 20.1758C15.2767 23.6815 15.4158 26.8583 15.6984 27.5653C16.1394 28.6675 16.8082 29.6316 18.699 29.2266C20.494 28.8416 21.1663 28.161 21.4657 26.4252C21.6955 25.0932 22.1499 21.3037 22.2059 20.5559C22.2096 20.5048 22.2234 20.455 22.2465 20.4092C22.2695 20.3634 22.3014 20.3227 22.3402 20.2892C22.379 20.2558 22.4241 20.2304 22.4728 20.2144C22.5215 20.1984 22.5728 20.1922 22.6239 20.1961C22.727 20.2039 22.8228 20.2523 22.8903 20.3307C22.9577 20.409 22.9914 20.511 22.9837 20.6141C22.9253 21.3927 22.4731 25.1748 22.2345 26.5579C21.881 28.6081 20.967 29.538 18.8626 29.9892C18.5049 30.0658 18.1801 30.1 17.8848 30.1002ZM6.9735 22.3167C6.79761 22.3161 6.62296 22.2872 6.45624 22.2311C5.14917 21.795 3.90419 19.6664 2.75576 15.9036C1.88161 13.0393 1.32769 10.0497 1.27904 9.07803C1.13506 6.19743 1.87672 4.15945 3.48398 3.02105C6.66354 0.7682 12.0123 2.91349 12.2385 3.00589C12.3342 3.04502 12.4106 3.1206 12.4506 3.216C12.4907 3.31139 12.4912 3.4188 12.4521 3.51459C12.413 3.61038 12.3374 3.68671 12.242 3.72677C12.1466 3.76684 12.0392 3.76737 11.9434 3.72824C11.8918 3.70722 6.76278 1.65237 3.93328 3.65857C2.55898 4.63295 1.92806 6.44335 2.05786 9.03916C2.09868 9.85782 2.61618 12.7756 3.50158 15.6757C4.5268 19.035 5.69356 21.1546 6.70289 21.4912C6.8613 21.544 7.34335 21.7046 8.03245 20.8759C8.83607 19.9108 9.66981 18.9711 10.5324 18.0584C10.6046 17.9864 10.7021 17.9455 10.8041 17.9445C10.906 17.9435 11.0043 17.9824 11.0779 18.0529C11.1515 18.1235 11.1946 18.22 11.1979 18.3219C11.2012 18.4238 11.1645 18.5229 11.0957 18.5981C11.0839 18.6103 9.91081 19.8368 8.63233 21.3748C8.02683 22.103 7.44651 22.3167 6.9735 22.3167ZM23.9454 19.0301C23.8747 19.03 23.8053 19.0107 23.7447 18.9742C23.6842 18.9377 23.6346 18.8855 23.6014 18.823C23.5682 18.7606 23.5526 18.6903 23.5563 18.6197C23.56 18.5491 23.5828 18.4808 23.6222 18.4221C27.2555 13.0308 28.5308 6.51644 27.4386 5.12063C26.0638 3.36401 24.1226 2.44659 21.6686 2.39355C19.8516 2.35443 18.4074 2.8184 18.1713 2.89931L18.1119 2.92351C17.8745 2.99807 17.6924 2.86802 17.6237 2.71598C17.5845 2.62886 17.5786 2.53043 17.607 2.43924C17.6354 2.34805 17.6962 2.27041 17.7779 2.22097C17.7892 2.21436 17.8249 2.19921 17.8828 2.17794C18.2839 2.03103 19.7502 1.59102 21.5662 1.6118C24.2815 1.64064 26.5246 2.68762 28.0524 4.64004C28.7752 5.56382 28.777 7.692 28.057 10.4792C27.3232 13.3209 25.9423 16.3749 24.2688 18.8582C24.194 18.9699 24.0708 19.0301 23.9454 19.0301ZM24.1312 21.5259C23.5108 21.5259 22.9546 21.4384 22.6217 21.2389C22.2795 21.0338 22.2142 20.7552 22.2057 20.6073C22.1123 18.967 23.0172 18.6815 23.4787 18.5512C23.4145 18.4539 23.323 18.3395 23.2284 18.2214C22.9593 17.8851 22.5907 17.4245 22.3066 16.7357C22.2621 16.6281 22.1228 16.378 21.9614 16.0884C21.0866 14.5195 19.2661 11.2549 20.4356 9.58306C20.9768 8.80938 22.0546 8.50479 23.6425 8.67469C23.1754 7.2515 20.9509 2.79958 15.6725 2.71304C14.085 2.68664 12.7831 3.17481 11.8048 4.16263C9.61453 6.37466 9.69374 10.377 9.69496 10.4171C9.69631 10.4683 9.68756 10.5193 9.66921 10.5671C9.65086 10.6149 9.62327 10.6587 9.58802 10.6958C9.55277 10.733 9.51054 10.7628 9.46375 10.7837C9.41696 10.8045 9.36653 10.8159 9.31533 10.8173C9.26413 10.8186 9.21316 10.8099 9.16534 10.7915C9.11752 10.7732 9.07378 10.7456 9.03662 10.7103C8.99946 10.6751 8.96961 10.6329 8.94877 10.5861C8.92793 10.5393 8.91651 10.4889 8.91516 10.4377C8.91027 10.2599 8.82863 6.0598 11.2506 3.6136C12.3842 2.46884 13.8763 1.90367 15.6854 1.93325C19.0623 1.98874 21.2359 3.70551 22.4645 5.13578C23.8039 6.69464 24.4605 8.4141 24.5145 8.98807C24.5548 9.41488 24.2485 9.50019 24.1867 9.5129L24.0459 9.51608C22.4875 9.2665 21.4877 9.43981 21.0743 10.0304C20.1848 11.3018 21.9069 14.3899 22.6422 15.7087C22.83 16.0451 22.9654 16.2883 23.0275 16.4384C23.269 17.0241 23.5841 17.4177 23.8371 17.734C24.0598 18.0122 24.2527 18.2535 24.3216 18.5365C24.3536 18.5927 24.8081 19.265 27.5046 18.7084C28.1805 18.569 28.5858 18.6881 28.7097 19.0628C28.9534 19.7998 27.586 20.6596 26.8289 21.0111C26.1506 21.3264 25.0679 21.5259 24.1312 21.5259ZM22.9832 20.543C23.0688 20.6293 23.4968 20.7781 24.3832 20.74C25.1713 20.7063 26.0024 20.5349 26.5011 20.3034C27.1389 20.0071 27.5647 19.6759 27.7852 19.4498L27.663 19.4723C25.9389 19.8282 24.7193 19.7808 24.0383 19.3312C23.9925 19.301 23.9485 19.2683 23.9063 19.2332C23.8325 19.2623 23.7643 19.2814 23.7156 19.2951C23.3294 19.4033 22.93 19.5155 22.9832 20.543ZM11.8456 22.7222C11.4174 22.7222 10.9666 22.6638 10.5063 22.5487C10.0294 22.4294 9.22537 22.0703 9.23759 21.4804C9.25153 20.8187 10.2139 20.6202 10.5762 20.5457C11.885 20.276 11.9703 20.168 12.3793 19.6485C12.4986 19.4972 12.6469 19.3087 12.8493 19.0829C13.1498 18.7465 13.4781 18.5761 13.8252 18.5761C14.0669 18.5761 14.2652 18.658 14.3962 18.7125C14.8137 18.8856 15.1621 19.3041 15.3053 19.8045C15.4346 20.256 15.3728 20.6906 15.1318 21.0282C14.3405 22.1363 13.204 22.7222 11.8456 22.7222ZM10.0802 21.5139C10.1978 21.6049 10.4334 21.7264 10.6957 21.7919C11.0944 21.8916 11.4812 21.9422 11.8459 21.9422C12.9571 21.9422 13.8494 21.4821 14.4974 20.5747C14.6326 20.3855 14.592 20.1453 14.5558 20.0189C14.4801 19.7541 14.2918 19.5133 14.098 19.4329C13.9929 19.3894 13.9056 19.3562 13.8254 19.3562C13.7824 19.3562 13.6514 19.3562 13.4309 19.6028C13.2787 19.7739 13.1325 19.9502 12.9923 20.1313C12.4829 20.7781 12.2495 20.9976 10.7339 21.3098C10.364 21.3856 10.1743 21.4628 10.0802 21.5139ZM13.0794 19.7148C12.9863 19.7146 12.8963 19.6812 12.8257 19.6205C12.755 19.5598 12.7085 19.4758 12.6944 19.3838C12.6847 19.319 12.6781 19.2539 12.6748 19.1885C11.6814 19.1699 10.7229 18.7436 9.99514 17.9843C9.07503 17.0244 8.65629 15.6943 8.84647 14.3354C9.05303 12.8597 8.97579 11.557 8.93423 10.8571C8.92274 10.6626 8.91443 10.522 8.91492 10.4247C8.91565 10.3013 8.9181 9.97394 10.0123 9.41928C10.4014 9.22201 11.1817 8.87782 12.0341 8.78958C13.4463 8.64364 14.3771 9.27261 14.6558 10.5609C15.408 14.0389 14.7155 15.5772 14.2097 16.7007C14.1156 16.91 14.0266 17.1075 13.9555 17.2989L13.8926 17.4675C13.6255 18.184 13.3945 18.803 13.4654 19.2652C13.4731 19.3159 13.4709 19.3675 13.4587 19.4173C13.4465 19.467 13.4246 19.5139 13.3943 19.5552C13.364 19.5965 13.3259 19.6314 13.2821 19.6579C13.2382 19.6845 13.1896 19.7021 13.139 19.7099L13.0794 19.7148ZM9.6974 10.5327L9.71256 10.8112C9.75558 11.5382 9.83576 12.891 9.61869 14.4437C9.462 15.5645 9.80423 16.6584 10.5581 17.4446C11.1538 18.066 11.9378 18.4089 12.7435 18.4089H12.7601C12.8503 18.0288 13.0002 17.6274 13.1615 17.195L13.2238 17.0273C13.3043 16.8112 13.3984 16.6019 13.4981 16.3805C13.9848 15.299 14.5908 13.9528 13.8929 10.7259C13.7548 10.0866 13.4196 9.71677 12.8689 9.59479C11.7376 9.34497 10.0516 10.1959 9.6974 10.5327ZM12.0515 10.3673C12.0319 10.5051 12.304 10.8733 12.6589 10.9224C13.0131 10.972 13.3162 10.6841 13.3355 10.5462C13.3549 10.4083 13.083 10.2563 12.7281 10.2069C12.3734 10.1575 12.0703 10.2294 12.0515 10.3673ZM12.7403 11.0581L12.6408 11.0512C12.4208 11.0207 12.1984 10.8821 12.0461 10.6802C11.9925 10.6093 11.9053 10.4719 11.9226 10.3492C11.9473 10.1693 12.1668 10.0614 12.5093 10.0614C12.5858 10.0614 12.6655 10.0671 12.7457 10.0783C12.9329 10.1042 13.1067 10.1583 13.2351 10.2299C13.4575 10.3541 13.4739 10.4927 13.4639 10.5643C13.4365 10.763 13.1204 11.0581 12.7403 11.0581ZM12.1808 10.3902C12.1918 10.4753 12.4025 10.7559 12.6768 10.7938L12.7406 10.7982C12.9938 10.7982 13.183 10.599 13.2053 10.5337C13.1818 10.4892 13.019 10.3787 12.7102 10.3357C12.6438 10.3262 12.5767 10.3214 12.5096 10.3213C12.3111 10.3213 12.2057 10.366 12.1808 10.3902ZM22.84 10.0859C22.8593 10.2238 22.5875 10.5919 22.2328 10.6413C21.8783 10.6907 21.575 10.4029 21.5554 10.2651C21.5368 10.1272 21.8087 9.97491 22.1631 9.92578C22.5176 9.87616 22.8204 9.94827 22.84 10.0859ZM22.1509 10.7117C21.8096 10.7117 21.5151 10.4462 21.4909 10.2739C21.4628 10.0671 21.8033 9.90989 22.1538 9.86124C22.2311 9.85049 22.3076 9.84511 22.3812 9.84511C22.6838 9.84511 22.8842 9.93385 22.9043 10.0771C22.9172 10.1697 22.8461 10.3127 22.7236 10.4418C22.6427 10.5266 22.4728 10.6736 22.2413 10.7056L22.1509 10.7117ZM22.3814 9.97516C22.3139 9.97516 22.2435 9.98029 22.1722 9.99007C21.8199 10.0392 21.6097 10.1805 21.62 10.2563C21.6317 10.3396 21.8566 10.5819 22.1511 10.5819L22.2237 10.5767C22.4161 10.5501 22.5606 10.4245 22.6295 10.3521C22.7378 10.2384 22.7808 10.1314 22.7757 10.0949C22.7689 10.0465 22.6388 9.97516 22.3814 9.97516ZM23.3507 18.0036C23.28 18.0037 23.2106 17.9845 23.15 17.9481C23.0894 17.9118 23.0399 17.8597 23.0066 17.7973C22.9734 17.735 22.9577 17.6647 22.9613 17.5942C22.9649 17.5236 22.9876 17.4553 23.027 17.3967C23.8576 16.1561 23.7056 14.891 23.5587 13.6676C23.4959 13.1464 23.4313 12.6074 23.4479 12.0901C23.4651 11.558 23.5328 11.1189 23.598 10.6943C23.6755 10.1913 23.7489 9.71604 23.7186 9.15185C23.7158 9.10071 23.7231 9.04953 23.7401 9.00123C23.7572 8.95293 23.7835 8.90845 23.8177 8.87034C23.8519 8.83223 23.8933 8.80123 23.9395 8.77911C23.9857 8.75699 24.0358 8.74418 24.0869 8.74142C24.1381 8.73866 24.1893 8.746 24.2376 8.76302C24.2859 8.78004 24.3303 8.8064 24.3685 8.84061C24.4066 8.87482 24.4376 8.9162 24.4597 8.96239C24.4818 9.00857 24.4946 9.05867 24.4974 9.10981C24.5321 9.75466 24.4492 10.2925 24.369 10.8129C24.3072 11.2145 24.2431 11.6298 24.2277 12.1151C24.2128 12.5732 24.2713 13.0596 24.3331 13.5744C24.4895 14.8754 24.6668 16.3499 23.6753 17.8306C23.6396 17.8839 23.5913 17.9276 23.5347 17.9578C23.478 17.9879 23.4148 18.0037 23.3507 18.0036Z" fill="white"/>
</svg>