<svg xmlns="http://www.w3.org/2000/svg" width="32" height="32" viewBox="0 0 34.73 23" fill="none">
<path d="M34.7333 8.16353H26.2455C23.9513 3.68838 21.5234 0.21138 18.2199 0.21138C13.9192 0.21138 11.9007 4.0266 9.94695 7.74283L9.77671 8.06867H0V10.2753H5.69498C7.70544 10.2753 8.11483 10.9641 8.11483 10.9641C6.53807 13.4553 4.6411 15.9177 1.47948 15.9177H0V18.2316H1.49164C7.62032 18.2316 10.2955 13.1749 12.4438 9.11631C14.4138 5.37533 15.7879 3.11095 18.2239 3.11095C20.7532 3.11095 23.4122 8.70797 25.751 13.6492C26.0915 14.3669 26.4401 15.101 26.7927 15.8311C17.8186 16.1198 13.5423 18.2563 10.0645 20.001C7.51899 21.2755 5.50852 22.8552 2.20098 22.8552H0V25.1732H2.18071C6.16517 25.1732 8.64988 23.9235 11.2927 22.5954C14.9529 20.7641 19.1035 18.6894 28.8883 18.6894H34.5428V16.3714H31.3487C31.0852 16.392 30.8218 16.3508 30.5786 16.2477C30.3354 16.1487 30.1165 15.9919 29.9422 15.7898C29.3828 14.6886 28.8356 13.5296 28.3006 12.3706L27.5588 10.828C27.5588 10.828 28.0898 10.2506 29.5571 10.2506H34.7333V8.16353Z" fill="#188FFF"/>
</svg>