<svg xmlns="http://www.w3.org/2000/svg" width="30" height="26" viewBox="0 0 30 26" fill="none">
  <path d="M28.5842 19.4067C27.0188 20.2247 18.9095 23.5674 17.1831 24.4697C15.4567 25.3721 14.4976 25.3634 13.1338 24.7098C11.77 24.0562 3.14029 20.5615 1.58574 19.8166C0.808871 19.4444 0.400269 19.1301 0.400269 18.8333V15.8608C0.400269 15.8608 11.6351 13.4089 13.4489 12.7565C15.2625 12.1041 15.8918 12.0806 17.4352 12.6474C18.9789 13.2144 28.2081 14.8837 29.7335 15.4438L29.7328 18.3742C29.733 18.6681 29.381 18.9904 28.5842 19.4067Z" fill="#A73434"/>
  <path d="M28.5836 16.4517C27.0183 17.2693 18.9093 20.6121 17.1829 21.5143C15.4566 22.4169 14.4975 22.408 13.1337 21.7544C11.7698 21.1012 3.14049 17.606 1.58606 16.8615C0.0316296 16.1166 -0.000912011 15.6039 1.52602 15.0045C3.05295 14.4049 11.635 11.0294 13.4489 10.377C15.2626 9.72486 15.8917 9.70109 17.4352 10.2681C18.9787 10.8349 27.0394 14.0514 28.5646 14.6114C30.0904 15.1721 30.149 15.6338 28.5836 16.4517Z" fill="#DA5551"/>
  <path d="M28.5842 14.5968C27.0188 15.4149 18.9095 18.7575 17.1831 19.6602C15.4567 20.5622 14.4976 20.5535 13.1338 19.8999C11.7699 19.2466 3.14029 15.7516 1.58574 15.0067C0.808871 14.6345 0.400269 14.3207 0.400269 14.0237V11.0509C0.400269 11.0509 11.6351 8.5991 13.4489 7.94674C15.2625 7.29438 15.8918 7.27071 17.4352 7.83761C18.979 8.4045 28.2082 10.0735 29.7335 10.6337L29.7328 13.5645C29.733 13.8582 29.381 14.1805 28.5842 14.5968Z" fill="#A73434"/>
  <path d="M28.5836 11.6418C27.0183 12.4597 18.9093 15.8022 17.1829 16.7048C15.4566 17.607 14.4975 17.5982 13.1337 16.9445C11.7698 16.2914 3.14049 12.7963 1.58606 12.0517C0.0316296 11.307 -0.000912011 10.7942 1.52602 10.1945C3.05295 9.59524 11.6351 6.21948 13.4489 5.56724C15.2626 4.91499 15.8917 4.89133 17.4352 5.45822C18.9787 6.025 27.0394 9.24132 28.5646 9.80155C30.0904 10.3621 30.149 10.8239 28.5836 11.6418Z" fill="#DA5551"/>
  <path d="M28.5842 9.60878C27.0188 10.4267 18.9095 13.7695 17.1831 14.6721C15.4567 15.5743 14.4976 15.5655 13.1338 14.9119C11.7699 14.2586 3.14029 10.7635 1.58574 10.0189C0.808871 9.64635 0.400269 9.3324 0.400269 9.0358V6.0629C0.400269 6.0629 11.6351 3.61118 13.4489 2.95894C15.2625 2.30646 15.8918 2.28303 17.4352 2.84981C18.979 3.4167 28.2082 5.08568 29.7335 5.64592L29.7328 8.57654C29.733 8.87004 29.381 9.19237 28.5842 9.60878Z" fill="#A73434"/>
  <path d="M28.5835 6.65412C27.0181 7.47201 18.9091 10.8148 17.1827 11.717C15.4564 12.6192 14.4973 12.6104 13.1336 11.9571C11.7698 11.3035 3.14031 7.80859 1.586 7.06387C0.0314502 6.31926 -0.000976741 5.80636 1.52584 5.20684C3.05277 4.60744 11.6349 1.23214 13.4488 0.579668C15.2624 -0.0726922 15.8916 -0.0961262 17.435 0.470769C18.9785 1.03766 27.0392 4.25397 28.5644 4.81421C30.0902 5.37432 30.1488 5.83623 28.5835 6.65412Z" fill="#DA5551"/>
  <path d="M18.6514 3.7623L16.1294 4.02478L15.5649 5.38671L14.653 3.86695L11.7409 3.60458L13.9139 2.81897L13.2619 1.61304L15.2963 2.41071L17.2142 1.78121L16.6958 3.02815L18.6514 3.7623ZM15.4143 10.3695L10.7076 8.41245L17.452 7.37457L15.4143 10.3695ZM8.88884 4.51931C10.8797 4.51931 12.4936 5.14651 12.4936 5.92006C12.4936 6.69384 10.8797 7.32093 8.88884 7.32093C6.89796 7.32093 5.28406 6.69373 5.28406 5.92006C5.28406 5.14651 6.89796 4.51931 8.88884 4.51931Z" fill="white"/>
  <path d="M21.6318 4.13464L25.6234 5.71597L21.6353 7.29581L21.6318 4.13464Z" fill="#C83B3D"/>
  <path d="M17.2158 5.88575L21.6318 4.13452L21.6353 7.29569L21.2023 7.46548L17.2158 5.88575Z" fill="#962C2B"/>
</svg>