<svg xmlns="http://www.w3.org/2000/svg" width="24" height="24" viewBox="0 0 24 24" fill="none">
  <path fill-rule="evenodd" clip-rule="evenodd" d="M13.4999 1.42951L16.4507 3.13311L16.4469 3.13961C16.4812 3.15364 16.5146 3.17004 16.547 3.18874C17.2705 3.60642 16.9895 4.88432 16.186 5.11258C15.2835 5.36892 14.427 5.7344 13.6315 6.19384C15.7742 8.16307 17.2699 10.8252 17.7637 13.8249C18.598 13.3303 19.3634 12.7317 20.042 12.0468C20.6273 11.4561 21.9042 11.8462 21.9042 12.6778V15.9861C21.9042 17.0579 21.3324 18.0483 20.4042 18.5842L16.7643 20.6856L16.7511 20.6628C16.065 20.841 15.2508 19.9791 15.4671 19.2565C15.701 18.4752 15.8528 17.6584 15.9125 16.8161C14.6751 17.1958 13.3611 17.4002 11.9993 17.4002C10.6025 17.4002 9.2559 17.1852 7.99082 16.7865C8.04754 17.618 8.19403 18.4248 8.42068 19.1974C8.63706 19.9349 7.79498 20.8053 7.10108 20.5875L7.09217 20.6028L3.5957 18.5842C2.6675 18.0483 2.0957 17.0579 2.0957 15.9861V12.6792C2.0957 11.8475 3.37237 11.4574 3.95779 12.0481C4.61299 12.7092 5.34914 13.2899 6.15014 13.7741C6.65229 10.7951 8.14326 8.15197 10.2738 6.19384C9.49517 5.74411 8.658 5.38441 7.77652 5.12898C6.9738 4.89636 6.69833 3.62437 7.42211 3.2065C7.43833 3.19713 7.45482 3.18834 7.47154 3.18013L7.4706 3.1785L10.4999 1.42951C11.4281 0.893613 12.5717 0.893614 13.4999 1.42951ZM10.2072 3.90794C10.8152 4.18926 11.3984 4.51508 11.9527 4.88121C12.5229 4.50453 13.1238 4.17052 13.7508 3.88373L12.4999 3.16156C12.1905 2.98293 11.8093 2.98293 11.4999 3.16156L10.2072 3.90794ZM4.0957 14.8034V15.9861C4.0957 16.3433 4.2863 16.6735 4.5957 16.8521L6.07165 17.7042C6.00077 17.1477 5.96423 16.5804 5.96423 16.0046L5.96431 15.958C5.30823 15.624 4.68349 15.2373 4.0957 14.8034ZM17.826 17.7632L19.4042 16.8521C19.7136 16.6735 19.9042 16.3433 19.9042 15.9861V14.8024C19.2883 15.2572 18.6318 15.6601 17.9411 16.0049C17.9411 16.601 17.9019 17.1879 17.826 17.7632ZM15.8692 14.7215C14.6618 15.1606 13.3585 15.4002 11.9993 15.4002C10.6064 15.4002 9.27232 15.1486 8.0399 14.6885C8.37789 11.7688 9.82665 9.18767 11.9527 7.37853C14.0867 9.19447 15.5383 11.7883 15.8692 14.7215Z" fill="#111824"/>
  <path d="M17.5802 4.93826C17.3031 5.41664 17.4667 6.02912 17.9455 6.30555L19.4042 7.14773C19.7136 7.32636 19.9042 7.65649 19.9042 8.01375V10.0381C19.9042 10.5904 20.3519 11.0381 20.9042 11.0381C21.4565 11.0381 21.9042 10.5904 21.9042 10.0381V8.01375C21.9042 6.94196 21.3324 5.95158 20.4042 5.41568L18.9455 4.57349C18.4677 4.29764 17.8567 4.46086 17.5802 4.93826Z" fill="#111824"/>
  <path d="M15.029 20.5328C15.3051 21.0111 15.1412 21.6227 14.6629 21.8989L13.4999 22.5703C12.5717 23.1062 11.4281 23.1062 10.4999 22.5703L9.32635 21.8928C8.84757 21.6163 8.68393 21.0038 8.96106 20.5255C9.23761 20.0481 9.84855 19.8848 10.3264 20.1607L11.4999 20.8383C11.8093 21.0169 12.1905 21.0169 12.4999 20.8383L13.6629 20.1668C14.1412 19.8907 14.7528 20.0546 15.029 20.5328Z" fill="#111824"/>
  <path d="M3.0957 11.0493C2.54342 11.0493 2.0957 10.6016 2.0957 10.0493V8.01375C2.0957 6.94195 2.6675 5.95158 3.5957 5.41568L5.03141 4.58677C5.5097 4.31063 6.12129 4.4745 6.39744 4.9528C6.67358 5.43109 6.5097 6.04268 6.03141 6.31882L4.5957 7.14773C4.2863 7.32636 4.0957 7.65649 4.0957 8.01375V10.0493C4.0957 10.6016 3.64799 11.0493 3.0957 11.0493Z" fill="#111824"/>
</svg>