<svg xmlns="http://www.w3.org/2000/svg" width="24" height="24" viewBox="0 0 24 24" fill="none">
  <path fill-rule="evenodd" clip-rule="evenodd" d="M12 1.74146L12.0106 1.74157C13.279 1.75503 14.6237 2.0189 15.6856 2.69265C16.7971 3.39789 17.5621 4.53862 17.5621 6.11217C17.5621 6.63589 17.4244 7.11877 17.198 7.54981C19.7487 9.27232 21.6997 12.1734 21.6997 15.5219C21.6997 17.8845 20.5481 19.6231 18.7203 20.7231C16.9486 21.7893 14.5704 22.2473 12.0044 22.2586L11.9956 22.2586C9.42957 22.2474 7.05141 21.7893 5.27964 20.7231C3.45186 19.6231 2.30029 17.8845 2.30029 15.5219C2.30029 12.1734 4.25124 9.27232 6.80199 7.54981C6.57557 7.11877 6.43785 6.63589 6.43785 6.11217C6.43785 4.53862 7.2029 3.39789 8.31443 2.69265C9.37633 2.0189 10.721 1.75503 11.9894 1.74157L12 1.74146ZM9.38591 4.38141C8.79554 4.75599 8.43785 5.2883 8.43785 6.11217C8.43785 6.38561 8.56144 6.70693 8.88827 7.04772C9.3776 7.55795 9.27707 8.42328 8.6213 8.78099C6.15881 10.1242 4.30029 12.689 4.30029 15.5219C4.30029 17.1169 5.0254 18.2358 6.31088 19.0094C7.65156 19.8162 9.62165 20.2476 12 20.2586C14.3783 20.2476 16.3484 19.8162 17.6891 19.0094C18.9746 18.2358 19.6997 17.1169 19.6997 15.5219C19.6997 12.689 17.8412 10.1242 15.3787 8.78099C14.7229 8.42328 14.6224 7.55795 15.1117 7.04772C15.4386 6.70693 15.5621 6.38561 15.5621 6.11217C15.5621 5.2883 15.2045 4.75599 14.6141 4.38141C13.9762 3.97671 13.044 3.75409 12 3.74158C10.956 3.75409 10.0238 3.97671 9.38591 4.38141Z" fill="#111824"/>
  <path d="M11.6249 10.3243C11.7538 9.976 12.2463 9.976 12.3752 10.3243L13.131 12.3669C13.1715 12.4764 13.2579 12.5628 13.3674 12.6033L15.4101 13.3591C15.7583 13.488 15.7583 13.9806 15.4101 14.1094L13.3674 14.8653C13.2579 14.9058 13.1715 14.9921 13.131 15.1016L12.3752 17.1443C12.2463 17.4925 11.7538 17.4925 11.6249 17.1443L10.869 15.1016C10.8285 14.9921 10.7422 14.9058 10.6327 14.8653L8.59001 14.1094C8.24176 13.9806 8.24176 13.488 8.59001 13.3591L10.6327 12.6033C10.7422 12.5628 10.8285 12.4764 10.869 12.3669L11.6249 10.3243Z" fill="#111824"/>
</svg>