<svg xmlns="http://www.w3.org/2000/svg" width="17" height="17" fill="none" viewBox="0 0 17 17"><path fill="#000" fill-opacity=".7" d="M8.5 1.18118L2.5 3.18118V9.18118C2.5 12.4952 5.18594 15.1812 8.5 15.1812C11.8141 15.1812 14.5 12.4952 14.5 9.18118V3.18118L8.5 1.18118ZM13.375 9.18118C13.375 11.8734 11.1922 14.0562 8.5 14.0562C5.80781 14.0562 3.625 11.8734 3.625 9.18118V4.02493L8.5 2.30618L13.375 4.02493V9.18118Z"/><path fill="#000" fill-opacity=".7" d="M6.41173 7.60462C6.35959 7.55225 6.29763 7.51069 6.22939 7.48233C6.16114 7.45397 6.08797 7.43938 6.01407 7.43938C5.94017 7.43938 5.867 7.45397 5.79876 7.48233C5.73052 7.51069 5.66855 7.55225 5.61642 7.60462C5.56404 7.65676 5.52248 7.71872 5.49413 7.78697C5.46577 7.85521 5.45117 7.92838 5.45117 8.00228C5.45117 8.07618 5.46577 8.14935 5.49413 8.21759C5.52248 8.28583 5.56404 8.3478 5.61642 8.39993L7.63829 10.4218L7.6711 10.4546C7.72042 10.504 7.77899 10.5432 7.84348 10.57C7.90796 10.5967 7.97708 10.6105 8.04689 10.6105C8.11669 10.6105 8.18582 10.5967 8.2503 10.57C8.31478 10.5432 8.37335 10.504 8.42267 10.4546L11.9149 6.96243C11.9643 6.91312 12.0035 6.85454 12.0302 6.79006C12.0569 6.72558 12.0707 6.65646 12.0707 6.58665C12.0707 6.51684 12.0569 6.44772 12.0302 6.38324C12.0035 6.31876 11.9643 6.26019 11.9149 6.21087L11.8711 6.16712C11.8218 6.11771 11.7632 6.07852 11.6987 6.05177C11.6343 6.02503 11.5651 6.01126 11.4953 6.01126C11.4255 6.01126 11.3564 6.02503 11.2919 6.05177C11.2274 6.07852 11.1689 6.11771 11.1195 6.16712L8.0461 9.239L6.41173 7.60462Z"/></svg>