<svg xmlns="http://www.w3.org/2000/svg" width="24" height="24" fill="none" viewBox="0 0 24 24"><path fill="#24282C" d="M20.0396 17.3046L16.4762 15.2736L12.6306 17.4699V21.535L20.0396 17.3046ZM11.3699 21.535V17.4675L7.5226 15.2729L3.96078 17.3046L11.3699 21.535ZM11.9962 16.39L15.8467 14.193V9.80374L11.9994 7.61069L8.15376 9.80374V14.1954L11.9978 16.3892L11.9962 16.39ZM3.33284 7.77437V16.2295L6.89627 14.1962V9.80612L3.33203 7.77278L3.33284 7.77437ZM19.1038 8.6651L17.1066 9.80612V14.1938L20.6684 16.2271V7.77119L19.1038 8.6651ZM3.96078 6.69533L7.52662 8.72867L11.3707 6.53403V2.46735L3.96078 6.69533ZM16.4762 8.72867L20.0413 6.69533L12.629 2.46497V6.53403L16.4762 8.72867Z"/></svg>