<svg width="1440" height="792" viewBox="0 0 1440 792" fill="none" xmlns="http://www.w3.org/2000/svg">
<g clip-path="url(#clip0_7506_9781)">
<rect width="1440" height="792" fill="url(#paint0_linear_7506_9781)"/>
<path d="M1079.62 51.1586C1061.72 42.48 1063.35 50.0738 1025.92 59.8372V101.603H1511.38C1512.11 69.239 1513.12 5.59601 1511.38 9.93541C1509.21 15.3597 1500.53 16.4444 1477.75 19.1564C1454.97 21.8685 1409.41 5.05358 1382.29 4.51117C1355.17 3.96875 1317.81 55.4801 1300.39 59.8372C1283.03 64.1764 1274.35 59.8372 1265.67 59.8372C1256.99 59.8372 1252.65 60.3797 1239.09 64.1766C1225.53 67.9735 1214.14 60.922 1198.41 59.8372C1182.68 58.7524 1164.24 60.3796 1157.19 59.8372C1150.14 59.2948 1129.53 51.1586 1117.05 51.1586C1104.57 51.1586 1097.52 59.8372 1079.62 51.1586Z" fill="url(#paint1_linear_7506_9781)"/>
<path d="M33.3119 40.3103C1.85199 37.5984 -58.3557 73.9398 -84.3915 75.567L-156.532 192.186L-48.5923 222.561L1009.11 161.268C1011.1 132.701 1006.72 75.567 973.311 75.567C931.546 75.567 886.525 40.3103 866.999 29.4619C847.472 18.6136 818.182 -36.7119 776.416 -33.4578C757.764 -32.0046 750.613 -27.1111 720.948 -6.81094L719.463 -5.7946C688.545 15.3597 633.762 27.8347 584.945 29.4619C536.128 31.0892 447.172 -2.54013 396.728 -5.7946C346.283 -9.04907 307.772 17.5291 243.225 49.5314C178.678 81.5337 189.526 60.3796 145.591 66.3462C101.656 72.3127 52.1875 41.9374 33.3119 40.3103Z" fill="url(#paint2_linear_7506_9781)"/>
<path d="M555.655 49.5319C524.737 36.514 490.565 56.0408 432.527 73.9404L418.967 124.384L877.847 137.945C899.724 114.079 936.319 62.7665 907.68 48.4469C871.881 30.5473 853.981 23.4961 836.081 23.4961C791.604 23.4961 748.211 73.9404 673.9 73.9404C599.59 73.9404 586.572 62.5497 555.655 49.5319Z" fill="url(#paint3_linear_7506_9781)"/>
<path d="M370.15 52.7859C294.754 58.21 232.377 111.909 224.783 111.909V351.112L1220.11 293.617L1207.09 159.099C1208.72 140.114 1211 100.735 1207.09 95.0939C1202.21 88.0426 1168.58 77.1944 1141.46 70.143C1114.34 63.0917 1074.2 60.922 1047.62 58.7524C1021.04 56.5827 967.893 27.3558 950.53 28.92C890.322 34.3438 882.186 111.909 779.128 111.909C676.07 111.909 637.558 74.4825 580.063 85.3308C522.567 96.179 482.971 92.9245 462.359 85.3308C441.748 77.737 392.36 51.188 370.15 52.7859Z" fill="url(#paint4_linear_7506_9781)"/>
<path d="M104.91 133.605C82.1292 149.878 30.0576 165.065 22.4639 169.405L80.5019 233.409L563.791 416.744L847.472 207.373C743.871 214.425 707.53 207.373 632.677 183.507C596.569 171.995 561.182 155.142 536.128 143.911C520.398 136.86 458.031 119.868 434.154 111.909C429.273 110.282 418.672 107.383 410.288 106.485C401.904 105.587 390.035 106.13 380.814 109.31C369.245 113.3 350.994 117.459 342.487 118.418C303.976 122.757 283.906 114.621 271.973 107.027C262.21 100.814 223.699 94.962 207.969 97.2637C184.103 100.756 127.692 117.333 104.91 133.605Z" fill="url(#paint5_linear_7506_9781)"/>
<path d="M747.477 251.851C693.769 273.548 589.369 368.97 573.443 383.115C557.517 397.259 549.688 420.541 549.688 420.541L747.477 576.213L1460.65 159.099C1461.86 131.074 1463.55 73.0721 1460.65 65.2614C1393 33.8015 1323.29 98.8909 1304.69 96.7213C1278.36 90.7547 1261.31 89.6699 1247.89 89.6699C1234.46 89.6699 1232.14 82.488 1199.34 75.0248C1179.47 70.5027 1160.61 90.7548 1142.54 89.6699C1124.46 88.5851 1085.22 47.3618 1055.26 47.3618C1032.54 47.3618 1005.17 64.719 977.8 89.6699C801.701 225.273 801.184 230.155 747.477 251.851Z" fill="url(#paint6_linear_7506_9781)"/>
<path d="M894.815 357.164C857.421 382.221 843.549 397.501 800.908 425.338C845.996 415.192 973.028 381.108 989.557 378.081C1006.09 375.054 1134.14 318.302 1196.1 290.304C1229.49 272.903 1295.88 194.601 1288.71 188.755C1279.75 181.447 1257 188.755 1233.22 197.563C1202.91 208.788 1126.39 226.291 1091.68 238.049C1056.96 249.806 1037.96 279.749 999.006 294.974C960.05 310.2 932.209 332.107 894.815 357.164Z" fill="url(#paint7_linear_7506_9781)"/>
<g filter="url(#filter0_f_7506_9781)">
<path d="M1127.69 163.304C1124.98 186.311 1123.89 188.229 1117.38 199.732C1123.35 199.732 1137.45 188.228 1142.88 179.121C1148.3 170.014 1156.44 153.717 1171.62 144.61C1186.81 135.502 1213.93 111.057 1226.95 104.346C1239.97 97.6355 1235.2 90.2452 1226.95 88.5286C1217.66 86.594 1210.17 85.754 1202.57 90.6882C1192.68 97.108 1179.22 117.288 1160.23 131.189C1141.25 145.089 1160.23 119.685 1151.55 124.478C1142.88 129.271 1130.4 140.296 1127.69 163.304Z" fill="url(#paint8_linear_7506_9781)" fill-opacity="0.05"/>
</g>
<path d="M680.408 370.098C633.761 399.93 633.218 394.506 613.149 429.763L574.638 414.033C574.638 410.804 569.492 396.321 573.011 386.912C575.599 379.989 583.793 377.743 591.452 370.098C615.64 345.956 680.408 323.45 700.477 291.448C720.546 259.446 748.965 258.291 772.618 244.801C791.693 233.921 841.453 190.424 864.415 182.649C858.268 199.826 830.005 249.031 805.705 268.124C775.33 291.99 727.055 340.265 680.408 370.098Z" fill="url(#paint9_linear_7506_9781)" fill-opacity="0.05"/>
<path d="M-26.3537 128.594C-29.0658 129.074 -45.8806 135.103 -58.8984 145.408V431.259L684.206 610.798L797.57 537.572C786.36 524.373 720.284 487.651 578.823 398.695C401.996 287.501 366.662 258.969 335.866 257.041C293.558 254.392 298.792 264.994 248.89 250.828C210.379 239.896 180.383 233.57 164.268 225.282C148.152 216.995 136.798 214.019 125.522 204.594C16.4964 113.47 -23.6417 128.114 -26.3537 128.594Z" fill="url(#paint10_linear_7506_9781)"/>
<path d="M30.0571 305.483C9.44549 285.414 -53.4743 267.514 -62.1529 266.429L-89.2734 390.099L-12.7934 384.133C8.36066 364.606 46.5464 321.538 30.0571 305.483Z" fill="url(#paint11_linear_7506_9781)"/>
<path d="M250.276 274.565C227.712 283.678 155.173 293.008 143.421 305.483C158.428 321.936 245.828 381.421 260.582 403.117C279.024 430.238 471.038 522.448 516.058 533.296C552.074 541.974 670.283 557.524 724.886 564.213L805.326 460.661C734.777 437.145 628.074 386.418 546.102 335.478C492.384 302.096 419.087 264.35 387.084 254.044C361.482 245.8 334.564 252.794 329.094 254.044C317.61 256.67 272.84 265.453 250.276 274.565Z" fill="url(#paint12_linear_7506_9781)"/>
<g filter="url(#filter1_f_7506_9781)">
<path d="M767.737 391.251C746.228 402.939 686.507 447.594 669.561 464.476L739.532 538.787L862.659 472.07C878.736 438.954 1009.46 275.175 1004.77 275.175C998.905 275.175 915.186 300.264 899.543 312.601C883.9 324.938 789.246 379.563 767.737 391.251Z" fill="url(#paint13_linear_7506_9781)" fill-opacity="0.4"/>
</g>
<path d="M847.891 373.477C808.837 394.064 692.019 550.919 640.49 574.584L721.632 815.468H1515.18C1515.72 578.636 1516.48 105.421 1515.18 107.224C1459.25 125.013 1439.79 130.325 1398.56 142.721C1357.34 155.116 1299.91 156.768 1242.38 174.755C1186.51 192.221 1124.94 245.933 1095.77 262.99C1013.81 310.921 983.494 301.996 847.891 373.477Z" fill="url(#paint14_linear_7506_9781)"/>
<g filter="url(#filter2_f_7506_9781)">
<path d="M1404.96 226.875C1442.48 183.937 1428.21 179.998 1455.26 151.077C1463.54 144.443 1483.32 129.931 1496.17 124.951C1509.02 119.972 1526.37 119.369 1533.43 119.69C1533.31 136.98 1532.53 173.353 1530.34 180.516C1527.6 189.47 1491.23 205.225 1474.71 219.591C1458.2 233.957 1425.6 250.175 1410.14 255.928C1394.68 261.68 1365.6 284.887 1364.38 281.458C1363.16 278.03 1367.45 269.813 1404.96 226.875Z" fill="url(#paint15_linear_7506_9781)"/>
</g>
<g filter="url(#filter3_f_7506_9781)">
<path d="M1238.9 440.903C1226.34 449.164 1214.23 473.03 1201.67 498.273L1222.3 511.124L1368.53 390.417C1379.6 367.009 1400.92 320.195 1397.69 320.195C1393.65 320.195 1367.64 329.374 1356.87 338.095C1346.1 346.815 1341.62 358.289 1326.82 366.55C1312.01 374.812 1284.65 393.17 1272.99 405.103C1261.33 417.036 1251.46 432.641 1238.9 440.903Z" fill="#234682"/>
</g>
<path d="M80.502 282.593C21.9216 288.017 -2.48692 331.952 -61.0674 365.039V795.714H769.365C771.173 729.178 836.817 572 832.478 567.661C799.391 564.948 755.477 539.357 707.745 521.891C666.915 506.95 455.833 491.276 335.418 392.488C223.681 300.821 139.083 277.169 80.502 282.593Z" fill="url(#paint16_linear_7506_9781)"/>
<g filter="url(#filter4_f_7506_9781)">
<path d="M692.651 646.234C679.189 655.481 666.208 682.195 652.746 710.45L674.862 724.834L831.598 589.724C843.457 563.524 866.311 511.124 862.849 511.124C858.522 511.124 830.636 521.399 819.097 531.159C807.559 540.92 802.751 553.763 786.885 563.01C771.019 572.257 741.691 592.807 729.191 606.163C716.69 619.52 706.113 636.987 692.651 646.234Z" fill="#1E3776" fill-opacity="0.3"/>
</g>
<path d="M727.511 598.983C687.41 650.238 583.575 757.565 536.67 804.821L1141.2 800.05C1139.19 733.028 1328.1 428.784 1323.75 418.424C1318.31 405.474 1134.32 481.863 1122.31 511.457C1113.98 531.972 1058.51 484.335 1042.83 474.365C1029.86 466.12 1006.15 459.271 990.589 454.346C975.03 449.421 961.701 447.243 929.592 454.347C878.602 465.627 777.637 534.915 727.511 598.983Z" fill="url(#paint17_linear_7506_9781)"/>
<path d="M1057.93 600.823C1030.16 647.682 908.945 751.989 851.811 798.285L846.93 801.908H851.811H1505.96V215.561C1483.18 239.715 1476.13 239.715 1440.87 255.415C1405.61 271.116 1381.75 255.415 1322.62 329.086C1263.5 402.757 1200.58 437.781 1155.02 472.805C1109.46 507.828 1092.64 542.248 1057.93 600.823Z" fill="url(#paint18_linear_7506_9781)"/>
<path d="M-13.8783 601.64C-30.8015 586.452 -50.9431 581.932 -58.8984 581.571V794.738C149.207 795.281 565.417 796.04 565.417 794.738C558.366 789.857 556.196 784.433 527.449 779.551C498.701 774.669 436.323 742.667 405.406 722.598C374.488 702.528 365.267 701.444 329.468 690.595C293.669 679.747 251.361 637.439 197.12 637.439C142.879 637.439 143.964 644.49 115.216 637.439C86.4679 630.388 7.27578 620.624 -13.8783 601.64Z" fill="url(#paint19_linear_7506_9781)"/>
</g>
<defs>
<filter id="filter0_f_7506_9781" x="1113.38" y="83.0083" width="125.64" height="120.724" filterUnits="userSpaceOnUse" color-interpolation-filters="sRGB">
<feFlood flood-opacity="0" result="BackgroundImageFix"/>
<feBlend mode="normal" in="SourceGraphic" in2="BackgroundImageFix" result="shape"/>
<feGaussianBlur stdDeviation="2" result="effect1_foregroundBlur_7506_9781"/>
</filter>
<filter id="filter1_f_7506_9781" x="553.561" y="159.175" width="567.334" height="495.612" filterUnits="userSpaceOnUse" color-interpolation-filters="sRGB">
<feFlood flood-opacity="0" result="BackgroundImageFix"/>
<feBlend mode="normal" in="SourceGraphic" in2="BackgroundImageFix" result="shape"/>
<feGaussianBlur stdDeviation="58" result="effect1_foregroundBlur_7506_9781"/>
</filter>
<filter id="filter2_f_7506_9781" x="1352.2" y="107.619" width="193.228" height="186.184" filterUnits="userSpaceOnUse" color-interpolation-filters="sRGB">
<feFlood flood-opacity="0" result="BackgroundImageFix"/>
<feBlend mode="normal" in="SourceGraphic" in2="BackgroundImageFix" result="shape"/>
<feGaussianBlur stdDeviation="6" result="effect1_foregroundBlur_7506_9781"/>
</filter>
<filter id="filter3_f_7506_9781" x="1161.67" y="280.195" width="276.353" height="270.929" filterUnits="userSpaceOnUse" color-interpolation-filters="sRGB">
<feFlood flood-opacity="0" result="BackgroundImageFix"/>
<feBlend mode="normal" in="SourceGraphic" in2="BackgroundImageFix" result="shape"/>
<feGaussianBlur stdDeviation="20" result="effect1_foregroundBlur_7506_9781"/>
</filter>
<filter id="filter4_f_7506_9781" x="612.746" y="471.124" width="290.456" height="293.71" filterUnits="userSpaceOnUse" color-interpolation-filters="sRGB">
<feFlood flood-opacity="0" result="BackgroundImageFix"/>
<feBlend mode="normal" in="SourceGraphic" in2="BackgroundImageFix" result="shape"/>
<feGaussianBlur stdDeviation="20" result="effect1_foregroundBlur_7506_9781"/>
</filter>
<linearGradient id="paint0_linear_7506_9781" x1="0" y1="0" x2="1471.5" y2="178.5" gradientUnits="userSpaceOnUse">
<stop stop-color="#A0CCEE"/>
<stop offset="1" stop-color="#9DCCEE"/>
</linearGradient>
<linearGradient id="paint1_linear_7506_9781" x1="1502.7" y1="25.1228" x2="1195.16" y2="101.06" gradientUnits="userSpaceOnUse">
<stop stop-color="#91C5EC"/>
<stop offset="1" stop-color="#92C5EC"/>
</linearGradient>
<linearGradient id="paint2_linear_7506_9781" x1="790.519" y1="-6.87936" x2="-107.173" y2="153.132" gradientUnits="userSpaceOnUse">
<stop stop-color="#97CAEC"/>
<stop offset="1" stop-color="#95C9EC"/>
</linearGradient>
<linearGradient id="paint3_linear_7506_9781" x1="541.552" y1="137.945" x2="760.144" y2="20.784" gradientUnits="userSpaceOnUse">
<stop stop-color="#8CC6EB"/>
<stop offset="1" stop-color="#8AC5EA"/>
</linearGradient>
<linearGradient id="paint4_linear_7506_9781" x1="605.065" y1="8.17059" x2="722.446" y2="351.112" gradientUnits="userSpaceOnUse">
<stop stop-color="#79C1E2"/>
<stop offset="0.657875" stop-color="#7ABEE1"/>
<stop offset="1" stop-color="#71B7DC"/>
</linearGradient>
<linearGradient id="paint5_linear_7506_9781" x1="497.074" y1="-35.0843" x2="548.603" y2="416.745" gradientUnits="userSpaceOnUse">
<stop stop-color="#49A3D3"/>
<stop offset="0.401042" stop-color="#4394BF"/>
<stop offset="0.973958" stop-color="#4493C1"/>
</linearGradient>
<linearGradient id="paint6_linear_7506_9781" x1="977.5" y1="46.9999" x2="1178.82" y2="428.307" gradientUnits="userSpaceOnUse">
<stop stop-color="#327FB4"/>
<stop offset="0.34375" stop-color="#3882B8"/>
<stop offset="0.619792" stop-color="#3980B3"/>
<stop offset="1" stop-color="#2A6AB5"/>
</linearGradient>
<linearGradient id="paint7_linear_7506_9781" x1="1075.1" y1="201.482" x2="1047" y2="437.684" gradientUnits="userSpaceOnUse">
<stop stop-color="#296CAD"/>
<stop offset="1" stop-color="#2269AD"/>
</linearGradient>
<linearGradient id="paint8_linear_7506_9781" x1="1132.57" y1="199.732" x2="1191.34" y2="86.0137" gradientUnits="userSpaceOnUse">
<stop stop-color="white" stop-opacity="0.6"/>
<stop offset="1" stop-color="white" stop-opacity="0"/>
</linearGradient>
<linearGradient id="paint9_linear_7506_9781" x1="689.5" y1="289" x2="689.5" y2="387.5" gradientUnits="userSpaceOnUse">
<stop stop-color="white" stop-opacity="0.2"/>
<stop offset="1" stop-color="white" stop-opacity="0.7"/>
</linearGradient>
<linearGradient id="paint10_linear_7506_9781" x1="8.90325" y1="128.114" x2="36.0238" y2="610.861" gradientUnits="userSpaceOnUse">
<stop stop-color="#3077B1"/>
<stop offset="0.505208" stop-color="#2E75B1"/>
<stop offset="1" stop-color="#2167A2"/>
</linearGradient>
<linearGradient id="paint11_linear_7506_9781" x1="-27.5974" y1="266.429" x2="-27.5974" y2="390.099" gradientUnits="userSpaceOnUse">
<stop stop-color="#28619E"/>
<stop offset="1" stop-color="#2662A0"/>
</linearGradient>
<linearGradient id="paint12_linear_7506_9781" x1="225.325" y1="264.802" x2="209.053" y2="493.157" gradientUnits="userSpaceOnUse">
<stop stop-color="#2269AD"/>
<stop offset="1" stop-color="#1B529C"/>
</linearGradient>
<linearGradient id="paint13_linear_7506_9781" x1="837.166" y1="511.666" x2="911.476" y2="266.496" gradientUnits="userSpaceOnUse">
<stop stop-color="#4173B0"/>
<stop offset="1" stop-color="#3E78BB"/>
</linearGradient>
<linearGradient id="paint14_linear_7506_9781" x1="1214.14" y1="106.66" x2="1070.49" y2="911.118" gradientUnits="userSpaceOnUse">
<stop stop-color="#174D98"/>
<stop offset="0.4375" stop-color="#103C89"/>
<stop offset="1" stop-color="#143B84"/>
</linearGradient>
<linearGradient id="paint15_linear_7506_9781" x1="1431.99" y1="259.414" x2="1493.29" y2="128.15" gradientUnits="userSpaceOnUse">
<stop stop-color="#204E99"/>
<stop offset="1" stop-color="#2C5AA1"/>
</linearGradient>
<linearGradient id="paint16_linear_7506_9781" x1="92.4351" y1="282.159" x2="234.547" y2="795.281" gradientUnits="userSpaceOnUse">
<stop stop-color="#154089"/>
<stop offset="1" stop-color="#112572"/>
</linearGradient>
<linearGradient id="paint17_linear_7506_9781" x1="1014.98" y1="425.609" x2="542.202" y2="749.104" gradientUnits="userSpaceOnUse">
<stop stop-color="#112979"/>
<stop offset="1" stop-color="#0C1A60"/>
</linearGradient>
<linearGradient id="paint18_linear_7506_9781" x1="1017.79" y1="885.24" x2="1403.34" y2="250.418" gradientUnits="userSpaceOnUse">
<stop stop-color="#08195D"/>
<stop offset="1" stop-color="#13347C"/>
</linearGradient>
<linearGradient id="paint19_linear_7506_9781" x1="490.022" y1="795.281" x2="-24.1841" y2="581.571" gradientUnits="userSpaceOnUse">
<stop stop-color="#0F236E"/>
<stop offset="1" stop-color="#0A1763"/>
</linearGradient>
<clipPath id="clip0_7506_9781">
<rect width="1440" height="792" fill="white"/>
</clipPath>
</defs>
</svg>
