<svg width="1440" height="792" viewBox="0 0 1440 792" fill="none" xmlns="http://www.w3.org/2000/svg">
<g clip-path="url(#clip0_3707_84181)">
<rect width="1440" height="792" fill="url(#paint0_linear_3707_84181)"/>
<path d="M1049.5 94.9996C1033 86.9996 1034.5 93.9996 1000 103V141.5H1447.5C1448.17 111.666 1449.1 52.9996 1447.5 56.9997C1445.5 61.9998 1437.5 62.9997 1416.5 65.4997C1395.5 67.9997 1353.5 52.4996 1328.5 51.9996C1303.5 51.4996 1269.07 98.9832 1253 103C1237 107 1229 103 1221 103C1213 103 1209 103.5 1196.5 107C1184 110.5 1173.5 104 1159 103C1144.5 102 1127.5 103.5 1121 103C1114.5 102.5 1095.5 94.9996 1084 94.9996C1072.5 94.9996 1066 103 1049.5 94.9996Z" fill="url(#paint1_linear_3707_84181)"/>
<path d="M85 84.9998C56 82.4999 0.5 116 -23.5 117.5L-90 225L9.5 253L984.5 196.5C986.333 170.167 982.3 117.5 951.5 117.5C913 117.5 871.5 84.9998 853.5 74.9997C835.5 64.9996 808.5 14 770 16.9997C752.806 18.3393 746.214 22.8501 718.869 41.563L717.5 42.4999C689 62.0001 638.5 73.4997 593.5 74.9997C548.5 76.4997 466.5 45.4999 420 42.4999C373.5 39.4999 338 63.9999 278.5 93.4999C219 123 229 103.5 188.5 109C148 114.5 102.4 86.4997 85 84.9998Z" fill="url(#paint2_linear_3707_84181)"/>
<path d="M566.5 93.5C538 81.5 506.5 99.5 453 116L440.5 162.5L863.5 175C883.667 153 917.4 105.7 891 92.4998C858 75.9998 841.5 69.5 825 69.5C784 69.5 744 116 675.5 116C607 116 595 105.5 566.5 93.5Z" fill="url(#paint3_linear_3707_84181)"/>
<path d="M395.5 96.5C326 101.5 268.5 151 261.5 151V371.5L1179 318.5L1167 194.5C1168.5 177 1170.6 140.7 1167 135.5C1162.5 129 1131.5 119 1106.5 112.5C1081.5 106 1044.5 104 1020 102C995.5 100 946.505 73.0583 930.5 74.5002C875 79.4999 867.5 151 772.5 151C677.5 151 642 116.5 589 126.5C536 136.5 499.5 133.5 480.5 126.5C461.5 119.5 415.974 95.0271 395.5 96.5Z" fill="url(#paint4_linear_3707_84181)"/>
<path d="M151 171C130 186 82 200 75 204L128.5 263L574 432L835.5 239C740 245.5 706.5 239 637.5 217C604.215 206.387 571.595 190.853 548.5 180.5C534 174 476.51 158.336 454.5 151C450 149.5 440 146 432.5 146C425 146 415 147.068 406.5 150C395.835 153.678 377.842 156.116 370 157C334.5 161 316 153.499 305 146.5C296 140.773 260.5 135.378 246 137.5C224 140.719 172 156 151 171Z" fill="url(#paint5_linear_3707_84181)"/>
<path d="M752.5 280C700.5 300 603.5 391 584 401L561 435.5L752.5 579L1443 194.5C1444.17 168.667 1445.8 115.2 1443 108C1377.5 79 1310 139 1292 137C1266.5 131.5 1250 130.5 1237 130.5C1224 130.5 1220 123.5 1190 117C1148.5 121.5 1152.5 131.5 1135 130.5C1117.5 129.5 1079.5 91.5 1050.5 91.5C1028.5 91.5 1002 107.5 975.5 130.5C805 255.5 804.5 260 752.5 280Z" fill="url(#paint6_linear_3707_84181)"/>
<path d="M951 402.5C919.5 428.5 937 428.5 901 457.5C941.167 443.833 1025.2 415.4 1040 411C1054.8 406.6 1165.83 343.167 1219.5 312C1248.17 293.167 1302.7 242.4 1295.5 238C1286.5 232.5 1257 239.5 1227.5 243.5C1198 247.5 1150.5 293.5 1120 307.5C1089.5 321.5 1074 341 1040 358.5C1006 376 982.5 376.5 951 402.5Z" fill="url(#paint7_linear_3707_84181)"/>
<g filter="url(#filter0_f_3707_84181)">
<path d="M1109.5 200C1107 224 1106 226 1100 238C1105.5 238 1118.5 226 1123.5 216.5C1128.5 207 1136 190 1150 180.5C1164 171 1189 145.5 1201 138.5C1213 131.5 1207 127 1201 122C1195 117 1188 114 1180 122C1172 130 1157 152 1139.5 166.5C1122 181 1139.5 154.5 1131.5 159.5C1123.5 164.5 1112 176 1109.5 200Z" fill="url(#paint8_linear_3707_84181)" fill-opacity="0.5"/>
</g>
<path d="M681.5 389C638.5 416.5 638 411.5 619.5 444L584 429.5C584 426.524 579.257 413.173 582.5 404.5C584.886 398.118 594.243 397.478 599.5 389C615 364 681.5 346 700 316.5C718.5 287 746.5 289 766.5 273.5C782.5 261.1 828.833 243.667 850 236.5C844.333 252.333 819.4 277.4 797 295C769 317 724.5 361.5 681.5 389Z" fill="url(#paint9_linear_3707_84181)"/>
<path d="M30 177.442C27.5 177.884 12 183.442 0 192.942V456.442L685 621.942L789.5 554.442C779.167 542.275 725.9 497.442 595.5 415.442C432.5 312.942 384.887 305.277 356.5 303.5C317.5 301.058 310.5 312 264.5 298.942C229 288.864 209 273.157 198 267.5C187 261.843 177.927 254.126 170 247.5C69.5 163.5 32.5 177 30 177.442Z" fill="url(#paint10_linear_3707_84181)"/>
<path d="M82 340.5C63 322 5 305.5 -3 304.5L-28 418.5L42.5 413C62 395 97.2 355.3 82 340.5Z" fill="url(#paint11_linear_3707_84181)" fill-opacity="0.6"/>
<path d="M285 312C264.2 320.4 197.333 329 186.5 340.5C200.333 355.667 280.9 410.5 294.5 430.5C311.5 455.5 488.5 540.5 530 550.5C563.2 558.5 672.167 572.833 722.5 579L772.5 526.5C722.5 504 638 440.5 558.5 390C519.5 365.226 432.5 321.5 403 312C379.4 304.4 362.5 303 350 303C340.167 303.5 305.8 303.6 285 312Z" fill="url(#paint12_linear_3707_84181)"/>
<g filter="url(#filter1_f_3707_84181)">
<path d="M762 408.5C742.173 419.274 687.121 460.438 671.5 476L736 544.5L849.5 483C864.32 452.474 984.826 301.5 980.5 301.5C975.093 301.5 897.92 324.627 883.5 336C869.08 347.373 781.827 397.726 762 408.5Z" fill="url(#paint13_linear_3707_84181)"/>
</g>
<path d="M805.5 491C769.5 509.269 752 560.5 704.5 581.5L719.5 806H1451C1451.5 595.833 1452.2 175.9 1451 177.5C1397.5 215.5 1381.5 198 1343.5 209C1305.5 220 1292.53 231.539 1239.5 247.5C1188 263 1105.38 351.822 1079.5 368.5C994 423.59 930.5 427.567 805.5 491Z" fill="url(#paint14_linear_3707_84181)"/>
<g filter="url(#filter2_f_3707_84181)">
<path d="M1356.08 287.505C1390.66 247.925 1377.51 244.294 1402.44 217.634C1410.08 211.519 1428.31 198.142 1440.16 193.551C1452.01 188.961 1467.99 188.405 1474.51 188.701C1474.4 204.64 1473.67 238.168 1471.65 244.771C1469.13 253.025 1435.61 267.548 1420.38 280.791C1405.15 294.034 1375.11 308.984 1360.85 314.286C1346.6 319.589 1319.79 340.982 1318.67 337.821C1317.55 334.661 1321.5 327.086 1356.08 287.505Z" fill="url(#paint15_linear_3707_84181)"/>
</g>
<g filter="url(#filter3_f_3707_84181)">
<path d="M1196.32 454.269C1184.74 461.885 1173.58 483.885 1162 507.154L1181.02 519L1315.82 407.731C1326.02 386.154 1345.67 343 1342.7 343C1338.98 343 1314.99 351.462 1305.07 359.5C1295.14 367.538 1291.01 378.115 1277.36 385.731C1263.72 393.346 1238.5 410.269 1227.75 421.269C1216.99 432.269 1207.9 446.654 1196.32 454.269Z" fill="#5D5A6F" fill-opacity="0.5"/>
</g>
<path d="M128.5 319.4C74.5 324.4 52 364.9 -2 395.4V792.399H763.5C765.167 731.066 809.5 586 805.5 582C775 579.5 752 582 708 565.899C670.363 552.127 501.5 531.963 390.5 440.9C287.5 356.4 182.5 314.4 128.5 319.4Z" fill="url(#paint16_linear_3707_84181)"/>
<g filter="url(#filter4_f_3707_84181)">
<path d="M692.785 643.546C680.376 652.07 668.409 676.695 656 702.74L676.387 716L820.867 591.454C831.799 567.303 852.866 519 849.675 519C845.686 519 819.981 528.471 809.344 537.469C798.708 546.466 794.276 558.305 779.65 566.829C765.025 575.353 737.99 594.296 726.467 606.608C714.944 618.921 705.194 635.022 692.785 643.546Z" fill="#2A3D57" fill-opacity="0.7"/>
</g>
<g filter="url(#filter5_f_3707_84181)">
<path d="M686.5 529C669.677 539.774 681.823 595.32 665 628.24L692.638 645L888.506 487.579C903.326 457.053 931.885 396 927.559 396C922.152 396 887.304 407.971 872.884 419.344C858.464 430.716 852.456 445.68 832.629 456.454C812.802 467.228 755.121 465.937 739.5 481.5C723.879 497.062 703.323 518.226 686.5 529Z" fill="#5D5A6F" fill-opacity="0.3"/>
</g>
<path d="M707 645.185C673.8 682.785 587.833 761.518 549 796.185L1049.5 792.685C1047.83 743.518 1104.1 611.099 1100.5 603.5C1096 594 1051 602 1036 595C1021 588 960 549 951 544.5C946.983 542.491 936 537.256 924.5 535.685C908.5 533.5 901.5 533.127 874 535.685C831 539.685 748.5 598.185 707 645.185Z" fill="url(#paint17_linear_3707_84181)"/>
<path d="M1029.5 627C1003.9 665.8 892.167 752.167 839.5 790.5L835 793.5H839.5H1442.5V308C1421.5 328 1415 328 1382.5 341C1350 354 1328 341 1273.5 402C1219 463 1161 492 1119 521C1077 550 1061.5 578.5 1029.5 627Z" fill="url(#paint18_linear_3707_84181)"/>
<path d="M41.5 613.5C25.9 599.5 7.33333 595.333 0 595V791.5C191.833 792 575.5 792.7 575.5 791.5C569 787 567 782 540.5 777.5C514 773 456.5 743.5 428 725C399.5 706.5 391 705.5 358 695.5C325 685.5 286 646.5 236 646.5C186 646.5 187 653 160.5 646.5C134 640 61 631 41.5 613.5Z" fill="url(#paint19_linear_3707_84181)"/>
<g filter="url(#filter6_f_3707_84181)">
<path d="M1253.5 433.5C1241.5 442.5 1236 441.5 1228 445.5C1232.67 440.833 1243.7 430.3 1250.5 425.5C1259 419.5 1275.31 397.736 1283.5 391C1306 372.5 1316.5 365 1327 357.5C1337.5 350 1352.5 350.5 1363 347.5C1373.5 344.5 1389 340 1409.5 332C1425.9 325.6 1437 310 1440.5 303L1447 301V343C1445.67 346.333 1440.9 355.4 1432.5 365C1422 377 1389 382.5 1380 390C1371 397.5 1349.5 401 1338 401C1326.5 401 1306.5 402 1289 407.5C1271.5 413 1265.5 424.5 1253.5 433.5Z" fill="url(#paint20_linear_3707_84181)" fill-opacity="0.1"/>
</g>
</g>
<defs>
<filter id="filter0_f_3707_84181" x="1096" y="113.062" width="115.928" height="128.938" filterUnits="userSpaceOnUse" color-interpolation-filters="sRGB">
<feFlood flood-opacity="0" result="BackgroundImageFix"/>
<feBlend mode="normal" in="SourceGraphic" in2="BackgroundImageFix" result="shape"/>
<feGaussianBlur stdDeviation="2" result="effect1_foregroundBlur_3707_84181"/>
</filter>
<filter id="filter1_f_3707_84181" x="555.5" y="185.5" width="541.114" height="475" filterUnits="userSpaceOnUse" color-interpolation-filters="sRGB">
<feFlood flood-opacity="0" result="BackgroundImageFix"/>
<feBlend mode="normal" in="SourceGraphic" in2="BackgroundImageFix" result="shape"/>
<feGaussianBlur stdDeviation="58" result="effect1_foregroundBlur_3707_84181"/>
</filter>
<filter id="filter2_f_3707_84181" x="1306.51" y="176.636" width="179.996" height="173.502" filterUnits="userSpaceOnUse" color-interpolation-filters="sRGB">
<feFlood flood-opacity="0" result="BackgroundImageFix"/>
<feBlend mode="normal" in="SourceGraphic" in2="BackgroundImageFix" result="shape"/>
<feGaussianBlur stdDeviation="6" result="effect1_foregroundBlur_3707_84181"/>
</filter>
<filter id="filter3_f_3707_84181" x="1122" y="303" width="261" height="256" filterUnits="userSpaceOnUse" color-interpolation-filters="sRGB">
<feFlood flood-opacity="0" result="BackgroundImageFix"/>
<feBlend mode="normal" in="SourceGraphic" in2="BackgroundImageFix" result="shape"/>
<feGaussianBlur stdDeviation="20" result="effect1_foregroundBlur_3707_84181"/>
</filter>
<filter id="filter4_f_3707_84181" x="616" y="479" width="274" height="277" filterUnits="userSpaceOnUse" color-interpolation-filters="sRGB">
<feFlood flood-opacity="0" result="BackgroundImageFix"/>
<feBlend mode="normal" in="SourceGraphic" in2="BackgroundImageFix" result="shape"/>
<feGaussianBlur stdDeviation="20" result="effect1_foregroundBlur_3707_84181"/>
</filter>
<filter id="filter5_f_3707_84181" x="523" y="254" width="547" height="533" filterUnits="userSpaceOnUse" color-interpolation-filters="sRGB">
<feFlood flood-opacity="0" result="BackgroundImageFix"/>
<feBlend mode="normal" in="SourceGraphic" in2="BackgroundImageFix" result="shape"/>
<feGaussianBlur stdDeviation="71" result="effect1_foregroundBlur_3707_84181"/>
</filter>
<filter id="filter6_f_3707_84181" x="1215" y="288" width="245" height="170.5" filterUnits="userSpaceOnUse" color-interpolation-filters="sRGB">
<feFlood flood-opacity="0" result="BackgroundImageFix"/>
<feBlend mode="normal" in="SourceGraphic" in2="BackgroundImageFix" result="shape"/>
<feGaussianBlur stdDeviation="6.5" result="effect1_foregroundBlur_3707_84181"/>
</filter>
<linearGradient id="paint0_linear_3707_84181" x1="0" y1="0" x2="1471.5" y2="178.5" gradientUnits="userSpaceOnUse">
<stop stop-color="#FEB149"/>
<stop offset="0.151042" stop-color="#FFBD4C"/>
<stop offset="0.333333" stop-color="#FFB74B"/>
<stop offset="0.557292" stop-color="#FFBD4C"/>
<stop offset="0.697917" stop-color="#FFBC4F"/>
<stop offset="1" stop-color="#FDB561"/>
</linearGradient>
<linearGradient id="paint1_linear_3707_84181" x1="1439.5" y1="70.9996" x2="1156" y2="141" gradientUnits="userSpaceOnUse">
<stop stop-color="#F3AC72"/>
<stop offset="1" stop-color="#EDAA75"/>
</linearGradient>
<linearGradient id="paint2_linear_3707_84181" x1="783" y1="41.4999" x2="-44.4999" y2="189" gradientUnits="userSpaceOnUse">
<stop stop-color="#FEB456"/>
<stop offset="0.442708" stop-color="#F9AA5B"/>
<stop offset="0.760417" stop-color="#F5A866"/>
<stop offset="1" stop-color="#FEB45F"/>
</linearGradient>
<linearGradient id="paint3_linear_3707_84181" x1="553.5" y1="175" x2="755" y2="67" gradientUnits="userSpaceOnUse">
<stop stop-color="#F8A758"/>
<stop offset="1" stop-color="#F7AF65"/>
</linearGradient>
<linearGradient id="paint4_linear_3707_84181" x1="416" y1="128.5" x2="1179" y2="160.5" gradientUnits="userSpaceOnUse">
<stop stop-color="#EC9E5D"/>
<stop offset="0.657875" stop-color="#ECA265"/>
<stop offset="1" stop-color="#D79E79"/>
</linearGradient>
<linearGradient id="paint5_linear_3707_84181" x1="512.5" y1="15.5" x2="560" y2="432" gradientUnits="userSpaceOnUse">
<stop stop-color="#BE866C"/>
<stop offset="0.401042" stop-color="#B38470"/>
<stop offset="0.973958" stop-color="#9C7D76"/>
</linearGradient>
<linearGradient id="paint6_linear_3707_84181" x1="1041.5" y1="33.5" x2="1160.5" y2="447.5" gradientUnits="userSpaceOnUse">
<stop stop-color="#97797C"/>
<stop offset="0.34375" stop-color="#8D7377"/>
<stop offset="0.619792" stop-color="#746971"/>
<stop offset="1" stop-color="#4E546A"/>
</linearGradient>
<linearGradient id="paint7_linear_3707_84181" x1="1099.07" y1="246.416" x2="1099.07" y2="457.5" gradientUnits="userSpaceOnUse">
<stop stop-color="#6C6473"/>
<stop offset="1" stop-color="#5E5B6C"/>
</linearGradient>
<linearGradient id="paint8_linear_3707_84181" x1="1114" y1="238" x2="1179.5" y2="126" gradientUnits="userSpaceOnUse">
<stop stop-color="#907473"/>
<stop offset="1" stop-color="#927371"/>
</linearGradient>
<linearGradient id="paint9_linear_3707_84181" x1="864" y1="231.5" x2="684" y2="444" gradientUnits="userSpaceOnUse">
<stop stop-color="#8E7478"/>
<stop offset="1" stop-color="#7E6E71"/>
</linearGradient>
<linearGradient id="paint10_linear_3707_84181" x1="62.5002" y1="177" x2="87.5001" y2="622" gradientUnits="userSpaceOnUse">
<stop stop-color="#9A7776"/>
<stop offset="0.505208" stop-color="#6F636D"/>
<stop offset="1" stop-color="#444F65"/>
</linearGradient>
<linearGradient id="paint11_linear_3707_84181" x1="28.8535" y1="304.5" x2="28.8535" y2="418.5" gradientUnits="userSpaceOnUse">
<stop stop-color="#595160"/>
<stop offset="1" stop-color="#595469"/>
</linearGradient>
<linearGradient id="paint12_linear_3707_84181" x1="262" y1="303" x2="247" y2="513.5" gradientUnits="userSpaceOnUse">
<stop stop-color="#796870"/>
<stop offset="1" stop-color="#3E4B64"/>
</linearGradient>
<linearGradient id="paint13_linear_3707_84181" x1="826" y1="519.5" x2="894.5" y2="293.5" gradientUnits="userSpaceOnUse">
<stop stop-color="#656170"/>
<stop offset="1" stop-color="#5D5A6F" stop-opacity="0"/>
</linearGradient>
<linearGradient id="paint14_linear_3707_84181" x1="1173.5" y1="177" x2="1050.5" y2="892.5" gradientUnits="userSpaceOnUse">
<stop stop-color="#685F72"/>
<stop offset="0.4375" stop-color="#3C4963"/>
<stop offset="1" stop-color="#263F60"/>
</linearGradient>
<linearGradient id="paint15_linear_3707_84181" x1="1381" y1="317.5" x2="1437.5" y2="196.5" gradientUnits="userSpaceOnUse">
<stop stop-color="#605C70"/>
<stop offset="1" stop-color="#665E73"/>
</linearGradient>
<linearGradient id="paint16_linear_3707_84181" x1="139.5" y1="319" x2="270.5" y2="792" gradientUnits="userSpaceOnUse">
<stop stop-color="#595160"/>
<stop offset="1" stop-color="#163453"/>
</linearGradient>
<linearGradient id="paint17_linear_3707_84181" x1="945" y1="518" x2="585" y2="796" gradientUnits="userSpaceOnUse">
<stop stop-color="#1D3656"/>
<stop offset="1" stop-color="#122C47"/>
</linearGradient>
<linearGradient id="paint18_linear_3707_84181" x1="992.5" y1="862.5" x2="1295" y2="308" gradientUnits="userSpaceOnUse">
<stop stop-color="#102B4A"/>
<stop offset="1" stop-color="#39455F"/>
</linearGradient>
<linearGradient id="paint19_linear_3707_84181" x1="506" y1="792" x2="32" y2="595" gradientUnits="userSpaceOnUse">
<stop stop-color="#132D49"/>
<stop offset="1" stop-color="#162F4E"/>
</linearGradient>
<linearGradient id="paint20_linear_3707_84181" x1="1392.5" y1="337.5" x2="1380" y2="381.5" gradientUnits="userSpaceOnUse">
<stop stop-color="#5D5A6F"/>
<stop offset="1" stop-color="#57576C"/>
</linearGradient>
<clipPath id="clip0_3707_84181">
<rect width="1440" height="792" fill="white"/>
</clipPath>
</defs>
</svg>
