<svg xmlns="http://www.w3.org/2000/svg" fill="none" viewBox="0 0 527 259"><path fill="url(#a)" fill-opacity=".25" d="m350.82.15 44.03 25.48.25.15v50.37l42.65-24.54.25-.14.25.14 44.02 25.33.25.15v51.65l43.78 25.18.25.15v52.22l-.25.15-43.77 25.19v.61l-.26.15-44.02 25.33-.25.14-.25-.14-43.77-25.19-43.47 25.19-.25.14-.25-.14-43.71-25.33-.25-.15v-50.89l-42.97 24.9-.25.15-.25-.15-42.34-24.54v51l-.25.14-44.34 25.49-.25.14-.25-.14-44.33-25.49-.06-.03-.06.03L87 258.34l-.25.14-.26-.14-43.71-25.49-.25-.14v-.78L.25 207.28l-.25-.14V154.6l.25-.14 43.71-25.49.25-.14.26.14 42.08 24.54v-50.29l.25-.14 44.33-25.33.25-.15.25.15 44.33 25.33.25.14v.98l42.4 24.4v-.05l.26-.14 43.71-25.33.06-.04V51.66l.25-.14 43.16-25v-.74l.25-.15L350.32.15l.25-.15zM131.57 231.62v.51l43.34 24.91v-50.13l-.06-.04zm44.34-25.07v50.49l43.33-24.91v-50.52zM44.54 232.73l41.7 24.3v-48.61zm42.7-24.9v49.2l42.7-24.9v-.86L88.1 207.33zm307.3 23.85h-.02l42.98 24.74v-49.64zm43.96 24.74 43.02-24.76v-.03l-43.02-24.76zm-131.45-24.76 42.71 24.76V206.1l-42.71-24.76zm43.71 24.76 42.72-24.76v-.31l-42.72-24.75zM43.52 231.35l.2.12v-50.03l-.2-.11zm1.2.12 41.52-24.21v-1.03l-41.53-24.2zM1 206.57l41.52 24.2v-50.6l.18-.1L1 155.77zm130.57 23.9 42.27-24.17-42.27-24.33zm307.12-24.65 42.83 24.65v-49.3zm43.83-25.84v50.5l43.03-24.77v-50.49zm-87.73 50.4 42.44-24.6-42.44-24.43zm-43.45-24.6 42.14 24.41v-48.84zm-262.91-.25v.84l41.52 23.75v-48.79zm87.17-49.73v49.46l43.02-24.73v-.14l-42.9-24.66zM44.7 180.66v.2l41.84 24.4v-48.98zm174.9-.85.38.22.25.14v.39l42.1 24.4v-50.5l-42.72-24.75zm43.72 25.14 42.46-24.6-42.46-24.75zm-131.07-24.39 42.34 24.34v-48.53zm297.7-20.38-34.75 20.26 42.3 24.33v-48.93zm8.54 44.6 42.52-24.47-42.52-24.47zm-130.73-24.34 42 24.33v-48.8zm43.3 24.15 41.9-24.28-41.9-24.29zm-262.64-.21 41.03-23.92-41.03-23.92zM1.49 154.89l42.2 24.6 42.72-24.9-42.2-24.6zm262.15-.61v.34l42.4 24.72v-49.63zm43.72 24.98 42.4-24.57v-.23l-42.4-24.57zM176.2 154.73v.13l42.4 24.38v-48.92zm-87.78-.12v.43l42.14 24.1V130.5zm350.57-.25 43.02 24.75 43.03-24.75-43.02-24.76zm-307.12 24.6 42.2-24.14-42.2-24.14zm262.9-.23 42.14-24.42-42.13-24.25zm-43.21-24.47 41.9 24.29v-48.57zm-219.5-24.8 43.03 24.76.12-.07v-49.38l-.12-.06zm-44.52 24.5 43.02-24.6v-.19l.19-.1-43.21-24.7zm88.67-.39 41.9-24.1-41.9-24.12zM438.5 103v50.49l43.02-24.76V78.24zm-218.38 25.84 42.52 24.64V104.2zm87.66.14 42.3 24.5v-49.01zm87.08-.3 42.64 24.72v-49.58zm-131.22 24.44 41.91-24.28-41.9-24.28zm87.43 0 41.9-24.28-41.9-24.28zm-263.02-49.6 43.33 24.75 43.33-24.76-43.33-24.75zm306.8-25.06-.37.21v49.08l42.53-24.8-31.46-18.34zm-130.71 24.5 42.22 24.6V78.5l-.06-.03-.08-.05zm43.22 24.6 41.74-24.33-41.74-24.16zm44.69-24.33 41.43 24.16V79.25zm43.05-25.92v.05l10.99 6.4L438 102.14l43.02-24.75L438 52.62zm-131.46 24.77 42.38-24.7-42.38-24.56zm44.06-24.7 42.37 24.7V52.82zm43.37-25.54v50.24l42.4-24.72v-.27l.26-.15.37-.21v-49.8zM307.05 76.6l42.52-24.65-42.52-24.64zm-42.9-24.65 41.9 24.29V27.67zm43.4-25.89 43.02 24.91 43.03-24.9-43.03-24.91z"/><defs><linearGradient id="a" x1="235.72" x2="527.62" y1="237.99" y2="97.27" gradientUnits="userSpaceOnUse"><stop offset=".27" stop-color="#fff"/><stop offset="1" stop-color="#60a5fa"/></linearGradient></defs></svg>