<svg xmlns="http://www.w3.org/2000/svg" width="25" height="24" fill="none" viewBox="0 0 25 24"><path fill="#24282C" d="M20.3322 17.7211C20.3322 19.8283 16.9167 21.5351 12.7042 21.5351C8.49161 21.5351 5.07617 19.8283 5.07617 17.7211V13.8823C5.55483 14.4706 6.23467 14.9588 6.9908 15.3364C8.4897 16.0858 10.5111 16.5292 12.7042 16.5292C14.8972 16.5292 16.9186 16.0858 18.4175 15.3373C19.1737 14.9588 19.8535 14.4697 20.3322 13.8823V17.7211Z"/><path fill="#24282C" d="M12.7042 10.8082C14.8972 10.8082 16.9186 10.3648 18.4175 9.61634C19.1737 9.2378 19.8535 8.74865 20.3322 8.1613V12.0001C20.3322 12.4768 18.6292 13.5171 17.7777 14.0577C16.5163 14.688 14.7237 15.099 12.7042 15.099C10.6847 15.099 8.89208 14.689 7.6306 14.0577C6.50642 13.4952 5.07617 12.4768 5.07617 12.0001V8.1613C5.55483 8.74961 6.23467 9.2378 6.9908 9.61538C8.4897 10.3648 10.5111 10.8082 12.7042 10.8082Z"/><path fill="#24282C" d="M17.7777 8.33674C16.5163 8.967 14.7237 9.37796 12.7042 9.37796C10.6847 9.37796 8.89208 8.96796 7.6306 8.33674C7.13955 8.14413 6.03539 7.53294 5.26783 6.54511C5.20326 6.46207 5.15635 6.36672 5.12995 6.2649C5.10355 6.16308 5.09823 6.05694 5.11431 5.95299C5.13624 5.81187 5.16675 5.66599 5.20585 5.5754C5.86567 3.80571 8.97217 2.46509 12.7042 2.46509C16.4362 2.46509 19.5427 3.80571 20.2025 5.5754C20.2416 5.66599 20.2721 5.81187 20.294 5.95299C20.31 6.057 20.3045 6.16318 20.2779 6.265C20.2514 6.36683 20.2043 6.46215 20.1396 6.54511C19.373 7.53294 18.2688 8.14413 17.7777 8.33674Z"/></svg>