<svg xmlns="http://www.w3.org/2000/svg" width="33" height="33" fill="none" viewBox="0 0 33 33"><g filter="url(#filter0_b_2068_72289)"><circle cx="16.237" cy="16.668" r="16.237" fill="#fff" fill-opacity=".65"/></g><path fill="#000" d="M16.2365 8.60974C15.1309 8.60974 14.0361 8.82751 13.0146 9.25061C11.9932 9.6737 11.0651 10.2939 10.2833 11.0756C8.70439 12.6545 7.81738 14.7959 7.81738 17.0288C7.81738 20.7501 10.2337 23.9072 13.576 25.027C13.997 25.0943 14.1317 24.8333 14.1317 24.606V23.1832C11.7996 23.6883 11.3029 22.055 11.3029 22.055C10.9156 21.0784 10.3684 20.8174 10.3684 20.8174C9.60223 20.2954 10.4273 20.3123 10.4273 20.3123C11.2692 20.3712 11.7154 21.1794 11.7154 21.1794C12.4479 22.4591 13.6855 22.0803 14.1654 21.8782C14.2411 21.331 14.46 20.9605 14.6958 20.7501C12.8267 20.5396 10.8651 19.8155 10.8651 16.6079C10.8651 15.6734 11.185 14.9241 11.7323 14.3263C11.6481 14.1158 11.3534 13.2402 11.8164 12.1037C11.8164 12.1037 12.5237 11.8763 14.1317 12.9624C14.7968 12.7772 15.5208 12.6846 16.2365 12.6846C16.9521 12.6846 17.6761 12.7772 18.3412 12.9624C19.9493 11.8763 20.6565 12.1037 20.6565 12.1037C21.1195 13.2402 20.8249 14.1158 20.7407 14.3263C21.2879 14.9241 21.6078 15.6734 21.6078 16.6079C21.6078 19.824 19.6378 20.5312 17.7603 20.7416C18.0634 21.0026 18.3412 21.5162 18.3412 22.2992V24.606C18.3412 24.8333 18.4759 25.1027 18.9053 25.027C22.2477 23.8988 24.6556 20.7501 24.6556 17.0288C24.6556 15.9232 24.4378 14.8284 24.0147 13.807C23.5916 12.7855 22.9714 11.8574 22.1897 11.0756C21.4079 10.2939 20.4798 9.6737 19.4583 9.25061C18.4369 8.82751 17.3421 8.60974 16.2365 8.60974Z"/><defs><filter id="filter0_b_2068_72289" width="554.464" height="554.464" x="-260.995" y="-260.564" color-interpolation-filters="sRGB" filterUnits="userSpaceOnUse"><feFlood flood-opacity="0" result="BackgroundImageFix"/><feGaussianBlur in="BackgroundImageFix" stdDeviation="130.498"/><feComposite in2="SourceAlpha" operator="in" result="effect1_backgroundBlur_2068_72289"/><feBlend in="SourceGraphic" in2="effect1_backgroundBlur_2068_72289" mode="normal" result="shape"/></filter></defs></svg>