<svg xmlns="http://www.w3.org/2000/svg" fill="none" viewBox="0 0 197 55"><path fill="#fff" d="m133.25-33.94 16.72 9.68.1.05v19.13l16.2-9.32.1-.05.09.05 16.72 9.62.1.06V14.9l16.62 9.56.1.06v19.84l-.1.05-16.62 9.57v.23l-.1.06-16.72 9.62-.1.05-.09-.05-16.63-9.57-16.5 9.57-.1.05-.1-.05-16.6-9.62-.1-.06V34.88l-16.31 9.46-.1.06-.1-.06-16.08-9.32V54.4l-.1.06-16.83 9.67-.1.06-.1-.06-16.83-9.67-.02-.02-.03.01-16.6 9.68-.1.06-.1-.06-16.6-9.68-.09-.05v-.3L.09 44.73 0 44.68V24.72l.1-.05 16.6-9.68.1-.06.09.06 15.98 9.32V5.2l.1-.06L49.8-4.47l.1-.05.09.05 16.83 9.62.1.06v.37l16.1 9.27v-.02l.1-.06 16.6-9.62.03-.01v-19.52l.1-.05 16.39-9.5v-.28l.1-.05 16.71-9.68.1-.06zM49.97 53.98v.19l16.46 9.46V44.6l-.02-.01zm16.84-9.53v19.18l16.46-9.46V34.98zm-49.9 9.95 15.84 9.23V45.16zm16.22-9.46v18.69l16.23-9.46v-.33l-15.9-9.09zM149.86 54h-.01l16.33 9.4V44.54zm16.7 9.4L182.9 54v-.02l-16.34-9.4zM116.63 54l16.22 9.4V44.28l-16.22-9.4zm16.6 9.4 16.22-9.4v-.12l-16.22-9.4zm-116.7-9.53.07.05v-19l-.07-.05zm.45.05 15.77-9.2v-.39l-15.77-9.19zM.38 44.46l15.77 9.2V34.43l.07-.04L.38 25.16zm49.6 9.08 16.05-9.18-16.06-9.24zm116.65-9.36 16.27 9.36V34.81zm16.65-9.82v19.18l16.34-9.4V24.96zM149.95 53.5l16.12-9.34-16.12-9.28zm-16.5-9.34 16 9.27V34.88zm-99.86-.1v.32l15.77 9.03V34.88zm33.1-18.88v18.78l16.35-9.4v-.04l-16.3-9.37zM17 34.62v.08l15.88 9.26v-18.6zm66.43-.32.14.08.1.05v.15l15.98 9.27V24.67l-16.22-9.4zm16.6 9.55 16.13-9.35-16.13-9.4zm-49.79-9.27 16.09 9.25V25.39zm113.06-7.73-13.18 7.69 16.07 9.24V25.19zm3.27 16.93 16.15-9.3-16.15-9.29zm-49.66-9.24 15.95 9.24V25.24zm16.45 9.17 15.92-9.22-15.92-9.23zm-99.76-.08 15.58-9.09-15.58-9.08zM.57 24.83l16.02 9.35 16.23-9.46-16.03-9.35zm99.57-.23v.13l16.1 9.39V15.27zm16.6 9.49 16.11-9.34v-.08l-16.1-9.33zm-49.8-9.32v.05l16.1 9.26V15.5zm-33.35-.05v.17l16 9.15V15.57zm133.16-.1 16.34 9.41 16.34-9.4-16.34-9.4zM50.09 33.98l16.03-9.16-16.03-9.17zm99.86-.08 16-9.28-16-9.2zm-16.41-9.3 15.91 9.23V15.37zm-83.38-9.42 16.34 9.4.05-.02V5.8l-.05-.03zm-16.9 9.3 16.33-9.34v-.07l.07-.04-16.4-9.38zm33.67-.14 15.92-9.16-15.92-9.16zm99.63-19.21V24.3l16.34-9.4V-4.28zM83.6 14.94l16.15 9.36V5.58zm33.3.05 16.06 9.3V5.69zm33.07-.11 16.2 9.38V5.43zm-49.84 9.28 15.92-9.22-15.92-9.23zm33.2 0 15.93-9.22-15.92-9.23zM33.45 5.32l16.46 9.4 16.46-9.4-16.46-9.4zM149.98-4.2l-.15.08v18.64L166 5.1l-12-6.99zm-49.65 9.3 16.03 9.35V-4.19l-.02-.01-.03-.02zm16.41 9.35 15.86-9.24-15.86-9.18zm16.98-9.24 15.73 9.17V-3.9zm16.35-9.85v.02l4.2 2.46 12.1 6.95 16.34-9.4-16.34-9.4zm-49.93 9.41 16.1-9.38-16.1-9.33zm16.73-9.38 16.1 9.38v-18.7zm16.48-9.7V4.77l16.1-9.39v-.1l.1-.06.14-.08v-18.91zm-16.72 9.4 16.15-9.36-16.15-9.36zm-16.3-9.36 15.92 9.23V-23.5zm16.48-9.83 16.35 9.46 16.34-9.46-16.34-9.46z"/></svg>
