<?xml version="1.0" standalone="no"?>
<!DOCTYPE svg PUBLIC "-//W3C//DTD SVG 20010904//EN"
 "http://www.w3.org/TR/2001/REC-SVG-20010904/DTD/svg10.dtd">
<svg version="1.0" xmlns="http://www.w3.org/2000/svg"
 width="360.000000pt" height="360.000000pt" viewBox="0 0 360.000000 360.000000"
 preserveAspectRatio="xMidYMid meet">

<g transform="translate(0.000000,360.000000) scale(0.100000,-0.100000)"
fill="#2e65da" stroke="none">
<path d="M1609 3329 c-57 -28 -153 -75 -214 -104 -349 -167 -806 -390 -842
-411 -23 -13 -51 -37 -62 -53 -15 -20 -46 -139 -100 -378 -44 -191 -109 -477
-145 -635 -66 -288 -75 -358 -55 -416 6 -17 194 -259 418 -539 367 -458 413
-511 462 -538 l54 -30 685 0 685 0 42 25 c52 31 854 1029 873 1086 21 63 14
122 -48 389 -34 143 -98 420 -142 615 -45 195 -88 366 -95 381 -25 46 -86 91
-209 149 -67 32 -200 96 -296 143 -96 46 -307 148 -468 226 l-293 141 -73 0
c-67 0 -81 -4 -177 -51z m-149 -1226 l1 -328 324 328 324 327 153 -1 153 0
-313 -307 -313 -307 359 -405 359 -405 -156 -3 c-85 -1 -160 -1 -166 2 -7 2
-126 138 -266 302 -140 164 -264 310 -276 324 l-22 25 -80 -80 -81 -80 0 -247
0 -248 -125 0 -125 0 0 715 0 715 125 0 125 0 0 -327z"/>
</g>
</svg>
