<svg xmlns="http://www.w3.org/2000/svg" width="20" height="20" fill="none" viewBox="0 0 20 20"><path fill="#152539" d="M10.6593 12.3262L8.73463 10.4243L8.75737 10.4016C10.0411 8.97487 11.0002 7.28677 11.5685 5.45364H13.7887V3.93818H8.48458V2.42273H6.96913V3.93818H1.66504V5.45364H10.1289C9.62118 6.90847 8.81798 8.29512 7.72686 9.50748C7.02217 8.72702 6.43872 7.87079 5.97651 6.96909H4.46105C5.01419 8.20419 5.77192 9.37109 6.71908 10.4243L2.86225 14.2281L3.93822 15.3041L7.72686 11.5155L10.0834 13.872L10.6593 12.3262ZM14.9253 8.48455H13.4098L10 17.5773H11.5155L12.3641 15.3041H15.9634L16.8196 17.5773H18.335L14.9253 8.48455ZM12.94 13.7886L14.1675 10.5077L15.3951 13.7886H12.94Z"/></svg>