<svg width="17" height="16" viewBox="0 0 17 16" fill="none" xmlns="http://www.w3.org/2000/svg">
<g id="material-symbols:delete-outline-rounded">
<path id="Vector" d="M4.72754 14C4.36087 14 4.04687 13.8693 3.78554 13.608C3.52421 13.3467 3.39376 13.0329 3.39421 12.6667V4C3.20532 4 3.04687 3.936 2.91887 3.808C2.79087 3.68 2.7271 3.52178 2.72754 3.33334C2.72754 3.14445 2.79154 2.986 2.91954 2.858C3.04754 2.73 3.20576 2.66622 3.39421 2.66667H6.06087C6.06087 2.47778 6.12487 2.31934 6.25287 2.19134C6.38087 2.06334 6.5391 1.99956 6.72754 2H9.39421C9.5831 2 9.74154 2.064 9.86954 2.192C9.99754 2.32 10.0613 2.47822 10.0609 2.66667H12.7275C12.9164 2.66667 13.0749 2.73067 13.2029 2.85867C13.3309 2.98667 13.3947 3.14489 13.3942 3.33334C13.3942 3.52222 13.3302 3.68067 13.2022 3.80867C13.0742 3.93667 12.916 4.00045 12.7275 4V12.6667C12.7275 13.0333 12.5969 13.3473 12.3355 13.6087C12.0742 13.87 11.7604 14.0004 11.3942 14H4.72754ZM4.72754 4V12.6667H11.3942V4H4.72754ZM6.06087 10.6667C6.06087 10.8556 6.12487 11.014 6.25287 11.142C6.38087 11.27 6.5391 11.3338 6.72754 11.3333C6.91643 11.3333 7.07487 11.2693 7.20288 11.1413C7.33087 11.0133 7.39465 10.8551 7.39421 10.6667V6C7.39421 5.81111 7.33021 5.65267 7.20221 5.52467C7.07421 5.39667 6.91599 5.33289 6.72754 5.33334C6.53865 5.33334 6.38021 5.39734 6.25221 5.52534C6.12421 5.65334 6.06043 5.81156 6.06087 6V10.6667ZM8.72754 10.6667C8.72754 10.8556 8.79154 11.014 8.91954 11.142C9.04754 11.27 9.20576 11.3338 9.39421 11.3333C9.5831 11.3333 9.74154 11.2693 9.86954 11.1413C9.99754 11.0133 10.0613 10.8551 10.0609 10.6667V6C10.0609 5.81111 9.99688 5.65267 9.86888 5.52467C9.74088 5.39667 9.58265 5.33289 9.39421 5.33334C9.20532 5.33334 9.04688 5.39734 8.91887 5.52534C8.79087 5.65334 8.7271 5.81156 8.72754 6V10.6667Z" fill="#5A646E"/>
</g>
</svg>
