<svg width="218" height="89" viewBox="0 0 218 89" fill="none" xmlns="http://www.w3.org/2000/svg">
<rect x="33.2566" y="1.10313" width="151.487" height="40.622" rx="6.52302" fill="white"/>
<rect x="33.2566" y="1.10313" width="151.487" height="40.622" rx="6.52302" stroke="#D4D4D8" stroke-width="0.8" stroke-dasharray="1.6 1.6"/>
<rect x="40.1664" y="11.8953" width="19.0383" height="19.0383" rx="9.51916" fill="url(#paint0_linear_509_6848)"/>
<rect x="65.7834" y="12.2771" width="39.5946" height="3.65488" rx="1.21829" fill="url(#paint1_linear_509_6848)"/>
<rect x="65.7834" y="19.5869" width="99.9002" height="3.65488" rx="1.21829" fill="url(#paint2_linear_509_6848)"/>
<rect x="65.7834" y="26.8967" width="69.4428" height="3.65488" rx="1.21829" fill="url(#paint3_linear_509_6848)"/>
<rect x="0.857788" y="30.3633" width="216.284" height="58.1014" rx="6.4531" fill="white"/>
<rect x="0.857788" y="30.3633" width="216.284" height="58.1014" rx="6.4531" stroke="#D4D4D8" stroke-dasharray="2 2"/>
<rect x="10.7875" y="45.334" width="28.1601" height="28.1601" rx="14.08" fill="url(#paint4_linear_509_6848)"/>
<rect x="48.3342" y="46.3794" width="39.5946" height="5.21" rx="1.74" fill="url(#paint5_linear_509_6848)"/>
<rect x="48.3342" y="56.8042" width="142.539" height="5.21483" rx="1.73828" fill="url(#paint6_linear_509_6848)"/>
<rect x="48.3342" y="67.2339" width="99.0817" height="5.21483" rx="1.73828" fill="url(#paint7_linear_509_6848)"/>
<defs>
<linearGradient id="paint0_linear_509_6848" x1="49.6855" y1="11.8953" x2="49.6855" y2="30.9336" gradientUnits="userSpaceOnUse">
<stop stop-color="#F5F5F5"/>
<stop offset="1" stop-color="#EAEAEA"/>
</linearGradient>
<linearGradient id="paint1_linear_509_6848" x1="65.7834" y1="14.1045" x2="105.378" y2="14.8661" gradientUnits="userSpaceOnUse">
<stop stop-color="#E8E8E8"/>
<stop offset="1" stop-color="#F2F2F2"/>
</linearGradient>
<linearGradient id="paint2_linear_509_6848" x1="65.7834" y1="21.4144" x2="165.486" y2="26.2525" gradientUnits="userSpaceOnUse">
<stop stop-color="#E8E8E8"/>
<stop offset="1" stop-color="#F2F2F2"/>
</linearGradient>
<linearGradient id="paint3_linear_509_6848" x1="65.7834" y1="28.7242" x2="135.173" y2="31.0648" gradientUnits="userSpaceOnUse">
<stop stop-color="#E8E8E8"/>
<stop offset="1" stop-color="#F2F2F2"/>
</linearGradient>
<linearGradient id="paint4_linear_509_6848" x1="24.8675" y1="45.334" x2="24.8675" y2="73.494" gradientUnits="userSpaceOnUse">
<stop stop-color="#F5F5F5"/>
<stop offset="1" stop-color="#EAEAEA"/>
</linearGradient>
<linearGradient id="paint5_linear_509_6848" x1="48.3342" y1="48.9844" x2="87.9363" y2="49.5187" gradientUnits="userSpaceOnUse">
<stop stop-color="#E8E8E8"/>
<stop offset="1" stop-color="#F2F2F2"/>
</linearGradient>
<linearGradient id="paint6_linear_509_6848" x1="48.3342" y1="59.4116" x2="190.591" y2="66.3147" gradientUnits="userSpaceOnUse">
<stop stop-color="#E8E8E8"/>
<stop offset="1" stop-color="#F2F2F2"/>
</linearGradient>
<linearGradient id="paint7_linear_509_6848" x1="48.3342" y1="69.8413" x2="147.34" y2="73.1809" gradientUnits="userSpaceOnUse">
<stop stop-color="#E8E8E8"/>
<stop offset="1" stop-color="#F2F2F2"/>
</linearGradient>
</defs>
</svg>
