<svg xmlns="http://www.w3.org/2000/svg" width="218" height="89" fill="none" viewBox="0 0 218 89"><rect width="151.487" height="40.622" x="33.257" y="1.103" fill="#fff" rx="6.523"/><rect width="151.487" height="40.622" x="33.257" y="1.103" stroke="#D4D4D8" stroke-dasharray="1.6 1.6" stroke-width=".8" rx="6.523"/><rect width="19.038" height="19.038" x="40.166" y="11.895" fill="url(#paint0_linear_509_6848)" rx="9.519"/><rect width="39.595" height="3.655" x="65.783" y="12.277" fill="url(#paint1_linear_509_6848)" rx="1.218"/><rect width="99.9" height="3.655" x="65.783" y="19.587" fill="url(#paint2_linear_509_6848)" rx="1.218"/><rect width="69.443" height="3.655" x="65.783" y="26.897" fill="url(#paint3_linear_509_6848)" rx="1.218"/><rect width="216.284" height="58.101" x=".858" y="30.363" fill="#fff" rx="6.453"/><rect width="216.284" height="58.101" x=".858" y="30.363" stroke="#D4D4D8" stroke-dasharray="2 2" rx="6.453"/><rect width="28.16" height="28.16" x="10.787" y="45.334" fill="url(#paint4_linear_509_6848)" rx="14.08"/><rect width="39.595" height="5.21" x="48.334" y="46.379" fill="url(#paint5_linear_509_6848)" rx="1.74"/><rect width="142.539" height="5.215" x="48.334" y="56.804" fill="url(#paint6_linear_509_6848)" rx="1.738"/><rect width="99.082" height="5.215" x="48.334" y="67.234" fill="url(#paint7_linear_509_6848)" rx="1.738"/><defs><linearGradient id="paint0_linear_509_6848" x1="49.685" x2="49.685" y1="11.895" y2="30.934" gradientUnits="userSpaceOnUse"><stop stop-color="#F5F5F5"/><stop offset="1" stop-color="#EAEAEA"/></linearGradient><linearGradient id="paint1_linear_509_6848" x1="65.783" x2="105.378" y1="14.104" y2="14.866" gradientUnits="userSpaceOnUse"><stop stop-color="#E8E8E8"/><stop offset="1" stop-color="#F2F2F2"/></linearGradient><linearGradient id="paint2_linear_509_6848" x1="65.783" x2="165.486" y1="21.414" y2="26.253" gradientUnits="userSpaceOnUse"><stop stop-color="#E8E8E8"/><stop offset="1" stop-color="#F2F2F2"/></linearGradient><linearGradient id="paint3_linear_509_6848" x1="65.783" x2="135.173" y1="28.724" y2="31.065" gradientUnits="userSpaceOnUse"><stop stop-color="#E8E8E8"/><stop offset="1" stop-color="#F2F2F2"/></linearGradient><linearGradient id="paint4_linear_509_6848" x1="24.867" x2="24.867" y1="45.334" y2="73.494" gradientUnits="userSpaceOnUse"><stop stop-color="#F5F5F5"/><stop offset="1" stop-color="#EAEAEA"/></linearGradient><linearGradient id="paint5_linear_509_6848" x1="48.334" x2="87.936" y1="48.984" y2="49.519" gradientUnits="userSpaceOnUse"><stop stop-color="#E8E8E8"/><stop offset="1" stop-color="#F2F2F2"/></linearGradient><linearGradient id="paint6_linear_509_6848" x1="48.334" x2="190.591" y1="59.412" y2="66.315" gradientUnits="userSpaceOnUse"><stop stop-color="#E8E8E8"/><stop offset="1" stop-color="#F2F2F2"/></linearGradient><linearGradient id="paint7_linear_509_6848" x1="48.334" x2="147.34" y1="69.841" y2="73.181" gradientUnits="userSpaceOnUse"><stop stop-color="#E8E8E8"/><stop offset="1" stop-color="#F2F2F2"/></linearGradient></defs></svg>