<?xml version="1.0" encoding="utf-8"?>
<!-- Generator: Adobe Illustrator 23.1.1, SVG Export Plug-In . SVG Version: 6.00 Build 0)  -->
<svg version="1.1" xmlns="http://www.w3.org/2000/svg" xmlns:xlink="http://www.w3.org/1999/xlink" x="0px" y="0px"
	 viewBox="0 0 120 120" style="enable-background:new 0 0 120 120;" xml:space="preserve">
<style type="text/css">
	.st0{fill:#A32422;}
	.st1{fill:#DC382D;}
</style>
<g id="Layer_2">
	<polygon class="st0" points="76.1,11.2 76.1,108.5 60,116.1 2.2,90.3 2.2,75.1 60,101.4 60,92.5 2.2,66.4 2.2,51.4 60,77.4
		60,68.7 2.2,42.3 2.2,27.6 60,53.9 60,18.8 	"/>
	<polygon class="st0" points="97.2,30.6 97.2,99.2 80.4,106.9 80.4,37.9 	"/>
	<polygon class="st0" points="118,49.9 118,89.4 101.2,97 101.2,57.2 	"/>
</g>
<g id="Layer_3">
	<polygon class="st1" points="76.1,11.2 60,4.5 2.2,27.6 60,53.9 60,18.8 	"/>
	<polygon class="st1" points="60,68.7 60,77.4 2.2,51.4 12.3,46.9 	"/>
	<polygon class="st1" points="60,92.5 60,101.4 2.2,75.1 11.5,70.6 	"/>
	<polygon class="st1" points="80.4,37.9 97.2,30.6 80.4,23.8 	"/>
	<polygon class="st1" points="101.2,57.2 118,49.9 101.2,43.1 	"/>
</g>
</svg>
