<svg xmlns="http://www.w3.org/2000/svg" fill="none" viewBox="0 0 338 393"><foreignObject width="172.17" height="301.47" x="-.61" y="-.46"><div xmlns="http://www.w3.org/1999/xhtml" style="backdrop-filter:blur(.3px);clip-path:url(#a);height:100%;width:100%"/></foreignObject><path fill="#fff" fill-opacity=".37" stroke="url(#b)" stroke-opacity=".3" stroke-width=".61" d="M.3 99.04 170.67.67v196.16L.3 299.87z" data-figma-bg-blur-radius=".61"/><path fill="#eef0f7" stroke="url(#c)" stroke-opacity=".3" stroke-width=".3" d="M167.4 199.42.3 300.2l167.1 91.87 169.55-99.37z"/><path stroke="url(#d)" stroke-opacity=".3" stroke-width=".61" d="M296.39 122.35 166.6 194.57v142.75"/><path fill="#f4f4f5" fill-opacity=".37" stroke="#ccdaff" stroke-opacity=".8" stroke-width=".3" d="M336.95 96.75 170.68.26l-1.23 197.54 167.5 94.9z"/><path fill="#a3c4ff" fill-opacity=".4" stroke="#005bff" stroke-opacity=".5" stroke-width=".3" d="m143.06 235.58-51.68-30.35v-28.77l51.68 29.92V85.85l-77.86 45.1V250.2l104.03 60.24 102.82-59.54V130.94l-51.41-29.77-51.41 29.77v89.49z"/><path stroke="#005bff" stroke-opacity=".5" stroke-width=".3" d="m168.79 131.26 51.63 29.8m0 0 51.63-29.8m-51.63 29.8v89.4m-51.63 29.99 51.63-29.8v-.2m-51.63 30-103.6-59.8 26-15m77.6 74.8v30.46m0-90.26 51.63 29.8"/><foreignObject width="172.17" height="294.29" x="165.68" y="96.88"><div xmlns="http://www.w3.org/1999/xhtml" style="backdrop-filter:blur(.3px);clip-path:url(#e);height:100%;width:100%"/></foreignObject><path fill="#c9d3ee" fill-opacity=".37" stroke="url(#f)" stroke-opacity=".3" stroke-width=".61" d="m166.6 195.03 170.35-97.02v193.47L166.6 390.04z" data-figma-bg-blur-radius=".61"/><foreignObject width="338.25" height="196.6" x="-.09" y="-.29"><div xmlns="http://www.w3.org/1999/xhtml" style="backdrop-filter:blur(.3px);clip-path:url(#g);height:100%;width:100%"/></foreignObject><path fill="#e4eafb" fill-opacity=".37" stroke="url(#h)" stroke-opacity=".3" stroke-width=".61" d="M170.68.67 1.13 99.03l166.27 96.33 169.55-97.8z" data-figma-bg-blur-radius=".61"/><defs><linearGradient id="b" x1="170.66" x2=".35" y1="192.69" y2="104.66" gradientUnits="userSpaceOnUse"><stop offset=".5" stop-color="#a3afff"/><stop offset="1" stop-color="#005bff"/></linearGradient><linearGradient id="c" x1="168.63" x2="39.94" y1="203.47" y2="300.62" gradientUnits="userSpaceOnUse"><stop stop-color="#83afff"/><stop offset=".98" stop-color="#0042ba"/></linearGradient><linearGradient id="d" x1="166.6" x2="296.39" y1="229.84" y2="229.84" gradientUnits="userSpaceOnUse"><stop offset=".13" stop-color="#005bff"/><stop offset=".9" stop-color="#fff" stop-opacity="0"/></linearGradient><linearGradient id="f" x1="336.94" x2="167.64" y1="287.4" y2="198.67" gradientUnits="userSpaceOnUse"><stop offset=".5" stop-color="#a3afff"/><stop offset="1" stop-color="#005bff"/></linearGradient><linearGradient id="h" x1="168.63" x2="168.63" y1=".67" y2="195.36" gradientUnits="userSpaceOnUse"><stop offset=".42" stop-color="#a3c4ff"/><stop offset="1" stop-color="#005bff"/></linearGradient><clipPath id="a" transform="translate(.6 .46)"><path d="M.3 99.04 170.67.67v196.16L.3 299.87z"/></clipPath><clipPath id="e" transform="translate(-165.68 -96.88)"><path d="m166.6 195.03 170.35-97.02v193.47L166.6 390.04z"/></clipPath><clipPath id="g" transform="translate(.09 .29)"><path d="M170.68.67 1.13 99.03l166.27 96.33 169.55-97.8z"/></clipPath></defs></svg>