<svg xmlns="http://www.w3.org/2000/svg" width="16" height="16" fill="none" viewBox="0 0 16 16"><path fill="#48A7EC" d="M7.99998 1.33333C6.68144 1.33333 5.39251 1.72432 4.29618 2.45686C3.19985 3.18941 2.34537 4.2306 1.84079 5.44877C1.3362 6.66695 1.20418 8.00739 1.46141 9.3006C1.71865 10.5938 2.35359 11.7817 3.28594 12.714C4.21829 13.6464 5.40617 14.2813 6.69938 14.5386C7.99259 14.7958 9.33303 14.6638 10.5512 14.1592C11.7694 13.6546 12.8106 12.8001 13.5431 11.7038C14.2757 10.6075 14.6666 9.31854 14.6666 7.99999C14.6647 6.23248 13.9617 4.53792 12.7119 3.28809C11.4621 2.03827 9.7675 1.33527 7.99998 1.33333ZM7.99998 13.3333C6.94515 13.3333 5.914 13.0205 5.03694 12.4345C4.15988 11.8485 3.47629 11.0155 3.07263 10.041C2.66896 9.06643 2.56334 7.99408 2.76913 6.95951C2.97492 5.92495 3.48287 4.97464 4.22875 4.22876C4.97463 3.48288 5.92494 2.97493 6.9595 2.76914C7.99407 2.56335 9.06642 2.66897 10.041 3.07264C11.0155 3.4763 11.8485 4.15989 12.4345 5.03695C13.0205 5.91402 13.3333 6.94516 13.3333 7.99999C13.3316 9.41394 12.7691 10.7695 11.7693 11.7693C10.7695 12.7691 9.41393 13.3316 7.99998 13.3333ZM7.99998 7.66666C7.82317 7.66666 7.6536 7.7369 7.52858 7.86192C7.40355 7.98695 7.33332 8.15652 7.33332 8.33333V10.3333C7.33332 10.5101 7.40355 10.6797 7.52858 10.8047C7.6536 10.9298 7.82317 11 7.99998 11C8.17679 11 8.34636 10.9298 8.47139 10.8047C8.59641 10.6797 8.66665 10.5101 8.66665 10.3333V8.33333C8.66665 8.15652 8.59641 7.98695 8.47139 7.86192C8.34636 7.7369 8.17679 7.66666 7.99998 7.66666ZM7.99998 4.99999C7.83517 4.99999 7.67405 5.04887 7.53701 5.14044C7.39997 5.232 7.29316 5.36215 7.23008 5.51442C7.16701 5.6667 7.15051 5.83425 7.18266 5.9959C7.21482 6.15755 7.29418 6.30604 7.41073 6.42258C7.52727 6.53913 7.67576 6.61849 7.83741 6.65065C7.99906 6.6828 8.16661 6.6663 8.31889 6.60323C8.47116 6.54015 8.60131 6.43334 8.69287 6.2963C8.78444 6.15926 8.83332 5.99815 8.83332 5.83333C8.83332 5.61231 8.74552 5.40035 8.58924 5.24407C8.43296 5.08779 8.221 4.99999 7.99998 4.99999Z"/></svg>