<svg width="16" height="16" viewBox="0 0 16 16" fill="none" xmlns="http://www.w3.org/2000/svg">
<path d="M13.2663 8.44009C13.1594 8.31843 13.1004 8.16203 13.1004 8.00009C13.1004 7.83815 13.1594 7.68175 13.2663 7.56009L14.1196 6.60009C14.2136 6.49521 14.272 6.36323 14.2864 6.2231C14.3008 6.08297 14.2704 5.94188 14.1996 5.82009L12.8663 3.51343C12.7962 3.39177 12.6895 3.29534 12.5614 3.23788C12.4333 3.18042 12.2904 3.16486 12.1529 3.19343L10.8996 3.44676C10.7401 3.47971 10.5741 3.45315 10.4329 3.37209C10.2916 3.29103 10.1849 3.16108 10.1329 3.00676L9.72627 1.78676C9.68155 1.65435 9.59634 1.53934 9.48269 1.45799C9.36904 1.37664 9.2327 1.33307 9.09294 1.33343H6.42627C6.28089 1.32584 6.13703 1.36604 6.01665 1.4479C5.89627 1.52976 5.80599 1.64877 5.7596 1.78676L5.38627 3.00676C5.33427 3.16108 5.22759 3.29103 5.08635 3.37209C4.94511 3.45315 4.77908 3.47971 4.6196 3.44676L3.33294 3.19343C3.20264 3.17501 3.06981 3.19557 2.95117 3.25252C2.83254 3.30946 2.73341 3.40025 2.66627 3.51343L1.33294 5.82009C1.26038 5.94053 1.22775 6.08082 1.23973 6.22091C1.2517 6.361 1.30766 6.49372 1.39961 6.60009L2.24627 7.56009C2.35315 7.68175 2.41209 7.83815 2.41209 8.00009C2.41209 8.16203 2.35315 8.31843 2.24627 8.44009L1.39961 9.40009C1.30766 9.50647 1.2517 9.63919 1.23973 9.77928C1.22775 9.91937 1.26038 10.0597 1.33294 10.1801L2.66627 12.4868C2.73634 12.6084 2.84302 12.7048 2.97111 12.7623C3.0992 12.8198 3.24215 12.8353 3.37961 12.8068L4.63294 12.5534C4.79242 12.5205 4.95844 12.547 5.09968 12.6281C5.24092 12.7092 5.34761 12.8391 5.39961 12.9934L5.80627 14.2134C5.85266 14.3514 5.94294 14.4704 6.06332 14.5523C6.1837 14.6341 6.32756 14.6743 6.47294 14.6668H9.1396C9.27937 14.6671 9.41571 14.6235 9.52936 14.5422C9.64301 14.4608 9.72821 14.3458 9.77294 14.2134L10.1796 12.9934C10.2316 12.8391 10.3383 12.7092 10.4795 12.6281C10.6208 12.547 10.7868 12.5205 10.9463 12.5534L12.1996 12.8068C12.3371 12.8353 12.48 12.8198 12.6081 12.7623C12.7362 12.7048 12.8429 12.6084 12.9129 12.4868L14.2463 10.1801C14.3171 10.0583 14.3474 9.91722 14.3331 9.77709C14.3187 9.63696 14.2603 9.50498 14.1663 9.40009L13.2663 8.44009ZM12.2729 9.33343L12.8063 9.93343L11.9529 11.4134L11.1663 11.2534C10.6861 11.1553 10.1867 11.2368 9.76267 11.4826C9.33868 11.7284 9.0197 12.1213 8.86627 12.5868L8.61294 13.3334H6.90627L6.66627 12.5734C6.51284 12.108 6.19386 11.7151 5.76988 11.4693C5.34589 11.2235 4.84642 11.1419 4.36627 11.2401L3.57961 11.4001L2.71294 9.92676L3.24627 9.32676C3.57424 8.96008 3.75556 8.48538 3.75556 7.99343C3.75556 7.50147 3.57424 7.02677 3.24627 6.66009L2.71294 6.06009L3.56627 4.59343L4.35294 4.75343C4.83309 4.85157 5.33256 4.77001 5.75654 4.52423C6.18053 4.27844 6.49951 3.88553 6.65294 3.42009L6.90627 2.66676H8.61294L8.86627 3.42676C9.0197 3.8922 9.33868 4.2851 9.76267 4.53089C10.1867 4.77668 10.6861 4.85824 11.1663 4.76009L11.9529 4.60009L12.8063 6.08009L12.2729 6.68009C11.9486 7.04593 11.7696 7.51788 11.7696 8.00676C11.7696 8.49564 11.9486 8.96759 12.2729 9.33343ZM7.7596 5.33343C7.23219 5.33343 6.71662 5.48982 6.27808 5.78284C5.83955 6.07586 5.49776 6.49233 5.29593 6.9796C5.09409 7.46687 5.04128 8.00305 5.14418 8.52033C5.24707 9.03762 5.50105 9.51277 5.87399 9.88571C6.24693 10.2587 6.72208 10.5126 7.23936 10.6155C7.75665 10.7184 8.29282 10.6656 8.78009 10.4638C9.26736 10.2619 9.68384 9.92014 9.97686 9.48161C10.2699 9.04308 10.4263 8.52751 10.4263 8.00009C10.4263 7.29285 10.1453 6.61457 9.64522 6.11447C9.14513 5.61438 8.46685 5.33343 7.7596 5.33343ZM7.7596 9.33343C7.4959 9.33343 7.23811 9.25523 7.01884 9.10872C6.79958 8.96221 6.62868 8.75397 6.52777 8.51034C6.42685 8.2667 6.40044 7.99861 6.45189 7.73997C6.50334 7.48133 6.63033 7.24375 6.8168 7.05728C7.00327 6.87081 7.24084 6.74383 7.49948 6.69238C7.75813 6.64093 8.02621 6.66734 8.26985 6.76825C8.51348 6.86917 8.72172 7.04007 8.86823 7.25933C9.01474 7.4786 9.09294 7.73638 9.09294 8.00009C9.09294 8.35371 8.95246 8.69285 8.70241 8.9429C8.45237 9.19295 8.11323 9.33343 7.7596 9.33343Z" fill="#219BF4"/>
</svg>
