<svg width="33" height="33" viewBox="0 0 33 33" fill="none" xmlns="http://www.w3.org/2000/svg">
<g filter="url(#filter0_b_2343_63551)">
<circle cx="16.6528" cy="16.6116" r="16.2368" fill="white" fill-opacity="0.65"/>
</g>
<path d="M19.9038 13.3514C20.2332 13.3514 20.5541 13.3768 20.8666 13.419C20.2923 10.9105 17.6571 9.01013 14.4898 9.01013C10.9002 9.01013 7.98633 11.4426 7.98633 14.441C7.98633 16.1724 8.95763 17.7012 10.4695 18.6978L9.61642 20.4124L11.9475 19.4073C12.4459 19.5846 12.9695 19.7282 13.527 19.8042C13.4509 19.4748 13.4087 19.137 13.4087 18.7823C13.4003 15.7923 16.3142 13.3514 19.9038 13.3514ZM16.652 11.4511C16.7585 11.4511 16.8639 11.472 16.9623 11.5128C17.0607 11.5535 17.1501 11.6132 17.2254 11.6885C17.3006 11.7638 17.3604 11.8532 17.4011 11.9516C17.4419 12.05 17.4628 12.1554 17.4628 12.2619C17.4628 12.3684 17.4419 12.4738 17.4011 12.5722C17.3604 12.6705 17.3006 12.7599 17.2254 12.8352C17.1501 12.9105 17.0607 12.9702 16.9623 13.011C16.8639 13.0517 16.7585 13.0727 16.652 13.0727C16.437 13.0727 16.2307 12.9873 16.0787 12.8352C15.9266 12.6832 15.8412 12.4769 15.8412 12.2619C15.8412 12.0468 15.9266 11.8406 16.0787 11.6885C16.2307 11.5365 16.437 11.4511 16.652 11.4511ZM12.3192 13.0811C12.1041 13.0811 11.8979 12.9957 11.7458 12.8437C11.5938 12.6916 11.5083 12.4854 11.5083 12.2703C11.5083 12.0553 11.5938 11.849 11.7458 11.697C11.8979 11.5449 12.1041 11.4595 12.3192 11.4595C12.5342 11.4595 12.7405 11.5449 12.8925 11.697C13.0446 11.849 13.13 12.0553 13.13 12.2703C13.13 12.4854 13.0446 12.6916 12.8925 12.8437C12.7405 12.9957 12.5342 13.0811 12.3192 13.0811Z" fill="black"/>
<path d="M25.3181 18.7822C25.3181 16.3835 22.8941 14.4409 19.9042 14.4409C16.9143 14.4409 14.4902 16.3835 14.4902 18.7822C14.4902 21.1809 16.9143 23.1235 19.9042 23.1235C20.3941 23.1235 20.867 23.0559 21.3147 22.9546L24.237 24.213L23.2235 22.186C24.4904 21.3921 25.3181 20.1758 25.3181 18.7822ZM18.2741 18.5119C18.1137 18.5119 17.957 18.4644 17.8236 18.3753C17.6903 18.2862 17.5863 18.1596 17.525 18.0114C17.4636 17.8632 17.4476 17.7002 17.4788 17.5429C17.5101 17.3856 17.5873 17.2412 17.7007 17.1278C17.8141 17.0144 17.9586 16.9371 18.1159 16.9059C18.2732 16.8746 18.4362 16.8906 18.5844 16.952C18.7325 17.0134 18.8592 17.1173 18.9483 17.2506C19.0374 17.384 19.0849 17.5407 19.0849 17.7011C19.0934 18.1488 18.7217 18.5119 18.2741 18.5119ZM21.5258 18.5119C21.3108 18.5119 21.1045 18.4265 20.9525 18.2744C20.8004 18.1224 20.715 17.9162 20.715 17.7011C20.715 17.4861 20.8004 17.2798 20.9525 17.1278C21.1045 16.9757 21.3108 16.8903 21.5258 16.8903C21.7409 16.8903 21.9471 16.9757 22.0992 17.1278C22.2512 17.2798 22.3367 17.4861 22.3367 17.7011C22.3367 17.9162 22.2512 18.1224 22.0992 18.2744C21.9471 18.4265 21.7409 18.5119 21.5258 18.5119Z" fill="black"/>
<defs>
<filter id="filter0_b_2343_63551" x="-260.579" y="-260.62" width="554.463" height="554.464" filterUnits="userSpaceOnUse" color-interpolation-filters="sRGB">
<feFlood flood-opacity="0" result="BackgroundImageFix"/>
<feGaussianBlur in="BackgroundImageFix" stdDeviation="130.498"/>
<feComposite in2="SourceAlpha" operator="in" result="effect1_backgroundBlur_2343_63551"/>
<feBlend mode="normal" in="SourceGraphic" in2="effect1_backgroundBlur_2343_63551" result="shape"/>
</filter>
</defs>
</svg>
