<svg width="616" height="636" viewBox="0 0 616 636" fill="none" xmlns="http://www.w3.org/2000/svg">
<g clip-path="url(#clip0_6_7909)">
<mask id="path-1-inside-1_6_7909" fill="white">
<path d="M0 16C0 7.16343 7.16344 0 16 0H600C608.837 0 616 7.16344 616 16V620C616 628.837 608.837 636 600 636H16C7.16345 636 0 628.837 0 620V16Z"/>
</mask>
<path d="M0 16C0 7.16343 7.16344 0 16 0H600C608.837 0 616 7.16344 616 16V620C616 628.837 608.837 636 600 636H16C7.16345 636 0 628.837 0 620V16Z" fill="#252C32"/>
<rect x="-52" width="668" height="636" fill="url(#paint0_linear_6_7909)"/>
<g filter="url(#filter0_f_6_7909)">
<circle cx="242.535" cy="456.223" r="1.47862" fill="white" fill-opacity="0.7"/>
</g>
<g filter="url(#filter1_f_6_7909)">
<circle cx="562.35" cy="356.345" r="1.47862" fill="white" fill-opacity="0.7"/>
</g>
<path fill-rule="evenodd" clip-rule="evenodd" d="M48.9432 515.677C49.1772 517.266 49.8325 521.121 50.5815 523.831C51.3267 526.527 53.7558 530.026 54.8943 531.461C53.5794 530.716 51.344 529.626 52.9219 531.232C54.4999 532.837 55.1397 533.824 55.2624 534.117C55.6021 534.242 56.0042 534.493 54.8943 534.493C54.7052 534.493 54.5244 534.486 54.36 534.48C53.3192 534.44 52.9379 534.425 55.2624 536.375C57.2915 538.077 55.729 537.355 54.7368 536.897L54.7368 536.897C54.4129 536.747 54.1497 536.626 54.0921 536.626C54.0664 536.626 54.0237 536.62 53.9711 536.612C53.5458 536.552 52.4773 536.4 54.5602 538.633C54.8582 538.952 55.1314 539.237 55.3735 539.489L55.3737 539.49C57.0334 541.219 57.2281 541.422 53.8581 540.766C50.6785 540.146 52.4968 541.312 54.4794 542.583C54.9048 542.856 55.3377 543.134 55.7305 543.4C57.9539 544.905 59.0071 545.909 56.4326 545.407C53.8581 544.905 55.3794 547.163 57.7198 548.543C59.5681 549.633 58.4242 549.549 57.285 549.466C56.9817 549.443 56.6787 549.421 56.4326 549.421C55.8137 549.421 56.5368 549.912 57.5459 550.598C58.4449 551.209 59.5708 551.973 60.1773 552.683C61.4645 554.188 59.9432 554.188 58.539 553.435C57.9683 553.129 58.4807 554.105 59.3429 555.436L73.1667 553.75L158.973 549.561H183.157C188.418 549.561 280.563 557.91 302.045 562.997C311.926 562.997 357.832 566.41 397.908 569.39L397.91 569.39L397.91 569.39C428.954 571.698 456.498 573.746 461.091 573.746C463.743 573.746 471.858 573.809 483.18 573.898C495.527 573.994 511.689 574.12 528.736 574.226C529.026 574.023 532.747 569.793 531.019 570.487C529.273 571.189 529.164 570.838 530.146 570.019C531.129 569.201 532.111 566.276 531.783 566.51C531.521 566.697 530.728 566.822 530.365 566.861C530.656 566.51 531.456 565.481 532.329 564.171C533.42 562.533 533.202 562.65 532.984 562.767C532.765 562.884 531.019 563.352 531.238 563.118C531.456 562.884 533.857 559.608 533.42 559.959C531.063 561.55 531.129 561.09 531.456 560.661C532.402 559.413 534.031 557.128 532.984 557.971C531.674 559.023 531.783 558.088 532.329 557.035C535.057 552.707 535.93 544.869 536.148 542.763C536.323 541.079 536.658 542.062 536.803 542.763C537.021 544.245 537.632 547.84 538.331 550.367C539.026 552.881 541.291 556.144 542.353 557.483C541.126 556.788 539.042 555.771 540.513 557.269C541.985 558.766 542.581 559.686 542.696 559.959C543.013 560.076 543.388 560.31 542.353 560.31C542.176 560.31 542.008 560.304 541.854 560.298C540.884 560.26 540.528 560.246 542.696 562.065C544.588 563.652 543.131 562.979 542.206 562.552C541.904 562.412 541.658 562.299 541.605 562.299C541.581 562.299 541.541 562.293 541.492 562.286C541.095 562.23 540.099 562.088 542.041 564.171C542.319 564.468 542.574 564.734 542.8 564.969C544.347 566.582 544.529 566.772 541.386 566.159C538.421 565.581 540.117 566.669 541.966 567.854C542.362 568.109 542.766 568.368 543.132 568.616C545.206 570.019 546.188 570.955 543.787 570.487C541.386 570.019 542.805 572.125 544.987 573.412C546.711 574.428 545.644 574.35 544.582 574.272C544.299 574.251 544.017 574.231 543.787 574.231C543.644 574.231 543.578 574.259 543.574 574.311C560.74 574.401 577.95 574.457 592.35 574.431C592.992 573.571 594.135 571.973 593.847 572.205C591.804 573.583 591.861 573.185 592.145 572.813C592.964 571.732 594.376 569.752 593.468 570.482C592.334 571.394 592.428 570.583 592.901 569.671C595.265 565.921 596.021 559.13 596.21 557.306C596.362 555.846 596.651 556.698 596.778 557.306C596.967 558.59 597.496 561.705 598.101 563.894C598.703 566.072 600.666 568.899 601.586 570.059C600.523 569.457 598.717 568.576 599.992 569.874C601.267 571.171 601.784 571.968 601.883 572.205C602.158 572.306 602.483 572.509 601.586 572.509C601.433 572.509 601.287 572.503 601.154 572.498C600.313 572.466 600.005 572.454 601.883 574.029C602.054 574.172 602.193 574.294 602.304 574.397C616.718 574.32 626.734 574.126 628.341 573.746C634.917 572.192 691.933 562.092 720.867 562.092C741.974 562.092 810.288 567.88 850.809 571.314C865.836 572.587 877.041 573.536 880.598 573.746C882.669 573.869 888.115 573.436 895.874 572.621C895.916 572.433 895.91 572.334 895.845 572.381C895.618 572.543 894.931 572.651 894.616 572.685C894.868 572.381 895.561 571.489 896.318 570.354C897.263 568.935 897.074 569.036 896.885 569.137C896.696 569.239 895.183 569.644 895.372 569.441C895.561 569.239 897.641 566.401 897.263 566.705C895.221 568.083 895.278 567.685 895.561 567.313C896.381 566.232 897.793 564.252 896.885 564.982C895.75 565.894 895.845 565.083 896.318 564.171C898.681 560.421 899.438 553.63 899.627 551.806C899.778 550.346 900.068 551.198 900.194 551.806C900.383 553.09 900.913 556.205 901.518 558.394C902.12 560.572 904.083 563.399 905.003 564.559C903.94 563.957 902.134 563.076 903.409 564.374C904.684 565.671 905.201 566.468 905.3 566.705C905.574 566.806 905.899 567.009 905.003 567.009C904.906 567.009 904.811 567.007 904.722 567.004C904.67 567.002 904.619 567 904.571 566.998C903.73 566.966 903.422 566.954 905.3 568.529C906.939 569.905 905.677 569.321 904.875 568.951L904.875 568.951C904.613 568.83 904.401 568.732 904.354 568.732C904.341 568.732 904.322 568.73 904.299 568.727L904.257 568.721C903.913 568.672 903.05 568.549 904.733 570.354C904.973 570.612 905.194 570.842 905.39 571.046C905.558 571.221 905.708 571.378 905.836 571.515C920.853 569.779 940.741 567.232 961.153 564.577V559.349L959.433 557.91L961.153 556.108V550.041V549.987H961.156L961.952 548.956V548.741H962.118L967.655 541.568V541.56H967.661L967.706 541.502L967.75 541.56H968.425L968.428 541.556L968.431 541.56H995.387L998.35 539.069L1000.37 541.181L999.923 541.56H1002.45L1002.61 541.429L1002.74 541.56H1006.1L1006.1 541.556L1012.03 550.041H1012.05V553.52H1017.92L1017.92 553.516L1017.92 553.52L1020.25 556.91C1038.83 554.559 1052.79 552.927 1056.48 552.927C1056.76 552.927 1057.13 552.927 1057.6 552.926H1057.6H1057.61C1070.53 552.918 1155.77 552.86 1234.38 556.651C1234.07 556.539 1234.22 556.413 1234.36 556.337C1234.58 556.219 1238.44 551.844 1236.67 552.553C1234.91 553.263 1234.8 552.908 1235.79 552.08C1236.78 551.253 1237.78 548.297 1237.45 548.534C1237.18 548.723 1236.38 548.849 1236.01 548.888C1236.31 548.534 1237.12 547.493 1238 546.169C1239.1 544.514 1238.88 544.632 1238.66 544.75C1238.44 544.868 1236.67 545.341 1236.89 545.105C1237.12 544.868 1239.54 541.558 1239.1 541.913C1236.72 543.521 1236.78 543.056 1237.12 542.622C1238.07 541.361 1239.72 539.051 1238.66 539.903C1237.34 540.967 1237.45 540.021 1238 538.957C1240.75 534.582 1241.64 526.661 1241.86 524.533C1242.03 522.83 1242.37 523.823 1242.52 524.533C1242.74 526.03 1243.36 529.664 1244.06 532.218C1244.77 534.759 1247.06 538.057 1248.13 539.41C1246.89 538.707 1244.78 537.68 1246.27 539.193C1247.76 540.707 1248.36 541.637 1248.48 541.913C1248.8 542.031 1249.17 542.267 1248.13 542.267C1247.95 542.267 1247.78 542.261 1247.62 542.255C1246.64 542.217 1246.28 542.203 1248.48 544.041C1250.39 545.645 1248.92 544.965 1247.98 544.533C1247.67 544.392 1247.43 544.277 1247.37 544.277L1247.36 544.277L1247.35 544.277C1247.34 544.276 1247.33 544.274 1247.32 544.273C1247.3 544.27 1247.28 544.268 1247.26 544.264C1246.86 544.208 1245.85 544.064 1247.81 546.169C1248.09 546.468 1248.35 546.735 1248.58 546.972L1248.58 546.976C1250.14 548.607 1250.33 548.798 1247.15 548.179C1244.16 547.595 1245.87 548.694 1247.74 549.892C1248.14 550.149 1248.55 550.411 1248.92 550.662C1251.01 552.08 1252 553.026 1249.58 552.553C1247.15 552.08 1248.59 554.209 1250.79 555.509C1252.53 556.536 1251.46 556.457 1250.38 556.379C1250.1 556.358 1249.81 556.337 1249.58 556.337C1248.99 556.337 1249.68 556.8 1250.63 557.446L1250.71 557.502C1275.19 558.879 1298.46 560.669 1318 562.997V634.776H-2V562.917L38.7515 557.947C39.8597 556.202 40.9064 554.425 40.5176 554.564C39.8155 554.815 38.6452 554.439 38.9963 554.188C39.3474 553.937 42.858 550.048 41.3367 549.923C39.8155 549.797 40.0495 549.547 40.2835 549.421C40.5176 549.296 44.6134 544.654 42.741 545.407C40.8687 546.16 40.7516 545.783 41.8048 544.905C42.858 544.027 43.9112 540.891 43.5602 541.142C43.2793 541.343 42.429 541.476 42.0389 541.518C42.3509 541.142 43.2091 540.038 44.1453 538.633C45.3155 536.877 45.0815 537.002 44.8474 537.128C44.6134 537.253 42.741 537.755 42.9751 537.504C43.2091 537.253 45.7836 533.741 45.3155 534.117C42.7878 535.823 42.858 535.33 43.2091 534.87C44.2233 533.532 45.9708 531.081 44.8474 531.984C43.4431 533.113 43.5602 532.11 44.1453 530.981C47.0708 526.339 48.007 517.935 48.241 515.677C48.4283 513.87 48.7871 514.924 48.9432 515.677ZM601.352 574.402C601.141 574.305 600.978 574.232 600.938 574.232C600.917 574.232 600.882 574.227 600.84 574.221C600.651 574.194 600.304 574.145 600.311 574.407C600.661 574.405 601.007 574.403 601.352 574.402ZM977.399 550.041H985.302L985.302 550.041H977.4L977.399 550.041Z" fill="url(#paint1_linear_6_7909)"/>
<g filter="url(#filter2_f_6_7909)">
<circle cx="307.637" cy="-113.412" r="306.563" fill="url(#paint2_radial_6_7909)" fill-opacity="0.85"/>
</g>
<circle cx="307.637" cy="-125.696" r="234.529" fill="#F8F9FF" fill-opacity="0.05"/>
<circle cx="307.637" cy="-124.58" r="221.686" fill="#F8F9FF" fill-opacity="0.05"/>
<circle cx="307.916" cy="-126.534" r="209.122" fill="#F8F9FF" fill-opacity="0.1"/>
<circle cx="307.916" cy="-125.417" r="191.253" fill="#F8F9FF" fill-opacity="0.6"/>
<path fill-rule="evenodd" clip-rule="evenodd" d="M471.898 185.633L610.761 155.36L471.019 181.55L471.02 181.551C470.14 181.714 469.431 182.438 469.327 183.377C469.201 184.524 470.023 185.556 471.165 185.682C471.418 185.71 471.665 185.691 471.898 185.633Z" fill="url(#paint3_linear_6_7909)" fill-opacity="0.4"/>
<g filter="url(#filter3_f_6_7909)">
<circle cx="118.479" cy="125.479" r="1.47862" fill="white" fill-opacity="0.7"/>
</g>
<g filter="url(#filter4_d_6_7909)">
<path d="M510.223 600.26C510.167 600.081 510.099 599.907 510.018 599.738V599.727C509.64 598.956 509.014 598.335 508.24 597.966C507.467 597.597 506.592 597.501 505.758 597.693C504.923 597.886 504.178 598.355 503.642 599.026C503.107 599.697 502.814 600.53 502.809 601.389C502.809 601.659 502.838 601.929 502.896 602.193C502.896 602.197 502.896 602.2 502.896 602.204C502.917 602.313 502.95 602.421 502.982 602.53C503.176 603.295 503.213 604.091 503.093 604.871C502.973 605.652 502.697 606.399 502.282 607.07C501.868 607.741 501.323 608.321 500.68 608.776C500.037 609.231 499.31 609.551 498.541 609.717C497.772 609.884 496.978 609.893 496.205 609.745C495.432 609.596 494.698 609.293 494.044 608.853C493.391 608.414 492.833 607.846 492.403 607.186C491.973 606.525 491.68 605.783 491.542 605.006C491.737 606.353 492.213 607.644 492.937 608.795C493.661 609.946 494.618 610.932 495.746 611.688C496.873 612.444 498.147 612.954 499.484 613.185C500.82 613.416 502.19 613.363 503.505 613.029C504.82 612.695 506.051 612.087 507.117 611.246C508.183 610.404 509.061 609.347 509.694 608.144C510.327 606.94 510.702 605.616 510.793 604.258C510.884 602.9 510.69 601.538 510.223 600.26V600.26Z" fill="#6378FF"/>
<path d="M494.843 603.529C496.099 605.365 498.696 605.202 498.696 605.202C498.047 604.572 497.625 603.996 497.581 602.356C497.538 600.716 496.607 600.281 496.607 600.281C498.274 599.228 497.679 598.087 497.625 596.816C497.592 596.023 498.058 595.437 498.426 595.1C496.308 595.418 494.394 596.545 493.083 598.245C491.772 599.945 491.166 602.087 491.39 604.224C491.542 603.801 493.685 601.835 494.843 603.529Z" fill="#0AA3F9"/>
<path d="M510.223 600.26C510.167 600.081 510.099 599.907 510.018 599.738V599.727C509.64 598.956 509.014 598.335 508.24 597.966C507.467 597.597 506.592 597.501 505.758 597.693C504.923 597.886 504.178 598.355 503.642 599.026C503.107 599.697 502.814 600.53 502.809 601.389C502.809 601.659 502.838 601.929 502.896 602.193C502.896 602.197 502.896 602.2 502.896 602.204C502.917 602.313 502.95 602.421 502.982 602.53C503.176 603.295 503.213 604.091 503.093 604.871C502.973 605.652 502.697 606.399 502.282 607.07C501.868 607.741 501.323 608.321 500.68 608.776C500.037 609.231 499.31 609.551 498.541 609.717C497.772 609.884 496.978 609.893 496.205 609.745C495.432 609.596 494.698 609.293 494.044 608.853C493.391 608.414 492.833 607.846 492.403 607.186C491.973 606.525 491.68 605.783 491.542 605.006C491.737 606.353 492.213 607.644 492.937 608.795C493.661 609.946 494.618 610.932 495.746 611.688C496.873 612.444 498.147 612.954 499.484 613.185C500.82 613.416 502.19 613.363 503.505 613.029C504.82 612.695 506.051 612.087 507.117 611.246C508.183 610.404 509.061 609.347 509.694 608.144C510.327 606.94 510.702 605.616 510.793 604.258C510.884 602.9 510.69 601.538 510.223 600.26V600.26Z" fill="#0AA3F9"/>
<path fill-rule="evenodd" clip-rule="evenodd" d="M508.611 602.877C508.611 607.611 504.787 611.448 500.071 611.448C497.568 611.448 495.316 610.367 493.754 608.645C493.849 608.717 493.945 608.787 494.044 608.853C494.698 609.293 495.432 609.596 496.205 609.745C496.978 609.893 497.772 609.884 498.541 609.717C499.31 609.551 500.037 609.231 500.68 608.776C501.323 608.321 501.868 607.741 502.282 607.07C502.697 606.399 502.973 605.651 503.093 604.871C503.213 604.091 503.176 603.295 502.982 602.53C502.95 602.421 502.917 602.312 502.896 602.204C502.896 602.2 502.896 602.197 502.896 602.193C502.838 601.929 502.809 601.659 502.809 601.389C502.814 600.53 503.107 599.697 503.642 599.026C504.178 598.355 504.923 597.886 505.758 597.693C506.102 597.614 506.453 597.584 506.801 597.601C507.935 599.056 508.611 600.887 508.611 602.877Z" fill="#7ABBFD"/>
</g>
<path d="M527.757 602.057C527.584 601.14 526.937 600.681 525.814 600.681C525.263 600.681 524.832 600.794 524.519 601.021C524.217 601.237 524.065 601.501 524.065 601.814C524.065 602.127 524.163 602.376 524.357 602.559C524.562 602.732 524.875 602.894 525.296 603.045L527.579 603.935C528.356 604.237 528.955 604.621 529.376 605.085C529.797 605.538 530.007 606.11 530.007 606.801C530.007 607.751 529.651 608.506 528.939 609.068C528.226 609.618 527.212 609.893 525.895 609.893C524.729 609.893 523.785 609.607 523.062 609.035C522.252 608.409 521.826 607.524 521.783 606.38H523.677C523.677 607.243 524.125 607.789 525.021 608.015C525.29 608.091 525.647 608.129 526.089 608.129C526.532 608.129 526.942 608.021 527.32 607.805C527.697 607.578 527.886 607.281 527.886 606.914C527.886 606.537 527.784 606.25 527.579 606.056C527.374 605.851 527.039 605.662 526.575 605.49L524.486 604.664C523.677 604.351 523.056 603.984 522.624 603.563C522.193 603.142 521.977 602.559 521.977 601.814C521.977 600.94 522.317 600.249 522.997 599.742C523.688 599.213 524.621 598.949 525.798 598.949C526.985 598.949 527.897 599.224 528.534 599.774C529.182 600.314 529.554 601.075 529.651 602.057H527.757ZM535.28 603.11C534.741 603.11 534.32 603.288 534.018 603.644C533.715 603.989 533.537 604.437 533.483 604.988H536.835C536.835 604.135 536.56 603.563 536.009 603.271C535.815 603.163 535.572 603.11 535.28 603.11ZM537.79 602.737C538.071 603.083 538.276 603.482 538.405 603.935C538.546 604.389 538.616 604.804 538.616 605.182C538.616 605.56 538.594 605.9 538.551 606.202H533.467C533.489 606.839 533.645 607.357 533.937 607.756C534.228 608.156 534.671 608.355 535.264 608.355C536.052 608.355 536.522 608.01 536.673 607.319H538.6C538.459 608.107 538.098 608.728 537.515 609.181C536.9 609.656 536.149 609.893 535.264 609.893C534.228 609.893 533.359 609.516 532.658 608.76C531.934 607.972 531.573 606.963 531.573 605.732C531.573 604.47 531.934 603.455 532.658 602.689C533.338 601.955 534.207 601.588 535.264 601.588C536.354 601.588 537.196 601.971 537.79 602.737ZM545.637 606.59C545 606.418 544.407 606.331 543.856 606.331C542.82 606.331 542.302 606.677 542.302 607.368C542.302 607.659 542.421 607.913 542.658 608.129C542.895 608.334 543.273 608.436 543.791 608.436C544.32 608.436 544.752 608.263 545.087 607.918C545.432 607.562 545.615 607.119 545.637 606.59ZM543.468 605.069C544.094 605.069 544.817 605.171 545.637 605.376V604.599C545.637 604.049 545.524 603.644 545.297 603.385C545.081 603.115 544.72 602.98 544.212 602.98C543.716 602.98 543.333 603.083 543.063 603.288C542.793 603.482 542.658 603.763 542.658 604.13H540.569C540.569 603.234 540.882 602.586 541.508 602.187C542.145 601.787 543.03 601.588 544.164 601.588C545.783 601.588 546.83 602.154 547.305 603.288C547.467 603.676 547.548 604.135 547.548 604.664V609.667H545.88L545.734 608.614C545.227 609.467 544.45 609.893 543.403 609.893C542.388 609.893 541.6 609.645 541.039 609.149C540.521 608.674 540.262 608.075 540.262 607.351C540.262 606.617 540.548 606.056 541.12 605.668C541.692 605.268 542.475 605.069 543.468 605.069ZM550.332 598.56H552.243V609.667H550.332V598.56ZM560.236 605.732C560.236 604.901 560.074 604.281 559.75 603.87C559.426 603.45 558.973 603.239 558.39 603.239C557.818 603.239 557.349 603.45 556.982 603.87C556.615 604.281 556.431 604.901 556.431 605.732C556.431 606.563 556.593 607.19 556.917 607.61C557.251 608.021 557.705 608.226 558.277 608.226C558.849 608.226 559.318 608.021 559.685 607.61C560.052 607.19 560.236 606.563 560.236 605.732ZM558.342 601.588C558.871 601.588 559.367 601.674 559.831 601.847C560.295 602.009 560.695 602.262 561.029 602.608C561.774 603.363 562.146 604.41 562.146 605.749C562.146 607.065 561.774 608.102 561.029 608.857C560.36 609.548 559.464 609.893 558.342 609.893C557.219 609.893 556.312 609.548 555.622 608.857C554.877 608.112 554.505 607.076 554.505 605.749C554.505 604.399 554.877 603.352 555.622 602.608C556.302 601.928 557.208 601.588 558.342 601.588ZM565.488 607.27C565.51 608.015 566.055 608.388 567.123 608.388C567.534 608.388 567.868 608.301 568.127 608.129C568.397 607.945 568.532 607.735 568.532 607.497C568.532 607.26 568.451 607.076 568.289 606.947C568.127 606.817 567.874 606.698 567.528 606.59L565.812 605.975C564.538 605.533 563.902 604.81 563.902 603.806C563.902 603.137 564.198 602.602 564.792 602.203C565.396 601.793 566.201 601.588 567.204 601.588C568.219 601.588 568.996 601.809 569.536 602.251C570.086 602.694 570.372 603.25 570.394 603.919H568.597C568.575 603.66 568.451 603.455 568.224 603.304C567.998 603.153 567.674 603.077 567.253 603.077C566.832 603.077 566.503 603.163 566.265 603.336C566.039 603.498 565.925 603.687 565.925 603.903C565.925 604.281 566.244 604.561 566.881 604.745L568.743 605.441C569.358 605.646 569.827 605.91 570.151 606.234C570.486 606.547 570.653 606.957 570.653 607.465C570.653 608.112 570.345 608.674 569.73 609.149C569.093 609.645 568.251 609.893 567.204 609.893C566.157 609.893 565.316 609.667 564.679 609.213C564.042 608.749 563.718 608.102 563.707 607.27H565.488Z" fill="white"/>
</g>
<path d="M0 0H616H0ZM616 636H0H616ZM16 636C6.65718 636 -0.916667 628.426 -0.916667 619.083V16.9167C-0.916667 7.57385 6.65718 0 16 0H16C7.6697 0 0.916667 7.16344 0.916667 16V620C0.916667 628.837 7.6697 636 16 636H16ZM616 0V636V0Z" fill="#DEE0E2" mask="url(#path-1-inside-1_6_7909)"/>
<defs>
<filter id="filter0_f_6_7909" x="239.223" y="452.911" width="6.62394" height="6.6239" filterUnits="userSpaceOnUse" color-interpolation-filters="sRGB">
<feFlood flood-opacity="0" result="BackgroundImageFix"/>
<feBlend mode="normal" in="SourceGraphic" in2="BackgroundImageFix" result="shape"/>
<feGaussianBlur stdDeviation="0.916667" result="effect1_foregroundBlur_6_7909"/>
</filter>
<filter id="filter1_f_6_7909" x="559.038" y="353.033" width="6.62388" height="6.6239" filterUnits="userSpaceOnUse" color-interpolation-filters="sRGB">
<feFlood flood-opacity="0" result="BackgroundImageFix"/>
<feBlend mode="normal" in="SourceGraphic" in2="BackgroundImageFix" result="shape"/>
<feGaussianBlur stdDeviation="0.916667" result="effect1_foregroundBlur_6_7909"/>
</filter>
<filter id="filter2_f_6_7909" x="-318.891" y="-739.94" width="1253.06" height="1253.06" filterUnits="userSpaceOnUse" color-interpolation-filters="sRGB">
<feFlood flood-opacity="0" result="BackgroundImageFix"/>
<feBlend mode="normal" in="SourceGraphic" in2="BackgroundImageFix" result="shape"/>
<feGaussianBlur stdDeviation="159.982" result="effect1_foregroundBlur_6_7909"/>
</filter>
<filter id="filter3_f_6_7909" x="115.167" y="122.167" width="6.62394" height="6.62391" filterUnits="userSpaceOnUse" color-interpolation-filters="sRGB">
<feFlood flood-opacity="0" result="BackgroundImageFix"/>
<feBlend mode="normal" in="SourceGraphic" in2="BackgroundImageFix" result="shape"/>
<feGaussianBlur stdDeviation="0.916667" result="effect1_foregroundBlur_6_7909"/>
</filter>
<filter id="filter4_d_6_7909" x="484.598" y="589.062" width="32.9624" height="31.7184" filterUnits="userSpaceOnUse" color-interpolation-filters="sRGB">
<feFlood flood-opacity="0" result="BackgroundImageFix"/>
<feColorMatrix in="SourceAlpha" type="matrix" values="0 0 0 0 0 0 0 0 0 0 0 0 0 0 0 0 0 0 127 0" result="hardAlpha"/>
<feOffset dy="0.708333"/>
<feGaussianBlur stdDeviation="3.37302"/>
<feComposite in2="hardAlpha" operator="out"/>
<feColorMatrix type="matrix" values="0 0 0 0 1 0 0 0 0 1 0 0 0 0 1 0 0 0 0.25 0"/>
<feBlend mode="normal" in2="BackgroundImageFix" result="effect1_dropShadow_6_7909"/>
<feBlend mode="normal" in="SourceGraphic" in2="effect1_dropShadow_6_7909" result="shape"/>
</filter>
<linearGradient id="paint0_linear_6_7909" x1="282" y1="636" x2="282" y2="-23.0868" gradientUnits="userSpaceOnUse">
<stop stop-color="#092F50"/>
<stop offset="1" stop-opacity="0"/>
</linearGradient>
<linearGradient id="paint1_linear_6_7909" x1="687.431" y1="614.704" x2="685.488" y2="514.679" gradientUnits="userSpaceOnUse">
<stop stop-color="#030D16"/>
<stop offset="1" stop-color="#011831"/>
</linearGradient>
<radialGradient id="paint2_radial_6_7909" cx="0" cy="0" r="1" gradientUnits="userSpaceOnUse" gradientTransform="translate(307.637 -113.412) rotate(90) scale(306.563)">
<stop stop-color="#49C8D9"/>
<stop offset="0.338542" stop-color="#18B3BD"/>
<stop offset="0.630208" stop-color="#075696"/>
<stop offset="1" stop-color="#002A96"/>
</radialGradient>
<linearGradient id="paint3_linear_6_7909" x1="465.23" y1="183.528" x2="608.29" y2="158.991" gradientUnits="userSpaceOnUse">
<stop stop-color="#5CB1FF"/>
<stop offset="1" stop-color="white" stop-opacity="0"/>
</linearGradient>
<clipPath id="clip0_6_7909">
<path d="M0 16C0 7.16343 7.16344 0 16 0H600C608.837 0 616 7.16344 616 16V620C616 628.837 608.837 636 600 636H16C7.16345 636 0 628.837 0 620V16Z" fill="white"/>
</clipPath>
</defs>
</svg>
