<svg width="616" height="636" viewBox="0 0 616 636" fill="none" xmlns="http://www.w3.org/2000/svg">
<g clip-path="url(#clip0_6_7909)">
<mask id="path-1-inside-1_6_7909" fill="white">
<path d="M0 16C0 7.16343 7.16344 0 16 0H600C608.837 0 616 7.16344 616 16V620C616 628.837 608.837 636 600 636H16C7.16345 636 0 628.837 0 620V16Z"/>
</mask>
<path d="M0 16C0 7.16343 7.16344 0 16 0H600C608.837 0 616 7.16344 616 16V620C616 628.837 608.837 636 600 636H16C7.16345 636 0 628.837 0 620V16Z" fill="#252C32"/>
<rect x="-52" width="668" height="636" fill="url(#paint0_linear_6_7909)"/>
<g filter="url(#filter0_f_6_7909)">
<circle cx="242.535" cy="456.223" r="1.47862" fill="white" fill-opacity="0.7"/>
</g>
<g filter="url(#filter1_f_6_7909)">
<circle cx="562.35" cy="356.345" r="1.47862" fill="white" fill-opacity="0.7"/>
</g>
<path fill-rule="evenodd" clip-rule="evenodd" d="M48.9432 515.677C49.1772 517.266 49.8325 521.121 50.5815 523.831C51.3267 526.527 53.7558 530.026 54.8943 531.461C53.5794 530.716 51.344 529.626 52.9219 531.232C54.4999 532.837 55.1397 533.824 55.2624 534.117C55.6021 534.242 56.0042 534.493 54.8943 534.493C54.7052 534.493 54.5244 534.486 54.36 534.48C53.3192 534.44 52.9379 534.425 55.2624 536.375C57.2915 538.077 55.729 537.355 54.7368 536.897L54.7368 536.897C54.4129 536.747 54.1497 536.626 54.0921 536.626C54.0664 536.626 54.0237 536.62 53.9711 536.612C53.5458 536.552 52.4773 536.4 54.5602 538.633C54.8582 538.952 55.1314 539.237 55.3735 539.489L55.3737 539.49C57.0334 541.219 57.2281 541.422 53.8581 540.766C50.6785 540.146 52.4968 541.312 54.4794 542.583C54.9048 542.856 55.3377 543.134 55.7305 543.4C57.9539 544.905 59.0071 545.909 56.4326 545.407C53.8581 544.905 55.3794 547.163 57.7198 548.543C59.5681 549.633 58.4242 549.549 57.285 549.466C56.9817 549.443 56.6787 549.421 56.4326 549.421C55.8137 549.421 56.5368 549.912 57.5459 550.598C58.4449 551.209 59.5708 551.973 60.1773 552.683C61.4645 554.188 59.9432 554.188 58.539 553.435C57.9683 553.129 58.4807 554.105 59.3429 555.436L73.1667 553.75L158.973 549.561H183.157C188.418 549.561 280.563 557.91 302.045 562.997C311.926 562.997 357.832 566.41 397.908 569.39L397.91 569.39L397.91 569.39C428.954 571.698 456.498 573.746 461.091 573.746C463.743 573.746 471.858 573.809 483.18 573.898C495.527 573.994 511.689 574.12 528.736 574.226C529.026 574.023 532.747 569.793 531.019 570.487C529.273 571.189 529.164 570.838 530.146 570.019C531.129 569.201 532.111 566.276 531.783 566.51C531.521 566.697 530.728 566.822 530.365 566.861C530.656 566.51 531.456 565.481 532.329 564.171C533.42 562.533 533.202 562.65 532.984 562.767C532.765 562.884 531.019 563.352 531.238 563.118C531.456 562.884 533.857 559.608 533.42 559.959C531.063 561.55 531.129 561.09 531.456 560.661C532.402 559.413 534.031 557.128 532.984 557.971C531.674 559.023 531.783 558.088 532.329 557.035C535.057 552.707 535.93 544.869 536.148 542.763C536.323 541.079 536.658 542.062 536.803 542.763C537.021 544.245 537.632 547.84 538.331 550.367C539.026 552.881 541.291 556.144 542.353 557.483C541.126 556.788 539.042 555.771 540.513 557.269C541.985 558.766 542.581 559.686 542.696 559.959C543.013 560.076 543.388 560.31 542.353 560.31C542.176 560.31 542.008 560.304 541.854 560.298C540.884 560.26 540.528 560.246 542.696 562.065C544.588 563.652 543.131 562.979 542.206 562.552C541.904 562.412 541.658 562.299 541.605 562.299C541.581 562.299 541.541 562.293 541.492 562.286C541.095 562.23 540.099 562.088 542.041 564.171C542.319 564.468 542.574 564.734 542.8 564.969C544.347 566.582 544.529 566.772 541.386 566.159C538.421 565.581 540.117 566.669 541.966 567.854C542.362 568.109 542.766 568.368 543.132 568.616C545.206 570.019 546.188 570.955 543.787 570.487C541.386 570.019 542.805 572.125 544.987 573.412C546.711 574.428 545.644 574.35 544.582 574.272C544.299 574.251 544.017 574.231 543.787 574.231C543.644 574.231 543.578 574.259 543.574 574.311C560.74 574.401 577.95 574.457 592.35 574.431C592.992 573.571 594.135 571.973 593.847 572.205C591.804 573.583 591.861 573.185 592.145 572.813C592.964 571.732 594.376 569.752 593.468 570.482C592.334 571.394 592.428 570.583 592.901 569.671C595.265 565.921 596.021 559.13 596.21 557.306C596.362 555.846 596.651 556.698 596.778 557.306C596.967 558.59 597.496 561.705 598.101 563.894C598.703 566.072 600.666 568.899 601.586 570.059C600.523 569.457 598.717 568.576 599.992 569.874C601.267 571.171 601.784 571.968 601.883 572.205C602.158 572.306 602.483 572.509 601.586 572.509C601.433 572.509 601.287 572.503 601.154 572.498C600.313 572.466 600.005 572.454 601.883 574.029C602.054 574.172 602.193 574.294 602.304 574.397C616.718 574.32 626.734 574.126 628.341 573.746C634.917 572.192 691.933 562.092 720.867 562.092C741.974 562.092 810.288 567.88 850.809 571.314C865.836 572.587 877.041 573.536 880.598 573.746C882.669 573.869 888.115 573.436 895.874 572.621C895.916 572.433 895.91 572.334 895.845 572.381C895.618 572.543 894.931 572.651 894.616 572.685C894.868 572.381 895.561 571.489 896.318 570.354C897.263 568.935 897.074 569.036 896.885 569.137C896.696 569.239 895.183 569.644 895.372 569.441C895.561 569.239 897.641 566.401 897.263 566.705C895.221 568.083 895.278 567.685 895.561 567.313C896.381 566.232 897.793 564.252 896.885 564.982C895.75 565.894 895.845 565.083 896.318 564.171C898.681 560.421 899.438 553.63 899.627 551.806C899.778 550.346 900.068 551.198 900.194 551.806C900.383 553.09 900.913 556.205 901.518 558.394C902.12 560.572 904.083 563.399 905.003 564.559C903.94 563.957 902.134 563.076 903.409 564.374C904.684 565.671 905.201 566.468 905.3 566.705C905.574 566.806 905.899 567.009 905.003 567.009C904.906 567.009 904.811 567.007 904.722 567.004C904.67 567.002 904.619 567 904.571 566.998C903.73 566.966 903.422 566.954 905.3 568.529C906.939 569.905 905.677 569.321 904.875 568.951L904.875 568.951C904.613 568.83 904.401 568.732 904.354 568.732C904.341 568.732 904.322 568.73 904.299 568.727L904.257 568.721C903.913 568.672 903.05 568.549 904.733 570.354C904.973 570.612 905.194 570.842 905.39 571.046C905.558 571.221 905.708 571.378 905.836 571.515C920.853 569.779 940.741 567.232 961.153 564.577V559.349L959.433 557.91L961.153 556.108V550.041V549.987H961.156L961.952 548.956V548.741H962.118L967.655 541.568V541.56H967.661L967.706 541.502L967.75 541.56H968.425L968.428 541.556L968.431 541.56H995.387L998.35 539.069L1000.37 541.181L999.923 541.56H1002.45L1002.61 541.429L1002.74 541.56H1006.1L1006.1 541.556L1012.03 550.041H1012.05V553.52H1017.92L1017.92 553.516L1017.92 553.52L1020.25 556.91C1038.83 554.559 1052.79 552.927 1056.48 552.927C1056.76 552.927 1057.13 552.927 1057.6 552.926H1057.6H1057.61C1070.53 552.918 1155.77 552.86 1234.38 556.651C1234.07 556.539 1234.22 556.413 1234.36 556.337C1234.58 556.219 1238.44 551.844 1236.67 552.553C1234.91 553.263 1234.8 552.908 1235.79 552.08C1236.78 551.253 1237.78 548.297 1237.45 548.534C1237.18 548.723 1236.38 548.849 1236.01 548.888C1236.31 548.534 1237.12 547.493 1238 546.169C1239.1 544.514 1238.88 544.632 1238.66 544.75C1238.44 544.868 1236.67 545.341 1236.89 545.105C1237.12 544.868 1239.54 541.558 1239.1 541.913C1236.72 543.521 1236.78 543.056 1237.12 542.622C1238.07 541.361 1239.72 539.051 1238.66 539.903C1237.34 540.967 1237.45 540.021 1238 538.957C1240.75 534.582 1241.64 526.661 1241.86 524.533C1242.03 522.83 1242.37 523.823 1242.52 524.533C1242.74 526.03 1243.36 529.664 1244.06 532.218C1244.77 534.759 1247.06 538.057 1248.13 539.41C1246.89 538.707 1244.78 537.68 1246.27 539.193C1247.76 540.707 1248.36 541.637 1248.48 541.913C1248.8 542.031 1249.17 542.267 1248.13 542.267C1247.95 542.267 1247.78 542.261 1247.62 542.255C1246.64 542.217 1246.28 542.203 1248.48 544.041C1250.39 545.645 1248.92 544.965 1247.98 544.533C1247.67 544.392 1247.43 544.277 1247.37 544.277L1247.36 544.277L1247.35 544.277C1247.34 544.276 1247.33 544.274 1247.32 544.273C1247.3 544.27 1247.28 544.268 1247.26 544.264C1246.86 544.208 1245.85 544.064 1247.81 546.169C1248.09 546.468 1248.35 546.735 1248.58 546.972L1248.58 546.976C1250.14 548.607 1250.33 548.798 1247.15 548.179C1244.16 547.595 1245.87 548.694 1247.74 549.892C1248.14 550.149 1248.55 550.411 1248.92 550.662C1251.01 552.08 1252 553.026 1249.58 552.553C1247.15 552.08 1248.59 554.209 1250.79 555.509C1252.53 556.536 1251.46 556.457 1250.38 556.379C1250.1 556.358 1249.81 556.337 1249.58 556.337C1248.99 556.337 1249.68 556.8 1250.63 557.446L1250.71 557.502C1275.19 558.879 1298.46 560.669 1318 562.997V634.776H-2V562.917L38.7515 557.947C39.8597 556.202 40.9064 554.425 40.5176 554.564C39.8155 554.815 38.6452 554.439 38.9963 554.188C39.3474 553.937 42.858 550.048 41.3367 549.923C39.8155 549.797 40.0495 549.547 40.2835 549.421C40.5176 549.296 44.6134 544.654 42.741 545.407C40.8687 546.16 40.7516 545.783 41.8048 544.905C42.858 544.027 43.9112 540.891 43.5602 541.142C43.2793 541.343 42.429 541.476 42.0389 541.518C42.3509 541.142 43.2091 540.038 44.1453 538.633C45.3155 536.877 45.0815 537.002 44.8474 537.128C44.6134 537.253 42.741 537.755 42.9751 537.504C43.2091 537.253 45.7836 533.741 45.3155 534.117C42.7878 535.823 42.858 535.33 43.2091 534.87C44.2233 533.532 45.9708 531.081 44.8474 531.984C43.4431 533.113 43.5602 532.11 44.1453 530.981C47.0708 526.339 48.007 517.935 48.241 515.677C48.4283 513.87 48.7871 514.924 48.9432 515.677ZM601.352 574.402C601.141 574.305 600.978 574.232 600.938 574.232C600.917 574.232 600.882 574.227 600.84 574.221C600.651 574.194 600.304 574.145 600.311 574.407C600.661 574.405 601.007 574.403 601.352 574.402ZM977.399 550.041H985.302L985.302 550.041H977.4L977.399 550.041Z" fill="url(#paint1_linear_6_7909)"/>
<g filter="url(#filter2_f_6_7909)">
<circle cx="307.637" cy="-113.412" r="306.563" fill="url(#paint2_radial_6_7909)" fill-opacity="0.85"/>
</g>
<circle cx="307.637" cy="-125.696" r="234.529" fill="#F8F9FF" fill-opacity="0.05"/>
<circle cx="307.637" cy="-124.58" r="221.686" fill="#F8F9FF" fill-opacity="0.05"/>
<circle cx="307.916" cy="-126.534" r="209.122" fill="#F8F9FF" fill-opacity="0.1"/>
<circle cx="307.916" cy="-125.417" r="191.253" fill="#F8F9FF" fill-opacity="0.6"/>
<path fill-rule="evenodd" clip-rule="evenodd" d="M471.898 185.633L610.761 155.36L471.019 181.55L471.02 181.551C470.14 181.714 469.431 182.438 469.327 183.377C469.201 184.524 470.023 185.556 471.165 185.682C471.418 185.71 471.665 185.691 471.898 185.633Z" fill="url(#paint3_linear_6_7909)" fill-opacity="0.4"/>
<g filter="url(#filter3_f_6_7909)">
<circle cx="118.479" cy="125.479" r="1.47862" fill="white" fill-opacity="0.7"/>
</g>
</g>
<path d="M0 0H616H0ZM616 636H0H616ZM16 636C6.65718 636 -0.916667 628.426 -0.916667 619.083V16.9167C-0.916667 7.57385 6.65718 0 16 0H16C7.6697 0 0.916667 7.16344 0.916667 16V620C0.916667 628.837 7.6697 636 16 636H16ZM616 0V636V0Z" fill="#DEE0E2" mask="url(#path-1-inside-1_6_7909)"/>
<defs>
<filter id="filter0_f_6_7909" x="239.223" y="452.911" width="6.62394" height="6.6239" filterUnits="userSpaceOnUse" color-interpolation-filters="sRGB">
<feFlood flood-opacity="0" result="BackgroundImageFix"/>
<feBlend mode="normal" in="SourceGraphic" in2="BackgroundImageFix" result="shape"/>
<feGaussianBlur stdDeviation="0.916667" result="effect1_foregroundBlur_6_7909"/>
</filter>
<filter id="filter1_f_6_7909" x="559.038" y="353.033" width="6.62388" height="6.6239" filterUnits="userSpaceOnUse" color-interpolation-filters="sRGB">
<feFlood flood-opacity="0" result="BackgroundImageFix"/>
<feBlend mode="normal" in="SourceGraphic" in2="BackgroundImageFix" result="shape"/>
<feGaussianBlur stdDeviation="0.916667" result="effect1_foregroundBlur_6_7909"/>
</filter>
<filter id="filter2_f_6_7909" x="-318.891" y="-739.94" width="1253.06" height="1253.06" filterUnits="userSpaceOnUse" color-interpolation-filters="sRGB">
<feFlood flood-opacity="0" result="BackgroundImageFix"/>
<feBlend mode="normal" in="SourceGraphic" in2="BackgroundImageFix" result="shape"/>
<feGaussianBlur stdDeviation="159.982" result="effect1_foregroundBlur_6_7909"/>
</filter>
<filter id="filter3_f_6_7909" x="115.167" y="122.167" width="6.62394" height="6.62391" filterUnits="userSpaceOnUse" color-interpolation-filters="sRGB">
<feFlood flood-opacity="0" result="BackgroundImageFix"/>
<feBlend mode="normal" in="SourceGraphic" in2="BackgroundImageFix" result="shape"/>
<feGaussianBlur stdDeviation="0.916667" result="effect1_foregroundBlur_6_7909"/>
</filter>
<linearGradient id="paint0_linear_6_7909" x1="282" y1="636" x2="282" y2="-23.0868" gradientUnits="userSpaceOnUse">
<stop stop-color="#092F50"/>
<stop offset="1" stop-opacity="0"/>
</linearGradient>
<linearGradient id="paint1_linear_6_7909" x1="687.431" y1="614.704" x2="685.488" y2="514.679" gradientUnits="userSpaceOnUse">
<stop stop-color="#030D16"/>
<stop offset="1" stop-color="#011831"/>
</linearGradient>
<radialGradient id="paint2_radial_6_7909" cx="0" cy="0" r="1" gradientUnits="userSpaceOnUse" gradientTransform="translate(307.637 -113.412) rotate(90) scale(306.563)">
<stop stop-color="#49C8D9"/>
<stop offset="0.338542" stop-color="#18B3BD"/>
<stop offset="0.630208" stop-color="#075696"/>
<stop offset="1" stop-color="#002A96"/>
</radialGradient>
<linearGradient id="paint3_linear_6_7909" x1="465.23" y1="183.528" x2="608.29" y2="158.991" gradientUnits="userSpaceOnUse">
<stop stop-color="#5CB1FF"/>
<stop offset="1" stop-color="white" stop-opacity="0"/>
</linearGradient>
<clipPath id="clip0_6_7909">
<path d="M0 16C0 7.16343 7.16344 0 16 0H600C608.837 0 616 7.16344 616 16V620C616 628.837 608.837 636 600 636H16C7.16345 636 0 628.837 0 620V16Z" fill="white"/>
</clipPath>
</defs>
</svg>
