<svg width="32" height="32" viewBox="0 0 16 16" fill="currentColor" xmlns="http://www.w3.org/2000/svg">
<path fill-rule="evenodd" clip-rule="evenodd" d="M8.00008 2.66675C8.36827 2.66675 8.66675 2.96522 8.66675 3.33341V7.33341H12.6667C13.0349 7.33341 13.3334 7.63189 13.3334 8.00008C13.3334 8.36827 13.0349 8.66675 12.6667 8.66675H8.66675V12.6667C8.66675 13.0349 8.36827 13.3334 8.00008 13.3334C7.63189 13.3334 7.33341 13.0349 7.33341 12.6667V8.66675H3.33341C2.96522 8.66675 2.66675 8.36827 2.66675 8.00008C2.66675 7.63189 2.96522 7.33341 3.33341 7.33341H7.33341V3.33341C7.33341 2.96522 7.63189 2.66675 8.00008 2.66675Z"/>
</svg>
