<svg xmlns="http://www.w3.org/2000/svg"  viewBox="0 0 16 17" fill="currentColor">
  <path fill-rule="evenodd" clip-rule="evenodd" d="M11.9591 2.31836H6.84106C6.48962 2.31835 6.18645 2.31834 5.93673 2.33874C5.67317 2.36027 5.41103 2.40782 5.15877 2.53635C4.78245 2.72809 4.47649 3.03406 4.28474 3.41038C4.15621 3.66263 4.10867 3.92478 4.08713 4.18834C4.06673 4.43806 4.06674 4.74123 4.06675 5.09266V10.2107C4.06674 10.5622 4.06673 10.8653 4.08713 11.115C4.10867 11.3786 4.15621 11.6408 4.28474 11.893C4.47649 12.2693 4.78245 12.5753 5.15877 12.767C5.41103 12.8956 5.67317 12.9431 5.93673 12.9646C6.18643 12.985 6.48957 12.985 6.84096 12.985H11.9591C12.3105 12.985 12.6137 12.985 12.8634 12.9646C13.127 12.9431 13.3891 12.8956 13.6414 12.767C14.0177 12.5753 14.3237 12.2693 14.5154 11.893C14.644 11.6408 14.6915 11.3786 14.713 11.115C14.7334 10.8654 14.7334 10.5622 14.7334 10.2108V5.09268C14.7334 4.74129 14.7334 4.43803 14.713 4.18834C14.6915 3.92478 14.644 3.66263 14.5154 3.41038C14.3237 3.03406 14.0177 2.72809 13.6414 2.53635C13.3891 2.40782 13.127 2.36027 12.8634 2.33874C12.6137 2.31834 12.3105 2.31835 11.9591 2.31836ZM10.0668 11.6517H11.9334C12.3178 11.6517 12.566 11.6512 12.7549 11.6357C12.936 11.6209 13.0031 11.5958 13.0361 11.579C13.1615 11.5151 13.2635 11.4131 13.3274 11.2877C13.3442 11.2547 13.3693 11.1876 13.3841 11.0065C13.3996 10.8176 13.4001 10.5694 13.4001 10.185V8.31836H10.0668V11.6517ZM13.4001 6.98503V5.11836C13.4001 4.73399 13.3996 4.48581 13.3841 4.29692C13.3693 4.11581 13.3442 4.04866 13.3274 4.0157C13.2635 3.89026 13.1615 3.78827 13.0361 3.72436C13.0031 3.70756 12.936 3.68244 12.7549 3.66765C12.566 3.65221 12.3178 3.65169 11.9334 3.65169H6.86675C6.48238 3.65169 6.2342 3.65221 6.04531 3.66765C5.8642 3.68244 5.79706 3.70756 5.76409 3.72436C5.63865 3.78827 5.53666 3.89026 5.47275 4.0157C5.45595 4.04866 5.43084 4.11581 5.41604 4.29692C5.40061 4.48581 5.40009 4.73399 5.40009 5.11836V6.98503H13.4001ZM8.73342 8.31836V11.6517H6.86675C6.48238 11.6517 6.2342 11.6512 6.04531 11.6357C5.8642 11.6209 5.79706 11.5958 5.76409 11.579C5.63865 11.5151 5.53666 11.4131 5.47275 11.2877C5.45595 11.2547 5.43084 11.1876 5.41604 11.0065C5.40061 10.8176 5.40009 10.5694 5.40009 10.185V8.31836H8.73342Z" fill="currentColor"/>
  <path d="M2.73342 5.65169C2.73342 5.2835 2.43494 4.98503 2.06675 4.98503C1.69856 4.98503 1.40009 5.2835 1.40009 5.65169L1.40009 11.5995C1.40008 12.1733 1.40007 12.6441 1.43136 13.0272C1.4638 13.4241 1.53314 13.785 1.70527 14.1229C1.97371 14.6497 2.40206 15.0781 2.92891 15.3465C3.26673 15.5186 3.62766 15.588 4.02463 15.6204C4.40764 15.6517 4.87849 15.6517 5.45225 15.6517H11.4001C11.7683 15.6517 12.0668 15.3532 12.0668 14.985C12.0668 14.6168 11.7683 14.3184 11.4001 14.3184H5.48009C4.8717 14.3184 4.4555 14.3178 4.13321 14.2915C3.81869 14.2658 3.65276 14.2189 3.53423 14.1585C3.25826 14.0179 3.03389 13.7935 2.89328 13.5175C2.83288 13.399 2.78597 13.2331 2.76027 12.9186C2.73394 12.5963 2.73342 12.1801 2.73342 11.5717V5.65169Z" fill="currentColor"/>
</svg>
