<svg xmlns="http://www.w3.org/2000/svg"   viewBox="0 0 16 17" fill="currentColor">
  <path fill-rule="evenodd" clip-rule="evenodd" d="M3.33333 2.31836C3.70152 2.31836 3.99999 2.61684 3.99999 2.98503V5.65169C3.99999 6.01988 3.70152 6.31836 3.33333 6.31836C2.96514 6.31836 2.66666 6.01988 2.66666 5.65169V2.98503C2.66666 2.61684 2.96514 2.31836 3.33333 2.31836ZM8 2.31836C8.36819 2.31836 8.66666 2.61684 8.66666 2.98503V5.09883C9.44346 5.37339 10 6.11421 10 6.98503C10 8.0896 9.10456 8.98503 8 8.98503C6.89543 8.98503 6 8.0896 6 6.98503C6 6.11421 6.55653 5.37339 7.33333 5.09883V2.98503C7.33333 2.61684 7.6318 2.31836 8 2.31836ZM12.6667 2.31836C13.0349 2.31836 13.3333 2.61684 13.3333 2.98503V6.98503C13.3333 7.35322 13.0349 7.65169 12.6667 7.65169C12.2985 7.65169 12 7.35322 12 6.98503V2.98503C12 2.61684 12.2985 2.31836 12.6667 2.31836ZM8 6.31836C7.63181 6.31836 7.33333 6.61684 7.33333 6.98503C7.33333 7.35322 7.6318 7.65169 8 7.65169C8.36819 7.65169 8.66666 7.35322 8.66666 6.98503C8.66666 6.61684 8.36819 6.31836 8 6.31836ZM3.33333 8.98503C2.96514 8.98503 2.66666 9.2835 2.66666 9.65169C2.66666 10.0199 2.96514 10.3184 3.33333 10.3184C3.70152 10.3184 3.99999 10.0199 3.99999 9.65169C3.99999 9.2835 3.70152 8.98503 3.33333 8.98503ZM1.33333 9.65169C1.33333 8.54712 2.22876 7.65169 3.33333 7.65169C4.4379 7.65169 5.33333 8.54712 5.33333 9.65169C5.33333 10.5225 4.77679 11.2633 3.99999 11.5379V14.985C3.99999 15.3532 3.70152 15.6517 3.33333 15.6517C2.96514 15.6517 2.66666 15.3532 2.66666 14.985L2.66666 11.5379C1.88987 11.2633 1.33333 10.5225 1.33333 9.65169ZM12.6667 10.3184C12.2985 10.3184 12 10.6168 12 10.985C12 11.3532 12.2985 11.6517 12.6667 11.6517C13.0349 11.6517 13.3333 11.3532 13.3333 10.985C13.3333 10.6168 13.0349 10.3184 12.6667 10.3184ZM10.6667 10.985C10.6667 9.88046 11.5621 8.98503 12.6667 8.98503C13.7712 8.98503 14.6667 9.88046 14.6667 10.985C14.6667 11.8558 14.1101 12.5967 13.3333 12.8712V14.985C13.3333 15.3532 13.0349 15.6517 12.6667 15.6517C12.2985 15.6517 12 15.3532 12 14.985V12.8712C11.2232 12.5967 10.6667 11.8558 10.6667 10.985ZM8 10.3184C8.36819 10.3184 8.66666 10.6168 8.66666 10.985V14.985C8.66666 15.3532 8.36819 15.6517 8 15.6517C7.6318 15.6517 7.33333 15.3532 7.33333 14.985V10.985C7.33333 10.6168 7.6318 10.3184 8 10.3184Z" fill="currentColor"/>
</svg>