<svg xmlns="http://www.w3.org/2000/svg" viewBox="0 0 20 21" fill="none">
  <path fill-rule="evenodd" clip-rule="evenodd" d="M9.3531 1.96753H10.6469C11.0507 1.96751 11.4027 1.9675 11.6935 1.99126C12.0015 2.01642 12.3134 2.07236 12.615 2.22602C13.0612 2.45339 13.424 2.8162 13.6514 3.26245C13.805 3.56403 13.861 3.87586 13.8861 4.1839C13.9062 4.42898 13.9093 4.71763 13.9098 5.04407H16.9222C17.3824 5.04407 17.7555 5.41717 17.7555 5.87741C17.7555 6.33764 17.3824 6.71074 16.9222 6.71074H16.2173V14.5257C16.2173 15.1429 16.2173 15.6562 16.1831 16.0751C16.1474 16.5114 16.0705 16.9182 15.875 17.302C15.5738 17.893 15.0934 18.3735 14.5024 18.6746C14.1186 18.8702 13.7118 18.9471 13.2755 18.9827C12.8566 19.0169 12.3433 19.0169 11.7261 19.0169H8.27386C7.65667 19.0169 7.14343 19.0169 6.72454 18.9827C6.28824 18.9471 5.88144 18.8702 5.49759 18.6746C4.90662 18.3735 4.42615 17.893 4.12504 17.302C3.92946 16.9182 3.85257 16.5114 3.81692 16.0751C3.78269 15.6562 3.7827 15.1429 3.78272 14.5257L3.78272 6.71074H3.07778C2.61754 6.71074 2.24445 6.33764 2.24445 5.87741C2.24445 5.41717 2.61754 5.04407 3.07778 5.04407H6.09021C6.09069 4.71763 6.09382 4.42898 6.11385 4.1839C6.13902 3.87586 6.19495 3.56403 6.34861 3.26245C6.57598 2.8162 6.93879 2.45339 7.38504 2.22602C7.68662 2.07236 7.99845 2.01642 8.30649 1.99126C8.59725 1.9675 8.94934 1.96751 9.3531 1.96753ZM5.44938 6.71074V14.4917C5.44938 15.1516 5.45003 15.5964 5.47805 15.9394C5.50528 16.2726 5.55413 16.4356 5.61005 16.5454C5.75137 16.8227 5.97688 17.0482 6.25424 17.1896C6.36397 17.2455 6.52703 17.2943 6.86026 17.3216C7.20322 17.3496 7.64801 17.3502 8.3079 17.3502H11.6921C12.352 17.3502 12.7968 17.3496 13.1397 17.3216C13.473 17.2943 13.636 17.2455 13.7458 17.1896C14.0231 17.0482 14.2486 16.8227 14.3899 16.5454C14.4459 16.4356 14.4947 16.2726 14.5219 15.9394C14.55 15.5964 14.5506 15.1516 14.5506 14.4917V6.71074H5.44938ZM12.2431 5.04407H7.75693C7.75753 4.72102 7.76049 4.49694 7.77498 4.31962C7.79173 4.11465 7.81963 4.04657 7.83362 4.0191C7.90121 3.88646 8.00905 3.77862 8.14169 3.71103C8.16916 3.69703 8.23724 3.66913 8.44221 3.65239C8.65692 3.63485 8.94018 3.6342 9.38469 3.6342H10.6153C11.0598 3.6342 11.3431 3.63485 11.5578 3.65239C11.7628 3.66913 11.8308 3.69703 11.8583 3.71103C11.9909 3.77862 12.0988 3.88646 12.1664 4.0191C12.1804 4.04657 12.2083 4.11465 12.225 4.31962C12.2395 4.49694 12.2425 4.72102 12.2431 5.04407ZM8.46173 9.27432C8.92196 9.27432 9.29506 9.64741 9.29506 10.1076V13.9533C9.29506 14.4136 8.92196 14.7867 8.46173 14.7867C8.00149 14.7867 7.62839 14.4136 7.62839 13.9533V10.1076C7.62839 9.64741 8.00149 9.27432 8.46173 9.27432ZM11.5383 9.27432C11.9985 9.27432 12.3716 9.64741 12.3716 10.1076V13.9533C12.3716 14.4136 11.9985 14.7867 11.5383 14.7867C11.078 14.7867 10.7049 14.4136 10.7049 13.9533V10.1076C10.7049 9.64741 11.078 9.27432 11.5383 9.27432Z" fill="currentColor"/>
</svg>