<svg xmlns="http://www.w3.org/2000/svg" width="21" height="20" viewBox="0 0 21 20" fill="none">
  <path fill-rule="evenodd" clip-rule="evenodd" d="M6.74968 2.4987C6.41816 2.4987 6.10021 2.63039 5.86579 2.86481C5.63137 3.09924 5.49968 3.41718 5.49968 3.7487C5.49968 4.08022 5.63137 4.39816 5.86579 4.63258C6.10021 4.867 6.41816 4.9987 6.74968 4.9987H9.37803C9.2763 4.73254 9.14752 4.43988 8.98825 4.1503C8.46411 3.19732 7.74459 2.4987 6.74968 2.4987ZM9.66634 6.66536V10.832H2.99968V8.4987C2.99968 8.01824 3.00032 7.70801 3.01962 7.47189C3.03811 7.24551 3.06951 7.16158 3.0905 7.12037C3.1704 6.96357 3.29788 6.83609 3.45468 6.75619C3.49589 6.7352 3.57982 6.7038 3.80621 6.6853C4.04232 6.66601 4.35255 6.66537 4.83301 6.66537L9.66634 6.66536ZM4.11661 5.00325C3.93164 4.61502 3.83301 4.18694 3.83301 3.7487C3.83301 2.97515 4.1403 2.23328 4.68728 1.6863C5.23426 1.13932 5.97613 0.832031 6.74968 0.832031C8.67143 0.832031 9.82691 2.21674 10.4486 3.3471C10.4659 3.37861 10.483 3.4101 10.4997 3.44154C10.5164 3.4101 10.5334 3.37861 10.5507 3.3471C11.1724 2.21674 12.3279 0.832031 14.2497 0.832031C15.0232 0.832031 15.7651 1.13932 16.3121 1.6863C16.8591 2.23328 17.1663 2.97515 17.1663 3.7487C17.1663 4.18694 17.0677 4.61502 16.8827 5.00325C17.0438 5.00678 17.1927 5.01305 17.3289 5.02417C17.6583 5.05109 17.986 5.11052 18.3013 5.27118C18.7717 5.51087 19.1542 5.89332 19.3939 6.36372C19.5545 6.67904 19.614 7.00672 19.6409 7.33618C19.6664 7.64832 19.6664 8.02728 19.6663 8.46656V15.6975C19.6664 16.1368 19.6664 16.5157 19.6409 16.8279C19.614 17.1573 19.5545 17.485 19.3939 17.8003C19.1542 18.2707 18.7717 18.6532 18.3013 18.8929C17.986 19.0535 17.6583 19.113 17.3289 19.1399C17.0167 19.1654 16.6378 19.1654 16.1985 19.1654H10.5008C10.5005 19.1654 10.5001 19.1654 10.4997 19.1654C10.4993 19.1654 10.4989 19.1654 10.4985 19.1654H4.80087C4.36159 19.1654 3.98262 19.1654 3.67049 19.1399C3.34103 19.113 3.01335 19.0535 2.69803 18.8929C2.22763 18.6532 1.84518 18.2707 1.60549 17.8003C1.44483 17.485 1.3854 17.1573 1.35848 16.8279C1.33298 16.5157 1.33299 16.1368 1.33301 15.6975L1.33301 11.6658C1.33301 11.6657 1.33301 11.666 1.33301 11.6658C1.33301 11.6657 1.33301 11.665 1.33301 11.6649L1.33301 8.46658C1.33299 8.02729 1.33298 7.64832 1.35848 7.33617C1.3854 7.00672 1.44483 6.67904 1.60549 6.36372C1.84518 5.89332 2.22763 5.51087 2.69803 5.27118C3.01335 5.11052 3.34103 5.05109 3.67049 5.02417C3.80666 5.01305 3.95554 5.00678 4.11661 5.00325ZM2.99968 12.4987V15.6654C2.99968 16.1458 3.00032 16.4561 3.01962 16.6922C3.03811 16.9186 3.06951 17.0025 3.0905 17.0437C3.1704 17.2005 3.29788 17.328 3.45468 17.4079C3.49589 17.4289 3.57982 17.4603 3.80621 17.4788C4.04232 17.498 4.35255 17.4987 4.83301 17.4987H9.66634V12.4987H2.99968ZM11.333 12.4987V17.4987H16.1663C16.6468 17.4987 16.957 17.4981 17.1931 17.4788C17.4195 17.4603 17.5035 17.4289 17.5447 17.4079C17.7015 17.328 17.829 17.2005 17.9088 17.0437C17.9298 17.0025 17.9612 16.9186 17.9797 16.6922C17.999 16.4561 17.9997 16.1458 17.9997 15.6654V12.4987H11.333ZM17.9997 10.832V8.4987C17.9997 8.01824 17.999 7.70801 17.9797 7.4719C17.9612 7.24551 17.9298 7.16158 17.9088 7.12037C17.829 6.96357 17.7015 6.83609 17.5447 6.75619C17.5035 6.7352 17.4195 6.7038 17.1931 6.68531C16.957 6.66601 16.6468 6.66537 16.1663 6.66537L11.333 6.66536V10.832H17.9997ZM11.6213 4.9987C11.7231 4.73254 11.8518 4.43988 12.0111 4.1503C12.5352 3.19732 13.2548 2.4987 14.2497 2.4987C14.5812 2.4987 14.8991 2.63039 15.1336 2.86481C15.368 3.09924 15.4997 3.41718 15.4997 3.7487C15.4997 4.08022 15.368 4.39816 15.1336 4.63258C14.8991 4.867 14.5812 4.9987 14.2497 4.9987H11.6213Z" fill="url(#paint0_linear_787_31074)"/>
  <defs>
    <linearGradient id="paint0_linear_787_31074" x1="10.4997" y1="1.42727" x2="10.4997" y2="18.5701" gradientUnits="userSpaceOnUse">
      <stop stop-color="#69AEFF"/>
      <stop offset="0.432292" stop-color="#6096FF"/>
      <stop offset="1" stop-color="#6C7FFF"/>
    </linearGradient>
  </defs>
</svg>