<svg xmlns="http://www.w3.org/2000/svg"   viewBox="0 0 16 17" fill="none">
  <path fill-rule="evenodd" clip-rule="evenodd" d="M5.87865 3.63558H10.1213C10.8651 3.63558 11.3413 3.63665 11.7027 3.66666C12.048 3.69534 12.1673 3.74341 12.2198 3.77068C12.439 3.88453 12.6177 4.06324 12.7316 4.28241C12.7588 4.33491 12.8069 4.45421 12.8356 4.79958C12.8656 5.16091 12.8667 5.63718 12.8667 6.38091V11.5569C12.8667 12.3006 12.8656 12.7769 12.8356 13.1382C12.8069 13.4836 12.7588 13.6029 12.7316 13.6554C12.6177 13.8746 12.439 14.0533 12.2198 14.1671C12.1673 14.1944 12.048 14.2425 11.7027 14.2712C11.3413 14.3012 10.8651 14.3022 10.1213 14.3022H5.87866C5.13492 14.3022 4.65865 14.3012 4.29732 14.2712C3.95195 14.2425 3.83265 14.1944 3.78015 14.1671C3.56098 14.0533 3.38228 13.8746 3.26842 13.6554C3.24115 13.6029 3.19308 13.4836 3.1644 13.1382C3.13439 12.7769 3.13332 12.3006 3.13332 11.5569V6.38091C3.13332 5.63718 3.13439 5.16091 3.1644 4.79958C3.19308 4.45421 3.24115 4.33491 3.26842 4.28241C3.38228 4.06324 3.56098 3.88453 3.78015 3.77068C3.83265 3.74341 3.95195 3.69534 4.29732 3.66666C4.65865 3.63665 5.13492 3.63558 5.87865 3.63558ZM1.79999 6.38091C1.79999 4.9382 1.79999 4.21685 2.08521 3.66778C2.32556 3.20508 2.70282 2.82782 3.16552 2.58747C3.71459 2.30225 4.43594 2.30225 5.87865 2.30225H10.1213C11.564 2.30225 12.2854 2.30225 12.8345 2.58747C13.2972 2.82782 13.6744 3.20508 13.9148 3.66778C14.2 4.21685 14.2 4.9382 14.2 6.38091V11.5569C14.2 12.9996 14.2 13.721 13.9148 14.27C13.6744 14.7327 13.2972 15.11 12.8345 15.3504C12.2854 15.6356 11.564 15.6356 10.1213 15.6356H5.87866C4.43595 15.6356 3.71459 15.6356 3.16552 15.3504C2.70282 15.11 2.32556 14.7327 2.08521 14.27C1.79999 13.721 1.79999 12.9996 1.79999 11.5569V6.38091ZM5.09875 5.61322C4.73057 5.61322 4.43209 5.9117 4.43209 6.27989C4.43209 6.64808 4.73057 6.94655 5.09875 6.94655L10.9012 6.94655C11.2694 6.94655 11.5679 6.64808 11.5679 6.27989C11.5679 5.9117 11.2694 5.61322 10.9012 5.61322H5.09875ZM5.09875 8.39084C4.73057 8.39084 4.43209 8.68932 4.43209 9.05751C4.43209 9.4257 4.73057 9.72417 5.09875 9.72417L10.9012 9.72417C11.2694 9.72417 11.5679 9.42569 11.5679 9.05751C11.5679 8.68932 11.2694 8.39084 10.9012 8.39084L5.09875 8.39084ZM4.43209 11.7855C4.43209 11.4173 4.73057 11.1189 5.09875 11.1189H8.75306C9.12125 11.1189 9.41972 11.4173 9.41972 11.7855C9.41972 12.1537 9.12125 12.4522 8.75306 12.4522L5.09875 12.4522C4.73057 12.4522 4.43209 12.1537 4.43209 11.7855Z" fill="currentColor"/>
</svg>