<svg xmlns="http://www.w3.org/2000/svg" viewBox="0 0 16 17" fill="currentColor">
  <path d="M4.17621 6.77214C4.7285 6.77214 5.17621 6.32442 5.17621 5.77214C5.17621 5.21985 4.7285 4.77214 4.17621 4.77214C3.62393 4.77214 3.17621 5.21985 3.17621 5.77214C3.17621 6.32442 3.62393 6.77214 4.17621 6.77214Z" fill="currentColor"/>
  <path fill-rule="evenodd" clip-rule="evenodd" d="M1.3468 4.81214C1.3468 4.21475 1.3468 3.91605 1.46306 3.68788C1.56533 3.48717 1.72851 3.32399 1.92921 3.22173C2.15738 3.10547 2.45608 3.10547 3.05347 3.10547H13.0268C13.6241 3.10547 13.9228 3.10547 14.151 3.22173C14.3517 3.32399 14.5149 3.48717 14.6172 3.68788C14.7334 3.91605 14.7334 4.21475 14.7334 4.81214V6.73214C14.7334 7.32952 14.7334 7.62822 14.6172 7.85639C14.5149 8.0571 14.3517 8.22028 14.151 8.32254C13.9228 8.4388 13.6241 8.4388 13.0268 8.4388H3.05347C2.45608 8.4388 2.15738 8.4388 1.92921 8.32254C1.72851 8.22028 1.56533 8.0571 1.46306 7.85639C1.3468 7.62822 1.3468 7.32952 1.3468 6.73214V4.81214ZM3.05347 4.4388H13.0268C13.1777 4.4388 13.2962 4.43884 13.3985 4.44041C13.4001 4.5427 13.4001 4.66118 13.4001 4.81214V6.73214C13.4001 6.88309 13.4001 7.00157 13.3985 7.10386C13.2962 7.10543 13.1777 7.10547 13.0268 7.10547H3.05347C2.90251 7.10547 2.78403 7.10544 2.68174 7.10386C2.68017 7.00157 2.68014 6.88309 2.68014 6.73214V4.81214C2.68014 4.66118 2.68017 4.5427 2.68174 4.44041C2.78403 4.43884 2.90252 4.4388 3.05347 4.4388Z" fill="currentColor"/>
  <path d="M4.17621 13.1972C4.7285 13.1972 5.17621 12.7495 5.17621 12.1972C5.17621 11.6449 4.7285 11.1972 4.17621 11.1972C3.62393 11.1972 3.17621 11.6449 3.17621 12.1972C3.17621 12.7495 3.62393 13.1972 4.17621 13.1972Z" fill="currentColor"/>
  <path fill-rule="evenodd" clip-rule="evenodd" d="M1.3468 11.2372C1.3468 10.6398 1.3468 10.3411 1.46306 10.113C1.56533 9.91225 1.72851 9.74907 1.92921 9.6468C2.15738 9.53054 2.45608 9.53054 3.05347 9.53054H13.0268C13.6241 9.53054 13.9228 9.53054 14.151 9.6468C14.3517 9.74907 14.5149 9.91225 14.6172 10.113C14.7334 10.3411 14.7334 10.6398 14.7334 11.2372V13.1572C14.7334 13.7546 14.7334 14.0533 14.6172 14.2815C14.5149 14.4822 14.3517 14.6454 14.151 14.7476C13.9228 14.8639 13.6241 14.8639 13.0268 14.8639H3.05347C2.45608 14.8639 2.15738 14.8639 1.92921 14.7476C1.72851 14.6454 1.56533 14.4822 1.46306 14.2815C1.3468 14.0533 1.3468 13.7546 1.3468 13.1572V11.2372ZM3.05347 10.8639H13.0268C13.1777 10.8639 13.2962 10.8639 13.3985 10.8655C13.4001 10.9678 13.4001 11.0863 13.4001 11.2372V13.1572C13.4001 13.3082 13.4001 13.4266 13.3985 13.5289C13.2962 13.5305 13.1777 13.5305 13.0268 13.5305H3.05347C2.90251 13.5305 2.78403 13.5305 2.68174 13.5289C2.68017 13.4266 2.68014 13.3082 2.68014 13.1572V11.2372C2.68014 11.0863 2.68017 10.9678 2.68174 10.8655C2.78403 10.8639 2.90252 10.8639 3.05347 10.8639Z" fill="currentColor"/>
</svg>