<svg width="32" height="32" viewBox="0 0 14 14" fill="none" xmlns="http://www.w3.org/2000/svg">
<path opacity="0.8" d="M7.00008 1.1665C7.38897 1.1665 7.58341 1.36095 7.58341 1.74984V3.49984C7.58341 3.88873 7.38897 4.08317 7.00008 4.08317C6.61119 4.08317 6.41675 3.88873 6.41675 3.49984V1.74984C6.41675 1.36095 6.61119 1.1665 7.00008 1.1665Z" fill="black"/>
<path opacity="0.4" d="M7.00008 9.9165C7.38897 9.9165 7.58341 10.1109 7.58341 10.4998V12.2498C7.58341 12.6387 7.38897 12.8332 7.00008 12.8332C6.61119 12.8332 6.41675 12.6387 6.41675 12.2498V10.4998C6.41675 10.1109 6.61119 9.9165 7.00008 9.9165Z" fill="black"/>
<path opacity="0.2" d="M12.8334 6.99984C12.8334 7.38873 12.639 7.58317 12.2501 7.58317H10.5001C10.1112 7.58317 9.91675 7.38873 9.91675 6.99984C9.91675 6.61095 10.1112 6.4165 10.5001 6.4165H12.2501C12.639 6.4165 12.8334 6.61095 12.8334 6.99984Z" fill="black"/>
<path opacity="0.6" d="M4.08341 6.99984C4.08341 7.38873 3.88897 7.58317 3.50008 7.58317H1.75008C1.36119 7.58317 1.16675 7.38873 1.16675 6.99984C1.16675 6.61095 1.36119 6.4165 1.75008 6.4165H3.50008C3.88897 6.4165 4.08341 6.61095 4.08341 6.99984Z" fill="black"/>
<path opacity="0.1" d="M11.1248 2.87518C11.3998 3.15017 11.3998 3.42516 11.1248 3.70014L9.8874 4.93758C9.61241 5.21257 9.33743 5.21257 9.06244 4.93758C8.78745 4.66259 8.78745 4.38761 9.06244 4.11262L10.2999 2.87518C10.5749 2.6002 10.8498 2.6002 11.1248 2.87518Z" fill="black"/>
<path opacity="0.5" d="M4.93734 9.0622C5.21232 9.33718 5.21232 9.61217 4.93734 9.88715L3.6999 11.1246C3.42491 11.3996 3.14993 11.3996 2.87494 11.1246C2.59995 10.8496 2.59995 10.5746 2.87494 10.2996L4.11238 9.0622C4.38736 8.78721 4.66235 8.78721 4.93734 9.0622Z" fill="black"/>
<path opacity="0.3" d="M11.1246 11.1246C10.8496 11.3996 10.5746 11.3996 10.2996 11.1246L9.0622 9.88715C8.78721 9.61217 8.78721 9.33718 9.0622 9.0622C9.33718 8.78721 9.61217 8.78721 9.88715 9.0622L11.1246 10.2996C11.3996 10.5746 11.3996 10.8496 11.1246 11.1246Z" fill="black"/>
<path opacity="0.7" d="M4.93782 4.93758C4.66284 5.21257 4.38785 5.21257 4.11287 4.93758L2.87543 3.70014C2.60044 3.42516 2.60044 3.15017 2.87543 2.87518C3.15041 2.6002 3.4254 2.6002 3.70039 2.87518L4.93782 4.11262C5.21281 4.38761 5.21281 4.66259 4.93782 4.93758Z" fill="black"/>
</svg>
