<svg xmlns="http://www.w3.org/2000/svg"  viewBox="0 0 24 24" fill="currentColor">
  <path fill-rule="evenodd" clip-rule="evenodd" d="M4.1001 5C4.1001 5 4.10028 5.00585 4.10315 5.01529C4.10655 5.02644 4.11493 5.04845 4.13517 5.08143C4.17762 5.15057 4.26418 5.25453 4.42634 5.38232C4.75651 5.64253 5.29626 5.9206 6.05236 6.17264C7.55412 6.67322 9.69239 7 12.1001 7C14.5078 7 16.6461 6.67322 18.1478 6.17264C18.9039 5.9206 19.4437 5.64253 19.7739 5.38232C19.936 5.25453 20.0226 5.15057 20.065 5.08143C20.0853 5.04845 20.0936 5.02644 20.097 5.01529C20.1 5.00571 20.1001 5.00022 20.1001 5.00022C20.1001 5.00022 20.1002 4.99506 20.097 4.98471C20.0936 4.97356 20.0853 4.95155 20.065 4.91857C20.0226 4.84943 19.936 4.74547 19.7739 4.61768C19.4437 4.35747 18.9039 4.0794 18.1478 3.82736C16.6461 3.32678 14.5078 3 12.1001 3C9.69239 3 7.55412 3.32678 6.05236 3.82736C5.29626 4.0794 4.75651 4.35747 4.42634 4.61768C4.26418 4.74547 4.17762 4.84943 4.13517 4.91857C4.11493 4.95155 4.10655 4.97356 4.10315 4.98471C4.10008 4.99479 4.1001 5 4.1001 5ZM20.1001 7.5266C19.6989 7.73177 19.2534 7.91229 18.7803 8.07C17.0247 8.6552 14.663 9 12.1001 9C9.53724 9 7.17551 8.6552 5.41991 8.07C4.94675 7.91229 4.50133 7.73177 4.1001 7.5266V12C4.1001 12 4.10018 12.007 4.1035 12.018C4.10705 12.0298 4.11554 12.0521 4.13567 12.0851C4.17782 12.1543 4.26358 12.258 4.42429 12.3853C4.75169 12.6447 5.28797 12.9223 6.04176 13.174C7.53901 13.6738 9.67686 14 12.1001 14C14.5233 14 16.6612 13.6738 18.1584 13.174C18.9122 12.9223 19.4485 12.6447 19.7759 12.3853C19.9366 12.258 20.0224 12.1543 20.0645 12.0851C20.0847 12.0521 20.0931 12.0298 20.0967 12.018C20.1 12.007 20.1001 12 20.1001 12V7.5266ZM22.1001 5C22.1001 4.14805 21.5812 3.49559 21.0118 3.04685C20.4311 2.58923 19.6529 2.22085 18.7803 1.93C17.0247 1.3448 14.663 1 12.1001 1C9.53724 1 7.17551 1.3448 5.41991 1.93C4.54733 2.22085 3.76906 2.58923 3.18839 3.04685C2.61899 3.49559 2.1001 4.14805 2.1001 5V19C2.1001 19.8494 2.61329 20.502 3.18216 20.9528C3.76101 21.4115 4.53722 21.7802 5.40843 22.071C7.16119 22.6562 9.52333 23 12.1001 23C14.6769 23 17.039 22.6562 18.7918 22.071C19.663 21.7802 20.4392 21.4115 21.018 20.9528C21.5869 20.502 22.1001 19.8494 22.1001 19V5ZM20.1001 14.5318C19.7022 14.7354 19.2607 14.9145 18.7918 15.071C17.039 15.6562 14.6769 16 12.1001 16C9.52333 16 7.16119 15.6562 5.40843 15.071C4.93947 14.9145 4.49804 14.7354 4.1001 14.5318V19C4.1001 19 4.10018 19.007 4.1035 19.018C4.10705 19.0298 4.11554 19.0521 4.13567 19.0851C4.17782 19.1543 4.26358 19.258 4.42429 19.3853C4.75169 19.6447 5.28797 19.9223 6.04176 20.174C7.53901 20.6738 9.67686 21 12.1001 21C14.5233 21 16.6612 20.6738 18.1584 20.174C18.9122 19.9223 19.4485 19.6447 19.7759 19.3853C19.9366 19.258 20.0224 19.1543 20.0645 19.0851C20.0847 19.0521 20.0931 19.0298 20.0967 19.018C20.1 19.007 20.1001 19 20.1001 19V14.5318Z" fill="currentColor"/>
</svg>