<svg xmlns="http://www.w3.org/2000/svg" fill="none" viewBox="0 0 48 49"><circle cx="24" cy="24.5" r="23.7" stroke="#9CA2A8" stroke-dasharray="2.4 2.4" stroke-width=".6"/><path fill="#7B838B" d="M14.2125 34.0033L14.1844 34.0027C14.022 33.9974 13.1781 33.9432 12.6158 33.4162C12.0393 32.8755 11.9705 32.0981 11.9626 31.9476C11.9618 31.9335 11.9614 31.9193 11.9615 31.9052V27.6712C11.9531 27.4968 11.9418 26.9076 12.1392 26.2533C12.3284 25.6259 12.5621 25.214 12.629 25.1028L14.7546 21.3424C14.7652 21.3235 14.7764 21.3053 14.7885 21.2875C14.8548 21.1892 15.211 20.6831 15.6996 20.3791C16.2136 20.059 16.8358 20.0343 17.0143 20.0343H30.441C30.4583 20.0343 30.4754 20.0348 30.4931 20.0359C30.6265 20.0445 31.3196 20.1029 31.856 20.4098C32.3681 20.7031 32.7803 21.2157 32.8577 21.3153C32.8734 21.3357 32.8882 21.3568 32.902 21.3785L35.4265 25.3789C35.4373 25.3965 35.4482 25.4149 35.458 25.4337C35.5064 25.5266 35.7559 26.0175 35.8823 26.4949C36.0071 26.9673 36.0372 27.4893 36.0418 27.589L36.0425 27.623V31.8576C36.0453 32.0815 36.0041 32.8498 35.3667 33.4208C34.7631 33.9611 33.9505 34.003 33.7158 34.003H14.2125V34.0033ZM13.9962 25.9609C13.9498 26.0435 13.8053 26.3167 13.6838 26.7193C13.5556 27.1449 13.5708 27.5427 13.5728 27.5867C13.574 27.6058 13.5747 27.6249 13.5749 27.644V31.8773L13.5765 31.889C13.5865 31.9651 13.633 32.1495 13.713 32.2327L13.7238 32.2442L13.7365 32.2535C13.8486 32.3361 14.1264 32.3835 14.2234 32.3894L33.7171 32.3897C33.8788 32.3878 34.1615 32.3339 34.2896 32.2191C34.4043 32.1163 34.4299 31.94 34.4299 31.9118L34.4284 31.8628V27.6478C34.4197 27.4834 34.3878 27.1556 34.3218 26.9074C34.2471 26.6237 34.08 26.2839 34.0472 26.2189L34.0382 26.203L31.5607 22.2769L31.553 22.2676C31.4591 22.1545 31.234 21.9129 31.0542 21.8098C30.8985 21.7207 30.5814 21.6636 30.418 21.6484L30.4011 21.6476H17.0171C16.8919 21.6487 16.6592 21.6818 16.5516 21.7491C16.4002 21.8434 16.2209 22.0591 16.1472 22.1597L16.1408 22.1685L14.0285 25.9053L14.0057 25.9437L14.006 25.9427C14.0054 25.9446 13.9962 25.9609 13.9962 25.9609ZM23.9249 18.8512C23.711 18.851 23.5059 18.7659 23.3547 18.6147C23.2034 18.4634 23.1183 18.2584 23.118 18.0445V13.4035C23.1183 13.1897 23.2033 12.9846 23.3545 12.8334C23.5057 12.6822 23.7107 12.5971 23.9246 12.5968C24.1385 12.597 24.3436 12.6821 24.4949 12.8333C24.6462 12.9845 24.7313 13.1896 24.7316 13.4035V18.0444C24.7314 18.2583 24.6463 18.4634 24.4951 18.6146C24.3439 18.7658 24.1388 18.8509 23.9249 18.8511V18.8512ZM29.3339 18.8206C29.12 18.8203 28.9149 18.7352 28.7637 18.5839C28.6125 18.4326 28.5274 18.2276 28.5271 18.0137C28.5273 17.8287 28.5909 17.6493 28.7074 17.5055L30.5516 15.231C30.6272 15.1375 30.7228 15.0621 30.8313 15.0104C30.9399 14.9587 31.0587 14.932 31.179 14.9323C31.3654 14.9323 31.5409 14.9946 31.6862 15.1124C31.7688 15.1789 31.8373 15.2611 31.8879 15.3543C31.9384 15.4475 31.9699 15.5498 31.9806 15.6553C31.992 15.7607 31.9823 15.8673 31.9522 15.9689C31.9221 16.0705 31.8721 16.1651 31.8051 16.2472L29.9609 18.5217C29.8857 18.6152 29.7903 18.6906 29.682 18.7423C29.5737 18.794 29.4551 18.8207 29.3351 18.8204H29.3339V18.8206ZM18.6067 18.7589C18.4855 18.7592 18.3658 18.732 18.2566 18.6794C18.1474 18.6268 18.0516 18.5501 17.9764 18.4551L16.1635 16.1808C16.0303 16.0134 15.969 15.8 15.993 15.5874C16.017 15.3749 16.1243 15.1805 16.2914 15.047C16.4338 14.9326 16.6111 14.8704 16.7937 14.871C17.0411 14.871 17.2711 14.9818 17.4251 15.1749L19.2382 17.4492C19.3714 17.6165 19.4328 17.8299 19.4088 18.0424C19.3849 18.255 19.2776 18.4494 19.1106 18.5829C18.9677 18.6965 18.7905 18.7586 18.608 18.7589H18.6067Z"/><path fill="#7B838B" d="M23.9558 30.6841C22.1584 30.6841 20.5968 29.4791 20.1585 27.7541L20.1232 27.6151L12.9586 27.6108C12.7446 27.6104 12.5396 27.5251 12.3884 27.3738C12.2372 27.2225 12.1521 27.0174 12.1519 26.8035C12.1522 26.5896 12.2373 26.3847 12.3885 26.2335C12.5397 26.0824 12.7447 25.9973 12.9586 25.9971L20.8479 26.0021C21.0617 26.0027 21.2666 26.0879 21.4177 26.2391C21.5688 26.3904 21.6539 26.5953 21.6542 26.8091C21.6542 28.0773 22.6652 29.0705 23.9558 29.0705C25.2418 29.0705 26.2493 28.0773 26.2493 26.8092C26.2497 26.5953 26.3349 26.3904 26.486 26.2391C26.6372 26.0879 26.8421 26.0027 27.056 26.0021L34.8723 25.9972C35.3173 25.9972 35.679 26.3586 35.6793 26.8033C35.6796 27.248 35.318 27.6103 34.8732 27.611L27.7811 27.6153L27.7457 27.7543C27.308 29.4792 25.7497 30.6841 23.9558 30.6841Z"/></svg>