<svg width="42" height="42" viewBox="0 0 42 42" fill="none" xmlns="http://www.w3.org/2000/svg">
<path d="M21 2.625C25.8734 2.625 30.5471 4.56093 33.9931 8.00691C37.4391 11.4529 39.375 16.1266 39.375 21C39.375 25.8734 37.4391 30.5471 33.9931 33.9931C30.5471 37.4391 25.8734 39.375 21 39.375C16.1266 39.375 11.4529 37.4391 8.00691 33.9931C4.56093 30.5471 2.625 25.8734 2.625 21C2.625 16.1266 4.56093 11.4529 8.00691 8.00691C11.4529 4.56093 16.1266 2.625 21 2.625ZM18.711 24.6251L14.6291 20.5406C14.4828 20.3943 14.3091 20.2782 14.1179 20.199C13.9267 20.1198 13.7218 20.0791 13.5148 20.0791C13.3079 20.0791 13.1029 20.1198 12.9118 20.199C12.7206 20.2782 12.5468 20.3943 12.4005 20.5406C12.105 20.8362 11.9389 21.237 11.9389 21.6549C11.9389 22.0729 12.105 22.4737 12.4005 22.7692L17.598 27.9668C17.7439 28.1138 17.9175 28.2305 18.1088 28.3102C18.3 28.3899 18.5051 28.4309 18.7123 28.4309C18.9195 28.4309 19.1246 28.3899 19.3159 28.3102C19.5071 28.2305 19.6807 28.1138 19.8266 27.9668L30.5891 17.2016C30.7374 17.0559 30.8554 16.8823 30.9362 16.6907C31.0171 16.4992 31.0592 16.2935 31.0602 16.0856C31.0611 15.8777 31.0209 15.6717 30.9419 15.4794C30.8628 15.2871 30.7465 15.1123 30.5995 14.9652C30.4526 14.8181 30.278 14.7016 30.0858 14.6223C29.8936 14.543 29.6876 14.5026 29.4797 14.5033C29.2718 14.504 29.0661 14.5459 28.8745 14.6265C28.6828 14.7071 28.509 14.8249 28.3631 14.973L18.711 24.6251Z" fill="#33BABB"/>
</svg>
