<svg xmlns="http://www.w3.org/2000/svg" width="16" height="16" viewBox="0 0 16 16" fill="none">
  <path fill-rule="evenodd" clip-rule="evenodd" d="M4.60004 1.71354C4.60004 1.34535 4.89852 1.04688 5.26671 1.04688C5.6349 1.04688 5.93338 1.34535 5.93338 1.71354V2.72732H9.90671V1.71354C9.90671 1.34535 10.2052 1.04688 10.5734 1.04688C10.9416 1.04688 11.24 1.34535 11.24 1.71354V2.72857C12.262 2.73494 12.8418 2.77394 13.3012 3.01254C13.7639 3.25289 14.1411 3.63016 14.3815 4.09285C14.6667 4.64192 14.6667 5.36328 14.6667 6.80599V10.5884C14.6667 12.0311 14.6667 12.7524 14.3815 13.3015C14.1411 13.7642 13.7639 14.1415 13.3012 14.3818C12.7521 14.667 12.0308 14.667 10.588 14.667H5.41204C3.96933 14.667 3.24798 14.667 2.69891 14.3818C2.23621 14.1415 1.85894 13.7642 1.61859 13.3015C1.33337 12.7524 1.33337 12.0311 1.33337 10.5884V6.80599C1.33337 5.36328 1.33337 4.64192 1.61859 4.09285C1.85894 3.63016 2.23621 3.25289 2.69891 3.01254C3.1337 2.78668 3.67653 2.73967 4.60004 2.72989V1.71354ZM9.90671 4.06065V4.66133C9.90671 5.02952 10.2052 5.328 10.5734 5.328C10.9416 5.328 11.24 5.02952 11.24 4.66133V4.06199C11.6324 4.06448 11.9268 4.07159 12.1694 4.09173C12.5147 4.12041 12.634 4.16849 12.6865 4.19576C12.9057 4.30961 13.0844 4.48831 13.1983 4.70748C13.2255 4.75998 13.2736 4.87928 13.3023 5.22465C13.3323 5.58598 13.3334 6.06225 13.3334 6.80599V10.5884C13.3334 11.3321 13.3323 11.8084 13.3023 12.1697C13.2736 12.5151 13.2255 12.6344 13.1983 12.6869C13.0844 12.906 12.9057 13.0847 12.6865 13.1986C12.634 13.2259 12.5147 13.2739 12.1694 13.3026C11.808 13.3326 11.3318 13.3337 10.588 13.3337H5.41204C4.66831 13.3337 4.19204 13.3326 3.83071 13.3026C3.48534 13.2739 3.36604 13.2259 3.31354 13.1986C3.09437 13.0847 2.91566 12.906 2.80181 12.6869C2.77454 12.6344 2.72647 12.5151 2.69779 12.1697C2.66778 11.8084 2.66671 11.3321 2.66671 10.5884V6.80599C2.66671 6.06225 2.66778 5.58598 2.69779 5.22465C2.72647 4.87928 2.77454 4.75998 2.80181 4.70748C2.91566 4.48831 3.09437 4.30961 3.31354 4.19576C3.36604 4.16849 3.48534 4.12041 3.83071 4.09173C4.03914 4.07442 4.28583 4.06674 4.60004 4.06334V4.66133C4.60004 5.02952 4.89852 5.328 5.26671 5.328C5.6349 5.328 5.93338 5.02952 5.93338 4.66133V4.06065H9.90671ZM11.6674 7.33364C12.0356 7.33364 12.3341 7.63212 12.3341 8.00031C12.3341 8.3685 12.0356 8.66697 11.6674 8.66697H9.12117C8.75297 8.66697 8.4545 8.36849 8.4545 8.00031C8.4545 7.63212 8.75298 7.33364 9.12117 7.33364H11.6674ZM12.3341 10.7485C12.3341 10.3803 12.0356 10.0818 11.6674 10.0818H5.30444C4.93625 10.0818 4.63778 10.3803 4.63778 10.7485C4.63778 11.1167 4.93625 11.4152 5.30444 11.4152H11.6674C12.0356 11.4152 12.3341 11.1167 12.3341 10.7485Z" fill="#667085"/>
</svg>