<svg xmlns="http://www.w3.org/2000/svg"  viewBox="0 0 16 17" fill="none">
  <path d="M3.60241 6.49586C3.06102 6.98545 2.60138 7.56405 2.24638 8.20853C2.13811 8.40508 2.08397 8.50336 2.04338 8.7022C2.01663 8.83322 2.01663 9.10461 2.04338 9.23563C2.08397 9.43447 2.13811 9.53275 2.24638 9.7293C3.36454 11.7592 5.52073 13.1356 7.99999 13.1356C8.67834 13.1356 9.33249 13.0325 9.94782 12.8413L9.03306 11.9265C8.69409 11.9919 8.34823 12.0252 7.99999 12.0252C6.9791 12.0252 5.97869 11.7388 5.11248 11.1985C4.54332 10.8435 4.0471 10.3882 3.64632 9.85766C3.49816 9.66152 3.42408 9.56345 3.35702 9.3101C3.31547 9.15313 3.31547 8.7847 3.35702 8.62773C3.42408 8.37438 3.49816 8.27631 3.64632 8.08017C3.86579 7.78961 4.11389 7.52164 4.38691 7.28036L3.60241 6.49586Z" fill="currentColor"/>
  <path d="M6.35732 9.25078C6.41522 9.5882 6.57617 9.90211 6.82148 10.1474C7.06679 10.3927 7.38071 10.5537 7.71813 10.6116L6.35732 9.25078Z" fill="currentColor"/>
  <path d="M9.5905 9.46697L7.50194 7.3784C7.66169 7.32837 7.8295 7.30225 7.99999 7.30225C8.44202 7.30225 8.86594 7.47784 9.1785 7.7904C9.49106 8.10296 9.66666 8.52689 9.66666 8.96891C9.66666 9.13941 9.64053 9.30721 9.5905 9.46697Z" fill="currentColor"/>
  <path d="M11.1486 11.025C11.6092 10.6996 12.0154 10.3054 12.3537 9.85766C12.5018 9.66152 12.5759 9.56345 12.643 9.3101C12.6845 9.15313 12.6845 8.7847 12.643 8.62773C12.5759 8.37438 12.5018 8.27631 12.3537 8.08017C11.9529 7.54958 11.4567 7.09433 10.8875 6.73933C10.0213 6.19905 9.02088 5.91263 7.99999 5.91263C7.42182 5.91263 6.85022 6.00449 6.30585 6.18231L5.44322 5.31969C6.22887 4.98653 7.0928 4.80225 7.99999 4.80225C10.4793 4.80225 12.6354 6.17863 13.7536 8.20852C13.8619 8.40508 13.916 8.50336 13.9566 8.7022C13.9834 8.83322 13.9834 9.10461 13.9566 9.23563C13.916 9.43447 13.8619 9.53275 13.7536 9.7293C13.3028 10.5477 12.6833 11.2598 11.9419 11.8184L11.1486 11.025Z" fill="currentColor"/>
  <path d="M2.91258 4.86323C3.17293 4.60288 3.59504 4.60288 3.85539 4.86323L12.2056 13.2135C12.466 13.4738 12.466 13.8959 12.2056 14.1563C11.9453 14.4166 11.5232 14.4166 11.2628 14.1563L2.91258 5.80604C2.65223 5.54569 2.65223 5.12358 2.91258 4.86323Z" fill="currentColor"/>
</svg>