<svg xmlns="http://www.w3.org/2000/svg" width="13" height="13" fill="none" viewBox="0 0 13 13"><path fill="#fff" stroke="#fff" stroke-width=".727" d="M7.29186 6.94696L7.03477 6.68986L6.77767 6.94696L3.68489 10.0397C3.64402 10.0806 3.59242 10.1068 3.50016 10.1068C3.40791 10.1068 3.35631 10.0806 3.31544 10.0397C3.27457 9.99887 3.24836 9.94726 3.24836 9.85501C3.24836 9.76276 3.27457 9.71115 3.31544 9.67028L6.40821 6.57751L6.66531 6.32041L6.40821 6.06331L3.31544 2.97054C3.27457 2.92967 3.24836 2.87806 3.24836 2.78581C3.24836 2.69356 3.27457 2.64195 3.31544 2.60108C3.3563 2.56022 3.40791 2.534 3.50016 2.534C3.59242 2.534 3.64402 2.56022 3.68489 2.60108L6.77767 5.69386L7.03477 5.95096L7.29186 5.69386L10.3846 2.60108C10.4255 2.56022 10.4771 2.534 10.5694 2.534C10.6616 2.534 10.7132 2.56022 10.7541 2.60108C10.795 2.64195 10.8212 2.69356 10.8212 2.78581C10.8212 2.87806 10.795 2.92967 10.7541 2.97054L7.66132 6.06331L7.40422 6.32041L7.66132 6.57751L10.7541 9.67028C10.795 9.71115 10.8212 9.76276 10.8212 9.85501C10.8212 9.94726 10.795 9.99887 10.7541 10.0397C10.7132 10.0806 10.6616 10.1068 10.5694 10.1068C10.4771 10.1068 10.4255 10.0806 10.3846 10.0397L7.29186 6.94696Z"/></svg>