<svg width="78" height="78" viewBox="0 0 78 78" fill="none" xmlns="http://www.w3.org/2000/svg">
<g clip-path="url(#clip0_1031_20002)">
<rect width="78" height="78" transform="translate(0.499023 0.45459)" fill="url(#paint0_radial_1031_20002)"/>
<g opacity="0.8" filter="url(#filter0_d_1031_20002)">
<path d="M15.0879 18.6548C15.0879 17.0593 16.3813 15.7659 17.9768 15.7659H24.9101C26.5056 15.7659 27.799 17.0593 27.799 18.6548V25.5881C27.799 27.1836 26.5056 28.477 24.9101 28.477H17.9768C16.3813 28.477 15.0879 27.1836 15.0879 25.5881V18.6548Z" fill="url(#paint1_linear_1031_20002)"/>
</g>
<g filter="url(#filter1_d_1031_20002)">
<path d="M32.4211 18.6548C32.4211 17.0593 33.7145 15.7659 35.31 15.7659H42.2434C43.8389 15.7659 45.1323 17.0593 45.1323 18.6548V25.5881C45.1323 27.1836 43.8389 28.477 42.2434 28.477H35.31C33.7145 28.477 32.4211 27.1836 32.4211 25.5881V18.6548Z" fill="url(#paint2_linear_1031_20002)"/>
</g>
<g filter="url(#filter2_d_1031_20002)">
<path d="M49.7546 18.6548C49.7546 17.0593 51.048 15.7659 52.6435 15.7659H59.5769C61.1724 15.7659 62.4657 17.0593 62.4657 18.6548V25.5881C62.4657 27.1836 61.1724 28.477 59.5769 28.477H52.6435C51.048 28.477 49.7546 27.1836 49.7546 25.5881V18.6548Z" fill="url(#paint3_linear_1031_20002)"/>
</g>
<g filter="url(#filter3_d_1031_20002)">
<path d="M15.0879 35.988C15.0879 34.3925 16.3813 33.0991 17.9768 33.0991H24.9101C26.5056 33.0991 27.799 34.3925 27.799 35.988V42.9213C27.799 44.5168 26.5056 45.8102 24.9101 45.8102H17.9768C16.3813 45.8102 15.0879 44.5168 15.0879 42.9213V35.988Z" fill="url(#paint4_linear_1031_20002)"/>
</g>
<g opacity="0.8" filter="url(#filter4_d_1031_20002)">
<path d="M32.4211 35.988C32.4211 34.3925 33.7145 33.0991 35.31 33.0991H42.2434C43.8389 33.0991 45.1323 34.3925 45.1323 35.988V42.9213C45.1323 44.5168 43.8389 45.8102 42.2434 45.8102H35.31C33.7145 45.8102 32.4211 44.5168 32.4211 42.9213V35.988Z" fill="url(#paint5_linear_1031_20002)"/>
</g>
<g filter="url(#filter5_d_1031_20002)">
<path d="M49.7546 35.9883C49.7546 34.3928 51.048 33.0994 52.6435 33.0994H59.5769C61.1724 33.0994 62.4657 34.3928 62.4657 35.9883V42.9216C62.4657 44.5171 61.1724 45.8105 59.5769 45.8105H52.6435C51.048 45.8105 49.7546 44.5171 49.7546 42.9216V35.9883Z" fill="url(#paint6_linear_1031_20002)"/>
</g>
<g filter="url(#filter6_d_1031_20002)">
<path d="M15.0879 53.3215C15.0879 51.726 16.3813 50.4326 17.9768 50.4326H24.9101C26.5056 50.4326 27.799 51.726 27.799 53.3215V60.2548C27.799 61.8503 26.5056 63.1437 24.9101 63.1437H17.9768C16.3813 63.1437 15.0879 61.8503 15.0879 60.2548V53.3215Z" fill="url(#paint7_linear_1031_20002)"/>
</g>
<g filter="url(#filter7_d_1031_20002)">
<path d="M32.4211 53.3215C32.4211 51.726 33.7145 50.4326 35.31 50.4326H42.2434C43.8389 50.4326 45.1323 51.726 45.1323 53.3215V60.2548C45.1323 61.8503 43.8389 63.1437 42.2434 63.1437H35.31C33.7145 63.1437 32.4211 61.8503 32.4211 60.2548V53.3215Z" fill="url(#paint8_linear_1031_20002)"/>
</g>
<g filter="url(#filter8_d_1031_20002)">
<path d="M49.7546 53.3215C49.7546 51.726 51.048 50.4326 52.6435 50.4326H59.5769C61.1724 50.4326 62.4657 51.726 62.4657 53.3215V60.2548C62.4657 61.8503 61.1724 63.1437 59.5769 63.1437H52.6435C51.048 63.1437 49.7546 61.8503 49.7546 60.2548V53.3215Z" fill="url(#paint9_linear_1031_20002)"/>
</g>
</g>
<defs>
<filter id="filter0_d_1031_20002" x="14.0879" y="15.7659" width="14.7112" height="14.7112" filterUnits="userSpaceOnUse" color-interpolation-filters="sRGB">
<feFlood flood-opacity="0" result="BackgroundImageFix"/>
<feColorMatrix in="SourceAlpha" type="matrix" values="0 0 0 0 0 0 0 0 0 0 0 0 0 0 0 0 0 0 127 0" result="hardAlpha"/>
<feOffset dy="1"/>
<feGaussianBlur stdDeviation="0.5"/>
<feComposite in2="hardAlpha" operator="out"/>
<feColorMatrix type="matrix" values="0 0 0 0 0 0 0 0 0 0 0 0 0 0 0 0 0 0 0.3 0"/>
<feBlend mode="normal" in2="BackgroundImageFix" result="effect1_dropShadow_1031_20002"/>
<feBlend mode="normal" in="SourceGraphic" in2="effect1_dropShadow_1031_20002" result="shape"/>
</filter>
<filter id="filter1_d_1031_20002" x="31.4211" y="15.7659" width="14.7112" height="14.7112" filterUnits="userSpaceOnUse" color-interpolation-filters="sRGB">
<feFlood flood-opacity="0" result="BackgroundImageFix"/>
<feColorMatrix in="SourceAlpha" type="matrix" values="0 0 0 0 0 0 0 0 0 0 0 0 0 0 0 0 0 0 127 0" result="hardAlpha"/>
<feOffset dy="1"/>
<feGaussianBlur stdDeviation="0.5"/>
<feComposite in2="hardAlpha" operator="out"/>
<feColorMatrix type="matrix" values="0 0 0 0 0 0 0 0 0 0 0 0 0 0 0 0 0 0 0.3 0"/>
<feBlend mode="normal" in2="BackgroundImageFix" result="effect1_dropShadow_1031_20002"/>
<feBlend mode="normal" in="SourceGraphic" in2="effect1_dropShadow_1031_20002" result="shape"/>
</filter>
<filter id="filter2_d_1031_20002" x="48.7546" y="15.7659" width="14.7112" height="14.7112" filterUnits="userSpaceOnUse" color-interpolation-filters="sRGB">
<feFlood flood-opacity="0" result="BackgroundImageFix"/>
<feColorMatrix in="SourceAlpha" type="matrix" values="0 0 0 0 0 0 0 0 0 0 0 0 0 0 0 0 0 0 127 0" result="hardAlpha"/>
<feOffset dy="1"/>
<feGaussianBlur stdDeviation="0.5"/>
<feComposite in2="hardAlpha" operator="out"/>
<feColorMatrix type="matrix" values="0 0 0 0 0 0 0 0 0 0 0 0 0 0 0 0 0 0 0.3 0"/>
<feBlend mode="normal" in2="BackgroundImageFix" result="effect1_dropShadow_1031_20002"/>
<feBlend mode="normal" in="SourceGraphic" in2="effect1_dropShadow_1031_20002" result="shape"/>
</filter>
<filter id="filter3_d_1031_20002" x="14.0879" y="33.0991" width="14.7112" height="14.7112" filterUnits="userSpaceOnUse" color-interpolation-filters="sRGB">
<feFlood flood-opacity="0" result="BackgroundImageFix"/>
<feColorMatrix in="SourceAlpha" type="matrix" values="0 0 0 0 0 0 0 0 0 0 0 0 0 0 0 0 0 0 127 0" result="hardAlpha"/>
<feOffset dy="1"/>
<feGaussianBlur stdDeviation="0.5"/>
<feComposite in2="hardAlpha" operator="out"/>
<feColorMatrix type="matrix" values="0 0 0 0 0 0 0 0 0 0 0 0 0 0 0 0 0 0 0.3 0"/>
<feBlend mode="normal" in2="BackgroundImageFix" result="effect1_dropShadow_1031_20002"/>
<feBlend mode="normal" in="SourceGraphic" in2="effect1_dropShadow_1031_20002" result="shape"/>
</filter>
<filter id="filter4_d_1031_20002" x="31.4211" y="33.0991" width="14.7112" height="14.7112" filterUnits="userSpaceOnUse" color-interpolation-filters="sRGB">
<feFlood flood-opacity="0" result="BackgroundImageFix"/>
<feColorMatrix in="SourceAlpha" type="matrix" values="0 0 0 0 0 0 0 0 0 0 0 0 0 0 0 0 0 0 127 0" result="hardAlpha"/>
<feOffset dy="1"/>
<feGaussianBlur stdDeviation="0.5"/>
<feComposite in2="hardAlpha" operator="out"/>
<feColorMatrix type="matrix" values="0 0 0 0 0 0 0 0 0 0 0 0 0 0 0 0 0 0 0.3 0"/>
<feBlend mode="normal" in2="BackgroundImageFix" result="effect1_dropShadow_1031_20002"/>
<feBlend mode="normal" in="SourceGraphic" in2="effect1_dropShadow_1031_20002" result="shape"/>
</filter>
<filter id="filter5_d_1031_20002" x="48.7546" y="33.0994" width="14.7112" height="14.7112" filterUnits="userSpaceOnUse" color-interpolation-filters="sRGB">
<feFlood flood-opacity="0" result="BackgroundImageFix"/>
<feColorMatrix in="SourceAlpha" type="matrix" values="0 0 0 0 0 0 0 0 0 0 0 0 0 0 0 0 0 0 127 0" result="hardAlpha"/>
<feOffset dy="1"/>
<feGaussianBlur stdDeviation="0.5"/>
<feComposite in2="hardAlpha" operator="out"/>
<feColorMatrix type="matrix" values="0 0 0 0 0 0 0 0 0 0 0 0 0 0 0 0 0 0 0.3 0"/>
<feBlend mode="normal" in2="BackgroundImageFix" result="effect1_dropShadow_1031_20002"/>
<feBlend mode="normal" in="SourceGraphic" in2="effect1_dropShadow_1031_20002" result="shape"/>
</filter>
<filter id="filter6_d_1031_20002" x="14.0879" y="50.4326" width="14.7112" height="14.7112" filterUnits="userSpaceOnUse" color-interpolation-filters="sRGB">
<feFlood flood-opacity="0" result="BackgroundImageFix"/>
<feColorMatrix in="SourceAlpha" type="matrix" values="0 0 0 0 0 0 0 0 0 0 0 0 0 0 0 0 0 0 127 0" result="hardAlpha"/>
<feOffset dy="1"/>
<feGaussianBlur stdDeviation="0.5"/>
<feComposite in2="hardAlpha" operator="out"/>
<feColorMatrix type="matrix" values="0 0 0 0 0 0 0 0 0 0 0 0 0 0 0 0 0 0 0.3 0"/>
<feBlend mode="normal" in2="BackgroundImageFix" result="effect1_dropShadow_1031_20002"/>
<feBlend mode="normal" in="SourceGraphic" in2="effect1_dropShadow_1031_20002" result="shape"/>
</filter>
<filter id="filter7_d_1031_20002" x="31.4211" y="50.4326" width="14.7112" height="14.7112" filterUnits="userSpaceOnUse" color-interpolation-filters="sRGB">
<feFlood flood-opacity="0" result="BackgroundImageFix"/>
<feColorMatrix in="SourceAlpha" type="matrix" values="0 0 0 0 0 0 0 0 0 0 0 0 0 0 0 0 0 0 127 0" result="hardAlpha"/>
<feOffset dy="1"/>
<feGaussianBlur stdDeviation="0.5"/>
<feComposite in2="hardAlpha" operator="out"/>
<feColorMatrix type="matrix" values="0 0 0 0 0 0 0 0 0 0 0 0 0 0 0 0 0 0 0.3 0"/>
<feBlend mode="normal" in2="BackgroundImageFix" result="effect1_dropShadow_1031_20002"/>
<feBlend mode="normal" in="SourceGraphic" in2="effect1_dropShadow_1031_20002" result="shape"/>
</filter>
<filter id="filter8_d_1031_20002" x="48.7546" y="50.4326" width="14.7112" height="14.7112" filterUnits="userSpaceOnUse" color-interpolation-filters="sRGB">
<feFlood flood-opacity="0" result="BackgroundImageFix"/>
<feColorMatrix in="SourceAlpha" type="matrix" values="0 0 0 0 0 0 0 0 0 0 0 0 0 0 0 0 0 0 127 0" result="hardAlpha"/>
<feOffset dy="1"/>
<feGaussianBlur stdDeviation="0.5"/>
<feComposite in2="hardAlpha" operator="out"/>
<feColorMatrix type="matrix" values="0 0 0 0 0 0 0 0 0 0 0 0 0 0 0 0 0 0 0.3 0"/>
<feBlend mode="normal" in2="BackgroundImageFix" result="effect1_dropShadow_1031_20002"/>
<feBlend mode="normal" in="SourceGraphic" in2="effect1_dropShadow_1031_20002" result="shape"/>
</filter>
<radialGradient id="paint0_radial_1031_20002" cx="0" cy="0" r="1" gradientUnits="userSpaceOnUse" gradientTransform="translate(39 39) rotate(90) scale(39)">
<stop stop-color="white" stop-opacity="0"/>
<stop offset="1" stop-color="white" stop-opacity="0.3"/>
</radialGradient>
<linearGradient id="paint1_linear_1031_20002" x1="21.4434" y1="15.7659" x2="21.4434" y2="28.477" gradientUnits="userSpaceOnUse">
<stop stop-color="#ED92FF"/>
<stop offset="1" stop-color="#E770FF"/>
</linearGradient>
<linearGradient id="paint2_linear_1031_20002" x1="38.7767" y1="15.7659" x2="38.7767" y2="28.477" gradientUnits="userSpaceOnUse">
<stop stop-color="#FF9DCC"/>
<stop offset="1" stop-color="#FF81BE"/>
</linearGradient>
<linearGradient id="paint3_linear_1031_20002" x1="56.1102" y1="15.7659" x2="56.1102" y2="28.477" gradientUnits="userSpaceOnUse">
<stop stop-color="#32E5BB"/>
<stop offset="1" stop-color="#06DCAA"/>
</linearGradient>
<linearGradient id="paint4_linear_1031_20002" x1="21.4434" y1="33.0991" x2="21.4434" y2="45.8102" gradientUnits="userSpaceOnUse">
<stop stop-color="#1EE4CD"/>
<stop offset="1" stop-color="#00D0B8"/>
</linearGradient>
<linearGradient id="paint5_linear_1031_20002" x1="38.7767" y1="33.0991" x2="38.7767" y2="45.8102" gradientUnits="userSpaceOnUse">
<stop stop-color="#1FC6F8"/>
<stop offset="1" stop-color="#00B7EF"/>
</linearGradient>
<linearGradient id="paint6_linear_1031_20002" x1="56.1102" y1="33.0994" x2="56.1102" y2="45.8105" gradientUnits="userSpaceOnUse">
<stop stop-color="#1ADDEB"/>
<stop offset="1" stop-color="#00D5E3"/>
</linearGradient>
<linearGradient id="paint7_linear_1031_20002" x1="21.4434" y1="50.4326" x2="21.4434" y2="63.1437" gradientUnits="userSpaceOnUse">
<stop stop-color="#2BB5FF"/>
<stop offset="1" stop-color="#19AEFF"/>
</linearGradient>
<linearGradient id="paint8_linear_1031_20002" x1="38.7767" y1="50.4326" x2="38.7767" y2="63.1437" gradientUnits="userSpaceOnUse">
<stop stop-color="#32A3FF"/>
<stop offset="1" stop-color="#1E9AFF"/>
</linearGradient>
<linearGradient id="paint9_linear_1031_20002" x1="56.1102" y1="50.4326" x2="56.1102" y2="63.1437" gradientUnits="userSpaceOnUse">
<stop stop-color="#3892FF"/>
<stop offset="1" stop-color="#1E84FF"/>
</linearGradient>
<clipPath id="clip0_1031_20002">
<rect width="78" height="78" fill="white" transform="translate(-0.000976562)"/>
</clipPath>
</defs>
</svg>
