<svg width="78" height="79" viewBox="0 0 78 79" fill="none" xmlns="http://www.w3.org/2000/svg">
<g clip-path="url(#clip0_757_21785)">
<rect width="78" height="78" transform="translate(0.5 0.869141)" fill="url(#paint0_radial_757_21785)"/>
<g opacity="0.8" filter="url(#filter0_d_757_21785)">
<path d="M15.0889 19.0693C15.0889 17.4738 16.3823 16.1804 17.9778 16.1804H24.9111C26.5066 16.1804 27.8 17.4738 27.8 19.0693V26.0026C27.8 27.5981 26.5066 28.8915 24.9111 28.8915H17.9778C16.3823 28.8915 15.0889 27.5981 15.0889 26.0026V19.0693Z" fill="url(#paint1_linear_757_21785)"/>
</g>
<g filter="url(#filter1_d_757_21785)">
<path d="M32.4221 19.0693C32.4221 17.4738 33.7155 16.1804 35.311 16.1804H42.2443C43.8398 16.1804 45.1332 17.4738 45.1332 19.0693V26.0026C45.1332 27.5981 43.8398 28.8915 42.2443 28.8915H35.311C33.7155 28.8915 32.4221 27.5981 32.4221 26.0026V19.0693Z" fill="url(#paint2_linear_757_21785)"/>
</g>
<g filter="url(#filter2_d_757_21785)">
<path d="M49.7556 19.0693C49.7556 17.4738 51.049 16.1804 52.6445 16.1804H59.5778C61.1733 16.1804 62.4667 17.4738 62.4667 19.0693V26.0026C62.4667 27.5981 61.1733 28.8915 59.5778 28.8915H52.6445C51.049 28.8915 49.7556 27.5981 49.7556 26.0026V19.0693Z" fill="url(#paint3_linear_757_21785)"/>
</g>
<g filter="url(#filter3_d_757_21785)">
<path d="M15.0889 36.4026C15.0889 34.8071 16.3823 33.5137 17.9778 33.5137H24.9111C26.5066 33.5137 27.8 34.8071 27.8 36.4026V43.3359C27.8 44.9314 26.5066 46.2248 24.9111 46.2248H17.9778C16.3823 46.2248 15.0889 44.9314 15.0889 43.3359V36.4026Z" fill="url(#paint4_linear_757_21785)"/>
</g>
<g opacity="0.8" filter="url(#filter4_d_757_21785)">
<path d="M32.4221 36.4026C32.4221 34.8071 33.7155 33.5137 35.311 33.5137H42.2443C43.8398 33.5137 45.1332 34.8071 45.1332 36.4026V43.3359C45.1332 44.9314 43.8398 46.2248 42.2443 46.2248H35.311C33.7155 46.2248 32.4221 44.9314 32.4221 43.3359V36.4026Z" fill="url(#paint5_linear_757_21785)"/>
</g>
<g filter="url(#filter5_d_757_21785)">
<path d="M49.7556 36.4028C49.7556 34.8073 51.049 33.5139 52.6445 33.5139H59.5778C61.1733 33.5139 62.4667 34.8073 62.4667 36.4028V43.3361C62.4667 44.9316 61.1733 46.225 59.5778 46.225H52.6445C51.049 46.225 49.7556 44.9316 49.7556 43.3361V36.4028Z" fill="url(#paint6_linear_757_21785)"/>
</g>
<g filter="url(#filter6_d_757_21785)">
<path d="M15.0889 53.7361C15.0889 52.1406 16.3823 50.8472 17.9778 50.8472H24.9111C26.5066 50.8472 27.8 52.1406 27.8 53.7361V60.6694C27.8 62.2649 26.5066 63.5583 24.9111 63.5583H17.9778C16.3823 63.5583 15.0889 62.2649 15.0889 60.6694V53.7361Z" fill="url(#paint7_linear_757_21785)"/>
</g>
<g filter="url(#filter7_d_757_21785)">
<path d="M32.4221 53.7361C32.4221 52.1406 33.7155 50.8472 35.311 50.8472H42.2443C43.8398 50.8472 45.1332 52.1406 45.1332 53.7361V60.6694C45.1332 62.2649 43.8398 63.5583 42.2443 63.5583H35.311C33.7155 63.5583 32.4221 62.2649 32.4221 60.6694V53.7361Z" fill="url(#paint8_linear_757_21785)"/>
</g>
<g filter="url(#filter8_d_757_21785)">
<path d="M49.7556 53.7361C49.7556 52.1406 51.049 50.8472 52.6445 50.8472H59.5778C61.1733 50.8472 62.4667 52.1406 62.4667 53.7361V60.6694C62.4667 62.2649 61.1733 63.5583 59.5778 63.5583H52.6445C51.049 63.5583 49.7556 62.2649 49.7556 60.6694V53.7361Z" fill="url(#paint9_linear_757_21785)"/>
</g>
</g>
<defs>
<filter id="filter0_d_757_21785" x="14.0889" y="16.1804" width="14.7112" height="14.7112" filterUnits="userSpaceOnUse" color-interpolation-filters="sRGB">
<feFlood flood-opacity="0" result="BackgroundImageFix"/>
<feColorMatrix in="SourceAlpha" type="matrix" values="0 0 0 0 0 0 0 0 0 0 0 0 0 0 0 0 0 0 127 0" result="hardAlpha"/>
<feOffset dy="1"/>
<feGaussianBlur stdDeviation="0.5"/>
<feComposite in2="hardAlpha" operator="out"/>
<feColorMatrix type="matrix" values="0 0 0 0 0 0 0 0 0 0 0 0 0 0 0 0 0 0 0.3 0"/>
<feBlend mode="normal" in2="BackgroundImageFix" result="effect1_dropShadow_757_21785"/>
<feBlend mode="normal" in="SourceGraphic" in2="effect1_dropShadow_757_21785" result="shape"/>
</filter>
<filter id="filter1_d_757_21785" x="31.4221" y="16.1804" width="14.7112" height="14.7112" filterUnits="userSpaceOnUse" color-interpolation-filters="sRGB">
<feFlood flood-opacity="0" result="BackgroundImageFix"/>
<feColorMatrix in="SourceAlpha" type="matrix" values="0 0 0 0 0 0 0 0 0 0 0 0 0 0 0 0 0 0 127 0" result="hardAlpha"/>
<feOffset dy="1"/>
<feGaussianBlur stdDeviation="0.5"/>
<feComposite in2="hardAlpha" operator="out"/>
<feColorMatrix type="matrix" values="0 0 0 0 0 0 0 0 0 0 0 0 0 0 0 0 0 0 0.3 0"/>
<feBlend mode="normal" in2="BackgroundImageFix" result="effect1_dropShadow_757_21785"/>
<feBlend mode="normal" in="SourceGraphic" in2="effect1_dropShadow_757_21785" result="shape"/>
</filter>
<filter id="filter2_d_757_21785" x="48.7556" y="16.1804" width="14.7112" height="14.7112" filterUnits="userSpaceOnUse" color-interpolation-filters="sRGB">
<feFlood flood-opacity="0" result="BackgroundImageFix"/>
<feColorMatrix in="SourceAlpha" type="matrix" values="0 0 0 0 0 0 0 0 0 0 0 0 0 0 0 0 0 0 127 0" result="hardAlpha"/>
<feOffset dy="1"/>
<feGaussianBlur stdDeviation="0.5"/>
<feComposite in2="hardAlpha" operator="out"/>
<feColorMatrix type="matrix" values="0 0 0 0 0 0 0 0 0 0 0 0 0 0 0 0 0 0 0.3 0"/>
<feBlend mode="normal" in2="BackgroundImageFix" result="effect1_dropShadow_757_21785"/>
<feBlend mode="normal" in="SourceGraphic" in2="effect1_dropShadow_757_21785" result="shape"/>
</filter>
<filter id="filter3_d_757_21785" x="14.0889" y="33.5137" width="14.7112" height="14.7112" filterUnits="userSpaceOnUse" color-interpolation-filters="sRGB">
<feFlood flood-opacity="0" result="BackgroundImageFix"/>
<feColorMatrix in="SourceAlpha" type="matrix" values="0 0 0 0 0 0 0 0 0 0 0 0 0 0 0 0 0 0 127 0" result="hardAlpha"/>
<feOffset dy="1"/>
<feGaussianBlur stdDeviation="0.5"/>
<feComposite in2="hardAlpha" operator="out"/>
<feColorMatrix type="matrix" values="0 0 0 0 0 0 0 0 0 0 0 0 0 0 0 0 0 0 0.3 0"/>
<feBlend mode="normal" in2="BackgroundImageFix" result="effect1_dropShadow_757_21785"/>
<feBlend mode="normal" in="SourceGraphic" in2="effect1_dropShadow_757_21785" result="shape"/>
</filter>
<filter id="filter4_d_757_21785" x="31.4221" y="33.5137" width="14.7112" height="14.7112" filterUnits="userSpaceOnUse" color-interpolation-filters="sRGB">
<feFlood flood-opacity="0" result="BackgroundImageFix"/>
<feColorMatrix in="SourceAlpha" type="matrix" values="0 0 0 0 0 0 0 0 0 0 0 0 0 0 0 0 0 0 127 0" result="hardAlpha"/>
<feOffset dy="1"/>
<feGaussianBlur stdDeviation="0.5"/>
<feComposite in2="hardAlpha" operator="out"/>
<feColorMatrix type="matrix" values="0 0 0 0 0 0 0 0 0 0 0 0 0 0 0 0 0 0 0.3 0"/>
<feBlend mode="normal" in2="BackgroundImageFix" result="effect1_dropShadow_757_21785"/>
<feBlend mode="normal" in="SourceGraphic" in2="effect1_dropShadow_757_21785" result="shape"/>
</filter>
<filter id="filter5_d_757_21785" x="48.7556" y="33.5139" width="14.7112" height="14.7112" filterUnits="userSpaceOnUse" color-interpolation-filters="sRGB">
<feFlood flood-opacity="0" result="BackgroundImageFix"/>
<feColorMatrix in="SourceAlpha" type="matrix" values="0 0 0 0 0 0 0 0 0 0 0 0 0 0 0 0 0 0 127 0" result="hardAlpha"/>
<feOffset dy="1"/>
<feGaussianBlur stdDeviation="0.5"/>
<feComposite in2="hardAlpha" operator="out"/>
<feColorMatrix type="matrix" values="0 0 0 0 0 0 0 0 0 0 0 0 0 0 0 0 0 0 0.3 0"/>
<feBlend mode="normal" in2="BackgroundImageFix" result="effect1_dropShadow_757_21785"/>
<feBlend mode="normal" in="SourceGraphic" in2="effect1_dropShadow_757_21785" result="shape"/>
</filter>
<filter id="filter6_d_757_21785" x="14.0889" y="50.8472" width="14.7112" height="14.7112" filterUnits="userSpaceOnUse" color-interpolation-filters="sRGB">
<feFlood flood-opacity="0" result="BackgroundImageFix"/>
<feColorMatrix in="SourceAlpha" type="matrix" values="0 0 0 0 0 0 0 0 0 0 0 0 0 0 0 0 0 0 127 0" result="hardAlpha"/>
<feOffset dy="1"/>
<feGaussianBlur stdDeviation="0.5"/>
<feComposite in2="hardAlpha" operator="out"/>
<feColorMatrix type="matrix" values="0 0 0 0 0 0 0 0 0 0 0 0 0 0 0 0 0 0 0.3 0"/>
<feBlend mode="normal" in2="BackgroundImageFix" result="effect1_dropShadow_757_21785"/>
<feBlend mode="normal" in="SourceGraphic" in2="effect1_dropShadow_757_21785" result="shape"/>
</filter>
<filter id="filter7_d_757_21785" x="31.4221" y="50.8472" width="14.7112" height="14.7112" filterUnits="userSpaceOnUse" color-interpolation-filters="sRGB">
<feFlood flood-opacity="0" result="BackgroundImageFix"/>
<feColorMatrix in="SourceAlpha" type="matrix" values="0 0 0 0 0 0 0 0 0 0 0 0 0 0 0 0 0 0 127 0" result="hardAlpha"/>
<feOffset dy="1"/>
<feGaussianBlur stdDeviation="0.5"/>
<feComposite in2="hardAlpha" operator="out"/>
<feColorMatrix type="matrix" values="0 0 0 0 0 0 0 0 0 0 0 0 0 0 0 0 0 0 0.3 0"/>
<feBlend mode="normal" in2="BackgroundImageFix" result="effect1_dropShadow_757_21785"/>
<feBlend mode="normal" in="SourceGraphic" in2="effect1_dropShadow_757_21785" result="shape"/>
</filter>
<filter id="filter8_d_757_21785" x="48.7556" y="50.8472" width="14.7112" height="14.7112" filterUnits="userSpaceOnUse" color-interpolation-filters="sRGB">
<feFlood flood-opacity="0" result="BackgroundImageFix"/>
<feColorMatrix in="SourceAlpha" type="matrix" values="0 0 0 0 0 0 0 0 0 0 0 0 0 0 0 0 0 0 127 0" result="hardAlpha"/>
<feOffset dy="1"/>
<feGaussianBlur stdDeviation="0.5"/>
<feComposite in2="hardAlpha" operator="out"/>
<feColorMatrix type="matrix" values="0 0 0 0 0 0 0 0 0 0 0 0 0 0 0 0 0 0 0.3 0"/>
<feBlend mode="normal" in2="BackgroundImageFix" result="effect1_dropShadow_757_21785"/>
<feBlend mode="normal" in="SourceGraphic" in2="effect1_dropShadow_757_21785" result="shape"/>
</filter>
<radialGradient id="paint0_radial_757_21785" cx="0" cy="0" r="1" gradientUnits="userSpaceOnUse" gradientTransform="translate(39 39) rotate(90) scale(39)">
<stop stop-color="white" stop-opacity="0"/>
<stop offset="1" stop-color="white" stop-opacity="0.3"/>
</radialGradient>
<linearGradient id="paint1_linear_757_21785" x1="21.4444" y1="16.1804" x2="21.4444" y2="28.8915" gradientUnits="userSpaceOnUse">
<stop stop-color="#ED92FF"/>
<stop offset="1" stop-color="#E770FF"/>
</linearGradient>
<linearGradient id="paint2_linear_757_21785" x1="38.7777" y1="16.1804" x2="38.7777" y2="28.8915" gradientUnits="userSpaceOnUse">
<stop stop-color="#FF9DCC"/>
<stop offset="1" stop-color="#FF81BE"/>
</linearGradient>
<linearGradient id="paint3_linear_757_21785" x1="56.1112" y1="16.1804" x2="56.1112" y2="28.8915" gradientUnits="userSpaceOnUse">
<stop stop-color="#32E5BB"/>
<stop offset="1" stop-color="#06DCAA"/>
</linearGradient>
<linearGradient id="paint4_linear_757_21785" x1="21.4444" y1="33.5137" x2="21.4444" y2="46.2248" gradientUnits="userSpaceOnUse">
<stop stop-color="#1EE4CD"/>
<stop offset="1" stop-color="#00D0B8"/>
</linearGradient>
<linearGradient id="paint5_linear_757_21785" x1="38.7777" y1="33.5137" x2="38.7777" y2="46.2248" gradientUnits="userSpaceOnUse">
<stop stop-color="#1FC6F8"/>
<stop offset="1" stop-color="#00B7EF"/>
</linearGradient>
<linearGradient id="paint6_linear_757_21785" x1="56.1112" y1="33.5139" x2="56.1112" y2="46.225" gradientUnits="userSpaceOnUse">
<stop stop-color="#1ADDEB"/>
<stop offset="1" stop-color="#00D5E3"/>
</linearGradient>
<linearGradient id="paint7_linear_757_21785" x1="21.4444" y1="50.8472" x2="21.4444" y2="63.5583" gradientUnits="userSpaceOnUse">
<stop stop-color="#2BB5FF"/>
<stop offset="1" stop-color="#19AEFF"/>
</linearGradient>
<linearGradient id="paint8_linear_757_21785" x1="38.7777" y1="50.8472" x2="38.7777" y2="63.5583" gradientUnits="userSpaceOnUse">
<stop stop-color="#32A3FF"/>
<stop offset="1" stop-color="#1E9AFF"/>
</linearGradient>
<linearGradient id="paint9_linear_757_21785" x1="56.1112" y1="50.8472" x2="56.1112" y2="63.5583" gradientUnits="userSpaceOnUse">
<stop stop-color="#3892FF"/>
<stop offset="1" stop-color="#1E84FF"/>
</linearGradient>
<clipPath id="clip0_757_21785">
<rect width="78" height="78" fill="white" transform="translate(0 0.414551)"/>
</clipPath>
</defs>
</svg>
