<svg width="15" height="14" viewBox="0 0 15 14" fill="none" xmlns="http://www.w3.org/2000/svg">
<g opacity="0.8">
<path d="M11.9338 6.48681L10.2054 13.2447C10.2008 13.2633 10.2008 13.2827 10.2054 13.3013C10.2121 13.3293 10.2283 13.354 10.2511 13.3715C10.2739 13.3891 10.302 13.3982 10.3308 13.3976H13.7859C13.8049 13.398 13.8239 13.3941 13.8412 13.3862C13.8585 13.3782 13.8739 13.3665 13.886 13.3517C13.8981 13.337 13.9067 13.3197 13.9112 13.3012C13.9157 13.2827 13.9159 13.2634 13.9119 13.2447L12.1753 6.48681C12.1693 6.46748 12.1587 6.44987 12.1445 6.43544C12.1303 6.42101 12.1129 6.41018 12.0937 6.40384C12.0744 6.39751 12.054 6.39586 12.034 6.39903C12.014 6.4022 11.995 6.41009 11.9787 6.42206C11.9569 6.43786 11.9409 6.46041 11.9332 6.48622M2.4237 8.01806L1.08495 13.2447C1.08085 13.2634 1.08107 13.2827 1.08559 13.3013C1.0901 13.3198 1.0988 13.3371 1.11101 13.3518C1.12322 13.3665 1.13862 13.3782 1.15604 13.386C1.17347 13.3938 1.19244 13.3976 1.21153 13.397H3.87795C3.89711 13.3974 3.91612 13.3936 3.93359 13.3857C3.95106 13.3778 3.96653 13.3661 3.97887 13.3515C3.9908 13.3369 3.99919 13.3197 4.00337 13.3013C4.00813 13.2828 4.00833 13.2634 4.00395 13.2447L2.66403 8.01806C2.65622 7.99246 2.64024 7.97013 2.61853 7.95447C2.59698 7.93882 2.57109 7.93025 2.54445 7.92997C2.51721 7.92989 2.49065 7.93847 2.46862 7.95447C2.44713 7.97022 2.43136 7.99254 2.4237 8.01806Z" fill="#00E5E5"/>
<path d="M4.78526 3.69081L2.34693 13.2446C2.34276 13.2626 2.34269 13.2813 2.34673 13.2992C2.35077 13.3172 2.35881 13.334 2.37026 13.3485C2.38164 13.3633 2.3962 13.3753 2.41287 13.3837C2.42953 13.392 2.44786 13.3966 2.46651 13.3969H7.34493C7.36392 13.3974 7.38278 13.3936 7.40009 13.3857C7.41741 13.3779 7.43272 13.3663 7.4449 13.3517C7.45707 13.3371 7.46579 13.3199 7.4704 13.3015C7.47501 13.2831 7.47539 13.2638 7.47151 13.2452L5.02618 3.68965C5.01836 3.66405 5.00238 3.64172 4.98068 3.62606C4.95896 3.61029 4.93285 3.60172 4.90601 3.60156C4.87897 3.6016 4.85264 3.61017 4.83076 3.62606C4.80895 3.64187 4.79296 3.66442 4.78526 3.69023" fill="#006EFF"/>
<path d="M8.99289 0.652536C8.98507 0.626941 8.96909 0.604609 8.94739 0.588953C8.92551 0.573063 8.89917 0.564489 8.87214 0.564453C8.8453 0.564611 8.81919 0.57318 8.79747 0.588953C8.77577 0.604609 8.75978 0.626941 8.75197 0.652536L5.4188 13.245C5.41482 13.2635 5.41511 13.2827 5.41964 13.3012C5.42417 13.3196 5.43283 13.3368 5.44496 13.3514C5.4571 13.366 5.47239 13.3777 5.48968 13.3855C5.50698 13.3933 5.52582 13.3971 5.5448 13.3966H12.2065C12.2255 13.397 12.2444 13.3931 12.2618 13.3852C12.2792 13.3774 12.2945 13.3657 12.3068 13.3511C12.3189 13.3365 12.3277 13.3194 12.3325 13.301C12.3367 13.2825 12.3367 13.2634 12.3325 13.245L8.99289 0.652536Z" fill="#006EFF"/>
<path d="M6.54395 5.07988L4.42937 13.2442C4.42473 13.2628 4.42459 13.2822 4.42895 13.3009C4.43331 13.3196 4.44205 13.3369 4.45445 13.3515C4.46664 13.3664 4.48207 13.3783 4.49957 13.3863C4.51706 13.3943 4.53615 13.3982 4.55537 13.3976H8.77462C8.79396 13.398 8.81314 13.394 8.83071 13.3859C8.84829 13.3778 8.86381 13.3659 8.87612 13.351C8.888 13.3362 8.89642 13.3189 8.90076 13.3004C8.9051 13.282 8.90525 13.2627 8.9012 13.2442L6.78487 5.07929C6.77694 5.05391 6.76097 5.0318 6.73937 5.01629C6.71756 5.0002 6.69122 4.99142 6.66412 4.99121C6.63722 4.99154 6.6111 5.00031 6.58945 5.01629C6.56785 5.0318 6.55188 5.05391 6.54395 5.07929" fill="#00E5E5"/>
</g>
</svg>
