<svg xmlns="http://www.w3.org/2000/svg" width="14" height="7" viewBox="0 0 14 7"><path d="M0.333344 0.833171C0.333344 0.65636 0.403581 0.48679 0.528606 0.361766C0.65363 0.236742 0.823199 0.166504 1.00001 0.166504H13C13.1768 0.166504 13.3464 0.236742 13.4714 0.361766C13.5964 0.48679 13.6667 0.65636 13.6667 0.833171C13.6667 1.00998 13.5964 1.17955 13.4714 1.30457C13.3464 1.4296 13.1768 1.49984 13 1.49984H1.00001C0.823199 1.49984 0.65363 1.4296 0.528606 1.30457C0.403581 1.17955 0.333344 1.00998 0.333344 0.833171ZM0.333344 3.49984C0.333344 3.32303 0.403581 3.15346 0.528606 3.02843C0.65363 2.90341 0.823199 2.83317 1.00001 2.83317H13C13.1768 2.83317 13.3464 2.90341 13.4714 3.02843C13.5964 3.15346 13.6667 3.32303 13.6667 3.49984C13.6667 3.67665 13.5964 3.84622 13.4714 3.97124C13.3464 4.09627 13.1768 4.1665 13 4.1665H1.00001C0.823199 4.1665 0.65363 4.09627 0.528606 3.97124C0.403581 3.84622 0.333344 3.67665 0.333344 3.49984ZM1.00001 5.49984C0.823199 5.49984 0.65363 5.57008 0.528606 5.6951C0.403581 5.82012 0.333344 5.98969 0.333344 6.1665C0.333344 6.34331 0.403581 6.51288 0.528606 6.63791C0.65363 6.76293 0.823199 6.83317 1.00001 6.83317H9.00001C9.17682 6.83317 9.34639 6.76293 9.47141 6.63791C9.59644 6.51288 9.66668 6.34331 9.66668 6.1665C9.66668 5.98969 9.59644 5.82012 9.47141 5.6951C9.34639 5.57008 9.17682 5.49984 9.00001 5.49984H1.00001Z"/></svg>