<svg xmlns="http://www.w3.org/2000/svg" viewBox="0 0 17 17" fill="none">
  <path d="M12.8678 3.87406L14.1877 5.19399L15.0944 4.28729C15.2617 4.12 15.3453 4.03634 15.3928 3.94764C15.4999 3.74752 15.4999 3.50713 15.3928 3.307C15.3453 3.21831 15.2617 3.13466 15.0944 2.96737C14.9271 2.80007 14.8434 2.71641 14.7547 2.66895C14.5546 2.56189 14.3142 2.56189 14.1141 2.66895C14.0254 2.71641 13.9418 2.80006 13.7745 2.96736L12.8678 3.87406Z" fill="currentColor"/>
  <path d="M7.85653 11.3695C7.81276 11.3723 7.75862 11.3723 7.68866 11.3723H7.12348C6.9688 11.3723 6.89146 11.3723 6.83259 11.3418C6.78299 11.316 6.74254 11.2755 6.71677 11.2259C6.68619 11.1671 6.68619 11.0897 6.68619 10.935V10.3645C6.68619 10.2098 6.68619 10.1325 6.71677 10.0736C6.72009 10.0672 6.72367 10.0609 6.72747 10.0548C6.76658 9.97524 6.84688 9.89494 6.9871 9.75472L12.0035 4.73832L13.3234 6.05825L8.30703 11.0747C8.14297 11.2387 8.06094 11.3207 7.96606 11.3508C7.93037 11.362 7.89351 11.3683 7.85653 11.3695Z" fill="currentColor"/>
  <path d="M6.44527 2.88248C5.82405 2.88247 5.31681 2.88246 4.90498 2.91666C4.4789 2.95205 4.09557 3.02746 3.73892 3.21273C3.20317 3.49103 2.76633 3.92787 2.48803 4.46362C2.30276 4.82027 2.22735 5.2036 2.19196 5.62969C2.15776 6.04152 2.15777 6.54875 2.15778 7.16998V11.3274C2.15777 11.9486 2.15776 12.4558 2.19196 12.8677C2.22735 13.2938 2.30276 13.6771 2.48803 14.0337C2.76633 14.5695 3.20317 15.0063 3.73892 15.2846C4.09557 15.4699 4.4789 15.5453 4.90499 15.5807C5.31683 15.6149 5.82407 15.6149 6.44532 15.6149H10.6026C11.2239 15.6149 11.7311 15.6149 12.143 15.5807C12.5691 15.5453 12.9524 15.4699 13.309 15.2846C13.8448 15.0063 14.2816 14.5695 14.5599 14.0337C14.7452 13.6771 14.8206 13.2938 14.856 12.8677C14.8902 12.4559 14.8902 11.9486 14.8902 11.3274V8.63547C14.8902 8.26728 14.5917 7.96881 14.2235 7.96881C13.8553 7.96881 13.5569 8.26728 13.5569 8.63547V11.2989C13.5569 11.9555 13.5563 12.4072 13.5272 12.7573C13.4988 13.0995 13.4466 13.2845 13.3767 13.4191C13.2249 13.7113 12.9866 13.9496 12.6944 14.1014C12.5598 14.1713 12.3748 14.2235 12.0326 14.2519C11.6825 14.281 11.2308 14.2816 10.5742 14.2816H6.47377C5.81716 14.2816 5.36547 14.281 5.01534 14.2519C4.67319 14.2235 4.48817 14.1713 4.35355 14.1014C4.06132 13.9496 3.82305 13.7113 3.67125 13.4191C3.60132 13.2845 3.54914 13.0995 3.52072 12.7573C3.49165 12.4072 3.49111 11.9555 3.49111 11.2989V7.19847C3.49111 6.54186 3.49165 6.09017 3.52072 5.74004C3.54914 5.39789 3.60132 5.21287 3.67125 5.07825C3.82305 4.78602 4.06132 4.54775 4.35355 4.39595C4.48817 4.32602 4.67319 4.27384 5.01533 4.24542C5.36546 4.21635 5.81714 4.21581 6.47375 4.21581H9.16498C9.53317 4.21581 9.83165 3.91733 9.83165 3.54914C9.83165 3.18095 9.53317 2.88248 9.16498 2.88248L6.44527 2.88248Z" fill="currentColor"/>
</svg>