<svg width="16" height="17" viewBox="0 0 16 17" fill="none" xmlns="http://www.w3.org/2000/svg">
<path d="M6.68067 1.18066H10.6807V2.514H6.68067V1.18066ZM13.36 5.44L14.316 4.484L13.3733 3.54133L12.418 4.49666C11.3713 3.65787 10.0734 3.1945 8.73213 3.18072C7.39086 3.16694 6.08374 3.60355 5.02001 4.42066L5.96667 5.38066C6.7576 4.8189 7.70322 4.51612 8.67334 4.514L8.68001 4.51466V9.168L11.982 12.4733C11.3301 13.1283 10.4985 13.5749 9.59255 13.7568C8.68658 13.9387 7.74701 13.8475 6.89289 13.4949C6.03878 13.1422 5.30855 12.544 4.79474 11.776C4.28093 11.008 4.00666 10.1047 4.00667 9.18066H6.00667L3.34001 6.514L0.67334 9.18066H2.67334C2.67243 10.1394 2.9013 11.0845 3.34078 11.9366C3.78026 12.7887 4.41754 13.5231 5.19924 14.0782C5.98095 14.6334 6.88431 14.9931 7.83365 15.1273C8.78299 15.2615 9.75066 15.1662 10.6556 14.8494C11.5605 14.5327 12.3764 14.0037 13.0348 13.3067C13.6932 12.6098 14.175 11.7652 14.4399 10.8437C14.7047 9.92227 14.7449 8.95075 14.557 8.01056C14.3691 7.07038 13.9587 6.18891 13.36 5.44Z" fill="#24282C"/>
</svg>
