<svg xmlns="http://www.w3.org/2000/svg" fill="none" viewBox="0 0 12 13"><path d="M4.55 12.5858C3.40556 12.2636 2.47223 11.6332 1.75001 10.6945C1.02778 9.75584 0.666672 8.67517 0.666672 7.45251C0.666672 6.81917 0.772227 6.21628 0.983338 5.64384C1.19445 5.07139 1.49445 4.54651 1.88334 4.06917C2.00556 3.93584 2.15556 3.86628 2.33334 3.86051C2.51112 3.85473 2.67223 3.92428 2.81667 4.06917C2.93889 4.1914 3.00289 4.3414 3.00867 4.51917C3.01445 4.69695 2.95601 4.86362 2.83334 5.01917C2.56667 5.36362 2.36112 5.74139 2.21667 6.15251C2.07223 6.56362 2.00001 6.99695 2.00001 7.45251C2.00001 8.35251 2.26401 9.1554 2.79201 9.86117C3.32001 10.567 4.00045 11.0474 4.83334 11.3025C4.97778 11.3469 5.09712 11.4303 5.19134 11.5525C5.28556 11.6747 5.33289 11.8081 5.33334 11.9525C5.33334 12.1747 5.25556 12.3498 5.10001 12.4778C4.94445 12.6058 4.76112 12.6418 4.55 12.5858ZM7.45001 12.5858C7.23889 12.6414 7.05556 12.6025 6.90001 12.4692C6.74445 12.3358 6.66667 12.1581 6.66667 11.9358C6.66667 11.8025 6.71401 11.6747 6.80867 11.5525C6.90334 11.4303 7.02267 11.3469 7.16667 11.3025C8.00001 11.0358 8.68067 10.5525 9.20867 9.85251C9.73667 9.15251 10.0005 8.35251 10 7.45251C10 6.34139 9.61112 5.39695 8.83334 4.61917C8.05556 3.8414 7.11112 3.45251 6.00001 3.45251H5.95001L6.21667 3.71917C6.33889 3.8414 6.40001 3.99695 6.40001 4.18584C6.40001 4.37473 6.33889 4.53028 6.21667 4.65251C6.09445 4.77473 5.93889 4.83584 5.75001 4.83584C5.56112 4.83584 5.40556 4.77473 5.28334 4.65251L3.88334 3.25251C3.81667 3.18584 3.76956 3.11362 3.74201 3.03584C3.71445 2.95806 3.70045 2.87473 3.70001 2.78584C3.70001 2.69695 3.71401 2.61362 3.74201 2.53584C3.77001 2.45806 3.81712 2.38584 3.88334 2.31917L5.28334 0.919173C5.40556 0.796951 5.56112 0.73584 5.75001 0.73584C5.93889 0.73584 6.09445 0.796951 6.21667 0.919173C6.33889 1.0414 6.40001 1.19695 6.40001 1.38584C6.40001 1.57473 6.33889 1.73028 6.21667 1.85251L5.95001 2.11917H6.00001C7.48889 2.11917 8.75 2.63584 9.78334 3.66917C10.8167 4.70251 11.3333 5.96362 11.3333 7.45251C11.3333 8.66362 10.9722 9.74139 10.25 10.6858C9.52778 11.6303 8.59445 12.2636 7.45001 12.5858Z"/></svg>