<svg xmlns="http://www.w3.org/2000/svg" width="20" height="20" viewBox="0 0 20 20" fill="none">
  <path d="M5.22392 14.8305V12.8644H10.1392C9.9098 12.5859 9.72564 12.2828 9.5867 11.9551C9.44711 11.6274 9.33635 11.2751 9.25443 10.8983H3.25781V8.93221H9.25443C9.33635 8.55537 9.44711 8.20311 9.5867 7.87543C9.72564 7.54774 9.9098 7.24464 10.1392 6.9661H5.22392V5H14.0714C15.4313 5 16.5906 5.47907 17.5494 6.43722C18.5076 7.39603 18.9866 8.55537 18.9866 9.91526C18.9866 11.2751 18.5076 12.4342 17.5494 13.3923C16.5906 14.3511 15.4313 14.8305 14.0714 14.8305H5.22392ZM1.29171 14.8305V12.8644H4.24086V14.8305H1.29171Z" fill="url(#paint0_linear_12_7525)"/>
  <defs>
    <linearGradient id="paint0_linear_12_7525" x1="4.14072" y1="14.8305" x2="11.4508" y2="2.02067" gradientUnits="userSpaceOnUse">
      <stop stop-color="#1A63D4"/>
      <stop offset="1" stop-color="#A9B1F6"/>
    </linearGradient>
  </defs>
</svg>