<svg width="49" height="48" viewBox="0 0 49 48" fill="none" xmlns="http://www.w3.org/2000/svg">
<path fill-rule="evenodd" clip-rule="evenodd" d="M5.77734 6.80408C4.67277 6.80408 3.77734 7.69951 3.77734 8.80408V39.196C3.77734 40.3005 4.67277 41.196 5.77734 41.196H43.7773C44.8819 41.196 45.7773 40.3005 45.7773 39.196V8.80408C45.7773 7.69951 44.8819 6.80408 43.7773 6.80408H5.77734ZM33.4131 12.903L32.674 12.3263L31.9349 12.903L30.4635 14.0512L28.6111 14.2797L27.6808 14.3945L27.5659 15.3249L27.3374 17.1773L26.1892 18.6487L25.6125 19.3878L26.1892 20.1269L27.3374 21.5983L27.5659 23.4507L27.6808 24.381L28.6111 24.4958L28.6973 24.5065L28.6973 32.632V34.1148C28.6973 34.3383 28.9577 34.4608 29.1298 34.3181L30.2716 33.372L32.5179 31.5106C32.616 31.4293 32.7583 31.4297 32.856 31.5116L35.0721 33.3686L36.2169 34.3278C36.3887 34.4718 36.6505 34.3497 36.6505 34.1254V32.632V24.5065L36.7369 24.4958L37.6673 24.381L37.7821 23.4507L38.0106 21.5983L39.1588 20.1269L39.7355 19.3878L39.1588 18.6487L38.0106 17.1773L37.7821 15.3249L37.6673 14.3945L36.7369 14.2797L34.8845 14.0512L33.4131 12.903ZM34.7283 24.8463L33.4131 25.8726L32.674 26.4493L31.9349 25.8726L30.6195 24.8461V30.0256C30.6195 30.2492 30.8799 30.3716 31.052 30.2289L32.0775 29.3792L32.5247 29.0086C32.6229 28.9272 32.7651 28.9276 32.8628 29.0095L33.308 29.3825L34.2947 30.2093C34.4665 30.3533 34.7283 30.2311 34.7283 30.0069V24.8463ZM31.6796 16.1499L32.674 15.3739L33.6684 16.1499L33.9305 16.3544L34.2604 16.3951L35.5122 16.5496L35.6667 17.8014L35.7074 18.1313L35.9119 18.3934L36.6879 19.3878L35.9119 20.3822L35.7074 20.6443L35.6667 20.9742L35.5122 22.226L34.2604 22.3805L33.9305 22.4212L33.6684 22.6257L32.674 23.4016L31.6796 22.6257L31.4175 22.4212L31.0876 22.3805L29.8358 22.226L29.6813 20.9742L29.6406 20.6443L29.4361 20.3822L28.6602 19.3878L29.4361 18.3934L29.6406 18.1313L29.6813 17.8014L29.8358 16.5496L31.0876 16.3951L31.4175 16.3544L31.6796 16.1499ZM9.81874 15.6173H11.3805H20.6961H22.2579V18.7408H20.6961H11.3805H9.81874V15.6173ZM9.81874 22.8254H11.3805H17.8458H19.4076V25.949H17.8458H11.3805H9.81874V22.8254ZM11.3805 30.0336H9.81874V33.1572H11.3805H23.0733H24.6351V30.0336H23.0733H11.3805Z" fill="#24282C"/>
</svg>
