<svg width="78" height="78" viewBox="0 0 78 78" fill="none" xmlns="http://www.w3.org/2000/svg">
<g clip-path="url(#clip0_1760_7408)">
<rect width="78" height="78" fill="url(#paint0_linear_1760_7408)"/>
<path d="M17.4917 21.6264C17.4917 17.6779 20.6926 14.4771 24.6411 14.4771H52.2172C56.1657 14.4771 59.3666 17.6779 59.3666 21.6264V47.1599C59.3666 51.1084 56.1657 54.3093 52.2172 54.3093H24.6411C20.6926 54.3093 17.4917 51.1084 17.4917 47.1599V21.6264Z" fill="white" fill-opacity="0.5"/>
<path d="M14.4275 25.7119C14.4275 21.7634 17.6284 18.5625 21.5769 18.5625H55.2811C59.2295 18.5625 62.4304 21.7634 62.4304 25.7119V57.3734C62.4304 61.3219 59.2295 64.5228 55.2811 64.5228H21.5769C17.6284 64.5228 14.4275 61.3219 14.4275 57.3734V25.7119Z" fill="url(#paint1_linear_1760_7408)"/>
<g filter="url(#filter0_d_1760_7408)">
<path d="M62.4322 34.7074C63.9867 33.1529 66.5071 33.1529 68.0616 34.7074C69.6162 36.2619 69.6162 38.7823 68.0616 40.3369L54.4581 53.9404C53.5302 54.8683 52.3924 55.5591 51.141 55.9543L46.6911 57.3595C45.9027 57.6084 45.1606 56.8664 45.4096 56.078L46.8148 51.6281C47.21 50.3767 47.9007 49.2389 48.8287 48.3109L62.4322 34.7074Z" fill="url(#paint2_linear_1760_7408)"/>
</g>
<path d="M20.5557 31.8398C20.5557 30.7117 21.4702 29.7971 22.5983 29.7971H47.1105C48.2386 29.7971 49.1532 30.7117 49.1532 31.8398C49.1532 32.9679 48.2386 33.8825 47.1105 33.8825H22.5983C21.4702 33.8825 20.5557 32.9679 20.5557 31.8398Z" fill="url(#paint3_linear_1760_7408)"/>
<path d="M20.5557 43.0747C20.5557 41.9465 21.4702 41.032 22.5983 41.032H34.8544C35.9826 41.032 36.8971 41.9465 36.8971 43.0747C36.8971 44.2028 35.9826 45.1173 34.8544 45.1173H22.5983C21.4702 45.1173 20.5557 44.2028 20.5557 43.0747Z" fill="url(#paint4_linear_1760_7408)"/>
</g>
<defs>
<filter id="filter0_d_1760_7408" x="43.3179" y="33.5415" width="27.9523" height="27.9523" filterUnits="userSpaceOnUse" color-interpolation-filters="sRGB">
<feFlood flood-opacity="0" result="BackgroundImageFix"/>
<feColorMatrix in="SourceAlpha" type="matrix" values="0 0 0 0 0 0 0 0 0 0 0 0 0 0 0 0 0 0 127 0" result="hardAlpha"/>
<feOffset dy="2.04268"/>
<feGaussianBlur stdDeviation="1.02134"/>
<feComposite in2="hardAlpha" operator="out"/>
<feColorMatrix type="matrix" values="0 0 0 0 0 0 0 0 0 0 0 0 0 0 0 0 0 0 0.1 0"/>
<feBlend mode="normal" in2="BackgroundImageFix" result="effect1_dropShadow_1760_7408"/>
<feBlend mode="normal" in="SourceGraphic" in2="effect1_dropShadow_1760_7408" result="shape"/>
</filter>
<linearGradient id="paint0_linear_1760_7408" x1="78" y1="-2.32458e-06" x2="-1.58182e-06" y2="69" gradientUnits="userSpaceOnUse">
<stop stop-color="#A59CF2"/>
<stop offset="1" stop-color="#7B67FF"/>
</linearGradient>
<linearGradient id="paint1_linear_1760_7408" x1="38.429" y1="18.5625" x2="38.429" y2="64.5228" gradientUnits="userSpaceOnUse">
<stop stop-color="white"/>
<stop offset="1" stop-color="#E8E5FE"/>
</linearGradient>
<linearGradient id="paint2_linear_1760_7408" x1="68.0618" y1="34.7073" x2="44.8182" y2="57.9508" gradientUnits="userSpaceOnUse">
<stop stop-color="#CBC4FB"/>
<stop offset="1" stop-color="#8574FD"/>
</linearGradient>
<linearGradient id="paint3_linear_1760_7408" x1="34.8544" y1="29.7971" x2="34.8544" y2="34.5634" gradientUnits="userSpaceOnUse">
<stop stop-color="#8A7AFD"/>
<stop offset="1" stop-color="#CBC5F9"/>
</linearGradient>
<linearGradient id="paint4_linear_1760_7408" x1="28.7264" y1="41.032" x2="28.7264" y2="45.7982" gradientUnits="userSpaceOnUse">
<stop stop-color="#8A7AFD"/>
<stop offset="1" stop-color="#CBC5F9"/>
</linearGradient>
<clipPath id="clip0_1760_7408">
<rect width="78" height="78" fill="white"/>
</clipPath>
</defs>
</svg>
