<svg xmlns="http://www.w3.org/2000/svg" width="48" height="49" viewBox="0 0 48 49" fill="none">
  <path fill-rule="evenodd" clip-rule="evenodd" d="M24.1578 2.63971C21.0485 2.63971 18.4983 5.0337 18.2499 8.07901H13.838C11.1497 8.07901 9.80561 8.07901 8.77884 8.60218C7.87566 9.06237 7.14135 9.79668 6.68116 10.6999C6.15799 11.7266 6.15799 13.0708 6.15799 15.759V36.4058C6.15799 39.094 6.15799 40.4381 6.68116 41.4649C7.14135 42.3681 7.87566 43.1024 8.77884 43.5626C9.80561 44.0858 11.1497 44.0858 13.838 44.0858H34.478C37.1662 44.0858 38.5104 44.0858 39.5371 43.5626C40.4403 43.1024 41.1746 42.3681 41.6348 41.4649C42.158 40.4381 42.158 39.094 42.158 36.4058V15.759C42.158 13.0708 42.158 11.7266 41.6348 10.6999C41.1746 9.79668 40.4403 9.06237 39.5371 8.60218C38.5104 8.07901 37.1662 8.07901 34.478 8.07901H30.0656C29.8173 5.0337 27.2671 2.63971 24.1578 2.63971ZM26.1578 8.63971C26.1578 9.74428 25.2623 10.6397 24.1578 10.6397C23.0532 10.6397 22.1578 9.74428 22.1578 8.63971C22.1578 7.53514 23.0532 6.63971 24.1578 6.63971C25.2623 6.63971 26.1578 7.53514 26.1578 8.63971ZM14.4676 18.0824C14.4676 16.9778 15.363 16.0824 16.4676 16.0824H32.2367C33.3413 16.0824 34.2367 16.9778 34.2367 18.0824C34.2367 19.187 33.3413 20.0824 32.2367 20.0824H16.4676C15.363 20.0824 14.4676 19.187 14.4676 18.0824ZM16.4676 24.0824C15.363 24.0824 14.4676 24.9778 14.4676 26.0824C14.4676 27.187 15.363 28.0824 16.4676 28.0824H32.2367C33.3413 28.0824 34.2367 27.187 34.2367 26.0824C34.2367 24.9778 33.3413 24.0824 32.2367 24.0824H16.4676ZM14.4676 34.0824C14.4676 32.9778 15.363 32.0824 16.4676 32.0824H24.1578C25.2623 32.0824 26.1578 32.9778 26.1578 34.0824C26.1578 35.187 25.2623 36.0824 24.1578 36.0824H16.4676C15.363 36.0824 14.4676 35.187 14.4676 34.0824Z" fill="url(#paint0_linear_5172_7822)"/>
  <defs>
    <linearGradient id="paint0_linear_5172_7822" x1="11.9542" y1="44.0858" x2="47.2541" y2="14.2361" gradientUnits="userSpaceOnUse">
      <stop stop-color="#595AC5"/>
      <stop offset="1" stop-color="#6B74DA"/>
    </linearGradient>
  </defs>
</svg>