<svg width="32" height="32" viewBox="0 0 32 32" fill="none" xmlns="http://www.w3.org/2000/svg">
<g clip-path="url(#clip0_4568_12009)">
<path d="M32 29.9389V12.8749C32 12.4694 31.8805 12.0729 31.6564 11.735C31.4323 11.397 31.1135 11.1327 30.74 10.9749L12.0285 3.07639C11.7695 2.96686 11.4907 2.91155 11.2095 2.91389L2.045 2.98889C1.50099 2.99337 0.980792 3.21267 0.597747 3.59899C0.214702 3.98531 -0.000150328 4.50736 7.89162e-08 5.05139V13.8839C7.89162e-08 14.2869 0.118 14.6804 0.339 15.0174L10.8935 31.0719C11.0812 31.3575 11.337 31.592 11.6379 31.7543C11.9387 31.9165 12.2752 32.0014 12.617 32.0014H29.9375C30.4845 32.0014 31.0091 31.7841 31.3959 31.3973C31.7827 31.0105 32 30.4859 32 29.9389Z" fill="url(#paint0_linear_4568_12009)"/>
<path d="M29 7.494V2.0625C29 1.51549 28.7827 0.990886 28.3959 0.604092C28.0091 0.217298 27.4845 0 26.9375 0L20.6545 0C20.5545 0 20.4545 0.007 20.3555 0.022L1.7635 2.746C1.27356 2.81778 0.825807 3.06343 0.502025 3.43807C0.178244 3.81271 5.08847e-05 4.29133 0 4.7865L0 12.4855C-7.96014e-09 12.7564 0.0533647 13.0246 0.157046 13.2749C0.260728 13.5252 0.412695 13.7526 0.604269 13.9441C0.795843 14.1356 1.02327 14.2875 1.27356 14.3911C1.52385 14.4948 1.79211 14.5481 2.063 14.548L11.3155 14.5455C11.5281 14.5454 11.7394 14.5126 11.942 14.448L27.565 9.458C27.9814 9.32492 28.3448 9.06298 28.6027 8.70998C28.8607 8.35699 28.9998 7.93118 29 7.494Z" fill="url(#paint1_linear_4568_12009)"/>
<path d="M29 8.22641V2.09691C29 1.82334 28.9455 1.55251 28.8398 1.3002C28.7341 1.04788 28.5793 0.81911 28.3843 0.627211C28.1893 0.435313 27.9581 0.284118 27.7042 0.182431C27.4502 0.0807437 27.1785 0.0305955 26.905 0.0349062L21.5015 0.00390625C20.9115 0.0134062 20.234 0.394406 19.8495 0.842906L3.4965 19.9219C3.17635 20.2958 3.00027 20.7717 3 21.2639V26.9389C3 27.4859 3.2173 28.0105 3.60409 28.3973C3.99089 28.7841 4.51549 29.0014 5.0625 29.0014H10.564C11.159 29.0014 11.7245 28.7444 12.116 28.2969L28.49 9.58491C28.819 9.20882 29.0002 8.72607 29 8.22641Z" fill="#FF2D90"/>
<path d="M26 6H6V26H26V6Z" fill="black"/>
<path d="M16.5 21.9999H8.5V23.4999H16.5V21.9999ZM10.3735 15.6209C9.79779 15.2903 9.32338 14.8086 9.0015 14.2279C8.669 13.6364 8.503 12.9764 8.503 12.2474C8.503 11.5184 8.669 10.8584 9.0015 10.2674C9.32337 9.68664 9.79777 9.2048 10.3735 8.87394C10.9555 8.53644 11.606 8.36694 12.324 8.36694C12.9315 8.36694 13.489 8.47944 13.9965 8.70444C14.4869 8.91676 14.9209 9.2407 15.264 9.65044C15.6003 10.0538 15.8329 10.5332 15.9415 11.0469H14.409C14.3117 10.7797 14.1592 10.5359 13.9615 10.3314C13.7598 10.1236 13.5158 9.96163 13.246 9.85644C12.9557 9.74365 12.6465 9.6873 12.335 9.69044C11.8915 9.69044 11.4915 9.80144 11.134 10.0229C10.7763 10.2451 10.4863 10.5611 10.2955 10.9364C10.0935 11.3244 9.9925 11.7609 9.9925 12.2464C9.9925 12.7329 10.0935 13.1694 10.2955 13.5569C10.4861 13.9326 10.7762 14.2487 11.134 14.4709C11.4915 14.6924 11.8915 14.8029 12.335 14.8029C12.6465 14.8063 12.9557 14.7499 13.246 14.6369C13.5135 14.5331 13.7558 14.3731 13.9563 14.1679C14.1569 13.9626 14.3113 13.7168 14.409 13.4469H15.9415C15.8328 13.9605 15.6002 14.4398 15.264 14.8429C14.9209 15.2527 14.4869 15.5766 13.9965 15.7889C13.489 16.0139 12.9315 16.1264 12.324 16.1264C11.606 16.1264 10.956 15.9579 10.3735 15.6199V15.6209ZM18.665 8.49594V14.6809H22.2235V15.9989H17.207V8.49594H18.665Z" fill="white"/>
</g>
<defs>
<linearGradient id="paint0_linear_4568_12009" x1="2.0335" y1="2.16339" x2="31.332" y2="31.4614" gradientUnits="userSpaceOnUse">
<stop offset="0.29" stop-color="#009AE5"/>
<stop offset="0.7" stop-color="#00D980"/>
</linearGradient>
<linearGradient id="paint1_linear_4568_12009" x1="28.1645" y1="-0.195499" x2="1.437" y2="12.1965" gradientUnits="userSpaceOnUse">
<stop offset="0.3" stop-color="#FF2D90"/>
<stop offset="0.54" stop-color="#009AE5"/>
</linearGradient>
<clipPath id="clip0_4568_12009">
<rect width="32" height="32" fill="white"/>
</clipPath>
</defs>
</svg>
