<svg width="32" height="32" viewBox="0 0 32 32" fill="none" xmlns="http://www.w3.org/2000/svg">
<g clip-path="url(#clip0_4568_11968)">
<path d="M8.22496 3H2.09546C1.82189 3.00003 1.55107 3.05449 1.29875 3.16019C1.04643 3.2659 0.817663 3.42075 0.625764 3.61572C0.433866 3.81069 0.282671 4.04188 0.180984 4.29585C0.0792966 4.54981 0.0291485 4.82147 0.0334592 5.095L0.121459 10.617C0.126129 10.9089 0.192725 11.1965 0.316845 11.4608C0.440965 11.7251 0.619778 11.96 0.841459 12.15L19.921 28.5035C20.2945 28.8235 20.771 29 21.263 29H26.938C27.4849 28.9999 28.0094 28.7825 28.396 28.3957C28.7827 28.009 29 27.4844 29 26.9375V21.436C29 20.841 28.743 20.2755 28.295 19.8835L9.58346 3.5105C9.20747 3.1813 8.7247 2.99988 8.22496 3Z" fill="#FF8100"/>
<path d="M7.494 3H2.0625C1.51549 3 0.990886 3.2173 0.604092 3.60409C0.217298 3.99089 0 4.51549 0 5.0625L0 11.3455C0 11.4455 0.007 11.5455 0.022 11.6445L2.746 30.237C2.81789 30.7268 3.06359 31.1745 3.43822 31.4982C3.81285 31.8218 4.29141 32 4.7865 32H12.4855C12.7564 32 13.0247 31.9466 13.275 31.8429C13.5253 31.7392 13.7527 31.5872 13.9443 31.3956C14.1358 31.2039 14.2877 30.9764 14.3913 30.7261C14.4949 30.4757 14.5481 30.2074 14.548 29.9365L14.545 20.685C14.545 20.472 14.512 20.2605 14.4475 20.058L9.4575 4.4355C9.32453 4.01905 9.06271 3.65561 8.7098 3.39761C8.3569 3.1396 7.93116 3.00037 7.494 3Z" fill="url(#paint0_linear_4568_11968)"/>
<path d="M29.938 1.67961e-10H12.874C12.4685 -5.17355e-06 12.0721 0.119515 11.7341 0.343618C11.3962 0.567721 11.1318 0.886464 10.974 1.26L3.07553 19.9715C2.966 20.2305 2.9107 20.5093 2.91303 20.7905L2.98803 29.955C2.99265 30.499 3.21198 31.0191 3.59828 31.4021C3.98457 31.7851 4.50654 32 5.05053 32H13.8835C14.2865 32 14.68 31.882 15.0165 31.661L31.0715 21.1065C31.357 20.9187 31.5913 20.6628 31.7534 20.362C31.9155 20.0611 32.0002 19.7247 32 19.383V2.0625C32 1.51558 31.7828 0.991048 31.3961 0.604269C31.0094 0.21749 30.485 0.000132587 29.938 1.67961e-10Z" fill="url(#paint1_linear_4568_11968)"/>
<path d="M26 6H6V26H26V6Z" fill="black"/>
<path d="M16.5 22.0001H8.5V23.5001H16.5V22.0001ZM8.5 14.6916H9.99V9.80409H8.5V8.49609H12.9215V9.80409H11.4315V14.6916H12.9215V16.0001H8.5V14.6921V14.6916ZM13.8215 14.6491H14.8985C15.101 14.6528 15.3012 14.6048 15.48 14.5096C15.65 14.4166 15.781 14.2856 15.874 14.1156C15.967 13.9456 16.0135 13.7521 16.0135 13.5341V8.49609H17.4765V13.6361C17.4765 14.0861 17.373 14.4906 17.1655 14.8496C16.9626 15.2043 16.6659 15.4963 16.308 15.6936C15.944 15.8976 15.535 15.9991 15.081 15.9991H13.8215V14.6491Z" fill="white"/>
</g>
<defs>
<linearGradient id="paint0_linear_4568_11968" x1="-0.1955" y1="3.8355" x2="12.196" y2="30.563" gradientUnits="userSpaceOnUse">
<stop offset="0.1" stop-color="#FC801D"/>
<stop offset="0.59" stop-color="#FE2857"/>
</linearGradient>
<linearGradient id="paint1_linear_4568_11968" x1="2.16253" y1="29.966" x2="31.4605" y2="0.668002" gradientUnits="userSpaceOnUse">
<stop offset="0.21" stop-color="#FE2857"/>
<stop offset="0.7" stop-color="#007EFF"/>
</linearGradient>
<clipPath id="clip0_4568_11968">
<rect width="32" height="32" fill="white"/>
</clipPath>
</defs>
</svg>
