<svg width="32" height="32" viewBox="0 0 32 32" fill="none" xmlns="http://www.w3.org/2000/svg">
<g clip-path="url(#clip0_4573_12561)">
<path d="M29 8.22301V2.09351C29 1.81994 28.9455 1.54911 28.8398 1.2968C28.7341 1.04448 28.5793 0.81571 28.3843 0.623811C28.1893 0.431913 27.9581 0.280718 27.7042 0.179031C27.4502 0.0773435 27.1785 0.0271954 26.905 0.0315061L21.3825 0.119506C21.0906 0.124308 20.8031 0.191017 20.5389 0.315221C20.2747 0.439426 20.0399 0.618296 19.85 0.840006L3.4965 19.9185C3.17624 20.2925 3.00015 20.7686 3 21.261V26.936C3.00013 27.4829 3.21749 28.0074 3.60427 28.3941C3.99105 28.7808 4.51558 28.998 5.0625 28.998H10.564C11.159 28.998 11.7245 28.741 12.116 28.2935L28.49 9.58101C28.8189 9.20505 29.0001 8.7225 29 8.22301Z" fill="#D249FC"/>
<path d="M29 7.494V2.0625C29 1.51549 28.7827 0.990886 28.3959 0.604092C28.0091 0.217298 27.4845 0 26.9375 0L20.6545 0C20.5545 0 20.4545 0.007 20.3555 0.022L1.7635 2.746C1.27356 2.81778 0.825807 3.06343 0.502025 3.43807C0.178244 3.81271 5.08847e-05 4.29133 0 4.7865L0 12.4855C-7.96014e-09 12.7564 0.0533647 13.0246 0.157046 13.2749C0.260728 13.5252 0.412695 13.7526 0.604269 13.9441C0.795843 14.1356 1.02327 14.2875 1.27356 14.3911C1.52385 14.4948 1.79211 14.5481 2.063 14.548L11.3155 14.5455C11.5281 14.5454 11.7394 14.5126 11.942 14.448L27.565 9.458C27.9814 9.32492 28.3448 9.06298 28.6027 8.70998C28.8607 8.35699 28.9998 7.93118 29 7.494Z" fill="url(#paint0_linear_4573_12561)"/>
<path d="M32 29.9389V12.8749C32 12.4694 31.8805 12.0729 31.6564 11.735C31.4323 11.397 31.1135 11.1327 30.74 10.9749L12.0285 3.07639C11.7695 2.96686 11.4907 2.91155 11.2095 2.91389L2.045 2.98889C1.50099 2.99337 0.980792 3.21267 0.597747 3.59899C0.214702 3.98531 -0.000150328 4.50736 7.89162e-08 5.05139V13.8839C7.89162e-08 14.2869 0.118 14.6804 0.339 15.0174L10.8935 31.0719C11.0812 31.3575 11.337 31.592 11.6379 31.7543C11.9387 31.9165 12.2752 32.0014 12.617 32.0014H29.9375C30.4845 32.0014 31.0091 31.7841 31.3959 31.3973C31.7827 31.0105 32 30.4859 32 29.9389Z" fill="url(#paint1_linear_4573_12561)"/>
<path d="M26 6H6V26H26V6Z" fill="black"/>
<path d="M16.5 21.9999H8.49997V23.4999H16.5V21.9999ZM8.49647 8.49594H11.7175C12.246 8.49594 12.7095 8.59244 13.1075 8.78544C13.5065 8.97844 13.8135 9.24994 14.03 9.60044C14.246 9.95044 14.354 10.3554 14.354 10.8164C14.354 11.2774 14.244 11.6959 14.0245 12.0494C13.8045 12.4034 13.493 12.6774 13.0895 12.8724C12.6855 13.0674 12.214 13.1644 11.6745 13.1644H9.95947V15.9999H8.49597V8.49644L8.49647 8.49594ZM12.2665 11.8109C12.451 11.7199 12.5925 11.5894 12.6925 11.4199C12.7925 11.2499 12.8425 11.0509 12.8425 10.8224C12.8425 10.5939 12.7925 10.4014 12.6925 10.2354C12.5925 10.0689 12.4505 9.94044 12.2665 9.84944C12.0825 9.75844 11.8675 9.71294 11.621 9.71294H9.95947V11.9479H11.621C11.8675 11.9479 12.0825 11.9019 12.2665 11.8109ZM16.286 15.8319C15.866 15.6354 15.5375 15.3604 15.3 15.0069C15.0625 14.6529 14.94 14.2459 14.9325 13.7849H16.401C16.401 14.0029 16.458 14.1939 16.5725 14.3584C16.687 14.5229 16.846 14.6514 17.0495 14.7444C17.253 14.8369 17.487 14.8834 17.7515 14.8834C18.0165 14.8834 18.2275 14.8419 18.419 14.7579C18.61 14.6739 18.758 14.5569 18.864 14.4069C18.97 14.2569 19.0215 14.0854 19.0215 13.8924C19.0215 13.6529 18.949 13.4549 18.8045 13.2974C18.6595 13.1404 18.4605 13.0314 18.207 12.9704L16.8835 12.6754C16.526 12.5974 16.215 12.4624 15.9505 12.2709C15.6918 12.0864 15.4807 11.843 15.3345 11.5609C15.188 11.2789 15.1145 10.9609 15.1145 10.6069C15.1145 10.1784 15.2255 9.79344 15.447 9.45194C15.6685 9.11094 15.9775 8.84444 16.374 8.65344C16.771 8.46244 17.221 8.36694 17.725 8.36694C18.229 8.36694 18.6915 8.45994 19.0915 8.64594C19.4915 8.83194 19.8035 9.08994 20.0265 9.42044C20.25 9.75044 20.3635 10.1304 20.367 10.5589H18.904C18.904 10.3769 18.856 10.2134 18.759 10.0689C18.6572 9.91963 18.515 9.80239 18.349 9.73094C18.1573 9.64782 17.9499 9.6069 17.741 9.61094C17.512 9.61094 17.311 9.64894 17.138 9.72594C16.9759 9.79365 16.8357 9.90493 16.733 10.0474C16.6355 10.1883 16.5849 10.3562 16.5885 10.5274C16.5885 10.7344 16.6555 10.9059 16.7895 11.0414C16.9235 11.1774 17.1065 11.2734 17.339 11.3309L18.6145 11.6094C18.9825 11.6844 19.3105 11.8269 19.598 12.0354C19.8791 12.237 20.1094 12.5013 20.2705 12.8074C20.431 13.1129 20.5115 13.4464 20.5115 13.8069C20.5115 14.2499 20.3945 14.6474 20.161 14.9994C19.9265 15.3509 19.599 15.6269 19.1775 15.8274C18.756 16.0274 18.2735 16.1274 17.73 16.1274C17.187 16.1274 16.705 16.0289 16.286 15.8324V15.8319Z" fill="white"/>
</g>
<defs>
<linearGradient id="paint0_linear_4573_12561" x1="28.1645" y1="-0.195499" x2="1.437" y2="12.196" gradientUnits="userSpaceOnUse">
<stop offset="0.16" stop-color="#D249FC"/>
<stop offset="0.55" stop-color="#FF2D90"/>
</linearGradient>
<linearGradient id="paint1_linear_4573_12561" x1="2.0335" y1="2.16289" x2="31.332" y2="31.4614" gradientUnits="userSpaceOnUse">
<stop offset="0.3" stop-color="#FF2D90"/>
<stop offset="0.7" stop-color="#7256FF"/>
</linearGradient>
<clipPath id="clip0_4573_12561">
<rect width="32" height="32" fill="white"/>
</clipPath>
</defs>
</svg>
