<svg width="32" height="32" viewBox="0 0 32 32" fill="none" xmlns="http://www.w3.org/2000/svg">
<g clip-path="url(#clip0_4568_12025)">
<path d="M3 23.775V29.904C3.00003 30.1776 3.05449 30.4484 3.16019 30.7007C3.2659 30.953 3.42075 31.1818 3.61572 31.3737C3.81068 31.5656 4.04188 31.7168 4.29585 31.8185C4.54981 31.9202 4.82147 31.9703 5.095 31.966L10.617 31.878C10.9089 31.8734 11.1966 31.8068 11.4608 31.6827C11.7251 31.5585 11.96 31.3797 12.15 31.158L28.5035 12.079C28.8235 11.7055 29 11.229 29 10.737V5.0625C29 4.79165 28.9467 4.52345 28.843 4.27322C28.7394 4.02298 28.5874 3.79561 28.3959 3.60409C28.2044 3.41257 27.977 3.26065 27.7268 3.157C27.4765 3.05335 27.2084 3 26.9375 3H21.436C20.841 3 20.2755 3.257 19.8835 3.7045L3.5105 22.4165C3.18134 22.7925 2.99993 23.2753 3 23.775Z" fill="#F0EB18"/>
<path d="M3 24.5074V29.9384C3 30.4854 3.2173 31.01 3.60409 31.3968C3.99089 31.7836 4.51549 32.0009 5.0625 32.0009H11.3455C11.4455 32.0009 11.5455 31.9939 11.6445 31.9789L30.237 29.2549C30.7268 29.183 31.1745 28.9373 31.4982 28.5627C31.8218 28.188 32 27.7095 32 27.2144V19.5149C32 19.244 31.9466 18.9757 31.8429 18.7254C31.7392 18.4751 31.5872 18.2477 31.3956 18.0561C31.2039 17.8646 30.9764 17.7127 30.7261 17.6091C30.4757 17.5055 30.2074 17.4523 29.9365 17.4524L20.6845 17.4549C20.4715 17.4549 20.26 17.4879 20.0575 17.5524L4.4355 22.5424C4.01881 22.6754 3.65519 22.9375 3.39717 23.2907C3.13914 23.6439 3.00005 24.07 3 24.5074Z" fill="url(#paint0_linear_4568_12025)"/>
<path d="M0 2.0625V19.126C0 19.9555 0.4965 20.7035 1.26 21.026L19.9715 28.925C20.2305 29.0345 20.509 29.09 20.7905 29.087L29.955 29.012C30.4989 29.0074 31.0189 28.7881 31.4019 28.4019C31.7849 28.0157 31.9999 27.4939 32 26.95V18.117C32 17.714 31.882 17.3205 31.661 16.9835L21.1065 0.93C20.9188 0.644296 20.663 0.409727 20.3622 0.247391C20.0613 0.0850555 19.7248 4.31658e-05 19.383 0L2.0625 0C1.51549 0 0.990886 0.217298 0.604092 0.604092C0.217298 0.990886 0 1.51549 0 2.0625Z" fill="url(#paint1_linear_4568_12025)"/>
<path d="M26 6H6V26H26V6Z" fill="black"/>
<path d="M16.5 21.9999H8.50004V23.4999H16.5V21.9999ZM9.52555 8.49594L10.737 13.9734L12.0285 8.49594H13.5075L14.858 13.9734L16.032 8.49594H17.517L15.6945 15.9989H14.0275L12.7625 10.5489L11.482 15.9989H9.82004L8.00854 8.49594H9.52504H9.52555ZM19.331 15.8319C18.911 15.6354 18.5825 15.3604 18.345 15.0069C18.1075 14.6529 17.985 14.2459 17.9775 13.7849H19.446C19.446 14.0029 19.503 14.1939 19.6175 14.3584C19.732 14.5229 19.891 14.6514 20.0945 14.7444C20.298 14.8369 20.532 14.8834 20.7965 14.8834C21.0615 14.8834 21.2725 14.8419 21.464 14.7579C21.655 14.6739 21.803 14.5569 21.9085 14.4069C22.0135 14.2569 22.0665 14.0854 22.0665 13.8924C22.0665 13.6529 21.994 13.4549 21.8495 13.2974C21.7045 13.1404 21.5055 13.0314 21.252 12.9704L19.928 12.6754C19.5925 12.6068 19.2749 12.469 18.9955 12.2709C18.7369 12.0864 18.5258 11.843 18.3795 11.5609C18.233 11.2789 18.1595 10.9609 18.1595 10.6069C18.1595 10.1784 18.2705 9.79344 18.492 9.45194C18.7135 9.11094 19.0225 8.84444 19.419 8.65344C19.8155 8.46244 20.266 8.36694 20.7695 8.36694C21.2735 8.36694 21.7365 8.45994 22.1365 8.64594C22.5365 8.83194 22.848 9.08994 23.0715 9.42044C23.295 9.75044 23.408 10.1304 23.4115 10.5589H21.949C21.949 10.3769 21.9005 10.2134 21.804 10.0689C21.7075 9.92444 21.571 9.81144 21.394 9.73094C21.2022 9.64775 20.9946 9.60682 20.7855 9.61094C20.557 9.61094 20.356 9.64894 20.183 9.72594C20.021 9.79367 19.8808 9.90495 19.778 10.0474C19.6806 10.1883 19.63 10.3562 19.6335 10.5274C19.6335 10.7344 19.7005 10.9059 19.8345 11.0414C19.9685 11.1774 20.1515 11.2734 20.384 11.3309L21.659 11.6094C22.0275 11.6844 22.355 11.8269 22.643 12.0354C22.9242 12.237 23.1544 12.5013 23.3155 12.8074C23.4769 13.1157 23.5596 13.459 23.5565 13.8069C23.5565 14.2499 23.4395 14.6474 23.2055 14.9994C22.9715 15.3509 22.644 15.6269 22.2225 15.8274C21.8005 16.0274 21.318 16.1274 20.7755 16.1274C20.2325 16.1274 19.7505 16.0289 19.331 15.8324V15.8319Z" fill="white"/>
</g>
<defs>
<linearGradient id="paint0_linear_4568_12025" x1="3.8355" y1="32.1959" x2="30.563" y2="19.8044" gradientUnits="userSpaceOnUse">
<stop offset="0.22" stop-color="#F0EB18"/>
<stop offset="0.59" stop-color="#00C4F4"/>
</linearGradient>
<linearGradient id="paint1_linear_4568_12025" x1="29.966" y1="29.838" x2="0.668499" y2="0.539501" gradientUnits="userSpaceOnUse">
<stop offset="0.19" stop-color="#00C4F4"/>
<stop offset="0.83" stop-color="#007DFE"/>
</linearGradient>
<clipPath id="clip0_4568_12025">
<rect width="32" height="32" fill="white"/>
</clipPath>
</defs>
</svg>
