<svg width="78" height="78" viewBox="0 0 78 78" fill="none" xmlns="http://www.w3.org/2000/svg">
<g clip-path="url(#clip0_1172_18725)">
<rect width="78" height="78" fill="url(#paint0_linear_1172_18725)"/>
<path fill-rule="evenodd" clip-rule="evenodd" d="M30.3611 47.639C30.3281 47.6056 30.295 47.5722 30.2617 47.5389C28.2185 45.4956 25.7827 44.0841 23.1971 43.3042L23.1926 43.3027C22.6012 43.113 22.0001 42.9547 21.3919 42.8286L20.9102 42.7169C19.6234 42.4152 18.3299 42.0459 17.4511 41.1567C15.9811 39.6755 16.7512 37.3263 17.4999 35.5873L17.9141 34.6575L18.2598 33.9369C18.9933 32.4658 20.0137 30.8934 21.5531 30.4578C22.5441 30.1783 23.5601 30.2201 24.5776 30.262L25.239 30.2883C25.6816 30.2997 26.1241 30.2993 26.5623 30.2571C32.2225 22.1463 39.5002 18.9393 45.5913 17.9795C48.6776 17.4927 51.4539 17.5823 53.5723 17.8854L54.4708 18.02C55.8674 18.2477 57.431 18.6252 58.3886 19.5939L58.3974 19.6027L58.4062 19.6114C59.3749 20.5691 59.7524 22.1327 59.9801 23.5293L60.1146 24.4278C60.4178 26.5462 60.5074 29.3224 60.0206 32.4088C59.0608 38.4999 55.8538 45.7776 47.743 51.4378C47.7007 51.8759 47.7004 52.3185 47.7118 52.7611L47.7381 53.4233C47.78 54.4408 47.8218 55.4559 47.5422 56.4469C47.1067 57.9863 45.5343 59.0068 44.0632 59.7403L43.3426 60.086L42.4128 60.5002C40.6738 61.2489 38.3246 62.019 36.8434 60.5489C35.9542 59.6702 35.5849 58.3767 35.2832 57.0899L35.1715 56.6082C35.0454 56 34.8871 55.3989 34.6974 54.8074L34.6959 54.803C33.916 52.2174 32.5045 49.7816 30.4612 47.7383C30.4279 47.7051 30.3945 47.672 30.3611 47.639ZM46.8173 31.0833C46.8338 31.0999 46.8502 31.1167 46.8665 31.1336C46.8752 31.1421 46.884 31.1505 46.8927 31.159C46.9007 31.1669 46.9088 31.1748 46.9168 31.1828C47.7943 32.0526 48.2904 33.2355 48.2958 34.4711C48.3012 35.7067 47.8156 36.8938 46.9457 37.7714C46.0758 38.6489 44.893 39.1449 43.6574 39.1504C42.4218 39.1558 41.2347 38.6701 40.3571 37.8003C40.3308 37.7741 40.3047 37.7477 40.2791 37.721C40.2524 37.6953 40.2259 37.6693 40.1998 37.643C39.33 36.7654 38.8443 35.5783 38.8497 34.3427C38.8552 33.1071 39.3512 31.9243 40.2287 31.0544C41.1063 30.1845 42.2934 29.6989 43.529 29.7043C44.7646 29.7097 45.9474 30.2058 46.8173 31.0833ZM19.7336 60.8987C23.0033 59.5729 27.2365 57.7217 28.3477 56.6105C30.2248 54.7333 30.2248 51.6898 28.3477 49.8126C26.4705 47.9354 23.427 47.9354 21.5498 49.8126C20.4386 50.9238 18.5874 55.157 17.2616 58.4267C16.6196 60.01 18.1503 61.5406 19.7336 60.8987Z" fill="url(#paint1_linear_1172_18725)"/>
<circle cx="43.4963" cy="34.5035" r="4.66225" transform="rotate(75 43.4963 34.5035)" fill="url(#paint2_linear_1172_18725)"/>
</g>
<defs>
<linearGradient id="paint0_linear_1172_18725" x1="78" y1="0" x2="0" y2="78" gradientUnits="userSpaceOnUse">
<stop stop-color="#A5B2F2"/>
<stop offset="1" stop-color="#546DEB"/>
</linearGradient>
<linearGradient id="paint1_linear_1172_18725" x1="58.3972" y1="19.6029" x2="27.1469" y2="50.8531" gradientUnits="userSpaceOnUse">
<stop stop-color="white"/>
<stop offset="1" stop-color="white" stop-opacity="0.8"/>
</linearGradient>
<linearGradient id="paint2_linear_1172_18725" x1="38.834" y1="34.5035" x2="48.1585" y2="34.5035" gradientUnits="userSpaceOnUse">
<stop stop-color="#2D3351"/>
<stop offset="1" stop-color="#808BC5"/>
</linearGradient>
<clipPath id="clip0_1172_18725">
<rect width="78" height="78" fill="white"/>
</clipPath>
</defs>
</svg>
