<svg width="48" height="49" viewBox="0 0 48 49" fill="none" xmlns="http://www.w3.org/2000/svg">
<path d="M35.6403 14.7956C35.5204 14.395 35.3799 14 35.2193 13.6123C34.5992 12.1151 33.6902 10.7548 32.5444 9.60896C31.3986 8.46312 30.0382 7.55418 28.5411 6.93405C27.044 6.31393 25.4394 5.99475 23.8189 5.99475C22.1984 5.99475 20.5938 6.31393 19.0967 6.93405C17.5996 7.55418 16.2393 8.46312 15.0934 9.60897C13.9476 10.7548 13.0386 12.1151 12.4185 13.6123C12.2594 13.9964 12.1201 14.3877 12.0009 14.7845C11.8836 14.7795 11.7657 14.777 11.6472 14.777C7.10206 14.777 3.41748 18.4616 3.41748 23.0068C3.41748 27.5519 7.10206 31.2365 11.6472 31.2365C11.7588 31.2365 11.8699 31.2343 11.9804 31.2299V27.8208C11.9804 25.6117 13.7713 23.8208 15.9804 23.8208H32.0194C34.2286 23.8208 36.0194 25.6117 36.0194 27.8208V31.2156C36.1304 31.22 36.2418 31.2223 36.3539 31.2223C40.8984 31.2223 44.5824 27.5382 44.5824 22.9937C44.5824 18.4492 40.8984 14.7651 36.3539 14.7651C36.1135 14.7651 35.8755 14.7754 35.6403 14.7956Z" fill="url(#paint0_linear_5604_8171)"/>
<path d="M14.0456 37.1224C14.0456 36.0178 14.941 35.1224 16.0456 35.1224H31.9543C33.0589 35.1224 33.9543 36.0178 33.9543 37.1224V40.1224C33.9543 41.227 33.0589 42.1224 31.9543 42.1224H16.0456C14.941 42.1224 14.0456 41.227 14.0456 40.1224V37.1224Z" fill="url(#paint1_linear_5604_8171)"/>
<path d="M16.0456 26.2062C14.941 26.2062 14.0456 27.1016 14.0456 28.2062V31.2062C14.0456 32.3107 14.941 33.2062 16.0456 33.2062H31.9543C33.0589 33.2062 33.9543 32.3107 33.9543 31.2062V28.2062C33.9543 27.1016 33.0589 26.2062 31.9543 26.2062H16.0456Z" fill="url(#paint2_linear_5604_8171)"/>
<path fill-rule="evenodd" clip-rule="evenodd" d="M33.7658 32.0548C33.8855 31.7999 33.9529 31.5155 33.9543 31.2156C33.9543 31.2125 33.9543 31.2093 33.9543 31.2062V28.2062C33.9543 28.0744 33.9415 27.9455 33.9172 27.8208C33.7416 26.9213 32.963 26.2374 32.0194 26.2072C31.9978 26.2065 31.9761 26.2062 31.9543 26.2062H16.0456C16.0238 26.2062 16.0021 26.2065 15.9804 26.2072C15.0368 26.2374 14.2583 26.9213 14.0827 27.8208C14.0583 27.9455 14.0456 28.0744 14.0456 28.2062V31.2062C14.0456 31.2141 14.0456 31.222 14.0457 31.2299C14.0492 31.5246 14.1163 31.8039 14.2341 32.0548C14.4574 32.5308 14.8628 32.9043 15.3606 33.0858C15.5743 33.1637 15.805 33.2062 16.0456 33.2062H31.9543C32.1949 33.2062 32.4256 33.1637 32.6393 33.0858C33.137 32.9044 33.5425 32.5308 33.7658 32.0548ZM14.2341 36.2738C14.1132 36.5314 14.0456 36.819 14.0456 37.1224V40.1224C14.0456 41.227 14.941 42.1224 16.0456 42.1224H31.9543C33.0589 42.1224 33.9543 41.227 33.9543 40.1224V37.1224C33.9543 36.819 33.8867 36.5314 33.7658 36.2738C33.4466 35.5935 32.7555 35.1224 31.9543 35.1224H16.0456C15.2444 35.1224 14.5533 35.5935 14.2341 36.2738Z" fill="url(#paint3_linear_5604_8171)"/>
<defs>
<linearGradient id="paint0_linear_5604_8171" x1="6.53066" y1="42.1224" x2="44.5824" y2="7.74482" gradientUnits="userSpaceOnUse">
<stop stop-color="#0086D2"/>
<stop offset="1" stop-color="#36ACDF"/>
</linearGradient>
<linearGradient id="paint1_linear_5604_8171" x1="6.53066" y1="42.1224" x2="44.5824" y2="7.74482" gradientUnits="userSpaceOnUse">
<stop stop-color="#0086D2"/>
<stop offset="1" stop-color="#36ACDF"/>
</linearGradient>
<linearGradient id="paint2_linear_5604_8171" x1="6.53066" y1="42.1224" x2="44.5824" y2="7.74482" gradientUnits="userSpaceOnUse">
<stop stop-color="#0086D2"/>
<stop offset="1" stop-color="#36ACDF"/>
</linearGradient>
<linearGradient id="paint3_linear_5604_8171" x1="6.53066" y1="42.1224" x2="44.5824" y2="7.74482" gradientUnits="userSpaceOnUse">
<stop stop-color="#0086D2"/>
<stop offset="1" stop-color="#36ACDF"/>
</linearGradient>
</defs>
</svg>
