<svg width="1440" height="791" viewBox="0 0 1440 791" fill="none" xmlns="http://www.w3.org/2000/svg">
<g clip-path="url(#clip0_397_5255)">
<rect width="1440" height="791" fill="url(#paint0_linear_397_5255)"/>
<mask id="mask0_397_5255" style="mask-type:alpha" maskUnits="userSpaceOnUse" x="-1798" y="0" width="5035" height="2449">
<rect x="-1797" width="5034" height="2449" fill="#D9D9D9"/>
</mask>
<g mask="url(#mask0_397_5255)">
<g filter="url(#filter0_f_397_5255)">
<circle cx="719.749" cy="-203.492" r="500.75" fill="url(#paint1_radial_397_5255)" fill-opacity="0.85"/>
</g>
<circle cx="719.749" cy="-205.316" r="383.087" fill="#F8F9FF" fill-opacity="0.05"/>
<circle cx="719.75" cy="-203.492" r="362.109" fill="#F8F9FF" fill-opacity="0.05"/>
<circle cx="720.206" cy="-206.685" r="341.586" fill="#F8F9FF" fill-opacity="0.1"/>
<circle cx="720.206" cy="-204.86" r="312.399" fill="#F8F9FF" fill-opacity="0.6"/>
</g>
<path fill-rule="evenodd" clip-rule="evenodd" d="M128.238 545.226L232.268 521.075L126.893 539.358L126.895 539.369C125.625 539.603 124.603 540.646 124.454 541.996C124.271 543.647 125.461 545.132 127.111 545.315C127.501 545.358 127.882 545.324 128.238 545.226Z" fill="url(#paint2_linear_397_5255)" fill-opacity="0.3"/>
<path fill-rule="evenodd" clip-rule="evenodd" d="M1287.47 425.226L1391.5 401.075L1286.13 419.358L1286.13 419.369C1284.86 419.604 1283.84 420.646 1283.69 421.996C1283.5 423.647 1284.69 425.133 1286.34 425.315C1286.73 425.358 1287.11 425.325 1287.47 425.226Z" fill="url(#paint3_linear_397_5255)" fill-opacity="0.3"/>
<g filter="url(#filter1_f_397_5255)">
<circle cx="1294.93" cy="245.113" r="1.61304" fill="white" fill-opacity="0.7"/>
</g>
<g filter="url(#filter2_f_397_5255)">
<circle cx="1278.33" cy="257.611" r="1.11053" fill="white" fill-opacity="0.7"/>
</g>
<g filter="url(#filter3_f_397_5255)">
<circle cx="169.624" cy="186.731" r="1.3764" fill="white" fill-opacity="0.7"/>
</g>
<g filter="url(#filter4_d_397_5255)">
<path d="M114.425 44.2081C114.342 43.9435 114.24 43.6852 114.12 43.4352V43.4191C113.56 42.2759 112.632 41.356 111.486 40.8087C110.339 40.2614 109.042 40.1188 107.805 40.404C106.568 40.6892 105.463 41.3855 104.67 42.38C103.877 43.3745 103.441 44.6088 103.435 45.8827C103.435 46.2833 103.478 46.6828 103.563 47.0742C103.563 47.0796 103.563 47.0849 103.563 47.0903C103.595 47.2513 103.643 47.4123 103.691 47.5734C103.978 48.7076 104.034 49.8882 103.855 51.0445C103.677 52.2009 103.268 53.3094 102.654 54.3038C102.039 55.2982 101.232 56.1582 100.279 56.8324C99.3257 57.5066 98.2472 57.9813 97.1075 58.228C95.9677 58.4747 94.7901 58.4885 93.645 58.2684C92.4998 58.0484 91.4106 57.5991 90.4423 56.9473C89.4739 56.2955 88.6464 55.4546 88.009 54.4748C87.3716 53.495 86.9374 52.3964 86.7324 51.2445C87.0223 53.2412 87.7268 55.1546 88.8003 56.8607C89.8738 58.5668 91.2924 60.0277 92.9641 61.1488C94.6359 62.2698 96.5236 63.026 98.505 63.3685C100.486 63.711 102.518 63.632 104.467 63.1367C106.416 62.6415 108.24 61.741 109.82 60.4935C111.4 59.2461 112.702 57.6794 113.641 55.8951C114.579 54.1107 115.134 52.1484 115.269 50.1352C115.405 48.122 115.117 46.1027 114.425 44.2081V44.2081Z" fill="#6378FF"/>
<path d="M91.626 49.0549C93.4871 51.7761 97.3378 51.5346 97.3378 51.5346C96.3751 50.6007 95.7494 49.7473 95.6852 47.316C95.6211 44.8846 94.2412 44.2405 94.2412 44.2405C96.7121 42.6787 95.8296 40.988 95.7494 39.1041C95.7013 37.9287 96.3912 37.0592 96.9367 36.5601C93.7969 37.0321 90.9598 38.702 89.0169 41.2219C87.074 43.7417 86.1751 46.9169 86.5078 50.0855C86.7324 49.4575 89.9092 46.5431 91.626 49.0549Z" fill="#0AA3F9"/>
<path d="M114.425 44.2081C114.342 43.9435 114.24 43.6852 114.12 43.4352V43.4191C113.56 42.2759 112.632 41.356 111.486 40.8087C110.339 40.2614 109.042 40.1188 107.805 40.404C106.568 40.6892 105.463 41.3855 104.67 42.38C103.877 43.3745 103.441 44.6088 103.435 45.8827C103.435 46.2833 103.478 46.6828 103.563 47.0742C103.563 47.0796 103.563 47.0849 103.563 47.0903C103.595 47.2513 103.643 47.4123 103.691 47.5734C103.978 48.7076 104.034 49.8882 103.855 51.0445C103.677 52.2009 103.268 53.3094 102.654 54.3038C102.039 55.2982 101.232 56.1582 100.279 56.8324C99.3257 57.5066 98.2472 57.9813 97.1075 58.228C95.9677 58.4747 94.7901 58.4885 93.645 58.2684C92.4998 58.0484 91.4106 57.5991 90.4423 56.9473C89.4739 56.2955 88.6464 55.4546 88.009 54.4748C87.3716 53.495 86.9374 52.3964 86.7324 51.2445C87.0223 53.2412 87.7268 55.1546 88.8003 56.8607C89.8738 58.5668 91.2924 60.0277 92.9641 61.1488C94.6359 62.2698 96.5236 63.026 98.505 63.3685C100.486 63.711 102.518 63.632 104.467 63.1367C106.416 62.6415 108.24 61.741 109.82 60.4935C111.4 59.2461 112.702 57.6794 113.641 55.8951C114.579 54.1107 115.134 52.1484 115.269 50.1352C115.405 48.122 115.117 46.1027 114.425 44.2081V44.2081Z" fill="#0AA3F9"/>
<path fill-rule="evenodd" clip-rule="evenodd" d="M112.035 48.089C112.035 55.1053 106.367 60.7932 99.3755 60.7932C95.6646 60.7932 92.3267 59.1908 90.0112 56.6378C90.1516 56.7453 90.2953 56.8486 90.4423 56.9475C91.4106 57.5993 92.4998 58.0486 93.645 58.2687C94.7902 58.4887 95.9678 58.4749 97.1075 58.2282C98.2472 57.9815 99.3258 57.5069 100.279 56.8326C101.232 56.1584 102.039 55.2984 102.654 54.304C103.268 53.3096 103.677 52.2011 103.855 51.0448C104.034 49.8884 103.978 48.7079 103.691 47.5736C103.643 47.4126 103.595 47.2516 103.563 47.0906C103.563 47.0852 103.563 47.0798 103.563 47.0745C103.478 46.683 103.435 46.2836 103.435 45.8829C103.441 44.609 103.877 43.3747 104.67 42.3803C105.463 41.3858 106.568 40.6895 107.805 40.4042C108.316 40.2866 108.836 40.2417 109.352 40.268C111.033 42.4243 112.035 45.1392 112.035 48.089Z" fill="#7ABBFD"/>
</g>
<path d="M140.416 46.72C140.16 45.36 139.2 44.68 137.536 44.68C136.72 44.68 136.08 44.848 135.616 45.184C135.168 45.504 134.944 45.896 134.944 46.36C134.944 46.824 135.088 47.192 135.376 47.464C135.68 47.72 136.144 47.96 136.768 48.184L140.152 49.504C141.304 49.952 142.192 50.52 142.816 51.208C143.44 51.88 143.752 52.728 143.752 53.752C143.752 55.16 143.224 56.28 142.168 57.112C141.112 57.928 139.608 58.336 137.656 58.336C135.928 58.336 134.528 57.912 133.456 57.064C132.256 56.136 131.624 54.824 131.56 53.128H134.368C134.368 54.408 135.032 55.216 136.36 55.552C136.76 55.664 137.288 55.72 137.944 55.72C138.6 55.72 139.208 55.56 139.768 55.24C140.328 54.904 140.608 54.464 140.608 53.92C140.608 53.36 140.456 52.936 140.152 52.648C139.848 52.344 139.352 52.064 138.664 51.808L135.568 50.584C134.368 50.12 133.448 49.576 132.808 48.952C132.168 48.328 131.848 47.464 131.848 46.36C131.848 45.064 132.352 44.04 133.36 43.288C134.384 42.504 135.768 42.112 137.512 42.112C139.272 42.112 140.624 42.52 141.568 43.336C142.528 44.136 143.08 45.264 143.224 46.72H140.416ZM151.569 48.28C150.769 48.28 150.145 48.544 149.697 49.072C149.249 49.584 148.985 50.248 148.905 51.064H153.873C153.873 49.8 153.465 48.952 152.649 48.52C152.361 48.36 152.001 48.28 151.569 48.28ZM155.289 47.728C155.705 48.24 156.009 48.832 156.201 49.504C156.409 50.176 156.513 50.792 156.513 51.352C156.513 51.912 156.481 52.416 156.417 52.864H148.881C148.913 53.808 149.145 54.576 149.577 55.168C150.009 55.76 150.665 56.056 151.545 56.056C152.713 56.056 153.409 55.544 153.633 54.52H156.489C156.281 55.688 155.745 56.608 154.881 57.28C153.969 57.984 152.857 58.336 151.545 58.336C150.009 58.336 148.721 57.776 147.681 56.656C146.609 55.488 146.073 53.992 146.073 52.168C146.073 50.296 146.609 48.792 147.681 47.656C148.689 46.568 149.977 46.024 151.545 46.024C153.161 46.024 154.409 46.592 155.289 47.728ZM166.921 53.44C165.977 53.184 165.097 53.056 164.281 53.056C162.745 53.056 161.977 53.568 161.977 54.592C161.977 55.024 162.153 55.4 162.505 55.72C162.857 56.024 163.417 56.176 164.185 56.176C164.969 56.176 165.609 55.92 166.105 55.408C166.617 54.88 166.889 54.224 166.921 53.44ZM163.705 51.184C164.633 51.184 165.705 51.336 166.921 51.64V50.488C166.921 49.672 166.753 49.072 166.417 48.688C166.097 48.288 165.561 48.088 164.809 48.088C164.073 48.088 163.505 48.24 163.105 48.544C162.705 48.832 162.505 49.248 162.505 49.792H159.409C159.409 48.464 159.873 47.504 160.801 46.912C161.745 46.32 163.057 46.024 164.737 46.024C167.137 46.024 168.689 46.864 169.393 48.544C169.633 49.12 169.753 49.8 169.753 50.584V58H167.281L167.065 56.44C166.313 57.704 165.161 58.336 163.609 58.336C162.105 58.336 160.937 57.968 160.105 57.232C159.337 56.528 158.953 55.64 158.953 54.568C158.953 53.48 159.377 52.648 160.225 52.072C161.073 51.48 162.233 51.184 163.705 51.184ZM173.88 41.536H176.712V58H173.88V41.536ZM188.562 52.168C188.562 50.936 188.322 50.016 187.842 49.408C187.362 48.784 186.69 48.472 185.826 48.472C184.978 48.472 184.282 48.784 183.738 49.408C183.194 50.016 182.922 50.936 182.922 52.168C182.922 53.4 183.162 54.328 183.642 54.952C184.138 55.56 184.81 55.864 185.658 55.864C186.506 55.864 187.202 55.56 187.746 54.952C188.29 54.328 188.562 53.4 188.562 52.168ZM185.754 46.024C186.538 46.024 187.274 46.152 187.962 46.408C188.65 46.648 189.242 47.024 189.738 47.536C190.842 48.656 191.394 50.208 191.394 52.192C191.394 54.144 190.842 55.68 189.738 56.8C188.746 57.824 187.418 58.336 185.754 58.336C184.09 58.336 182.746 57.824 181.722 56.8C180.618 55.696 180.066 54.16 180.066 52.192C180.066 50.192 180.618 48.64 181.722 47.536C182.73 46.528 184.074 46.024 185.754 46.024ZM196.347 54.448C196.379 55.552 197.187 56.104 198.771 56.104C199.379 56.104 199.875 55.976 200.259 55.72C200.659 55.448 200.859 55.136 200.859 54.784C200.859 54.432 200.739 54.16 200.499 53.968C200.259 53.776 199.883 53.6 199.371 53.44L196.827 52.528C194.939 51.872 193.995 50.8 193.995 49.312C193.995 48.32 194.435 47.528 195.315 46.936C196.211 46.328 197.403 46.024 198.891 46.024C200.395 46.024 201.547 46.352 202.347 47.008C203.163 47.664 203.587 48.488 203.619 49.48H200.955C200.923 49.096 200.739 48.792 200.403 48.568C200.067 48.344 199.587 48.232 198.963 48.232C198.339 48.232 197.851 48.36 197.499 48.616C197.163 48.856 196.995 49.136 196.995 49.456C196.995 50.016 197.467 50.432 198.411 50.704L201.171 51.736C202.083 52.04 202.779 52.432 203.259 52.912C203.755 53.376 204.003 53.984 204.003 54.736C204.003 55.696 203.547 56.528 202.635 57.232C201.691 57.968 200.443 58.336 198.891 58.336C197.339 58.336 196.091 58 195.147 57.328C194.203 56.64 193.723 55.68 193.707 54.448H196.347Z" fill="white"/>
<rect y="0.446045" width="1440" height="788.946" fill="url(#paint4_linear_397_5255)"/>
<g filter="url(#filter5_f_397_5255)">
<circle cx="973.489" cy="375.529" r="1.61304" fill="white" fill-opacity="0.7"/>
</g>
<g filter="url(#filter6_f_397_5255)">
<circle cx="1185.61" cy="536.34" r="1.61304" fill="white" fill-opacity="0.7"/>
</g>
<g filter="url(#filter7_f_397_5255)">
<circle cx="1095.61" cy="625.917" r="1.61304" fill="white" fill-opacity="0.7"/>
</g>
<g filter="url(#filter8_f_397_5255)">
<circle cx="240.584" cy="585.698" r="1.61304" fill="white" fill-opacity="0.7"/>
</g>
<g filter="url(#filter9_f_397_5255)">
<circle cx="589.472" cy="476.74" r="1.61304" fill="white" fill-opacity="0.7"/>
</g>
<g filter="url(#filter10_f_397_5255)">
<circle cx="956.889" cy="388.027" r="1.11053" fill="white" fill-opacity="0.7"/>
</g>
<path d="M468.595 623.992C468.457 625.242 467.335 626.145 466.089 626.007C464.844 625.869 463.946 624.744 464.084 623.493C464.223 622.242 465.345 621.34 466.59 621.478C467.836 621.615 468.734 622.741 468.595 623.992Z" fill="url(#paint5_linear_397_5255)" fill-opacity="0.4"/>
<path fill-rule="evenodd" clip-rule="evenodd" d="M55.5744 661.466C55.8297 663.199 56.5446 667.405 57.3616 670.361C58.1746 673.302 60.8245 677.119 62.0666 678.685C60.6321 677.872 58.1935 676.683 59.9148 678.435C61.6362 680.186 62.3342 681.263 62.468 681.582C62.8387 681.719 63.2773 681.993 62.0666 681.993C61.8602 681.993 61.6629 681.985 61.4836 681.978C60.3482 681.934 59.9323 681.918 62.468 684.045C64.6816 685.902 62.9771 685.115 61.8947 684.615C61.5413 684.452 61.2543 684.319 61.1914 684.319C61.1633 684.319 61.1167 684.312 61.0594 684.304C60.5954 684.238 59.4297 684.073 61.7021 686.509C62.0272 686.857 62.3253 687.168 62.5895 687.443C64.4001 689.33 64.6125 689.552 60.9361 688.835C57.4675 688.159 59.4511 689.431 61.6139 690.818C62.0779 691.116 62.5502 691.419 62.9787 691.709C65.4042 693.351 66.5532 694.446 63.7446 693.898C60.9361 693.351 62.5957 695.814 65.1489 697.32C67.1652 698.508 65.9173 698.417 64.6746 698.326C64.3437 698.302 64.0131 698.278 63.7446 698.278C63.0695 698.278 63.8583 698.813 64.9592 699.561C65.9399 700.228 67.1682 701.062 67.8298 701.836C69.234 703.478 67.5744 703.478 66.0425 702.657C65.42 702.323 65.9789 703.388 66.9195 704.839L82 703L175.607 698.43H201.99C207.729 698.43 308.251 707.538 331.685 713.088C342.465 713.088 392.546 716.811 436.266 720.062L436.266 720.062C470.131 722.58 500.18 724.814 505.19 724.814C508.083 724.814 516.934 724.883 529.283 724.979L529.287 724.979L529.288 724.979C542.758 725.084 560.388 725.221 578.984 725.337C579.3 725.117 583.361 720.501 581.476 721.259C579.571 722.025 579.452 721.642 580.523 720.749C581.595 719.855 582.666 716.665 582.309 716.92C582.023 717.124 581.158 717.26 580.761 717.303C581.079 716.92 581.952 715.797 582.904 714.368C584.095 712.581 583.857 712.709 583.619 712.836C583.38 712.964 581.476 713.475 581.714 713.219C581.952 712.964 584.571 709.391 584.095 709.774C581.523 711.509 581.595 711.007 581.952 710.539C582.984 709.178 584.761 706.686 583.619 707.604C582.19 708.753 582.309 707.732 582.904 706.583C585.88 701.862 586.833 693.312 587.071 691.015C587.261 689.177 587.626 690.249 587.785 691.015C588.023 692.631 588.69 696.553 589.452 699.31C590.21 702.052 592.681 705.612 593.839 707.072C592.502 706.314 590.227 705.205 591.833 706.839C593.438 708.472 594.089 709.476 594.214 709.774C594.559 709.901 594.968 710.157 593.839 710.157C593.647 710.157 593.463 710.149 593.296 710.143C592.237 710.102 591.849 710.087 594.214 712.071C596.278 713.803 594.688 713.068 593.679 712.602C593.349 712.45 593.082 712.326 593.023 712.326C592.997 712.326 592.953 712.32 592.9 712.312C592.467 712.251 591.38 712.096 593.499 714.368C593.802 714.692 594.08 714.982 594.326 715.238L594.327 715.239C596.015 716.999 596.213 717.205 592.785 716.537C589.55 715.907 591.4 717.093 593.417 718.387C593.85 718.664 594.29 718.947 594.69 719.217C596.952 720.749 598.023 721.769 595.404 721.259C592.785 720.749 594.333 723.046 596.714 724.449C598.594 725.558 597.43 725.473 596.271 725.388C595.963 725.365 595.654 725.343 595.404 725.343C595.248 725.343 595.176 725.373 595.171 725.43C613.898 725.528 632.673 725.589 648.382 725.561C649.082 724.623 650.329 722.879 650.014 723.133C647.786 724.636 647.848 724.201 648.158 723.796C649.052 722.617 650.592 720.457 649.602 721.253C648.364 722.248 648.467 721.363 648.983 720.368C651.562 716.277 652.387 708.869 652.593 706.879C652.758 705.287 653.074 706.216 653.212 706.879C653.418 708.28 653.996 711.678 654.656 714.066C655.313 716.442 657.454 719.527 658.457 720.792C657.298 720.135 655.328 719.174 656.719 720.589C658.11 722.005 658.674 722.875 658.782 723.133C659.081 723.243 659.435 723.464 658.457 723.464C658.291 723.464 658.131 723.458 657.986 723.452C657.069 723.417 656.733 723.404 658.782 725.123C658.967 725.279 659.119 725.411 659.241 725.524C674.965 725.44 685.892 725.228 687.644 724.814C694.818 723.118 757.018 712.101 788.582 712.101C811.608 712.101 886.132 718.415 930.337 722.16L930.339 722.16C946.731 723.549 958.953 724.585 962.835 724.814C965.094 724.948 971.034 724.476 979.499 723.587C979.544 723.381 979.539 723.273 979.467 723.324C979.22 723.501 978.47 723.619 978.126 723.656C978.401 723.324 979.158 722.351 979.983 721.113C981.014 719.565 980.808 719.676 980.602 719.786C980.396 719.897 978.745 720.339 978.952 720.118C979.158 719.897 981.427 716.801 981.014 717.133C978.786 718.636 978.848 718.201 979.158 717.796C980.052 716.617 981.592 714.457 980.602 715.253C979.364 716.248 979.467 715.363 979.983 714.368C982.562 710.277 983.387 702.869 983.593 700.879C983.758 699.287 984.074 700.216 984.212 700.879C984.418 702.28 984.996 705.678 985.656 708.066C986.313 710.442 988.454 713.527 989.457 714.792C988.298 714.135 986.328 713.174 987.719 714.589C989.11 716.005 989.674 716.875 989.782 717.133C990.081 717.243 990.435 717.464 989.457 717.464C989.291 717.464 989.131 717.458 988.986 717.452C988.069 717.417 987.733 717.404 989.782 719.123C991.57 720.623 990.193 719.987 989.318 719.583L989.318 719.583C989.033 719.451 988.801 719.344 988.75 719.344C988.739 719.344 988.724 719.343 988.706 719.34C988.688 719.338 988.667 719.335 988.644 719.332C988.269 719.279 987.327 719.145 989.163 721.113C989.425 721.395 989.666 721.646 989.88 721.868C989.961 721.952 990.038 722.033 990.111 722.109C990.203 722.206 990.289 722.296 990.367 722.38C1006.75 720.486 1028.44 717.708 1050.71 714.811V709.108L1048.84 707.538L1050.71 705.572V698.954V698.895H1050.72L1051.58 697.77V697.536H1051.76L1057.81 689.71V689.702H1057.81L1057.86 689.639L1057.91 689.702H1058.65L1058.65 689.697L1058.65 689.702H1088.06L1091.29 686.984L1093.5 689.288L1093.01 689.702H1095.77L1095.94 689.559L1096.07 689.702H1099.74L1099.74 689.697L1106.21 698.954H1106.23V702.749H1112.64L1112.64 702.745L1112.64 702.749L1115.18 706.447C1135.45 703.883 1150.68 702.102 1154.71 702.102C1155.01 702.102 1155.42 702.102 1155.93 702.101C1170.04 702.092 1263.02 702.029 1348.78 706.164C1348.44 706.043 1348.6 705.905 1348.75 705.822C1348.99 705.693 1353.21 700.921 1351.28 701.695C1349.36 702.468 1349.24 702.082 1350.32 701.179C1351.4 700.276 1352.48 697.051 1352.12 697.309C1351.83 697.516 1350.96 697.653 1350.56 697.696C1350.88 697.309 1351.76 696.174 1352.72 694.73C1353.93 692.924 1353.69 693.053 1353.45 693.182C1353.21 693.311 1351.28 693.827 1351.52 693.569C1351.76 693.311 1354.41 689.7 1353.93 690.086C1351.33 691.841 1351.4 691.333 1351.76 690.86C1352.8 689.485 1354.6 686.965 1353.45 687.894C1352 689.055 1352.12 688.023 1352.72 686.862C1355.73 682.09 1356.7 673.448 1356.94 671.127C1357.13 669.269 1357.5 670.353 1357.66 671.127C1357.9 672.76 1358.57 676.724 1359.34 679.51C1360.11 682.282 1362.61 685.88 1363.78 687.356C1362.42 686.589 1360.13 685.469 1361.75 687.12C1363.37 688.771 1364.03 689.786 1364.16 690.086C1364.5 690.215 1364.92 690.473 1363.78 690.473C1363.58 690.473 1363.4 690.466 1363.23 690.46C1362.16 690.418 1361.77 690.403 1364.16 692.408C1366.24 694.158 1364.64 693.416 1363.61 692.945C1363.28 692.791 1363.01 692.666 1362.95 692.666C1362.93 692.666 1362.88 692.66 1362.83 692.652C1362.39 692.59 1361.29 692.434 1363.43 694.73C1363.74 695.058 1364.02 695.351 1364.27 695.611C1365.98 697.389 1366.18 697.598 1362.71 696.922C1359.44 696.285 1361.31 697.484 1363.35 698.792C1363.79 699.072 1364.23 699.358 1364.64 699.631C1366.92 701.179 1368.01 702.211 1365.36 701.695C1362.71 701.179 1364.28 703.5 1366.68 704.919C1368.58 706.04 1367.41 705.953 1366.23 705.868C1365.92 705.845 1365.61 705.822 1365.36 705.822C1364.72 705.822 1365.47 706.327 1366.5 707.032L1366.59 707.093C1393.3 708.595 1418.68 710.548 1440 713.088V791.392H0V713L44.4562 707.578C45.6651 705.675 46.807 703.737 46.3828 703.888C45.6169 704.162 44.3403 703.752 44.7232 703.478C45.1062 703.204 48.936 698.962 47.2765 698.825C45.6169 698.688 45.8722 698.414 46.1275 698.278C46.3828 698.141 50.8509 693.077 48.8084 693.898C46.7658 694.72 46.6382 694.309 47.7871 693.351C48.936 692.393 50.085 688.972 49.702 689.246C49.3956 689.465 48.468 689.611 48.0424 689.656C48.3828 689.246 49.319 688.041 50.3403 686.509C51.6169 684.593 51.3616 684.73 51.1063 684.867C50.8509 685.003 48.8084 685.551 49.0637 685.277C49.319 685.003 52.1276 681.172 51.6169 681.582C48.8594 683.443 48.936 682.905 49.319 682.403C50.4254 680.944 52.3318 678.27 51.1063 679.256C49.5743 680.487 49.702 679.393 50.3403 678.161C53.5318 673.098 54.5531 663.929 54.8084 661.466C55.0127 659.495 55.4042 660.644 55.5744 661.466ZM658.202 725.529C657.971 725.423 657.794 725.344 657.75 725.344C657.728 725.344 657.69 725.339 657.644 725.332C657.437 725.303 657.059 725.249 657.067 725.534C657.448 725.533 657.826 725.531 658.202 725.529Z" fill="url(#paint6_linear_397_5255)"/>
</g>
<path d="M224.574 43.1929H226.078V59.1929H224.574V43.1929ZM239.774 45.5289H241.63V55.3529H247.806V56.9529H239.774V45.5289ZM250.315 45.3049C250.667 45.3049 250.971 45.4169 251.211 45.6409C251.435 45.8649 251.563 46.1529 251.563 46.5049C251.563 46.8569 251.435 47.1609 251.195 47.3849C250.955 47.6089 250.667 47.7209 250.315 47.7209C249.963 47.7209 249.675 47.6089 249.435 47.3849C249.195 47.1449 249.083 46.8569 249.083 46.5049C249.083 46.1529 249.195 45.8649 249.435 45.6409C249.675 45.4169 249.963 45.3049 250.315 45.3049ZM249.403 48.6809H251.227V56.9529H249.403V48.6809ZM257.201 48.4569C258.273 48.4569 259.121 48.6969 259.761 49.1769C260.417 49.6889 260.833 50.4569 260.993 51.4969H259.185C259.073 50.9689 258.849 50.5849 258.529 50.3289C258.193 50.0729 257.745 49.9449 257.201 49.9449C256.529 49.9449 256.001 50.1849 255.617 50.6969C255.233 51.1929 255.041 51.8969 255.041 52.7929C255.041 53.7049 255.217 54.4249 255.601 54.9369C255.953 55.4329 256.481 55.6889 257.185 55.6889C258.401 55.6889 259.073 55.0809 259.217 53.8809H261.025C260.833 55.0009 260.401 55.8329 259.745 56.3769C259.105 56.9049 258.241 57.1769 257.169 57.1769C255.889 57.1769 254.897 56.7609 254.193 55.9289C253.505 55.1289 253.169 54.0889 253.169 52.8089C253.169 51.5609 253.505 50.5369 254.177 49.7529C254.897 48.8889 255.905 48.4569 257.201 48.4569ZM265.978 48.4569C267.338 48.4569 268.378 48.9049 269.098 49.8329C269.754 50.6649 270.09 51.8329 270.09 53.3209H263.898C263.962 54.0889 264.17 54.6809 264.522 55.0809C264.874 55.4809 265.386 55.6889 266.042 55.6889C266.602 55.6889 267.05 55.5609 267.402 55.3049C267.674 55.0969 267.914 54.7609 268.138 54.2969H269.962C269.77 55.0649 269.386 55.7209 268.81 56.2329C268.074 56.8569 267.162 57.1769 266.058 57.1769C264.826 57.1769 263.85 56.7929 263.13 56.0409C262.362 55.2569 261.978 54.1849 261.978 52.8089C261.978 51.5769 262.33 50.5529 263.066 49.7209C263.77 48.8729 264.746 48.4569 265.978 48.4569ZM266.026 49.9449C265.418 49.9449 264.954 50.1049 264.602 50.4569C264.266 50.7929 264.042 51.2889 263.93 51.9449H268.186C268.026 50.6009 267.306 49.9449 266.026 49.9449ZM275.808 48.4569C277.872 48.4569 278.912 49.5769 278.912 51.8489V56.9529H277.088V52.0089C277.088 50.6489 276.464 49.9769 275.216 49.9769C274.768 49.9769 274.368 50.1369 274.032 50.4569C273.648 50.8089 273.424 51.3209 273.36 51.9769V56.9529H271.536V48.6809H273.36V49.6409C273.68 49.2569 274.048 48.9529 274.448 48.7609C274.864 48.5529 275.312 48.4569 275.808 48.4569ZM283.953 48.4569C286.129 48.4569 287.329 49.3209 287.521 51.0809H285.745C285.617 50.6649 285.425 50.3609 285.169 50.2009C284.897 50.0249 284.481 49.9449 283.921 49.9449C283.441 49.9449 283.073 50.0089 282.833 50.1529C282.545 50.2969 282.417 50.5209 282.417 50.8409C282.417 51.0969 282.625 51.3369 283.073 51.5289C283.345 51.6409 283.889 51.8009 284.721 52.0089C285.649 52.2329 286.353 52.4889 286.801 52.7929C287.457 53.2089 287.793 53.8009 287.793 54.5369C287.793 56.2969 286.545 57.1769 284.065 57.1769C281.761 57.1769 280.529 56.2009 280.353 54.2649H282.129C282.225 54.7929 282.417 55.1609 282.689 55.3849C282.961 55.5769 283.393 55.6889 284.001 55.6889C285.281 55.6889 285.921 55.3369 285.921 54.6649C285.921 54.2809 285.681 53.9769 285.201 53.7529C284.945 53.6249 284.401 53.4809 283.569 53.2889C282.593 53.0649 281.905 52.8249 281.505 52.5689C280.865 52.1689 280.545 51.6089 280.545 50.8889C280.545 50.1209 280.849 49.5289 281.489 49.1129C282.113 48.6649 282.929 48.4569 283.953 48.4569ZM292.759 48.4569C294.119 48.4569 295.159 48.9049 295.879 49.8329C296.535 50.6649 296.871 51.8329 296.871 53.3209H290.679C290.743 54.0889 290.951 54.6809 291.303 55.0809C291.655 55.4809 292.167 55.6889 292.823 55.6889C293.383 55.6889 293.831 55.5609 294.183 55.3049C294.455 55.0969 294.695 54.7609 294.919 54.2969H296.743C296.551 55.0649 296.167 55.7209 295.591 56.2329C294.855 56.8569 293.943 57.1769 292.839 57.1769C291.607 57.1769 290.631 56.7929 289.911 56.0409C289.143 55.2569 288.759 54.1849 288.759 52.8089C288.759 51.5769 289.111 50.5529 289.847 49.7209C290.551 48.8729 291.527 48.4569 292.759 48.4569ZM292.807 49.9449C292.199 49.9449 291.735 50.1049 291.383 50.4569C291.047 50.7929 290.823 51.2889 290.711 51.9449H294.967C294.807 50.6009 294.087 49.9449 292.807 49.9449Z" fill="white"/>
<defs>
<filter id="filter0_f_397_5255" x="-303.642" y="-1226.88" width="2046.78" height="2046.78" filterUnits="userSpaceOnUse" color-interpolation-filters="sRGB">
<feFlood flood-opacity="0" result="BackgroundImageFix"/>
<feBlend mode="normal" in="SourceGraphic" in2="BackgroundImageFix" result="shape"/>
<feGaussianBlur stdDeviation="261.32" result="effect1_foregroundBlur_397_5255"/>
</filter>
<filter id="filter1_f_397_5255" x="1291.32" y="241.5" width="7.22607" height="7.22607" filterUnits="userSpaceOnUse" color-interpolation-filters="sRGB">
<feFlood flood-opacity="0" result="BackgroundImageFix"/>
<feBlend mode="normal" in="SourceGraphic" in2="BackgroundImageFix" result="shape"/>
<feGaussianBlur stdDeviation="1" result="effect1_foregroundBlur_397_5255"/>
</filter>
<filter id="filter2_f_397_5255" x="1275.22" y="254.5" width="6.22107" height="6.22119" filterUnits="userSpaceOnUse" color-interpolation-filters="sRGB">
<feFlood flood-opacity="0" result="BackgroundImageFix"/>
<feBlend mode="normal" in="SourceGraphic" in2="BackgroundImageFix" result="shape"/>
<feGaussianBlur stdDeviation="1" result="effect1_foregroundBlur_397_5255"/>
</filter>
<filter id="filter3_f_397_5255" x="166.247" y="183.354" width="6.75281" height="6.75269" filterUnits="userSpaceOnUse" color-interpolation-filters="sRGB">
<feFlood flood-opacity="0" result="BackgroundImageFix"/>
<feBlend mode="normal" in="SourceGraphic" in2="BackgroundImageFix" result="shape"/>
<feGaussianBlur stdDeviation="1" result="effect1_foregroundBlur_397_5255"/>
</filter>
<filter id="filter4_d_397_5255" x="76.4399" y="27.6101" width="48.8619" height="47.0176" filterUnits="userSpaceOnUse" color-interpolation-filters="sRGB">
<feFlood flood-opacity="0" result="BackgroundImageFix"/>
<feColorMatrix in="SourceAlpha" type="matrix" values="0 0 0 0 0 0 0 0 0 0 0 0 0 0 0 0 0 0 127 0" result="hardAlpha"/>
<feOffset dy="1.05"/>
<feGaussianBlur stdDeviation="5"/>
<feComposite in2="hardAlpha" operator="out"/>
<feColorMatrix type="matrix" values="0 0 0 0 1 0 0 0 0 1 0 0 0 0 1 0 0 0 0.25 0"/>
<feBlend mode="normal" in2="BackgroundImageFix" result="effect1_dropShadow_397_5255"/>
<feBlend mode="normal" in="SourceGraphic" in2="effect1_dropShadow_397_5255" result="shape"/>
</filter>
<filter id="filter5_f_397_5255" x="969.876" y="371.916" width="7.22607" height="7.22607" filterUnits="userSpaceOnUse" color-interpolation-filters="sRGB">
<feFlood flood-opacity="0" result="BackgroundImageFix"/>
<feBlend mode="normal" in="SourceGraphic" in2="BackgroundImageFix" result="shape"/>
<feGaussianBlur stdDeviation="1" result="effect1_foregroundBlur_397_5255"/>
</filter>
<filter id="filter6_f_397_5255" x="1182" y="532.727" width="7.22607" height="7.22607" filterUnits="userSpaceOnUse" color-interpolation-filters="sRGB">
<feFlood flood-opacity="0" result="BackgroundImageFix"/>
<feBlend mode="normal" in="SourceGraphic" in2="BackgroundImageFix" result="shape"/>
<feGaussianBlur stdDeviation="1" result="effect1_foregroundBlur_397_5255"/>
</filter>
<filter id="filter7_f_397_5255" x="1092" y="622.304" width="7.22607" height="7.22607" filterUnits="userSpaceOnUse" color-interpolation-filters="sRGB">
<feFlood flood-opacity="0" result="BackgroundImageFix"/>
<feBlend mode="normal" in="SourceGraphic" in2="BackgroundImageFix" result="shape"/>
<feGaussianBlur stdDeviation="1" result="effect1_foregroundBlur_397_5255"/>
</filter>
<filter id="filter8_f_397_5255" x="236.971" y="582.085" width="7.22607" height="7.22607" filterUnits="userSpaceOnUse" color-interpolation-filters="sRGB">
<feFlood flood-opacity="0" result="BackgroundImageFix"/>
<feBlend mode="normal" in="SourceGraphic" in2="BackgroundImageFix" result="shape"/>
<feGaussianBlur stdDeviation="1" result="effect1_foregroundBlur_397_5255"/>
</filter>
<filter id="filter9_f_397_5255" x="585.859" y="473.127" width="7.22607" height="7.22607" filterUnits="userSpaceOnUse" color-interpolation-filters="sRGB">
<feFlood flood-opacity="0" result="BackgroundImageFix"/>
<feBlend mode="normal" in="SourceGraphic" in2="BackgroundImageFix" result="shape"/>
<feGaussianBlur stdDeviation="1" result="effect1_foregroundBlur_397_5255"/>
</filter>
<filter id="filter10_f_397_5255" x="953.778" y="384.916" width="6.22107" height="6.22107" filterUnits="userSpaceOnUse" color-interpolation-filters="sRGB">
<feFlood flood-opacity="0" result="BackgroundImageFix"/>
<feBlend mode="normal" in="SourceGraphic" in2="BackgroundImageFix" result="shape"/>
<feGaussianBlur stdDeviation="1" result="effect1_foregroundBlur_397_5255"/>
</filter>
<linearGradient id="paint0_linear_397_5255" x1="720" y1="0" x2="720" y2="791" gradientUnits="userSpaceOnUse">
<stop stop-color="#05101D"/>
<stop offset="1" stop-color="#02070D"/>
</linearGradient>
<radialGradient id="paint1_radial_397_5255" cx="0" cy="0" r="1" gradientUnits="userSpaceOnUse" gradientTransform="translate(719.749 -203.492) rotate(90) scale(500.75)">
<stop stop-color="#49C8D9"/>
<stop offset="0.338542" stop-color="#18B3BD"/>
<stop offset="0.630208" stop-color="#075696"/>
<stop offset="1" stop-color="#002A96"/>
</radialGradient>
<linearGradient id="paint2_linear_397_5255" x1="124.123" y1="544.765" x2="231.417" y2="525.145" gradientUnits="userSpaceOnUse">
<stop stop-color="#87C5FF"/>
<stop offset="1" stop-color="white" stop-opacity="0"/>
</linearGradient>
<linearGradient id="paint3_linear_397_5255" x1="1283.36" y1="424.765" x2="1390.65" y2="405.145" gradientUnits="userSpaceOnUse">
<stop stop-color="#87C5FF"/>
<stop offset="1" stop-color="white" stop-opacity="0"/>
</linearGradient>
<linearGradient id="paint4_linear_397_5255" x1="720" y1="789.392" x2="720" y2="-28.1927" gradientUnits="userSpaceOnUse">
<stop stop-color="#092F50"/>
<stop offset="1" stop-color="#06101B" stop-opacity="0"/>
</linearGradient>
<linearGradient id="paint5_linear_397_5255" x1="463.717" y1="625.595" x2="468.68" y2="625.672" gradientUnits="userSpaceOnUse">
<stop stop-color="#5CB1FF"/>
<stop offset="1" stop-color="white" stop-opacity="0"/>
</linearGradient>
<linearGradient id="paint6_linear_397_5255" x1="752.107" y1="769.496" x2="749.986" y2="660.377" gradientUnits="userSpaceOnUse">
<stop stop-color="#030D16"/>
<stop offset="1" stop-color="#011831"/>
</linearGradient>
<clipPath id="clip0_397_5255">
<rect width="1440" height="791" fill="white"/>
</clipPath>
</defs>
</svg>
