<svg xmlns="http://www.w3.org/2000/svg" width="2048" height="820" fill="none" viewBox="0 0 2048 820"><mask id="mask0_374_4607" width="5034" height="2449" x="-1493" y="0" maskUnits="userSpaceOnUse" style="mask-type:alpha"><rect width="5034" height="2449" x="-1493" fill="#D9D9D9"/></mask><g mask="url(#mask0_374_4607)"><g filter="url(#filter0_f_374_4607)"><circle cx="1023.75" cy="-203.492" r="500.75" fill="url(#paint0_radial_374_4607)" fill-opacity=".85"/></g><circle cx="1023.75" cy="-205.316" r="383.087" fill="#F8F9FF" fill-opacity=".05"/><circle cx="1023.75" cy="-203.492" r="362.109" fill="#F8F9FF" fill-opacity=".05"/><circle cx="1024.21" cy="-206.685" r="341.586" fill="#F8F9FF" fill-opacity=".1"/><circle cx="1024.21" cy="-204.86" r="312.399" fill="#F8F9FF" fill-opacity=".6"/></g><path fill="url(#paint1_linear_374_4607)" fill-opacity=".3" fill-rule="evenodd" d="M432.238 545.226L536.268 521.075L430.893 539.358L430.895 539.369C429.625 539.603 428.603 540.646 428.454 541.996C428.271 543.646 429.461 545.132 431.111 545.315C431.501 545.358 431.882 545.324 432.238 545.226Z" clip-rule="evenodd"/><path fill="url(#paint2_linear_374_4607)" fill-opacity=".3" fill-rule="evenodd" d="M1591.47 425.226L1695.5 401.075L1590.13 419.358L1590.13 419.369C1588.86 419.603 1587.84 420.646 1587.69 421.996C1587.5 423.647 1588.69 425.132 1590.34 425.315C1590.73 425.358 1591.11 425.324 1591.47 425.226Z" clip-rule="evenodd"/><defs><filter id="filter0_f_374_4607" width="2046.78" height="2046.78" x=".359" y="-1226.88" color-interpolation-filters="sRGB" filterUnits="userSpaceOnUse"><feFlood flood-opacity="0" result="BackgroundImageFix"/><feBlend in="SourceGraphic" in2="BackgroundImageFix" mode="normal" result="shape"/><feGaussianBlur result="effect1_foregroundBlur_374_4607" stdDeviation="261.32"/></filter><radialGradient id="paint0_radial_374_4607" cx="0" cy="0" r="1" gradientTransform="translate(1023.75 -203.492) rotate(90) scale(500.75)" gradientUnits="userSpaceOnUse"><stop stop-color="#49C8D9"/><stop offset=".339" stop-color="#18B3BD"/><stop offset=".63" stop-color="#075696"/><stop offset="1" stop-color="#002A96"/></radialGradient><linearGradient id="paint1_linear_374_4607" x1="428.123" x2="535.417" y1="544.765" y2="525.145" gradientUnits="userSpaceOnUse"><stop stop-color="#87C5FF"/><stop offset="1" stop-color="#fff" stop-opacity="0"/></linearGradient><linearGradient id="paint2_linear_374_4607" x1="1587.36" x2="1694.65" y1="424.765" y2="405.145" gradientUnits="userSpaceOnUse"><stop stop-color="#87C5FF"/><stop offset="1" stop-color="#fff" stop-opacity="0"/></linearGradient></defs></svg>