<svg width="2048" height="820" viewBox="0 0 2048 820" fill="none" xmlns="http://www.w3.org/2000/svg">
<mask id="mask0_374_4607" style="mask-type:alpha" maskUnits="userSpaceOnUse" x="-1493" y="0" width="5034" height="2449">
<rect x="-1493" width="5034" height="2449" fill="#D9D9D9"/>
</mask>
<g mask="url(#mask0_374_4607)">
<g filter="url(#filter0_f_374_4607)">
<circle cx="1023.75" cy="-203.492" r="500.75" fill="url(#paint0_radial_374_4607)" fill-opacity="0.85"/>
</g>
<circle cx="1023.75" cy="-205.316" r="383.087" fill="#F8F9FF" fill-opacity="0.05"/>
<circle cx="1023.75" cy="-203.492" r="362.109" fill="#F8F9FF" fill-opacity="0.05"/>
<circle cx="1024.21" cy="-206.685" r="341.586" fill="#F8F9FF" fill-opacity="0.1"/>
<circle cx="1024.21" cy="-204.86" r="312.399" fill="#F8F9FF" fill-opacity="0.6"/>
</g>
<path fill-rule="evenodd" clip-rule="evenodd" d="M432.238 545.226L536.268 521.075L430.893 539.358L430.895 539.369C429.625 539.603 428.603 540.646 428.454 541.996C428.271 543.646 429.461 545.132 431.111 545.315C431.501 545.358 431.882 545.324 432.238 545.226Z" fill="url(#paint1_linear_374_4607)" fill-opacity="0.3"/>
<path fill-rule="evenodd" clip-rule="evenodd" d="M1591.47 425.226L1695.5 401.075L1590.13 419.358L1590.13 419.369C1588.86 419.603 1587.84 420.646 1587.69 421.996C1587.5 423.647 1588.69 425.132 1590.34 425.315C1590.73 425.358 1591.11 425.324 1591.47 425.226Z" fill="url(#paint2_linear_374_4607)" fill-opacity="0.3"/>
<defs>
<filter id="filter0_f_374_4607" x="0.358521" y="-1226.88" width="2046.78" height="2046.78" filterUnits="userSpaceOnUse" color-interpolation-filters="sRGB">
<feFlood flood-opacity="0" result="BackgroundImageFix"/>
<feBlend mode="normal" in="SourceGraphic" in2="BackgroundImageFix" result="shape"/>
<feGaussianBlur stdDeviation="261.32" result="effect1_foregroundBlur_374_4607"/>
</filter>
<radialGradient id="paint0_radial_374_4607" cx="0" cy="0" r="1" gradientUnits="userSpaceOnUse" gradientTransform="translate(1023.75 -203.492) rotate(90) scale(500.75)">
<stop stop-color="#49C8D9"/>
<stop offset="0.338542" stop-color="#18B3BD"/>
<stop offset="0.630208" stop-color="#075696"/>
<stop offset="1" stop-color="#002A96"/>
</radialGradient>
<linearGradient id="paint1_linear_374_4607" x1="428.123" y1="544.765" x2="535.417" y2="525.145" gradientUnits="userSpaceOnUse">
<stop stop-color="#87C5FF"/>
<stop offset="1" stop-color="white" stop-opacity="0"/>
</linearGradient>
<linearGradient id="paint2_linear_374_4607" x1="1587.36" y1="424.765" x2="1694.65" y2="405.145" gradientUnits="userSpaceOnUse">
<stop stop-color="#87C5FF"/>
<stop offset="1" stop-color="white" stop-opacity="0"/>
</linearGradient>
</defs>
</svg>
