<svg xmlns="http://www.w3.org/2000/svg" width="48" height="49" viewBox="0 0 48 49" fill="none">
  <path d="M19.654 44.026L28.62 28.5L35.684 40.734C32.2832 43.1887 28.1941 44.5067 24 44.5C22.508 44.5 21.054 44.336 19.654 44.026ZM15.78 42.74C13.2104 41.5782 10.9148 39.8875 9.04282 37.7785C7.17085 35.6694 5.76465 33.1893 4.91597 30.5H22.846L15.78 42.738V42.74ZM4.09997 26.5C3.81376 23.6945 4.12625 20.8602 5.01679 18.1845C5.90733 15.5087 7.35563 13.0525 9.26597 10.978L18.224 26.5H4.09997ZM12.318 8.26602C15.7182 5.81178 19.8065 4.4938 24 4.50002C25.492 4.50002 26.946 4.66402 28.346 4.97402L19.38 20.5L12.318 8.26602ZM32.22 6.26002C34.7896 7.42179 37.0853 9.11239 38.9573 11.2215C40.8293 13.3305 42.2354 15.8107 43.084 18.5H25.154L32.22 6.26002ZM43.9 22.5C44.1862 25.3055 43.8737 28.1398 42.9832 30.8156C42.0926 33.4913 40.6443 35.9476 38.734 38.022L29.776 22.5H43.904H43.9Z" fill="url(#paint0_linear_4715_17926)"/>
  <defs>
    <linearGradient id="paint0_linear_4715_17926" x1="3.99707" y1="44.5" x2="47.7273" y2="9.10091" gradientUnits="userSpaceOnUse">
      <stop stop-color="#096EA8"/>
      <stop offset="1" stop-color="#2991CB"/>
    </linearGradient>
  </defs>
</svg>