<svg width="14" height="14" viewBox="0 0 14 14" fill="none" xmlns="http://www.w3.org/2000/svg">
<path d="M5.55136 13.5087L8.54003 8.33333L10.8947 12.4113C9.7611 13.2295 8.39807 13.6689 7.00003 13.6667C6.5027 13.6667 6.01803 13.612 5.55136 13.5087ZM4.26003 13.08C3.40352 12.6927 2.6383 12.1292 2.01431 11.4261C1.39033 10.7231 0.92159 9.89642 0.638698 9H6.61537L4.26003 13.0793V13.08ZM0.366698 7.66666C0.271294 6.7315 0.375458 5.78674 0.672304 4.89482C0.96915 4.0029 1.45192 3.18414 2.0887 2.49266L5.0747 7.66666H0.366698ZM3.10603 1.58866C4.23944 0.770586 5.60222 0.331259 7.00003 0.333332C7.49736 0.333332 7.98203 0.387998 8.4487 0.491332L5.46003 5.66666L3.10603 1.58866ZM9.74003 0.919998C10.5966 1.30725 11.3618 1.87079 11.9858 2.57381C12.6098 3.27684 13.0785 4.10356 13.3614 5H7.3847L9.74003 0.919998ZM13.6334 6.33333C13.7288 7.2685 13.6246 8.21326 13.3278 9.10518C13.0309 9.99709 12.5481 10.8159 11.9114 11.5073L8.92536 6.33333H13.6347H13.6334Z" fill="#111824"/>
</svg>
