<svg width="48" height="49" viewBox="0 0 48 49" fill="none" xmlns="http://www.w3.org/2000/svg">
<path d="M19.654 43.5993L28.62 28.0733L35.684 40.3073C32.2832 42.7619 28.1941 44.0799 24 44.0733C22.508 44.0733 21.054 43.9093 19.654 43.5993ZM15.78 42.3133C13.2104 41.1514 10.9148 39.4608 9.04282 37.3517C7.17085 35.2426 5.76465 32.7625 4.91597 30.0733H22.846L15.78 42.3113V42.3133ZM4.09997 26.0733C3.81376 23.2678 4.12625 20.4335 5.01679 17.7577C5.90733 15.082 7.35563 12.6257 9.26597 10.5513L18.224 26.0733H4.09997ZM12.318 7.83926C15.7182 5.38503 19.8065 4.06704 24 4.07326C25.492 4.07326 26.946 4.23726 28.346 4.54726L19.38 20.0733L12.318 7.83926ZM32.22 5.83326C34.7896 6.99503 37.0853 8.68563 38.9573 10.7947C40.8293 12.9038 42.2354 15.3839 43.084 18.0733H25.154L32.22 5.83326ZM43.9 22.0733C44.1862 24.8788 43.8737 27.713 42.9832 30.3888C42.0926 33.0645 40.6443 35.5208 38.734 37.5953L29.776 22.0733H43.904H43.9Z" fill="url(#paint0_angular_4810_18134)"/>
<defs>
<radialGradient id="paint0_angular_4810_18134" cx="0" cy="0" r="1" gradientUnits="userSpaceOnUse" gradientTransform="translate(5.71182 44.0733) rotate(-46.2505) scale(55.3734 61.5838)">
<stop stop-color="#096EA8"/>
<stop offset="1" stop-color="#2991CB"/>
</radialGradient>
</defs>
</svg>