<svg width="20" height="20" viewBox="0 0 20 20" fill="none" xmlns="http://www.w3.org/2000/svg">
<path fill-rule="evenodd" clip-rule="evenodd" d="M10 20C15.5228 20 20 15.5228 20 10C20 4.47715 15.5228 0 10 0C4.47715 0 0 4.47715 0 10C0 15.5228 4.47715 20 10 20ZM15.6855 5.40411C15.9297 4.95514 15.4388 4.46423 14.9898 4.70844L8.70379 8.12766C8.65437 8.15454 8.61148 8.18798 8.57537 8.22618C8.53772 8.26203 8.50473 8.30451 8.47815 8.35336L5.05894 14.6394C4.81473 15.0884 5.30563 15.5793 5.75461 15.3351L12.0406 11.9158C12.0901 11.889 12.133 11.8555 12.1691 11.8173C12.2067 11.7815 12.2397 11.739 12.2663 11.6901L15.6855 5.40411ZM10.5028 11.2747C11.1225 11.2747 11.6248 10.7724 11.6248 10.1527C11.6248 9.53309 11.1225 9.03076 10.5028 9.03076C9.88319 9.03076 9.38086 9.53309 9.38086 10.1527C9.38086 10.7724 9.88319 11.2747 10.5028 11.2747Z" fill="#007FEE"/>
</svg>
