<svg width="20" height="19" viewBox="0 0 20 19" fill="none" xmlns="http://www.w3.org/2000/svg">
<g clip-path="url(#clip0_13_519)">
<path d="M13.95 6.87512H19.1156C19.6037 6.87512 19.9993 7.26506 19.9993 7.746V12.383C19.9993 14.1507 18.5453 15.5837 16.7517 15.5837H16.7363C14.9426 15.5839 13.4884 14.1512 13.4881 12.3835V7.33035C13.4881 7.27057 13.5001 7.21138 13.5233 7.15615C13.5465 7.10092 13.5805 7.05073 13.6234 7.00846C13.6663 6.96619 13.7172 6.93265 13.7732 6.90978C13.8293 6.8869 13.8893 6.87512 13.95 6.87512V6.87512Z" fill="#605E5C"/>
<path d="M17.4414 5.95852C18.5973 5.95852 19.5343 5.03507 19.5343 3.89594C19.5343 2.75682 18.5973 1.83337 17.4414 1.83337C16.2855 1.83337 15.3485 2.75682 15.3485 3.89594C15.3485 5.03507 16.2855 5.95852 17.4414 5.95852Z" fill="#605E5C"/>
<path d="M10.9302 5.95852C12.5998 5.95852 13.9533 4.62466 13.9533 2.97926C13.9533 1.33386 12.5998 0 10.9302 0C9.26058 0 7.9071 1.33386 7.9071 2.97926C7.9071 4.62466 9.26058 5.95852 10.9302 5.95852Z" fill="#8A8886"/>
<path d="M14.9611 6.87512H6.43423C5.952 6.8869 5.57054 7.28131 5.58171 7.75655V13.0454C5.51437 15.8973 7.80383 18.264 10.6976 18.3338C13.5914 18.264 15.8809 15.8973 15.8136 13.0454V7.75655C15.8248 7.28131 15.4433 6.8869 14.9611 6.87512V6.87512Z" fill="#8A8886"/>
</g>
<defs>
<clipPath id="clip0_13_519">
<rect width="20" height="18.4" fill="white"/>
</clipPath>
</defs>
</svg>
