<svg xmlns="http://www.w3.org/2000/svg" xmlns:xlink="http://www.w3.org/1999/xlink" width="32" height="32" class="icon" p-id="2606" t="1680244338884" version="1.1" viewBox="0 0 1024 1024"><path d="M128 106.858667C128 94.976 137.621333 85.333333 149.12 85.333333h85.76c11.648 0 21.12 9.6 21.12 21.525334V917.12c0 11.882667-9.621333 21.525333-21.12 21.525333H149.12A21.290667 21.290667 0 0 1 128 917.141333V106.88z m640 0c0-11.882667 9.621333-21.525333 21.12-21.525334h85.76c11.648 0 21.12 9.6 21.12 21.525334V917.12c0 11.882667-9.621333 21.525333-21.12 21.525333h-85.76a21.290667 21.290667 0 0 1-21.12-21.525333V106.88z" p-id="2607"/></svg>