<svg xmlns="http://www.w3.org/2000/svg" width="16" height="16" fill="none" viewBox="0 0 16 16"><path fill-rule="evenodd" d="M2 3.33333L3.33333 2L14 12.6667L12.6667 14L2 3.33333ZM8.66667 3.33333L9.33333 2L10 3.33333L11.3333 4L10 4.66667L9.33333 6L8.66667 4.66667L7.33333 4L8.66667 3.33333ZM3.33333 10L4 8.66667L4.66667 10L6 10.6667L4.66667 11.3333L4 12.6667L3.33333 11.3333L2 10.6667L3.33333 10ZM2.66667 6L3.33333 6.66667L2.66667 7.33333L2 6.66667L2.66667 6ZM12 6.66667L12.6667 7.33333L12 8L11.3333 7.33333L12 6.66667Z" clip-rule="evenodd"/></svg>