<svg xmlns="http://www.w3.org/2000/svg" width="10" height="16" fill="none" viewBox="0 0 10 16"><path fill="#676C75" d="M7.80895 14.8251L0.674052 8.52505C0.589364 8.45005 0.529519 8.3688 0.494515 8.2813C0.458946 8.1938 0.441162 8.10005 0.441162 8.00005C0.441162 7.90005 0.458946 7.8063 0.494515 7.7188C0.529519 7.6313 0.589364 7.55005 0.674052 7.47505L7.80895 1.1563C8.00655 0.981299 8.25356 0.893799 8.54996 0.893799C8.84637 0.893799 9.10043 0.987549 9.31215 1.17505C9.52387 1.36255 9.62973 1.5813 9.62973 1.8313C9.62973 2.0813 9.52387 2.30005 9.31215 2.48755L3.08764 8.00005L9.31215 13.5126C9.50975 13.6876 9.60855 13.9031 9.60855 14.159C9.60855 14.4156 9.5027 14.6376 9.29098 14.8251C9.07926 15.0126 8.83226 15.1063 8.54996 15.1063C8.26767 15.1063 8.02067 15.0126 7.80895 14.8251Z"/></svg>