<svg xmlns="http://www.w3.org/2000/svg" xmlns:xlink="http://www.w3.org/1999/xlink" width="48" height="48" class="icon" p-id="6786" t="1681452466538" version="1.1" viewBox="0 0 1024 1024"><path d="M926.293333 396.373333l-170.666666-170.666666a42.666667 42.666667 0 0 0-60.586667 60.586666L793.173333 384H298.666667a42.666667 42.666667 0 0 0 0 85.333333h597.333333a42.666667 42.666667 0 0 0 39.253333-26.453333 42.666667 42.666667 0 0 0-8.96-46.506667zM725.333333 554.666667H128a42.666667 42.666667 0 0 0-39.253333 26.453333 42.666667 42.666667 0 0 0 8.96 46.506667l170.666666 170.666666a42.666667 42.666667 0 0 0 60.586667 0 42.666667 42.666667 0 0 0 0-60.586666L230.826667 640H725.333333a42.666667 42.666667 0 0 0 0-85.333333z" p-id="6787"/></svg>