<svg xmlns="http://www.w3.org/2000/svg" width="16" height="16" viewBox="0 0 16 16" fill="#5A646E">
  <path fill-rule="evenodd" clip-rule="evenodd" d="M3.01992 3.73151C4.25737 2.5714 5.90463 1.94979 7.6 2.00318C9.29537 1.94979 10.9426 2.5714 12.1801 3.73151C13.4175 4.89161 14.144 6.49539 14.2 8.19068C14.144 9.88596 13.4175 11.4897 12.1801 12.6498C10.9426 13.81 9.29537 14.4316 7.6 14.3782C5.90463 14.4316 4.25737 13.81 3.01992 12.6498C1.78247 11.4897 1.05599 9.88596 1 8.19068C1.05599 6.49539 1.78247 4.89161 3.01992 3.73151ZM3.75124 11.9183C4.79484 12.8846 6.17867 13.3983 7.6 13.3469C9.02133 13.3983 10.4052 12.8846 11.4488 11.9183C12.4924 10.952 13.1108 9.61175 13.1687 8.19068C13.1108 6.7696 12.4924 5.42931 11.4488 4.46302C10.4052 3.49672 9.02133 2.98307 7.6 3.03443C6.17867 2.98307 4.79484 3.49672 3.75124 4.46302C2.70764 5.42931 2.08922 6.7696 2.03125 8.19068C2.08922 9.61175 2.70764 10.952 3.75124 11.9183ZM11.725 7.67918H3.475V8.71043H11.725V7.67918Z" />
</svg>