<svg xmlns="http://www.w3.org/2000/svg"   viewBox="0 0 24 24" fill="none">
  <path d="M12 15C8.8299 15 6.01077 16.5306 4.21597 18.906C3.82968 19.4172 3.63653 19.6728 3.64285 20.0183C3.64773 20.2852 3.81533 20.6219 4.02534 20.7867C4.29716 21 4.67384 21 5.42721 21H18.5727C19.3261 21 19.7028 21 19.9746 20.7867C20.1846 20.6219 20.3522 20.2852 20.3571 20.0183C20.3634 19.6728 20.1703 19.4172 19.784 18.906C17.9892 16.5306 15.1701 15 12 15Z" fill="currentColor"/>
  <path d="M12 12C14.4853 12 16.5 9.98528 16.5 7.5C16.5 5.01472 14.4853 3 12 3C9.51469 3 7.49997 5.01472 7.49997 7.5C7.49997 9.98528 9.51469 12 12 12Z" fill="currentColor"/>
  <path fill-rule="evenodd" clip-rule="evenodd" d="M12 4C10.067 4 8.49997 5.567 8.49997 7.5C8.49997 9.433 10.067 11 12 11C13.933 11 15.5 9.433 15.5 7.5C15.5 5.567 13.933 4 12 4ZM6.49997 7.5C6.49997 4.46243 8.96241 2 12 2C15.0375 2 17.5 4.46243 17.5 7.5C17.5 10.5376 15.0375 13 12 13C8.96241 13 6.49997 10.5376 6.49997 7.5ZM12 16C9.16094 16 6.63046 17.3693 5.01382 19.5088C4.91492 19.6397 4.83923 19.74 4.77627 19.8281C4.72848 19.895 4.69586 19.9442 4.67314 19.9814C4.82177 19.9984 5.03354 20 5.42721 20H18.5727C18.9664 20 19.1782 19.9984 19.3268 19.9814C19.3041 19.9442 19.2715 19.895 19.2237 19.8281C19.1607 19.74 19.085 19.6397 18.9861 19.5088C17.3695 17.3693 14.839 16 12 16ZM3.41812 18.3031C5.39108 15.692 8.49885 14 12 14C15.5011 14 18.6089 15.692 20.5818 18.3031C20.5907 18.3149 20.5997 18.3268 20.6087 18.3387C20.7783 18.563 20.9602 18.8035 21.0902 19.0356C21.2475 19.3165 21.3642 19.6414 21.3569 20.0366C21.3511 20.3542 21.2549 20.6516 21.138 20.8864C21.0211 21.1212 20.8419 21.3772 20.592 21.5734C20.2586 21.835 19.8957 21.9276 19.5733 21.9662C19.2905 22.0001 18.9553 22.0001 18.6183 22C18.6031 22 18.5879 22 18.5727 22H5.42721C5.41202 22 5.39682 22 5.38164 22C5.04464 22.0001 4.70946 22.0001 4.42662 21.9662C4.10423 21.9276 3.74132 21.835 3.408 21.5734C3.15805 21.3772 2.97882 21.1212 2.86195 20.8864C2.74507 20.6516 2.64883 20.3542 2.64302 20.0366C2.63579 19.6414 2.7524 19.3165 2.90974 19.0356C3.03972 18.8035 3.22161 18.563 3.39124 18.3387C3.40024 18.3268 3.4092 18.3149 3.41812 18.3031Z" fill="currentColor"/>
</svg>