<svg xmlns="http://www.w3.org/2000/svg" width="16" height="16" viewBox="0 0 16 16" fill="none">
  <path d="M5.64331 7.52871C6.39864 6.77338 7.71597 6.77338 8.47131 7.52871L8.94264 8.00004L9.88531 7.05738L9.41397 6.58604C8.78531 5.95671 7.94797 5.60938 7.05731 5.60938C6.16664 5.60938 5.32931 5.95671 4.70064 6.58604L3.28597 8.00004C2.66217 8.62585 2.31189 9.47343 2.31189 10.357C2.31189 11.2407 2.66217 12.0882 3.28597 12.714C3.59522 13.0237 3.96262 13.2693 4.36705 13.4365C4.77149 13.6038 5.20498 13.6895 5.64264 13.6887C6.08041 13.6896 6.51405 13.604 6.91861 13.4367C7.32317 13.2694 7.69067 13.0238 7.99997 12.714L8.47131 12.2427L7.52864 11.3L7.05731 11.7714C6.68162 12.1454 6.17309 12.3554 5.64297 12.3554C5.11286 12.3554 4.60433 12.1454 4.22864 11.7714C3.85431 11.3959 3.64411 10.8873 3.64411 10.357C3.64411 9.82682 3.85431 9.31822 4.22864 8.94271L5.64331 7.52871Z" fill="#7B838B"/>
  <path d="M8.00002 3.28604L7.52869 3.75737L8.47135 4.70004L8.94268 4.2287C9.31837 3.8547 9.8269 3.64472 10.357 3.64472C10.8871 3.64472 11.3957 3.8547 11.7714 4.2287C12.1457 4.60422 12.3559 5.11281 12.3559 5.64304C12.3559 6.17326 12.1457 6.68186 11.7714 7.05737L10.3567 8.47137C9.60135 9.2267 8.28402 9.2267 7.52869 8.47137L7.05735 8.00004L6.11469 8.9427L6.58602 9.41404C7.21468 10.0434 8.05202 10.3907 8.94268 10.3907C9.83335 10.3907 10.6707 10.0434 11.2994 9.41404L12.714 8.00004C13.3378 7.37423 13.6881 6.52665 13.6881 5.64304C13.6881 4.75942 13.3378 3.91185 12.714 3.28604C12.0884 2.66191 11.2407 2.3114 10.357 2.3114C9.4733 2.3114 8.62566 2.66191 8.00002 3.28604Z" fill="#7B838B"/>
</svg>