<svg xmlns="http://www.w3.org/2000/svg" fill="none" viewBox="0 0 16 16"><path d="M13.5733 3.26685H2.4267C2.0087 3.26685 1.6667 3.60884 1.6667 4.02684V13.9068C1.6667 14.3248 2.0087 14.6668 2.4267 14.6668H13.5733C13.9913 14.6668 14.3333 14.3248 14.3333 13.9068V4.02684C14.3333 3.60884 13.9976 3.26685 13.5733 3.26685ZM13.32 13.6535H2.68003V4.28017H13.32V13.6535Z"/><path d="M11.3123 11.1199H5.20068C4.92835 11.1199 4.71302 10.8983 4.71302 10.6323V10.6006C4.71302 10.3283 4.93468 10.113 5.20068 10.113H11.3123C11.5846 10.113 11.8 10.3346 11.8 10.6006V10.6323C11.8 10.8983 11.5846 11.1199 11.3123 11.1199ZM11.2933 8.83996H8C7.72133 8.83996 7.49333 8.61196 7.49333 8.3333C7.49333 8.05463 7.72133 7.82663 8 7.82663H11.2933C11.572 7.82663 11.8 8.05463 11.8 8.3333C11.8 8.61196 11.5783 8.83996 11.2933 8.83996ZM10.9133 5.29331C10.6346 5.29331 10.4066 5.06532 10.4066 4.78665V2.50666C10.4066 2.228 10.6346 2 10.9133 2C11.192 2 11.42 2.228 11.42 2.50666V4.78665C11.42 5.06532 11.1983 5.29331 10.9133 5.29331ZM5.08668 5.29331C4.80802 5.29331 4.58002 5.06532 4.58002 4.78665V2.50666C4.58002 2.228 4.80802 2 5.08668 2C5.36535 2 5.59334 2.228 5.59334 2.50666V4.78665C5.59334 5.06532 5.37168 5.29331 5.08668 5.29331Z"/></svg>