<svg width="24" height="24" viewBox="0 0 24 24" fill="none" xmlns="http://www.w3.org/2000/svg">
<path d="M10.021 1.021H16.021V3.021H10.021V1.021ZM20.04 7.41L21.474 5.976L20.06 4.562L18.627 5.995C17.0569 4.73681 15.1101 4.04175 13.0982 4.02109C11.0863 4.00042 9.12562 4.65533 7.53001 5.881L8.95001 7.321C10.1364 6.47836 11.5548 6.02418 13.01 6.021L13.02 6.022V13.002L17.973 17.96C16.9952 18.9424 15.7478 19.6124 14.3888 19.8852C13.0299 20.158 11.6205 20.0212 10.3393 19.4923C9.05817 18.9634 7.96283 18.066 7.19211 16.914C6.4214 15.7619 6.00999 14.4071 6.01001 13.021H9.01001L5.01001 9.021L1.01001 13.021H4.01001C4.00865 14.4592 4.35195 15.8767 5.01117 17.1549C5.67038 18.4331 6.62631 19.5347 7.79887 20.3674C8.97143 21.2001 10.3265 21.7397 11.7505 21.9409C13.1745 22.1422 14.626 21.9993 15.9834 21.5242C17.3408 21.049 18.5646 20.2555 19.5522 19.2101C20.5398 18.1647 21.2626 16.8978 21.6598 15.5156C22.0571 14.1334 22.1173 12.6761 21.8355 11.2658C21.5537 9.85556 20.938 8.53336 20.04 7.41Z" fill="#24282C"/>
</svg>
