<svg xmlns="http://www.w3.org/2000/svg" xmlns:xlink="http://www.w3.org/1999/xlink" width="64" height="64" class="icon" p-id="1032" t="1685516041273" version="1.1" viewBox="0 0 1024 1024"><path d="M512 201.31081482c-203.88977778 0-400.01232592 129.13019259-466.03377778 310.68918518 66.02145185 181.55899259 262.144 310.68918518 466.03377778 310.68918518 202.91887408 0 400.98322963-129.13019259 467.00468148-310.68918518-66.99235555-181.55899259-264.08580741-310.68918518-467.00468148-310.68918518z m0 504.86992593c-106.79940741 0-194.18074075-87.38133333-194.18074075-194.18074075s87.38133333-194.18074075 194.18074075-194.18074075 194.18074075 87.38133333 194.18074075 194.18074075-87.38133333 194.18074075-194.18074075 194.18074075z m116.50844445-194.18074075c0 64.07964445-52.4288 116.50844445-116.50844445 116.50844445s-116.50844445-52.4288-116.50844445-116.50844445 52.4288-116.50844445 116.50844445-116.50844445 116.50844445 52.4288 116.50844445 116.50844445z" p-id="1033"/></svg>