<svg xmlns="http://www.w3.org/2000/svg" xmlns:xlink="http://www.w3.org/1999/xlink" width="32" height="32" class="icon" p-id="3512" t="1682415282540" version="1.1" viewBox="0 0 1024 1024"><path d="M341.333333 682.666667c-12.8 0-21.333333-4.266667-29.866666-12.8-17.066667-17.066667-17.066667-42.666667 0-59.733334L409.6 512 311.466667 413.866667c-17.066667-17.066667-17.066667-42.666667 0-59.733334s42.666667-17.066667 59.733333 0l128 128c17.066667 17.066667 17.066667 42.666667 0 59.733334l-128 128c-8.533333 8.533333-17.066667 12.8-29.866667 12.8zM682.666667 682.666667h-128c-25.6 0-42.666667-17.066667-42.666667-42.666667s17.066667-42.666667 42.666667-42.666667h128c25.6 0 42.666667 17.066667 42.666666 42.666667s-17.066667 42.666667-42.666666 42.666667z" p-id="3513"/><path d="M810.666667 896H213.333333c-72.533333 0-128-55.466667-128-128V256c0-72.533333 55.466667-128 128-128h597.333334c72.533333 0 128 55.466667 128 128v512c0 72.533333-55.466667 128-128 128zM213.333333 213.333333c-25.6 0-42.666667 17.066667-42.666666 42.666667v512c0 25.6 17.066667 42.666667 42.666666 42.666667h597.333334c25.6 0 42.666667-17.066667 42.666666-42.666667V256c0-25.6-17.066667-42.666667-42.666666-42.666667H213.333333z" p-id="3514"/></svg>