<svg xmlns="http://www.w3.org/2000/svg" width="200" height="200" class="icon" p-id="6418" t="1749986733952" version="1.1" viewBox="0 0 1024 1024"><path fill="#148fbb" d="M262.148535 957.698968c-3.195785 0-5.816472-2.619664-5.816472-5.817496l0-33.392528c0-10.086729 7.144724-18.813484 16.98279-20.788465l162.995281-32.530904c22.278399-4.558829 38.436404-24.269753 38.436404-46.926776L474.746538 600.220251c0-14.398942-9.694803-27.215852-23.553439-31.201629l-75.688843-21.60711c-2.51324-0.681522-4.237511-3.015683-4.237511-5.618974l0-72.799026c0-20.735253 11.05887-40.258912 28.851095-50.959625 0.663102-0.404206 1.346671-0.64673 2.028193-0.73678 36.050054-5.143137 72.708975-7.754614 109.062951-7.754614 36.319184 0 72.980151 2.611477 108.974947 7.736195 0.841158 0.10847 1.52575 0.350994 2.207271 0.772596 17.773805 10.69969 28.831652 30.224372 28.831652 50.959625l0 72.799026c0 2.619664-1.759063 4.919033-4.219091 5.637394l-75.707262 21.60711c-13.857613 3.876284-23.552415 16.733103-23.552415 31.201629l0 217.984686c0 22.620184 16.158005 42.36897 38.419008 46.926776l163.011654 32.530904c9.838066 1.974981 16.98279 10.701736 16.98279 20.788465l0 33.392528c0 3.231601-2.585895 5.817496-5.798053 5.817496L262.148535 957.696921zM699.298803 831.776024c-1.828648 0-3.5345-0.861624-4.631484-2.297322l-54.253648-70.914096c-1.058099-1.363044-1.436722-3.158946-1.058099-4.847401 0.375553-1.759063 1.489934-3.158946 3.068895-3.985778 54.828746-27.826765 98.650811-71.595618 126.677121-126.637212 72.313979-142.223189 15.473413-316.724525-126.712937-388.985292-41.11235-20.887726-85.166705-31.479969-130.874723-31.479969-109.602234 0-208.487382 60.636009-258.090103 158.235884-35.044144 68.859297-41.148166 147.249669-17.198707 220.685191 23.912619 73.499991 75.024717 133.246747 143.909597 168.218236 1.52575 0.754177 2.657526 2.227738 3.051499 3.913123 0.3776 1.725294 0 3.447519-1.040702 4.88424l-54.253648 70.877257c-1.130753 1.472538-2.835581 2.300392-4.631484 2.300392-0.969071 0-1.921769-0.252757-2.746554-0.718361-98.507548-55.440683-167.877475-150.624533-190.462866-261.286911-20.771069-101.81078-0.645706-205.641567 56.641021-292.299229 54.936193-83.112929 138.453329-141.405567 235.20079-164.134221 3.87833-0.915859 6.732331-4.210905 7.073092-8.194636 1.293459-15.85306 11.05887-29.838585 25.492604-36.47268 20.00052-2.87242 38.544875-4.084015 56.785308-4.084015 18.277272 0 36.821627 1.195222 55.150064 3.582595 0.557702 0.080841 1.167592 0.260943 1.849114 0.556679 14.255679 6.597255 24.056905 20.582781 25.38618 36.434817 0.322341 3.949962 3.158946 7.262404 7.0383 8.178263 105.45375 24.873504 196.457394 93.318362 249.65192 187.795107 50.968835 90.554412 63.626109 195.562001 35.656081 295.674093-28.006867 100.070136-93.321432 183.26493-183.856401 234.178507C701.167361 831.526337 700.233082 831.776024 699.298803 831.776024z" p-id="6419"/></svg>