<svg xmlns="http://www.w3.org/2000/svg" width="200" height="200" class="icon" p-id="8375" t="1750061477408" version="1.1" viewBox="0 0 1653 1024"><path fill="#F76E05" d="M295.633488 783.632817a74.898216 74.898216 0 0 1-59.720604-72.58858v-399.237188a77.537801 77.537801 0 0 1 59.720604-72.58858l370.696679-80.34236 38.933874-158.870005H274.846759A272.86707 272.86707 0 0 0 0.164974 272.873174v471.825768a276.661473 276.661473 0 0 0 274.681785 274.846759h430.417282l-38.933874-158.210109zM1374.233793 0.006104H940.517029l39.593771 158.870005 370.696679 80.34236a75.06319 75.06319 0 0 1 59.720604 72.58858v399.237188a77.867749 77.867749 0 0 1-59.720604 72.58858l-370.696679 80.34236-39.593771 158.870005H1374.233793a275.011733 275.011733 0 0 0 275.671629-275.506655V272.873174A276.166551 276.166551 0 0 0 1374.233793 0.006104z" p-id="8376"/><path fill="#F76E05" d="M666.330167 490.638913h316.255244v38.933875H666.330167z" p-id="8377"/></svg>