<svg xmlns="http://www.w3.org/2000/svg" width="200" height="200" class="icon" p-id="11232" t="1749986957427" version="1.1" viewBox="0 0 1024 1024"><path fill="#F1F1F1" d="M0.00002 801.787969c0 107.786996 92.887996 223.569991 230.060991 222.199991h570.123978c124.273995 0 223.802991-107.368996 223.802991-223.999991V224.811991C1023.98798 108.071996 927.887984 0 795.545989 0H225.019011C93.152016 0 0.00002 111.396996 0.00002 224.811991v576.975978z" p-id="11233"/><path fill="#AFE881" d="M620.096996 0H225.020011C93.152016 0 0.00002 111.396996 0.00002 224.811991v91.449997l620.096976 0.585V0z" p-id="11234"/><path fill="#A3CAFF" d="M697.206993 1023.98796h102.971996c124.274995 0 223.808991-107.368996 223.808991-223.999991v-3.553H698.173993l-0.967 227.552991z" p-id="11235"/><path fill="#FFF" d="M0.00002 408.559984v-93.088996h1023.98796v93.089996z" p-id="11236"/><path fill="#FFF" d="M620.096996 1023.99796V0H698.199993v1023.99796z" p-id="11237"/><path fill="#FFDF48" d="M0.00002 796.434969v-124.119995h1023.98796v124.119995z" p-id="11238"/><path fill="#FFCF68" d="M206.866012 1023.99796V0h155.149994v1023.99796z" p-id="11239"/><path fill="#D6D7D4" d="M134.463015 536.910979l73.411997 116.103995 3.201-101.002996z" p-id="11240"/><path fill="#E5BA5E" d="M207.875012 653.014974L340.000007 861.979966l23.085999 2.482V584.339977l-155.210994-34.147998z" p-id="11241"/><path fill="#E4C84A" d="M392.663005 796.434969h209.544991l-141.262994-62.059998z" p-id="11242"/><path fill="#D6D7D4" d="M362.776006 864.426966l253.28199 27.212999-0.63-97.691996H363.085006z" p-id="11243"/><path fill="#E7E7E8" d="M616.057996 891.639965l91.956996 9.878-92.587996-107.564996z" p-id="11244"/><path fill="#0066BD" d="M890.936985 186.179993L318.780008 664.216974 340.000007 861.979966l60.470997-157.616994z" p-id="11245"/><path fill="#014E9D" d="M391.107005 702.884973L340.000007 861.980966l120.944995-116.243995-41.129998-73.421997z" p-id="11246"/><path fill="#0093FD" d="M134.463015 536.910979l184.317993 127.305995L890.936985 186.179993l-500.43998 513.68998 317.517987 201.647992L890.936985 186.179993z" p-id="11247"/></svg>