<svg t="1749986591781" class="icon" viewBox="0 0 1024 1024" version="1.1" xmlns="http://www.w3.org/2000/svg" p-id="4563" width="200" height="200"><path d="M824.32 1018.88h-163.84l348.16-348.16v163.84c0 102.4-81.92 184.32-184.32 184.32z m0-1008.64c102.4 0 184.32 81.92 184.32 184.32v97.28l-281.6-281.6h97.28z m-58.88 366.08c0 66.56-25.6 128-66.56 174.08l-7.68 5.12c-79.36 87.04-140.8 192-179.2 307.2-2.56 2.56-5.12 5.12-10.24 5.12s-7.68-2.56-10.24-5.12c-38.4-115.2-99.84-217.6-179.2-307.2l-7.68-7.68-2.56-2.56 2.56 2.56c-40.96-46.08-66.56-107.52-66.56-174.08 0-56.32 17.92-107.52 46.08-148.48C332.8 156.16 409.6 112.64 499.2 112.64s168.96 43.52 215.04 112.64c33.28 43.52 51.2 94.72 51.2 151.04z m-289.28-112.64h-33.28v61.44h-38.4c-38.4 0-71.68 30.72-71.68 71.68v15.36c0 38.4 30.72 71.68 71.68 71.68h66.56v-2.56h2.56v-217.6z m176.64 64h-35.84v125.44h-40.96c-15.36 0-30.72-12.8-30.72-30.72v-97.28H512V435.2c0 25.6 20.48 48.64 48.64 48.64h92.16v-156.16z m-276.48 84.48v-15.36c0-20.48 15.36-35.84 35.84-35.84h30.72v89.6h-30.72c-20.48-2.56-35.84-17.92-35.84-38.4z m-97.28-194.56c-17.92 28.16-33.28 58.88-40.96 89.6L28.16 94.72C61.44 43.52 117.76 7.68 184.32 7.68h307.2l107.52 107.52c-30.72-12.8-64-17.92-97.28-17.92-92.16 2.56-174.08 48.64-222.72 120.32z m20.48 335.36l7.68 7.68c28.16 30.72 53.76 61.44 76.8 97.28L64 972.8C25.6 939.52 0 890.88 0 834.56V225.28l250.88 250.88c12.8 28.16 28.16 53.76 48.64 76.8z m476.16-181.76c0-35.84-7.68-69.12-17.92-99.84l245.76 245.76-276.48 279.04-117.76-117.76c25.6-40.96 56.32-79.36 89.6-117.76l7.68-7.68c40.96-48.64 69.12-112.64 69.12-181.76zM491.52 878.08c2.56 2.56 5.12 5.12 10.24 5.12s7.68-2.56 10.24-5.12c10.24-33.28 25.6-66.56 40.96-99.84l94.72 94.72-145.92 145.92H184.32c-15.36 0-30.72-2.56-43.52-5.12l286.72-286.72c25.6 48.64 48.64 99.84 64 151.04z" fill="#B3CE7D" p-id="4564"></path><path d="M765.44 376.32c0 66.56-25.6 128-66.56 174.08l-7.68 5.12c-79.36 87.04-140.8 192-179.2 307.2-2.56 2.56-5.12 5.12-10.24 5.12s-7.68-2.56-10.24-5.12c-38.4-115.2-99.84-217.6-179.2-307.2l-7.68-7.68-2.56-2.56 2.56 2.56c-40.96-46.08-66.56-107.52-66.56-174.08 0-56.32 17.92-107.52 46.08-148.48C332.8 156.16 409.6 112.64 499.2 112.64s168.96 43.52 215.04 112.64c33.28 43.52 51.2 94.72 51.2 151.04z m-289.28-112.64h-33.28v61.44h-38.4c-38.4 0-71.68 30.72-71.68 71.68v15.36c0 38.4 30.72 71.68 71.68 71.68h66.56v-2.56h2.56v-217.6z m176.64 64h-35.84v125.44h-40.96c-15.36 0-30.72-12.8-30.72-30.72v-97.28H512V435.2c0 25.6 20.48 48.64 48.64 48.64h92.16v-156.16z m-276.48 84.48v-15.36c0-20.48 15.36-35.84 35.84-35.84h30.72v89.6h-30.72c-20.48-2.56-35.84-17.92-35.84-38.4z" fill="#F93737" p-id="4565"></path><path d="M824.32 10.24c102.4 0 184.32 81.92 184.32 184.32v97.28l-281.6-281.6h97.28z" fill="#B2E5FF" p-id="4566"></path><path d="M279.04 217.6c-17.92 28.16-33.28 58.88-40.96 89.6L28.16 94.72C61.44 43.52 117.76 7.68 184.32 7.68h307.2l107.52 107.52c-30.72-12.8-64-17.92-97.28-17.92-92.16 2.56-174.08 48.64-222.72 120.32z m496.64 153.6c0-35.84-7.68-69.12-17.92-99.84l245.76 245.76-276.48 279.04-117.76-117.76c25.6-40.96 56.32-79.36 89.6-117.76l7.68-7.68c40.96-48.64 69.12-112.64 69.12-181.76z" fill="#E6F28F" p-id="4567"></path></svg>