<svg t="1750060904296" class="icon" viewBox="0 0 1024 1024" version="1.1" xmlns="http://www.w3.org/2000/svg" p-id="2404" width="200" height="200"><path d="M192.261433 276.062041a51.09551 51.09551 0 0 0-51.09551 51.09551c0 28.212245 22.883265 50.99102 51.09551 50.99102h212.741225L22.465515 680.228571c-25.6 20.27102-29.988571 57.573878-9.717551 83.173878s57.678367 29.988571 83.278367 9.717551l212.427756-167.706122v0.208979c0 182.021224 160.182857 329.560816 357.773061 329.560816C863.817352 935.183673 1024.000209 787.644082 1024.000209 605.622857c0-115.461224-64.470204-217.025306-162.063673-275.853061L563.304699 98.533878c-20.37551-15.673469-49.528163-12.016327-65.201633 8.254693a46.309878 46.309878 0 0 0 8.254694 65.097143l134.582857 104.176327H192.261433z" fill="#E87D0D" p-id="2405"></path><path d="M670.824699 378.179918c-123.08898 0-222.981224 89.338776-222.981225 199.575511s99.892245 199.57551 222.981225 199.57551c123.193469 0 223.085714-89.338776 223.085714-199.57551s-99.892245-199.57551-223.085714-199.575511z" fill="#FFFFFF" p-id="2406"></path><path d="M670.866495 452.440816c-77.00898 0-139.389388 56.11102-139.389388 125.283266 0 69.276735 62.380408 125.387755 139.389388 125.387755s139.389388-56.11102 139.389387-125.387755c0-69.172245-62.380408-125.283265-139.389387-125.283266z" fill="#265787" p-id="2407"></path></svg>