<svg xmlns="http://www.w3.org/2000/svg" width="200" height="200" class="icon" p-id="4362" t="1750061093435" version="1.1" viewBox="0 0 1024 1024"><path fill="#FFCB01" d="M562.652791 575.339091m-297.816489 0a297.816489 297.816489 0 1 0 595.632978 0 297.816489 297.816489 0 1 0-595.632978 0Z" p-id="4363"/><path fill="#FFCB01" d="M437.708403 477.38245m-32.871194 0a32.871194 32.871194 0 1 0 65.742388 0 32.871194 32.871194 0 1 0-65.742388 0Z" p-id="4364"/><path d="M183.113426 295.626419c-61.20186 4.000744-97.803907 21.940589-108.067721 53.406759-5.31845 15.820403-3.103752 33.839628 6.652031 52.739969 8.001488 16.272868 21.988217 33.339535 40.459907 50.818977a390.818729 390.818729 0 0 0-4.445271 58.883969c0 215.659163 176.000992 390.747287 392.795287 390.747287 151.242419 0 282.647814-85.23014 348.255256-209.991442 49.580651-7.763349 84.515721-25.226915 94.91448-55.296 10.517829-30.402481-6.937798-65.948775-50.96186-104.098729 0.381023-7.08862 0.579473-14.201054 0.579473-21.361116 0-215.675039-176.00893-390.755225-392.787349-390.755225-136.604775 0-257.008124 69.520868-327.394233 174.905551z m0.134946 205.363597c72.94214 50.422078 175.000806 100.177364 285.799194 136.382511 105.305302 34.65724 219.413829 56.629581 311.168992 58.741085-59.090357 85.198388-157.886512 141.089736-269.708899 141.089737-180.716155 0-327.425984-145.955721-327.425985-325.727256 0-3.508589 0.055566-7.001302 0.166698-10.486077z m443.201488-294.197582l-1.325643 9.485892-87.349581 53.192434-40.793303 129.666976 92.39814 80.435597 91.342387-32.521922-8.414263-58.455318 46.548341-11.438636 34.585798 34.728683 59.519008-25.290419a322.964837 322.964837 0 0 1 24.964961 124.880372 322.742574 322.742574 0 0 1-32.188527 140.907163c-6.953674 0.15876-14.343938 0.15876-22.146976-0.063504-86.905054-1.325643-193.766202-21.535752-300.611473-56.701023-128.174636-42.079256-230.4-96.446512-294.261086-144.590388 28.529116-150.940775 161.839628-265.287442 321.790016-265.287442 40.817116 0 79.903752 7.461705 115.942201 21.051535z m269.335814 381.015318a385.88924 385.88924 0 0 1-15.00279 54.256124c20.218047-6.413891 29.092713-14.208992 30.767628-19.638574h0.182573c2.119442-5.882047-1.84955-17.804899-15.955349-34.61755zM668.394171 226.10555a328.616682 328.616682 0 0 1 124.904186 121.205086l-30.100838 12.708713-31.037519-31.212155-110.139535 27.259039 9.311256 62.416372-32.80769 11.430697-50.549085-44.841674 27.044713-86.587535 90.889922-55.391256 2.48459-16.987287z m-512.15876 116.505799c-25.203101 4.897736-37.118016 12.859535-39.237458 19.606822a28.894264 28.894264 0 0 0 3.984869 19.33693c3.619721 6.731411 7.914171 13.065922 12.827783 18.940031a386.468713 386.468713 0 0 1 22.424806-57.883783z" p-id="4365"/></svg>