<svg t="1750061936580" class="icon" viewBox="0 0 2264 1024" version="1.1" xmlns="http://www.w3.org/2000/svg" p-id="14050" width="200" height="200"><path d="M1557.443991 969.02301c13.929997-47.831991 8.560998-91.559983-14.645997-124.108977-21.155996-29.849994-57.030989-47.053991-100.120982-49.105991l-816.965848-10.612998h-0.22a14.771997 14.771997 0 0 1-12.311998-6.650998l-0.071-0.071a18.148997 18.148997 0 0 1-1.989999-14.645998 22.592996 22.592996 0 0 1 19.174996-14.716997l824.181847-10.613998c97.644982-4.598999 203.781962-83.634984 240.927955-180.502967l47.071992-122.770977a25.623995 25.623995 0 0 0 1.415999-15.849997A535.999901 535.999901 0 0 0 1220.285054 0.00019c-236.258956 0-436.643919 152.623972-508.249906 364.329932a241.332955 241.332955 0 0 0-384.919929 168.542969 252.374953 252.374953 0 0 0 6.014999 84.341984A342.808936 342.808936 0 0 0 0.00128 960.320012a420.459922 420.459922 0 0 0 3.316999 49.749991 16.489997 16.489997 0 0 0 15.919997 13.929997h1507.780721a20.587996 20.587996 0 0 0 19.174996-14.645997z m260.024952-524.876902a159.73897 159.73897 0 0 0-22.499996 1.060999 13.329998 13.329998 0 0 0-11.956998 9.197999l-31.839994 110.806979c-13.929997 47.832991-8.623998 91.559983 14.574997 124.179977 21.297996 29.849994 57.101989 46.983991 100.262982 49.035991l173.919967 10.683998a14.469997 14.469997 0 0 1 12.523998 6.649999 19.139996 19.139996 0 0 1 2.052 14.717997 22.592996 22.592996 0 0 1-19.236997 14.645997l-181.209966 10.612998c-98.209982 4.599999-203.642962 83.634984-240.857955 180.573967l-13.229998 33.829994a9.615998 9.615998 0 0 0 9.267998 13.372997h622.452885a16.286997 16.286997 0 0 0 15.919997-11.886998 453.736916 453.736916 0 0 0 16.554997-120.791977c0-245.527954-200.455963-445.979917-446.690917-445.979918z" fill="#F38020" p-id="14051"></path></svg>