<svg t="1750327368593" class="icon" viewBox="0 0 1024 1024" version="1.1" xmlns="http://www.w3.org/2000/svg" p-id="2413" width="200" height="200"><path d="M580.52 667.136c-8.04 0.68-14.96 4.416-20.824 10-7.544 7.264-14.864 14.8-22.64 21.8-12.96 11.68-25.736 23.72-39.52 34.4-17.632 13.6-37.84 21.472-60.424 22.48-6.136 0.304-12.288 0.656-18.296 1.576-23.52 3.632-46.936 3.48-70.448-0.08-8.616-1.312-17.408-1.312-26.144-1.968-5.64-0.44-10.128 1.04-12.96 6.528-12.64 24.184-28.8 45.6-49.84 63.216-3.28 2.752-5.496 6.768-8.52 9.896-2.4 2.48-5.184 4.696-8.064 6.64-1.152 0.776-3.544 1.184-4.44 0.52-1.12-0.88-1.792-2.984-1.792-4.536-0.024-4.368 0.456-8.72 0.64-13.096 1.28-27.968 0.368-55.856-5.072-83.472-1.024-5.2-1.392-10.56-5.888-14.056-6.48-5.08-6.824-11.472-5.28-18.816 0.672-3.28 0.848-7.416-0.592-10.208-1.856-3.616-5.08-7.32-8.616-8.936-2.24-1.008-6.216 1.656-9.328 2.848-0.72 0.28-1.12 1.32-1.72 1.936-9.856 9.936-9.872 9.968-20.904 2.984-3.696-2.32-7.424-4.64-10.752-7.424-2.896-2.4-3.744-5.84-1.616-9.264a1809.52 1809.52 0 0 1 18.112-28.84c2.944-4.536 4.8-9.264 4-14.76-0.656-4.776-3.52-8.4-7.896-9.44-2.92-0.656-7.4 0-9.456 1.92-6.344 5.896-11.92 12.688-17.68 19.2-2.72 3.08-4.76 8.752-9.792 5.384-3.28-2.16-6.032-6.672-6.76-10.544-0.72-3.888 0.48-8.72 2.32-12.416 6.64-13.28 14.08-26.144 20.856-39.336 2.336-4.56 4.56-9.576 5.12-14.576 0.272-2.664-2.424-6.824-4.96-8.32-2.4-1.424-7.624-1.68-9.416-0.032-9.616 8.8-18.504 18.368-27.816 27.52-0.984 0.96-3.552 1.384-4.744 0.8-1.28-0.64-2.56-2.784-2.56-4.288-0.048-4.216-0.48-8.936 1.2-12.544 2.856-6.32 7.416-11.776 10.832-17.84 8.104-14.448 15.984-29.04 23.936-43.576 1.24-2.288 2.704-4.536 3.64-6.936 1.36-3.48 1.16-7.168-2.272-9.216-1.88-1.08-5.2-1.616-6.944-0.672-7.68 4.112-14.936 8.976-22.504 13.36-2 1.12-4.448 1.488-6.696 2.24-0.4-2.432-1.792-5.2-1.072-7.216 11-30.48 24.344-59.776 43.424-86.272 8.256-11.52 17.52-21.728 28.928-30.048 17.632-12.864 34.64-26.672 54.504-36.128 1.56-0.72 3.504-1.704 4.16-3.072 1.44-3.008 2.736-6.32 2.936-9.56 0.16-2.432-1.504-4.96-2.456-7.392-4.024-10.28-9.84-13.48-20.16-10.92-18.776 4.72-36.696 11.44-52.224 23.36-12.456 9.56-25.024 19.072-36.776 29.48-38.464 33.976-69.768 73.2-87.52 122.176-1.664 4.592-5.96 8.2-9.04 12.296v78.72c6.608 2.64 8.136 9.04 9.6 14.72 8.24 31.904 24.376 59.384 44.368 85.328 19.712 25.6 43.32 45.36 73.624 56.576 8.824 3.24 12.032 9.28 12.984 17.624 0.184 1.728 0.368 3.544 0.04 5.224-4.88 25.64-4.48 52.08-12.032 77.344-4.48 15-7.456 30.44-11.648 45.544-2.88 10.4-0.536 19.552 7.232 26.184 7.656 6.52 16.8 8.744 26.744 3.24 7.6-4.224 16-7.056 23.6-11.304 31.504-17.536 61.344-36.936 81.312-68.4 8.88-13.984 19.224-27.04 29.016-40.456 5.44-7.456 11.32-12.456 22.08-9.12 7.28 2.24 15.6 1.856 23.416 1.6 32.256-1.144 64.544-2.592 96.816-4.192 4.24-0.216 8.64-1.44 12.64-3.04 38.128-15.568 69.616-39.44 92.768-74 6.48-9.68 10.224-20.216 12.144-31.464 0.72-4.176 0.24-8.8-0.856-12.88-0.496-1.792-4-4.12-5.976-3.968z m400.784-375.328c-0.528-27.48-6.032-53.616-23.792-76.032-6.48-8.16-10.912-17.888-16.776-26.56-2.816-4.184-6.208-8.448-10.344-11.224-15.24-10.304-29.92-21.248-42.88-34.32-5.04-5.12-10.64-9.12-17.472-11.144a3478.72 3478.72 0 0 0-60.224-17.52c-11.68-3.28-23.576-6.064-35.416-8.856-10.136-2.384-20.28-6-30.56-6.48-50.584-2.496-101.224-4.096-141.888-5.632-44 0.512-78.12-1.536-111.84 5.04-34.192-1.736-63.16 14.304-90.24 31.024-27.32 16.912-49.88 41.12-70.56 65.88-15.616 18.64-28.24 39.896-41.36 60.512a140.48 140.48 0 0 0-19.392 48.352c-7.664 39.024-8.224 77.92 3.936 116.432 2.136 6.76 4.352 13.12 8.064 19.136 7.816 12.64 13.936 26.48 23.16 37.92 9.776 12.12 22.36 21.976 33.72 32.856 4.424 4.24 8.984 8.32 13.2 12.76 28.24 29.712 64.528 44.376 103.424 51.6 24.696 4.56 50.056 7.944 75.544 6.048 5.248-0.36 10.512-0.376 15.744-0.64 5.736-0.32 10.016 2.024 13.264 6.744 7.936 11.496 15.824 23.016 24.016 34.368 22.16 30.664 47.48 58.16 80.016 78.288 11.224 6.928 21.28 14.936 28.272 26.64 4.2 7.064 11.864 10.192 19.824 11.44 7.216 1.144 18.52-3.936 18.456-13.984-0.16-34.144 6.184-67.552 10.848-101.248 2.576-18.688 9.44-35.184 15.976-52.224 1.704-4.48 4.72-7.304 9.176-8.416 30.384-7.6 60.784-15.2 91.2-22.56 21.256-5.152 42.528-10.296 60.16-24.192 5.384-4.24 10.76-9.088 14.456-14.744 8.104-12.376 15.36-25.28 22.48-38.24 3.32-6.032 5.728-12.608 8.112-19.088 3.36-8.984 6.224-18.16 9.4-27.224 4.64-13.28 7.104-26.84 6.704-41.04-0.344-12.208 0.656-24.448 1.24-36.68 0.752-15.68 2.624-31.36 2.32-47.016z m-52.88 110.672c-0.84 28.2-18.856 47.784-34.72 68.264-4.192 5.376-10.064 9.704-15.792 13.552-12.32 8.304-25.52 14.936-39.12 21.064-21.92 9.864-44.136 16.216-68.368 13.312-3.44-0.424-6.96-0.064-10.48-0.064v0.4c-13.12 0-26.224-0.24-39.328 0.08-7.144 0.2-10 2.368-11.184 8.704-4.064 21.336-9.776 42.28-11.28 64.256-1.392 19.88-6.304 39.56-9.856 59.28-0.256 1.376-1.96 3.136-3.304 3.464-1.408 0.32-3.76-0.36-4.72-1.464-19.968-22.96-41.76-44.456-57.64-70.8-5.84-9.712-13.04-18.608-19.28-28.064-4.88-7.36-11.44-10.12-20.064-9.76-9.6 0.4-19.24-0.176-28.84 0.144-32.096 1.064-62.32-5.856-91.232-19.616-11.04-5.232-22.104-10.72-33.704-14.24-15.648-4.744-28.16-13.6-39.52-24.72-3.144-3.056-6.272-6.144-9.712-8.8-19.76-15.32-35.8-33.224-42.048-58.272a29.872 29.872 0 0 0-4.368-9.496c-18.28-26.536-14.16-56.768-14.16-86.24 0-4 2.584-8.192 4.512-12.032 7.464-14.8 14.616-29.808 22.848-44.216 17.952-31.384 40.24-59.792 68.744-81.816 22.68-17.52 48.096-31.456 78.024-34.352 23.4-2.24 46.68-6.016 70.032-8.704a94.16 94.16 0 0 1 20.904-0.16c19.968 2.144 39.824 5.088 59.76 7.328 8.68 0.96 17.456 1.56 26.16 1.36 43.76-1.064 87.296 2.56 130.8 6.04 14.896 1.2 29.552 4.776 41.152 14.936 23.728 20.76 46.224 42.84 63.168 69.72 18.512 29.416 29.072 61.36 29.92 96.36 0.56 21.888 1.408 43.776-7.344 64.576z" p-id="2414"></path></svg>