<svg t="1750061971095" class="icon" viewBox="0 0 1024 1024" version="1.1" xmlns="http://www.w3.org/2000/svg" p-id="15046" width="200" height="200"><path d="M42.666667 512c0 44.288 6.229333 87.04 16.810666 128H682.666667a128 128 0 1 0 0-256H59.477333C48.896 424.96 42.666667 467.712 42.666667 512" fill="#353535" p-id="15047"></path><path d="M929.621333 219.562667c8.277333-9.088 16.298667-18.474667 23.978667-28.074667A510.72 510.72 0 0 0 554.666667 0C363.861333 0 197.802667 104.576 109.696 259.328h727.04c35.072 0 69.162667-13.866667 92.885333-39.765333" fill="#FFC100" p-id="15048"></path><path d="M839.637333 768H111.701333C200.32 920.874667 365.226667 1024 554.666667 1024c161.365333 0 305.024-74.752 398.848-191.36a580.949333 580.949333 0 0 0-20.522667-24.234667c-23.509333-26.368-58.026667-40.405333-93.354667-40.405333" fill="#00C2B3" p-id="15049"></path></svg>