<svg xmlns="http://www.w3.org/2000/svg" width="200" height="200" class="icon" p-id="16880" t="1750062079176" version="1.1" viewBox="0 0 1024 1024"><path fill="#FF9552" d="M512.75730489 512.40777955m-512.92842667 0a512.92842667 512.92842667 0 1 0 1025.85685333 0 512.92842667 512.92842667 0 1 0-1025.85685333 0Z" p-id="16881"/><path fill="#FFF" d="M500.93169778 499.82486755m-98.10011023 0a98.10011022 98.10011022 0 1 0 196.20022045 0 98.10011022 98.10011022 0 1 0-196.20022045 0Z" p-id="16882"/><path fill="#FFF" d="M710.82166045 186.47540622h-396.12871112c-69.14776178 0-125.47959467 56.27357867-125.47959466 125.47959467v400.96381156c0 69.206016 56.27357867 125.47959467 125.47959466 125.47959466h396.12871112c69.14776178 0 125.47959467-56.27357867 125.47959466-125.47959466V311.95500089c-0.05825422-69.206016-56.33183289-125.47959467-125.47959466-125.47959467z m-14.680064 510.19047823c-4.95160889 4.89335467-11.35957333 7.28177778-17.76753778 7.28177777a25.22407822 25.22407822 0 0 1-18.00055467-7.51479467l-66.40981333-67.28362666a158.31167431 158.31167431 0 0 1-93.03199289 30.11743289c-87.96387555 0-159.50006045-71.53618489-159.50006045-159.44180623S412.96782222 340.32480711 500.93169778 340.32480711s159.44180622 71.53618489 159.44180622 159.44180622c0 34.95253333-11.35957333 67.34188089-30.52521245 93.67278934l66.52632178 67.40013511a25.31728498 25.31728498 0 0 1-0.23301688 35.82634667z" p-id="16883"/></svg>