<svg xmlns="http://www.w3.org/2000/svg" width="200" height="200" class="icon" p-id="5571" t="1750061168159" version="1.1" viewBox="0 0 1024 1024"><path fill="#F2CB51" d="M820.244898 459.755102H203.755102V177.632653c0-45.97551 37.616327-83.591837 83.591837-83.591837h449.306122c45.97551 0 83.591837 37.616327 83.591837 83.591837v282.122449zM736.653061 929.959184H287.346939c-45.97551 0-83.591837-37.616327-83.591837-83.591837v-114.938776h616.489796v114.938776c0 45.97551-37.616327 83.591837-83.591837 83.591837z" p-id="5572"/><path fill="#AF8015" d="M694.857143 243.983673H329.142857c-11.493878 0-20.897959-9.404082-20.897959-20.897959s9.404082-20.897959 20.897959-20.897959h365.714286c11.493878 0 20.897959 9.404082 20.897959 20.897959s-9.404082 20.897959-20.897959 20.897959z" p-id="5573"/><path fill="#E5404F" d="M846.367347 773.22449H177.632653c-45.97551 0-83.591837-37.616327-83.591837-83.591837V501.55102c0-45.97551 37.616327-83.591837 83.591837-83.591836h668.734694c45.97551 0 83.591837 37.616327 83.591837 83.591836v188.081633c0 45.97551-37.616327 83.591837-83.591837 83.591837z" p-id="5574"/><path fill="#AF8015" d="M694.857143 351.608163H329.142857c-11.493878 0-20.897959-9.404082-20.897959-20.897959s9.404082-20.897959 20.897959-20.897959h365.714286c11.493878 0 20.897959 9.404082 20.897959 20.897959s-9.404082 20.897959-20.897959 20.897959z" p-id="5575"/><path fill="#FFEEF0" d="M307.722449 646.269388H225.17551v-42.318368h74.710204c1.567347 0 2.612245-1.044898 2.612245-2.612244V585.142857c0-1.567347-1.044898-2.612245-2.612245-2.612245H225.17551v-37.616326h79.934694c1.567347 0 2.612245-1.044898 2.612245-2.612245v-16.195919c0-1.567347-1.044898-2.612245-2.612245-2.612244H203.755102c-1.567347 0-2.612245 1.044898-2.612245 2.612244v139.493878c0 1.567347 1.044898 2.612245 2.612245 2.612245h103.967347c1.567347 0 2.612245-1.044898 2.612245-2.612245v-16.195918c0-2.089796-1.044898-3.134694-2.612245-3.134694zM397.583673 591.412245l48.065307-64.261225c0.522449-1.044898 0.522449-2.089796 0-2.612244-0.522449-1.044898-1.567347-1.567347-2.089796-1.567347H423.183673c-1.044898 0-1.567347 0.522449-2.089795 1.044898l-28.212245 37.093877c-3.134694 4.179592-6.269388 8.359184-8.881633 12.538776-2.089796-3.657143-5.22449-8.359184-9.404082-13.583674l-25.077551-35.52653c-0.522449-0.522449-1.044898-1.044898-2.089796-1.044898h-21.942857c-1.044898 0-2.089796 0.522449-2.089796 1.567346-0.522449 1.044898-0.522449 2.089796 0 2.612245l46.49796 65.306123L317.126531 663.510204c-0.522449 1.044898-0.522449 2.089796 0 2.612245s1.567347 1.567347 2.089796 1.567347h21.942857c1.044898 0 1.567347-0.522449 2.089796-1.044898l35.004081-48.587755c1.044898-1.567347 2.612245-3.657143 4.702041-6.791837 1.567347 2.089796 2.612245 4.179592 4.179592 5.746939l35.004082 49.632653c0.522449 0.522449 1.044898 1.044898 2.089795 1.044898h22.987756c1.044898 0 2.089796-0.522449 2.089795-1.567347 0.522449-1.044898 0.522449-2.089796 0-2.612245l-51.722449-72.097959zM582.008163 618.579592l-18.285714-4.702041c-0.522449 0-1.567347 0-2.089796 0.522449-0.522449 0.522449-1.044898 1.044898-1.044898 1.567347-2.612245 10.971429-6.791837 19.330612-13.583673 25.077551-6.791837 5.746939-15.15102 8.359184-24.555102 8.359184-7.836735 0-15.673469-2.089796-22.465307-6.269388-6.791837-4.179592-12.016327-10.44898-15.15102-18.285714-3.134694-8.359184-5.22449-18.808163-5.22449-30.302041 0-8.881633 1.567347-17.763265 4.179592-26.122449 2.612245-7.836735 7.314286-14.628571 14.106123-19.330612 6.791837-4.702041 15.15102-7.314286 25.077551-7.314286 8.881633 0 16.195918 2.089796 21.420408 6.269388 5.746939 4.179592 9.926531 11.493878 13.061224 20.897959 0.522449 1.044898 1.567347 2.089796 3.134694 1.567347l18.285714-4.179592c0.522449 0 1.044898-0.522449 1.567347-1.044898 0.522449-0.522449 0.522449-1.567347 0-2.089796-3.657143-13.583673-10.971429-24.032653-20.897959-31.346939-9.926531-7.314286-22.465306-10.971429-36.571428-10.971428-12.538776 0-24.555102 3.134694-35.004082 8.881632s-18.808163 14.628571-24.555102 25.6c-5.746939 10.971429-8.359184 24.555102-8.359184 39.183674 0 13.583673 2.612245 26.644898 7.836735 38.138775 5.22449 12.016327 12.538776 21.420408 22.465306 27.689796 9.926531 6.269388 22.465306 9.404082 38.138776 9.404082 15.15102 0 28.212245-4.179592 38.661224-12.538776 10.44898-8.359184 17.763265-20.37551 21.942857-36.048979 0-0.522449 0-1.567347-0.522449-2.089796-0.522449 0-1.044898-0.522449-1.567347-0.522449zM708.440816 646.269388h-83.069387v-42.318368H700.081633c1.567347 0 2.612245-1.044898 2.612245-2.612244V585.142857c0-1.567347-1.044898-2.612245-2.612245-2.612245h-74.710204v-37.616326H705.306122c1.567347 0 2.612245-1.044898 2.612245-2.612245v-16.195919c0-1.567347-1.044898-2.612245-2.612245-2.612244h-100.832653c-1.567347 0-2.612245 1.044898-2.612245 2.612244v139.493878c0 1.567347 1.044898 2.612245 2.612245 2.612245h103.967347c1.567347 0 2.612245-1.044898 2.612245-2.612245v-16.195918c0-2.089796-1.567347-3.134694-2.612245-3.134694zM820.244898 646.269388h-65.828571v-120.163266c0-1.567347-1.044898-2.612245-2.612245-2.612244h-18.285715c-1.567347 0-2.612245 1.044898-2.612245 2.612244v139.493878c0 1.567347 1.044898 2.612245 2.612245 2.612245H820.244898c1.567347 0 2.612245-1.044898 2.612245-2.612245v-16.195918c0-2.089796-1.567347-3.134694-2.612245-3.134694z" p-id="5576"/></svg>