<svg t="1750062184152" class="icon" viewBox="0 0 1024 1024" version="1.1" xmlns="http://www.w3.org/2000/svg" p-id="18793" width="200" height="200"><path d="M64 224A96 96 0 0 1 160 128h286.336a96 96 0 0 1 59.946667 21.034667l116.181333 92.949333a64 64 0 0 0 39.978667 14.016H864a96 96 0 0 1 96 96V640H64V224z" fill="#EDAC21" p-id="18794"></path><path d="M879.253333 262.912l58.069334 100.565333-58.709334-15.722666a21.333333 21.333333 0 0 1-15.104-26.133334l15.744-58.709333z" fill="#8CCCF8" p-id="18795"></path><path d="M879.253333 262.933333l-15.722666 58.709334a21.333333 21.333333 0 0 0 15.082666 26.133333l58.709334 15.722667-58.24 217.344a21.333333 21.333333 0 0 1-26.133334 15.082666L629.76 536.128a21.333333 21.333333 0 0 1-15.082667-26.133333l73.962667-276.053334a21.333333 21.333333 0 0 1 26.133333-15.082666l164.48 44.074666z" fill="#03A1FF" p-id="18796"></path><path d="M713.493333 246.826667m13.22932 3.544785l-0.020606-0.005521q13.22932 3.544786 9.684535 16.774106l0.005521-0.020607q-3.544786 13.22932-16.774106 9.684535l0.020607 0.005521q-13.22932-3.544786-9.684535-16.774106l-0.005521 0.020607q3.544786-13.22932 16.774105-9.684535Z" fill="#FFFFFF" p-id="18797"></path><path d="M295.168 281.045333a21.333333 21.333333 0 0 1 24.725333 17.28L361.322667 533.333333a21.333333 21.333333 0 0 1-17.28 24.725334l-188.864 33.28a21.333333 21.333333 0 0 1-24.704-17.28L89.045333 339.050667a21.333333 21.333333 0 0 1 17.28-24.704l188.842667-33.301334z m-145.024 73.173334a10.666667 10.666667 0 0 0-8.661333 12.373333l0.384 2.069333a10.666667 10.666667 0 0 0 12.352 8.661334l117.504-20.736a10.666667 10.666667 0 0 0 8.64-12.352l-0.362667-2.069334a10.666667 10.666667 0 0 0-12.373333-8.661333l-117.482667 20.736z" fill="#FFFFFF" p-id="18798"></path><path d="M512.341333 295.04m21.252154 1.859323l190.398044 16.65767q21.252154 1.859323 19.392831 23.111476l-20.733306 236.982764q-1.859323 21.252154-23.111476 19.392831l-190.398043-16.65767q-21.252154-1.859323-19.392832-23.111476l20.733306-236.982764q1.859323-21.252154 23.111476-19.392831Z" fill="#36C7BD" p-id="18799"></path><path d="M277.248 361.344m21.252154-1.859323l187.422742-16.397365q21.252154-1.859323 23.111476 19.392831l20.41908 233.391151q1.859323 21.252154-19.392831 23.111476l-187.422743 16.397365q-21.252154 1.859323-23.111476-19.392831l-20.419079-233.39115q-1.859323-21.252154 19.392831-23.111477Z" fill="#FF7186" p-id="18800"></path><path d="M64 512a64 64 0 0 1 64-64h768a64 64 0 0 1 64 64v288a96 96 0 0 1-96 96h-704A96 96 0 0 1 64 800V512z" fill="#FFCA59" p-id="18801"></path></svg>