<svg xmlns="http://www.w3.org/2000/svg" width="200" height="200" class="icon" p-id="13191" t="1749993493073" version="1.1" viewBox="0 0 1024 1024"><path fill="#F58118" d="M398.848 897.024s-113.664-101.888 41.472-320c0 0 34.304 33.792 41.472 63.488 0 0 68.608-52.736 55.296-190.464 0 0 233.984 158.208 120.32 447.488 0 0 354.304-101.888 65.536-543.744 0 0-6.656 61.952-27.648 82.432 0 0-20.48-206.336-306.176-309.76 0 0 108.032 211.968-61.952 368.128 0 0-19.456-47.104-47.104-88.064 0 0-8.704 98.816-70.144 152.064-37.888 32.256-81.408 296.96 188.928 338.432z" p-id="13192"/></svg>