<svg t="1749993824950" class="icon" viewBox="0 0 1024 1024" version="1.1" xmlns="http://www.w3.org/2000/svg" p-id="2345" width="200" height="200"><path d="M0 0h1024v1024H0z" fill="#FAFAFA" p-id="2346"></path><path d="M709.461 507.212H332.07V399.559h447.497l-65.422 105.264c0 2.389-2.342 2.389-4.684 2.389z m98.143-167.462H450.067l65.441-105.273c2.342 0 4.675-2.39 7.016-2.39h355.177l-65.422 105.264c0 2.399-2.342 2.399-4.684 2.399z" fill="#30CF79" p-id="2347"></path><path d="M337.91 791.912c-105.159 0-191.62-88.519-191.62-196.181s86.461-196.172 191.62-196.172c105.15 0 191.621 88.51 191.621 196.172s-86.47 196.172-191.62 196.172z m0-282.31c-46.743 0-86.47 38.276-86.47 88.518 0 47.853 37.394 88.529 86.47 88.529 49.067 0 86.462-38.286 86.462-88.529-2.342-50.242-39.727-88.519-86.471-88.519z" fill="#30CF79" p-id="2348"></path></svg>