<svg xmlns="http://www.w3.org/2000/svg" width="200" height="200" class="icon" p-id="8815" t="1749994879213" version="1.1" viewBox="0 0 1024 1024"><path fill="#FFD15C" d="M32 827.733333s-72.533333-98.133333 4.266667-211.2c0 0 55.466667-74.666667 174.933333-91.733333 0 0 89.6 0 110.933333-91.733333 0 0 42.666667-119.466667 170.666667-87.466667 0 0 128 36.266667 100.266667 151.466667 0 0-23.466667 38.4 32 78.933333 0 0 104.533333 70.4-40.533334 132.266667 0 0-83.2 23.466667-81.066666 104.533333 0 0-10.666667 166.4-166.4 209.066667-2.133333-2.133333-147.2 42.666667-305.066667-194.133334z" p-id="8816"/><path fill="#F8B64C" d="M516.266667 637.866667c-36.266667 36.266667-93.866667 36.266667-130.133334 0-36.266667-36.266667-36.266667-93.866667 0-130.133334 36.266667-36.266667 93.866667-36.266667 130.133334 0 36.266667 34.133333 36.266667 93.866667 0 130.133334z" p-id="8817"/><path fill="#F2F2F2" d="M452.266667 571.733333m-68.266667 0a68.266667 68.266667 0 1 0 136.533333 0 68.266667 68.266667 0 1 0-136.533333 0Z" p-id="8818"/><path fill="#40596B" d="M452.266667 571.733333m-55.466667 0a55.466667 55.466667 0 1 0 110.933333 0 55.466667 55.466667 0 1 0-110.933333 0Z" p-id="8819"/><path fill="#FF7058" d="M162.133333 667.733333c-8.533333 8.533333-8.533333 23.466667 0 32l162.133334 162.133334c8.533333 8.533333 23.466667 8.533333 32 0 8.533333-8.533333 8.533333-23.466667 0-32l-162.133334-162.133334c-8.533333-8.533333-23.466667-8.533333-32 0z" p-id="8820"/><path fill="#CDD6E0" d="M430.933333 505.6c23.466667-8.533333 51.2-2.133333 70.4 17.066667 19.2 19.2 23.466667 44.8 17.066667 70.4l330.666667-356.266667-61.866667-61.866667-356.266667 330.666667z" p-id="8821"/><path fill="#CDD6E0" d="M821.333333 66.133333c-4.266667-4.266667-12.8-4.266667-17.066666 0-4.266667 4.266667-4.266667 12.8 0 17.066667 4.266667 2.133333 8.533333 2.133333 12.8 2.133333 2.133333 0 8.533333 8.533333 8.533333 8.533334l8.533333-8.533334s-8.533333-6.4-8.533333-8.533333c-2.133333-4.266667 0-8.533333-4.266667-10.666667zM883.2 21.333333c-4.266667-4.266667-12.8-4.266667-17.066667 0-4.266667 4.266667-4.266667 12.8 0 17.066667 2.133333 4.266667 8.533333 2.133333 12.8 2.133333 2.133333 0 8.533333 8.533333 8.533334 8.533334l8.533333-8.533334s-8.533333-6.4-8.533333-8.533333c-2.133333-4.266667 0-8.533333-4.266667-10.666667z" p-id="8822"/><path fill="#CDD6E0" d="M957.866667 200.533333c4.266667 4.266667 4.266667 12.8 0 17.066667-4.266667 4.266667-12.8 4.266667-17.066667 0-4.266667-4.266667-2.133333-8.533333-2.133333-12.8 0-2.133333-8.533333-8.533333-8.533334-8.533333l8.533334-8.533334s6.4 8.533333 8.533333 8.533334c2.133333 2.133333 6.4 2.133333 10.666667 4.266666zM1002.666667 138.666667c4.266667 4.266667 4.266667 12.8 0 17.066666-4.266667 4.266667-12.8 4.266667-17.066667 0-4.266667-2.133333-2.133333-6.4-4.266667-10.666666 0-2.133333-8.533333-8.533333-8.533333-8.533334L981.333333 128s6.4 8.533333 8.533334 8.533333c4.266667 2.133333 8.533333 0 12.8 2.133334z" p-id="8823"/><path fill="#FF7058" d="M785.066667 117.333333v57.6l61.866666 61.866667h57.6L1024 78.933333 1017.6 6.4 945.066667 0z" p-id="8824"/><path fill="#40596B" d="M981.333333 29.866667l-29.866666-4.266667-138.666667 104.533333v36.266667l14.933333 14.933333zM840.533333 194.133333l17.066667 17.066667h34.133333l104.533334-140.8-2.133334-29.866667z" p-id="8825"/><path fill="#F2F2F2" d="M486.4 452.266667l83.2 83.2-8.533333 10.666666-85.333334-83.2zM537.6 405.333333l78.933333 78.933334-8.533333 10.666666-81.066667-78.933333zM588.8 358.4l74.666667 76.8-8.533334 10.666667-76.8-76.8zM637.866667 311.466667l72.533333 72.533333-8.533333 10.666667-72.533334-72.533334zM689.066667 264.533333l68.266666 68.266667-8.533333 10.666667-70.4-68.266667zM740.266667 217.6l64 66.133333-8.533334 10.666667-66.133333-66.133333z" p-id="8826"/></svg>