<svg t="1750062252946" class="icon" viewBox="0 0 1024 1024" version="1.1" xmlns="http://www.w3.org/2000/svg" p-id="20942" width="200" height="200"><path d="M1004.608549 466.34214l-447.079043-447.047044a66.087902 66.087902 0 0 0-93.338625 0l-92.634658 92.79565 117.752481 117.75248a78.423324 78.423324 0 0 1 99.295345 99.866319l113.401684 113.49468a78.371326 78.371326 0 1 1-47.13379 44.509913L548.665921 382.091089v278.386951a78.532319 78.532319 0 1 1-90.495758 125.785104 78.236333 78.236333 0 0 1 0-110.841804A80.376232 80.376232 0 0 1 484.000952 658.108151V377.003328a78.577317 78.577317 0 0 1-42.498007-102.842179L325.797368 157.911598 19.222739 464.294236a66.396888 66.396888 0 0 0 0 93.402622l447.112042 446.979048a65.952908 65.952908 0 0 0 93.274627 0l445.000141-445.000141a65.875912 65.875912 0 0 0 0-93.306626z" fill="#F05032" p-id="20943"></path></svg>