<svg t="1749994299391" class="icon" viewBox="0 0 1024 1024" version="1.1" xmlns="http://www.w3.org/2000/svg" p-id="7598" width="200" height="200"><path d="M644.461714 207.177143a158.317714 158.317714 0 0 1 160.402286-103.131429 133.741714 133.741714 0 0 0-34.194286 89.417143c0 74.422857 60.781714 134.765714 135.68 134.765714 10.934857 0 21.577143-1.28 31.707429-3.730285a158.354286 158.354286 0 0 1-98.011429 86.601143 135.972571 135.972571 0 0 0-55.808-11.922286h-46.08a290.450286 290.450286 0 0 0-93.696-192z" fill="#FFC303" p-id="7599"></path><path d="M414.134857 844.8c10.496 6.217143 14.116571 19.931429 8.045714 30.683429a21.723429 21.723429 0 0 1-30.061714 8.192l-24.137143-14.262858v28.525715c0 12.397714-9.874286 22.418286-22.016 22.418285a22.235429 22.235429 0 0 1-21.979428-22.454857v-28.452571l-24.137143 14.262857a21.76 21.76 0 0 1-30.061714-8.228571 22.710857 22.710857 0 0 1 8.045714-30.683429l24.137143-14.262857-24.137143-14.226286a22.747429 22.747429 0 0 1-8.045714-30.72 21.76 21.76 0 0 1 30.061714-8.192l24.137143 14.262857v-28.525714c0-12.361143 9.874286-22.418286 22.016-22.418286 12.141714 0 21.979429 10.057143 21.979428 22.454857v28.452572l24.137143-14.226286a21.723429 21.723429 0 0 1 30.061714 8.228572 22.710857 22.710857 0 0 1-8.045714 30.683428l-24.137143 14.262857 24.137143 14.226286z m315.026286-14.262857l24.173714 14.262857c10.496 6.217143 14.116571 19.931429 8.045714 30.683429a21.723429 21.723429 0 0 1-30.061714 8.192l-24.137143-14.262858v28.525715c0 12.397714-9.874286 22.418286-22.016 22.418285a22.235429 22.235429 0 0 1-21.979428-22.454857v-28.452571l-24.137143 14.262857a21.76 21.76 0 0 1-30.061714-8.228571 22.710857 22.710857 0 0 1 8.045714-30.683429l24.137143-14.262857-24.137143-14.226286a22.747429 22.747429 0 0 1-8.045714-30.72 21.76 21.76 0 0 1 30.061714-8.192l24.137143 14.262857v-28.525714c0-12.361143 9.874286-22.418286 22.016-22.418286 12.141714 0 21.979429 10.057143 21.979428 22.454857v28.452572l24.137143-14.226286a21.723429 21.723429 0 0 1 30.061714 8.228572 22.710857 22.710857 0 0 1-8.045714 30.683428l-24.137143 14.262857z m-31.085714-389.12h46.445714c75.264 0 136.265143 59.721143 136.265143 133.376s-61.001143 133.339429-136.265143 133.339428H267.629714v-0.329142c-101.339429-5.741714-181.686857-87.990857-181.686857-188.562286 0-81.371429 52.553143-150.747429 126.281143-177.334857 33.060571-97.133714 126.72-167.131429 237.056-167.131429 137.984 0 249.819429 109.421714 249.819429 244.443429 0 7.497143-0.365714 14.921143-1.024 22.235428z" fill="#C5DAFF" p-id="7600"></path></svg>