<svg xmlns="http://www.w3.org/2000/svg" width="200" height="200" class="icon" p-id="14239" t="1749995315895" version="1.1" viewBox="0 0 1024 1024"><path fill="#F0F0FF" d="M955.049202 342.228253c0-119.087634-82.694697-215.627425-184.703136-215.627425-35.009253 0-67.722005 11.362725-95.602191 31.097766C649.953226 86.713575 569.360902 41.30398 500.135432 41.30398 433.669068 41.30398 355.575634 84.417073 330.809768 151.548431c-26.004986-17.314628-56.454279-27.289539-89.018337-27.289539C146.333804 124.258892 68.954929 209.832477 68.954929 315.393057c0 87.956824 53.752999 161.990077 126.894086 184.244662v483.062432h632.335014V547.013383c73.661517-28.33866 126.865173-109.282069 126.865173-204.78513z" p-id="14240"/><path fill="#6E6E96" d="M773.146476 146.587823c-16.071378 0-27.467146 6.823417-42.158972 11.817069C799.849499 181.73751 846.068652 251.747755 846.068652 339.659145c0 85.511629-47.63588 157.987722-113.602466 183.360757v110.826838c0 94.54894-206.011859 122.709993-315.665663 122.709992-24.484999 0-37.165321 13.712921-37.165321 13.712922s14.11357 3.63062 37.185973 8.673835c105.498625 15.538557 229.410563 3.147363 315.640881 82.075138v121.681524h80.067764V523.019902c78.35778-25.373035 125.993659-97.849128 125.99366-183.360757 0.00413-106.630354-74.041514-193.071322-165.377004-193.071322z" opacity=".15" p-id="14241"/><path fill="#FFF" d="M330.809768 151.548431c-26.000855-17.314628-56.454279-27.289539-89.014207-27.289539C146.337934 124.258892 68.954929 209.836607 68.954929 315.393057c0 87.956824 53.752999 161.990077 126.889955 184.240532v483.062431h183.802709v-72.112617c27.033455-87.18857 126.163006-103.710162 200.510169-132.622948-66.086367-8.260796-132.172735-20.65199-202.3895-4.130398-8.260796 4.130398-4.130398 8.260796 1.879331 12.841407-10.140127 7.810583-1.879331 16.071378 2.251067 16.071378 53.695173-4.130398 107.390347-24.782388 156.955122-45.434377-99.129551-12.391194-206.519898-111.520745-159.206189-214.301568C306.506506 520.752313 252.757638 446.71906 252.757638 358.762236c0-105.560581 77.378875-191.134165 172.848893-191.134165 32.559927 0 63.013351 9.974911 89.014207 27.289539 18.314185-49.634992 65.780718-86.114667 116.14266-101.773006C594.626546 60.398809 545.008075 41.30398 500.139562 41.30398c-66.466364 0-144.563928 43.113094-169.329794 110.244451z" opacity=".73" p-id="14242"/><path fill="#6E6E96" d="M975.701192 342.228253c0-130.285143-92.124396-236.279415-205.355126-236.279415-38.107052 0-75.288894 12.064892-107.53078 34.893602a20.65612 20.65612 0 0 1 31.428198 10.045128C664.694617 66.297018 572.181963 20.65199 500.135432 20.65199 430.790181 20.65199 341.086198 64.021168 311.434071 144.398712c2.184981-5.931251 6.972112-10.528384 12.985971-12.486193s12.581192-1.057382 17.835058 2.445196c-30.2056-20.119168-64.954638-30.750813-100.455408-30.750813C135.099121 103.606902 48.302939 198.614316 48.302939 315.393057c0 94.75959 58.197307 178.647972 141.532216 204.000355a20.660251 20.660251 0 0 1-14.63813-19.755693v483.062432c0 11.41229 9.2397 20.65199 20.65199 20.65199h632.335014c11.408159 0 20.65199-9.2397 20.651989-20.65199V547.013383a20.664381 20.664381 0 0 1-13.237925 19.280698c83.793383-32.241886 140.103099-122.280431 140.103099-224.065828z m-168.181544 204.78513v435.686768c0-11.41229 9.23557-20.65199 20.651989-20.65199H195.836623c11.408159 0 20.65199 9.2397 20.65199 20.65199V499.637719a20.65199 20.65199 0 0 0-14.642261-19.759824C135.764116 459.771118 89.606918 392.131721 89.606918 315.393057 89.606918 221.38933 157.878266 144.910882 241.791431 144.910882c27.326713 0 54.149517 8.240144 77.564743 23.828266a20.65199 20.65199 0 0 0 30.82103-10.040998C372.526787 98.142386 443.97028 61.955969 500.135432 61.955969c58.630999 0 132.693165 38.359006 155.112965 102.553651a20.643729 20.643729 0 0 0 31.428198 10.045128c25.228471-17.863971 54.157778-27.30193 83.669471-27.301931 90.447454 0 164.051146 87.465307 164.051146 194.975436 0 84.817722-45.66981 159.363144-113.639639 185.512694a20.65199 20.65199 0 0 0-13.237925 19.272436z" p-id="14243"/><path fill="#6E6E96" d="M195.836623 749.617664h632.339145v41.303979H195.836623z" p-id="14244"/><path fill="#F0F0FF" d="M699.782347 143.43633s-76.941053 26.876499-86.626836 105.779491" p-id="14245"/><path fill="#6E6E96" d="M692.971321 123.940851c-3.63475 1.272163-89.191813 32.155148-100.302584 122.763688a20.65199 20.65199 0 1 0 40.9942 5.026695c7.942755-64.756379 70.348938-87.874216 73.013045-88.824208l-0.086739 0.028912a20.65612 20.65612 0 0 0-13.617922-38.995087z" p-id="14246"/></svg>