<svg xmlns="http://www.w3.org/2000/svg" width="200" height="200" class="icon" p-id="11747" t="1749995142970" version="1.1" viewBox="0 0 1024 1024"><path fill="#28176D" d="M511.994264 511.994264m-511.994264 0a511.994264 511.994264 0 1 0 1023.988529 0 511.994264 511.994264 0 1 0-1023.988529 0Z" p-id="11748"/><path fill="#F8C642" d="M769.87841 652.183853h-53.444341V522.260992h53.444341zM789.528583 522.260992h-19.650173v129.922861h84.898383V522.260992h-65.24821z" p-id="11749"/><path fill="#F8C642" d="M772.012054 782.095242h-55.577985V652.172382H772.012054z" p-id="11750"/><path fill="#7B49B6" d="M842.777913 782.095242h-72.910974V652.183853h84.886912v117.923981a11.99888 11.99888 0 0 1-11.975938 11.987408z" p-id="11751"/><path fill="#FC3A64" d="M836.571992 522.260992H716.434069V392.338132h120.137923z" p-id="11752"/><path fill="#FFF" d="M854.776793 522.260992h-65.24821V392.338132h65.24821z" p-id="11753"/><path fill="#F8C642" d="M348.518131 692.73456l-20.18932 88.95919H169.211736l126.951818-522.14628h224.124391l120.447646 522.157751H483.316253l-20.533455-88.959189z m28.047095-122.48952h58.170477l-28.735367-127.640091z" p-id="11754"/><path fill="#7B49B6" d="M296.163554 259.54747l-22.896524 94.190059H542.014406l-21.726461-94.190059H296.163554z" p-id="11755"/><path fill="#FC3A64" d="M220.625674 570.24504h214.1215l28.047095 122.48952H190.846427l29.779247-122.48952z" p-id="11756"/><path fill="#FFF" d="M406.000336 442.604949h156.513112l29.435111 127.640091H434.747174l-28.746838-127.640091z" p-id="11757"/><path fill="#FC3A64" d="M718.556241 241.893286h134.098379v47.61697H718.556241z" p-id="11758"/><path fill="#FC3A64" d="M718.556241 288.087826h134.098379v47.61697H718.556241z" p-id="11759"/></svg>