<svg xmlns="http://www.w3.org/2000/svg" width="200" height="200" class="icon" p-id="22845" t="1750062332711" version="1.1" viewBox="0 0 1024 1024"><path fill="#44AA72" d="M781.9264 84.5312A153.6 153.6 0 0 1 972.8 233.5232v505.7024a153.6 153.6 0 0 1-116.3264 148.992L512 974.4384l-344.4736-86.1184A153.6 153.6 0 0 1 51.2 739.2768V233.5232a153.6 153.6 0 0 1 190.8736-148.992L512 151.9104zM691.2 307.2a76.8 76.8 0 0 0-58.4192 126.6688l-51.456 85.8112a127.744 127.744 0 0 0-103.168 6.912L438.3744 473.6a102.4 102.4 0 1 0-40.96 30.72l41.0112 54.784a128 128 0 1 0 186.5728-12.5952l52.1728-86.9376A76.8 76.8 0 1 0 691.2 307.2z" p-id="22846"/></svg>