<svg xmlns="http://www.w3.org/2000/svg" width="200" height="200" class="icon" p-id="35562" t="1750062681470" version="1.1" viewBox="0 0 1024 1024"><path fill="#F78C6C" d="M567.68 685.44H456.32V512L372.096 622.912 288 512.064v173.312h-111.36V338.752h111.36l84.16 115.968L456.32 338.752h111.36v346.624z m167.104 27.968L596.224 512h84.16V338.688h111.36V512h84.224l-141.056 201.408h-0.128zM895.68 224H128.32a60.928 60.928 0 0 0-45.12 19.712c-12.8 13.184-19.2 28.672-19.2 46.528v443.52c0 18.688 6.4 34.432 19.2 47.168 12.8 12.736 27.776 19.072 45.12 19.072h767.36c17.28 0 32.384-6.4 45.184-19.072 12.8-12.736 19.136-28.48 19.136-47.168v-443.52c0-17.856-6.4-33.344-19.2-46.528a60.928 60.928 0 0 0-45.12-19.712z" p-id="35563"/></svg>