<svg t="1750062397968" class="icon" viewBox="0 0 1024 1024" version="1.1" xmlns="http://www.w3.org/2000/svg" p-id="24769" width="200" height="200"><path d="M512 1024A512 512 0 1 1 512 0c282.76 0 512 229.24 512 512s-229.24 512-512 512z m0.341-33.382c264.124 0 478.231-214.13 478.231-478.254s-214.107-478.23-478.23-478.23c-264.124 0-478.231 214.13-478.231 478.23 0 264.124 214.107 478.254 478.23 478.254z" fill="#325F72" p-id="24770"></path><path d="M955.733 509.27c0 233.813-181.589 425.073-411.124 439.819a257.82 257.82 0 0 0 129.297-223.574c0-112.412-73.614-193.263-172.829-236.544-69.29-34.884-119.921-106.154-119.921-189.167 0-117.122 86.357-216.746 212.878-218.794 28.217-0.455 55.182 5.53 82.944 15.018 164 64.512 278.824 226.304 278.824 413.173l-0.069 0.068z m-66.15-11.105c-25.395-0.57-45.056 1.888-61.577 8.715-4.778 1.889-12.333 1.889-12.97 7.782 2.503 2.504 2.867 6.554 5.074 9.967 3.8 6.258 10.468 14.61 16.498 19.001 6.645 4.96 13.312 9.944 20.252 14.268 12.402 7.51 26.329 11.833 38.412 19.342 6.986 4.324 13.926 9.967 20.935 14.632 3.459 2.458 5.689 6.485 10.103 8.078v-0.978c-2.207-2.776-2.821-6.827-5.051-9.944l-9.49-8.989a149.117 149.117 0 0 0-32.995-31.448c-10.149-6.827-32.381-16.157-36.477-27.648l-0.637-0.637c6.963-0.615 15.2-3.118 21.845-5.006 10.809-2.777 20.662-2.162 31.744-4.938 5.12-1.275 10.149-2.868 15.2-4.392v-2.845c-5.688-5.575-9.784-13.016-15.814-18.318a422.343 422.343 0 0 0-52.338-38.275c-9.853-6.212-22.528-10.24-32.996-15.542-3.823-1.866-10.126-2.844-12.356-5.916-5.689-6.827-8.875-15.884-13.016-23.94a790.596 790.596 0 0 1-26.01-54.157c-5.689-12.129-9.193-24.258-16.156-35.453-32.632-52.907-68.199-84.992-122.766-116.395-11.72-6.531-25.646-9.33-40.55-12.743-7.965-0.342-15.861-0.979-23.78-1.252-5.12-2.162-10.172-8.078-14.61-10.877-18.09-11.196-64.693-35.499-78.005-3.413-8.534 20.207 12.674 40.118 19.979 50.358 5.393 7.168 12.333 15.246 16.156 23.324 2.276 5.348 2.822 10.923 5.098 16.498 5.074 13.722 9.785 29.013 16.497 41.71 3.414 6.532 7.282 13.427 11.742 19.343 2.503 3.413 6.94 4.938 7.965 10.559-4.506 6.212-4.847 15.542-7.419 23.347-11.377 35.157-6.94 78.734 9.285 104.493 5.051 7.806 17.066 24.918 33.291 18.387 14.222-5.598 11.082-23.347 15.178-38.867 0.956-3.754 0.341-6.257 2.276-8.76v0.614c4.369 8.76 8.874 17.135 12.97 25.828 9.853 15.246 26.966 31.13 41.256 41.71 7.555 5.621 13.653 15.247 23.142 18.66v-0.91h-0.682c-1.889-2.845-4.71-4.05-7.282-6.258a151.893 151.893 0 0 1-16.498-18.66 398.95 398.95 0 0 1-35.498-56.593c-5.12-9.67-9.512-20.252-13.654-29.878-1.866-3.754-1.866-9.33-5.074-11.195-4.779 6.826-11.697 12.743-15.178 21.162-6.03 13.358-6.713 29.856-8.92 46.968-1.252 0.296-0.57 0-1.252 0.591-10.149-2.457-13.653-12.697-17.408-21.458-9.557-22.073-11.15-57.503-2.844-83.058 2.161-6.53 11.719-27.079 7.896-33.291-1.934-5.917-8.238-9.33-11.72-13.995a124.518 124.518 0 0 1-11.423-19.911c-7.623-17.454-11.377-36.75-19.706-54.158-3.8-8.056-10.467-16.475-15.86-23.94-6.03-8.419-12.675-14.335-17.409-24.302-1.592-3.413-3.8-8.966-1.251-12.743 0.569-2.503 1.889-3.413 4.437-4.028 4.096-3.413 15.815 0.91 19.911 2.776 11.765 4.688 21.618 9.057 31.471 15.542 4.438 3.14 9.148 9.034 14.882 10.582h6.668c10.126 2.23 21.572 0.637 31.061 3.413 16.84 5.348 32.04 13.084 45.693 21.504a279.142 279.142 0 0 1 98.987 106.382c3.755 7.168 5.325 13.7 8.806 21.163 6.668 15.246 14.905 30.834 21.618 45.784 6.6 14.632 12.97 29.582 22.483 41.643 4.778 6.553 23.756 9.967 32.358 13.426 6.326 2.798 16.156 5.302 21.845 8.715 10.81 6.53 21.618 13.995 31.744 21.163 5.12 3.709 20.935 11.491 21.914 17.68z m-336.51-268.743v0.682h0.683c2.731 5.234 7.555 8.83 10.969 13.426 2.799 5.234 5.188 10.468 7.964 15.701l0.683-0.614c4.847-3.3 7.236-8.533 7.236-16.384-2.048-2.276-2.39-4.597-4.164-6.895-2.048-3.3-6.531-4.938-9.262-7.555a54.613 54.613 0 0 0-14.108 1.707v-0.046z" fill="#DD8F3B" p-id="24771"></path><path d="M69.632 512.341c0-233.745 181.59-425.073 411.147-439.819a257.82 257.82 0 0 0-129.32 223.573c0 112.413 73.615 193.263 172.829 236.544 69.29 34.93 119.99 106.223 119.99 189.099 0 117.146-86.38 216.77-212.9 218.817-28.218 0.455-55.16-5.53-82.945-15.018C184.502 861.002 69.632 699.21 69.632 512.319z m60.53 17.75c25.372 0.569 45.056-1.889 61.554-8.716 4.778-1.866 12.333-1.866 12.97-7.782-2.503-2.503-2.844-6.554-5.074-9.967a73.205 73.205 0 0 0-16.498-18.978c-6.645-4.96-13.312-9.967-20.252-14.29-12.38-7.51-26.329-11.834-38.39-19.343-6.985-4.323-13.948-9.944-20.934-14.632-3.46-2.435-5.69-6.485-10.126-8.078v0.979c2.23 2.776 2.844 6.826 5.051 9.944l9.512 9.01c9.216 12.152 20.64 22.756 32.996 31.45 10.126 6.826 32.358 16.156 36.477 27.647l0.614 0.637c-6.94 0.615-15.178 3.118-21.845 5.006-10.809 2.777-20.64 2.162-31.744 4.938-5.12 1.252-10.126 2.845-15.178 4.392v2.845c5.689 5.552 9.785 13.016 15.792 18.318 16.225 13.653 33.974 27.079 52.338 38.275 9.853 6.19 22.528 10.24 32.996 15.52 3.823 1.888 10.149 2.866 12.356 5.916 5.689 6.826 8.875 15.883 13.016 23.961 9.17 17.135 18.09 36.136 26.01 54.158 5.689 12.106 9.216 24.235 16.156 35.43 32.654 52.907 68.221 84.993 122.766 116.395 11.72 6.554 25.669 9.33 40.55 12.744 7.965 0.364 15.884 0.978 23.803 1.251 5.12 2.185 10.172 8.101 14.61 10.877 18.09 11.196 64.67 35.499 77.982 3.414 8.534-20.185-12.674-40.096-19.956-50.336-5.416-7.168-12.334-15.246-16.157-23.347-2.275-5.325-2.844-10.923-5.12-16.475-5.051-13.722-9.785-29.036-16.497-41.71a149.686 149.686 0 0 0-11.72-19.343c-2.503-3.413-6.94-4.938-7.964-10.581 4.483-6.213 4.847-15.52 7.396-23.325 11.377-35.157 6.94-78.734-9.262-104.493-5.074-7.806-17.067-24.918-33.291-18.387-14.223 5.575-11.082 23.325-15.201 38.867-0.956 3.754-0.319 6.235-2.276 8.738v-0.615c-4.369-8.76-8.874-17.135-12.97-25.827-9.83-15.246-26.966-31.13-41.233-41.688-7.578-5.644-13.654-15.247-23.143-18.66v0.91h0.683c1.866 2.822 4.71 4.028 7.282 6.235 5.689 5.575 12.06 12.402 16.475 18.66 13.312 17.43 25.03 36.705 35.498 56.616 5.12 9.67 9.512 20.252 13.654 29.878 1.888 3.754 1.888 9.33 5.074 11.195 4.779-6.826 11.72-12.743 15.2-21.162 6.008-13.358 6.691-29.878 8.921-46.99 1.252-0.296 0.569 0 1.252-0.57 10.126 2.458 13.653 12.698 17.408 21.436 9.557 22.073 11.15 57.526 2.844 83.058-2.162 6.554-11.719 27.08-7.896 33.292 1.911 5.916 8.237 9.33 11.719 13.994 4.142 5.917 8.579 13.426 11.423 19.911 7.623 17.477 11.378 36.75 19.684 54.159 3.8 8.078 10.467 16.497 15.883 23.938 6.008 8.42 12.675 14.336 17.408 24.303 1.593 3.414 3.8 8.989 1.23 12.743-0.547 2.504-1.867 3.414-4.438 4.05-4.096 3.414-15.815-0.91-19.911-2.798a162.93 162.93 0 0 1-31.449-15.52c-4.437-3.14-9.147-9.056-14.904-10.58h-6.645c-10.126-2.23-21.572-0.638-31.061-3.414a204.459 204.459 0 0 1-45.694-21.527 278.073 278.073 0 0 1-98.986-106.382c-3.755-7.168-5.348-13.699-8.807-21.163-6.667-15.246-14.927-30.833-21.617-45.784-6.6-14.632-12.971-29.582-22.483-41.642-4.779-6.554-23.78-9.967-32.381-13.426-6.303-2.776-16.156-5.302-21.845-8.716a544.845 544.845 0 0 1-31.722-21.162c-5.142-3.687-20.935-11.47-21.913-17.681zM466.67 798.834v-0.683h-0.683c-2.73-5.234-7.577-8.829-10.99-13.426-2.777-5.233-5.189-10.467-7.965-15.701l-0.683 0.637c-4.824 3.3-7.213 8.533-7.213 16.384 2.048 2.276 2.389 4.597 4.141 6.872 2.048 3.3 6.531 4.961 9.262 7.578a54.613 54.613 0 0 0 14.108-1.707v0.046z" fill="#325F72" p-id="24772"></path></svg>