<svg xmlns="http://www.w3.org/2000/svg" width="200" height="200" class="icon" p-id="5416" t="1750327890718" version="1.1" viewBox="0 0 1024 1024"><path d="M190.3619 179.479263c31.818329 25.847061 43.760866 23.885073 103.558852 19.875793l563.645073-33.822969c11.942537 0 2.00464-11.942537-1.961988-13.904525L761.940229 83.938971c-17.913805-13.904525-41.84153-29.856341-87.649688-25.889713L128.559273 97.886148c-19.875793 1.961988-23.885073 11.942537-15.951816 19.875793z m33.822969 131.367902v593.032243c0 31.860981 15.909165 43.803518 51.779427 41.798878l619.433779-35.827609c35.870262-1.961988 39.879542-23.885073 39.879541-49.774787V271.010276c0-25.847061-9.937896-39.794238-31.903633-37.83225l-647.328132 37.83225c-23.885073 2.00464-31.860981 13.947177-31.860982 39.794237z m611.500523 31.775678c3.966628 17.913805 0 35.82761-17.913805 37.874902l-29.856341 5.971268v437.779268c-25.932365 13.947177-49.817438 21.923085-69.735883 21.923085-31.903633 0-39.879542-9.980548-63.764615-39.794238l-195.21782-306.49667v296.516122L520.956902 810.386408s0 35.82761-49.817438 35.82761l-137.424474 7.933256c-3.966628-7.933256 0-27.851701 13.947177-31.818329l35.827609-9.937897V420.291982L333.800294 416.282702c-4.00928-17.913805 5.971268-43.760866 33.82297-45.765506l147.405022-9.937896 203.193729 310.463298v-274.678341l-51.822078-5.928616c-3.966628-21.923085 11.942537-37.83225 31.860981-39.794238zM82.751115 44.144733l567.697005-41.798878c69.693231-5.971268 87.649688-2.00464 131.453206 29.856342l181.227992 127.358622c29.856341 21.880433 39.83689 27.851701 39.83689 51.736774v698.553084c0 43.760866-15.909165 69.693231-71.65522 73.617207l-659.313321 39.83689c-41.798878 2.00464-61.759975-3.966628-83.683059-31.860982l-133.457846-173.166779c-23.885073-31.860981-33.82297-55.703403-33.82297-83.597756V113.752661c0-35.784958 15.951817-65.683951 61.717323-69.607928z" p-id="5417"/></svg>