<svg t="1750062461539" class="icon" viewBox="0 0 1159 1024" version="1.1" xmlns="http://www.w3.org/2000/svg" p-id="26723" width="200" height="200"><path d="M431.847849 806.013585h2.782189L560.504755 1024H323.352151c-22.247849 0-47.983094-15.273057-59.102189-34.014189L8.346566 547.057509c-11.128755-18.741132-11.128755-49.287245 0-68.038037l255.903396-442.928302c11.128755-18.741132 37.559547-34.004528 59.12151-34.004528H557.017358l-125.169509 215.909433a39.588226 39.588226 0 0 0-39.636528 39.568906c0 6.936151 2.086642 13.881962 5.564377 20.132227L283.725283 473.474415c-21.552302 0-39.636528 17.350038-39.636528 39.568906 0 21.523321 17.388679 39.568906 39.636528 39.568905h3.477736l111.963773 192.995019c-12.519849 18.055245-7.651019 42.351094 10.433208 54.851623 6.250264 3.468075 13.910943 5.554717 22.247849 5.554717z m289.28966-76.374943s-0.695547 0 0 0L609.869283 538.034717c3.477736-4.163623 6.259925-9.71834 7.651019-15.273057h220.449811c0 2.076981 0.695547 4.163623 2.086642 5.554717l-20.170868 34.709736-95.966189 167.317736c-0.695547-0.705208-2.086642 0-2.782189-0.705207z m429.761208-251.305057c11.128755 18.741132 11.128755 49.287245 0 68.028377l-255.903396 442.928302c-11.128755 18.741132-37.559547 34.014189-59.12151 34.014189H605.70566L473.571019 794.208604h223.927547c6.955472 8.327245 18.074566 13.186415 29.203321 13.186415 21.561962 0 38.940981-17.350038 38.940981-39.568906 0-5.554717-1.391094-11.109434-3.477736-15.968604l115.44151-200.636377a39.530264 39.530264 0 0 0 36.854339-39.568906c0-20.827774-15.302038-37.482264-35.463245-39.568905l-116.137057-201.322264c7.651019-20.141887-2.086642-43.046642-22.247849-50.688a36.371321 36.371321 0 0 0-14.60649-2.772529 39.626868 39.626868 0 0 0-38.255095 28.459472H469.397736a24.31517 24.31517 0 0 0-4.173283-9.71834L601.532377 0h232.96c22.247849 0 47.983094 15.273057 59.102189 34.014189l257.304151 444.319396zM430.466415 728.247547L317.101887 533.185208l2.086641-4.163623c0.695547-1.391094 0.695547-2.782189 1.391095-3.477736v-0.695547c0.695547-1.381434 0.695547-2.076981 0.695547-3.468076v-0.695547c0.695547-1.381434 0.695547-2.772528 0.695547-4.153962v-0.705208c0.695547-5.554717 0-11.109434-2.086642-16.65449-0.695547-2.086642-2.086642-4.173283-3.477735-6.955472v-0.685887L430.466415 295.047245c4.86883 0 9.73766-0.685887 13.910943-2.772528L553.539623 480.410566c-9.042113 7.631698-14.606491 18.055245-14.606491 30.546113 0 9.022792 3.477736 18.055245 9.042113 24.991396v0.695548L438.098113 726.866113c-1.391094 2.086642-4.173283 1.391094-7.651019 1.391095z m33.376604 17.359698c-2.086642-2.772528-4.173283-5.554717-6.955472-8.327245l-0.685887-0.695547 108.486038-187.440302c2.076981 0.695547 4.163623 1.381434 6.955472 2.076981 2.076981 0.695547 4.85917 0.695547 7.641358 0.695547h4.173283c3.477736-0.695547 6.955472-1.391094 10.433208-2.772528 1.391094-0.695547 2.086642-0.695547 3.477736-1.391094l109.867471 187.440301c-7.641358 4.85917-13.205736 11.804981-16.683471 20.132227H468.702189c-1.391094-3.468075-2.782189-6.936151-4.868831-9.71834z m356.748075-296.438339l23.648604 40.96a46.012377 46.012377 0 0 0-6.259924 13.196075l-220.449812-0.695547a40.158189 40.158189 0 0 0-13.910943-21.523321l-1.381434-1.391094c-8.346566-6.240604-18.779774-8.327245-29.212981-6.240604L461.746717 281.86083s0-0.695547 0.695547-0.695547c0.695547-0.695547 1.391094-2.086642 2.086642-2.772528 2.086642-3.477736 4.173283-7.631698 4.86883-11.804981v-0.695548h219.058717c4.173283 18.055245 20.161208 30.546113 38.931321 30.546114h5.574037l87.619623 152.730566z" fill="#FF6A00" p-id="26724"></path></svg>