<svg xmlns="http://www.w3.org/2000/svg" width="200" height="200" class="icon" p-id="32853" t="1750062583793" version="1.1" viewBox="0 0 1024 1024"><path fill="#F2CB51" d="M805.093878 462.367347H219.428571V194.35102C219.428571 150.465306 254.955102 114.938776 298.840816 114.938776h426.840817c43.885714 0 79.412245 35.526531 79.412245 79.412244v268.016327zM725.681633 909.061224H298.840816c-43.885714 0-79.412245-35.526531-79.412245-79.412244v-109.191837h585.665307v109.191837c0 43.885714-36.04898 79.412245-79.412245 79.412244z" p-id="32854"/><path fill="#E5404F" d="M829.64898 760.163265H194.35102c-43.885714 0-79.412245-35.526531-79.412244-79.412245V502.073469c0-43.885714 35.526531-79.412245 79.412244-79.412245h635.29796c43.885714 0 79.412245 35.526531 79.412244 79.412245v178.677551c0 43.885714-35.526531 79.412245-79.412244 79.412245z" p-id="32855"/><path fill="#AF8015" d="M685.97551 359.967347H338.546939c-10.971429 0-19.853061-8.881633-19.853061-19.853061 0-10.971429 8.881633-19.853061 19.853061-19.853062h347.428571c10.971429 0 19.853061 8.881633 19.853061 19.853062 0 10.971429-9.404082 19.853061-19.853061 19.853061zM685.97551 257.044898H338.546939c-10.971429 0-19.853061-8.881633-19.853061-19.853061 0-10.971429 8.881633-19.853061 19.853061-19.853061h347.428571c10.971429 0 19.853061 8.881633 19.853061 19.853061 0 10.971429-9.404082 19.853061-19.853061 19.853061z" p-id="32856"/><path fill="#FFEEF0" d="M397.061224 527.673469h-13.061224c-2.089796 0-4.179592 1.567347-4.702041 3.657143l-22.987755 81.502041c-1.567347 4.702041-2.612245 9.404082-3.657143 14.106123-1.567347-5.22449-2.612245-10.44898-4.702041-15.67347L323.918367 531.330612c-0.522449-2.089796-2.612245-3.657143-4.70204-3.657143H308.244898c-2.089796 0-4.179592 1.567347-4.702041 3.657143l-24.555102 80.457143c-1.567347 6.269388-3.134694 11.493878-4.702041 16.718367-1.044898-4.702041-2.612245-9.926531-4.179592-15.15102l-21.942857-81.502041c-0.522449-2.089796-2.612245-3.657143-4.702041-3.657143h-13.061224c-1.567347 0-3.134694 0.522449-4.179592 2.089796-1.044898 1.044898-1.044898 2.612245-1.044898 4.179592l36.571429 129.567347c0.522449 2.089796 2.612245 3.657143 4.702041 3.657143h13.061224c2.089796 0 4.179592-1.567347 4.702041-3.657143l26.122449-85.681633c1.044898-3.134694 1.567347-6.269388 2.612245-9.404081 1.044898 3.134694 1.567347 6.269388 2.612245 9.404081l25.077551 85.681633c0.522449 2.089796 2.612245 3.657143 4.702041 3.657143h12.538775c2.089796 0 4.179592-1.567347 4.702041-3.657143l38.138775-129.567347c0.522449-1.567347 0-3.134694-1.044898-4.179592 0.522449-1.567347-1.044898-2.612245-2.612245-2.612245zM514.089796 534.465306c-9.926531-5.746939-21.942857-8.359184-35.004082-8.359184-20.37551 0-37.093878 6.269388-48.587755 19.330613-11.493878 12.538776-17.763265 30.302041-17.763265 51.722449 0 14.106122 2.612245 26.644898 7.836735 37.616326 5.22449 10.971429 13.061224 19.853061 22.987755 25.6 9.926531 5.746939 21.942857 8.881633 35.52653 8.881633 13.061224 0 25.077551-3.134694 35.004082-8.881633 9.926531-5.746939 17.763265-14.628571 23.510204-25.6 5.22449-10.971429 7.836735-23.510204 7.836735-37.616326s-2.612245-26.644898-7.836735-37.616327c-5.746939-10.971429-13.061224-19.330612-23.510204-25.077551z m8.359184 62.693878c0 16.718367-3.657143 29.779592-11.493878 38.661224-7.314286 8.881633-18.285714 13.061224-32.391837 13.061225-13.583673 0-24.032653-4.702041-31.869387-13.583674-7.836735-9.404082-12.016327-21.942857-12.016327-38.138775 0-16.195918 3.657143-28.734694 11.493878-37.616327 7.836735-8.881633 18.285714-13.061224 32.391836-13.061224s24.555102 4.179592 31.869388 13.061224c8.359184 8.881633 12.016327 21.420408 12.016327 37.616327zM631.640816 608.653061c7.836735-2.089796 14.628571-6.269388 19.853062-12.016326 6.791837-7.314286 10.44898-16.718367 10.448979-27.689796 0-13.061224-4.702041-22.987755-13.583673-30.302041-8.881633-7.314286-20.897959-10.971429-36.04898-10.971429H574.693878c-2.612245 0-4.702041 2.089796-4.702041 4.702041v129.567347c0 2.612245 2.089796 4.702041 4.702041 4.702041h12.538775c2.612245 0 4.702041-2.089796 4.702041-4.702041V611.265306h15.673469l33.959184 53.812245c1.044898 1.567347 2.612245 2.089796 4.179592 2.089796h14.628571c1.567347 0 3.657143-1.044898 4.179592-2.612245 1.044898-1.567347 0.522449-3.657143 0-5.22449l-32.914286-50.677551z m-39.183673-61.12653h18.808163c9.404082 0 16.718367 2.089796 21.420408 5.746938 4.702041 3.657143 6.791837 8.881633 6.791837 15.67347 0 7.314286-2.089796 12.538776-6.791837 16.718367-4.702041 4.179592-11.493878 6.269388-20.37551 6.269388h-19.853061v-44.408163zM780.016327 545.436735c-12.016327-11.493878-29.779592-17.763265-52.767347-17.763266h-36.04898c-2.612245 0-4.702041 2.089796-4.702041 4.702041v129.567347c0 2.612245 2.089796 4.702041 4.702041 4.702041h40.228571c13.061224 0 25.077551-3.134694 35.004082-8.359184 9.926531-5.746939 18.285714-14.106122 23.510204-25.077551 5.22449-10.971429 8.359184-23.510204 8.359184-37.616326 0-21.420408-6.269388-38.661224-18.285714-50.155102z m-4.179592 50.677551c0 16.195918-4.179592 28.734694-12.016327 37.616326-7.836735 8.881633-19.330612 13.061224-33.436735 13.061225h-21.420408v-98.742857h18.285715c32.914286 0 48.587755 15.673469 48.587755 48.065306z" p-id="32857"/></svg>