<svg t="1750062539623" class="icon" viewBox="0 0 1043 1024" version="1.1" xmlns="http://www.w3.org/2000/svg" p-id="30739" width="200" height="200"><path d="M307.679206 25.96555a153.296807 153.296807 0 0 0-153.296807 153.497457 149.885753 149.885753 0 0 0 11.437065 57.787279A153.096157 153.096157 0 0 0 84.355454 514.950261a153.096157 153.096157 0 0 0 81.46401 277.699976 149.885753 149.885753 0 0 0-11.437065 57.787278 153.497458 153.497458 0 1 0 306.794265 0V179.463007A153.296807 153.296807 0 0 0 307.679206 25.96555z" fill="#CAF6CA" p-id="30740"></path><path d="M307.679206 1024a173.763135 173.763135 0 0 1-173.361835-173.562485 165.737124 165.737124 0 0 1 5.016257-40.130054 173.161184 173.161184 0 0 1-86.279617-294.554599 173.161184 173.161184 0 0 1 86.279617-294.554598 165.737124 165.737124 0 0 1-5.016257-40.130054A173.562485 173.562485 0 1 1 481.642991 179.463007v670.974508a173.763135 173.763135 0 0 1-173.963785 173.562485z m0-977.969423a133.432431 133.432431 0 0 0-123.399917 183.594998 20.065027 20.065027 0 0 1-1.605202 18.459825 20.065027 20.065027 0 0 1-15.851372 9.229913 133.23178 133.23178 0 0 0-70.829545 240.780325 20.065027 20.065027 0 0 1 8.427311 16.252672 20.065027 20.065027 0 0 1-8.427311 16.252672 133.23178 133.23178 0 0 0 70.829545 240.780326 20.065027 20.065027 0 0 1 17.456574 27.489087 136.442185 136.442185 0 0 0-9.831863 50.363219 133.432431 133.432431 0 1 0 266.66421 0V179.463007A133.432431 133.432431 0 0 0 307.679206 46.030577z" fill="#296629" p-id="30741"></path><path d="M952.970479 514.950261a153.096157 153.096157 0 0 0-81.26336-277.699975 153.497458 153.497458 0 1 0-295.55785-57.787279v670.974508a153.497458 153.497458 0 1 0 295.55785-57.787278 153.096157 153.096157 0 0 0 81.26336-277.699976z" fill="#6BB36B" p-id="30742"></path><path d="M729.646727 1024a173.763135 173.763135 0 0 1-173.562485-173.562485V179.463007a173.562485 173.562485 0 1 1 346.924319 0 175.568988 175.568988 0 0 1-4.815606 40.130055 173.361835 173.361835 0 0 1 86.078966 294.554598 173.361835 173.361835 0 0 1-86.078966 294.554599 173.763135 173.763135 0 0 1-168.546228 214.49514z m0-977.969423a133.432431 133.432431 0 0 0-133.432431 133.43243v670.974508a133.432431 133.432431 0 1 0 266.664211 0 130.623327 130.623327 0 0 0-9.831863-50.162568 20.065027 20.065027 0 0 1 1.605202-18.459825 20.065027 20.065027 0 0 1 16.052022-9.229912 133.23178 133.23178 0 0 0 70.628895-240.780326 20.065027 20.065027 0 0 1-8.427311-16.252672 20.065027 20.065027 0 0 1 8.427311-16.252672 133.23178 133.23178 0 0 0-70.628895-240.780326 20.065027 20.065027 0 0 1-17.657224-27.689737A130.623327 130.623327 0 0 0 862.878507 179.463007 133.432431 133.432431 0 0 0 729.646727 46.030577zM461.577964 678.881533a20.065027 20.065027 0 0 1-20.065027-16.854623c-16.252672-98.519283-191.219709-117.380409-193.025561-117.581059a20.065027 20.065027 0 0 1-18.058525-21.870879 20.065027 20.065027 0 0 1 22.07153-18.058525C260.927693 505.319048 459.571461 527.591228 481.642991 655.405451a20.065027 20.065027 0 0 1-16.653972 23.074782z" fill="#296629" p-id="30743"></path><path d="M576.149269 678.881533h-3.210404a20.065027 20.065027 0 0 1-16.453322-23.074781c21.469579-128.616824 220.715299-150.086403 228.741309-150.889004a20.065027 20.065027 0 0 1 21.87088 18.058524 20.065027 20.065027 0 0 1-17.857875 21.87088c-1.805852 0-176.772889 19.061776-193.226211 117.581059a20.065027 20.065027 0 0 1-19.864377 16.453322z" fill="#296629" p-id="30744"></path></svg>