<svg xmlns="http://www.w3.org/2000/svg" width="200" height="200" class="icon" p-id="42658" t="1750062785836" version="1.1" viewBox="0 0 1024 1024"><path d="M763.306667 762.026667h16.938666v7.424h1.194667a19.882667 19.882667 0 0 1 26.410667-6.613334l-4.693334 15.914667a15.530667 15.530667 0 0 0-7.850666-1.834667 12.288 12.288 0 0 0-10.368 4.693334 20.096 20.096 0 0 0-3.498667 12.373333v27.093333h-18.090667z m-11.093334 44.714666a32.682667 32.682667 0 0 1-11.52 11.946667 31.616 31.616 0 0 1-16.981333 4.309333 35.072 35.072 0 0 1-12.8-2.304 32.085333 32.085333 0 0 1-10.112-6.613333 30.037333 30.037333 0 0 1-9.130667-22.570667c0-4.266667 0.768-8.277333 2.389334-12.032a30.677333 30.677333 0 0 1 6.656-10.026666 30.933333 30.933333 0 0 1 22.570666-9.386667 32 32 0 0 1 12.885334 2.389333 27.392 27.392 0 0 1 15.061333 16.384 36.096 36.096 0 0 1 1.578667 17.152h-43.52c0.853333 3.84 2.688 6.656 5.418666 8.448a16.512 16.512 0 0 0 9.130667 2.645334 14.72 14.72 0 0 0 13.653333-7.68z m-16.042666-23.04a9.685333 9.685333 0 0 0-1.28-3.157333 8.96 8.96 0 0 0-2.474667-2.986667 11.264 11.264 0 0 0-3.968-2.304 13.866667 13.866667 0 0 0-18.346667 8.448z m-52.992 23.04a32.682667 32.682667 0 0 1-11.52 11.946667 31.616 31.616 0 0 1-16.938667 4.309333 35.072 35.072 0 0 1-12.8-2.304 32.085333 32.085333 0 0 1-10.112-6.613333 30.037333 30.037333 0 0 1-9.173333-22.570667c0-4.266667 0.810667-8.277333 2.432-12.032a30.677333 30.677333 0 0 1 6.613333-10.026666 30.933333 30.933333 0 0 1 22.570667-9.386667c4.906667 0 9.173333 0.768 12.885333 2.389333a27.392 27.392 0 0 1 15.061333 16.384 36.096 36.096 0 0 1 1.578667 17.152h-43.52c0.853333 3.84 2.688 6.656 5.418667 8.448a16.512 16.512 0 0 0 9.173333 2.645334 14.72 14.72 0 0 0 13.653333-7.68z m-16.042667-23.04a9.685333 9.685333 0 0 0-1.194667-3.157333 8.96 8.96 0 0 0-2.56-2.986667 11.264 11.264 0 0 0-3.968-2.304 13.866667 13.866667 0 0 0-18.346666 8.448z m-81.834667-6.144l-10.368-0.170666 0.170667-16.554667 10.666667 0.512-0.298667-17.493333 17.578667 0.170666-0.682667 16.64 15.658667 0.853334-0.512 15.146666-15.573334 0.341334 0.554667 20.053333c-0.512 3.925333 0.938667 6.186667 1.152 8.277333 3.413333 4.266667 5.845333 2.901333 5.845333 2.901334 0.853333-0.341333 6.912-1.152 7.552-1.621334l1.706667 16.554667c-5.888 3.498667-16.085333 1.536-16.085333 1.536-10.794667-1.578667-16.341333-9.258667-16.384-12.501333-1.066667-2.901333-0.768-8.96-1.237334-12.373334z m-17.578666 30.592c-1.578667 5.376-7.338667 9.301333-12.074667 12.16a32.938667 32.938667 0 0 1-17.322667 4.693334 40.277333 40.277333 0 0 1-13.653333-3.285334c-3.84-1.621333-7.04-4.821333-9.941333-7.68-2.901333-2.773333-3.968-6.058667-5.589334-9.813333a35.072 35.072 0 0 1-1.92-13.226667c-0.64-8.277333 5.376-16.128 9.045334-21.546666 11.946667-10.154667 20.906667-9.386667 20.906666-9.386667 16.512-3.2 29.696 12.288 30.634667 18.645333 1.28 3.669333 0.938667 7.68 0.938667 11.946667-0.213333 2.304 0 2.133333-1.322667 5.333333h-44.245333c0.853333 3.84 2.688 8.192 4.437333 10.24 2.048 2.56 5.461333 2.56 8.832 2.56 3.370667 0 6.954667 0.085333 9.130667-1.365333 2.261333-1.450667 7.338667-3.072 8.661333-5.333333z m-15.786667-23.808a17.493333 17.493333 0 0 0-1.706667-4.138666c-0.597333-1.109333-2.133333-1.962667-3.242666-2.816-1.024-0.981333-3.029333-1.578667-4.650667-2.133334a13.226667 13.226667 0 0 0-5.162667-0.981333 11.690667 11.690667 0 0 0-7.168 2.261333c-2.432 1.578667-4.138667 5.12-5.248 8.106667z m-99.84-15.872h1.194667a16.554667 16.554667 0 0 1 6.272-5.888 21.248 21.248 0 0 1 10.837333-2.56 26.581333 26.581333 0 0 1 19.925333 8.832 29.696 29.696 0 0 1 6.272 9.898667c1.536 3.84 2.261333 8.106667 2.261334 12.8a34.133333 34.133333 0 0 1-2.261334 12.8 31.104 31.104 0 0 1-6.272 9.984 27.605333 27.605333 0 0 1-19.925333 8.661333 22.101333 22.101333 0 0 1-10.837333-2.389333 17.450667 17.450667 0 0 1-6.272-6.058667h-1.194667l1.194667 8.448v24.106667H435.2V762.026667h16.896z m14.336 8.448a14.506667 14.506667 0 0 0-13.226667 8.576 15.786667 15.786667 0 0 0-1.109333 6.016c0 2.261333 0.341333 4.309333 1.066667 6.186667a15.445333 15.445333 0 0 0 3.157333 4.565333c1.365333 1.194667 2.901333 2.133333 4.565333 2.901334a16.128 16.128 0 0 0 10.965334 0 14.848 14.848 0 0 0 4.608-2.901334 12.970667 12.970667 0 0 0 3.114666-4.565333 15.274667 15.274667 0 0 0 1.194667-6.186667 14.421333 14.421333 0 0 0-14.336-14.592z m-86.442667-8.448h1.28a16.554667 16.554667 0 0 1 6.229334-5.888 21.248 21.248 0 0 1 10.837333-2.56 26.581333 26.581333 0 0 1 19.882667 8.832 29.696 29.696 0 0 1 6.272 9.898667c1.536 3.84 2.304 8.106667 2.304 12.8a34.133333 34.133333 0 0 1-2.304 12.8 31.104 31.104 0 0 1-6.272 9.984 27.605333 27.605333 0 0 1-19.882667 8.661333 22.101333 22.101333 0 0 1-10.837333-2.389333 17.450667 17.450667 0 0 1-6.272-6.058667h-1.237334l1.28 8.448v24.106667H363.093333V762.026667h16.853334z m14.378667 8.448a14.506667 14.506667 0 0 0-13.226667 8.576 15.786667 15.786667 0 0 0-1.152 6.016c0 2.261333 0.426667 4.309333 1.109334 6.186667a15.445333 15.445333 0 0 0 3.114666 4.565333c1.365333 1.194667 2.901333 2.133333 4.608 2.901334a16.128 16.128 0 0 0 10.965334 0 14.848 14.848 0 0 0 4.565333-2.901334 12.928 12.928 0 0 0 3.157333-4.565333 15.274667 15.274667 0 0 0 1.194667-6.186667 14.421333 14.421333 0 0 0-8.96-13.482666 13.653333 13.653333 0 0 0-5.376-1.109334z m-61.141333 36.693334h-1.194667a20.053333 20.053333 0 0 1-18.090667 9.386666c-7.424 0-12.928-2.346667-16.512-7.125333a29.994667 29.994667 0 0 1-5.461333-18.688v-35.2h18.090667v33.152c0 3.242667 0.768 5.888 2.304 7.978667 1.536 2.005333 3.882667 2.986667 7.125333 2.986666a10.453333 10.453333 0 0 0 9.258667-4.693333 21.205333 21.205333 0 0 0 3.285333-12.288v-27.136h18.090667v59.093333H333.226667z m-110.677334 7.466666V734.72h30.890667a34.986667 34.986667 0 0 1 12.16 2.048 28.885333 28.885333 0 0 1 9.813333 5.802667 25.130667 25.130667 0 0 1 6.4 8.789333 28.586667 28.586667 0 0 1 2.261334 11.52 28.032 28.032 0 0 1-2.304 11.392 26.325333 26.325333 0 0 1-16.170667 14.592 34.901333 34.901333 0 0 1-12.16 2.048h-12.074667v30.165333z m31.488-48c3.925333 0 6.826667-0.981333 8.789334-2.901333a9.984 9.984 0 0 0 2.901333-7.338667 9.984 9.984 0 0 0-2.901333-7.381333c-1.92-1.92-4.864-2.901333-8.789334-2.901333h-12.672v20.48zM769.706667 117.674667l-25.344 2.133333 10.069333 125.098667 26.709333 15.488z m-512.682667 0.426666L244.394667 256.426667l26.624-12.8 11.349333-123.306667z m-20.906667 221.141334l-1.877333 23.765333-53.205333 133.845333c-9.216 9.557333-13.141333 21.930667-13.098667 35.2L167.68 974.506667c0 28.544 20.906667 49.493333 49.408 49.493333H802.986667c28.586667 0 53.333333-18.944 53.333333-47.36V532.693333c0-13.056-4.266667-23.893333-12.202667-33.024L786.773333 330.581333l-0.256-2.901333-24.533333 10.965333 11.392 142.08H249.429333l10.112-111.573333 9.642667-25.088L262.101333 341.333333l0.085334-1.28z m559.445334 99.84l13.781333 42.112c-3.754667-0.597333-6.741333-0.256-10.453333-0.426667z m-568.149334 9.898666l-3.584 31.744c-2.474667-0.213333-5.12 0.213333-7.338666 0.298667z m-7.68 48.384l583.253334 0.341334c20.053333 0 36.394667 14.677333 36.394666 34.773333v33.962667H184.021333v-33.962667c0-20.053333 15.530667-35.114667 35.712-35.114667z m5.76 23.594667a11.52 11.52 0 0 0-11.605333 11.52c0 15.36 23.125333 15.36 23.125333 0a11.52 11.52 0 0 0-11.52-11.52z m39.253334 0c-15.36 0-15.36 23.04 0 23.04s15.445333-23.04 0.085333-23.04z m38.229333 0c-16.64-1.450667-16.64 24.405333 0 22.954667 14.08-1.194667 14.08-21.76 0-22.954667z m-118.954667 60.757333h655.36v390.528c0 25.386667-16.213333 36.096-36.394666 36.053334l-583.168-0.170667a35.328 35.328 0 0 1-35.84-35.882667z m80.341334 188.586667c2.986667-4.992 2.986667-4.693333 2.901333-7.936-0.341333-3.114667-0.170667-3.242667-2.261333-5.76-2.304-2.304-5.248-5.888-8.533334-5.717333h-16.512l-0.853333 23.466666h17.365333c5.205333-0.085333 6.826667-3.584 7.893334-4.010666z m-7.893334-35.413333a24.746667 24.746667 0 0 1 18.858667 7.296c4.693333 4.992 6.997333 11.648 6.997333 19.84a27.733333 27.733333 0 0 1-6.826666 19.712c-4.992 5.12-11.221333 8.96-18.346667 8.661333l-17.066667 0.341333-0.170666 33.024-17.578667-0.554666-0.213333-89.088z m76.501334 53.76l-0.512-26.624 15.616-0.170667 0.170666 61.226667-15.36 0.170666v-5.205333a24.832 24.832 0 0 1-18.432 6.4 23.765333 23.765333 0 0 1-17.621333-6.656c-4.394667-4.693333-5.546667-13.226667-5.248-19.626667l-0.170667-36.138666h15.872l-0.341333 32.853333a13.994667 13.994667 0 0 0 3.2 9.813333 10.666667 10.666667 0 0 0 8.448 3.84c9.6 0 14.336-6.656 14.336-19.968z m77.013333 3.285333a15.36 15.36 0 0 0-4.693333-11.605333c-2.986667-3.114667-4.906667-5.034667-9.301334-4.906667-4.266667 0-7.936 0.768-11.349333 4.010667a16.554667 16.554667 0 0 0-4.949333 12.501333c0 5.12 1.621333 9.258667 4.992 12.373333 2.986667 3.114667 7.168 4.864 11.52 4.864 4.352 0.128 7.082667-2.261333 10.154666-5.376 3.712-4.010667 2.56-8.96 3.626667-11.861333z m-11.178667-32.426667c7.509333 0 14.208 4.693333 19.882667 10.453334a30.293333 30.293333 0 0 1 8.405333 21.973333 29.866667 29.866667 0 0 1-8.405333 21.845333c-3.968 6.826667-13.226667 10.88-20.736 10.837334-6.826667 0.213333-15.36-2.816-18.261333-8.405334l0.170666 32.426667-17.066666 0.256-0.853334-87.04 17.749334-0.853333v6.698666c5.376-4.394667 12.16-8.533333 19.114666-8.234666z m85.418667 32.597334c-0.597333-6.826667-1.877333-8.661333-4.992-12.074667-3.072-3.157333-4.992-3.712-9.386667-3.626667-4.266667 0-7.594667-0.213333-10.965333 2.986667a16.554667 16.554667 0 0 0-4.949333 12.544c0 5.12 1.621333 9.258667 4.949333 12.373333 2.986667 3.114667 7.168 4.864 11.52 4.864 4.352 0.128 6.570667-2.773333 9.642667-5.845333 3.114667-3.413333 3.669333-7.466667 4.181333-11.221333z m-13.568-32c7.552 0 16.597333 4.096 22.272 9.813333a30.378667 30.378667 0 0 1 8.448 22.016 29.866667 29.866667 0 0 1-8.448 21.845333c-4.48 6.4-14.677333 10.88-22.272 10.837334a20.266667 20.266667 0 0 1-16.725333-8.405334v32l-17.28 0.426667-0.981334-86.784h18.261334v5.845333c5.376-4.394667 9.813333-7.808 16.725333-7.552z m54.101333 24.576l27.178667-0.341334c-0.725333-3.157333-2.688-5.12-5.290667-7.082666a15.232 15.232 0 0 0-17.322666 0.128c-3.626667 2.901333-2.304 2.389333-4.565334 7.253333z m13.354667-24.533334c7.637333-0.128 18.133333 3.328 23.552 8.661334 5.674667 5.546667 6.698667 13.141333 7.082667 21.845333l-1.322667 5.333333h-43.946667c0.853333 4.053333 1.877333 7.936 4.437334 10.410667 2.517333 2.389333 6.528 2.986667 9.984 2.986667a21.333333 21.333333 0 0 0 16.341333-7.253334l13.482667 6.016c-1.962667 5.973333-7.978667 9.514667-12.970667 12.629334a32.298667 32.298667 0 0 1-17.408 4.010666c-7.850667 0.128-16.128-4.949333-21.632-10.538666a30.634667 30.634667 0 0 1-8.533333-22.314667c0-8.96 4.010667-16.298667 9.813333-22.101333 5.546667-5.632 13.226667-9.898667 21.12-9.685334z m71.381333 48.085334c3.413333-0.128 4.693333 0.085333 7.594667-1.621334l1.706667 16.554667c-4.565333 2.688-5.76 1.621333-11.093334 1.792a27.008 27.008 0 0 1-17.749333-6.613333c-4.010667-3.84-4.138667-11.093333-4.138667-18.901334l-0.512-21.888-10.368-0.170666 0.170667-16.554667 10.666667 0.512-0.298667-17.493333 17.578667 0.170666-0.682667 16.64 15.658667 0.853334-0.512 15.146666-15.573334 0.341334 0.128 21.632c0.085333 6.613333 1.792 9.6 7.466667 9.6z m32-23.04h27.904a13.653333 13.653333 0 0 0-5.12-7.936 15.232 15.232 0 0 0-17.365333 0.128 12.8 12.8 0 0 0-5.418667 7.850666z m14.421334-25.045334c7.893333 0 15.701333 3.925333 21.333333 9.386667 5.674667 5.546667 7.381333 12.586667 7.808 21.333333v5.12h-43.946667a17.066667 17.066667 0 0 0 5.12 9.728 13.226667 13.226667 0 0 0 9.301334 3.669334c6.613333 0 12.672-2.56 15.658666-7.68l12.8 6.4c-2.133333 5.546667-5.12 8.106667-10.154666 11.178666a40.874667 40.874667 0 0 1-19.285334 5.333334 30.378667 30.378667 0 0 1-21.418666-9.557334 32.853333 32.853333 0 0 1-8.874667-23.125333c0-8.96 4.522667-16.298667 10.24-22.101333 5.632-5.632 13.482667-9.898667 21.333333-9.685334z m54.186666 25.045334h27.904a13.653333 13.653333 0 0 0-5.12-7.936 15.232 15.232 0 0 0-17.365333 0.128 12.8 12.8 0 0 0-5.418667 7.850666z m14.378667-25.045334a31.573333 31.573333 0 0 1 21.333333 9.386667c5.717333 5.546667 7.424 12.586667 7.850667 21.333333v5.12h-43.946667a17.066667 17.066667 0 0 0 5.12 9.728 13.226667 13.226667 0 0 0 9.258667 3.669334c6.570667 0 12.672-2.56 15.701333-7.68l12.8 6.4c-2.133333 5.546667-5.12 8.106667-10.154666 11.178666a40.832 40.832 0 0 1-19.370667 5.333334 30.421333 30.421333 0 0 1-21.333333-9.557334 32.853333 32.853333 0 0 1-8.874667-23.125333c0-8.96 4.522667-16.298667 10.24-22.101333 5.546667-5.632 13.44-9.898667 21.333333-9.685334z m82.688 1.706667l-2.858667 15.530667-7.68-0.981334c-13.738667 0-15.36 8.832-15.36 25.386667v20.906667l-16.768 0.213333 0.341334-61.013333h15.573333l-0.170667 9.386666c6.186667-7.253333 9.173333-12.202667 26.88-9.386666zM748.16 337.493333l0.853333-15.616 56.192-29.312 0.298667 16.896zM215.04 291.84l57.6 29.013333-0.341333 16.768-56.064-27.733333z m307.626667-74.581333l206.464 104.448v16.725333l-206.976-104.96zM293.290667 320.426667l208.810666-103.253334-0.298666 15.957334-208.768 104.277333z m147.925333-169.557334L231.168 46.890667 283.306667 21.077333l228.352 117.077334L739.626667 19.882667l53.632 27.733333-210.176 105.728c-8.362667 4.181333-5.546667 16.554667 2.858666 20.736l206.421334 103.253333-52.053334 26.538667-228.394666-115.072L282.453333 304.170667l-54.314666-27.050667 213.248-105.941333a11.349333 11.349333 0 0 0-0.170667-20.352zM215.850667 80.554667l0.298666-16.085334 196.565334 97.109334-14.848 8.533333z m411.648 88.618666l-17.493334-7.850666 196.096-98.261334-1.194666 17.578667z m18.005333 13.056l175.957333-88.32a5.290667 5.290667 0 0 0 2.986667-4.693333v-41.813333c0-1.962667-0.341333-5.802667-2.133333-6.698667l-82.773334-40.106667a5.290667 5.290667 0 0 0-4.821333 0l-220.458667 111.914667a5.248 5.248 0 0 1-4.693333 0L284.970667 0.64a5.290667 5.290667 0 0 0-4.693334 0L196.949333 40.021333c-1.706667 0.853333-0.853333 4.693333-0.853333 6.698667v42.453333c0 2.005333 1.109333 3.84 2.986667 4.693334l176.64 87.338666L200.106667 266.197333c-1.706667 0.853333-4.608 2.645333-4.693334 4.608l0.725334 44.117334a5.248 5.248 0 0 0 2.901333 4.821333l82.474667 42.069333c1.450667 0.768 5.205333 1.28 6.698666 0.597334l221.269334-111.018667a5.290667 5.290667 0 0 1 4.693333 0l218.453333 111.061333a5.290667 5.290667 0 0 0 4.693334 0l84.138666-40.704c1.792-0.853333 4.394667-2.133333 4.437334-4.096l-0.298667-44.074666c0-2.005333-2.005333-6.4-3.84-7.253334z" p-id="42659"/></svg>