<svg xmlns="http://www.w3.org/2000/svg" width="200" height="200" class="icon" p-id="43685" t="1750062820357" version="1.1" viewBox="0 0 1024 1024"><path fill="#FF2E4D" d="M726.51776 457.45152c-6.70208-0.0768-13.39392 0-20.00384-0.0768-2.37056 0-3.0464 1.05984-3.0464 3.23072 0.0768 5.10976 0.0768 10.13248 0.0768 15.232v0.01024c0.07168 4.87936 0 9.7536 0.07168 14.56128 0 3.90656 0.68096 4.66944 4.45952 4.66944 7.1424 0.0768 14.27456 0 21.41696 0.0768 2.67776 0 3.72736-1.28 3.65056-3.75808-0.08704-9.1648-0.08704-18.31936-0.15872-27.48416a6.7584 6.7584 0 0 0-6.46656-6.46144z" p-id="43686"/><path fill="#FF2E4D" d="M849.92 51.2h-675.84c-67.8656 0-122.88 55.0144-122.88 122.88v675.84c0 67.8656 55.0144 122.88 122.88 122.88h675.84c67.8656 0 122.88-55.0144 122.88-122.88V174.08c0-67.8656-55.0144-122.88-122.88-122.88zM250.78784 505.73312c-0.73728 10.59328-1.41312 21.25312-2.60608 31.8464-2.08896 18.39104-6.24128 36.26496-14.6432 52.864-2.16064 4.12672-5.13536 7.79776-8.18176 12.45696-1.85344-3.90656-3.41504-6.97856-4.82816-10.13248a3203.59424 3203.59424 0 0 1-14.79168-33.56672c-0.52736-1.2032-0.896-2.92352-0.36864-3.97824 3.19488-6.83008 3.41504-14.12096 3.85536-21.40672 0.60416-9.15968 1.35168-18.24256 2.01728-27.39712 0.51712-7.00416 0.80896-13.9776 1.39776-20.96128 0.67584-8.10496 1.49504-16.21504 2.16064-24.24832 0.14848-1.96608 1.04448-2.56 2.82624-2.56 11.0848 0 22.07744 0 33.16224-0.07168 2.37056 0 3.0464 0.98304 2.89792 3.23072-0.96768 14.63296-1.86368 29.28128-2.89792 43.92448z m71.29088 87.32672c-0.73728 9.46176-5.13536 17.49504-12.5696 23.5008-5.43232 4.352-11.74528 6.15936-18.6624 6.08256-5.87264 0-11.66848-0.0768-17.54112 0-2.00192 0-3.27168-0.60416-4.09088-2.55488-3.41504-7.6544-6.90688-15.32416-10.32192-22.97344-0.52736-1.13152-0.67584-2.33472-1.13152-3.456-1.63328-4.12672-1.5616-4.28544 2.97472-4.36224h13.90592c5.94944 0 8.47872-2.46784 8.5504-8.56576 0.07168-4.57216 0.07168-9.14944 0.07168-13.73696V494.2336c0.14848 0.15872 0.22016 0.15872 0.29696 0.15872V408.63744c0-4.28544 0.14848-4.43392 4.38784-4.43392h29.21472c5.13536 0 5.20704 0.14848 5.20704 5.40672 0 27.1872 0 54.36416 0.0768 81.47968 0.0768 23.87456 0.29696 47.75936 0.29696 71.6288 0 10.14272 0.14848 20.26496-0.6656 30.34112z m75.58656-28.90752c-4.98688 11.56096-10.19904 22.97344-15.31904 34.4576-0.45568 1.13664-1.19296 2.25792-2.3808 4.42368v0.01024c-2.97472-4.5056-6.0928-8.18176-8.11008-12.39552-2.82624-6.13888-4.5312-12.83584-7.35744-18.9952-3.0464-6.6816-4.15744-13.88032-5.57568-20.94592-1.1776-6.02112-1.40288-12.25216-1.8432-18.3296-1.2032-15.39584-2.23744-30.78656-3.44064-46.09536a2449.95584 2449.95584 0 0 0-2.0736-25.1648c-0.14848-1.50016 0.2304-2.176 1.94048-2.176 11.52512 0 22.97344-0.14848 34.49856-0.22016 2.1504 0 3.0464 0.96768 3.11808 2.9952 0.29696 4.65408 0.51712 9.31328 0.88576 13.97248 0.29696 3.83488 0.73728 7.6544 1.04448 11.41248 0.51712 5.40672 1.04448 10.81344 1.41312 16.14336 0.51712 6.90688 0.51712 13.81888 1.4848 20.63872 1.34144 10.4448 0.29696 21.10464 3.93216 31.32928 0.89088 2.40128-0.96768 6.08768-2.21696 8.93952z m84.28032 22.016c-2.89792 6.6816-6.02112 13.21472-8.99072 19.82464-1.64352 3.74784-3.19488 7.49568-4.76672 11.25376-1.85344 4.51072-3.11808 5.40672-7.87456 5.40672h-22.2976c-7.52128 0-15.0272 0.23552-22.53312-0.0768-3.56352-0.14336-7.0656-1.27488-10.62912-2.02752-1.792-0.36864-2.16064-1.42336-1.41312-3.14368a3709.71648 3709.71648 0 0 0 13.45024-29.21472c1.04448-2.24768 1.85344-4.65408 3.0464-6.90688 0.29696-0.6144 1.41312-1.28 2.00192-1.13152 12.42112 3.15392 25.13408 2.77504 37.76512 2.63168a874.6496 874.6496 0 0 1 20.07552 0c3.19488 0.00512 3.50208 0.45568 2.16576 3.38432z m3.84-21.86752a4.48512 4.48512 0 0 1-2.74944 1.4336c-13.89568 0.0768-27.8784 0.14848-41.77408-0.0768-4.23936-0.08704-8.5504-1.05472-11.74528-4.28544-3.3536-3.3792-4.98688-7.36256-3.28192-11.93984a897.52576 897.52576 0 0 1 9.58464-24.10496c3.88096-9.15456 7.81312-18.31936 12.05248-28.2368-2.30912-0.14848-3.712-0.29696-5.04832-0.29696-4.09088-0.07168-8.18176 0.29696-12.27264-0.2304-4.45952-0.51712-8.99072-1.04448-12.48256-4.79232-3.42528-3.6864-3.94752-8.04352-2.60608-12.32384 2.1504-6.83008 4.97664-13.44 7.80288-20.04992 2.67776-6.15424 5.72416-12.16 8.47872-18.24256 2.97472-6.53824 5.86752-13.07136 8.77056-19.6096a1361.99168 1361.99168 0 0 0 7.6544-17.33632c0.73728-1.80736 1.8688-2.47808 3.87072-2.47808 10.93632 0.07168 21.92896 0 32.86528 0 3.6352 0 3.712 0.36864 2.29888 3.6864-6.31296 14.63296-12.71808 29.20448-18.95936 43.84768a11.52 11.52 0 0 0-1.19296 4.87936c0.22016 3.90656 1.04448 4.5056 5.06368 4.5056 8.17152 0.0768 16.35328 0 24.448 0 1.64864 0 3.3536 0.22016 4.98688 0.29696 2.30912 0.0768 2.60608 1.05984 1.63328 3.072a2455.21408 2455.21408 0 0 0-13.3888 29.21472c-3.03616 6.91712-5.93408 13.89568-8.9088 20.8128a1530.1632 1530.1632 0 0 1-6.1696 13.80864c-1.94048 4.20352-0.60416 6.31296 4.15232 6.38976 6.02112 0 12.04224 0.0768 18.05824 0 2.08896 0 3.13344 0.60416 2.08896 2.85184-3.6352 8.25344-7.21408 16.58368-10.84928 24.85248-0.67072 1.50016-1.408 3.072-2.3808 4.352z m134.81472 58.73664h-125.3376c-1.72032-0.22016-3.48672-0.22016-5.94432-0.22016v-0.01536c0.88064-2.61632 1.41312-4.41856 2.1504-6.0672 4.69504-10.29632 9.4464-20.5056 14.0544-30.79168 1.04448-2.33472 2.52928-2.92352 4.75648-2.92352h28.6976c4.54656 0 4.75648-0.2304 4.75648-4.74112V461.66016c0-3.97824-0.0768-4.05504-4.08064-4.05504-6.10304 0-12.26752-0.0768-18.36544 0-2.30912 0-3.27168-0.51712-3.27168-3.1488 0.14848-10.97216 0.0768-21.92896 0.0768-32.88576 0-3.90656 0.0768-3.90656 3.86048-3.90656h73.00096c4.23936 0 8.5504 0.0768 12.78976 0 2.01728 0 2.82624 0.82432 2.74944 2.85184-0.0768 11.41248-0.0768 22.82496-0.0768 34.31424 0 2.02752-0.73728 2.77504-2.82624 2.77504-6.6048-0.0768-13.14304 0.07168-19.77856 0.07168-2.29376 0-3.33824 1.05984-3.33824 3.46624 0.0768 18.39104 0.14336 36.7104 0.14336 55.11168 0 20.87424 0 41.74848 0.0768 62.6944 0 3.75808 0.36864 4.21376 4.17792 4.21376h31.4368c3.41504 0 3.87072 0.36864 3.93728 3.81952 0.08704 10.97216 0 21.92896 0.08704 32.89088-0.01024 2.8672-1.57184 3.16416-3.73248 3.16416z m198.69696-34.92864c-0.14848 16.37376-11.008 29.21472-26.38848 32.89088-4.31616 1.05472-8.78592 1.35168-13.24544 1.5104-6.83008 0.22016-13.7472 0.07168-20.58752 0.07168-4.23936 0-5.42208-0.83456-6.9888-4.66432-3.33824-7.95136-6.83008-15.90784-10.26048-23.87456l-0.66048-1.57184c-1.19296-3.072-0.81408-3.61472 2.45248-3.61472 9.43616-0.07168 18.95424 0.15872 28.3904-0.29184 5.65248-0.29696 8.03328-2.85696 8.18688-8.64256 0.22016-11.04384-0.29696-22.07744-0.14848-33.11104 0.0768-5.48864-6.84032-11.42272-11.74528-11.71968a32.8448 32.8448 0 0 0-2.74944-0.14336c-18.73408 0-37.54496 0-56.2688 0.07168-5.27872 0-5.65248 0.53248-5.65248 5.8624l0.20992 77.55776c0 4.14208-0.0768 4.21376-4.23936 4.21376h-31.22176c-4.01408 0-4.3008-0.3072-4.3008-4.28544v-39.94112c0.06144 0.14336 0.13312 0.14336 0.20992 0.14336v-40.99584c0-2.78016-1.85344-2.93888-3.78368-2.93888-10.19392 0.08704-20.44416 0.31232-30.62272 0.31232-6.92224 0-6.17984 0.8192-6.25664-6.38976-0.0768-9.90208 0-19.90144 0-29.80352 0-3.59936 0.36864-4.05504 3.94752-4.13184 10.7008-0.07168 21.33504 0 32.04096-0.07168 4.09088 0 4.31104-0.15872 4.38272-4.21376 0.0768-9.90208-0.0768-19.8144 0-29.73184 0-2.4832-1.04448-3.23072-3.41504-3.23072-6.84544 0.0768-13.76256-0.07168-20.60288 0-2.1504 0-2.89792-0.74752-2.89792-2.92352 0.09216-11.26912 0.09216-22.46144-0.06144-33.72544 0-2.70336 1.03424-3.29216 3.41504-3.29216 6.31296 0.0768 12.6464 0 18.95936 0 4.23424 0 4.45952-0.3072 4.5312-4.74112 0-2.61632 0.14848-5.24288 0-7.87456-0.07168-2.4832 1.04448-3.15904 3.34336-3.15904 9.07776 0.0768 18.22208 0.0768 27.28448 0.0768h4.97664c3.94752 0 4.0192 0 4.1728 4.05504 0.06656 2.4064-0.1536 4.87936-0.08704 7.28576 0.0768 3.3792 0.9728 4.2752 4.31616 4.36224 5.65248 0.0768 11.30496 0.0768 17.024 0.0768 14.6432 0.07168 27.3664 5.09952 37.0176 16.29184 5.35552 6.22592 8.69888 13.81888 9.216 22.14912 0.52736 8.47872 0.15872 17.03936 0.3072 25.52832 0 3.15904 0.22016 6.38976 0.36864 9.53344 0.14336 3.15904 0.896 3.97824 4.09088 3.90656a48.56832 48.56832 0 0 1 19.03104 3.15904c13.00992 5.03808 21.03296 14.18752 23.63904 28.01152a44.4416 44.4416 0 0 1 0.73728 8.33024c0.08192 17.88928 0.06656 35.78368-0.06656 53.6832zM810.14272 453.632c-5.94432 3.90656-12.1856 3.75808-19.4048 3.6864-2.23744 0-5.20192 0.07168-8.09984-0.0768-0.7424-0.07168-2.00704-0.98304-2.08896-1.5872-0.6656-8.84736-1.77152-17.792 1.35168-26.35264 2.75456-7.5776 9.58464-12.01664 17.61792-12.16a19.99872 19.99872 0 0 1 19.32288 14.336c2.30912 8.2688-1.55648 17.42336-8.69888 22.15424z" p-id="43687"/></svg>