<svg t="1750062917811" class="icon" viewBox="0 0 1173 1024" version="1.1" xmlns="http://www.w3.org/2000/svg" p-id="46715" width="200" height="200"><path d="M1.914402 656.839666L0 789.329468l516.178817 226.592549s55.03905 26.933652 151.072702-17.559685c60.369668-28.055887 505.89716-236.560641 505.897159-236.560641v-126.548555s0.775663 16.850036-12.872701 24.441629-543.69009 239.547768-543.69009 239.547767-43.024528 14.737593-80.223334 0.544615c-13.202771-5.033556-93.195056-42.182852-198.2396-87.781921-151.171723-65.601266-326.108432-139.421257-326.108432-139.421257s-8.845856-7.608097-10.100119-15.744303z" fill="#A42122" p-id="46716"></path><path d="M534.530668 426.797893s78.061381-32.792381 148.333127 0 477.808265 188.931646 477.808265 188.931646 35.911536 29.706234-14.06095 51.540315-538.706044 235.768475-538.706045 235.768475-45.268999 17.180105-110.853762-18.731431C433.611991 849.567108 38.519083 684.796532 12.757177 674.052778a6.436351 6.436351 0 0 1-2.475519-1.765871c-5.660688-6.287819-28.055887-35.564963 26.141485-54.989539 60.897779-21.867089 498.107525-190.499475 498.107525-190.499475z" fill="#D82F27" p-id="46717"></path><path d="M1.914402 450.6619L0 583.151703l516.178817 226.592549S571.217867 836.727414 667.251519 792.168063c60.369668-28.055887 505.89716-236.560641 505.897159-236.56064V429.091874s0.775663 16.850036-12.872701 24.441629S616.585887 693.147284 616.585887 693.147284s-43.024528 14.737593-80.223334 0.544615c-13.202771-5.033556-93.195056-42.182852-198.2396-87.781921-151.171723-65.601266-326.108432-139.421257-326.108432-139.421257s-8.845856-7.690614-10.100119-15.826821z" fill="#A42122" p-id="46718"></path><path d="M534.530668 220.686141s78.061381-32.792381 148.333127 0S1160.67206 409.617787 1160.67206 409.617787s35.911536 29.706234-14.06095 51.540316-538.706044 235.768475-538.706045 235.768475-45.268999 17.180105-110.853762-18.731431C433.611991 643.455357 38.519083 478.684781 12.757177 467.941026a6.436351 6.436351 0 0 1-2.475519-1.76587c-5.660688-6.287819-28.055887-35.564963 26.141485-54.98954 60.897779-21.867089 498.107525-190.499475 498.107525-190.499475z" fill="#D82F27" p-id="46719"></path><path d="M1.914402 244.550149L0 377.039951l516.178817 226.592549s55.03905 26.933652 151.072702-17.559684c60.369668-28.055887 505.89716-236.560641 505.897159-236.560641v-126.482542s0.775663 16.850036-12.872701 24.425125S616.585887 487.01903 616.585887 487.01903s-43.024528 14.737593-80.223334 0.544614c-13.202771-4.951039-93.195056-42.182852-198.2396-87.781921-151.171723-65.601266-326.108432-139.421257-326.108432-139.421256s-8.845856-7.608097-10.100119-15.810318z" fill="#A42122" p-id="46720"></path><path d="M534.530668 14.57439s78.061381-32.792381 148.333127 0 477.808265 188.931646 477.808265 188.931646 35.911536 29.706234-14.06095 51.540316S607.905065 490.814826 607.905065 490.814826s-45.268999 17.180105-110.853762-18.731431C433.611991 437.343606 38.519083 272.573029 12.757177 261.829275a6.436351 6.436351 0 0 1-2.475519-1.765871c-5.660688-6.287819-28.055887-35.564963 26.141485-54.989539C97.320922 183.190273 534.530668 14.57439 534.530668 14.57439z" fill="#D82F27" p-id="46721"></path><path d="M195.681563 239.929179a152.244448 63.505326 0 1 0 304.488895 0 152.244448 63.505326 0 1 0-304.488895 0Z" fill="#FFFFFF" p-id="46722"></path><path d="M526.708027 66.098202l20.299259 45.285503-79.629209 34.36021 119.650107 10.925293 25.563865 59.32995 26.554072-60.897779h92.122331l-68.703917-35.911536 18.731431-43.717674-67.136088 21.867089-87.451851-31.241056zM422.092574 339.362545l192.067304 85.884022 76.510055-121.795558-268.577359 35.911536z" fill="#FFFFFF" p-id="46723"></path><path d="M860.870149 169.162329L690.669933 239.929179l170.200216 63.52183V169.162329z" fill="#AD2524" p-id="46724"></path><path d="M1010.771104 228.492279l-149.900955-59.32995v134.28868l149.900955-74.95873z" fill="#791514" p-id="46725"></path></svg>