<svg xmlns="http://www.w3.org/2000/svg" width="200" height="200" class="icon" p-id="12225" t="1749987086605" version="1.1" viewBox="0 0 1024 1024"><path fill="#20C997" d="M351.1808 59.2896A435.2 435.2 0 0 1 805.376 715.264 460.8 460.8 0 0 1 351.1808 59.3408z" p-id="12226"/><path fill="#2C6DD2" d="M754.3808 722.2272a358.4 358.4 0 1 0-267.8272 120.2176 51.2 51.2 0 0 1 0 102.4 460.8 460.8 0 1 1 365.1584-179.712l118.8864 121.2416c23.7568 24.2176 23.552 63.0272-0.4096 87.04l-0.4096 0.4096a61.184 61.184 0 0 1-86.9888-0.4608l-148.0192-150.9376a61.7984 61.7984 0 0 1 0.4096-86.9888l0.4096-0.4096c5.632-5.5808 11.9808-9.8304 18.7904-12.8z m-467.968-364.5952h409.6a51.2 51.2 0 1 1 0 102.4h-409.6a51.2 51.2 0 1 1 0-102.4z m0 204.8h256a51.2 51.2 0 0 1 0 102.4h-256a51.2 51.2 0 1 1 0-102.4z" p-id="12227"/></svg>