<svg t="1750062957743" class="icon" viewBox="0 0 1024 1024" version="1.1" xmlns="http://www.w3.org/2000/svg" p-id="49394" width="200" height="200"><path d="M884.91 22.23Q853.6-6.35 812.77 1.81q-36.75 6.81-77.58 43.56l-23.14 23.14q-19.06 20.42-36.75 43.55-19.06-8.16-39.47-8.16H198.92q-43.56 0-74.18 30.63-30.63 30.63-30.63 74.17v436.91q0 42.2 30.63 72.82 30.63 30.63 74.18 30.63h307.6q4.09 20.41 6.81 35.39v9.52q-2.72 58.53 2.72 117.06 6.81 80.3 21.78 112.97l5.44-2.72q-21.77-68.06-17.69-168.78 6.8-161.97 70.78-355.25 55.8-144.27 127.26-256.56 71.46-112.29 143.59-168.1-40.83 35.39-92.55 122.5-42.19 70.78-87.11 163.33-35.39 77.59-57.17 133.39-55.8 148.36-83.02 292.64 17.69-54.45 72.13-95.28 25.87-19.06 49-28.58 44.92-55.81 98-136.11-78.94 19.05-99.36 27.22l-34.02 13.61 51.72-27.22q58.52-31.31 103.44-46.28 92.56-148.36 125.22-257.25Q957.05 86.2 884.91 22.23zM511.97 475.48q12.25 25.86 23.14 66.69l6.8 31.31-8.16-21.78q-4.09-9.53-21.78-40.83l-6.81-14.98-17.69 50.36q9.53 17.7 17.69 43.56 6.81 19.05 12.25 40.83l4.09 19.06-6.81-19.06q-2.72-10.89-28.58-55.8l-4.09-6.81q-14.97 54.45-10.2 62.62 4.76 8.16 12.94 28.59l2.72 8.16H198.93q-9.53 0-15.66-6.13-6.13-6.13-6.13-15.65V208.71q0-9.53 6.13-15.66 6.13-6.13 15.66-6.13h426.02q-40.83 68.06-70.78 144.96-29.94 76.9-42.19 143.6z" p-id="49395"></path></svg>