<svg t="1750063015663" class="icon" viewBox="0 0 1297 1024" version="1.1" xmlns="http://www.w3.org/2000/svg" p-id="51680" width="200" height="200"><path d="M250.323028 377.082962c-41.332071 24.332091-126.001974 45.622027-190.072872-0.778585 0 0-22.439767 110.832444 149.854539 204.463816" fill="#FFDF9E" p-id="51681"></path><path d="M59.559226 397.186973s61.858889 119.97438 280.99724 96.771495c0 0-64.452456 149.529698-175.310681 74.76485S59.559226 397.186973 59.559226 397.186973z" fill="#E3B75D" opacity=".5" p-id="51682"></path><path d="M237.241757 354.864912c-36.062438 21.222905-108.929807 38.89319-161.873633 0.551713a25.780982 25.780982 0 0 0-40.388487 15.772805c-1.072489 5.279945-24.069125 130.673488 162.801748 232.229934a25.780982 25.780982 0 0 0 24.625995-45.302343c-153.773248-83.566477-137.08264-175.779895-136.897017-176.702854a25.791295 25.791295 0 0 1-40.388487 15.772806c78.699027 56.986284 177.187537 26.301758 218.277266 2.108884a25.77067 25.77067 0 0 0 9.131624-35.294165 25.765514 25.765514 0 0 0-35.289009-9.13678z" fill="#6E6E96" p-id="51683"></path><path d="M378.284356 301.585933c51.252593 0.639368 154.70652-128.791476 58.100022-219.715845 0.010312-0.005156-63.699652-60.817338 16.494673-38.135229 0 0 166.849363 35.665411 153.742311 232.461963-2.743097 41.45582-19.397611 73.640798-41.528007 94.997764" fill="#FFDF9E" p-id="51684"></path><path d="M444.428045 52.613829c42.847993 36.598683 94.05418 88.629862 87.041753 193.960644-2.701847 40.749421-28.513767 83.922254-49.179802 106.903422l57.429716 21.393059c22.130395-21.356966 38.779754-53.541944 41.528007-94.992608 10.508328-157.893049-94.776048-212.0228-136.819674-227.264517z" fill="#E3B75D" opacity=".53" p-id="51685"></path><path d="M377.964672 327.366916c40.130677 0.500151 89.258918-42.909867 111.837902-98.833975 24.507402-60.688433 11.477693-120.990151-35.753066-165.441721l-6.135874 41.832223 11.921126-5.960564 2.036698-13.174082 2.031541-13.168926-9.621463-9.327559c-8.22929-7.97148-15.355153-17.185603-16.597796-20.464944 0.587806 1.546859 1.412798 7.342424-2.366694 13.467985-3.784648 6.125561-9.35334 7.992105-11.00848 8.162259 0.21656-0.020625 5.4501-0.484682 21.563214 4.073396l0.804367 0.226872 0.824991 0.175311c5.811033 1.294205 144.816935 34.268082 133.416584 205.531149-2.08826 31.447642-14.060948 59.193136-33.706056 78.147314l35.794316 37.109146c28.895325-27.874398 46.416081-67.59258 49.349957-111.837902C646.77782 61.358738 460.154444 18.923241 458.267276 18.521058l1.624202 0.407339C443.798989 14.375476 406.107192 3.712461 390.937662 30.050313c-10.864106 18.861367-1.882012 41.852847 27.461903 70.289271l-7.491954-22.403674 13.952668-19.124333-22.718202 16.515298 16.582328 25.311768c40.197708 37.841326 34.845576 79.936514 23.275071 108.594655-16.52561 40.929888-50.91744 66.726339-63.379967 66.576809l-0.654837 51.556809z" fill="#6E6E96" p-id="51686"></path><path d="M518.522589 740.326693c72.073315 73.393301 38.702411 245.001833 38.70241 245.001833h117.308627s22.8832-62.436383 31.922013-144.337408c15.587182 0.536244 31.421861 0.79921 47.488569 0.79921 64.751516 0 136.072026-1.495297 202.220871-9.023344 13.184394 12.6069 26.13676 22.615078 34.340269 40.068803 29.565631 63.055127 11.307539 109.393865 11.307538 109.393865h109.249492s-7.481641-161.115672 47.266853-215.85901c43.832826-38.150698 55.300207-95.363854 10.106145-181.003122-31.798264-60.265625-491.571149-426.304014-605.306532-212.620919" fill="#C79FB4" p-id="51687"></path><path d="M872.892505 615.96439c-23.677254 75.605309 47.736067 197.673105 88.98564 221.737074s39.934742 144.523032 39.934741 144.523032l59.755162 3.289653s18.902616-177.032851-29.220166-225.155632-63.591371-171.871498-63.591371-171.871498-40.476143-49.025116-95.864006 27.477371" fill="#B893A6" p-id="51688"></path><path d="M630.308929 568.903785s-7.842575 162.234567 77.198574 162.234566 133.380491-88.191585 133.380491-88.191585 32.979033 141.852122 86.618945 168.973716 5.156196 5.156196 5.156196 5.156196-191.387702-3.614494-210.857499 44.595944c-19.459486 48.210437-55.815827 161.275514-144.203348 123.645592 0 0-23.073979-118.412053-23.073979-161.378638s-30.937179-79.059961-30.937179-79.059961 106.717799-141.140567 106.717799-175.97583z" fill="#B893A6" p-id="51689"></path><path d="M500.125279 758.38885c51.329936 52.278676 40.347238 177.991903 31.793108 222.020665a25.780982 25.780982 0 0 0 25.301456 30.699994h117.308627a25.775826 25.775826 0 0 0 24.208342-16.912325c0.974521-2.67091 24.053657-66.329312 33.339967-150.375314a25.77067 25.77067 0 0 1-26.518319 22.934762c15.669681 0.536244 31.942637 0.814679 48.380592 0.814679 57.914399 0 133.566114-1.041552 205.134122-9.188343-7.512578 0.855929-15.221092-1.820137-20.738223-6.98149l6.935085 6.491652c9.61115 8.909908 17.21654 15.94296 21.903522 25.915043 23.986626 51.17525 11.101291 87.732683 10.549578 89.264074a25.518016 25.518016 0 0 0 2.722472 23.816472c4.805575 7.048521 12.833773 11.127072 21.372435 11.127072h109.249491a25.801607 25.801607 0 0 0 25.750045-26.987533c-2.639973-57.929868 5.81619-162.507845 39.743963-196.430461a26.06973 26.06973 0 0 1-1.299361 1.20655c40.048178-34.855888 75.316562-100.009587 15.984209-212.481702-16.819513-31.865294-103.938609-106.490926-194.218454-166.36468-86.732381-57.512216-211.801084-126.110254-315.095168-126.301033-64.699954-0.113436-113.647727 27.528933-141.547906 79.951983a25.780982 25.780982 0 0 0 45.513746 24.234123c18.892304-35.484944 50.272916-52.696328 95.931036-52.613829 168.963403 0.309372 444.056799 227.728575 463.810188 265.157405 47.266853 89.583758 20.222603 128.244919-4.228082 149.529699a22.403674 22.403674 0 0 0-1.299361 1.211706c-61.04421 61.039054-55.609579 217.632742-54.800056 235.292715a25.817076 25.817076 0 0 1 25.755201-26.982377h-109.249491c8.528349 0 16.510141 4.212613 21.31056 11.276602a25.755202 25.755202 0 0 1 2.676066 23.955689c0.922959-2.309976 21.949928-57.496747-11.941751-129.791778-8.96147-19.067615-22.022115-31.169208-33.546215-41.832223l-6.321497-5.909001c-5.511974-5.166509-13.220488-7.842575-20.733066-6.98149-68.989909 7.842575-142.759612 8.858346-199.302463 8.858346-15.844992 0-31.519829-0.262966-46.596548-0.783742a25.796451 25.796451 0 0 0-26.518318 22.934762c-8.564442 77.513102-30.292654 137.716852-30.514371 138.314971a25.750045 25.750045 0 0 1 24.208342-16.927793H557.230156a25.780982 25.780982 0 0 1 25.306612 30.699994c1.469516-7.548672 35.020887-185.849947-45.611714-267.983001a25.77067 25.77067 0 0 0-36.459466-0.329996 25.760358 25.760358 0 0 0-0.340309 36.449153z" fill="#6E6E96" p-id="51690"></path><path d="M607.967129 546.912606c-28.771576 184.973393-138.129348 241.810147-197.631855 250.085843-106.722955 14.84469-84.664747-83.164293-172.686177-187.3504-94.002618-111.275877 1.082801-262.568994 104.732663-299.523454 72.454873-25.832544 163.915487-1.103426 220.752241 62.61685" fill="#C79FB4" p-id="51691"></path><path d="M406.334065 680.122943c-106.722955 14.84469-45.905617-64.024492-172.686177-129.441157-24.641463-29.17376-34.051522-65.081512-32.690286-102.845495-12.570807 48.426998-5.836814 100.746923 32.690286 146.348325 88.02143 104.186106 65.963222 202.19509 172.686177 187.3504 59.502508-8.270539 168.860279-65.112449 197.631856-250.085843l-9.719431-37.743358c-32.42732 105.90312-137.912788 179.461419-187.912425 186.417128z" fill="#B893A6" p-id="51692"></path><path d="M582.495519 542.947491c-31.535298 202.741646-161.043485 226.475619-175.707709 228.512317-46.163427 6.409152-54.872243-8.053979-80.885254-64.369957-14.947814-32.365445-33.551371-72.645652-68.556789-114.080848-38.032105-45.018752-35.711817-92.692944-27.064875-124.754174 15.953272-59.14673 65.607444-114.183971 120.758122-133.844549 63.02419-22.465548 144.126005 0.866241 192.846905 55.496143a25.786139 25.786139 0 0 0 38.480695-34.329956C519.259925 284.828295 417.012548 256.14953 333.724506 285.849222c-70.124272 25.007553-133.132994 94.492457-153.221535 168.984027-16.757639 62.132168-3.454652 123.021692 37.459767 171.453846 30.509215 36.114 46.777015 71.341135 61.131866 102.422688 25.126146 54.397873 48.849806 105.774215 134.798445 93.816995 83.597414-11.622067 191.258797-89.738444 219.556003-271.659369a25.786139 25.786139 0 0 0-50.953533-7.919918zM1069.704526 87.309875c-25.579891 87.69659-34.402143 272.757639 115.266773 345.46001 35.624162 17.304195 55.145522 38.82616 59.682974 65.787911 9.234748 54.908337-45.389998 123.583718-67.216178 145.409897a25.780982 25.780982 0 0 0 36.464622 36.454309c3.975428-3.975428 97.086024-98.328667 81.59681-190.418336-7.404298-43.9772-37.006022-78.843401-88.000806-103.618925-148.348929-72.05269-88.918609-282.523475-88.305021-284.642672a25.780982 25.780982 0 1 0-49.489174-14.432194zM840.887994 642.951922c0.371246 4.913855 10.265987 121.278898 97.039618 208.052529a25.77067 25.77067 0 0 0 36.454309 0 25.77067 25.77067 0 0 0 0-36.454309c-73.439707-73.444863-82.014462-174.537252-82.091804-175.547866-1.093114-14.200165-13.48861-24.811618-27.683619-23.728816s-24.811618 13.483454-23.718504 27.678462z" fill="#6E6E96" p-id="51693"></path></svg>