<svg xmlns="http://www.w3.org/2000/svg" width="200" height="200" class="icon" p-id="9797" t="1749995024331" version="1.1" viewBox="0 0 1024 1024"><path d="M160.64 198.08 160.64 157.952 513.728 157.952 513.728 198.08C444.48 195.456 412.608 208.768 418.176 238.208 409.856 227.584 455.552 370.688 555.264 667.648L559.424 667.648C564.928 651.648 573.248 628.928 584.32 599.424 686.784 339.968 728.32 224.832 708.992 254.272 708.992 216.832 679.872 198.08 621.76 198.08L621.76 157.952 862.656 157.952 862.656 198.08C810.048 203.456 778.176 226.176 767.104 266.304L538.624 864.32 451.392 864.32 252.032 270.336C238.144 216.832 207.68 192.768 160.64 198.08Z" p-id="9798"/></svg>