<svg xmlns="http://www.w3.org/2000/svg" width="200" height="200" class="icon" p-id="15360" t="1749995790915" version="1.1" viewBox="0 0 1024 1024"><path d="M512 512m-512 0a512 512 0 1 0 1024 0 512 512 0 1 0-1024 0Z" p-id="15361"/><path fill="#EBBA50" d="M491.52 286.72m20.48 0l0 0q20.48 0 20.48 20.48l0 204.8q0 20.48-20.48 20.48l0 0q-20.48 0-20.48-20.48l0-204.8q0-20.48 20.48-20.48Z" p-id="15362"/><path fill="#EBBA50" d="M491.52 491.52m20.48 0l143.36 0q20.48 0 20.48 20.48l0 0q0 20.48-20.48 20.48l-143.36 0q-20.48 0-20.48-20.48l0 0q0-20.48 20.48-20.48Z" p-id="15363"/></svg>