<svg xmlns="http://www.w3.org/2000/svg" width="200" height="200" class="icon" p-id="56781" t="1750063129250" version="1.1" viewBox="0 0 1639 1024"><path fill="#ED171F" d="M321.390666 0.07697h407.640915a79.550179 79.550179 0 0 1 79.120178 103.630233l-190.060427 817.001835a138.460311 138.460311 0 0 1-129.00029 103.200232H82.74013a79.550179 79.550179 0 0 1-79.120178-103.200232l190.490428-817.001835A138.460311 138.460311 0 0 1 321.390666 0.07697" p-id="56782"/><path fill="#082F67" d="M695.491506 0.07697h468.701053c57.190128 0 31.390071 46.440104 18.06004 103.630233l-190.060427 817.001835c-13.33003 56.760127-9.03002 103.200232-66.220148 103.200232h-468.701053a79.120178 79.120178 0 0 1-79.120178-103.200232l189.630426-817.001835a138.890312 138.890312 0 0 1 129.00029-103.630233" p-id="56783"/><path fill="#006A65" d="M1145.702517 0.07697h407.640916a79.120178 79.120178 0 0 1 78.690176 103.630233l-189.630425 817.001835a138.460311 138.460311 0 0 1-129.00029 103.200232h-405.920912a79.120178 79.120178 0 0 1-79.120178-103.200232l189.630426-817.001835a138.460311 138.460311 0 0 1 129.00029-103.630233" p-id="56784"/><path fill="#FFF" d="M1076.042361 766.768692h38.700087l10.750024-36.980083h-38.270086z m30.960069-101.910229l-13.33003 43.000097 22.360051-9.890022c8.170018 0 19.780044-3.010007 19.780044-3.010007l9.460021-30.530069z m20.210046-62.780141l-12.900029 43.000097a199.950449 199.950449 0 0 1 22.36005-8.600019 146.200328 146.200328 0 0 1 19.780044-3.010007l9.030021-30.530069z m86.000193 0L1162.042554 766.768692h13.33003l-10.320023 33.970077h-13.33003l-3.440008 10.320023h-47.300106l3.440007-10.320023h-95.890215l9.890022-31.820072h9.460022L1078.192366 602.078322l10.320023-33.540075h48.160108l-5.160012 16.770038a107.07024 107.07024 0 0 1 25.370057-12.470028c12.040027-3.010007 81.700184-4.30001 81.700184-4.30001l-10.320023 33.540075z" p-id="56785"/><path fill="#FFF" d="M1233.422714 568.538247h51.600116v18.920042c0 3.440008 2.580006 4.730011 8.600019 4.730011h10.320024l-9.460022 31.820072h-27.950062c-24.080054 0-33.110074-8.600019-32.680074-20.210046z m6.880016 150.070337h-48.59011l8.170019-28.380064h56.330126l7.740018-25.370057h-55.470125l9.460021-31.820071h153.940346l-9.460021 31.820071h-51.600116l-8.170018 25.370057h51.600116l-8.170019 27.950063H1291.042844l-9.890023 12.470028h22.790052l5.590012 35.260079a20.210045 20.210045 0 0 0 0 7.310017 29.670067 29.670067 0 0 0 12.040027 2.150005h6.880016l-10.320024 34.830078h-17.630039a70.090157 70.090157 0 0 1-12.040027 0 29.670067 29.670067 0 0 1-12.470028-5.160012 16.770038 16.770038 0 0 1-9.460021-12.040027l-5.160012-35.260079-25.800058 34.830078a43.000097 43.000097 0 0 1-37.410084 19.350044H1162.042554l9.03002-30.96007h14.190032a20.640046 20.640046 0 0 0 9.890022-3.010007 17.200039 17.200039 0 0 0 7.740018-6.020013z m-537.501208-77.400174h129.00029l-9.460021 30.96007h-51.170115l-8.170018 26.66006H818.041781l-9.890022 31.820071H753.541636l-12.900029 43.000097c0 4.730011 12.470028 5.160012 17.63004 5.160011l26.66006-3.440007-10.750024 35.260079h-59.770135a53.32012 53.32012 0 0 1-14.190031 0 18.920042 18.920042 0 0 1-12.900029-21.070048l17.200038-56.760127h-29.240065l9.890022-32.680073h29.670066l7.740018-26.230059h-29.670067z m86.000194-55.470124h53.320119l-9.460021 32.250072h-73.100164l-7.740018 6.880016c-3.440008 3.440008-4.730011 2.150005-9.03002 4.300009a46.870105 46.870105 0 0 1-24.080054 6.450015h-23.220052l9.460021-31.390071h6.880016a22.790051 22.790051 0 0 0 12.040027 0 24.940056 24.940056 0 0 0 7.740017-9.890022l13.33003-24.510055h53.750121zM892.431948 639.058405a80.410181 80.410181 0 0 1 39.560089-17.630039h43.000097l5.590012-17.63004H904.041974z m70.520159 13.760031h-74.390167l-4.730011 15.050034h74.390167z m-96.320217-86.000193h45.150102l-6.450015 23.220052a125.560282 125.560282 0 0 1 24.510055-15.910035 275.630619 275.630619 0 0 1 32.680074-6.880016h73.100164l-24.940056 83.850188a92.450208 92.450208 0 0 1-12.040027 27.520062 29.670067 29.670067 0 0 1-12.470028 11.610026 47.730107 47.730107 0 0 1-17.200039 5.590013h-93.310209l-20.210046 64.930146c0 6.880015-2.580006 9.890022 0 11.610026a9.03002 9.03002 0 0 0 7.310017 3.440008l30.960069-3.010007-10.750024 36.120081h-34.830078a188.340423 188.340423 0 0 1-24.510055 0 30.100068 30.100068 0 0 1-15.050034-2.580006c-3.010007-3.010007-8.170018-6.880015-8.170018-10.750024a131.580296 131.580296 0 0 1 4.300009-17.63004z" p-id="56786"/><path fill="#FFF" d="M998.642187 702.698548l-3.870009 20.210046a28.810065 28.810065 0 0 1-8.170018 15.050034 33.540075 33.540075 0 0 1-24.510055 8.600019h-24.940056v22.790051c0 6.450014 0 6.020014 2.150005 6.880015l3.440007 2.150005h31.820072l-9.460021 33.110075h-27.950063a86.000193 86.000193 0 0 1-38.700087-4.30001 13.33003 13.33003 0 0 1-5.160012-12.900029l2.150005-88.150198h43.000097v17.63004h10.750024a13.760031 13.760031 0 0 0 7.310016 0 11.180025 11.180025 0 0 0 3.010007-4.730011l4.30001-14.190032zM369.550774 260.227554c0 7.310016-29.670067 138.03031-30.100068 138.030311a94.600212 94.600212 0 0 1-25.370057 57.190128 45.580102 45.580102 0 0 1-30.100067 10.320023 27.950063 27.950063 0 0 1-31.390071-26.66006v-6.020013L259.040526 397.827864s30.100068-119.110268 34.830078-135.020304a488.051096 488.051096 0 0 1-68.800155 0v8.60002l-32.680073 131.580295-2.580006 11.180025-4.730011 37.410084a53.32012 53.32012 0 0 0 6.450015 27.950063c13.760031 24.080054 53.32012 27.520062 75.68017 27.520062a147.06033 147.06033 0 0 0 73.530165-17.200039A107.930242 107.930242 0 0 0 388.040815 416.317905l3.440008-13.33003s30.530069-123.840278 36.120081-139.750314a477.731073 477.731073 0 0 1-58.480131 0m169.42038 245.100551h-52.030116l6.450014-27.520062 3.010007-12.470028c4.30001-19.350043 8.600019-43.000097 9.03002-48.590109s0-14.620033-9.890022-14.620033a49.450111 49.450111 0 0 0-15.480035 4.730011c-2.580006 10.750024-8.600019 39.560089-11.180025 52.890118-6.020014 27.950063-6.450014 30.96007-9.03002 43.000097H406.530857c4.30001-16.770038 8.170018-33.540075 12.040027-49.880112a707.351589 707.351589 0 0 0 15.910036-86.000193c23.650053-3.440008 29.670067-3.870009 55.040123-9.460021v2.580005l-3.870008 14.190032 12.900029-7.310016a81.270183 81.270183 0 0 1 33.110074-7.740018 27.950063 27.950063 0 0 1 28.810065 15.910036c4.730011 11.610026 0 26.230059-4.730011 54.180122l-3.440008 14.190032c-6.450014 31.390071-7.740017 36.980083-11.180025 58.480131z m82.990187 0h-54.180122a158.240355 158.240355 0 0 1 6.450015-20.210046 186.620419 186.620419 0 0 0 6.020013-20.640046c3.440008-15.910036 5.590013-26.66006 7.310017-36.120081s2.580006-17.200039 3.440007-26.66006l27.950063-3.870009 28.810065-5.160011v2.150005c-2.580006 9.890022-4.730011 19.350043-6.880016 29.240065s-4.730011 19.780044-6.880015 29.240066l-7.740018 33.970076-3.010006 18.920043z m129.00029-73.100164a108.360243 108.360243 0 0 1-12.040027 33.540075 18.920042 18.920042 0 0 1-15.480035 9.460021s-11.610026 0-11.610026-14.620033a86.000193 86.000193 0 0 1 3.010006-23.650053c5.160012-23.650053 11.610026-43.000097 27.950063-43.000096s13.760031 15.050034 7.740018 38.700087m53.75012 2.580005a63.640143 63.640143 0 0 0-5.160011-55.470124 60.630136 60.630136 0 0 0-49.450111-18.060041 89.870202 89.870202 0 0 0-60.200136 18.060041 104.490235 104.490235 0 0 0-27.520061 53.32012c-4.30001 18.920042-9.460021 54.180122 22.36005 67.08015a111.37025 111.37025 0 0 0 33.540075 5.160012 86.000193 86.000193 0 0 0 65.360147-25.370057 114.810258 114.810258 0 0 0 22.36005-48.160108m533.201198-71.810162c-25.370057 4.730011-32.250072 5.590013-56.760128 9.030021a25.370057 25.370057 0 0 1 0 5.590012 33.540075 33.540075 0 0 0-18.06004-14.620033A67.940153 67.940153 0 0 0 1205.04265 387.077839a96.750217 96.750217 0 0 0-27.520061 53.32012c-4.730011 18.920042-9.890022 53.750121 21.930049 66.220149a65.360147 65.360147 0 0 0 28.380064 5.160012 48.160108 48.160108 0 0 0 27.09006-12.470029 62.780141 62.780141 0 0 1-2.150004 8.60002h56.760127c3.870009-21.070047 6.880015-43.000097 16.770038-82.560186 4.30001-19.350043 9.03002-38.700087 13.760031-58.05013z m-79.98018 105.780238a29.670067 29.670067 0 0 1-20.210045 9.460021s-11.610026 0-12.040027-14.620033a142.33032 142.33032 0 0 1 3.440007-23.650053c5.590013-23.220052 12.040027-43.000097 27.950063-43.000096s15.910036 9.460021 14.620033 25.800058c0 3.870009 0 8.170018-3.010007 12.900029l-5.160011 21.070047a43.000097 43.000097 0 0 1-6.020014 12.040027m-310.890698 36.980083h-52.030117l6.450015-27.520062 3.010006-12.470028c4.30001-19.350043 8.600019-43.000097 9.460022-48.590109s0-14.620033-10.320024-14.620033a47.300106 47.300106 0 0 0-15.050033 4.730011c-3.010007 10.750024-9.03002 39.560089-11.610026 52.890119-6.020014 27.950063-6.450014 30.96007-9.030021 43.000096h-52.890119l11.610027-49.880112a706.061586 706.061586 0 0 0 15.480034-86.000193h2.150005c23.650053-3.440008 29.240066-3.870009 55.040124-9.460021l2.150005 2.580006-3.870009 14.190031 12.900029-7.310016a79.550179 79.550179 0 0 1 33.110074-7.740017 28.380064 28.380064 0 0 1 28.810065 15.910035c4.730011 11.610026 0 26.230059-5.160012 54.180122l-3.010006 14.190032c-7.310016 31.390071-7.740017 36.980083-11.610027 58.480131z m177.590399-245.530552h-86.860195v9.030021L1019.712234 344.077743l-39.560089 163.830368h61.060137c0-6.880015 10.320023-51.170115 10.750025-51.170115s7.310016-31.820071 7.740017-33.110074a27.090061 27.090061 0 0 1 5.160012-4.730011h3.440007a166.410374 166.410374 0 0 0 100.620226-21.500048 107.07024 107.07024 0 0 0 39.99009-63.640143 96.320216 96.320216 0 0 0 2.580006-22.360051 48.160108 48.160108 0 0 0-6.450015-30.100067c-15.050034-20.640046-43.000097-21.070047-79.980179-21.500048m22.36005 76.540171a52.890119 52.890119 0 0 1-27.950063 36.550083 86.000193 86.000193 0 0 1-39.130088 6.450014h-9.03002v-3.870009s17.200039-73.530165 17.200039-73.100164v-6.880015h7.310016l35.69008 3.010006a28.380064 28.380064 0 0 1 15.050034 36.980084M646.041395 379.767823c13.33003-9.460021 15.050034-22.36005 3.870009-29.240066a47.730107 47.730107 0 0 0-46.870106 4.730011c-13.760031 9.460021-15.050034 22.36005-3.870008 29.240066A46.440104 46.440104 0 0 0 646.041395 379.767823m864.301941-16.770038h-2.150005c-24.940056 4.730011-29.670067 6.020014-52.890118 9.030021-17.200039 39.99009-16.770038 31.390071-30.530069 62.780141V430.077936L1420.043133 362.997785a502.241128 502.241128 0 0 1-51.600116 9.030021v3.010006c2.150005 12.470028 3.870009 24.510055 5.160012 36.980083s3.440008 24.510055 4.730011 36.120082c2.150005 20.210045 3.870009 30.100068 6.880015 60.630136-16.340037 27.090061-20.640046 37.410084-36.120081 61.490138l-11.180025 18.06004a11.610026 11.610026 0 0 1-4.30001 3.440008 13.760031 13.760031 0 0 1-7.310016 0h-6.020014l-9.460021 30.96007h31.820071a38.700087 38.700087 0 0 0 36.550083-20.210046l20.210045-34.400077v-2.150005c13.33003-28.810065 115.240259-203.820458 115.240259-203.820458" p-id="56787"/></svg>