<svg t="1749994038485" class="icon" viewBox="0 0 1210 1024" version="1.1" xmlns="http://www.w3.org/2000/svg" p-id="4370" width="200" height="200"><path d="M269.118214 82.119384c-44.160376 12.492975-61.607586 41.370121-52.339827 86.631439-2.952688 2.254222-5.058915 5.26286-6.316876 9.024108-1.756091-8.101844-4.161919-8.70285-7.219286-1.804822l-1.804822-3.609643a16.071937 16.071937 0 0 0-5.414465 7.219286 26.178938 26.178938 0 0 0-7.219286-9.024108l-1.804822 3.609644-7.219286-10.82893c-0.80856 3.111512-2.313781 4.315329-4.512055 3.609643 5.766405 2.485239 6.668816 6.094883 2.707233 10.82893-6.069615-3.118732-10.883074-8.533197-14.438573-16.243395l-5.414465 12.633752c-1.203816-7.219287-2.405827-7.219287-3.609643 0-2.32822-9.536678-4.734047-9.536678-7.219287 0a26.178938 26.178938 0 0 0-7.219286-9.024109c-1.073869 2.524945-0.772464 4.930773 0.90241 7.219287-2.367926 6.569551-4.474153 5.968545-6.316875-1.804822-1.203816 7.219287-2.405827 7.219287-3.609644 0l-3.609643 7.219287c-1.247132-4.315329-3.051953-4.315329-5.414465 0l-5.414465-5.414465c-1.129818 4.495811-2.63504 4.495811-4.512054 0-1.095527 0.223798-1.696532 0.824803-1.804821 1.804822-23.592628-30.385977-21.186801-58.360712 7.219286-83.924206a97.8466 97.8466 0 0 1 16.243395-7.219287c45.116931-0.902411 90.237472-1.203816 135.361622-0.902411z" fill="#9462FE" p-id="4371"></path><path d="M382.821977 82.119384h39.706076a470.390662 470.390662 0 0 0 41.510898 2.707233 73.887593 73.887593 0 0 1-16.243395 0.902411c-0.211164 3.578961 0.992652 6.587599 3.609643 9.024108-1.61712 5.540802 0.187701 10.052856 5.414465 13.536162l-5.414465 9.024108c0.824803 0.747196 1.427614 1.649607 1.804822 2.707233-5.049891 12.826867-2.644064 23.354392 7.219286 31.584378a27.043447 27.043447 0 0 0-5.414465 6.316876c3.073611 2.508702 4.277427 5.215935 3.609644 8.121697-2.185639 3.328091-4.591466 4.833312-7.219287 4.512054a619.274008 619.274008 0 0 0 66.778401 1.804822h55.94947c7.58386-0.572128 14.803147 0.030682 21.65786 1.804822h-360.964327a1416.100954 1416.100954 0 0 1 101.070012-1.804822 1765.707538 1765.707538 0 0 1 52.339827 0c5.992008-2.27588 6.594818-5.284518 1.804822-9.024108-2.158567 0.624468-2.158567 1.526879 0 2.707232-9.016889-0.310429-9.016889-2.716257 0-7.219286a6.582184 6.582184 0 0 1-1.804822-2.707233c4.627563-3.277556 4.627563-6.587599 0-9.926519 4.145675-2.093593 3.54467-3.898415-1.804822-5.414465l3.609644-1.804821c-7.621762-6.141808-9.125178-13.6625-4.512054-22.560271l1.804821 7.219287c0.35916-3.434576 1.864381-6.141808 4.512054-8.121698-4.463324-2.53036-4.463324-5.237592 0-8.121697-3.468867-2.63504-4.672683-5.643677-3.609643-9.024108a12.285421 12.285421 0 0 1 5.414465-2.707232c-3.963388-2.205492-6.670621-5.515535-8.121697-9.926519l-1.804822 3.609643a15.214646 15.214646 0 0 1-0.902411-7.219287z" fill="#7F37FF" opacity=".901" p-id="4372"></path><path d="M588.571643 82.119384c29.29767 1.019724 46.143875 16.059303 50.535006 45.120541-3.768468 25.639296-18.207041 41.281685-43.315719 46.925363-6.854713-1.77414-14.073999-2.37695-21.65786-1.804822a1072.408771 1072.408771 0 0 1-7.219286-23.462681c6.459457-0.480083 7.062267-2.88591 1.804821-7.219287v-9.024108c2.719866-2.236174 4.826093-1.633364 6.316876 1.804822a12.592241 12.592241 0 0 1 4.512054-6.316876c-3.633106-3.232436-3.633106-5.640068 0-7.219287-4.813459-2.405827-4.813459-4.813459 0-7.219286-6.627305-2.463582-7.230115-6.073225-1.804821-10.82893a27.52714 27.52714 0 0 1-2.707233-8.121697l-1.804822 7.219286c-0.126338-11.850459-5.840403-17.867734-17.145805-18.048216 11.171846 0.582957 22.000776-0.018048 32.486789-1.804822z" fill="#9462FE" p-id="4373"></path><path d="M371.993047 82.119384h10.82893a15.214646 15.214646 0 0 0 0.902411 7.219287l1.804822-3.609643c1.451077 4.410984 4.158309 7.721027 8.121697 9.926519a12.285421 12.285421 0 0 0-5.414465 2.707232c-1.06304 3.380431 0.140776 6.389069 3.609643 9.024108-4.463324 2.884105-4.463324 5.591337 0 8.121697-2.647673 1.979889-4.152895 4.687122-4.512054 8.121698l-1.804821-7.219287c-4.613124 8.897771-3.109708 16.418462 4.512054 22.560271l-3.609644 1.804821c5.349491 1.51605 5.950497 3.320872 1.804822 5.414465 4.627563 3.33892 4.627563 6.648963 0 9.926519a6.582184 6.582184 0 0 0 1.804822 2.707233c-9.016889 4.50303-9.016889 6.908857 0 7.219286-2.158567-1.180353-2.158567-2.082764 0-2.707232 4.789997 3.73959 4.187186 6.748228-1.804822 9.024108a1765.707538 1765.707538 0 0 0-52.339827 0c4.387521-2.82996 4.387521-5.537193 0-8.121697 3.725152-1.837308 4.327962-4.243136 1.804821-7.219287 0.884363-3.577156 2.689184-6.585794 5.414465-9.024108-2.490654-2.389584-3.093464-4.795411-1.804821-7.219287-5.36754-2.718061-5.968545-5.724894-1.804822-9.024108a20.464872 20.464872 0 0 1-2.707232-6.316876l-1.804822 5.414465a57.348207 57.348207 0 0 1-4.512054-12.633751c2.93103-0.252675 5.035452 0.951141 6.316876 3.609643a32.203432 32.203432 0 0 1 8.121697-9.926519l-7.219287-7.219286c-0.241846-2.788449 0.360964-5.797087 1.804822-9.024108a29.236306 29.236306 0 0 0-2.707232-6.316876l-1.804822 3.609643c-1.234498-2.317391-0.933093-4.421813 0.902411-6.316876l-3.609644-1.804821a430.190065 430.190065 0 0 0 39.706076-2.707233z" fill="#792AFF" p-id="4374"></path><path d="M422.528053 82.119384h166.04359c-10.486014 1.786773-21.314943 2.387779-32.486789 1.804822a398.757291 398.757291 0 0 0-37.901254 0.902411 96.711367 96.711367 0 0 1 5.414465 10.82893c-2.405827 1.804822-2.405827 3.609643 0 5.414464a13.090371 13.090371 0 0 0-3.609644 4.512055 112.422339 112.422339 0 0 1 1.804822 9.926518c-0.970994 3.793735-2.775816 5.297151-5.414465 4.512055 1.359031 4.066263 3.764858 7.376306 7.219287 9.926519a131.519157 131.519157 0 0 0-5.414465 11.73134 13.090371 13.090371 0 0 0 3.609643 4.512054 227.86595 227.86595 0 0 0-5.414465 3.609643c1.424004 0.985433 3.228826 2.189249 5.414465 3.609644a27.52714 27.52714 0 0 0-2.707233 8.121697l-1.804821-7.219286-2.707233 2.707232c-0.933093 5.385588 0.270723 10.500452 3.609644 15.340984a619.274008 619.274008 0 0 1-66.778401-1.804822c2.62782 0.321258 5.033648-1.183963 7.219287-4.512054 0.667784-2.905763-0.536032-5.612995-3.609644-8.121697a27.043447 27.043447 0 0 1 5.414465-6.316876c-9.86335-8.229987-12.269177-18.757511-7.219286-31.584378a6.582184 6.582184 0 0 0-1.804822-2.707233l5.414465-9.024108c-5.226763-3.483306-7.031585-7.99536-5.414465-13.536162-2.616991-2.436509-3.820807-5.445147-3.609643-9.024108a73.887593 73.887593 0 0 0 16.243395-0.902411 470.390662 470.390662 0 0 1-41.510898-2.707233z" fill="#8747FF" p-id="4375"></path><path d="M556.084854 83.924206c11.305403 0.180482 17.019468 6.197757 17.145805 18.048216l1.804822-7.219286a27.52714 27.52714 0 0 0 2.707233 8.121697c-5.425294 4.755705-4.822483 8.365348 1.804821 10.82893-4.813459 2.405827-4.813459 4.813459 0 7.219286-3.633106 1.579219-3.633106 3.986851 0 7.219287a12.592241 12.592241 0 0 0-4.512054 6.316876c-1.490783-3.438185-3.59701-4.040996-6.316876-1.804822v9.024108c5.257445 4.333377 4.654635 6.739204-1.804821 7.219287a1072.408771 1072.408771 0 0 0 7.219286 23.462681h-55.94947c-3.33892-4.840532-4.542736-9.955396-3.609644-15.340984l2.707233-2.707232 1.804821 7.219286a27.52714 27.52714 0 0 1 2.707233-8.121697 227.86595 227.86595 0 0 1-5.414465-3.609644c1.424004-0.985433 3.228826-2.189249 5.414465-3.609643a13.090371 13.090371 0 0 1-3.609643-4.512054 131.519157 131.519157 0 0 1 5.414465-11.73134c-3.454429-2.550213-5.860256-5.860256-7.219287-9.926519 2.638649 0.785097 4.443471-0.718319 5.414465-4.512055a112.422339 112.422339 0 0 0-1.804822-9.926518 13.090371 13.090371 0 0 1 3.609644-4.512055c-2.405827-1.804822-2.405827-3.609643 0-5.414464a96.711367 96.711367 0 0 0-5.414465-10.82893 398.757291 398.757291 0 0 1 37.901254-0.902411z" fill="#8E55FF" p-id="4376"></path><path d="M960.3649 118.215817c0.395256 2.120665-0.20575 3.925487-1.804822 5.414465-2.158567-0.624468-2.158567-1.526879 0-2.707233-2.245198-0.822999-3.748615 0.079412-4.512054 2.707233l-1.804822-3.609643a34.138201 34.138201 0 0 0-5.414465 9.024108l-3.609643-7.219287c-1.203816 4.813459-2.405827 4.813459-3.609643 0-1.203816 4.813459-2.405827 4.813459-3.609643 0a41.068716 41.068716 0 0 1-7.219287 9.024108l-5.414465-5.414465c-1.203816 4.813459-2.405827 4.813459-3.609643 0-2.405827 4.813459-4.813459 4.813459-7.219287 0-1.203816 4.813459-2.405827 4.813459-3.609643 0-4.021143 1.443857-6.42697-0.360964-7.219286-5.414464-0.637102 2.840789-1.840918 5.847622-3.609644 9.024108-1.77053-5.755576-4.176357-6.356582-7.219286-1.804822a37.253323 37.253323 0 0 1-3.609644-10.82893c-1.649607 6.650768-2.853423 6.049762-3.609643-1.804821l-3.609643 14.438573c0.295991-6.587599-1.810236-8.091015-6.316876-4.512054 4.333377 1.452881 4.031972 2.956298-0.902411 4.512054-2.405827-4.813459-4.813459-4.813459-7.219286 0l-16.243395-9.024108c-1.203816 9.625114-2.405827 9.625114-3.609643 0-0.902411 2.106227-2.405827 3.609643-4.512054 4.512054 4.333377 1.452881 4.031972 2.956298-0.902411 4.512054-2.362512-4.315329-4.167333-4.315329-5.414465 0l-3.609643-7.219287c-1.203816 4.813459-2.405827 4.813459-3.609643 0-1.203816 12.032746-2.405827 12.032746-3.609644 0-4.934382 1.555756-5.235788 3.059173-0.90241 4.512054-2.434704 1.393322-3.938121 3.501354-4.512055 6.316876-0.523398-2.786645-1.725409-5.192472-3.609643-7.219287-1.203816 4.813459-2.405827 4.813459-3.609643 0-3.299214 4.163724-6.306047 3.562718-9.024108-1.804821l-1.804822 3.609643a11.810753 11.810753 0 0 0-5.414465-5.414465c-1.234498 2.317391-0.933093 4.421813 0.902411 6.316876-1.804822 3.609643-3.609643 3.609643-5.414465 0 2.117056-5.612995 1.214645-5.9144-2.707232-0.902411l-1.804822-7.219286c-0.454815 3.389455-1.658631 6.999098-3.609643 10.828929-1.247132-4.315329-3.051953-4.315329-5.414465 0l-5.414465-5.414465-1.804822 3.609644a18.510251 18.510251 0 0 0-2.707232-7.219287c-0.059559 2.687379-0.96197 5.093207-2.707233 7.219287a17.082637 17.082637 0 0 0-4.512054-2.707233c2.62782-0.76344 3.530231-2.266856 2.707233-4.512054a11.810753 11.810753 0 0 0-5.414465 5.414465l-1.804822-3.609643c-1.203816 9.625114-2.405827 9.625114-3.609643 0l-3.609643 7.219286c-2.68377-1.359031-2.985175-2.862447-0.902411-4.512054-1.203816-1.203816-2.405827-1.203816-3.609643 0-0.566714 7.569422-3.273946 7.869022-8.121698 0.902411 1.113575-2.878691 0.512569-5.284518-1.804821-7.219286-1.203816 12.032746-2.405827 12.032746-3.609644 0l-1.804821 7.219286c-2.941859-11.549054-5.347686-10.946243-7.219287 1.804822-0.647931-5.493877-1.851747-6.096687-3.609643-1.804822l-5.414465-9.024108c-1.510636 11.437155-2.712647 10.834344-3.609643-1.804822-0.35916 3.434576-1.864381 6.141808-4.512054 8.121698 4.333377 1.452881 4.031972 2.956298-0.902411 4.512054-3.080831-4.179967-6.389069-6.587599-9.926519-7.219287 3.389455-19.939669 14.821195-32.874826 34.291611-38.803665 65.574584-1.203816 131.150974-1.203816 196.725558 0 18.761121 4.862189 30.793867 16.59353 36.096433 35.194022z" fill="#FE9C23" p-id="4377"></path><path d="M269.118214 82.119384h102.874833a430.190065 430.190065 0 0 1-39.706076 2.707233l3.609644 1.804821c-1.835504 1.895063-2.136909 3.999485-0.902411 6.316876l1.804822-3.609643a29.236306 29.236306 0 0 1 2.707232 6.316876c-1.443857 3.227021-2.046668 6.235659-1.804822 9.024108l7.219287 7.219286a32.203432 32.203432 0 0 0-8.121697 9.926519c-1.281423-2.658502-3.385845-3.862318-6.316876-3.609643a57.348207 57.348207 0 0 0 4.512054 12.633751l1.804822-5.414465a20.464872 20.464872 0 0 0 2.707232 6.316876c-4.163724 3.299214-3.562718 6.306047 1.804822 9.024108-1.288643 2.423875-0.685832 4.829703 1.804821 7.219287-2.725281 2.438314-4.530102 5.446952-5.414465 9.024108 2.523141 2.976151 1.92033 5.381978-1.804821 7.219287 4.387521 2.584505 4.387521 5.291737 0 8.121697a1416.100954 1416.100954 0 0 0-101.070012 1.804822c-4.142066 1.146062-7.148898 3.553694-9.024108 7.219286a73.900227 73.900227 0 0 1-9.024108-12.633751c-9.267759-45.261317 8.179452-74.138463 52.339827-86.631439z" fill="#7019FE" p-id="4378"></path><path d="M960.3649 118.215817c4.472348 12.278202 4.773753 24.911953 0.90241 37.901254a402.973355 402.973355 0 0 1-24.365092 45.120541 44.163985 44.163985 0 0 0-6.316875-5.414465l-5.414465 10.82893c-1.539513-2.932835-3.344334-3.533841-5.414465-1.804822-1.535903-5.616605-3.640325-6.219415-6.316876-1.804821 1.490783 1.716385 1.790383 3.521207 0.902411 5.414465l-10.82893-10.82893a78.302187 78.302187 0 0 0-3.609643 14.438573c-2.335439-2.443728-2.63504-4.851361-0.902411-7.219287a47.089601 47.089601 0 0 1-6.316876-9.024108c-3.59701 1.16772-6.603842 4.174552-9.024108 9.024108-1.203816-2.405827-2.405827-2.405827-3.609643 0 1.113575-2.878691 0.512569-5.284518-1.804822-7.219286-2.317391 1.934769-2.918397 4.340596-1.804821 7.219286l-7.219287-7.219286a34.154445 34.154445 0 0 0-5.414465 9.024108c-2.752353-11.029265-6.361996-11.029265-10.82893 0-1.539513-2.932835-3.344334-3.533841-5.414464-1.804822-1.072064-7.79322-3.779296-8.695631-8.121698-2.707232 3.08805 2.044863 3.990461 4.752095 2.707233 8.121697-1.203816-4.813459-2.405827-4.813459-3.609644 0a34.154445 34.154445 0 0 0-5.414464-9.024108 41.014572 41.014572 0 0 0-5.414465 12.633751c-0.418719-2.232564-1.321129-4.037386-2.707233-5.414464 8.437541-9.780328 7.23553-17.902026-3.609643-24.365092l-93.850725-1.804822c-28.499938-10.680934-39.929874-30.835378-34.291611-60.461525 3.53745 0.631688 6.845688 3.03932 9.926519 7.219287 4.934382-1.555756 5.235788-3.059173 0.902411-4.512054 2.647673-1.979889 4.152895-4.687122 4.512054-8.121698 0.896996 12.639166 2.099008 13.241976 3.609643 1.804822l5.414465 9.024108c1.757896-4.291866 2.961712-3.689055 3.609643 1.804822 1.8716-12.751065 4.277427-13.353875 7.219287-1.804822l1.804821-7.219286c1.203816 12.032746 2.405827 12.032746 3.609644 0 2.317391 1.934769 2.918397 4.340596 1.804821 7.219286 4.847751 6.966612 7.554983 6.667011 8.121698-0.902411 1.203816-1.203816 2.405827-1.203816 3.609643 0-2.082764 1.649607-1.781359 3.153023 0.902411 4.512054l3.609643-7.219286c1.203816 9.625114 2.405827 9.625114 3.609643 0l1.804822 3.609643a11.810753 11.810753 0 0 1 5.414465-5.414465c0.822999 2.245198-0.079412 3.748615-2.707233 4.512054 1.653217 0.675003 3.158438 1.577414 4.512054 2.707233 1.745263-2.12608 2.647673-4.531907 2.707233-7.219287a18.510251 18.510251 0 0 1 2.707232 7.219287l1.804822-3.609644 5.414465 5.414465c2.362512-4.315329 4.167333-4.315329 5.414465 0 1.951012-3.829832 3.154828-7.439475 3.609643-10.828929l1.804822 7.219286c3.921877-5.01199 4.824288-4.710584 2.707232 0.902411 1.804822 3.609643 3.609643 3.609643 5.414465 0-1.835504-1.895063-2.136909-3.999485-0.902411-6.316876a11.810753 11.810753 0 0 1 5.414465 5.414465l1.804822-3.609643c2.718061 5.36754 5.724894 5.968545 9.024108 1.804821 1.203816 4.813459 2.405827 4.813459 3.609643 0 1.884234 2.026815 3.086245 4.432642 3.609643 7.219287 0.573933-2.815522 2.07735-4.923553 4.512055-6.316876-4.333377-1.452881-4.031972-2.956298 0.90241-4.512054 1.203816 12.032746 2.405827 12.032746 3.609644 0 1.203816 4.813459 2.405827 4.813459 3.609643 0l3.609643 7.219287c1.247132-4.315329 3.051953-4.315329 5.414465 0 4.934382-1.555756 5.235788-3.059173 0.902411-4.512054 2.106227-0.902411 3.609643-2.405827 4.512054-4.512054 1.203816 9.625114 2.405827 9.625114 3.609643 0l16.243395 9.024108c2.405827-4.813459 4.813459-4.813459 7.219286 0 4.934382-1.555756 5.235788-3.059173 0.902411-4.512054 4.50664-3.578961 6.612866-2.075545 6.316876 4.512054l3.609643-14.438573c0.75622 7.854584 1.960036 8.455589 3.609643 1.804821a37.253323 37.253323 0 0 0 3.609644 10.82893c3.042929-4.55176 5.448757-3.950755 7.219286 1.804822 1.768725-3.176486 2.972541-6.183319 3.609644-9.024108 0.792317 5.053501 3.198144 6.858322 7.219286 5.414464 1.203816 4.813459 2.405827 4.813459 3.609643 0 2.405827 4.813459 4.813459 4.813459 7.219287 0 1.203816 4.813459 2.405827 4.813459 3.609643 0l5.414465 5.414465a41.068716 41.068716 0 0 0 7.219287-9.024108c1.203816 4.813459 2.405827 4.813459 3.609643 0 1.203816 4.813459 2.405827 4.813459 3.609643 0l3.609643 7.219287a34.138201 34.138201 0 0 1 5.414465-9.024108l1.804822 3.609643c0.76344-2.62782 2.266856-3.530231 4.512054-2.707233-2.158567 1.180353-2.158567 2.082764 0 2.707233 1.599072-1.488978 2.200078-3.293799 1.804822-5.414465z" fill="#FE8F1B" p-id="4379"></path><path d="M216.778387 168.750823a73.900227 73.900227 0 0 0 9.024108 12.633751 1832.742223 1832.742223 0 0 1 37.901254 66.7784c-0.108289 0.980018-0.709295 1.581024-1.804821 1.804822-5.975764-7.632591-9.284002-6.430579-9.926519 3.609643l-2.707233-2.707232 1.804822-5.414465a12.59585 12.59585 0 0 1-4.512054-6.316876c-2.17842 3.501354-2.479825 6.809592-0.902411 9.926519l-2.707232 2.707233c-1.203816-9.625114-2.405827-9.625114-3.609644 0a13.090371 13.090371 0 0 1-4.512054 3.609643c0.938507-5.515535-0.566714-10.327189-4.512054-14.438573-3.14039 2.194663-4.945211 5.201496-5.414465 9.024108l-7.219286-7.219286c-1.884234 2.026815-3.086245 4.432642-3.609643 7.219286a13.160759 13.160759 0 0 0-3.609644-5.414465c-3.14039 2.194663-4.945211 5.201496-5.414465 9.024108-4.983113-11.242234-8.592756-11.242234-10.828929 0a38.839762 38.839762 0 0 0-9.024109-10.828929c-1.884234 2.026815-3.086245 4.432642-3.609643 7.219286-2.718061-5.36754-5.724894-5.968545-9.024108-1.804822a13.160759 13.160759 0 0 0-3.609643-5.414464c-3.930902 2.514117-5.735723 5.522754-5.414465 9.024108l-3.609643-7.219287-1.804822 3.609643c-0.96197-4.40196-3.068197-5.603971-6.316876-3.609643a2015.678944 2015.678944 0 0 1-41.510897-70.388043c0.108289-0.980018 0.709295-1.581024 1.804821-1.804822 1.877014 4.495811 3.382236 4.495811 4.512054 0l5.414465 5.414465c2.362512-4.315329 4.167333-4.315329 5.414465 0l3.609643-7.219287c1.203816 7.219287 2.405827 7.219287 3.609644 0 1.842723 7.773367 3.94895 8.374372 6.316875 1.804822-1.674874-2.288514-1.97628-4.694341-0.90241-7.219287a26.178938 26.178938 0 0 1 7.219286 9.024109c2.485239-9.536678 4.891067-9.536678 7.219287 0 1.203816-7.219287 2.405827-7.219287 3.609643 0l5.414465-12.633752c3.555499 7.710198 8.368958 13.124663 14.438573 16.243395 3.961583-4.734047 3.059173-8.34369-2.707233-10.82893 2.198273 0.705685 3.703494-0.498131 4.512055-3.609643l7.219286 10.82893 1.804822-3.609644a26.178938 26.178938 0 0 1 7.219286 9.024108 16.071937 16.071937 0 0 1 5.414465-7.219286l1.804822 3.609643c3.057368-6.898028 5.463195-6.297023 7.219286 1.804822 1.257961-3.761248 3.364188-6.769886 6.316876-9.024108z" fill="#8E55FE" p-id="4380"></path><path d="M936.902218 201.237612c-3.441795 9.897642-8.253449 18.92175-14.438573 27.072325-0.30682-2.385974 0.294186-4.492201 1.804822-6.316876-2.254222-3.291995-4.358644-2.990589-6.316876 0.902411l-1.804821-1.804822c-1.56839 5.889133-3.976022 6.490139-7.219287 1.804822-2.041253 1.992523-3.546475 1.391517-4.512054-1.804822 2.779425-1.862576 3.681836-4.268403 2.707232-7.219287-1.247132 4.315329-3.051953 4.315329-5.414464 0-1.203816 9.625114-2.405827 9.625114-3.609644 0a26.180743 26.180743 0 0 1-7.219286 9.024109c-2.362512-4.315329-4.167333-4.315329-5.414465 0-0.902411-2.106227-2.405827-3.609643-4.512054-4.512054 4.333377-1.452881 4.031972-2.956298-0.902411-4.512055-1.761506 12.095915-5.972155 13.299731-12.633751 3.609644-0.822999-2.245198 0.079412-3.748615 2.707232-4.512054-2.106227-0.902411-3.609643-2.405827-4.512054-4.512054-1.203816 4.813459-2.405827 4.813459-3.609643 0-3.073611 3.333506-2.772206 6.643548 0.90241 9.926519a20.454044 20.454044 0 0 0-2.707232 6.316875c-0.523398-2.786645-1.725409-5.192472-3.609643-7.219286-1.203816 4.813459-2.405827 4.813459-3.609644 0l-7.219286 7.219286c-3.14039-2.194663-4.945211-5.201496-5.414465-9.024108-2.405827 4.813459-4.813459 4.813459-7.219286 0-1.203816 7.219287-2.405827 7.219287-3.609644 0l-3.609643 7.219287c-1.097332-2.826351-2.602553-5.233983-4.512054-7.219287 0.288771-2.98337 1.490783-5.389197 3.609643-7.219286 1.386103 1.377079 2.288514 3.181901 2.707233 5.414464a41.014572 41.014572 0 0 1 5.414465-12.633751 34.154445 34.154445 0 0 1 5.414464 9.024108c1.203816-4.813459 2.405827-4.813459 3.609644 0 1.283228-3.369602 0.380817-6.076834-2.707233-8.121697 4.342401-5.988398 7.049633-5.085987 8.121698 2.707232 2.07013-1.729019 3.874952-1.128014 5.414464 1.804822 4.466934-11.029265 8.076577-11.029265 10.82893 0a34.154445 34.154445 0 0 1 5.414465-9.024108l7.219287 7.219286c-1.113575-2.878691-0.512569-5.284518 1.804821-7.219286 2.317391 1.934769 2.918397 4.340596 1.804822 7.219286 1.203816-2.405827 2.405827-2.405827 3.609643 0 2.420266-4.849556 5.427099-7.856389 9.024108-9.024108a47.089601 47.089601 0 0 0 6.316876 9.024108c-1.732629 2.367926-1.433028 4.775558 0.902411 7.219287a78.302187 78.302187 0 0 1 3.609643-14.438573l10.82893 10.82893c0.887972-1.893258 0.588372-3.69808-0.902411-5.414465 2.67655-4.414594 4.780973-3.811783 6.316876 1.804821 2.07013-1.729019 3.874952-1.128014 5.414465 1.804822l5.414465-10.82893a44.163985 44.163985 0 0 1 6.316875 5.414465z" fill="#FE8416" p-id="4381"></path><path d="M922.463645 228.309937a4350.854632 4350.854632 0 0 1-55.047059 104.679654c-17.104295 20.990076-37.859743 25.50213-62.266347 13.536162-21.854585-17.310044-28.171461-39.269309-18.950627-65.875989a1658.930681 1658.930681 0 0 1 35.194022-64.973579c1.909501 1.985304 3.414723 4.392936 4.512054 7.219287l3.609643-7.219287c1.203816 7.219287 2.405827 7.219287 3.609644 0 2.405827 4.813459 4.813459 4.813459 7.219286 0 0.469254 3.822612 2.274075 6.829445 5.414465 9.024108l7.219286-7.219286c1.203816 4.813459 2.405827 4.813459 3.609644 0 1.884234 2.026815 3.086245 4.432642 3.609643 7.219286a20.454044 20.454044 0 0 1 2.707232-6.316875c-3.674617-3.282971-3.976022-6.593013-0.90241-9.926519 1.203816 4.813459 2.405827 4.813459 3.609643 0 0.902411 2.106227 2.405827 3.609643 4.512054 4.512054-2.62782 0.76344-3.530231 2.266856-2.707232 4.512054 6.661597 9.690087 10.872246 8.486271 12.633751-3.609644 4.934382 1.555756 5.235788 3.059173 0.902411 4.512055 2.106227 0.902411 3.609643 2.405827 4.512054 4.512054 1.247132-4.315329 3.051953-4.315329 5.414465 0a26.180743 26.180743 0 0 0 7.219286-9.024109c1.203816 9.625114 2.405827 9.625114 3.609644 0 2.362512 4.315329 4.167333 4.315329 5.414464 0 0.974604 2.950883 0.072193 5.356711-2.707232 7.219287 0.96558 3.196339 2.470801 3.797345 4.512054 1.804822 3.243264 4.685317 5.650897 4.084311 7.219287-1.804822l1.804821 1.804822c1.958231-3.893 4.062653-4.194405 6.316876-0.902411-1.510636 1.824675-2.111641 3.930902-1.804822 6.316876z" fill="#FE7B11" opacity=".999" p-id="4382"></path><path d="M263.703749 248.162974a979.864737 979.864737 0 0 1 48.730185 84.826617c-2.266856-0.070388-4.071678 0.832023-5.414465 2.707233 1.117185 3.311848 1.41859 7.221091 0.90241 11.73134a37.522242 37.522242 0 0 0-4.512054-1.804821 8.04409 8.04409 0 0 1 3.609644-2.707233c-3.699884-0.949336-7.008122-2.452753-9.926519-4.512054-2.317391 1.934769-2.918397 4.340596-1.804822 7.219287-1.884234-2.026815-3.086245-4.432642-3.609643-7.219287-0.523398 2.786645-1.725409 5.192472-3.609644 7.219287-1.113575-1.712776-0.813975-3.216192 0.902411-4.512054l-4.512054-4.512055a61.542613 61.542613 0 0 0-5.414465 10.82893c-3.291995-2.254222-2.990589-4.358644 0.902411-6.316875-3.106098-2.593529-5.81333-1.691118-8.121697 2.707232-1.203816-4.813459-2.405827-4.813459-3.609643 0l-3.609644-7.219287c-2.019595 1.898672-2.922006 4.004899-2.707232 6.316876 4.988527 2.786645 4.687122 4.892871-0.902411 6.316876a72.604365 72.604365 0 0 1-12.633751-14.438573c-3.876757 2.665722-6.284389 6.275365-7.219287 10.82893-1.203816-4.813459-2.405827-4.813459-3.609643 0-3.14039-2.194663-4.945211-5.201496-5.414465-9.024109l-1.804822 5.414465-9.024108-5.414465c-3.041124 4.490396-5.448757 3.889391-7.219286-1.804821l-4.512055 4.512054a58.4311 58.4311 0 0 0 7.219287 9.926519c-0.824803 1.440248-2.02862 2.041253-3.609643 1.804822a4696.079109 4696.079109 0 0 1-61.363936-106.484477c3.248679-1.994328 5.354906-0.792317 6.316876 3.609643l1.804822-3.609643 3.609643 7.219287c-0.321258-3.501354 1.483563-6.509992 5.414465-9.024108a13.160759 13.160759 0 0 1 3.609643 5.414464c3.299214-4.163724 6.306047-3.562718 9.024108 1.804822 0.523398-2.786645 1.725409-5.192472 3.609643-7.219286a38.839762 38.839762 0 0 1 9.024109 10.828929c2.236174-11.242234 5.845817-11.242234 10.828929 0 0.469254-3.822612 2.274075-6.829445 5.414465-9.024108a13.160759 13.160759 0 0 1 3.609644 5.414465c0.523398-2.786645 1.725409-5.192472 3.609643-7.219286l7.219286 7.219286c0.469254-3.822612 2.274075-6.829445 5.414465-9.024108 3.94534 4.111384 5.450561 8.923038 4.512054 14.438573a13.090371 13.090371 0 0 0 4.512054-3.609643c1.203816-9.625114 2.405827-9.625114 3.609644 0l2.707232-2.707233c-1.577414-3.116927-1.276009-6.425165 0.902411-9.926519a12.59585 12.59585 0 0 0 4.512054 6.316876l-1.804822 5.414465 2.707233 2.707232c0.642517-10.040223 3.950755-11.242234 9.926519-3.609643 1.095527-0.223798 1.696532-0.824803 1.804821-1.804822z" fill="#8746FE" opacity=".998" p-id="4383"></path><path d="M435.161805 271.625656c62.569556-0.301405 125.137308 0 187.701449 0.902411 10.235143 3.631301 15.649608 10.850588 16.243395 21.657859a87.134984 87.134984 0 0 1-8.121697 18.950627l-81.216974 137.166444c-13.837567 14.438573-27.67333 14.438573-41.510897 0l-79.412152-133.5568a124.695127 124.695127 0 0 1-9.926519-22.560271c0.949336-10.856002 6.363801-18.376694 16.243395-22.56027z" fill="#FE9F26" p-id="4384"></path><path d="M312.433934 332.989591a2257.483532 2257.483532 0 0 1 61.363935 104.679655c-2.391389-2.622406-3.894805-2.019595-4.512054 1.804822-0.573933-2.817327-2.07735-4.923553-4.512054-6.316876l1.804822-1.804822c-4.438056-1.306691-6.242878-3.712518-5.414465-7.219286-1.804822-6.015471-3.609643-6.015471-5.414465 0l1.804821 1.804821-6.316875 6.316876c-1.461906-8.204719-3.867733-8.80753-7.219287-1.804822-4.934382-1.555756-5.235788-3.059173-0.902411-4.512054a12.594045 12.594045 0 0 1-6.316875-4.512054 13.162564 13.162564 0 0 0-3.609644 5.414465c-1.936574-1.407761-4.0428-1.106356-6.316875 0.902411 4.333377 1.452881 4.031972 2.956298-0.902411 4.512054a41.476606 41.476606 0 0 0-3.609643-9.024108l-1.804822 3.609643c-1.203816-2.405827-2.405827-2.405827-3.609643 0l-1.804822-3.609643c-2.98698 0.545056-5.392807 2.952688-7.219287 7.219286-1.203816-7.219287-2.405827-7.219287-3.609643 0a16.071937 16.071937 0 0 0-5.414465-7.219286l-5.414465 7.219286c-0.76344-2.62782-2.266856-3.530231-4.512054-2.707232 1.835504 1.893258 2.136909 3.999485 0.902411 6.316876a61.542613 61.542613 0 0 0-5.414465-10.82893c-2.362512 4.315329-4.167333 4.315329-5.414465 0-1.247132 4.315329-3.051953 4.315329-5.414465 0a13.162564 13.162564 0 0 0-3.609643 5.414465c-2.07013-1.729019-3.874952-1.128014-5.414465 1.804821l-1.804821-9.024108c-0.357355 3.396674-1.259765 6.403507-2.707233 9.024108a1721.799837 1721.799837 0 0 1-46.925362-79.412151c1.581024 0.236432 2.78484-0.364574 3.609643-1.804822a58.4311 58.4311 0 0 1-7.219287-9.926519l4.512055-4.512054c1.77053 5.694212 4.178162 6.295218 7.219286 1.804821l9.024108 5.414465 1.804822-5.414465c0.469254 3.822612 2.274075 6.829445 5.414465 9.024109 1.203816-4.813459 2.405827-4.813459 3.609643 0 0.934898-4.553565 3.34253-8.163208 7.219287-10.82893a72.604365 72.604365 0 0 0 12.633751 14.438573c5.589533-1.424004 5.890938-3.530231 0.902411-6.316876-0.214774-2.311977 0.687637-4.418203 2.707232-6.316876l3.609644 7.219287c1.203816-4.813459 2.405827-4.813459 3.609643 0 2.308367-4.39835 5.015599-5.300761 8.121697-2.707232-3.893 1.958231-4.194405 4.062653-0.902411 6.316875a61.542613 61.542613 0 0 1 5.414465-10.82893l4.512054 4.512055c-1.716385 1.295862-2.015986 2.799278-0.902411 4.512054 1.884234-2.026815 3.086245-4.432642 3.609644-7.219287 0.523398 2.786645 1.725409 5.192472 3.609643 7.219287-1.113575-2.878691-0.512569-5.284518 1.804822-7.219287 2.918397 2.059301 6.226635 3.562718 9.926519 4.512054a8.04409 8.04409 0 0 0-3.609644 2.707233c1.348202 0.425938 2.851618 1.028748 4.512054 1.804821 0.516179-4.510249 0.214774-8.419493-0.90241-11.73134 1.342787-1.87521 3.147609-2.77762 5.414465-2.707233z" fill="#8038FE" opacity=".995" p-id="4385"></path><path d="M788.906845 443.083711c-1.609901-3.504964-0.406085-6.511796 3.609643-9.024108-1.232693-5.344077-2.73611-5.946887-4.512054-1.804822-1.56839-9.038547-2.772206-8.437541-3.609644 1.804822-1.757896-4.291866-2.961712-3.689055-3.609643 1.804821-1.026944-6.968416-2.53036-6.968416-4.512054 0 0.685832-3.53745-0.216579-7.147094-2.707232-10.82893a13.162564 13.162564 0 0 0-3.609644 5.414465c-1.203816-7.219287-2.405827-7.219287-3.609643 0-1.203816-4.813459-2.405827-4.813459-3.609643 0-2.918397-1.869795-3.219802-3.976022-0.902411-6.316875l-4.512054-4.512054-4.512054 4.512054c1.716385 1.295862 2.015986 2.799278 0.902411 4.512054-3.452624-5.248421-7.663273-6.450433-12.633752-3.609644l-3.609643-3.609643c-0.637102 2.840789-1.840918 5.849427-3.609643 9.024108l-3.609644-7.219286-5.414464 5.414465c-1.113575-1.712776-0.813975-3.216192 0.90241-4.512054l-4.512054-4.512054c-1.900477 4.048215-4.308109 8.258864-7.219286 12.633751l-1.804822-7.219287a98.593796 98.593796 0 0 0-3.609643 12.633752 27.776205 27.776205 0 0 1-5.414465-10.82893c-1.203816 7.219287-2.405827 7.219287-3.609643 0a14.785099 14.785099 0 0 1-4.512054 7.219287c3.539255 2.4329 3.84066 4.838727 0.90241 7.219286-2.405827-4.813459-4.813459-4.813459-7.219286 0-1.472734-2.387779-3.578961-3.58979-6.316876-3.609643a1434.252045 1434.252045 0 0 1 31.584379-54.144649c17.898416-20.641745 39.256675-25.153799 64.071168-13.536162 21.499035 15.290449 27.815911 35.443087 18.950627 60.461524-1.851747 4.943406-4.558979 9.154055-8.121697 12.633752z" fill="#7F35FE" opacity=".993" p-id="4386"></path><path d="M788.906845 443.083711a1579.843397 1579.843397 0 0 1-45.120541 77.60733c-2.205492-2.593529-2.205492-5.300761 0-8.121697-0.801341-3.180096-1.703752-2.878691-2.707233 0.90241a40.622925 40.622925 0 0 1-3.609643-12.633751c-0.837437 10.242363-2.041253 10.843368-3.609643 1.804822-1.203816 4.813459-2.405827 4.813459-3.609644 0l-5.414464 10.828929c-1.203816-4.813459-2.405827-4.813459-3.609644 0l-1.804821-3.609643c-0.952946 11.863093-2.458167 11.863093-4.512054 0 0.368184 1.857161-0.534227 3.661983-2.707233 5.414465a12.594045 12.594045 0 0 0-6.316876-4.512054c2.62782-0.76344 3.530231-2.266856 2.707233-4.512054-2.07013 1.729019-3.874952 1.128014-5.414465-1.804822a27.891714 27.891714 0 0 1-5.414465 9.024108 65.26235 65.26235 0 0 0-7.219286-12.633751c-2.093593 4.145675-3.898415 3.54467-5.414465-1.804822-3.474282 6.621891-6.482919 6.621891-9.024109 0l-5.414464 1.804822-1.804822-3.609643c-1.203816 3.609643-3.609643 6.015471-7.219287 7.219286-1.858966-4.975893-4.867604-7.383525-9.024108-7.219286-3.965193 2.761377-5.46861 6.07142-4.512054 9.926519a53.27292 53.27292 0 0 0-4.512054 8.121697c-0.752611-2.266856-2.256027-3.470672-4.512054-3.609643l43.315719-73.997687c2.737914 0.019853 4.844141 1.221864 6.316876 3.609643 2.405827-4.813459 4.813459-4.813459 7.219286 0 2.93825-2.38056 2.636844-4.786387-0.90241-7.219286a14.785099 14.785099 0 0 0 4.512054-7.219287c1.203816 7.219287 2.405827 7.219287 3.609643 0a27.776205 27.776205 0 0 0 5.414465 10.82893 98.593796 98.593796 0 0 1 3.609643-12.633752l1.804822 7.219287c2.911177-4.374888 5.318809-8.585537 7.219286-12.633751l4.512054 4.512054c-1.716385 1.295862-2.015986 2.799278-0.90241 4.512054l5.414464-5.414465 3.609644 7.219286c1.768725-3.174681 2.972541-6.183319 3.609643-9.024108l3.609643 3.609643c4.970479-2.840789 9.181128-1.638778 12.633752 3.609644 1.113575-1.712776 0.813975-3.216192-0.902411-4.512054l4.512054-4.512054 4.512054 4.512054c-2.317391 2.340854-2.015986 4.447081 0.902411 6.316875 1.203816-4.813459 2.405827-4.813459 3.609643 0 1.203816-7.219287 2.405827-7.219287 3.609643 0a13.162564 13.162564 0 0 1 3.609644-5.414465c2.490654 3.681836 3.393065 7.291479 2.707232 10.82893 1.981694-6.968416 3.485111-6.968416 4.512054 0 0.647931-5.493877 1.851747-6.096687 3.609643-1.804821 0.837437-10.242363 2.041253-10.843368 3.609644-1.804822 1.775944-4.142066 3.279361-3.539255 4.512054 1.804822-4.015728 2.512312-5.219544 5.519145-3.609643 9.024108z" fill="#792BFE" opacity=".997" p-id="4387"></path><path d="M373.797869 437.669246c14.26531 23.101717 28.102878 46.564398 41.510898 70.388044-3.757639-0.223798-6.464871-2.02862-8.121698-5.414465-3.160243 9.307465-5.567875 8.70646-7.219286-1.804822l-1.804822 7.219287c-1.768725-3.174681-2.972541-6.183319-3.609643-9.024109-2.362512 4.315329-4.167333 4.315329-5.414465 0-1.247132 4.315329-3.051953 4.315329-5.414465 0-2.362512 4.315329-4.167333 4.315329-5.414465 0-1.247132 4.315329-3.051953 4.315329-5.414465 0l-5.414465 5.414465-1.804821-3.609643c-1.51605 5.349491-3.320872 5.950497-5.414465 1.804822-0.572128 3.250484-1.775944 3.851489-3.609643 1.804821-0.749001 3.232436-2.553823 5.638263-5.414465 7.219287-2.849813-3.533841-2.548408-7.143484 0.90241-10.82893a28.236434 28.236434 0 0 1-4.512054-7.219287l-5.414465 10.82893a38.85781 38.85781 0 0 0-9.024108-10.82893c-3.930902 2.514117-5.735723 5.522754-5.414465 9.024109-3.302824-6.57677-6.311461-5.97396-9.024108 1.804821l-5.414465-7.219286a61.084188 61.084188 0 0 0-8.121697 10.82893 1579.843397 1579.843397 0 0 1-45.120541-77.607331c1.447467-2.620601 2.349878-5.627434 2.707233-9.024108l1.804821 9.024108c1.539513-2.932835 3.344334-3.533841 5.414465-1.804821a13.162564 13.162564 0 0 1 3.609643-5.414465c2.362512 4.315329 4.167333 4.315329 5.414465 0 1.247132 4.315329 3.051953 4.315329 5.414465 0a61.542613 61.542613 0 0 1 5.414465 10.82893c1.234498-2.317391 0.933093-4.423618-0.902411-6.316876 2.245198-0.822999 3.748615 0.079412 4.512054 2.707232l5.414465-7.219286a16.071937 16.071937 0 0 1 5.414465 7.219286c1.203816-7.219287 2.405827-7.219287 3.609643 0 1.826479-4.266598 4.232307-6.67423 7.219287-7.219286l1.804822 3.609643c1.203816-2.405827 2.405827-2.405827 3.609643 0l1.804822-3.609643a41.476606 41.476606 0 0 1 3.609643 9.024108c4.934382-1.555756 5.235788-3.059173 0.902411-4.512054 2.274075-2.008766 4.380302-2.310172 6.316875-0.902411a13.162564 13.162564 0 0 1 3.609644-5.414465 12.594045 12.594045 0 0 0 6.316875 4.512054c-4.333377 1.452881-4.031972 2.956298 0.902411 4.512054 3.351554-7.002708 5.757381-6.399898 7.219287 1.804822l6.316875-6.316876-1.804821-1.804821c1.804822-6.015471 3.609643-6.015471 5.414465 0-0.828413 3.506768 0.976409 5.912596 5.414465 7.219286l-1.804822 1.804822c2.434704 1.393322 3.938121 3.499549 4.512054 6.316876 0.617249-3.824417 2.120665-4.427227 4.512054-1.804822z" fill="#7A2BFE" opacity=".997" p-id="4388"></path><path d="M415.308767 508.05729c15.090114 26.502001 30.131497 52.971515 45.12054 79.412151-1.173134 0.548666-2.37695 1.149671-3.609643 1.804822a18.51386 18.51386 0 0 1-2.707232-7.219287 18.51386 18.51386 0 0 1-2.707233 7.219287c-3.301019-1.411371-6.008251-0.209359-8.121697 3.609643l-1.804822-7.219286a37.251518 37.251518 0 0 1-3.609643 10.82893c-1.203816-2.405827-2.405827-2.405827-3.609643 0l-2.707233-2.707233c2.826351-4.831508 1.624339-7.237335-3.609643-7.219286l-6.316876 6.316875-1.804821-7.219286c-0.203945 4.465129-2.008766 8.074772-5.414465 10.82893-0.915045-2.700013-0.012634-4.80624 2.707232-6.316876-2.434704-1.393322-3.938121-3.499549-4.512054-6.316876-0.35555 4.261184-2.461777 7.269822-6.316876 9.024108-3.74681-3.551889-6.154442-7.161532-7.219286-10.82893-4.003094 2.570066-6.710327 6.179709-8.121697 10.82893a27.776205 27.776205 0 0 0-5.414465-10.82893l-1.804822 3.609644-5.414465-1.804822a35.892488 35.892488 0 0 0-6.316876 7.219287c-6.647158-4.786387-12.061623-3.582571-16.243394 3.609643a1542.155111 1542.155111 0 0 1-50.535006-86.631438 61.084188 61.084188 0 0 1 8.121697-10.82893l5.414465 7.219286c2.712647-7.778781 5.721285-8.381592 9.024108-1.804821-0.321258-3.501354 1.483563-6.509992 5.414465-9.024109a38.85781 38.85781 0 0 1 9.024108 10.82893l5.414465-10.82893a28.236434 28.236434 0 0 0 4.512054 7.219287c-3.450819 3.685446-3.752224 7.295089-0.90241 10.82893 2.860642-1.581024 4.665464-3.986851 5.414465-7.219287 1.833699 2.046668 3.037515 1.445662 3.609643-1.804821 2.093593 4.145675 3.898415 3.54467 5.414465-1.804822l1.804821 3.609643 5.414465-5.414465c2.362512 4.315329 4.167333 4.315329 5.414465 0 1.247132 4.315329 3.051953 4.315329 5.414465 0 2.362512 4.315329 4.167333 4.315329 5.414465 0 1.247132 4.315329 3.051953 4.315329 5.414465 0 0.637102 2.840789 1.840918 5.849427 3.609643 9.024109l1.804822-7.219287c1.651412 10.511281 4.059044 11.112287 7.219286 1.804822 1.656826 3.385845 4.364059 5.190667 8.121698 5.414465z" fill="#7420FE" opacity=".997" p-id="4389"></path><path d="M743.786304 520.691041a752.708081 752.708081 0 0 1-43.315719 73.997687 68.274598 68.274598 0 0 1-6.316876-7.219287c-1.757896 4.291866-2.961712 3.689055-3.609643-1.804821l-1.804822 5.414465a16.071937 16.071937 0 0 0-5.414465-7.219287l-9.024108 9.024108-1.804822-5.414465a41.476606 41.476606 0 0 1-3.609643 9.024109l-2.707233-2.707233c4.237721-3.046539 4.539126-6.356582 0.902411-9.926519-3.14039 2.194663-4.945211 5.201496-5.414465 9.024108-1.203816-4.813459-2.405827-4.813459-3.609643 0-1.337373-2.059301-2.842594-2.059301-4.512054 0-2.436509-4.033776-5.143742-6.439604-8.121697-7.219286-0.75622 7.854584-1.960036 8.455589-3.609644 1.804821l-1.804821 5.414465a38.85781 38.85781 0 0 1-9.024108-10.82893l-5.414465 9.024109c-1.649607-6.650768-2.853423-6.049762-3.609643 1.804821-1.943793-3.979632-3.145804-7.589275-3.609644-10.82893-1.203816 2.405827-2.405827 2.405827-3.609643 0l-4.512054 5.414465c0.368184-1.857161-0.534227-3.661983-2.707233-5.414465-6.645353 2.768596-11.758413 6.979245-15.340983 12.633752a1711.212754 1711.212754 0 0 1 46.925362-83.021795c2.256027 0.138971 3.759443 1.342787 4.512054 3.609643a53.27292 53.27292 0 0 1 4.512054-8.121697c-0.956555-3.855099 0.546861-7.165142 4.512054-9.926519 4.156504-0.164239 7.165142 2.243393 9.024108 7.219286 3.609643-1.203816 6.015471-3.609643 7.219287-7.219286l1.804822 3.609643 5.414464-1.804822c2.541189 6.621891 5.549827 6.621891 9.024109 0 1.51605 5.349491 3.320872 5.950497 5.414465 1.804822a65.26235 65.26235 0 0 1 7.219286 12.633751 27.891714 27.891714 0 0 0 5.414465-9.024108c1.539513 2.932835 3.344334 3.533841 5.414465 1.804822 0.822999 2.245198-0.079412 3.748615-2.707233 4.512054a12.594045 12.594045 0 0 1 6.316876 4.512054c2.173005-1.752482 3.075416-3.557303 2.707233-5.414465 2.053887 11.863093 3.559108 11.863093 4.512054 0l1.804821 3.609643c1.203816-4.813459 2.405827-4.813459 3.609644 0l5.414464-10.828929c1.203816 4.813459 2.405827 4.813459 3.609644 0 1.56839 9.038547 2.772206 8.437541 3.609643-1.804822 0.523398 4.425423 1.725409 8.636072 3.609643 12.633751 1.003481-3.781101 1.905892-4.082507 2.707233-0.90241-2.205492 2.820936-2.205492 5.528169 0 8.121697z" fill="#741FFE" opacity=".996" p-id="4390"></path><path d="M460.429307 587.469441a2009.582256 2009.582256 0 0 1 58.656703 99.26519c2.542994 2.311977 5.250226 4.116798 8.121698 5.414465a16.438315 16.438315 0 0 0-9.024108 1.804822c-2.496068-4.649221-4.00129-4.04641-4.512054 1.804821-0.934898-4.553565-3.34253-8.163208-7.219287-10.828929l-1.804822 5.414464c-2.402218-8.231791-5.40905-9.433803-9.024108-3.609643 0.429548-4.623953-1.375274-8.836407-5.414465-12.633751-1.247132 4.315329-3.051953 4.315329-5.414465 0-3.041124 4.490396-5.448757 3.889391-7.219286-1.804822l-4.512054 4.512054c2.117056 5.612995 1.214645 5.9144-2.707233 0.902411l-5.414465 1.804822c-1.203816-4.813459-2.405827-4.813459-3.609643 0-1.308496-2.992394-3.414723-3.894805-6.316876-2.707233l3.609644 1.804822a20.454044 20.454044 0 0 0-2.707233 6.316876l-3.609643-10.82893c-0.523398 2.786645-1.725409 5.192472-3.609643 7.219286-1.203816-4.813459-2.405827-4.813459-3.609643 0l-7.219287-7.219286c-1.539513 2.932835-3.344334 3.533841-5.414465 1.804821a13.162564 13.162564 0 0 0-3.609643 5.414465l-1.804822-3.609643c-1.678484 5.1654-4.687122 9.376048-9.024108 12.633751-0.46023 4.768339 1.644193 8.076577 6.316876 9.926519-2.387779 1.472734-3.58979 3.578961-3.609644 6.316876a2566.212711 2566.212711 0 0 1-64.973578-111.898941c4.181772-7.192214 9.596237-8.39603 16.243394-3.609643a35.892488 35.892488 0 0 1 6.316876-7.219287l5.414465 1.804822 1.804822-3.609644a27.776205 27.776205 0 0 1 5.414465 10.82893c1.411371-4.649221 4.118603-8.258864 8.121697-10.82893 1.064845 3.667398 3.472477 7.277041 7.219286 10.82893 3.855099-1.754287 5.961326-4.762924 6.316876-9.024108 0.573933 2.817327 2.07735 4.923553 4.512054 6.316876-2.719866 1.510636-3.622277 3.616863-2.707232 6.316876 3.405698-2.754158 5.21052-6.363801 5.414465-10.82893l1.804821 7.219286 6.316876-6.316875c5.233983-0.018048 6.435994 2.387779 3.609643 7.219286l2.707233 2.707233c1.203816-2.405827 2.405827-2.405827 3.609643 0a37.251518 37.251518 0 0 0 3.609643-10.82893l1.804822 7.219286c2.113446-3.819003 4.820679-5.021014 8.121697-3.609643a18.51386 18.51386 0 0 0 2.707233-7.219287 18.51386 18.51386 0 0 0 2.707232 7.219287c1.232693-0.65515 2.436509-1.256156 3.609643-1.804822z" fill="#6E15FE" p-id="4391"></path><path d="M700.470585 594.688728a4621.832357 4621.832357 0 0 1-61.363936 106.484476c-4.376692-0.332087-4.376692-1.535903 0-3.609643a13.081347 13.081347 0 0 0-3.609643-4.512054 65.031333 65.031333 0 0 1 9.024108-12.633752c-1.555756-4.934382-3.059173-5.235788-4.512054-0.90241-1.203816-2.405827-2.405827-2.405827-3.609643 0a18.51386 18.51386 0 0 1-2.707233 7.219286c0.685832-3.53745-0.216579-7.147094-2.707232-10.82893a36.410472 36.410472 0 0 1-7.219287 10.82893c-1.203816-9.625114-2.405827-9.625114-3.609643 0-0.75622-7.854584-1.960036-8.455589-3.609643-1.804821-0.449401-4.831508-2.254222-9.042156-5.414465-12.633752a13.162564 13.162564 0 0 0-3.609644 5.414465c-2.826351-1.012505-5.232178 0.191311-7.219286 3.609643-1.203816-4.813459-2.405827-4.813459-3.609643 0-1.496197-8.735337-4.504835-9.336342-9.024109-1.804821l-1.804821-1.804822c-0.391646 3.420137-1.895063 7.02978-4.512054 10.82893a8.04409 8.04409 0 0 1-2.707233-3.609643l-1.804821 7.219286-3.609644-14.438573-3.609643 14.438573c-0.389841-3.400284-1.593658-6.408922-3.609643-9.024108-1.203816 4.813459-2.405827 4.813459-3.609643 0-3.210778 5.010185-5.015599 4.409179-5.414465-1.804822a12.276397 12.276397 0 0 1-2.707233 5.414465l-1.804821-0.902411c1.902282-2.505092 2.201882-5.212325 0.90241-8.121697-1.674874 6.596623-4.683512 7.798634-9.024108 3.609643l-1.804821 5.414465-1.804822-1.804821c-0.752611 2.266856-2.256027 3.470672-4.512054 3.609643 18.676294-31.347947 37.325516-62.63092 55.949471-93.850725 3.582571-5.654506 8.695631-9.865155 15.340983-12.633752 2.173005 1.752482 3.075416 3.557303 2.707233 5.414465l4.512054-5.414465c1.203816 2.405827 2.405827 2.405827 3.609643 0 0.463839 3.239655 1.66585 6.849298 3.609644 10.82893 0.75622-7.854584 1.960036-8.455589 3.609643-1.804821l5.414465-9.024109a38.85781 38.85781 0 0 0 9.024108 10.82893l1.804821-5.414465c1.649607 6.650768 2.853423 6.049762 3.609644-1.804821 2.977956 0.779683 5.685188 3.18551 8.121697 7.219286 1.66946-2.059301 3.174681-2.059301 4.512054 0 1.203816-4.813459 2.405827-4.813459 3.609643 0 0.469254-3.822612 2.274075-6.829445 5.414465-9.024108 3.636716 3.569937 3.33531 6.87998-0.902411 9.926519l2.707233 2.707233a41.476606 41.476606 0 0 0 3.609643-9.024109l1.804822 5.414465 9.024108-9.024108a16.071937 16.071937 0 0 1 5.414465 7.219287l1.804822-5.414465c0.647931 5.493877 1.851747 6.096687 3.609643 1.804821a68.274598 68.274598 0 0 0 6.316876 7.219287z" fill="#6F15FE" p-id="4392"></path><path d="M527.207708 692.149096a29.488981 29.488981 0 0 0 9.024108-3.609643c2.256027-0.138971 3.759443-1.342787 4.512054-3.609643l1.804822 1.804821 1.804821-5.414465c4.340596 4.188991 7.349234 2.98698 9.024108-3.609643 1.299472 2.909372 0.999871 5.616605-0.90241 8.121697l1.804821 0.902411a12.276397 12.276397 0 0 0 2.707233-5.414465c0.398866 6.214001 2.203687 6.815006 5.414465 1.804822 1.203816 4.813459 2.405827 4.813459 3.609643 0 2.015986 2.615187 3.219802 5.623824 3.609643 9.024108l3.609643-14.438573 3.609644 14.438573 1.804821-7.219286a8.04409 8.04409 0 0 0 2.707233 3.609643c2.616991-3.79915 4.120408-7.408793 4.512054-10.82893l1.804821 1.804822c4.519273-7.531521 7.527911-6.930515 9.024109 1.804821 1.203816-4.813459 2.405827-4.813459 3.609643 0 1.987109-3.418332 4.392936-4.622148 7.219286-3.609643a13.162564 13.162564 0 0 1 3.609644-5.414465c3.160243 3.591595 4.965064 7.802244 5.414465 12.633752 1.649607-6.650768 2.853423-6.049762 3.609643 1.804821 1.203816-9.625114 2.405827-9.625114 3.609643 0a36.410472 36.410472 0 0 0 7.219287-10.82893c2.490654 3.681836 3.393065 7.291479 2.707232 10.82893a18.51386 18.51386 0 0 0 2.707233-7.219286c1.203816-2.405827 2.405827-2.405827 3.609643 0 1.452881-4.333377 2.956298-4.031972 4.512054 0.90241a65.031333 65.031333 0 0 0-9.024108 12.633752 13.081347 13.081347 0 0 1 3.609643 4.512054c-4.376692 2.07374-4.376692 3.277556 0 3.609643a505922.537503 505922.537503 0 0 0-67.680811 117.313406c-20.735596 23.531264-45.100688 28.043319-73.095276 13.536163l-11.731341-11.731341a2686.552803 2686.552803 0 0 1-65.87599-113.703763c0.019853-2.737914 1.221864-4.844141 3.609644-6.316876-4.672683-1.849942-6.777105-5.15818-6.316876-9.926519 4.336986-3.257703 7.345624-7.468352 9.024108-12.633751l1.804822 3.609643a13.162564 13.162564 0 0 1 3.609643-5.414465c2.07013 1.729019 3.874952 1.128014 5.414465-1.804821l7.219287 7.219286c1.203816-4.813459 2.405827-4.813459 3.609643 0 1.884234-2.026815 3.086245-4.432642 3.609643-7.219286l3.609643 10.82893a20.454044 20.454044 0 0 1 2.707233-6.316876l-3.609644-1.804822c2.902153-1.187573 5.00838-0.285162 6.316876 2.707233 1.203816-4.813459 2.405827-4.813459 3.609643 0l5.414465-1.804822c3.921877 5.01199 4.824288 4.710584 2.707233-0.902411l4.512054-4.512054c1.77053 5.694212 4.178162 6.295218 7.219286 1.804822 2.362512 4.315329 4.167333 4.315329 5.414465 0 4.039191 3.797345 5.844012 8.009798 5.414465 12.633751 3.615058-5.824159 6.621891-4.622148 9.024108 3.609643l1.804822-5.414464c3.876757 2.665722 6.284389 6.275365 7.219287 10.828929 0.510765-5.851232 2.015986-6.454042 4.512054-1.804821a16.438315 16.438315 0 0 1 9.024108-1.804822z" fill="#690AFE" p-id="4393"></path></svg>