<svg t="1750328094337" class="icon" viewBox="0 0 1024 1024" version="1.1" xmlns="http://www.w3.org/2000/svg" p-id="9428" width="200" height="200"><path d="M153.457116 443.614264a20.194233 20.194233 0 0 0-20.16248-20.186295h-19.130543a20.194233 20.194233 0 0 0 0 40.372589h19.130543c11.113178 0 20.162481-9.041364 20.16248-20.186294zM651.772031 211.213891a20.194233 20.194233 0 0 0-28.529116-0.023813L609.716589 224.724341a20.194233 20.194233 0 0 0 28.55293 28.55293l13.526326-13.526325c7.858605-7.858605 7.858605-20.654636-0.023814-28.529117zM186.979225 211.221829a20.194233 20.194233 0 0 0-0.023814 28.529117l13.526325 13.526325a20.194233 20.194233 0 0 0 28.552931-28.544992l-13.526326-13.534263a20.194233 20.194233 0 0 0-28.529116 0.023813zM419.379597 118.268031a20.194233 20.194233 0 0 0-20.194233 20.162481v19.130542a20.194233 20.194233 0 0 0 40.380527 0v-19.130542c0-11.113178-9.049302-20.162481-20.186294-20.162481z" p-id="9429"></path><path d="M444.662078 577.218481c18.432-67.965023 85.888992-118.418853 166.126139-118.418853 78.625736 0 144.899969 48.389953 164.935442 114.211721 3.984868 13.248496 53.629023 21.392868 52.446263 28.672 55.581767 15.875969 79.395721 89.373767 79.395721 154.036589 0 65.591566-58.44738 118.855442-130.516341 118.855442H339.777488c-72.068961 0-130.516341-53.263876-130.516341-118.855442 0-64.130977 55.867535-116.458171 125.697985-118.768124v-0.07938c0-37.403783 33.379225-67.774512 74.43448-67.774512 12.780155 0 24.790326 2.937054 35.268466 8.120559zM287.212155 512.817612a181.629023 181.629023 0 0 1-6.747287-49.017054c0-99.764589 80.967442-180.755845 180.747907-180.755845 60.884341 0 114.862636 30.188155 147.567132 76.395163-12.462636-2.516341-25.40155-3.834047-38.578605-3.834047-91.207442 0-167.888372 62.979969-188.844651 147.805272a83.785426 83.785426 0 0 0-40.086822-10.128868c-20.55938 0-39.372403 7.334698-54.057674 19.535379z" fill="#FFCB01" p-id="9430"></path><path d="M275.225798 557.952992a186.391814 186.391814 0 0 1-42.150697-118.307721c0-103.336682 83.904496-187.23324 187.257054-187.23324 78.665426 0 146.138295 48.683659 173.762481 117.56155l44.214573-17.757271c-34.688992-86.381147-119.307907-147.432186-217.977054-147.432186-129.627287 0-234.884961 105.23386-234.884961 234.861147 0 56.272372 19.844961 107.948651 52.866977 148.432372l36.911627-30.124651z" p-id="9431"></path><path d="M361.27355 463.252837c-6.509147-1.127194-13.177054-1.722543-20.003721-1.722542-54.375194 0-100.018605 37.340279-112.798759 87.74648-83.348837 15.788651-146.455814 89.056248-146.455814 176.945613 0 99.399442 80.729302 180.10493 180.112868 180.10493h497.076589c99.383566 0 180.112868-80.705488 180.112868-180.10493 0-86.651039-61.28124-159.077209-142.883721-176.231194-0.07938-124.824806-101.368062-226.137302-226.232558-226.137303-94.065116 0-174.873798 57.58214-208.927752 139.398946zM288.402853 577.885271v-0.015876c0-29.156217 26.830388-50.795163 55.565891-55.565891 24.766512-4.103938 53.105116 7.223566 63.503876 15.875969 0.476279-5.262884 2.937054-18.686016 6.350388-32.561613 17.542946-70.973519 80.014884-118.260093 156.378294-118.260093 89.778605 0 162.728682 72.918326 162.728682 162.728683 0 7.914171-0.555659 15.693395-1.666976 23.31386l-5.08031 35.427225 35.80031 0.82555c63.106977 1.452651 113.830698 53.12893 113.830697 116.569303 0 64.35324-52.231938 116.601054-116.608992 116.601054h-497.076589c-64.377054 0-116.608992-52.247814-116.608992-116.601054 0-62.908527 49.929922-114.251411 112.243101-116.521675l-1.111318 0.023814s14.447132-0.603287 31.751938-0.103194V577.885271z m-31.751938 31.736062z" p-id="9432"></path></svg>