<svg xmlns="http://www.w3.org/2000/svg" width="200" height="200" class="icon" p-id="3479" t="1750327619453" version="1.1" viewBox="0 0 1024 1024"><path fill="#272636" d="M423.74144 33.28512c-212.75648 0-384.86528 172.10368-384.86528 384.86528 0 212.75136 172.1088 384.87552 384.86528 384.87552 212.77184 0 384.88064-172.12416 384.88064-384.87552C808.62208 205.3888 636.50816 33.28512 423.74144 33.28512z" p-id="3480"/><path fill="#F2F2F9" d="M423.74144 717.63968c-165.32992 0-299.48928-134.15936-299.48928-299.48928s134.16448-299.48928 299.48928-299.48928c165.3504 0 299.48928 134.16448 299.48928 299.48928S589.09696 717.63968 423.74144 717.63968z" p-id="3481"/><path fill="#272636" d="M973.952 911.4368 784.2304 721.7152c-13.54752-13.56288-36.58752-13.56288-51.50208 0l-17.62304 17.59744c-13.55776 13.55776-13.55776 36.58752 0 51.51744l189.73696 189.7216c13.55776 13.54752 36.59264 13.54752 51.48672 0l17.62304-17.60768C988.84096 949.37088 988.84096 926.32576 973.952 911.4368z" p-id="3482"/><path fill="#272636" d="M325.51936 358.47168c-7.08096 0-9.27744 1.46432-12.69248 11.96032L277.9136 477.12256l-10.74176 0L237.8752 382.15168l-0.49152 0-30.5152 94.97088-10.74176 0-35.39968-101.56032c-5.61664-16.11264-7.08096-17.09056-16.11264-17.09056l0-6.8352 44.19072 0 0 6.8352c-8.79104 0-12.20608 1.21856-12.20608 5.61664 0 2.19648 0.73216 4.88448 1.95072 8.54528l26.61376 78.61248 0.73216 0 26.368-83.2512-1.71008-5.12512c-1.71008-3.90656-3.90656-4.39296-13.6704-4.39296l0-6.8352 44.92288 0 0 6.8352c-8.79104 0-12.20608 0.73216-12.20608 5.37088 0 1.71008 0.4864 4.15232 1.46432 7.56736l25.14944 80.08192 0.73216 0 26.8544-83.49696c0.4864-1.70496 0.9728-3.1744 0.9728-4.39296 0-3.6608-3.1744-5.12512-11.96032-5.12512l0-6.8352 32.7168 0L325.5296 358.47168z" p-id="3483"/><path fill="#272636" d="M511.09376 358.47168c-7.08096 0-9.27744 1.46432-12.69248 11.96032l-34.91328 106.69056-10.74176 0-29.29664-94.97088-0.49152 0-30.5152 94.97088L381.696 477.12256l-35.39968-101.56032c-5.61664-16.11264-7.08096-17.09056-16.11264-17.09056l0-6.8352 44.19072 0 0 6.8352c-8.79104 0-12.20608 1.21856-12.20608 5.61664 0 2.19648 0.73216 4.88448 1.95072 8.54528l26.61376 78.61248 0.73216 0 26.368-83.2512-1.71008-5.12512c-1.71008-3.90656-3.90656-4.39296-13.6704-4.39296l0-6.8352 44.92288 0 0 6.8352c-8.79104 0-12.20608 0.73216-12.20608 5.37088 0 1.71008 0.4864 4.15232 1.46432 7.56736l25.14944 80.08192 0.73216 0 26.8544-83.49696c0.4864-1.70496 0.9728-3.1744 0.9728-4.39296 0-3.6608-3.1744-5.12512-11.96032-5.12512l0-6.8352 32.7168 0L511.09888 358.47168z" p-id="3484"/><path fill="#272636" d="M696.66816 358.47168c-7.08096 0-9.28256 1.46432-12.69248 11.96032l-34.91328 106.69056-10.74176 0-29.30176-94.97088-0.4864 0-30.52032 94.97088-10.74176 0-35.39968-101.56032c-5.61664-16.11264-7.08096-17.09056-16.11264-17.09056l0-6.8352 44.19072 0 0 6.8352c-8.79104 0-12.2112 1.21856-12.2112 5.61664 0 2.19648 0.73728 4.88448 1.95584 8.54528l26.60864 78.61248 0.73728 0 26.36288-83.2512-1.71008-5.12512c-1.70496-3.90656-3.90656-4.39296-13.6704-4.39296l0-6.8352 44.91776 0 0 6.8352c-8.78592 0-12.20608 0.73216-12.20608 5.37088 0 1.71008 0.49152 4.15232 1.46432 7.56736l25.14432 80.08192 0.73728 0 26.8544-83.49696c0.49152-1.70496 0.9728-3.1744 0.9728-4.39296 0-3.6608-3.1744-5.12512-11.96032-5.12512l0-6.8352 32.7168 0L696.66304 358.47168z" p-id="3485"/></svg>