<svg t="1750063170607" class="icon" viewBox="0 0 1226 1024" version="1.1" xmlns="http://www.w3.org/2000/svg" p-id="59647" width="200" height="200"><path d="M145.367977 134.891085l3.371753-4.70002a19.617475 19.617475 0 0 0 11.698963-3.269579c17.063116-11.494614 30.652304-27.587074 49.452384-36.578417 3.627189-1.736964 4.495671-4.70002 4.597846-8.173948 11.75005 2.298923 20.741393-0.664133 25.032715-12.873967 3.218492-2.043487 5.517415-5.977199 10.217435-5.313066l2.452184-2.605446h-0.153261c16.45007-2.554359 31.009915-9.195691 43.424098-20.281608C295.870791 40.686336 296.228401 40.584162 296.739273 40.890685a38.826252 38.826252 0 0 0 20.945741-2.963056c19.770736-9.195691 41.380611-13.078317 62.224178-18.646819C422.107198 7.939458 465.837819 4.82314 509.517353 3.443786c17.982685-0.613046 35.914283 3.06523 53.896968 4.546759 49.043687 3.933712 95.890626 16.858767 142.226693 32.338181 9.706563 3.218492 18.08486 11.494614 29.579473 8.378297 0.613046 0 1.226092 0.153262 1.788051 0.408697 2.145661 11.443527 13.74245 10.370696 20.741393 14.304409 12.873968 7.152204 24.317495 18.697906 40.869739 17.727249l-0.051087 0.102174c0.408697 3.014143 1.481528 5.875025 4.086974 7.407641 12.10766 7.152204 23.040315 15.683762 34.228407 24.113146 9.297866 6.947856 18.08486 15.837024 29.63056 19.770736l10.217435 8.020686c0.510872 5.006543 3.882625 8.480471 7.101117 11.596789 20.128347 19.464213 39.132775 39.899083 54.305666 63.552444 18.902254 29.477299 41.176262 57.319809 45.671934 93.796052a10.013086 10.013086 0 0 0 3.06523 5.364153c10.575045 10.217435 5.261979 25.747936 12.771794 37.446898 3.422841 5.313066 1.021743 14.10006 2.809794 20.945742 6.232635 23.397926 9.451127 46.898026 6.794595 71.317695-0.970656 9.195691-3.9848 10.268522-11.239179 8.633732l0.204349-0.102174c-0.510872-2.758707-2.656533-2.963056-4.904369-3.065231l0.153262 0.204349c-8.173948-9.093517-29.477299-14.866368-40.307781-10.421783-8.889168 3.678277-18.135947 2.860882-21.099002-5.721764a61.968742 61.968742 0 0 1-4.189149-18.902254c-0.051087-34.075145-12.567445-65.238321-21.967484-97.116718-1.788051-6.130461-3.422841-12.567445-11.75005-12.567445h0.102174a25.747936 25.747936 0 0 0-3.933713-15.683762c-12.260922-21.967485-25.083802-43.628447-42.044744-62.428527-3.320666-3.576102-6.283722-8.173948-12.10766-8.480471 0-3.218492-2.043487-5.261979-3.882625-7.663076-11.545701-15.019629-26.56533-26.105546-41.380611-37.60016-11.239178-8.68482-21.763136-18.08486-36.527329-20.128346h0.153261c-5.210892-13.538101-19.413126-15.785937-29.885997-20.537044-13.129404-5.926112-24.419669-19.208777-41.380611-14.713107l0.102175-0.204348c-15.632675-13.691363-36.425155-15.632675-54.867625-22.325095-16.09246-5.875025-34.483842-5.977199-51.955656-7.611989-29.119689-2.70762-57.830681-11.596788-87.359068-8.429384-12.414183 1.328267-25.339238 2.963056-36.425155 10.013086-11.239178-1.839138-21.86531 3.218492-33.002314 2.554359-1.890225-2.758707-3.422841-3.06523-4.495671 0.510872h0.153261c-11.239178 0.766308-24.266408-1.788051-33.359924 3.06523-22.478357 11.954399-48.379554 14.304409-69.938342 27.229464-6.539158 3.882625-17.16529 3.729364-19.15769 14.151147a2.554359 2.554359 0 0 1-2.043487 0.766308c-5.721763 0.153262-11.341353-1.379354-16.909854 2.554358-21.303352 15.019629-43.475185 28.864253-64.267665 44.599103-8.276122 6.232635-18.289208 12.414183-20.43487 24.368582a2.963056 2.963056 0 0 1-0.408697 1.890226c-3.269579-0.204349-5.261979 2.145661-7.765251 3.627189-10.421783 6.33481-15.632675 17.267465-23.346838 25.952284-26.871854 30.396869-43.628447 66.208977-57.166548 103.911312-12.567445 34.943627-14.81528 71.011172-13.435927 107.74285 0.408697 11.341353 1.788051 22.631618 2.35001 33.921884 1.328267 26.054459 10.626132 49.912169 20.332696 73.259007 7.918512 19.106603 17.012029 38.059945 29.27295 55.225235 18.748993 26.20772 38.31538 51.34261 62.428527 73.054659 13.282665 11.954399 31.418612 19.617475 37.906683 38.417555l0.255436 0.255436c4.189148 13.589188 1.379354 26.820766-1.072831 40.358867-1.532615 8.480471-6.794594 16.705506-3.06523 25.85011l-3.729364 12.260922c-11.903312 3.371753-7.40764 14.406583-9.655476 21.967485-1.839138 6.385897 3.576102 10.830481 8.889169 13.793537 6.130461 3.422841 24.368582-8.480471 28.506643-18.289209v0.204349l2.758707-1.941312a21.456613 21.456613 0 0 0 10.013086-5.568502c16.858767 0.510872 28.404469-11.596788 41.125175-19.413127 17.369639-10.626132 34.381668-19.413126 55.225235-15.837023 13.282665 2.247836 26.514243 4.802194 39.490386 8.173947 28.20012 7.356553 57.013286 10.217435 85.877539 11.647876 18.902254 0.919569 37.906683 1.123918 56.808938-2.145661 25.85011-4.495671 52.313266-5.517415 77.448155-14.10006 14.917455-5.159805 21.252264-1.123918 22.42727 14.917455 0.306523 4.648933 2.860882 7.76525 4.904368 11.341352 2.963056 5.05763 7.663076 9.195691 7.816338 15.632675l-0.510872 1.021744 0.561959-0.970656 8.071774 2.043487-0.102175 0.102174c3.218492 5.823938-0.613046 15.581588 12.260922 16.756593-5.517415 2.758707-8.838081 5.619589-12.260922 5.823938-17.369639 0.919569-33.155576 8.68482-50.06543 12.056573a432.350753 432.350753 0 0 1-85.724278 8.684819c-28.608817-0.153262-57.217635 0.664133-85.979714-1.532615a344.838424 344.838424 0 0 1-76.017715-13.180491c-16.858767-5.108717-32.338181-4.189148-47.766507 5.772851-9.553302 6.130461-22.682705 7.305466-31.112089 14.406583-8.940255 7.560902-19.310952 11.39244-29.017515 16.705506-19.413126 10.575045-39.847996 19.208777-59.10786 30.141433-13.946798 7.816338-30.499043 10.523958-40.461042 3.678276-15.428327-10.626132-20.43487-24.21532-16.09246-42.65779 1.328267-5.721763 1.9924-11.596788 3.06523-17.369639 5.875025-29.630561 6.283722-60.078517 11.75005-89.760165 1.890225-10.421783 0-18.08486-7.918512-24.624018-8.071773-6.69242-14.917455-14.713106-22.376182-21.967485-7.714163-7.560902-12.209835-19.821824-25.185977-21.252264v-0.051087c-1.072831-5.619589-0.868482-12.516358-9.961998-10.421784-3.831538-2.554359-7.101117-5.466328-7.152205-10.575045 3.882625-5.05763-0.408697-4.34241-3.269579-4.648933l-2.043487-2.554358c-0.102174-5.41524-3.576102-9.093517-6.385897-13.333753-10.421783-16.194634-22.325095-31.827309-30.243607-49.196948a596.18732 596.18732 0 0 1-30.499043-81.688391C11.979365 509.36007 8.45435 481.364299 6.410863 453.266353c-2.605446-35.761022 3.473928-70.755736 11.75005-105.75045 8.173948-35.096889 20.945741-67.588331 39.439299-98.291723 6.232635-10.472871 13.38484-20.383782 19.208777-30.958827 10.626132-19.15769 26.514243-34.075145 39.95017-50.882825 9.04243-11.239178 24.010972-17.318552 28.608818-32.54253" fill="#0E8DF5" p-id="59648"></path><path d="M109.50478 709.519618c12.976142 1.430441 17.471813 13.691363 25.185977 21.252264 7.458727 7.254379 14.304409 15.275065 22.42727 21.967485 7.867425 6.539158 9.75765 14.202234 7.867424 24.624018-5.466328 29.681648-5.875025 60.078517-11.75005 89.760165-1.072831 5.772851-1.736964 11.647876-3.06523 17.369639-4.393497 18.44247 0.664133 32.031658 16.09246 42.65779 9.961999 6.845681 26.56533 4.189148 40.461042-3.729364 19.208777-10.881568 39.694734-19.5153 59.10786-30.141432 9.706563-5.261979 20.077259-9.093517 29.017515-16.654419 8.429384-7.101117 21.558787-8.225035 31.112089-14.355496 15.428327-10.013086 30.90774-10.983742 47.766507-5.823938 24.777279 7.663076 50.06543 11.239178 76.068802 13.231578 28.710992 2.145661 57.319809 1.328267 85.928627 1.430441 28.813166 0.102174 57.217635-3.014143 85.775365-8.684819 16.858767-3.320666 32.593617-11.085917 50.014343-12.005486 3.422841-0.153262 6.743507-3.06523 12.260922-5.823938-12.873968-1.123918-9.093517-10.932655-12.260922-16.756593 0.817395 0 1.9924-0.306523 2.35001 0.102174 5.517415 5.926112 17.982685 7.816338 16.45007 16.909855-1.481528 9.195691-13.435927 8.68482-21.099002 10.932655-63.194834 18.80008-127.973371 24.726192-193.62039 23.244664l-4.853281-0.255436a224.630304 224.630304 0 0 0-43.424098-4.393497l-4.853282-0.408697c-23.602274-5.41524-47.255636-10.881568-70.908997-16.245721-4.597846-1.072831-7.969599 2.196748-11.596789 3.984799-45.620846 22.78488-91.241693 45.467585-136.65819 68.661162-15.121803 7.663076-29.732735 10.11526-43.781708-0.970656-13.74245-10.830481-18.08486-24.675105-14.815281-42.606703 4.291323-23.5001 7.663076-47.35781 8.429384-71.41987L153.695186 810.774397l6.896768-40.920827c0.561959-3.320666-1.021743-5.721763-3.218492-7.867424l-44.343667-43.21975 0.102175-0.102174-3.576102-9.093517M145.367977 134.891085c-4.597846 15.172891-19.566388 21.201177-28.608818 32.491443-13.435927 16.858767-29.324038 31.674048-39.95017 50.882825-5.823938 10.575045-12.976142 20.485957-19.208777 30.958827a338.503615 338.503615 0 0 0-39.490386 98.291723c-8.173948 34.994714-14.304409 69.989428-11.698963 105.75045 2.043487 28.097946 5.568502 56.093717 13.538101 83.782966 8.122861 28.20012 18.544644 55.276322 30.499043 81.739478 7.918512 17.369639 19.821824 32.951227 30.243607 49.145861 2.758707 4.240235 6.283722 7.918512 6.385897 13.38484-2.758707 0.102174-4.597846-1.072831-6.283722-3.422841-57.473071-81.126432-86.848196-170.528987-79.18512-270.659847A371.914627 371.914627 0 0 1 30.575097 289.991745c2.094574-5.006543 3.780451-10.217435 5.619589-15.326152a2.860882 2.860882 0 0 0 0.613046-1.890225l30.703391-53.539359c18.033772-24.828367 37.038201-48.890425 59.056774-70.347038 5.619589-5.517415 10.319609-12.414183 18.902254-14.048973" fill="#0E8DF5" p-id="59649"></path><path d="M99.542782 699.557619c23.295751-4.955456 22.682705 11.39244 25.543587 24.624018-13.129404-4.086974-20.43487-13.333752-25.543587-24.624018" fill="#0E8DF5" p-id="59650"></path><path d="M89.120998 683.822769c15.070716 1.736964 37.804509-2.094574 17.369639 25.543587l-17.369639-25.543587M735.220487 48.707023c-11.494614 3.116318-19.923998-5.159805-29.579473-8.378297C659.304947 24.798225 612.458008 11.924257 563.414321 7.990545c-17.982685-1.481528-35.914283-5.159805-53.896968-4.597846-43.679534 1.430441-87.359067 4.546758-129.659248 15.837024-20.79248 5.619589-42.402354 9.451127-62.173091 18.697906A38.775165 38.775165 0 0 1 296.739273 40.890685C328.004624 25.97323 361.313461 17.390585 395.184257 10.851427A594.705792 594.705792 0 0 1 589.979652 5.640535c2.452184 0.35761 5.05763 0.051087 7.560901 0.051087a1736.963915 1736.963915 0 0 1 6.488072 0.868482c28.455556 7.458727 57.677419 11.903312 85.31558 22.171834 15.632675 5.823938 32.389268 9.093517 45.825195 19.975085M998.01291 453.164179c7.254379 1.685877 10.268522 0.613046 11.239179-8.582645 2.656533-24.419669-0.561959-47.919769-6.794595-71.368782-1.788051-6.794594 0.613046-15.581588-2.809794-20.945742-7.509815-11.647876-2.196748-27.178377-12.771794-37.395811a10.013086 10.013086 0 0 1-3.06523-5.364153c-4.495671-36.476242-26.718592-64.369839-45.671934-93.796052-15.172891-23.653362-34.177319-44.088231-54.305666-63.552444-3.218492-3.06523-6.641333-6.641333-7.152204-11.596789 11.443527 3.014143 16.194634 13.946798 24.521844 20.690306 4.189148 3.422841 7.76525 7.663076 11.596788 11.494614 24.010972 29.477299 45.263236 60.793737 62.939398 94.460185l1.175005 2.70762 1.379354 2.298923v0.051087c1.481528 5.772851 3.576102 11.239178 7.305466 15.939198 8.020686 22.325095 15.73485 44.752364 21.201177 67.894854 0.510872 6.998943 1.277179 13.895711 4.393497 20.332696l0.766308 10.217434c-0.510872 2.043487 0 3.933712 1.685876 5.364154l0.408698 7.203291c0.510872 10.268522-1.277179 20.690305 2.35001 30.703392l-0.35761 25.032715c-6.845681 8.173948-12.771793 6.436984-18.033773-1.736964M866.565612 132.541075c-11.596788-3.933712-20.43487-12.771793-29.630561-19.770736-11.239178-8.429384-22.171834-16.960942-34.279494-24.113146-2.605446-1.532615-3.627189-4.393497-4.086974-7.407641 20.383782 7.152204 35.914283 21.814223 52.619789 34.483843 6.028287 4.597846 14.202234 7.663076 15.326152 16.858767M798.568583 81.147378c-16.501157 0.970656-27.944684-10.575045-40.818652-17.727249-7.05003-3.933712-18.595731-2.860882-20.741393-14.304409 22.733792 6.436984 43.219749 17.216378 61.560045 32.031658M671.616956 827.735339l-8.071774-2.043487-0.051087-0.051088c-0.204349-6.436984-4.853282-10.575045-7.816338-15.632675-2.043487-3.576102-4.597846-6.641333-4.904368-11.341352-1.175005-16.041373-7.509815-20.077259-22.478357-14.917455-25.083802 8.582645-51.598046 9.604389-77.397068 14.10006-18.902254 3.269579-37.906683 3.06523-56.808938 2.145661-28.864253-1.481528-57.728507-4.291323-85.877539-11.596788a474.702021 474.702021 0 0 0-39.490386-8.225035c-20.843567-3.576102-37.804509 5.210892-55.174148 15.837023-12.771793 7.816338-24.266408 19.923998-41.176262 19.413127 23.14249-15.990285 46.795851-31.061002 73.054659-41.431699 7.663076-3.06523 15.837024-2.043487 23.755536-0.102174 13.487014 3.320666 26.871854 7.254379 40.512129 9.910912 28.506643 5.466328 57.064373 11.239178 86.388411 8.327209l4.291323 0.102175c8.68482 6.232635 17.880511 0.613046 26.718592 0.664133 22.120746 0.204349 44.139318-1.532615 65.595931-7.509815l4.70002-0.664133c10.575045-1.430441 21.252264-2.196748 30.958827-7.152204l1.021744 0.051087 1.021743-0.306523c2.503272-0.306523 5.108717-0.153262 7.407641-1.021744 10.11526-3.780451 16.45007-1.328267 17.063116 10.268522 0.817395 15.73485 10.728307 27.587074 16.756593 41.176263M295.513181 41.095034a77.397069 77.397069 0 0 1-43.475185 25.543587c12.771793-13.129404 28.097946-19.259865 43.424098-25.543587M239.521638 69.295154c-4.291323 22.989228-13.282665 28.506643-25.032715 24.164233l-0.561959-1.175005 8.173948-12.260922 7.254379-7.509814c3.678277 1.941313 6.794594-1.532615 10.11526-3.218492M274.771788 61.325555l-25.032715 25.543587 25.032715-25.543587M214.488923 82.118034c-0.102174 3.576102-0.970656 6.488071-4.597846 8.173948-18.80008 9.04243-32.389268 25.13489-49.452384 36.629504a19.617475 19.617475 0 0 1-11.75005 3.269579c14.304409-15.990285 32.133832-27.4849 49.70782-39.286037 4.495671-3.014143 8.838081-6.33481 13.231578-9.502214l1.123918 0.153261h1.175005l0.510872 0.561959zM975.841077 447.340241a39.183862 39.183862 0 0 0-28.251207 0c-7.867425-1.430441-16.347896 9.195691-21.456614 2.911969-4.035887-4.904369-0.71522-15.326152-1.43044-23.244664-3.422841-36.527329-9.246778-72.4927-24.879454-106.159148-2.247836-4.955456-3.831538-10.217435-5.721764-15.326152 8.378297 0 10.013086 6.488071 11.801138 12.567445 9.40004 31.878397 21.916398 63.041573 21.967484 97.116718 0 6.283722 2.247836 13.282665 4.189149 18.902254 2.963056 8.582645 12.209835 9.40004 21.099002 5.721764 10.830481-4.444584 32.18492 1.328267 40.307781 10.421783h-7.611989a4.393497 4.393497 0 0 0-2.145661-0.510872c-2.043487-2.758707-5.006543-2.401097-7.918512-2.401097zM683.367006 118.083405c-15.326152-1.123918-28.813166-8.889168-43.475185-12.669619-31.520786-8.122861-63.09266-15.172891-95.788452-15.632676l-17.471813-0.510871a81.637304 81.637304 0 0 0-38.519729 0l-12.260922 0.35761-23.091403 0.102174c11.085917-7.05003 24.010972-8.68482 36.425155-10.013086 29.528387-3.167405 58.239378 5.721763 87.359068 8.429384 17.471813 1.63479 35.863196 1.736964 51.955656 7.611989 18.44247 6.69242 39.23495 8.633732 54.867625 22.325095M178.523552 655.622649c14.202234 17.267465 30.396869 32.491443 48.328467 45.723021 21.712049 15.990285 26.463156 28.404469 19.464213 54.152405-3.371753 12.567445-7.152204 25.032715-10.728306 37.497985-3.729364-9.144604 1.532615-17.369639 3.06523-25.85011 2.452184-13.538101 5.261979-26.769679 1.072831-40.358867l0.970656-1.226092a217.222664 217.222664 0 0 1-1.226092 0.970656c-6.488071-18.80008-24.572931-26.463156-37.906683-38.417555-24.113146-21.712049-43.679534-46.846939-62.428527-73.054659a274.797909 274.797909 0 0 1-29.27295-55.174148c-9.706563-23.397926-19.055516-47.255636-20.332696-73.310094-0.561959-11.290265-1.941313-22.580531-2.35001-33.921884-1.379354-36.680591 0.868482-72.799223 13.435927-107.793937 13.538101-37.651247 30.294694-73.463356 57.166548-103.860225 7.663076-8.68482 12.925055-19.617475 23.346838-25.952284 2.554359-1.532615 4.495671-3.831538 7.765251-3.627189-6.743507 12.873968-18.544644 21.456613-27.280551 32.797965-47.0002 61.304609-72.952484 129.403812-69.836167 207.516101 2.963056 75.098146 30.958827 139.92777 79.849253 196.276922a774.07286 774.07286 0 0 0 2.298923 2.452185l2.196748 2.554359 2.401097 2.605445M290.915335 137.956315c-9.195691 6.130461-18.44247 12.158747-27.689248 18.187034-23.193577 11.596788-42.402354 28.55773-61.611132 45.467585-3.729364 3.320666-6.539158 8.020686-12.363096 7.918512 2.196748-11.954399 12.260922-18.135947 20.43487-24.368582 20.843567-15.73485 42.964313-29.630561 64.318752-44.599103 5.619589-3.933712 11.239178-2.401097 16.909854-2.554358M383.842905 104.494217a21.967485 21.967485 0 0 0-12.158748 3.218491 48.430641 48.430641 0 0 0-20.588131 6.947856l0.102175-0.102174a7.152204 7.152204 0 0 0-6.181549 2.401097c-18.748993 3.167405-34.330581 14.508757-52.108917 20.281608 2.043487-10.421783 12.669619-10.217435 19.208777-14.151147 21.558787-12.925055 47.511072-15.275065 69.938342-27.229464 9.093517-4.853282 22.120746-2.298923 33.359924-3.06523-3.473928 7.969599-11.647876 4.444584-17.369639 6.998943-4.546758 2.043487-9.451127 3.167405-14.202234 4.70002M820.893678 208.763139c-17.063116-19.566388-38.31538-34.024058-59.46547-48.63499-2.605446-1.839138-6.641333-2.35001-7.05003-6.590245 14.81528 2.043487 25.339238 11.494614 36.527329 20.128346 14.81528 11.494614 29.83491 22.580531 41.380611 37.60016 1.788051 2.401097 3.882625 4.444584 3.882625 7.663076l-1.532615 1.481528-11.137004-9.144604-2.554359-2.452184z" fill="#0E8DF5" p-id="59651"></path><path d="M894.25486 305.522246c-15.837024-25.185977-30.141433-51.495871-50.525215-73.56553-1.685877-1.839138-3.576102-3.576102-5.364153-5.313066l-3.729364-6.232636 1.532615-1.532615c5.823938 0.35761 8.786994 4.904369 12.10766 8.531558 16.960942 18.80008 29.783822 40.512129 42.044744 62.428527 2.605446 4.648933 4.70002 10.013086 3.933713 15.734849M754.531439 153.537904c-19.208777-9.195691-38.570816-18.08486-57.473071-27.84251-4.597846-2.401097-11.239178-1.379354-13.793537-7.407641 16.960942-4.444584 28.251207 8.786994 41.380611 14.713107 10.472871 4.751107 24.675105 6.998943 29.885997 20.537044M231.858562 805.205895c0.766308 7.356553-2.860882 13.895711-3.984799 20.945741-0.510872 3.014143-1.328267 5.772851 1.379353 8.071774 3.167405 2.656533 6.33481 1.379354 9.348953-0.306523 6.845681-3.9848 13.180491-8.991343 20.996829-11.239179-4.086974 9.859825-22.427269 21.763136-28.506643 18.391383-5.313066-3.014143-10.728307-7.458727-8.889169-13.793537 2.247836-7.611989-2.247836-18.646819 9.706563-22.069659M259.598898 840.864742l25.543587-19.923998-25.543587 19.923998M668.909335 826.304898a1940.801739 1940.801739 0 0 0-5.926112 9.553301l5.210892-10.217435 0.71522 0.664134z" fill="#0E8DF5" p-id="59652"></path><path d="M756.268403 820.991832c-33.717535 3.167405-66.311152-26.360982-69.733992-58.750251-4.240235-39.95017 18.902254-72.13509 56.40024-79.082945 46.846939-8.68482 87.869939-28.302294 121.178776-62.939398 2.298923-2.452184 5.108717-4.495671 7.816338-6.488071 7.101117-5.108717 14.559845-5.466328 20.485957 1.175005 6.130461 6.998943 7.560902 15.326152 0.868482 22.989228-6.385897 7.305466-13.691363 13.793537-19.923998 21.252264-24.521844 29.324038-41.176262 62.632875-47.204549 100.539559-6.028287 37.855596-36.987114 63.654619-69.887254 61.304609" fill="#FFD601" p-id="59653"></path><path d="M885.314604 552.93743c-3.167405-33.768622 26.412069-66.311152 58.750251-69.733993 39.95017-4.291323 72.13509 18.902254 79.134032 56.40024 8.68482 46.795851 28.251207 87.869939 62.939398 121.12769 2.401097 2.35001 4.444584 5.108717 6.436984 7.816337 5.108717 7.152204 5.517415 14.610932-1.175005 20.537044-6.947856 6.130461-15.326152 7.509815-22.989228 0.817395-7.254379-6.33481-13.793537-13.640275-21.201177-19.872911-29.324038-24.521844-62.632875-41.227349-100.539559-47.204548-37.906683-6.028287-63.654619-36.987114-61.304608-69.887254" fill="#3CC410" p-id="59654"></path><path d="M1153.879878 685.712995c33.717535-3.167405 66.311152 26.360982 69.733993 58.699163 4.291323 39.95017-18.902254 72.186177-56.400241 79.134032-46.795851 8.68482-87.869939 28.251207-121.127689 62.939399-2.35001 2.401097-5.108717 4.444584-7.816338 6.436983-7.152204 5.159805-14.610932 5.517415-20.537044-1.175005-6.130461-6.947856-7.509815-15.275065-0.817394-22.989228 6.33481-7.254379 13.640275-13.793537 19.87291-21.201177 24.521844-29.324038 41.227349-62.632875 47.204549-100.539558 6.028287-37.906683 36.987114-63.654619 69.887254-61.304609" fill="#0B8CF8" p-id="59655"></path><path d="M1024.833677 953.767397c3.167405 33.717535-26.360982 66.311152-58.750251 69.733992-39.95017 4.240235-72.13509-18.902254-79.082945-56.40024-8.68482-46.846939-28.302294-87.869939-62.939398-121.178777a57.421984 57.421984 0 0 1-6.436984-7.816337c-5.210892-7.152204-5.517415-14.610932 1.175005-20.485957 6.947856-6.181548 15.223978-7.560902 22.938141-0.868482 7.305466 6.385897 13.793537 13.691363 21.252264 19.923998 29.324038 24.521844 62.632875 41.176262 100.539559 47.204549 37.855596 5.977199 63.654619 36.987114 61.304609 69.887254" fill="#FF6A00" p-id="59656"></path></svg>