<svg width="32" height="32" viewBox="0 0 32 32" fill="none" xmlns="http://www.w3.org/2000/svg">
<path d="M31.9999 16C31.9999 24.8366 24.8364 32 15.9999 32C7.16332 32 -0.00012207 24.8366 -0.00012207 16C-0.00012207 7.16344 7.16332 0 15.9999 0C24.8364 0 31.9999 7.16344 31.9999 16Z" fill="#EBF7FD"/>
<path d="M15.9999 16C17.9339 16 19.4999 14.434 19.4999 12.5C19.4999 10.566 17.9339 9 15.9999 9C15.5402 8.99987 15.085 9.09031 14.6603 9.26615C14.2356 9.442 13.8497 9.6998 13.5247 10.0248C13.1997 10.3499 12.9419 10.7358 12.766 11.1605C12.5902 11.5852 12.4997 12.0403 12.4999 12.5C12.4999 14.434 14.0659 16 15.9999 16ZM15.9999 17C13.6639 17 8.99988 18.34 8.99988 21V23H22.9999V21C22.9999 18.34 18.3359 17 15.9999 17Z" fill="#36ADEF"/>
</svg>
