<svg width="1440" height="792" viewBox="0 0 1440 792" fill="none" xmlns="http://www.w3.org/2000/svg">
<rect y="0.446045" width="1440" height="788.946" fill="url(#paint0_linear_374_4634)"/>
<g filter="url(#filter0_f_374_4634)">
<circle cx="973.489" cy="375.529" r="1.61304" fill="white" fill-opacity="0.7"/>
</g>
<g filter="url(#filter1_f_374_4634)">
<circle cx="1185.61" cy="536.34" r="1.61304" fill="white" fill-opacity="0.7"/>
</g>
<g filter="url(#filter2_f_374_4634)">
<circle cx="1095.61" cy="625.917" r="1.61304" fill="white" fill-opacity="0.7"/>
</g>
<g filter="url(#filter3_f_374_4634)">
<circle cx="240.584" cy="585.698" r="1.61304" fill="white" fill-opacity="0.7"/>
</g>
<g filter="url(#filter4_f_374_4634)">
<circle cx="589.472" cy="476.74" r="1.61304" fill="white" fill-opacity="0.7"/>
</g>
<g filter="url(#filter5_f_374_4634)">
<circle cx="956.889" cy="388.027" r="1.11053" fill="white" fill-opacity="0.7"/>
</g>
<path d="M468.595 623.992C468.457 625.242 467.335 626.145 466.089 626.007C464.844 625.869 463.946 624.744 464.084 623.493C464.223 622.242 465.345 621.34 466.59 621.478C467.836 621.615 468.734 622.741 468.595 623.992Z" fill="url(#paint1_linear_374_4634)" fill-opacity="0.4"/>
<path fill-rule="evenodd" clip-rule="evenodd" d="M55.5744 661.466C55.8297 663.199 56.5446 667.405 57.3616 670.361C58.1746 673.302 60.8245 677.119 62.0666 678.685C60.6321 677.872 58.1935 676.683 59.9148 678.435C61.6362 680.186 62.3342 681.263 62.468 681.582C62.8387 681.719 63.2773 681.993 62.0666 681.993C61.8602 681.993 61.6629 681.985 61.4836 681.978C60.3482 681.934 59.9323 681.918 62.468 684.045C64.6816 685.902 62.9771 685.115 61.8947 684.615C61.5413 684.452 61.2543 684.319 61.1914 684.319C61.1633 684.319 61.1167 684.312 61.0594 684.304C60.5954 684.238 59.4297 684.073 61.7021 686.509C62.0272 686.857 62.3253 687.168 62.5895 687.443C64.4001 689.33 64.6125 689.552 60.9361 688.835C57.4675 688.159 59.4511 689.431 61.6139 690.818C62.0779 691.116 62.5502 691.419 62.9787 691.709C65.4042 693.351 66.5532 694.446 63.7446 693.898C60.9361 693.351 62.5957 695.814 65.1489 697.32C67.1652 698.508 65.9173 698.417 64.6746 698.326C64.3437 698.302 64.0131 698.278 63.7446 698.278C63.0695 698.278 63.8583 698.813 64.9592 699.561C65.9399 700.228 67.1682 701.062 67.8298 701.836C69.234 703.478 67.5744 703.478 66.0425 702.657C65.42 702.323 65.9789 703.388 66.9195 704.839L82 703L175.607 698.43H201.99C207.729 698.43 308.251 707.538 331.685 713.088C342.465 713.088 392.546 716.811 436.266 720.062L436.266 720.062C470.131 722.58 500.18 724.814 505.19 724.814C508.083 724.814 516.934 724.883 529.283 724.979L529.287 724.979L529.288 724.979C542.758 725.084 560.388 725.221 578.984 725.337C579.3 725.117 583.361 720.501 581.476 721.259C579.571 722.025 579.452 721.642 580.523 720.749C581.595 719.855 582.666 716.665 582.309 716.92C582.023 717.124 581.158 717.26 580.761 717.303C581.079 716.92 581.952 715.797 582.904 714.368C584.095 712.581 583.857 712.709 583.619 712.836C583.38 712.964 581.476 713.475 581.714 713.219C581.952 712.964 584.571 709.391 584.095 709.774C581.523 711.509 581.595 711.007 581.952 710.539C582.984 709.178 584.761 706.686 583.619 707.604C582.19 708.753 582.309 707.732 582.904 706.583C585.88 701.862 586.833 693.312 587.071 691.015C587.261 689.177 587.626 690.249 587.785 691.015C588.023 692.631 588.69 696.553 589.452 699.31C590.21 702.052 592.681 705.612 593.839 707.072C592.502 706.314 590.227 705.205 591.833 706.839C593.438 708.472 594.089 709.476 594.214 709.774C594.559 709.901 594.968 710.157 593.839 710.157C593.647 710.157 593.463 710.149 593.296 710.143C592.237 710.102 591.849 710.087 594.214 712.071C596.278 713.803 594.688 713.068 593.679 712.602C593.349 712.45 593.082 712.326 593.023 712.326C592.997 712.326 592.953 712.32 592.9 712.312C592.467 712.251 591.38 712.096 593.499 714.368C593.802 714.692 594.08 714.982 594.326 715.238L594.327 715.239C596.015 716.999 596.213 717.205 592.785 716.537C589.55 715.907 591.4 717.093 593.417 718.387C593.85 718.664 594.29 718.947 594.69 719.217C596.952 720.749 598.023 721.769 595.404 721.259C592.785 720.749 594.333 723.046 596.714 724.449C598.594 725.558 597.43 725.473 596.271 725.388C595.963 725.365 595.654 725.343 595.404 725.343C595.248 725.343 595.176 725.373 595.171 725.43C613.898 725.528 632.673 725.589 648.382 725.561C649.082 724.623 650.329 722.879 650.014 723.133C647.786 724.636 647.848 724.201 648.158 723.796C649.052 722.617 650.592 720.457 649.602 721.253C648.364 722.248 648.467 721.363 648.983 720.368C651.562 716.277 652.387 708.869 652.593 706.879C652.758 705.287 653.074 706.216 653.212 706.879C653.418 708.28 653.996 711.678 654.656 714.066C655.313 716.442 657.454 719.527 658.457 720.792C657.298 720.135 655.328 719.174 656.719 720.589C658.11 722.005 658.674 722.875 658.782 723.133C659.081 723.243 659.435 723.464 658.457 723.464C658.291 723.464 658.131 723.458 657.986 723.452C657.069 723.417 656.733 723.404 658.782 725.123C658.967 725.279 659.119 725.411 659.241 725.524C674.965 725.44 685.892 725.228 687.644 724.814C694.818 723.118 757.018 712.101 788.582 712.101C811.608 712.101 886.132 718.415 930.337 722.16L930.339 722.16C946.731 723.549 958.953 724.585 962.835 724.814C965.094 724.948 971.034 724.476 979.499 723.587C979.544 723.381 979.539 723.273 979.467 723.324C979.22 723.501 978.47 723.619 978.126 723.656C978.401 723.324 979.158 722.351 979.983 721.113C981.014 719.565 980.808 719.676 980.602 719.786C980.396 719.897 978.745 720.339 978.952 720.118C979.158 719.897 981.427 716.801 981.014 717.133C978.786 718.636 978.848 718.201 979.158 717.796C980.052 716.617 981.592 714.457 980.602 715.253C979.364 716.248 979.467 715.363 979.983 714.368C982.562 710.277 983.387 702.869 983.593 700.879C983.758 699.287 984.074 700.216 984.212 700.879C984.418 702.28 984.996 705.678 985.656 708.066C986.313 710.442 988.454 713.527 989.457 714.792C988.298 714.135 986.328 713.174 987.719 714.589C989.11 716.005 989.674 716.875 989.782 717.133C990.081 717.243 990.435 717.464 989.457 717.464C989.291 717.464 989.131 717.458 988.986 717.452C988.069 717.417 987.733 717.404 989.782 719.123C991.57 720.623 990.193 719.987 989.318 719.583L989.318 719.583C989.033 719.451 988.801 719.344 988.75 719.344C988.739 719.344 988.724 719.343 988.706 719.34C988.688 719.338 988.667 719.335 988.644 719.332C988.269 719.279 987.327 719.145 989.163 721.113C989.425 721.395 989.666 721.646 989.88 721.868C989.961 721.952 990.038 722.033 990.111 722.109C990.203 722.206 990.289 722.296 990.367 722.38C1006.75 720.486 1028.44 717.708 1050.71 714.811V709.108L1048.84 707.538L1050.71 705.572V698.954V698.895H1050.72L1051.58 697.77V697.536H1051.76L1057.81 689.71V689.702H1057.81L1057.86 689.639L1057.91 689.702H1058.65L1058.65 689.697L1058.65 689.702H1088.06L1091.29 686.984L1093.5 689.288L1093.01 689.702H1095.77L1095.94 689.559L1096.07 689.702H1099.74L1099.74 689.697L1106.21 698.954H1106.23V702.749H1112.64L1112.64 702.745L1112.64 702.749L1115.18 706.447C1135.45 703.883 1150.68 702.102 1154.71 702.102C1155.01 702.102 1155.42 702.102 1155.93 702.101C1170.04 702.092 1263.02 702.029 1348.78 706.164C1348.44 706.043 1348.6 705.905 1348.75 705.822C1348.99 705.693 1353.21 700.921 1351.28 701.695C1349.36 702.468 1349.24 702.082 1350.32 701.179C1351.4 700.276 1352.48 697.051 1352.12 697.309C1351.83 697.516 1350.96 697.653 1350.56 697.696C1350.88 697.309 1351.76 696.174 1352.72 694.73C1353.93 692.924 1353.69 693.053 1353.45 693.182C1353.21 693.311 1351.28 693.827 1351.52 693.569C1351.76 693.311 1354.41 689.7 1353.93 690.086C1351.33 691.841 1351.4 691.333 1351.76 690.86C1352.8 689.485 1354.6 686.965 1353.45 687.894C1352 689.055 1352.12 688.023 1352.72 686.862C1355.73 682.09 1356.7 673.448 1356.94 671.127C1357.13 669.269 1357.5 670.353 1357.66 671.127C1357.9 672.76 1358.57 676.724 1359.34 679.51C1360.11 682.282 1362.61 685.88 1363.78 687.356C1362.42 686.589 1360.13 685.469 1361.75 687.12C1363.37 688.771 1364.03 689.786 1364.16 690.086C1364.5 690.215 1364.92 690.473 1363.78 690.473C1363.58 690.473 1363.4 690.466 1363.23 690.46C1362.16 690.418 1361.77 690.403 1364.16 692.408C1366.24 694.158 1364.64 693.416 1363.61 692.945C1363.28 692.791 1363.01 692.666 1362.95 692.666C1362.93 692.666 1362.88 692.66 1362.83 692.652C1362.39 692.59 1361.29 692.434 1363.43 694.73C1363.74 695.058 1364.02 695.351 1364.27 695.611C1365.98 697.389 1366.18 697.598 1362.71 696.922C1359.44 696.285 1361.31 697.484 1363.35 698.792C1363.79 699.072 1364.23 699.358 1364.64 699.631C1366.92 701.179 1368.01 702.211 1365.36 701.695C1362.71 701.179 1364.28 703.5 1366.68 704.919C1368.58 706.04 1367.41 705.953 1366.23 705.868C1365.92 705.845 1365.61 705.822 1365.36 705.822C1364.72 705.822 1365.47 706.327 1366.5 707.032L1366.59 707.093C1393.3 708.595 1418.68 710.548 1440 713.088V791.392H0V713L44.4562 707.578C45.6651 705.675 46.807 703.737 46.3828 703.888C45.6169 704.162 44.3403 703.752 44.7232 703.478C45.1062 703.204 48.936 698.962 47.2765 698.825C45.6169 698.688 45.8722 698.414 46.1275 698.278C46.3828 698.141 50.8509 693.077 48.8084 693.898C46.7658 694.72 46.6382 694.309 47.7871 693.351C48.936 692.393 50.085 688.972 49.702 689.246C49.3956 689.465 48.468 689.611 48.0424 689.656C48.3828 689.246 49.319 688.041 50.3403 686.509C51.6169 684.593 51.3616 684.73 51.1063 684.867C50.8509 685.003 48.8084 685.551 49.0637 685.277C49.319 685.003 52.1276 681.172 51.6169 681.582C48.8594 683.443 48.936 682.905 49.319 682.403C50.4254 680.944 52.3318 678.27 51.1063 679.256C49.5743 680.487 49.702 679.393 50.3403 678.161C53.5318 673.098 54.5531 663.929 54.8084 661.466C55.0127 659.495 55.4042 660.644 55.5744 661.466ZM658.202 725.529C657.971 725.423 657.794 725.344 657.75 725.344C657.728 725.344 657.69 725.339 657.644 725.332C657.437 725.303 657.059 725.249 657.067 725.534C657.448 725.533 657.826 725.531 658.202 725.529Z" fill="url(#paint2_linear_374_4634)"/>
<defs>
<filter id="filter0_f_374_4634" x="969.876" y="371.916" width="7.22607" height="7.22607" filterUnits="userSpaceOnUse" color-interpolation-filters="sRGB">
<feFlood flood-opacity="0" result="BackgroundImageFix"/>
<feBlend mode="normal" in="SourceGraphic" in2="BackgroundImageFix" result="shape"/>
<feGaussianBlur stdDeviation="1" result="effect1_foregroundBlur_374_4634"/>
</filter>
<filter id="filter1_f_374_4634" x="1182" y="532.727" width="7.22607" height="7.22607" filterUnits="userSpaceOnUse" color-interpolation-filters="sRGB">
<feFlood flood-opacity="0" result="BackgroundImageFix"/>
<feBlend mode="normal" in="SourceGraphic" in2="BackgroundImageFix" result="shape"/>
<feGaussianBlur stdDeviation="1" result="effect1_foregroundBlur_374_4634"/>
</filter>
<filter id="filter2_f_374_4634" x="1092" y="622.304" width="7.22607" height="7.22607" filterUnits="userSpaceOnUse" color-interpolation-filters="sRGB">
<feFlood flood-opacity="0" result="BackgroundImageFix"/>
<feBlend mode="normal" in="SourceGraphic" in2="BackgroundImageFix" result="shape"/>
<feGaussianBlur stdDeviation="1" result="effect1_foregroundBlur_374_4634"/>
</filter>
<filter id="filter3_f_374_4634" x="236.971" y="582.085" width="7.22607" height="7.22607" filterUnits="userSpaceOnUse" color-interpolation-filters="sRGB">
<feFlood flood-opacity="0" result="BackgroundImageFix"/>
<feBlend mode="normal" in="SourceGraphic" in2="BackgroundImageFix" result="shape"/>
<feGaussianBlur stdDeviation="1" result="effect1_foregroundBlur_374_4634"/>
</filter>
<filter id="filter4_f_374_4634" x="585.859" y="473.127" width="7.22607" height="7.22607" filterUnits="userSpaceOnUse" color-interpolation-filters="sRGB">
<feFlood flood-opacity="0" result="BackgroundImageFix"/>
<feBlend mode="normal" in="SourceGraphic" in2="BackgroundImageFix" result="shape"/>
<feGaussianBlur stdDeviation="1" result="effect1_foregroundBlur_374_4634"/>
</filter>
<filter id="filter5_f_374_4634" x="953.778" y="384.916" width="6.22107" height="6.22119" filterUnits="userSpaceOnUse" color-interpolation-filters="sRGB">
<feFlood flood-opacity="0" result="BackgroundImageFix"/>
<feBlend mode="normal" in="SourceGraphic" in2="BackgroundImageFix" result="shape"/>
<feGaussianBlur stdDeviation="1" result="effect1_foregroundBlur_374_4634"/>
</filter>
<linearGradient id="paint0_linear_374_4634" x1="720" y1="789.392" x2="720" y2="-28.1927" gradientUnits="userSpaceOnUse">
<stop stop-color="#092F50"/>
<stop offset="1" stop-color="#06101B" stop-opacity="0"/>
</linearGradient>
<linearGradient id="paint1_linear_374_4634" x1="463.717" y1="625.595" x2="468.68" y2="625.672" gradientUnits="userSpaceOnUse">
<stop stop-color="#5CB1FF"/>
<stop offset="1" stop-color="white" stop-opacity="0"/>
</linearGradient>
<linearGradient id="paint2_linear_374_4634" x1="752.107" y1="769.496" x2="749.986" y2="660.377" gradientUnits="userSpaceOnUse">
<stop stop-color="#030D16"/>
<stop offset="1" stop-color="#011831"/>
</linearGradient>
</defs>
</svg>
