<svg width="130" height="48" viewBox="0 0 130 48" fill="none" xmlns="http://www.w3.org/2000/svg">
<g filter="url(#filter0_d_374_4629)">
<path d="M38.4252 17.2081C38.3422 16.9435 38.2403 16.6852 38.1203 16.4352V16.4191C37.5604 15.2759 36.6319 14.356 35.4857 13.8087C34.3394 13.2614 33.0425 13.1188 31.8053 13.404C30.5682 13.6892 29.4633 14.3855 28.67 15.38C27.8766 16.3745 27.4413 17.6088 27.4347 18.8827C27.4348 19.2833 27.4778 19.6828 27.5631 20.0742C27.5634 20.0796 27.5634 20.0849 27.5631 20.0903C27.5951 20.2513 27.6433 20.4123 27.6914 20.5734C27.9778 21.7076 28.0335 22.8882 27.8553 24.0445C27.677 25.2009 27.2684 26.3094 26.654 27.3038C26.0395 28.2982 25.2316 29.1582 24.2787 29.8324C23.3257 30.5066 22.2472 30.9813 21.1075 31.228C19.9677 31.4747 18.7901 31.4885 17.645 31.2684C16.4998 31.0484 15.4106 30.5991 14.4423 29.9473C13.4739 29.2955 12.6464 28.4546 12.009 27.4748C11.3716 26.495 10.9374 25.3964 10.7324 24.2445C11.0223 26.2412 11.7268 28.1546 12.8003 29.8607C13.8738 31.5668 15.2924 33.0277 16.9641 34.1488C18.6359 35.2698 20.5236 36.026 22.505 36.3685C24.4865 36.711 26.5175 36.632 28.4666 36.1367C30.4158 35.6415 32.2395 34.741 33.8199 33.4935C35.4002 32.2461 36.7019 30.6794 37.6406 28.8951C38.5794 27.1107 39.1343 25.1484 39.2695 23.1352C39.4046 21.122 39.117 19.1027 38.4252 17.2081V17.2081Z" fill="#6378FF"/>
<path d="M15.626 22.0549C17.4871 24.7761 21.3378 24.5346 21.3378 24.5346C20.3751 23.6007 19.7494 22.7473 19.6852 20.316C19.6211 17.8846 18.2412 17.2405 18.2412 17.2405C20.7121 15.6787 19.8296 13.988 19.7494 12.1041C19.7013 10.9287 20.3912 10.0592 20.9367 9.56006C17.7969 10.0321 14.9598 11.702 13.0169 14.2219C11.074 16.7417 10.1751 19.9169 10.5078 23.0855C10.7324 22.4575 13.9092 19.5431 15.626 22.0549Z" fill="#0AA3F9"/>
<path d="M38.4252 17.2081C38.3422 16.9435 38.2403 16.6852 38.1203 16.4352V16.4191C37.5604 15.2759 36.6319 14.356 35.4857 13.8087C34.3394 13.2614 33.0425 13.1188 31.8053 13.404C30.5682 13.6892 29.4633 14.3855 28.67 15.38C27.8766 16.3745 27.4413 17.6088 27.4347 18.8827C27.4348 19.2833 27.4778 19.6828 27.5631 20.0742C27.5634 20.0796 27.5634 20.0849 27.5631 20.0903C27.5951 20.2513 27.6433 20.4123 27.6914 20.5734C27.9778 21.7076 28.0335 22.8882 27.8553 24.0445C27.677 25.2009 27.2684 26.3094 26.654 27.3038C26.0395 28.2982 25.2316 29.1582 24.2787 29.8324C23.3257 30.5066 22.2472 30.9813 21.1075 31.228C19.9677 31.4747 18.7901 31.4885 17.645 31.2684C16.4998 31.0484 15.4106 30.5991 14.4423 29.9473C13.4739 29.2955 12.6464 28.4546 12.009 27.4748C11.3716 26.495 10.9374 25.3964 10.7324 24.2445C11.0223 26.2412 11.7268 28.1546 12.8003 29.8607C13.8738 31.5668 15.2924 33.0277 16.9641 34.1488C18.6359 35.2698 20.5236 36.026 22.505 36.3685C24.4865 36.711 26.5175 36.632 28.4666 36.1367C30.4158 35.6415 32.2395 34.741 33.8199 33.4935C35.4002 32.2461 36.7019 30.6794 37.6406 28.8951C38.5794 27.1107 39.1343 25.1484 39.2695 23.1352C39.4046 21.122 39.117 19.1027 38.4252 17.2081V17.2081Z" fill="#0AA3F9"/>
<path fill-rule="evenodd" clip-rule="evenodd" d="M36.0348 21.089C36.0348 28.1053 30.3671 33.7932 23.3757 33.7932C19.665 33.7932 16.3272 32.1909 14.0117 29.6382C14.1519 29.7455 14.2955 29.8487 14.4423 29.9475C15.4107 30.5993 16.4999 31.0486 17.6451 31.2687C18.7902 31.4887 19.9678 31.4749 21.1076 31.2282C22.2473 30.9815 23.3258 30.5069 24.2788 29.8326C25.2317 29.1584 26.0396 28.2984 26.654 27.304C27.2685 26.3096 27.6771 25.2011 27.8553 24.0448C28.0336 22.8884 27.9779 21.7079 27.6915 20.5736C27.6434 20.4126 27.5952 20.2516 27.5632 20.0906C27.5635 20.0852 27.5635 20.0798 27.5632 20.0745C27.4779 19.683 27.4349 19.2836 27.4348 18.8829C27.4414 17.609 27.8767 16.3747 28.6701 15.3803C29.4634 14.3858 30.5683 13.6895 31.8054 13.4042C32.3158 13.2866 32.8364 13.2417 33.3523 13.268C35.033 15.4243 36.0348 18.1392 36.0348 21.089Z" fill="#7ABBFD"/>
</g>
<path d="M64.416 19.72C64.16 18.36 63.2 17.68 61.536 17.68C60.72 17.68 60.08 17.848 59.616 18.184C59.168 18.504 58.944 18.896 58.944 19.36C58.944 19.824 59.088 20.192 59.376 20.464C59.68 20.72 60.144 20.96 60.768 21.184L64.152 22.504C65.304 22.952 66.192 23.52 66.816 24.208C67.44 24.88 67.752 25.728 67.752 26.752C67.752 28.16 67.224 29.28 66.168 30.112C65.112 30.928 63.608 31.336 61.656 31.336C59.928 31.336 58.528 30.912 57.456 30.064C56.256 29.136 55.624 27.824 55.56 26.128H58.368C58.368 27.408 59.032 28.216 60.36 28.552C60.76 28.664 61.288 28.72 61.944 28.72C62.6 28.72 63.208 28.56 63.768 28.24C64.328 27.904 64.608 27.464 64.608 26.92C64.608 26.36 64.456 25.936 64.152 25.648C63.848 25.344 63.352 25.064 62.664 24.808L59.568 23.584C58.368 23.12 57.448 22.576 56.808 21.952C56.168 21.328 55.848 20.464 55.848 19.36C55.848 18.064 56.352 17.04 57.36 16.288C58.384 15.504 59.768 15.112 61.512 15.112C63.272 15.112 64.624 15.52 65.568 16.336C66.528 17.136 67.08 18.264 67.224 19.72H64.416ZM75.5687 21.28C74.7687 21.28 74.1447 21.544 73.6967 22.072C73.2487 22.584 72.9847 23.248 72.9047 24.064H77.8727C77.8727 22.8 77.4647 21.952 76.6487 21.52C76.3607 21.36 76.0007 21.28 75.5687 21.28ZM79.2887 20.728C79.7047 21.24 80.0087 21.832 80.2007 22.504C80.4087 23.176 80.5127 23.792 80.5127 24.352C80.5127 24.912 80.4807 25.416 80.4167 25.864H72.8807C72.9127 26.808 73.1447 27.576 73.5767 28.168C74.0087 28.76 74.6647 29.056 75.5447 29.056C76.7127 29.056 77.4087 28.544 77.6327 27.52H80.4887C80.2807 28.688 79.7447 29.608 78.8807 30.28C77.9687 30.984 76.8567 31.336 75.5447 31.336C74.0087 31.336 72.7207 30.776 71.6807 29.656C70.6087 28.488 70.0727 26.992 70.0727 25.168C70.0727 23.296 70.6087 21.792 71.6807 20.656C72.6887 19.568 73.9767 19.024 75.5447 19.024C77.1607 19.024 78.4087 19.592 79.2887 20.728ZM90.9208 26.44C89.9768 26.184 89.0968 26.056 88.2808 26.056C86.7448 26.056 85.9768 26.568 85.9768 27.592C85.9768 28.024 86.1528 28.4 86.5048 28.72C86.8568 29.024 87.4168 29.176 88.1848 29.176C88.9688 29.176 89.6088 28.92 90.1048 28.408C90.6168 27.88 90.8888 27.224 90.9208 26.44ZM87.7048 24.184C88.6328 24.184 89.7048 24.336 90.9208 24.64V23.488C90.9208 22.672 90.7528 22.072 90.4168 21.688C90.0968 21.288 89.5608 21.088 88.8088 21.088C88.0728 21.088 87.5048 21.24 87.1048 21.544C86.7048 21.832 86.5048 22.248 86.5048 22.792H83.4088C83.4088 21.464 83.8728 20.504 84.8008 19.912C85.7448 19.32 87.0568 19.024 88.7368 19.024C91.1368 19.024 92.6888 19.864 93.3928 21.544C93.6328 22.12 93.7528 22.8 93.7528 23.584V31H91.2808L91.0648 29.44C90.3128 30.704 89.1608 31.336 87.6088 31.336C86.1048 31.336 84.9368 30.968 84.1048 30.232C83.3368 29.528 82.9528 28.64 82.9528 27.568C82.9528 26.48 83.3768 25.648 84.2248 25.072C85.0728 24.48 86.2328 24.184 87.7048 24.184ZM97.8804 14.536H100.712V31H97.8804V14.536ZM112.562 25.168C112.562 23.936 112.322 23.016 111.842 22.408C111.362 21.784 110.69 21.472 109.826 21.472C108.978 21.472 108.282 21.784 107.738 22.408C107.194 23.016 106.922 23.936 106.922 25.168C106.922 26.4 107.162 27.328 107.642 27.952C108.138 28.56 108.81 28.864 109.658 28.864C110.506 28.864 111.202 28.56 111.746 27.952C112.29 27.328 112.562 26.4 112.562 25.168ZM109.754 19.024C110.538 19.024 111.274 19.152 111.962 19.408C112.65 19.648 113.242 20.024 113.738 20.536C114.842 21.656 115.394 23.208 115.394 25.192C115.394 27.144 114.842 28.68 113.738 29.8C112.746 30.824 111.418 31.336 109.754 31.336C108.09 31.336 106.746 30.824 105.722 29.8C104.618 28.696 104.066 27.16 104.066 25.192C104.066 23.192 104.618 21.64 105.722 20.536C106.73 19.528 108.074 19.024 109.754 19.024ZM120.347 27.448C120.379 28.552 121.187 29.104 122.771 29.104C123.379 29.104 123.875 28.976 124.259 28.72C124.659 28.448 124.859 28.136 124.859 27.784C124.859 27.432 124.739 27.16 124.499 26.968C124.259 26.776 123.883 26.6 123.371 26.44L120.827 25.528C118.939 24.872 117.995 23.8 117.995 22.312C117.995 21.32 118.435 20.528 119.315 19.936C120.211 19.328 121.403 19.024 122.891 19.024C124.395 19.024 125.547 19.352 126.347 20.008C127.163 20.664 127.587 21.488 127.619 22.48H124.955C124.923 22.096 124.739 21.792 124.403 21.568C124.067 21.344 123.587 21.232 122.963 21.232C122.339 21.232 121.851 21.36 121.499 21.616C121.163 21.856 120.995 22.136 120.995 22.456C120.995 23.016 121.467 23.432 122.411 23.704L125.171 24.736C126.083 25.04 126.779 25.432 127.259 25.912C127.755 26.376 128.003 26.984 128.003 27.736C128.003 28.696 127.547 29.528 126.635 30.232C125.691 30.968 124.443 31.336 122.891 31.336C121.339 31.336 120.091 31 119.147 30.328C118.203 29.64 117.723 28.68 117.707 27.448H120.347Z" fill="white"/>
<defs>
<filter id="filter0_d_374_4629" x="0.43994" y="0.610058" width="48.8621" height="47.0176" filterUnits="userSpaceOnUse" color-interpolation-filters="sRGB">
<feFlood flood-opacity="0" result="BackgroundImageFix"/>
<feColorMatrix in="SourceAlpha" type="matrix" values="0 0 0 0 0 0 0 0 0 0 0 0 0 0 0 0 0 0 127 0" result="hardAlpha"/>
<feOffset dy="1.05"/>
<feGaussianBlur stdDeviation="5"/>
<feComposite in2="hardAlpha" operator="out"/>
<feColorMatrix type="matrix" values="0 0 0 0 1 0 0 0 0 1 0 0 0 0 1 0 0 0 0.25 0"/>
<feBlend mode="normal" in2="BackgroundImageFix" result="effect1_dropShadow_374_4629"/>
<feBlend mode="normal" in="SourceGraphic" in2="effect1_dropShadow_374_4629" result="shape"/>
</filter>
</defs>
</svg>
