<svg t="1729587246449" class="icon" viewBox="0 0 1024 1024" version="1.1" xmlns="http://www.w3.org/2000/svg" p-id="8528" width="200" height="200"><path d="M188.928 603.093333c-13.312 42.538667-19.925333 63.786667-18.304 83.968 1.536 17.792 7.594667 34.901333 17.621333 49.706667 11.349333 16.725333 29.866667 29.098667 66.986667 53.802667l163.797333 109.226666c33.066667 22.016 49.621333 33.066667 67.498667 37.376 15.786667 3.84 32.298667 3.84 48.128 0.128 17.92-4.266667 34.56-15.232 67.754667-37.12L768 790.741333c37.461333-24.789333 56.234667-37.12 67.754667-54.016A103.68 103.68 0 0 0 853.333333 686.72c1.664-20.352-5.205333-41.728-18.773333-84.565333l-145.066667-456.533334c-7.04-22.186667-10.538667-33.237333-17.28-41.472a55.296 55.296 0 0 0-22.314666-16.298666c-9.813333-3.925333-21.418667-3.925333-44.672-3.925334H416.170667c-23.338667 0-35.072 0-44.928 4.010667a55.04 55.04 0 0 0-22.357334 16.384c-6.741333 8.277333-10.197333 19.413333-17.109333 41.685333L188.928 603.136z m423.68-422.272c5.546667 6.912 8.448 16.341333 14.122667 34.986667l124.544 409.088a518.229333 518.229333 0 0 0-148.906667-50.346667l-81.066667-274.048a10.581333 10.581333 0 0 0-20.224 0l-80.128 273.834667a517.461333 517.461333 0 0 0-149.546666 50.517333l125.184-409.088c5.674667-18.730667 8.533333-28.074667 14.122666-34.986666 4.949333-6.101333 11.392-10.837333 18.645334-13.781334 8.277333-3.328 18.048-3.328 37.589333-3.328h89.386667c19.541333 0 29.354667 0 37.632 3.328 7.253333 2.944 13.653333 7.68 18.645333 13.824z m-96.554667 493.098667c47.189333 0 88.192-11.946667 108.714667-29.525333a89.6 89.6 0 0 1-6.613333 69.802666c-13.141333 24.32-32.213333 36.394667-49.408 47.274667-21.589333 13.696-40.149333 25.514667-40.149334 57.173333 0 10.453333 2.389333 20.437333 6.698667 29.269334a79.701333 79.701333 0 0 1-49.109333-73.6v-1.962667c0-21.845333 0.042667-48.768-30.805334-48.768a32.64 32.64 0 0 0-32.682666 32.597333c-34.645333-34.688-31.616-84.608-31.616-84.608 0-10.197333 1.024-26.069333 5.589333-39.936 12.885333 24.234667 61.44 42.24 119.381333 42.24z" fill="#2c2c2c" p-id="8529"></path></svg>