<svg width="257" height="257" viewBox="0 0 257 257" fill="none" xmlns="http://www.w3.org/2000/svg">
<g clip-path="url(#clip0_3260_2006)">
<path d="M257 128.5C257 57.5314 199.469 0 128.5 0C57.5314 0 0 57.5314 0 128.5C0 199.469 57.5314 257 128.5 257C199.469 257 257 199.469 257 128.5Z" fill="url(#paint0_linear_3260_2006)"/>
<path d="M69.558 133.985L157.15 46.9959C158.786 45.3708 161.42 47.3484 160.315 49.3729L127.714 109.125C126.986 110.457 127.951 112.083 129.469 112.083H185.809C187.624 112.083 188.5 114.306 187.173 115.545L88.4452 207.687C86.675 209.339 84.0401 207.011 85.4613 205.051L132.197 140.578C133.155 139.256 132.211 137.404 130.578 137.404H70.9673C69.1822 137.404 68.2914 135.243 69.558 133.985Z" fill="white"/>
</g>
<defs>
<linearGradient id="paint0_linear_3260_2006" x1="128.5" y1="0" x2="128.5" y2="257" gradientUnits="userSpaceOnUse">
<stop stop-color="#7BCBD4"/>
<stop offset="1" stop-color="#29C6B7"/>
</linearGradient>
<clipPath id="clip0_3260_2006">
<rect width="257" height="257" fill="white"/>
</clipPath>
</defs>
</svg>