<?xml version="1.0" encoding="utf-8"?>
<!-- Generator: Adobe Illustrator 19.0.0, SVG Export Plug-In . SVG Version: 6.00 Build 0)  -->
<svg version="1.1" xmlns="http://www.w3.org/2000/svg" xmlns:xlink="http://www.w3.org/1999/xlink" x="0px" y="0px"
	 viewBox="0 0 118.1 36.7" style="enable-background:new 0 0 118.1 36.7;" xml:space="preserve">
<style type="text/css">
	.st0{opacity:0;fill:#303030;}
	.st1{fill:#292E31;}
	.st2{fill:#828282;}
	.st3{fill:#C6C6C6;}
	.st4{fill:#00AFD1;}
	.st5{fill:#4AE1FF;}
</style>
<g id="Layer_1">
	<rect x="-315.2" y="-230.2" class="st0" width="800" height="500"/>
	<g id="XMLID_17_">
		<path id="XMLID_18_" class="st1" d="M52.5,22.3c0.3,2,2,3.4,4.8,3.4c1.5,0,3.4-0.5,4.3-1.5l2.5,2.5c-1.7,1.7-4.4,2.6-6.9,2.6
			c-5.5,0-8.8-3.4-8.8-8.4c0-4.8,3.3-8.3,8.5-8.3c5.3,0,8.7,3.3,8.1,9.8H52.5z M61.2,19.1c-0.3-2-1.9-3.1-4.1-3.1
			c-2.1,0-3.9,1-4.5,3.1H61.2z"/>
		<path id="XMLID_21_" class="st1" d="M81.7,26.8c-1.8,1.8-3.8,2.5-6.1,2.5c-4.6,0-8.5-2.8-8.5-8.4c0-5.6,3.9-8.4,8.5-8.4
			c2.3,0,4,0.6,5.8,2.3l-2.5,2.6c-0.9-0.8-2.1-1.2-3.2-1.2C73,16.3,71,18.2,71,21c0,3,2.1,4.6,4.5,4.6c1.3,0,2.5-0.4,3.5-1.3
			L81.7,26.8z"/>
		<path id="XMLID_25_" class="st1" d="M87.4,6.4v8.8c1.4-1.8,3.2-2.4,5-2.4c4.5,0,6.5,3,6.5,7.7v8.3H95v-8.3c0-2.9-1.5-4.1-3.6-4.1
			c-2.3,0-3.9,2-3.9,4.3v8.1h-3.9V6.4H87.4z"/>
		<path id="XMLID_27_" class="st1" d="M118.1,21c0,4.5-3.1,8.2-8.3,8.2c-5.2,0-8.3-3.7-8.3-8.2c0-4.5,3.2-8.2,8.3-8.2
			S118.1,16.5,118.1,21z M105.5,21c0,2.4,1.5,4.6,4.3,4.6c2.9,0,4.3-2.2,4.3-4.6c0-2.4-1.7-4.7-4.3-4.7
			C107,16.3,105.5,18.6,105.5,21z"/>
	</g>
</g>
<g id="Layer_2">
	<g id="XMLID_1_">
		<polygon id="XMLID_2_" class="st2" points="0.8,3.2 6.1,0.2 11.3,3.2 5.9,6.2 		"/>
		<polygon id="XMLID_3_" class="st2" points="7.2,6.9 12.5,3.8 17.8,6.9 12.4,9.8 		"/>
		<polygon id="XMLID_4_" class="st3" points="20.7,6.8 26,3.7 31.2,6.8 25.8,9.8 		"/>
		<polygon id="XMLID_5_" class="st3" points="27.3,3.1 32.6,0 37.8,3.1 32.4,6 		"/>
		<polygon id="XMLID_6_" class="st4" points="0,4.2 0,10.8 5.3,13.8 5.3,7.3 		"/>
		<polygon id="XMLID_7_" class="st4" points="6.6,7.9 6.6,14.5 12,17.4 12,11 		"/>
		<polygon id="XMLID_8_" class="st4" points="13.1,11.4 13.1,18 18.4,20.9 18.4,14.5 		"/>
		<polygon class="st5" points="38.3,4.3 38.3,10.9 32.9,13.9 32.9,7.4 		"/>
		<polygon class="st5" points="31.6,8 31.6,14.6 26.3,17.5 26.3,11.1 		"/>
		<polygon class="st5" points="25.1,11.5 25.1,18.1 19.8,21 19.8,14.6 		"/>
		<polygon id="XMLID_9_" class="st4" points="0,12.1 0,18.7 5.3,21.6 5.3,15.2 		"/>
		<polygon id="XMLID_10_" class="st4" points="6.6,15.7 6.6,22.3 12,25.3 12,18.9 		"/>
		<polygon id="XMLID_11_" class="st4" points="13.1,19.2 13.1,25.8 18.4,28.7 18.4,22.3 		"/>
		<polygon class="st5" points="38.3,12.2 38.3,18.8 32.9,21.7 32.9,15.3 		"/>
		<polygon class="st5" points="31.6,15.9 31.6,22.5 26.3,25.4 26.3,19 		"/>
		<polygon class="st5" points="25.1,19.3 25.1,25.9 19.8,28.8 19.8,22.4 		"/>
		<polygon id="XMLID_12_" class="st4" points="0,19.9 0,26.5 5.3,29.5 5.3,23 		"/>
		<polygon id="XMLID_13_" class="st4" points="6.6,23.6 6.6,30.2 12,33.1 12,26.7 		"/>
		<polygon id="XMLID_14_" class="st4" points="13.1,27.1 13.1,33.7 18.4,36.6 18.4,30.2 		"/>
		<polygon class="st5" points="38.3,20 38.3,26.6 32.9,29.6 32.9,23.2 		"/>
		<polygon class="st5" points="31.6,23.7 31.6,30.3 26.3,33.2 26.3,26.8 		"/>
		<polygon class="st5" points="25.1,27.2 25.1,33.8 19.8,36.7 19.8,30.3 		"/>
		<g id="XMLID_15_">
			<polygon id="XMLID_22_" class="st2" points="19.2,7.4 13.9,10.5 19.1,13.4 19.1,13.4 19.2,7.4 			"/>
			<polygon id="XMLID_23_" class="st3" points="19.2,7.4 19.1,13.4 24.4,10.5 			"/>
		</g>
	</g>
</g>
</svg>
