<svg width="32" height="33" viewBox="0 0 32 33" fill="none" xmlns="http://www.w3.org/2000/svg">
<path d="M12.3567 24.2142C12.3567 24.2142 11.2317 24.8313 13.1583 25.0395C15.4928 25.2909 16.6857 25.2548 19.2575 24.7966C19.2575 24.7966 19.9351 25.1959 20.8795 25.542C15.1121 27.8711 7.82726 25.407 12.3567 24.2142ZM11.6515 21.1744C11.6515 21.1744 10.3894 22.0551 12.3177 22.2433C14.8114 22.486 16.7803 22.5058 20.189 21.8874C20.189 21.8874 20.6593 22.3379 21.4001 22.5839C14.4284 24.5059 6.66335 22.7352 11.6515 21.1744Z" fill="#408FC1"/>
<path d="M17.3887 16.2081C18.8312 17.7701 17.0104 19.1745 17.0104 19.1745C17.0104 19.1745 20.6709 17.3971 18.9901 15.1704C17.4198 13.0948 16.216 12.0639 22.7334 8.50781C22.7334 8.50804 12.5029 10.9111 17.3887 16.2081Z" fill="#EF5859"/>
<path d="M24.3597 26.4781C24.3597 26.4781 25.1268 27.1203 23.5145 27.6167C20.4491 28.5594 10.7533 28.8437 8.06047 27.6544C7.09293 27.2267 8.90801 26.6337 9.47906 26.5086C10.0744 26.3777 10.4144 26.4016 10.4144 26.4016C9.33776 25.632 3.45559 27.9133 7.42704 28.5676C18.2569 30.3498 27.1684 27.765 24.3597 26.4781ZM13.0103 18.1065C13.0103 18.1065 8.07894 19.2958 11.2641 19.7281C12.6093 19.9108 15.2895 19.8689 17.7878 19.6561C19.8289 19.482 21.8773 19.1102 21.8773 19.1102C21.8773 19.1102 21.1582 19.4233 20.6374 19.7839C15.6286 21.1215 5.95497 20.4985 8.7402 19.1311C11.0948 17.975 13.0103 18.1065 13.0103 18.1065ZM21.8568 23.1264C26.948 20.4413 24.5938 17.8609 22.9507 18.2084C22.5489 18.2934 22.3687 18.3673 22.3687 18.3673C22.3687 18.3673 22.5183 18.1292 22.8035 18.0268C26.0539 16.8671 28.5533 21.4481 21.7551 23.2626C21.7551 23.2621 21.8331 23.1904 21.8568 23.1264Z" fill="#408FC1"/>
<path d="M18.642 2.50781C18.642 2.50781 21.5971 5.41318 15.8386 9.87937C11.2206 13.4632 14.7856 15.5061 15.837 17.8411C13.141 15.4514 11.1636 13.3474 12.49 11.3894C14.4378 8.5158 19.834 7.12201 18.642 2.50781Z" fill="#EF5859"/>
<path d="M13.2975 30.4196C18.2615 30.7436 25.8863 30.2392 26.0668 27.8412C26.0668 27.8412 25.7198 28.7502 21.9639 29.4715C17.7266 30.2859 12.4994 30.191 9.40009 29.6686C9.40009 29.6688 10.035 30.2054 13.2975 30.4196Z" fill="#408FC1"/>
</svg>
