<svg width="32" height="33" viewBox="0 0 32 33" fill="none" xmlns="http://www.w3.org/2000/svg">
<g clip-path="url(#clip0_1114_1252)">
<path d="M23.7578 30.51C23.6388 30.573 23.6488 30.593 23.7628 30.535C23.7979 30.5207 23.8301 30.5 23.8577 30.474C23.8577 30.453 23.8577 30.453 23.7578 30.51ZM23.9977 30.38C23.9407 30.427 23.9407 30.427 24.0087 30.396C24.0339 30.3843 24.0568 30.3684 24.0767 30.349C24.0767 30.322 24.0607 30.328 23.9977 30.38ZM24.1537 30.286C24.0967 30.333 24.0967 30.333 24.1647 30.302C24.1899 30.29 24.2129 30.2738 24.2327 30.254C24.2327 30.229 24.2167 30.234 24.1537 30.286ZM24.3117 30.193C24.2547 30.24 24.2547 30.24 24.3207 30.208C24.3577 30.188 24.3887 30.167 24.3887 30.161C24.3887 30.136 24.3727 30.141 24.3117 30.193ZM24.5247 30.0521C24.4157 30.125 24.3777 30.172 24.4777 30.12C24.5447 30.0791 24.6587 29.9891 24.6387 29.9891C24.5957 30.0051 24.5597 30.0321 24.5237 30.0521H24.5247ZM14.9626 0.518824C14.8896 0.523823 14.6706 0.543822 14.4786 0.55982C9.93106 0.971781 5.67646 3.41955 2.97971 7.1902C1.48941 9.25825 0.520697 11.6557 0.155973 14.1785C0.0269848 15.0585 0.0109863 15.3184 0.0109863 16.5113C0.0109863 17.7032 0.0269848 17.9592 0.155973 18.8391C1.02689 24.8495 5.30249 29.8951 11.0979 31.7649C12.1408 32.0979 13.2337 32.3278 14.4786 32.4688C14.9626 32.5208 17.0554 32.5208 17.5393 32.4688C19.6911 32.2289 21.508 31.6979 23.3058 30.781C23.5818 30.641 23.6338 30.604 23.5968 30.573C22.7197 29.4137 21.8501 28.2488 20.988 27.0783L18.4313 23.6257L15.2286 18.8811C14.1632 17.2925 13.087 15.7113 11.9999 14.1375C11.9889 14.1375 11.9749 16.2463 11.9689 18.8181C11.9579 23.3227 11.9579 23.5057 11.9009 23.6097C11.8462 23.7353 11.7483 23.8371 11.6249 23.8966C11.5259 23.9436 11.4369 23.9536 10.964 23.9536H10.423L10.282 23.8656C10.1937 23.809 10.122 23.73 10.074 23.6367L10.006 23.4957L10.011 17.2253L10.022 10.9548L10.121 10.8299C10.1843 10.753 10.2621 10.6895 10.35 10.6429C10.481 10.5799 10.533 10.5699 11.0739 10.5699C11.7089 10.5699 11.8139 10.5949 11.9809 10.7779C13.2783 12.7076 14.5645 14.6447 15.8395 16.5893C17.9183 19.741 20.756 24.0416 22.1509 26.1514L24.6877 29.9901L24.8127 29.9071C26.0318 29.0969 27.1366 28.1267 28.0974 27.0223C30.1127 24.7156 31.4205 21.8769 31.864 18.8461C31.993 17.9662 32.009 17.7052 32.009 16.5133C32.009 15.3204 31.993 15.0655 31.864 14.1855C30.9931 8.17511 26.7175 3.12958 20.922 1.25875C19.8389 0.915708 18.7241 0.682226 17.5943 0.56182C17.2914 0.530823 15.2236 0.493826 14.9636 0.520824L14.9626 0.518824ZM21.509 10.1949C21.5834 10.2314 21.6497 10.2825 21.7041 10.345C21.7586 10.4075 21.8 10.4802 21.8259 10.5589C21.8529 10.6429 21.8579 12.3817 21.8529 16.2983L21.8419 21.9218L20.853 20.402L19.8581 18.8811V14.7985C19.8581 12.1517 19.8691 10.6679 19.8831 10.5949C19.9321 10.4275 20.0443 10.2858 20.1961 10.1999C20.3201 10.1369 20.3681 10.1319 20.863 10.1319C21.326 10.1319 21.404 10.1369 21.508 10.1949H21.509Z" fill="black"/>
</g>
<defs>
<clipPath id="clip0_1114_1252">
<rect width="32" height="32" fill="white" transform="translate(0 0.507812)"/>
</clipPath>
</defs>
</svg>
