<?xml version="1.0" encoding="UTF-8"?>
<svg version="1.1" xmlns="http://www.w3.org/2000/svg" width="120" height="120">
<path d="M0 0 C0.92554687 0.40089844 1.85109375 0.80179687 2.8046875 1.21484375 C17.60901998 8.44925552 28.59335643 21.49753858 34 37 C38.90770976 53.33540938 36.84339408 70.58375699 29.3125 85.6875 C20.74013516 100.48452172 7.48561159 110.17334289 -8.734375 115.14453125 C-24.9885714 118.94564988 -42.0781946 116.0381238 -56.37109375 107.7578125 C-70.0387061 98.61899295 -79.85438536 85.33481957 -83.62280273 69.22045898 C-86.50954966 52.22695523 -83.60196485 35.36027187 -74 21 C-56.65950154 -1.28090462 -26.75817895 -11.88838313 0 0 Z " fill="#01BAA4" transform="translate(84,4)"/>
<path d="M0 0 C5.28587783 3.0615683 9.31851102 7.0573521 13.5859375 11.390625 C14.63861313 12.44754547 14.63861313 12.44754547 15.71255493 13.52581787 C17.93813652 15.76253435 20.15663639 18.00612689 22.375 20.25 C23.88885954 21.77389797 25.4031777 23.29734047 26.91796875 24.8203125 C30.61730413 28.54161942 34.31086048 32.26858659 38 36 C33.26568477 40.86287105 27.96719558 44.14487779 21 44.4375 C6.17613543 43.49630225 -2.72635588 31.41313626 -12.5 21.5625 C-13.61955632 20.4379167 -14.73934629 19.31356595 -15.859375 18.18945312 C-18.57561534 15.46230656 -21.28868292 12.73204093 -24 10 C-19.48120086 0.42147961 -9.92561886 -1.91787366 0 0 Z " fill="#FCFEFE" transform="translate(41,43)"/>
<path d="M0 0 C1.50094961 0.68337938 2.98691779 1.40147938 4.44921875 2.1640625 C6.43058723 3.14101448 8.26723591 3.67879769 10.421875 4.13671875 C7.12652124 12.88856525 1.48514805 21.12282896 -6.578125 26.13671875 C-10.1278839 25.75408004 -11.80687712 24.26411959 -14.25 21.7578125 C-14.91386719 21.08427734 -15.57773438 20.41074219 -16.26171875 19.71679688 C-16.94363281 19.00974609 -17.62554687 18.30269531 -18.328125 17.57421875 C-19.02550781 16.86330078 -19.72289063 16.15238281 -20.44140625 15.41992188 C-22.1605908 13.66541161 -23.87238372 11.90428523 -25.578125 10.13671875 C-21.00717875 -0.0934943 -10.20517963 -3.41718894 0 0 Z " fill="#F8FDFC" transform="translate(91.578125,47.86328125)"/>
</svg>
