<svg t="1729587823244" class="icon" viewBox="0 0 1024 1024" version="1.1" xmlns="http://www.w3.org/2000/svg" p-id="3434" width="200" height="200"><path d="M847.04 182.4a287.136 287.136 0 0 0-377.376-78.528L254.72 236.8a238.752 238.752 0 0 0-111.392 160.288 245.952 245.952 0 0 0 25.6 161.856 235.456 235.456 0 0 0-36.832 89.6 249.248 249.248 0 0 0 44.8 192.896 287.264 287.264 0 0 0 377.408 78.656L769.28 787.2a238.976 238.976 0 0 0 111.392-160.288 245.536 245.536 0 0 0-25.6-161.984 235.136 235.136 0 0 0 36.864-89.6A249.12 249.12 0 0 0 847.04 182.4" fill="#FF3E00" p-id="3435"></path><path d="M448.704 852.48A173.216 173.216 0 0 1 265.6 786.592a149.696 149.696 0 0 1-27.136-116 137.824 137.824 0 0 1 5.088-19.52l4.064-12 11.008 7.616a280.32 280.32 0 0 0 84.096 40.768l7.84 2.336-0.8 7.584a46.112 46.112 0 0 0 8.672 30.976 52.16 52.16 0 0 0 55.776 20.352 48.384 48.384 0 0 0 13.152-5.6l214.4-132.928a43.712 43.712 0 0 0 20.256-29.088 45.024 45.024 0 0 0-7.808-34.912 52.288 52.288 0 0 0-55.232-19.904 48.288 48.288 0 0 0-13.216 5.632l-82.304 50.688a157.888 157.888 0 0 1-43.648 18.624 173.28 173.28 0 0 1-183.264-65.92 149.696 149.696 0 0 1-26.592-116.096A144.224 144.224 0 0 1 316.8 322.88l214.656-132.928a157.824 157.824 0 0 1 43.648-18.592A173.216 173.216 0 0 1 758.4 237.248a149.728 149.728 0 0 1 27.136 116 136.704 136.704 0 0 1-5.088 19.52l-4.064 12-11.008-7.584a278.816 278.816 0 0 0-84.096-40.768l-7.84-2.368 0.8-7.584a46.016 46.016 0 0 0-8.704-30.976 52.128 52.128 0 0 0-55.2-19.904 47.488 47.488 0 0 0-13.152 5.632l-215.104 132.48a43.296 43.296 0 0 0-20.192 29.056 44.608 44.608 0 0 0 7.808 34.944 52.288 52.288 0 0 0 55.232 19.872 49.216 49.216 0 0 0 13.216-5.6l81.984-50.72a156.8 156.8 0 0 1 43.648-18.592 173.344 173.344 0 0 1 183.296 65.888 149.792 149.792 0 0 1 26.976 116 144 144 0 0 1-66.848 96.416l-214.624 132.928a156.8 156.8 0 0 1-43.648 18.592" fill="#FFFFFF" p-id="3436"></path></svg>