<?xml version="1.0" standalone="no"?><!DOCTYPE svg PUBLIC "-//W3C//DTD SVG 1.1//EN" "http://www.w3.org/Graphics/SVG/1.1/DTD/svg11.dtd"><svg t="1729581597766" class="icon" viewBox="0 0 1039 1024" version="1.1" xmlns="http://www.w3.org/2000/svg" p-id="8176" xmlns:xlink="http://www.w3.org/1999/xlink" width="202.9296875" height="200"><path d="M478.666431 0h62.773946a175.4061 175.4061 0 0 0 35.310345 23.54023C627.009113 4.331402 667.553235 16.101517 698.375243 58.850575c50.454559-2.989609 81.841533 19.240215 94.16092 66.697318 68.243126-5.751663 103.553471 25.63531 105.931034 94.160919 42.890299 20.370146 63.809716 54.377931 62.773947 102.007663 23.045885 26.553379 33.513441 57.940352 31.386973 94.16092 17.513931 23.210667 31.897011 46.750897 43.157088 70.620689v86.314177c-41.917303 192.417839-154.384674 327.115034-337.409962 404.107279-2.777747 12.758805-2.777747 27.141885 0 43.157088h-360.950191a71.460291 71.460291 0 0 1 7.846743-39.233716c-187.42731-79.667985-302.507648-218.296398-345.256705-415.877395v-78.467433a1341.44 1341.44 0 0 1 39.233716-66.697318c-14.186912-36.934621-7.650575-69.624153 19.616859-98.084291-1.03577-47.629732 19.883648-81.637517 62.773946-102.007663 7.226851-63.480153 42.537195-94.867126 105.931034-94.160919 12.499862-46.939218 43.886835-69.176889 94.16092-66.697318C352.553573 16.101517 393.097695 4.331402 443.356086 23.54023a175.4061 175.4061 0 0 0 35.310345-23.54023z" fill="#040507" opacity=".913" p-id="8177"></path><path d="M486.513174 31.386973a144.662559 144.662559 0 0 1 47.08046 3.923372L568.903979 70.62069c47.943602-38.017471 83.253946-28.860322 105.931034 27.463601 56.386697-16.870498 87.77367 4.04892 94.16092 62.773947 72.919785-12.083985 101.693793 17.992582 86.314176 90.237547 49.787586 0 70.714851 23.54023 62.773946 70.62069a250.052169 250.052169 0 0 0 35.310345 39.233717c4.40987 18.565395 3.10731 36.879693-3.923371 54.927203a245.571678 245.571678 0 0 0 35.310344 39.233716c3.876291 12.821579 5.178851 25.894253 3.923372 39.233717H47.09555c-0.258943-28.263969 10.200766-51.804199 31.386973-70.62069-25.643157-40.457808-17.796414-73.155188 23.54023-98.084291-10.067372-48.900904 10.852046-73.75154 62.773946-74.544062-15.387464-72.237119 13.378697-102.313686 86.314176-90.237547 6.387249-58.725027 37.774222-79.644444 94.16092-62.773947 22.010115-56.747648 57.32046-65.89695 105.931034-27.463601a250.091402 250.091402 0 0 0 35.310345-39.233717z" fill="#FCFCFC" p-id="8178"></path><path d="M282.497849 258.942529h31.386973c2.181395 14.485088-3.052383 24.952644-15.693487 31.386973-12.641103-6.43433-17.874881-16.901885-15.693486-31.386973z" fill="#252525" p-id="8179"></path><path d="M345.271795 274.636015h31.386973c2.181395 14.485088-3.052383 24.952644-15.693487 31.386974-12.641103-6.43433-17.874881-16.901885-15.693486-31.386974z" fill="#242424" p-id="8180"></path><path d="M227.570645 337.409962h23.54023c-0.580659 31.70869-11.040368 36.942467-31.386973 15.693486 2.848368-5.367172 5.461333-10.593103 7.846743-15.693486z" fill="#1B1B1B" p-id="8181"></path><path d="M721.915473 337.409962h31.386973c2.181395 14.485088-3.052383 24.952644-15.693486 31.386973-12.641103-6.43433-17.874881-16.901885-15.693487-31.386973z" fill="#222222" p-id="8182"></path><path d="M290.344592 400.183908h23.54023c-0.580659 31.70869-11.040368 36.942467-31.386973 15.693487 2.848368-5.367172 5.461333-10.593103 7.846743-15.693487z" fill="#171717" p-id="8183"></path><path d="M337.425052 933.762452c-25.768705-19.922881-57.155678-39.539739-94.16092-58.850575a1481.76331 1481.76331 0 0 1-94.16092-82.390804c-70.934559-73.994789-107.55531-162.921931-109.854406-266.789272h957.302682c-24.968337 227.704644-147.895418 372.869395-368.796935 435.494253-75.736766 15.152061-151.591234 15.152061-227.555555 0-23.351908-5.531954-44.271326-14.681257-62.773946-27.463602z" fill="#1890FD" p-id="8184"></path><path d="M149.103212 792.521073a1481.76331 1481.76331 0 0 0 94.16092 82.390804c37.005241 19.310835 68.392215 38.927693 94.16092 58.850575-72.205732-25.070345-133.669272-66.917027-184.398468-125.547893a19.044046 19.044046 0 0 1-3.923372-15.693486z" fill="#1991E3" p-id="8185"></path></svg>