<svg width="28" height="28" viewBox="0 0 45 45" fill="none" xmlns="http://www.w3.org/2000/svg">
<path  fill="#000" fill-rule="evenodd" d="M31.6749 4.53139C32.5322 4.48136 33.3829 4.7086 34.1012 5.17951L42.8406 10.9096C43.6863 11.4641 44.1957 12.4073 44.1957 13.4185V40.0806C44.1957 41.6858 42.9322 43.0065 41.3286 43.0777L14.0979 44.2856C13.1077 44.3295 12.1597 43.8815 11.565 43.0886L5.54906 35.0674C5.02978 34.375 4.74907 33.5329 4.74906 32.6674L4.74902 7.98947C4.74902 6.93016 5.57499 6.05458 6.6325 5.99286L31.6749 4.53139ZM30.2351 8.50782C30.7395 8.47702 31.4066 8.6742 31.9627 9.0185L35.5225 11.2223C36.3209 11.7167 36.4012 12.3558 35.6694 12.3916L17.7358 13.2683C17.0832 13.3002 16.1961 12.9606 15.6228 12.4596L13.568 10.6638C12.9326 10.1084 13.0062 9.5598 13.7221 9.51609L30.2351 8.50782ZM26.65 36.0386C26.1913 35.952 25.8988 35.5164 25.9841 35.0467L28.2694 22.4621C28.3615 21.9548 28.8556 21.607 29.3512 21.7006L30.38 21.8949C30.8387 21.9816 31.1311 22.4172 31.0458 22.8869L28.7606 35.4714C28.6684 35.9788 28.1743 36.3266 27.6788 36.233L26.65 36.0386ZM23.0582 22.9586C22.7005 22.5771 22.0734 22.6161 21.7235 23.0415L18.9874 26.368L16.7358 29.1118C16.4452 29.4659 16.4501 29.9678 16.7472 30.2853L19.2293 32.9379L21.8468 35.7286C22.2045 36.11 22.8316 36.0711 23.1815 35.6457L23.9827 34.6715C24.2742 34.3172 24.2693 33.8142 23.9713 33.4965L20.7282 30.0387C20.4302 29.7209 20.4253 29.2179 20.7168 28.8636L23.8888 25.007C24.1803 24.6527 24.1754 24.1497 23.8774 23.832L23.0582 22.9586ZM35.1832 22.2049L37.931 25.1346L40.2828 27.6482C40.5799 27.9657 40.5848 28.4677 40.2942 28.8217L37.9941 31.6245L35.3065 34.892C34.9566 35.3174 34.3295 35.3564 33.9717 34.975L33.1526 34.1016C32.8546 33.7838 32.8497 33.2808 33.1412 32.9265L36.3132 29.0699C36.6047 28.7156 36.5998 28.2126 36.3018 27.8949L33.0586 24.4371C32.7607 24.1193 32.7558 23.6163 33.0472 23.262L33.8484 22.2879C34.1983 21.8625 34.8255 21.8235 35.1832 22.2049Z"
clip-rule="evenodd"/>
</svg>
