<svg xmlns="http://www.w3.org/2000/svg"  viewBox="0 0 24 25" fill="currentColor">
  <path fill-rule="evenodd" clip-rule="evenodd" d="M17.9386 2.76172H10.2616C9.73441 2.7617 9.27964 2.76169 8.90507 2.79229C8.50973 2.82459 8.11651 2.89591 7.73813 3.0887C7.17364 3.37632 6.7147 3.83526 6.42708 4.39975C6.23429 4.77813 6.16297 5.17135 6.13067 5.56669C6.10007 5.94126 6.10008 6.39603 6.1001 6.92318V14.6003C6.10008 15.1274 6.10007 15.5822 6.13067 15.9567C6.16297 16.3521 6.23429 16.7453 6.42708 17.1237C6.7147 17.6882 7.17364 18.1471 7.73813 18.4347C8.11651 18.6275 8.50973 18.6989 8.90507 18.7312C9.27961 18.7618 9.73432 18.7617 10.2614 18.7617H17.9386C18.4657 18.7617 18.9206 18.7618 19.2951 18.7312C19.6905 18.6989 20.0837 18.6275 20.4621 18.4347C21.0266 18.1471 21.4855 17.6882 21.7731 17.1237C21.9659 16.7453 22.0372 16.3521 22.0695 15.9567C22.1001 15.5822 22.1001 15.1275 22.1001 14.6004V6.9232C22.1001 6.39611 22.1001 5.94123 22.0695 5.56669C22.0372 5.17135 21.9659 4.77813 21.7731 4.39975C21.4855 3.83526 21.0266 3.37632 20.4621 3.0887C20.0837 2.89591 19.6905 2.82459 19.2951 2.79229C18.9206 2.76169 18.4658 2.7617 17.9386 2.76172ZM15.1001 16.7617H17.9001C18.4767 16.7617 18.8489 16.7609 19.1323 16.7378C19.4039 16.7156 19.5046 16.6779 19.5541 16.6527C19.7423 16.5569 19.8952 16.4039 19.9911 16.2157C20.0163 16.1663 20.054 16.0655 20.0762 15.7939C20.0993 15.5105 20.1001 15.1383 20.1001 14.5617V11.7617H15.1001V16.7617ZM20.1001 9.76172V6.96172C20.1001 6.38517 20.0993 6.01289 20.0762 5.72956C20.054 5.45789 20.0163 5.35717 19.9911 5.30773C19.8952 5.11957 19.7423 4.96659 19.5541 4.87071C19.5046 4.84552 19.4039 4.80784 19.1323 4.78565C18.8489 4.7625 18.4767 4.76172 17.9001 4.76172H10.3001C9.72355 4.76172 9.35127 4.7625 9.06793 4.78565C8.79627 4.80784 8.69555 4.84552 8.64611 4.87071C8.45795 4.96659 8.30497 5.11957 8.20909 5.30773C8.1839 5.35717 8.14622 5.45789 8.12403 5.72956C8.10088 6.01289 8.1001 6.38517 8.1001 6.96172V9.76172H20.1001ZM13.1001 11.7617V16.7617H10.3001C9.72355 16.7617 9.35127 16.7609 9.06793 16.7378C8.79627 16.7156 8.69555 16.6779 8.64611 16.6527C8.45795 16.5569 8.30497 16.4039 8.20909 16.2157C8.1839 16.1663 8.14622 16.0655 8.12403 15.7939C8.10088 15.5105 8.1001 15.1383 8.1001 14.5617V11.7617H13.1001Z" fill="currentColor"/>
  <path d="M4.1001 7.76172C4.1001 7.20943 3.65238 6.76172 3.1001 6.76172C2.54781 6.76172 2.1001 7.20943 2.1001 7.76172L2.1001 16.6834C2.10009 17.5441 2.10008 18.2504 2.14702 18.8249C2.19567 19.4204 2.29968 19.9618 2.55787 20.4685C2.96054 21.2588 3.60306 21.9013 4.39334 22.3039C4.90007 22.5621 5.44147 22.6661 6.03691 22.7148C6.61142 22.7617 7.3177 22.7617 8.17835 22.7617H17.1001C17.6524 22.7617 18.1001 22.314 18.1001 21.7617C18.1001 21.2094 17.6524 20.7617 17.1001 20.7617H8.2201C7.30751 20.7617 6.68322 20.7609 6.19978 20.7214C5.72801 20.6829 5.47911 20.6125 5.30132 20.5219C4.88736 20.311 4.55081 19.9745 4.33988 19.5605C4.2493 19.3827 4.17892 19.1338 4.14038 18.662C4.10088 18.1786 4.1001 17.5543 4.1001 16.6417V7.76172Z" fill="currentColor"/>
</svg>