<svg width="32" height="32" viewBox="0 0 16 16" fill="currentColor" xmlns="http://www.w3.org/2000/svg">
<path fill-rule="evenodd" clip-rule="evenodd" d="M8.66667 2.42109C8.53982 2.4105 8.3545 2.40881 8.00785 2.40881H5.86667C5.29628 2.40881 4.90614 2.40926 4.60405 2.43243C4.30859 2.45509 4.15443 2.49648 4.04634 2.54818C3.7917 2.66997 3.59259 2.86044 3.47057 3.08524C3.42305 3.17279 3.38143 3.30236 3.35807 3.57069C3.33392 3.84815 3.33333 4.20851 3.33333 4.74594V11.2542C3.33333 11.7916 3.33392 12.152 3.35807 12.4294C3.38143 12.6978 3.42305 12.8273 3.47057 12.9149C3.5926 13.1397 3.7917 13.3301 4.04634 13.4519C4.15443 13.5036 4.30859 13.545 4.60405 13.5677C4.90614 13.5908 5.29628 13.5913 5.86667 13.5913H7.54439V13.5888H8.02682C8.39569 13.5888 8.69472 13.8879 8.69472 14.2567C8.69472 14.6256 8.39569 14.9246 8.02682 14.9246H5.84055C5.30268 14.9246 4.86121 14.9246 4.50209 14.8971C4.13054 14.8686 3.79077 14.8077 3.47104 14.6548C2.97303 14.4166 2.56021 14.0326 2.29874 13.5509C2.12827 13.2369 2.0609 12.9028 2.02976 12.545C1.99998 12.2029 1.99999 11.7842 2 11.2829V4.71716C1.99999 4.21593 1.99998 3.79721 2.02976 3.45508C2.0609 3.0973 2.12827 2.76321 2.29874 2.44917C2.56021 1.96747 2.97303 1.58354 3.47104 1.34535C3.79077 1.19242 4.13054 1.1315 4.50209 1.103C4.86122 1.07546 5.30269 1.07547 5.84058 1.07547L8.07363 1.07546C8.49918 1.07528 8.8144 1.07516 9.11836 1.14366C9.27618 1.17922 9.43034 1.22846 9.5789 1.29078C9.58966 1.29505 9.60029 1.29959 9.61077 1.30439C9.70372 1.34478 9.7944 1.39034 9.88232 1.44091C10.1528 1.59648 10.3796 1.80956 10.6792 2.09112L12.9024 4.17796C13.1998 4.4568 13.4285 4.67133 13.5969 4.92916C13.6521 5.0138 13.7021 5.10148 13.7466 5.19173C13.7516 5.20155 13.7565 5.21151 13.7611 5.22161C13.8297 5.36569 13.8843 5.51612 13.924 5.67107C14.0005 5.97023 14.0003 6.28015 14 6.67309L14.0001 8.64721C14.0001 9.01608 13.701 9.31511 13.3322 9.31511C12.9633 9.31511 12.6642 9.01608 12.6642 8.64721V8.16478H12.6667V6.7411C12.6667 6.43964 12.6649 6.27359 12.6567 6.16356L10.3796 6.16356C10.2106 6.16357 10.0482 6.16359 9.91116 6.15308C9.76194 6.14163 9.58682 6.11482 9.40969 6.0301C9.16257 5.9119 8.95372 5.71944 8.82008 5.47324C8.72228 5.29306 8.69124 5.11352 8.67826 4.96445C8.66662 4.83066 8.66664 4.67366 8.66667 4.51723L8.66667 2.42109ZM10 3.28229V4.49562C10 4.66032 10.0005 4.75561 10.0047 4.82296L10.0131 4.82365C10.0929 4.82977 10.203 4.83022 10.4 4.83022H11.649L10 3.28229Z" />
<path fill-rule="evenodd" clip-rule="evenodd" d="M11.7726 10.7966C11.9651 10.0484 13.0277 10.0484 13.2202 10.7966C13.3246 11.202 13.7414 11.4427 14.1447 11.3303C14.8889 11.123 15.4202 12.0432 14.8685 12.584C14.5696 12.8771 14.5696 13.3584 14.8685 13.6515C15.4202 14.1923 14.8889 15.1125 14.1447 14.9052C13.7414 14.7928 13.3246 15.0335 13.2202 15.4389C13.0277 16.1871 11.9651 16.1871 11.7726 15.4389C11.6683 15.0335 11.2514 14.7928 10.8481 14.9052C10.1039 15.1125 9.57262 14.1923 10.1243 13.6515C10.4232 13.3584 10.4232 12.8771 10.1243 12.584C9.57262 12.0432 10.1039 11.123 10.8481 11.3303C11.2514 11.4427 11.6683 11.202 11.7726 10.7966ZM13.4289 13.1178C13.4289 13.6327 13.0114 14.0502 12.4964 14.0502C11.9814 14.0502 11.5639 13.6327 11.5639 13.1178C11.5639 12.6028 11.9814 12.1853 12.4964 12.1853C13.0114 12.1853 13.4289 12.6028 13.4289 13.1178Z" />
</svg>
