<svg xmlns="http://www.w3.org/2000/svg" width="16" height="16" fill="none" viewBox="0 0 16 16"><g clip-path="url(#clip0_2150_21097)"><path d="M5.40888 2.66673C4.76421 2.65853 4.13701 2.87628 3.63611 3.2822C3.13522 3.68811 2.79223 4.25657 2.66666 4.88895H0.946655V5.77784H2.66666C2.79437 6.41246 3.14042 6.98228 3.64464 7.38825C4.14886 7.79423 4.77939 8.01071 5.42665 8.00006H7.55554V2.66673H5.40888ZM6.7111 7.11117H5.40888C4.92044 7.12451 4.44624 6.94581 4.08809 6.61342C3.72995 6.28103 3.51641 5.82147 3.49332 5.33339C3.513 4.84412 3.7255 4.38251 4.08442 4.04941C4.44334 3.7163 4.91949 3.53878 5.40888 3.55562H6.7111V7.11117Z"/><path d="M15.0755 10.2222H13.3955C13.2662 9.58841 12.9198 9.01959 12.4159 8.6139C11.912 8.20822 11.2824 7.9911 10.6355 8.00002H8.44444V8.88891H6.22222C6.10434 8.88891 5.9913 8.93573 5.90795 9.01908C5.8246 9.10243 5.77777 9.21548 5.77777 9.33335C5.77777 9.45123 5.8246 9.56427 5.90795 9.64762C5.9913 9.73097 6.10434 9.7778 6.22222 9.7778H8.44444V11.5556H6.22222C6.10434 11.5556 5.9913 11.6024 5.90795 11.6858C5.8246 11.7691 5.77777 11.8821 5.77777 12C5.77777 12.1179 5.8246 12.2309 5.90795 12.3143C5.9913 12.3976 6.10434 12.4445 6.22222 12.4445H8.44444V13.3334H10.64C11.288 13.345 11.9196 13.1291 12.4247 12.723C12.9299 12.3169 13.2766 11.7465 13.4044 11.1111H15.0755V10.2222ZM10.6311 12.4445H9.33333V8.88891H10.64C11.1294 8.87207 11.6055 9.0496 11.9645 9.3827C12.3234 9.7158 12.5359 10.1774 12.5555 10.6667C12.5359 11.156 12.3234 11.6176 11.9645 11.9507C11.6055 12.2838 11.1294 12.4613 10.64 12.4445H10.6311Z"/></g><defs><clipPath id="clip0_2150_21097"><rect width="16" height="16" fill="#fff"/></clipPath></defs></svg>