<svg xmlns="http://www.w3.org/2000/svg"   viewBox="0 0 20 20" fill="none">
  <path fill-rule="evenodd" clip-rule="evenodd" d="M7.5847 13.9377L12.6633 11.0838C13.4324 10.6516 13.9087 10.382 14.2331 10.159C14.3395 10.0858 14.4057 10.033 14.4441 9.99996C14.4057 9.96691 14.3395 9.91415 14.2331 9.84093C13.9087 9.61789 13.4324 9.34833 12.6633 8.91612L7.5847 6.06222C6.81588 5.63018 6.33748 5.3632 5.97609 5.20099C5.82602 5.13362 5.73587 5.10359 5.69125 5.09067C5.66592 5.09843 5.64384 5.10962 5.62534 5.12262C5.61577 5.169 5.60259 5.24756 5.59112 5.36921C5.55534 5.74884 5.55358 6.27983 5.55358 7.14606L5.55357 12.8539C5.55357 13.7201 5.55534 14.2511 5.59112 14.6307C5.60259 14.7524 5.61577 14.8309 5.62535 14.8773C5.64384 14.8903 5.66592 14.9015 5.69125 14.9092C5.73586 14.8963 5.82602 14.8663 5.97609 14.7989C6.33748 14.6367 6.81588 14.3697 7.5847 13.9377ZM15.9505 9.25531C15.7019 8.71189 14.9612 8.29564 13.4798 7.46316L8.40119 4.60925C6.91977 3.77677 6.17906 3.36052 5.57125 3.4227C5.04109 3.47694 4.55947 3.74758 4.24614 4.16735C3.88691 4.6486 3.88691 5.48109 3.88691 7.14606L3.88691 12.8539C3.88691 14.5188 3.88691 15.3513 4.24614 15.8326C4.55947 16.2523 5.04109 16.523 5.57125 16.5772C6.17906 16.6394 6.91977 16.2231 8.4012 15.3907L13.4798 12.5368C14.9612 11.7043 15.7019 11.288 15.9505 10.7446C16.1673 10.2706 16.1673 9.72932 15.9505 9.25531Z" fill="currentColor"/>
</svg>