<svg width="32" height="32" viewBox="0 0 32 32" fill="none" xmlns="http://www.w3.org/2000/svg">
<path fill-rule="evenodd" clip-rule="evenodd" d="M29.2148 12.0677C29.2148 12.0677 28.6995 9.58453 25.9938 9.14467C25.9938 9.14467 24.6927 3.59771 19.7905 5.72493C19.7905 5.72493 16.2108 0.644131 12.4057 5.72493C12.4057 5.72493 7.86728 3.32987 5.9842 9.15321C5.9842 9.15321 2.69285 9.23727 2.6661 13.7354C2.63934 18.2337 9.1215 23.099 10.0463 23.5236C10.0463 23.5236 8.01137 25.7314 10.5042 27.2645C13.9553 29.073 20.476 28.4146 22.0645 26.9967C23.0494 26.1177 22.9725 24.7673 22.0645 23.6575C22.0607 23.6613 30.4147 18.7462 29.2148 12.0677ZM23.712 8.36933C22.4554 6.3273 19.9958 7.67677 19.9958 7.67677C20.914 15.1024 17.9998 22.3608 17.9998 22.3608C20.7622 21.4962 25.2276 10.8324 23.712 8.36933ZM15.767 5.46174C15.767 5.46174 13.7625 5.58818 13.4243 8.3367C13.0861 11.0853 13.8888 21.7572 16.0319 22.528C16.0319 22.528 17.5434 22.9235 18.5824 13.5769C19.9555 4.49736 15.767 5.46174 15.767 5.46174ZM12.0325 7.67677C12.0325 7.67677 9.895 6.18307 8.36398 8.36933C6.85241 10.8324 11.3179 21.4962 14.0762 22.3608C14.0762 22.3608 11.2102 15.8776 12.0325 7.67677ZM6.38202 11.0065C6.38202 11.0065 4.29424 11.0065 4.51782 13.9153C4.79896 17.5733 9.47049 21.4548 11.2102 22.0991C11.2061 22.0991 7.29558 16.6298 6.38202 11.0065ZM11.1305 26.0106C11.7132 27.0338 18.4178 27.3427 21.0294 26.1886C21.0294 26.1886 21.8495 25.3557 20.5951 23.6953C20.5503 23.636 20.096 23.6798 19.8754 23.6673C19.6548 23.6548 19.4381 23.6011 19.1813 23.5485C19.1813 23.5485 18.374 24.1271 17.0993 23.6953C17.0993 23.6953 16.1985 24.1987 15.1477 23.6953C15.1477 23.6953 13.8474 24.1392 13.0658 23.5485C13.0658 23.5485 12.5168 23.6981 11.7113 23.5485C11.7113 23.5485 10.5647 25.017 11.1305 26.0106ZM25.6794 11.0125C24.6785 17.2496 20.914 22.1043 20.914 22.1043C23.1904 21.6221 27.0655 16.8242 27.5663 13.9153C28.067 11.0065 25.6794 11.0125 25.6794 11.0125Z" fill="#24282C"/>
</svg>
