<svg xmlns="http://www.w3.org/2000/svg"   viewBox="0 0 16 16" fill="none">
  <path fill-rule="evenodd" clip-rule="evenodd" d="M3.68105 2.24439L3.98995 2.24439C4.67167 2.24438 5.22606 2.24437 5.67596 2.28113C6.14065 2.3191 6.55567 2.39977 6.94182 2.59652C7.35423 2.80665 7.71433 3.1017 8 3.45954C8.28567 3.1017 8.64576 2.80665 9.05817 2.59652C9.44432 2.39977 9.85934 2.3191 10.324 2.28113C10.7739 2.24437 11.3283 2.24438 12.01 2.24439L12.3189 2.24439C12.6497 2.24437 12.9395 2.24436 13.179 2.26393C13.4332 2.2847 13.6923 2.33097 13.9435 2.45892C14.3138 2.64763 14.6149 2.94875 14.8036 3.31911C14.9316 3.57024 14.9779 3.82936 14.9986 4.08353C15.0182 4.32307 15.0182 4.61281 15.0182 4.94361V11.0566C15.0182 11.3874 15.0182 11.6771 14.9986 11.9167C14.9779 12.1708 14.9316 12.43 14.8036 12.6811C14.6149 13.0515 14.3138 13.3526 13.9435 13.5413C13.6923 13.6692 13.4332 13.7155 13.179 13.7363C12.9395 13.7559 12.6497 13.7558 12.3189 13.7558H3.68107C3.35026 13.7558 3.0605 13.7559 2.82096 13.7363C2.56679 13.7155 2.30766 13.6692 2.05654 13.5413C1.68618 13.3526 1.38506 13.0515 1.19635 12.6811C1.0684 12.43 1.02212 12.1708 1.00136 11.9167C0.981786 11.6771 0.981798 11.3874 0.981812 11.0566V4.94363C0.981798 4.61282 0.981786 4.32307 1.00136 4.08353C1.02212 3.82936 1.0684 3.57024 1.19635 3.31911C1.38506 2.94875 1.68618 2.64763 2.05654 2.45892C2.30766 2.33097 2.56679 2.2847 2.82096 2.26393C3.0605 2.24436 3.35025 2.24437 3.68105 2.24439ZM7.29413 6.99014C7.29413 6.27144 7.29358 5.77488 7.26207 5.38925C7.23124 5.01187 7.17431 4.80331 7.09586 4.64935C6.92146 4.30707 6.64318 4.02879 6.3009 3.85439C6.14694 3.77595 5.93839 3.71902 5.561 3.68818C5.17538 3.65668 4.67881 3.65613 3.96012 3.65613H3.70762C3.34245 3.65613 3.11103 3.65668 2.93592 3.67098C2.76906 3.68462 2.71639 3.70715 2.69746 3.71679C2.59273 3.77016 2.50758 3.8553 2.45422 3.96003C2.44457 3.97897 2.42204 4.03163 2.40841 4.19849C2.3941 4.3736 2.39356 4.60503 2.39356 4.9702V11.03C2.39356 11.3952 2.3941 11.6266 2.40841 11.8017C2.42204 11.9686 2.44457 12.0212 2.45422 12.0402C2.50758 12.1449 2.59273 12.2301 2.69746 12.2834C2.71639 12.2931 2.76906 12.3156 2.93592 12.3292C3.11103 12.3435 3.34245 12.3441 3.70762 12.3441H7.29413V6.99014ZM8.70587 12.3441V6.99014C8.70587 6.27144 8.70642 5.77488 8.73792 5.38925C8.76876 5.01187 8.82568 4.80331 8.90413 4.64935C9.07853 4.30707 9.35681 4.02879 9.69909 3.85439C9.85305 3.77595 10.0616 3.71902 10.439 3.68818C10.8246 3.65668 11.3212 3.65613 12.0399 3.65613H12.2924C12.6575 3.65613 12.889 3.65668 13.0641 3.67098C13.2309 3.68462 13.2836 3.70715 13.3025 3.71679C13.4073 3.77016 13.4924 3.8553 13.5458 3.96003C13.5554 3.97897 13.5779 4.03163 13.5916 4.19849C13.6059 4.3736 13.6064 4.60503 13.6064 4.9702V11.03C13.6064 11.3952 13.6059 11.6266 13.5916 11.8017C13.5779 11.9686 13.5554 12.0212 13.5458 12.0402C13.4924 12.1449 13.4073 12.2301 13.3025 12.2834C13.2836 12.2931 13.2309 12.3156 13.0641 12.3292C12.889 12.3435 12.6575 12.3441 12.2924 12.3441H8.70587Z" fill="currentColor"/>
</svg>