<svg xmlns="http://www.w3.org/2000/svg" viewBox="0 0 16 17" fill="currentColor">
  <g clip-path="url(#clip0_4406_7082)">
    <path fill-rule="evenodd" clip-rule="evenodd" d="M8.66667 3.40619C8.53982 3.39561 8.3545 3.39391 8.00785 3.39391H5.86667C5.29628 3.39391 4.90614 3.39437 4.60405 3.41754C4.30859 3.4402 4.15443 3.48159 4.04634 3.53329C3.7917 3.65508 3.59259 3.84555 3.47057 4.07035C3.42305 4.1579 3.38143 4.28747 3.35807 4.5558C3.33392 4.83325 3.33333 5.19362 3.33333 5.73105V12.2393C3.33333 12.7767 3.33392 13.1371 3.35807 13.4145C3.38143 13.6829 3.42305 13.8124 3.47057 13.9C3.5926 14.1248 3.7917 14.3152 4.04634 14.437C4.15443 14.4887 4.30859 14.5301 4.60405 14.5528C4.90614 14.576 5.29628 14.5764 5.86667 14.5764H7.54439V14.5739H8.02682C8.39569 14.5739 8.69472 14.873 8.69472 15.2418C8.69472 15.6107 8.39569 15.9097 8.02682 15.9097H5.84055C5.30268 15.9098 4.86121 15.9098 4.50209 15.8822C4.13054 15.8537 3.79077 15.7928 3.47104 15.6399C2.97303 15.4017 2.56021 15.0177 2.29874 14.5361C2.12827 14.222 2.0609 13.8879 2.02976 13.5301C1.99998 13.188 1.99999 12.7693 2 12.268V5.70227C1.99999 5.20104 1.99998 4.78231 2.02976 4.44018C2.0609 4.08241 2.12827 3.74832 2.29874 3.43427C2.56021 2.95258 2.97303 2.56864 3.47104 2.33045C3.79077 2.17753 4.13054 2.11661 4.50209 2.08811C4.86122 2.06057 5.30269 2.06057 5.84058 2.06058L8.07363 2.06056C8.49918 2.06039 8.8144 2.06026 9.11836 2.12876C9.27618 2.16433 9.43034 2.21357 9.5789 2.27589C9.58966 2.28016 9.60029 2.2847 9.61077 2.2895C9.70372 2.32989 9.7944 2.37544 9.88232 2.42602C10.1528 2.58159 10.3796 2.79467 10.6792 3.07623L12.9024 5.16306C13.1998 5.44191 13.4285 5.65643 13.5969 5.91427C13.6521 5.99891 13.7021 6.08658 13.7466 6.17683C13.7516 6.18666 13.7565 6.19662 13.7611 6.20672C13.8297 6.3508 13.8843 6.50123 13.924 6.65618C14.0005 6.95534 14.0003 7.26526 14 7.65819L14.0001 9.63231C14.0001 10.0012 13.701 10.3002 13.3322 10.3002C12.9633 10.3002 12.6642 10.0012 12.6642 9.63231V9.14989H12.6667V7.72621C12.6667 7.42475 12.6649 7.2587 12.6567 7.14866L10.3796 7.14867C10.2106 7.14868 10.0482 7.1487 9.91116 7.13819C9.76194 7.12674 9.58682 7.09992 9.40969 7.01521C9.16257 6.89701 8.95372 6.70454 8.82008 6.45835C8.72228 6.27817 8.69124 6.09863 8.67826 5.94956C8.66662 5.81576 8.66664 5.65877 8.66667 5.50233L8.66667 3.40619ZM10 4.2674V5.48073C10 5.64543 10.0005 5.74071 10.0047 5.80807L10.0131 5.80876C10.0929 5.81487 10.203 5.81533 10.4 5.81533H11.649L10 4.2674Z" fill="currentColor"/>
    <path fill-rule="evenodd" clip-rule="evenodd" d="M11.7726 11.7817C11.9651 11.0335 13.0277 11.0335 13.2202 11.7817C13.3246 12.1871 13.7414 12.4278 14.1447 12.3154C14.8889 12.1081 15.4202 13.0283 14.8685 13.5691C14.5696 13.8622 14.5696 14.3435 14.8685 14.6366C15.4202 15.1774 14.8889 16.0976 14.1447 15.8903C13.7414 15.7779 13.3246 16.0186 13.2202 16.424C13.0277 17.1722 11.9651 17.1722 11.7726 16.424C11.6683 16.0186 11.2514 15.7779 10.8481 15.8903C10.1039 16.0976 9.57262 15.1774 10.1243 14.6366C10.4232 14.3435 10.4232 13.8622 10.1243 13.5691C9.57262 13.0283 10.1039 12.1081 10.8481 12.3154C11.2514 12.4278 11.6683 12.1871 11.7726 11.7817ZM13.4289 14.1029C13.4289 14.6178 13.0114 15.0353 12.4964 15.0353C11.9814 15.0353 11.5639 14.6178 11.5639 14.1029C11.5639 13.5879 11.9814 13.1704 12.4964 13.1704C13.0114 13.1704 13.4289 13.5879 13.4289 14.1029Z" fill="currentColor"/>
  </g>
  <defs>
    <clipPath id="clip0_4406_7082">
      <rect width="16" height="16" fill="white" transform="translate(0 0.984375)"/>
    </clipPath>
  </defs>
</svg>