<svg xmlns="http://www.w3.org/2000/svg"  viewBox="0 0 11 12" fill="currentColor">
  <path fill-rule="evenodd" clip-rule="evenodd" d="M5.71399 1.9176C3.45935 1.9176 1.63159 3.74536 1.63159 6C1.63159 8.25465 3.45935 10.0824 5.71399 10.0824C7.96864 10.0824 9.79639 8.25465 9.79639 6C9.79639 3.74536 7.96864 1.9176 5.71399 1.9176ZM0.631592 6C0.631592 3.19307 2.90706 0.917603 5.71399 0.917603C8.52093 0.917603 10.7964 3.19307 10.7964 6C10.7964 8.80694 8.52093 11.0824 5.71399 11.0824C2.90706 11.0824 0.631592 8.80694 0.631592 6ZM5.82521 4.21935C5.62161 4.18442 5.41222 4.22268 5.23413 4.32735C5.05604 4.43202 4.92073 4.59634 4.85218 4.79121C4.76055 5.0517 4.47509 5.18859 4.21459 5.09695C3.9541 5.00531 3.81721 4.71986 3.90885 4.45936C4.05577 4.04172 4.34575 3.68954 4.72745 3.46522C5.10914 3.24089 5.55791 3.15889 5.99427 3.23374C6.43063 3.30859 6.82642 3.53545 7.11154 3.87415C7.3966 4.21278 7.55265 4.64135 7.55205 5.08398C7.55183 5.8074 7.01585 6.28139 6.64204 6.53059C6.43989 6.66536 6.24129 6.7643 6.0952 6.82923C6.02145 6.86201 5.95929 6.88691 5.9144 6.90401C5.89191 6.91257 5.87364 6.91923 5.86028 6.92398L5.84396 6.9297L5.8387 6.93149L5.83682 6.93213L5.83607 6.93238C5.83592 6.93243 5.83545 6.93259 5.67733 6.45824L5.83545 6.93259C5.57348 7.01991 5.29032 6.87833 5.20299 6.61636C5.1157 6.35447 5.25715 6.07142 5.51896 5.98399L5.52527 5.98177C5.53204 5.97936 5.5433 5.97527 5.55841 5.96952C5.5887 5.95798 5.63394 5.93992 5.68906 5.91542C5.80074 5.86579 5.94582 5.79289 6.08734 5.69854C6.40082 5.48955 6.55205 5.27633 6.55205 5.08352L6.55205 5.08278C6.55236 4.87621 6.47955 4.67619 6.34652 4.51815C6.21348 4.36012 6.02881 4.25427 5.82521 4.21935ZM5.21399 8.2912C5.21399 8.01506 5.43785 7.7912 5.71399 7.7912H5.71858C5.99472 7.7912 6.21858 8.01506 6.21858 8.2912C6.21858 8.56735 5.99472 8.7912 5.71858 8.7912H5.71399C5.43785 8.7912 5.21399 8.56735 5.21399 8.2912Z" fill="currentColor"  />
</svg>