<svg xmlns="http://www.w3.org/2000/svg"   viewBox="0 0 16 17" fill="currentColor">
  <path d="M4.67409 2.53079C4.67409 2.41347 4.57898 2.31836 4.46166 2.31836C2.7708 2.31836 1.40008 3.68907 1.40008 5.37994V12.5901C1.40008 14.281 2.7708 15.6517 4.46166 15.6517H11.6718C13.3627 15.6517 14.7334 14.281 14.7334 12.5901V5.37994C14.7334 3.68907 13.3627 2.31836 11.6718 2.31836H10.1347C9.76652 2.31836 9.46805 2.61684 9.46805 2.98503C9.46805 3.35322 9.76652 3.65169 10.1347 3.65169H11.6718C12.6263 3.65169 13.4001 4.42545 13.4001 5.37994V12.5901C13.4001 13.5446 12.6263 14.3184 11.6718 14.3184H4.46166C3.50718 14.3184 2.73342 13.5446 2.73342 12.5901V5.37994C2.73342 4.42545 3.50718 3.65169 4.46166 3.65169C4.57898 3.65169 4.67409 3.55658 4.67409 3.43926V2.53079Z" fill="currentColor"/>
  <path d="M7.44962 5.7444C7.34372 5.00285 7.12189 4.53721 6.74901 4.274C5.86148 3.64752 5.2027 3.65171 5.1058 3.65233L5.09938 3.65236H4.43271V2.31903H5.09938C5.33411 2.31903 6.30675 2.32978 7.51791 3.1847C8.33663 3.76262 8.64408 4.67728 8.76956 5.5559C8.8719 6.2725 8.86619 7.07793 8.86093 7.82C8.8598 7.98032 8.85868 8.1377 8.85868 8.29057C8.85868 8.72265 8.84943 9.1285 8.83577 9.4923L9.39682 8.93125C9.65717 8.6709 10.0793 8.6709 10.3396 8.93125C10.6 9.1916 10.6 9.61371 10.3396 9.87406L8.58251 11.6312C8.44105 11.7726 8.25184 11.8372 8.06677 11.825C7.88169 11.8372 7.69248 11.7726 7.55102 11.6312L5.7939 9.87406C5.53355 9.61371 5.53355 9.1916 5.7939 8.93125C6.05425 8.6709 6.47636 8.6709 6.73671 8.93125L7.41141 9.60595L7.49322 9.68776C7.51168 9.2798 7.52535 8.8042 7.52535 8.29057C7.52535 8.11426 7.52644 7.94086 7.52752 7.77055C7.53219 7.0327 7.53649 6.35274 7.44962 5.7444Z" fill="currentColor"/>
</svg>