
<svg width="17" height="16" viewBox="0 0 17 16" fill="none" xmlns="http://www.w3.org/2000/svg">
<path d="M8.21879 1.33301C6.90025 1.33301 5.61132 1.724 4.51499 2.45654C3.41866 3.18909 2.56418 4.23028 2.0596 5.44845C1.55501 6.66663 1.42299 8.00707 1.68023 9.30028C1.93746 10.5935 2.5724 11.7814 3.50475 12.7137C4.4371 13.6461 5.62499 14.281 6.91819 14.5382C8.2114 14.7955 9.55184 14.6635 10.77 14.1589C11.9882 13.6543 13.0294 12.7998 13.7619 11.7035C14.4945 10.6071 14.8855 9.31822 14.8855 7.99967C14.8835 6.23216 14.1805 4.5376 12.9307 3.28777C11.6809 2.03795 9.98631 1.33495 8.21879 1.33301ZM8.21879 13.333C7.16396 13.333 6.13281 13.0202 5.25575 12.4342C4.37869 11.8481 3.6951 11.0152 3.29144 10.0407C2.88777 9.06611 2.78215 7.99376 2.98794 6.95919C3.19373 5.92463 3.70168 4.97432 4.44756 4.22844C5.19344 3.48256 6.14375 2.97461 7.17831 2.76882C8.21288 2.56303 9.28523 2.66865 10.2598 3.07232C11.2343 3.47598 12.0673 4.15957 12.6533 5.03663C13.2393 5.91369 13.5521 6.94484 13.5521 7.99967C13.5504 9.41362 12.9879 10.7691 11.9881 11.769C10.9883 12.7688 9.63274 13.3312 8.21879 13.333ZM8.21879 7.66634C8.04198 7.66634 7.87241 7.73658 7.74739 7.8616C7.62237 7.98663 7.55213 8.1562 7.55213 8.33301V10.333C7.55213 10.5098 7.62237 10.6794 7.74739 10.8044C7.87241 10.9294 8.04198 10.9997 8.21879 10.9997C8.39561 10.9997 8.56517 10.9294 8.6902 10.8044C8.81522 10.6794 8.88546 10.5098 8.88546 10.333V8.33301C8.88546 8.1562 8.81522 7.98663 8.6902 7.8616C8.56517 7.73658 8.39561 7.66634 8.21879 7.66634ZM8.21879 4.99967C8.05398 4.99967 7.89286 5.04855 7.75582 5.14012C7.61878 5.23168 7.51197 5.36183 7.44889 5.5141C7.38582 5.66638 7.36932 5.83393 7.40147 5.99558C7.43363 6.15723 7.51299 6.30572 7.62954 6.42226C7.74608 6.53881 7.89457 6.61817 8.05622 6.65033C8.21787 6.68248 8.38543 6.66598 8.5377 6.60291C8.68997 6.53983 8.82012 6.43302 8.91169 6.29598C9.00325 6.15894 9.05213 5.99783 9.05213 5.83301C9.05213 5.61199 8.96433 5.40003 8.80805 5.24375C8.65177 5.08747 8.43981 4.99967 8.21879 4.99967Z" fill="#48A7EC"/>
</svg>
