<svg xmlns="http://www.w3.org/2000/svg"  viewBox="0 0 16 17" fill="currentColor">
  <path d="M2.06675 6.98373C1.87787 6.98373 1.71942 6.91973 1.59142 6.79173C1.46342 6.66373 1.39964 6.5055 1.40009 6.31706V4.98373C1.40009 4.61706 1.53075 4.30306 1.79209 4.04173C2.05342 3.78039 2.3672 3.64995 2.73342 3.65039H13.4001C13.7668 3.65039 14.0808 3.78106 14.3421 4.04239C14.6034 4.30372 14.7339 4.6175 14.7334 4.98373V6.31706C14.7334 6.50595 14.6694 6.66439 14.5414 6.79239C14.4134 6.92039 14.2552 6.98417 14.0668 6.98373C13.8779 6.98373 13.7194 6.91973 13.5914 6.79173C13.4634 6.66373 13.3996 6.5055 13.4001 6.31706V4.98373H2.73342V6.31706C2.73342 6.50595 2.66942 6.66439 2.54142 6.79239C2.41342 6.92039 2.2552 6.98417 2.06675 6.98373ZM2.73342 14.3171C2.36675 14.3171 2.05275 14.1864 1.79142 13.9251C1.53009 13.6637 1.39964 13.3499 1.40009 12.9837V11.6504C1.40009 11.4615 1.46409 11.3031 1.59209 11.1751C1.72009 11.0471 1.87831 10.9833 2.06675 10.9837C2.25564 10.9837 2.41409 11.0477 2.54209 11.1757C2.67009 11.3037 2.73387 11.4619 2.73342 11.6504V12.9837H13.4001V11.6504C13.4001 11.4615 13.4641 11.3031 13.5921 11.1751C13.7201 11.0471 13.8783 10.9833 14.0668 10.9837C14.2556 10.9837 14.4141 11.0477 14.5421 11.1757C14.6701 11.3037 14.7339 11.4619 14.7334 11.6504V12.9837C14.7334 13.3504 14.6028 13.6644 14.3414 13.9257C14.0801 14.1871 13.7663 14.3175 13.4001 14.3171H2.73342ZM6.73342 12.3171C6.85564 12.3171 6.97231 12.2864 7.08342 12.2251C7.19453 12.1637 7.27787 12.0722 7.33342 11.9504L9.40009 7.81706L10.1334 9.28373C10.189 9.40595 10.2723 9.49773 10.3834 9.55906C10.4945 9.62039 10.6112 9.65084 10.7334 9.65039H14.0668C14.2556 9.65039 14.4141 9.58639 14.5421 9.45839C14.6701 9.33039 14.7339 9.17217 14.7334 8.98373C14.7334 8.79484 14.6694 8.63639 14.5414 8.50839C14.4134 8.38039 14.2552 8.31661 14.0668 8.31706H11.1501L10.0001 6.01706C9.87787 5.79484 9.67787 5.68373 9.40009 5.68373C9.12231 5.68373 8.92231 5.79484 8.80009 6.01706L6.73342 10.1504L6.00009 8.68373C5.94453 8.5615 5.8612 8.46973 5.75009 8.40839C5.63898 8.34706 5.52231 8.31661 5.40009 8.31706H2.06675C1.87787 8.31706 1.71942 8.38106 1.59142 8.50906C1.46342 8.63706 1.39964 8.79528 1.40009 8.98373C1.40009 9.17261 1.46409 9.33106 1.59209 9.45906C1.72009 9.58706 1.87831 9.65084 2.06675 9.65039H4.98342L6.13342 11.9504C6.18898 12.0726 6.27231 12.1644 6.38342 12.2257C6.49453 12.2871 6.6112 12.3175 6.73342 12.3171Z" fill="currentColor"/>
</svg>