<svg xmlns="http://www.w3.org/2000/svg"   viewBox="0 0 16 16" fill="currentColor">
  <path d="M4.17609 5.78746C4.72837 5.78746 5.17609 5.33974 5.17609 4.78746C5.17609 4.23517 4.72837 3.78746 4.17609 3.78746C3.6238 3.78746 3.17609 4.23517 3.17609 4.78746C3.17609 5.33974 3.6238 5.78746 4.17609 5.78746Z" fill="currentColor"/>
  <path fill-rule="evenodd" clip-rule="evenodd" d="M1.34668 3.82746C1.34668 3.23007 1.34668 2.93137 1.46294 2.7032C1.5652 2.50249 1.72838 2.33931 1.92909 2.23705C2.15726 2.12079 2.45596 2.12079 3.05335 2.12079H13.0266C13.624 2.12079 13.9227 2.12079 14.1509 2.23705C14.3516 2.33931 14.5148 2.50249 14.617 2.7032C14.7333 2.93137 14.7333 3.23007 14.7333 3.82746V5.74746C14.7333 6.34484 14.7333 6.64354 14.617 6.87171C14.5148 7.07242 14.3516 7.2356 14.1509 7.33786C13.9227 7.45412 13.624 7.45412 13.0266 7.45412H3.05334C2.45596 7.45412 2.15726 7.45412 1.92909 7.33786C1.72838 7.2356 1.5652 7.07242 1.46294 6.87171C1.34668 6.64354 1.34668 6.34484 1.34668 5.74746V3.82746ZM3.05335 3.45412H13.0266C13.1776 3.45412 13.2961 3.45415 13.3984 3.45573C13.3999 3.55802 13.4 3.6765 13.4 3.82746V5.74746C13.4 5.89841 13.3999 6.01689 13.3984 6.11918C13.2961 6.12075 13.1776 6.12079 13.0266 6.12079H3.05334C2.90239 6.12079 2.78391 6.12076 2.68162 6.11918C2.68005 6.01689 2.68001 5.89841 2.68001 5.74746V3.82746C2.68001 3.6765 2.68005 3.55802 2.68162 3.45573C2.78391 3.45415 2.90239 3.45412 3.05335 3.45412Z" fill="currentColor"/>
  <path d="M4.17609 12.2125C4.72837 12.2125 5.17609 11.7648 5.17609 11.2125C5.17609 10.6602 4.72837 10.2125 4.17609 10.2125C3.6238 10.2125 3.17609 10.6602 3.17609 11.2125C3.17609 11.7648 3.6238 12.2125 4.17609 12.2125Z" fill="currentColor"/>
  <path fill-rule="evenodd" clip-rule="evenodd" d="M1.34668 10.2525C1.34668 9.65514 1.34668 9.35645 1.46294 9.12827C1.5652 8.92757 1.72838 8.76439 1.92909 8.66212C2.15726 8.54586 2.45596 8.54586 3.05335 8.54586H13.0266C13.624 8.54586 13.9227 8.54586 14.1509 8.66212C14.3516 8.76439 14.5148 8.92757 14.617 9.12827C14.7333 9.35645 14.7333 9.65514 14.7333 10.2525V12.1725C14.7333 12.7699 14.7333 13.0686 14.617 13.2968C14.5148 13.4975 14.3516 13.6607 14.1509 13.7629C13.9227 13.8792 13.624 13.8792 13.0266 13.8792H3.05334C2.45596 13.8792 2.15726 13.8792 1.92909 13.7629C1.72838 13.6607 1.5652 13.4975 1.46294 13.2968C1.34668 13.0686 1.34668 12.7699 1.34668 12.1725V10.2525ZM3.05335 9.8792H13.0266C13.1776 9.8792 13.2961 9.87923 13.3984 9.8808C13.3999 9.98309 13.4 10.1016 13.4 10.2525V12.1725C13.4 12.3235 13.3999 12.442 13.3984 12.5443C13.2961 12.5458 13.1776 12.5459 13.0266 12.5459H3.05334C2.90239 12.5459 2.78391 12.5458 2.68162 12.5443C2.68005 12.442 2.68001 12.3235 2.68001 12.1725V10.2525C2.68001 10.1016 2.68005 9.98309 2.68162 9.8808C2.78391 9.87923 2.90239 9.8792 3.05335 9.8792Z" fill="currentColor"/>
</svg>