<svg xmlns="http://www.w3.org/2000/svg"  viewBox="0 0 17 16" fill="none">
  <path d="M4.67621 5.78752C5.2285 5.78752 5.67621 5.3398 5.67621 4.78752C5.67621 4.23523 5.2285 3.78752 4.67621 3.78752C4.12393 3.78752 3.67621 4.23523 3.67621 4.78752C3.67621 5.3398 4.12393 5.78752 4.67621 5.78752Z" fill="currentColor"/>
  <path fill-rule="evenodd" clip-rule="evenodd" d="M1.8468 3.82752C1.8468 3.23013 1.8468 2.93143 1.96306 2.70326C2.06533 2.50255 2.22851 2.33937 2.42921 2.23711C2.65738 2.12085 2.95608 2.12085 3.55347 2.12085H13.5268C14.1241 2.12085 14.4228 2.12085 14.651 2.23711C14.8517 2.33937 15.0149 2.50255 15.1172 2.70326C15.2334 2.93143 15.2334 3.23013 15.2334 3.82752V5.74752C15.2334 6.34491 15.2334 6.6436 15.1172 6.87177C15.0149 7.07248 14.8517 7.23566 14.651 7.33792C14.4228 7.45418 14.1241 7.45418 13.5268 7.45418H3.55347C2.95608 7.45418 2.65738 7.45418 2.42921 7.33792C2.22851 7.23566 2.06533 7.07248 1.96306 6.87177C1.8468 6.6436 1.8468 6.34491 1.8468 5.74752V3.82752ZM3.55347 3.45418H13.5268C13.6777 3.45418 13.7962 3.45422 13.8985 3.45579C13.9001 3.55808 13.9001 3.67656 13.9001 3.82752V5.74752C13.9001 5.89847 13.9001 6.01695 13.8985 6.11924C13.7962 6.12082 13.6777 6.12085 13.5268 6.12085H3.55347C3.40251 6.12085 3.28403 6.12082 3.18174 6.11924C3.18017 6.01695 3.18014 5.89847 3.18014 5.74752V3.82752C3.18014 3.67656 3.18017 3.55808 3.18174 3.45579C3.28403 3.45422 3.40252 3.45418 3.55347 3.45418Z" fill="currentColor"/>
  <path d="M4.67621 12.2126C5.2285 12.2126 5.67621 11.7649 5.67621 11.2126C5.67621 10.6603 5.2285 10.2126 4.67621 10.2126C4.12393 10.2126 3.67621 10.6603 3.67621 11.2126C3.67621 11.7649 4.12393 12.2126 4.67621 12.2126Z" fill="currentColor"/>
  <path fill-rule="evenodd" clip-rule="evenodd" d="M1.8468 10.2526C1.8468 9.6552 1.8468 9.35651 1.96306 9.12833C2.06533 8.92763 2.22851 8.76445 2.42921 8.66218C2.65738 8.54592 2.95608 8.54592 3.55347 8.54592H13.5268C14.1241 8.54592 14.4228 8.54592 14.651 8.66218C14.8517 8.76445 15.0149 8.92763 15.1172 9.12833C15.2334 9.35651 15.2334 9.6552 15.2334 10.2526V12.1726C15.2334 12.77 15.2334 13.0687 15.1172 13.2968C15.0149 13.4976 14.8517 13.6607 14.651 13.763C14.4228 13.8793 14.1241 13.8793 13.5268 13.8793H3.55347C2.95608 13.8793 2.65738 13.8793 2.42921 13.763C2.22851 13.6607 2.06533 13.4976 1.96306 13.2968C1.8468 13.0687 1.8468 12.77 1.8468 12.1726V10.2526ZM3.55347 9.87926H13.5268C13.6777 9.87926 13.7962 9.87929 13.8985 9.88086C13.9001 9.98315 13.9001 10.1016 13.9001 10.2526V12.1726C13.9001 12.3235 13.9001 12.442 13.8985 12.5443C13.7962 12.5459 13.6777 12.5459 13.5268 12.5459H3.55347C3.40251 12.5459 3.28403 12.5459 3.18174 12.5443C3.18017 12.442 3.18014 12.3235 3.18014 12.1726V10.2526C3.18014 10.1016 3.18017 9.98315 3.18174 9.88086C3.28403 9.87929 3.40252 9.87926 3.55347 9.87926Z" fill="currentColor"/>
</svg>