<svg width="20" height="21" viewBox="0 0 20 21" fill="none" xmlns="http://www.w3.org/2000/svg">
<path fill-rule="evenodd" clip-rule="evenodd" d="M3 0.761719C3.55228 0.761719 4 1.20943 4 1.76172V5.76172C4 6.314 3.55228 6.76172 3 6.76172C2.44772 6.76172 2 6.314 2 5.76172V1.76172C2 1.20943 2.44772 0.761719 3 0.761719ZM10 0.761719C10.5523 0.761719 11 1.20943 11 1.76172V4.93242C12.1652 5.34426 13 6.4555 13 7.76172C13 9.41857 11.6569 10.7617 10 10.7617C8.34315 10.7617 7 9.41857 7 7.76172C7 6.4555 7.83481 5.34426 9 4.93242V1.76172C9 1.20943 9.44771 0.761719 10 0.761719ZM17 0.761719C17.5523 0.761719 18 1.20943 18 1.76172V7.76172C18 8.314 17.5523 8.76172 17 8.76172C16.4477 8.76172 16 8.314 16 7.76172V1.76172C16 1.20943 16.4477 0.761719 17 0.761719ZM10 6.76172C9.44772 6.76172 9 7.20943 9 7.76172C9 8.314 9.44771 8.76172 10 8.76172C10.5523 8.76172 11 8.314 11 7.76172C11 7.20943 10.5523 6.76172 10 6.76172ZM3 10.7617C2.44772 10.7617 2 11.2094 2 11.7617C2 12.314 2.44772 12.7617 3 12.7617C3.55228 12.7617 4 12.314 4 11.7617C4 11.2094 3.55228 10.7617 3 10.7617ZM0 11.7617C0 10.1049 1.34315 8.76172 3 8.76172C4.65685 8.76172 6 10.1049 6 11.7617C6 13.0679 5.16519 14.1792 4 14.591V19.7617C4 20.314 3.55228 20.7617 3 20.7617C2.44772 20.7617 2 20.314 2 19.7617L2 14.591C0.834808 14.1792 0 13.0679 0 11.7617ZM17 12.7617C16.4477 12.7617 16 13.2094 16 13.7617C16 14.314 16.4477 14.7617 17 14.7617C17.5523 14.7617 18 14.314 18 13.7617C18 13.2094 17.5523 12.7617 17 12.7617ZM14 13.7617C14 12.1049 15.3431 10.7617 17 10.7617C18.6569 10.7617 20 12.1049 20 13.7617C20 15.0679 19.1652 16.1792 18 16.591V19.7617C18 20.314 17.5523 20.7617 17 20.7617C16.4477 20.7617 16 20.314 16 19.7617V16.591C14.8348 16.1792 14 15.0679 14 13.7617ZM10 12.7617C10.5523 12.7617 11 13.2094 11 13.7617V19.7617C11 20.314 10.5523 20.7617 10 20.7617C9.44771 20.7617 9 20.314 9 19.7617V13.7617C9 13.2094 9.44771 12.7617 10 12.7617Z" fill="black"/>
</svg>
