<svg xmlns="http://www.w3.org/2000/svg" fill="none" viewBox="0 0 24 25"><path fill="currentColor" fill-rule="evenodd" d="M5 2.76172C5.55228 2.76172 6 3.20943 6 3.76172V7.76172C6 8.314 5.55228 8.76172 5 8.76172C4.44772 8.76172 4 8.314 4 7.76172V3.76172C4 3.20943 4.44772 2.76172 5 2.76172ZM12 2.76172C12.5523 2.76172 13 3.20943 13 3.76172V6.93242C14.1652 7.34426 15 8.4555 15 9.76172C15 11.4186 13.6569 12.7617 12 12.7617C10.3431 12.7617 9 11.4186 9 9.76172C9 8.4555 9.83481 7.34426 11 6.93242V3.76172C11 3.20943 11.4477 2.76172 12 2.76172ZM19 2.76172C19.5523 2.76172 20 3.20943 20 3.76172V9.76172C20 10.314 19.5523 10.7617 19 10.7617C18.4477 10.7617 18 10.314 18 9.76172V3.76172C18 3.20943 18.4477 2.76172 19 2.76172ZM12 8.76172C11.4477 8.76172 11 9.20943 11 9.76172C11 10.314 11.4477 10.7617 12 10.7617C12.5523 10.7617 13 10.314 13 9.76172C13 9.20943 12.5523 8.76172 12 8.76172ZM5 12.7617C4.44772 12.7617 4 13.2094 4 13.7617C4 14.314 4.44772 14.7617 5 14.7617C5.55228 14.7617 6 14.314 6 13.7617C6 13.2094 5.55228 12.7617 5 12.7617ZM2 13.7617C2 12.1049 3.34315 10.7617 5 10.7617C6.65685 10.7617 8 12.1049 8 13.7617C8 15.0679 7.16519 16.1792 6 16.591V21.7617C6 22.314 5.55228 22.7617 5 22.7617C4.44772 22.7617 4 22.314 4 21.7617L4 16.591C2.83481 16.1792 2 15.0679 2 13.7617ZM19 14.7617C18.4477 14.7617 18 15.2094 18 15.7617C18 16.314 18.4477 16.7617 19 16.7617C19.5523 16.7617 20 16.314 20 15.7617C20 15.2094 19.5523 14.7617 19 14.7617ZM16 15.7617C16 14.1049 17.3431 12.7617 19 12.7617C20.6569 12.7617 22 14.1049 22 15.7617C22 17.0679 21.1652 18.1792 20 18.591V21.7617C20 22.314 19.5523 22.7617 19 22.7617C18.4477 22.7617 18 22.314 18 21.7617V18.591C16.8348 18.1792 16 17.0679 16 15.7617ZM12 14.7617C12.5523 14.7617 13 15.2094 13 15.7617V21.7617C13 22.314 12.5523 22.7617 12 22.7617C11.4477 22.7617 11 22.314 11 21.7617V15.7617C11 15.2094 11.4477 14.7617 12 14.7617Z" clip-rule="evenodd"/></svg>