<svg width="32" height="32" viewBox="0 0 17 17" class="icon" fill="currentColor" xmlns="http://www.w3.org/2000/svg">
<path d="M6.2777 2.50779C6.2777 2.1396 5.97922 1.84113 5.61103 1.84113H4.05547C2.82817 1.84113 1.83325 2.83605 1.83325 4.06335V5.6189C1.83325 5.98709 2.13173 6.28557 2.49992 6.28557C2.86811 6.28557 3.16659 5.98709 3.16659 5.6189V4.06335C3.16659 3.57243 3.56455 3.17446 4.05547 3.17446H5.61103C5.97922 3.17446 6.2777 2.87598 6.2777 2.50779Z" />
<path d="M11.3888 3.17446C11.0206 3.17446 10.7221 2.87598 10.7221 2.50779C10.7221 2.1396 11.0206 1.84113 11.3888 1.84113H12.9444C14.1717 1.84113 15.1666 2.83605 15.1666 4.06335V5.6189C15.1666 5.98709 14.8681 6.28557 14.4999 6.28557C14.1317 6.28557 13.8333 5.98709 13.8333 5.6189V4.06335C13.8333 3.57243 13.4353 3.17446 12.9444 3.17446H11.3888Z" />
<path d="M10.7221 14.5078C10.7221 14.1396 11.0206 13.8411 11.3888 13.8411H12.9444C13.4353 13.8411 13.8333 13.4432 13.8333 12.9522V11.3967C13.8333 11.0285 14.1317 10.73 14.4999 10.73C14.8681 10.73 15.1666 11.0285 15.1666 11.3967V12.9522C15.1666 14.1795 14.1717 15.1745 12.9444 15.1745H11.3888C11.0206 15.1745 10.7221 14.876 10.7221 14.5078Z" />
<path d="M2.49992 10.73C2.86811 10.73 3.16659 11.0285 3.16659 11.3967V12.9522C3.16659 13.4432 3.56455 13.8411 4.05547 13.8411H5.61103C5.97922 13.8411 6.2777 14.1396 6.2777 14.5078C6.2777 14.876 5.97922 15.1745 5.61103 15.1745H4.05547C2.82818 15.1745 1.83325 14.1795 1.83325 12.9522V11.3967C1.83325 11.0285 2.13173 10.73 2.49992 10.73Z" />
<path d="M5.83325 5.84113C5.46506 5.84113 5.16659 6.1396 5.16659 6.50779C5.16659 6.87598 5.46506 7.17446 5.83325 7.17446H7.83325V11.1745C7.83325 11.5426 8.13173 11.8411 8.49992 11.8411C8.86811 11.8411 9.16659 11.5426 9.16659 11.1745V7.17446H11.1666C11.5348 7.17446 11.8333 6.87598 11.8333 6.50779C11.8333 6.1396 11.5348 5.84113 11.1666 5.84113H5.83325Z" />
</svg>
