<svg width="48" height="49" viewBox="0 0 48 49" fill="none" xmlns="http://www.w3.org/2000/svg">
<circle cx="24" cy="24.2092" r="23.7" stroke="#9CA2A8" stroke-width="0.6" stroke-dasharray="2.4 2.4"/>
<path d="M14.2118 33.7125L14.1837 33.7119C14.0213 33.7067 13.1773 33.6525 12.6151 33.1254C12.0386 32.5847 11.9698 31.8073 11.9619 31.6569C11.9611 31.6427 11.9607 31.6286 11.9607 31.6144V27.3805C11.9523 27.2061 11.9411 26.6169 12.1385 25.9625C12.3276 25.3351 12.5613 24.9232 12.6283 24.8121L14.7538 21.0516C14.7645 21.0327 14.7757 21.0145 14.7878 20.9968C14.854 20.8984 15.2103 20.3923 15.6988 20.0884C16.2129 19.7683 16.835 19.7435 17.0136 19.7435H30.4403C30.4576 19.7435 30.4747 19.744 30.4923 19.7451C30.6258 19.7537 31.3189 19.8122 31.8552 20.119C32.3674 20.4123 32.7796 20.9249 32.857 21.0245C32.8727 21.0449 32.8875 21.066 32.9012 21.0878L35.4257 25.0881C35.4365 25.1057 35.4474 25.1241 35.4573 25.143C35.5057 25.2359 35.7552 25.7268 35.8816 26.2042C36.0064 26.6765 36.0365 27.1985 36.0411 27.2982L36.0417 27.3323V31.5668C36.0446 31.7907 36.0034 32.5591 35.366 33.13C34.7624 33.6704 33.9498 33.7122 33.7151 33.7122H14.2118V33.7125ZM13.9955 25.6702C13.949 25.7528 13.8046 26.026 13.6831 26.4285C13.5548 26.8541 13.5701 27.2519 13.5721 27.296C13.5733 27.315 13.5739 27.3341 13.5742 27.3532V31.5865L13.5758 31.5982C13.5858 31.6743 13.6322 31.8587 13.7123 31.9419L13.7231 31.9534L13.7358 31.9627C13.8479 32.0453 14.1257 32.0927 14.2227 32.0986L33.7164 32.0989C33.8781 32.097 34.1608 32.0431 34.2889 31.9283C34.4035 31.8256 34.4292 31.6493 34.4292 31.621L34.4277 31.5721V27.357C34.4189 27.1926 34.3871 26.8649 34.3211 26.6166C34.2464 26.3329 34.0793 25.9931 34.0465 25.9281L34.0374 25.9123L31.56 21.9861L31.5523 21.9768C31.4584 21.8637 31.2332 21.6221 31.0534 21.519C30.8977 21.4299 30.5806 21.3729 30.4173 21.3576L30.4004 21.3568H17.0164C16.8911 21.3579 16.6584 21.3911 16.5509 21.4583C16.3995 21.5527 16.2202 21.7683 16.1464 21.869L16.1401 21.8777L14.0278 25.6145L14.005 25.6529L14.0053 25.6519C14.0047 25.6538 13.9955 25.6702 13.9955 25.6702ZM23.9242 18.5604C23.7103 18.5602 23.5052 18.4751 23.3539 18.3239C23.2027 18.1727 23.1176 17.9676 23.1173 17.7537V13.1127C23.1176 12.8989 23.2026 12.6939 23.3538 12.5426C23.505 12.3914 23.71 12.3063 23.9239 12.306C24.1378 12.3062 24.3429 12.3913 24.4942 12.5425C24.6455 12.6938 24.7306 12.8988 24.7309 13.1127V17.7536C24.7307 17.9675 24.6456 18.1726 24.4944 18.3238C24.3431 18.4751 24.1381 18.5601 23.9242 18.5603V18.5604ZM29.3331 18.5298C29.1192 18.5295 28.9142 18.4444 28.7629 18.2931C28.6117 18.1419 28.5267 17.9368 28.5264 17.7229C28.5266 17.5379 28.5902 17.3585 28.7066 17.2147L30.5508 14.9403C30.6264 14.8467 30.722 14.7713 30.8306 14.7197C30.9392 14.668 31.058 14.6413 31.1782 14.6416C31.3647 14.6416 31.5402 14.7039 31.6854 14.8217C31.768 14.8881 31.8366 14.9704 31.8871 15.0636C31.9377 15.1568 31.9692 15.2591 31.9799 15.3646C31.9912 15.4699 31.9816 15.5765 31.9515 15.6781C31.9213 15.7797 31.8713 15.8743 31.8043 15.9564L29.9602 18.2309C29.8849 18.3244 29.7896 18.3998 29.6813 18.4515C29.573 18.5032 29.4544 18.5299 29.3344 18.5296H29.3331V18.5298ZM18.6059 18.4681C18.4847 18.4684 18.365 18.4413 18.2559 18.3887C18.1467 18.336 18.0509 18.2593 17.9757 18.1643L16.1628 15.89C16.0296 15.7226 15.9683 15.5092 15.9923 15.2966C16.0162 15.0841 16.1236 14.8897 16.2907 14.7562C16.4331 14.6418 16.6104 14.5797 16.793 14.5802C17.0403 14.5802 17.2704 14.691 17.4244 14.8842L19.2374 17.1584C19.3707 17.3258 19.432 17.5391 19.4081 17.7517C19.3842 17.9642 19.2769 18.1586 19.1098 18.2921C18.9669 18.4058 18.7898 18.4678 18.6072 18.4681H18.6059Z" fill="#7B838B"/>
<path d="M23.9563 30.3933C22.1589 30.3933 20.5973 29.1883 20.159 27.4634L20.1237 27.3243L12.9591 27.3201C12.7451 27.3196 12.5401 27.2344 12.3889 27.083C12.2377 26.9317 12.1526 26.7266 12.1523 26.5127C12.1527 26.2989 12.2378 26.0939 12.389 25.9428C12.5402 25.7916 12.7452 25.7066 12.9591 25.7063L20.8484 25.7113C21.0622 25.7119 21.2671 25.7971 21.4182 25.9484C21.5693 26.0996 21.6544 26.3046 21.6547 26.5184C21.6547 27.7865 22.6656 28.7797 23.9563 28.7797C25.2423 28.7797 26.2498 27.7865 26.2498 26.5184C26.2502 26.3046 26.3353 26.0996 26.4865 25.9484C26.6377 25.7971 26.8426 25.7119 27.0565 25.7113L34.8728 25.7064C35.3178 25.7064 35.6795 26.0678 35.6798 26.5125C35.6801 26.9572 35.3185 27.3196 34.8737 27.3202L27.7816 27.3245L27.7462 27.4635C27.3085 29.1884 25.7502 30.3933 23.9563 30.3933Z" fill="#7B838B"/>
</svg>
