<svg xmlns="http://www.w3.org/2000/svg" width="17" height="17" viewBox="0 0 24 24" fill-opacity=".7">
  <path fill-rule="evenodd" clip-rule="evenodd" d="M9.60361 4.37299C8.03831 4.37299 6.76938 5.64191 6.76938 7.20721C6.76938 8.77252 8.03831 10.0414 9.60361 10.0414C11.1689 10.0414 12.4378 8.77252 12.4378 7.20721C12.4378 5.64191 11.1689 4.37299 9.60361 4.37299ZM4.76938 7.20721C4.76938 4.53734 6.93374 2.37299 9.60361 2.37299C12.2735 2.37299 14.4378 4.53734 14.4378 7.20721C14.4378 9.87708 12.2735 12.0414 9.60361 12.0414C6.93374 12.0414 4.76938 9.87708 4.76938 7.20721ZM14.428 3.27648C14.6352 2.76455 15.2182 2.51753 15.7302 2.72476C17.5 3.44115 18.7513 5.17685 18.7513 7.20721C18.7513 9.23758 17.5 10.9733 15.7302 11.6897C15.2182 11.8969 14.6352 11.6499 14.428 11.1379C14.2208 10.626 14.4678 10.043 14.9797 9.8358C16.0203 9.4146 16.7513 8.39509 16.7513 7.20721C16.7513 6.01934 16.0203 4.99983 14.9797 4.57863C14.4678 4.37141 14.2208 3.78841 14.428 3.27648ZM8.13042 13.8757H12C12.5523 13.8757 13 14.3234 13 14.8757C13 15.428 12.5523 15.8757 12 15.8757H8.16577C7.25883 15.8757 6.6287 15.8762 6.13592 15.9098C5.65213 15.9428 5.3742 16.0044 5.16405 16.0914C4.46958 16.3791 3.91783 16.9308 3.63017 17.6253C3.54312 17.8354 3.4816 18.1134 3.44859 18.5972C3.41497 19.0899 3.41443 19.7201 3.41443 20.627C3.41443 21.1793 2.96671 21.627 2.41443 21.627C1.86214 21.627 1.41443 21.1793 1.41443 20.627L1.41443 20.5917C1.41442 19.7284 1.41442 19.0299 1.45323 18.461C1.49319 17.8754 1.5776 17.3544 1.78241 16.8599C2.27306 15.6754 3.21416 14.7343 4.39868 14.2437C4.89315 14.0388 5.41416 13.9544 5.99978 13.9145C6.56868 13.8757 7.26715 13.8757 8.13042 13.8757ZM18.7099 13.8757C19.2622 13.8757 19.7099 14.3234 19.7099 14.8757V16.7513H21.5856C22.1379 16.7513 22.5856 17.1991 22.5856 17.7513C22.5856 18.3036 22.1379 18.7513 21.5856 18.7513H19.7099V20.627C19.7099 21.1793 19.2622 21.627 18.7099 21.627C18.1576 21.627 17.7099 21.1793 17.7099 20.627V18.7513H15.8342C15.2819 18.7513 14.8342 18.3036 14.8342 17.7513C14.8342 17.1991 15.2819 16.7513 15.8342 16.7513H17.7099V14.8757C17.7099 14.3234 18.1576 13.8757 18.7099 13.8757Z" fill="rgb(26, 32, 44)"/>
</svg>