<svg xmlns="http://www.w3.org/2000/svg" width="33" height="33" fill="none" viewBox="0 0 33 33"><path fill="#66CBCA" d="M21.6029 11.3839C22.1201 11.3839 22.624 11.4236 23.1147 11.4899C22.2129 7.55135 18.0754 4.56757 13.1024 4.56757C7.46637 4.56757 2.89124 8.38681 2.89124 13.0946C2.89124 15.8131 4.41628 18.2134 6.79005 19.7782L5.45066 22.4703L9.11077 20.8922C9.89318 21.1707 10.7154 21.3961 11.5906 21.5155C11.4713 20.9983 11.405 20.4678 11.405 19.9108C11.3917 15.2164 15.9668 11.3839 21.6029 11.3839ZM16.4973 8.40007C16.6645 8.40007 16.83 8.433 16.9845 8.49698C17.1389 8.56096 17.2793 8.65473 17.3975 8.77295C17.5157 8.89116 17.6095 9.03151 17.6735 9.18596C17.7374 9.34042 17.7704 9.50597 17.7704 9.67315C17.7704 9.84033 17.7374 10.0059 17.6735 10.1603C17.6095 10.3148 17.5157 10.4551 17.3975 10.5734C17.2793 10.6916 17.1389 10.7853 16.9845 10.8493C16.83 10.9133 16.6645 10.9462 16.4973 10.9462C16.1596 10.9462 15.8358 10.8121 15.5971 10.5734C15.3583 10.3346 15.2242 10.0108 15.2242 9.67315C15.2242 9.33551 15.3583 9.0117 15.5971 8.77295C15.8358 8.5342 16.1596 8.40007 16.4973 8.40007ZM9.69426 10.9595C9.35662 10.9595 9.03281 10.8254 8.79406 10.5866C8.55531 10.3479 8.42118 10.0241 8.42118 9.68641C8.42118 9.34877 8.55531 9.02496 8.79406 8.78621C9.03281 8.54746 9.35662 8.41333 9.69426 8.41333C10.0319 8.41333 10.3557 8.54746 10.5945 8.78621C10.8332 9.02496 10.9673 9.34877 10.9673 9.68641C10.9673 10.0241 10.8332 10.3479 10.5945 10.5866C10.3557 10.8254 10.0319 10.9595 9.69426 10.9595Z"/><path fill="#66CBCA" d="M30.1034 19.9108C30.1034 16.1446 26.2974 13.0946 21.6029 13.0946C16.9084 13.0946 13.1024 16.1446 13.1024 19.9108C13.1024 23.677 16.9084 26.7271 21.6029 26.7271C22.372 26.7271 23.1147 26.621 23.8175 26.4619L28.4059 28.4378L26.8146 25.2551C28.8038 24.0086 30.1034 22.099 30.1034 19.9108ZM19.0435 19.4865C18.7917 19.4865 18.5455 19.4118 18.3362 19.2719C18.1268 19.132 17.9636 18.9332 17.8673 18.7006C17.7709 18.468 17.7457 18.212 17.7948 17.965C17.844 17.7181 17.9652 17.4912 18.1433 17.3132C18.3213 17.1352 18.5481 17.0139 18.7951 16.9648C19.0421 16.9157 19.298 16.9409 19.5306 17.0372C19.7633 17.1336 19.9621 17.2968 20.102 17.5061C20.2419 17.7155 20.3165 17.9616 20.3165 18.2134C20.3298 18.9163 19.7463 19.4865 19.0435 19.4865ZM24.149 19.4865C23.8114 19.4865 23.4876 19.3524 23.2488 19.1136C23.0101 18.8749 22.876 18.551 22.876 18.2134C22.876 17.8758 23.0101 17.5519 23.2488 17.3132C23.4876 17.0745 23.8114 16.9403 24.149 16.9403C24.4867 16.9403 24.8105 17.0745 25.0493 17.3132C25.288 17.5519 25.4221 17.8758 25.4221 18.2134C25.4221 18.551 25.288 18.8749 25.0493 19.1136C24.8105 19.3524 24.4867 19.4865 24.149 19.4865Z"/></svg>