<svg xmlns="http://www.w3.org/2000/svg" width="17" height="17" fill="none" viewBox="0 0 17 17"><mask id="mask0_2361_63462" style="mask-type:alpha" width="17" height="17" x="0" y="0" maskUnits="userSpaceOnUse"><rect width="16" height="16" x=".992" y=".17" fill="#D9D9D9"/></mask><g mask="url(#mask0_2361_63462)"><path fill="#fff" d="M1.6582 14.1704L8.99154 1.50372L16.3249 14.1704H1.6582ZM3.9582 12.8371H14.0249L8.99154 4.17039L3.9582 12.8371ZM8.99154 12.1704C9.18043 12.1704 9.33876 12.1065 9.46654 11.9787C9.59432 11.8509 9.6582 11.6926 9.6582 11.5037C9.6582 11.3148 9.59432 11.1565 9.46654 11.0287C9.33876 10.9009 9.18043 10.8371 8.99154 10.8371C8.80265 10.8371 8.64431 10.9009 8.51654 11.0287C8.38876 11.1565 8.32487 11.3148 8.32487 11.5037C8.32487 11.6926 8.38876 11.8509 8.51654 11.9787C8.64431 12.1065 8.80265 12.1704 8.99154 12.1704ZM8.32487 10.1704H9.6582V6.83706H8.32487V10.1704Z"/></g></svg>