<svg id="图层_1" data-name="图层 1" xmlns="http://www.w3.org/2000/svg" xmlns:xlink="http://www.w3.org/1999/xlink" viewBox="0 0 566.93 226.77"><defs><style>.cls-1{fill:url(#未命名的渐变_595);}.cls-2{fill:url(#未命名的渐变_230);}.cls-3{fill:url(#未命名的渐变_588);}.cls-4{clip-path:url(#clip-path);}.cls-5{fill:url(#未命名的渐变_593);}.cls-6{font-size:108.88px;fill:#28363c;font-family:Poppins-Regular, Poppins;letter-spacing:-0.02em;}</style><linearGradient id="未命名的渐变_595" x1="174.65" y1="52.02" x2="46.97" y2="172.04" gradientUnits="userSpaceOnUse"><stop offset="0" stop-color="#64b0ff"/><stop offset="0.12" stop-color="#43b9ff"/><stop offset="0.28" stop-color="#1fc3ff"/><stop offset="0.42" stop-color="#08c9ff"/><stop offset="0.5" stop-color="#00cbff"/><stop offset="0.57" stop-color="#0cc7ff"/><stop offset="0.71" stop-color="#2dbeff"/><stop offset="0.89" stop-color="#62aeff"/><stop offset="1" stop-color="#85a4ff"/></linearGradient><linearGradient id="未命名的渐变_230" x1="174.65" y1="52.02" x2="46.97" y2="172.04" gradientUnits="userSpaceOnUse"><stop offset="0" stop-color="#6378ff"/><stop offset="1" stop-color="#6312ff"/></linearGradient><linearGradient id="未命名的渐变_588" x1="11.45" y1="84.91" x2="82.94" y2="62.26" gradientUnits="userSpaceOnUse"><stop offset="0" stop-color="#948bde"/><stop offset="0.38" stop-color="#57aef4"/><stop offset="0.59" stop-color="#3abfff"/><stop offset="1" stop-color="#00daff"/></linearGradient><clipPath id="clip-path"><path class="cls-1" d="M183.14,66.16a35.85,35.85,0,0,0-1.89-4.77l0-.1h0a35.06,35.06,0,0,0-66.58,15.34A34.69,34.69,0,0,0,115.4,84v0a.65.65,0,0,1,0,.13c.23,1,.49,2,.8,3A54.1,54.1,0,1,1,10.47,109.91,89.51,89.51,0,1,0,183.14,66.16Z"/></clipPath><linearGradient id="未命名的渐变_593" x1="146.81" y1="36.3" x2="31.88" y2="144.34" gradientUnits="userSpaceOnUse"><stop offset="0" stop-color="#64acff"/><stop offset="0.13" stop-color="#5cacfe"/><stop offset="0.32" stop-color="#48acfc"/><stop offset="0.5" stop-color="#30acfa"/><stop offset="0.78" stop-color="#179ef4"/><stop offset="1" stop-color="#0091ee"/></linearGradient></defs><path class="cls-2" d="M183.14,66.16a35.85,35.85,0,0,0-1.89-4.77l0-.1h0a35.06,35.06,0,0,0-66.58,15.34A34.69,34.69,0,0,0,115.4,84v0a.65.65,0,0,1,0,.13c.23,1,.49,2,.8,3A54.1,54.1,0,1,1,10.47,109.91,89.51,89.51,0,1,0,183.14,66.16Z"/><path class="cls-3" d="M41,96.34c11.58,16.93,35.58,15.36,35.58,15.36-6-5.8-9.87-11.12-10.34-26.17S57.26,66.4,57.26,66.4c15.42-9.66,9.88-20.22,9.41-31.93-.3-7.25,4-12.69,7.38-15.78a76.77,76.77,0,0,0-65,84C10.48,98.85,30.25,80.68,41,96.34Z"/><path class="cls-1" d="M183.14,66.16a35.85,35.85,0,0,0-1.89-4.77l0-.1h0a35.06,35.06,0,0,0-66.58,15.34A34.69,34.69,0,0,0,115.4,84v0a.65.65,0,0,1,0,.13c.23,1,.49,2,.8,3A54.1,54.1,0,1,1,10.47,109.91,89.51,89.51,0,1,0,183.14,66.16Z"/><g class="cls-4"><circle class="cls-5" cx="89.34" cy="90.32" r="78.87"/></g><text class="cls-6" transform="translate(221.86 145.8)">sealos</text></svg>