<svg id="图层_1" data-name="图层 1" xmlns="http://www.w3.org/2000/svg" xmlns:xlink="http://www.w3.org/1999/xlink" viewBox="0 0 566.93 566.93"><defs><style>.cls-1{fill:url(#未命名的渐变_595);}.cls-2{fill:url(#未命名的渐变_588);}.cls-3{clip-path:url(#clip-path);}.cls-4{fill:url(#未命名的渐变_593);}.cls-5{font-size:160px;fill:#28363c;font-family:Poppins-Regular, Poppins;letter-spacing:-0.02em;}</style><linearGradient id="未命名的渐变_595" x1="427.58" y1="96.13" x2="185.73" y2="323.47" gradientUnits="userSpaceOnUse"><stop offset="0" stop-color="#64b0ff"/><stop offset="0.12" stop-color="#43b9ff"/><stop offset="0.28" stop-color="#1fc3ff"/><stop offset="0.42" stop-color="#08c9ff"/><stop offset="0.5" stop-color="#00cbff"/><stop offset="0.57" stop-color="#0cc7ff"/><stop offset="0.71" stop-color="#2dbeff"/><stop offset="0.89" stop-color="#62aeff"/><stop offset="1" stop-color="#85a4ff"/></linearGradient><linearGradient id="未命名的渐变_588" x1="118.45" y1="158.44" x2="253.87" y2="115.54" gradientUnits="userSpaceOnUse"><stop offset="0" stop-color="#948bde"/><stop offset="0.38" stop-color="#57aef4"/><stop offset="0.59" stop-color="#3abfff"/><stop offset="1" stop-color="#00daff"/></linearGradient><clipPath id="clip-path"><path class="cls-1" d="M443.66,122.93a66.22,66.22,0,0,0-3.57-9.05,1.42,1.42,0,0,1-.08-.18l0,0a66.41,66.41,0,0,0-124.63,43.1v.05l.05.23c.43,1.93,1.09,3.65,1.52,5.7a102.47,102.47,0,1,1-200.33,43,169.54,169.54,0,1,0,327.06-82.86Z"/></clipPath><linearGradient id="未命名的渐变_593" x1="374.84" y1="66.36" x2="157.14" y2="271" gradientUnits="userSpaceOnUse"><stop offset="0" stop-color="#64acff"/><stop offset="0.13" stop-color="#5cacfe"/><stop offset="0.32" stop-color="#48acfc"/><stop offset="0.5" stop-color="#30acfa"/><stop offset="0.78" stop-color="#179ef4"/><stop offset="1" stop-color="#0091ee"/></linearGradient></defs><path class="cls-2" d="M174.34,180.09c21.94,32.07,67.41,29.1,67.41,29.1-11.29-11-18.71-21.08-19.6-49.59s-16.92-36.22-16.92-36.22c29.21-18.31,18.7-38.31,17.81-60.49-.55-13.73,7.66-24,14-29.89A145.37,145.37,0,0,0,113.91,192C116.61,184.83,154.06,150.43,174.34,180.09Z"/><path class="cls-1" d="M443.66,122.93a66.22,66.22,0,0,0-3.57-9.05,1.42,1.42,0,0,1-.08-.18l0,0a66.41,66.41,0,0,0-124.63,43.1v.05l.05.23c.43,1.93,1.09,3.65,1.52,5.7a102.47,102.47,0,1,1-200.33,43,169.54,169.54,0,1,0,327.06-82.86Z"/><g class="cls-3"><circle class="cls-4" cx="265.99" cy="168.68" r="149.39"/></g><text class="cls-5" transform="translate(34.99 503.66)">sealos</text></svg>