<svg id="图层_1" data-name="图层 1" xmlns="http://www.w3.org/2000/svg" xmlns:xlink="http://www.w3.org/1999/xlink" viewBox="0 0 566.93 566.93"><defs><style>.cls-1,.cls-4{fill:#fff;}.cls-2{fill:#121212;}.cls-3{clip-path:url(#clip-path);}.cls-4{font-size:160px;font-family:Poppins-Medium, Poppins;font-weight:500;letter-spacing:-0.02em;}</style><clipPath id="clip-path"><path class="cls-1" d="M443.66,122.93a66.22,66.22,0,0,0-3.57-9.05,1.42,1.42,0,0,1-.08-.18l0,0a66.41,66.41,0,0,0-124.63,43.1v.05l.05.23c.43,1.93,1.09,3.65,1.52,5.7a102.47,102.47,0,1,1-200.33,43,169.54,169.54,0,1,0,327.06-82.86Z"/></clipPath></defs><rect class="cls-2" x="1.75" width="566.93" height="566.93"/><path class="cls-1" d="M174.34,180.09c21.94,32.07,67.41,29.1,67.41,29.1-11.29-11-18.71-21.08-19.6-49.59s-16.92-36.22-16.92-36.22c29.21-18.31,18.7-38.31,17.81-60.49-.55-13.73,7.66-24,14-29.89A145.37,145.37,0,0,0,113.91,192C116.61,184.83,154.06,150.43,174.34,180.09Z"/><path class="cls-1" d="M443.66,122.93a66.22,66.22,0,0,0-3.57-9.05,1.42,1.42,0,0,1-.08-.18l0,0a66.41,66.41,0,0,0-124.63,43.1v.05l.05.23c.43,1.93,1.09,3.65,1.52,5.7a102.47,102.47,0,1,1-200.33,43,169.54,169.54,0,1,0,327.06-82.86Z"/><g class="cls-3"><circle class="cls-1" cx="265.99" cy="168.68" r="149.39"/></g><text class="cls-4" transform="translate(31.87 503.66)">sealos</text></svg>