<svg xmlns="http://www.w3.org/2000/svg" fill="none" viewBox="0 0 24 24"><path d="M5 15.95L11 19.425V12.575L5 9.1V15.95ZM13 19.425L19 15.95V9.1L13 12.575V19.425ZM6.075 7.425L12 10.85L17.925 7.425L12 4L6.075 7.425ZM3 17.125V8.025C3 7.65833 3.0875 7.325 3.2625 7.025C3.4375 6.725 3.68333 6.48333 4 6.3L11 2.275C11.3167 2.09167 11.65 2 12 2C12.35 2 12.6833 2.09167 13 2.275L20 6.3C20.3167 6.48333 20.5625 6.725 20.7375 7.025C20.9125 7.325 21 7.65833 21 8.025V15.975C21 16.3417 20.9125 16.675 20.7375 16.975C20.5625 17.275 20.3167 17.5167 20 17.7L13 21.725C12.6833 21.9083 12.35 22 12 22C11.65 22 11.3167 21.9083 11 21.725L3 17.125Z"/></svg>