<svg xmlns="http://www.w3.org/2000/svg" width="13" height="13" fill="none" viewBox="0 0 13 13"><path d="M1.83333 11.6667H2.76667L8.51667 5.91668L7.58333 4.98334L1.83333 10.7333V11.6667ZM11.3667 4.95001L8.53333 2.15001L9.46667 1.21668C9.72222 0.961121 10.0362 0.833344 10.4087 0.833344C10.7811 0.833344 11.0949 0.961121 11.35 1.21668L12.2833 2.15001C12.5389 2.40557 12.6722 2.71401 12.6833 3.07534C12.6944 3.43668 12.5722 3.7449 12.3167 4.00001L11.3667 4.95001ZM10.4 5.93334L3.33333 13H0.5V10.1667L7.56667 3.10001L10.4 5.93334ZM8.05 5.45001L7.58333 4.98334L8.51667 5.91668L8.05 5.45001Z"/></svg>