<svg width="30" height="30" viewBox="0 0 30 30" fill="none" xmlns="http://www.w3.org/2000/svg">
<path d="M5.21273 25.5033L5.18464 25.5026C5.02228 25.4974 4.17832 25.4432 3.61607 24.9161C3.03957 24.3754 2.97076 23.5981 2.96283 23.4476C2.96207 23.4334 2.96169 23.4193 2.96172 23.4051V19.1712C2.95333 18.9968 2.94205 18.4076 3.13947 17.7532C3.32862 17.1258 3.56231 16.7139 3.62923 16.6028L5.75482 12.8423C5.76544 12.8234 5.77669 12.8052 5.78873 12.7875C5.855 12.6891 6.21129 12.183 6.6998 11.8791C7.21384 11.559 7.83601 11.5342 8.01454 11.5342H21.4413C21.4586 11.5342 21.4757 11.5347 21.4933 11.5358C21.6268 11.5444 22.3198 11.6029 22.8562 11.9097C23.3683 12.203 23.7806 12.7156 23.858 12.8152C23.8737 12.8356 23.8884 12.8567 23.9022 12.8785L26.4267 16.8788C26.4375 16.8964 26.4484 16.9148 26.4583 16.9337C26.5066 17.0266 26.7562 17.5175 26.8826 17.9949C27.0074 18.4672 27.0375 18.9892 27.042 19.0889L27.0427 19.123V23.3575C27.0455 23.5814 27.0043 24.3498 26.3669 24.9207C25.7633 25.4611 24.9507 25.5029 24.7161 25.5029H5.21273V25.5033ZM4.99645 17.4609C4.95 17.5435 4.80554 17.8167 4.68408 18.2192C4.55581 18.6448 4.57105 19.0426 4.57309 19.0867C4.57423 19.1057 4.57492 19.1248 4.57517 19.1439V23.3772L4.57675 23.3889C4.58675 23.465 4.6332 23.6494 4.71328 23.7326L4.72406 23.7441L4.73676 23.7534C4.84886 23.836 5.12664 23.8835 5.22366 23.8893L24.7173 23.8896C24.8791 23.8877 25.1618 23.8338 25.2899 23.719C25.4045 23.6163 25.4302 23.44 25.4302 23.4118L25.4286 23.3628V19.1477C25.4199 18.9833 25.388 18.6556 25.3221 18.4073C25.2474 18.1236 25.0803 17.7838 25.0474 17.7188L25.0384 17.703L22.561 13.7769L22.5532 13.7675C22.4593 13.6544 22.2342 13.4128 22.0544 13.3097C21.8987 13.2206 21.5816 13.1636 21.4183 13.1483L21.4013 13.1475H8.01739C7.89212 13.1486 7.6594 13.1818 7.55188 13.249C7.40045 13.3434 7.22114 13.559 7.14741 13.6597L7.14106 13.6684L5.02878 17.4052L5.00596 17.4436L5.00627 17.4426C5.00565 17.4445 4.99645 17.4609 4.99645 17.4609ZM14.9251 10.3511C14.7112 10.3509 14.5062 10.2658 14.3549 10.1146C14.2036 9.96337 14.1185 9.7583 14.1183 9.5444V4.90345C14.1185 4.6896 14.2036 4.48458 14.3548 4.33336C14.506 4.18213 14.711 4.09704 14.9248 4.09674C15.1387 4.09695 15.3438 4.182 15.4951 4.33324C15.6464 4.48447 15.7316 4.68953 15.7319 4.90345V9.54434C15.7316 9.75822 15.6466 9.96329 15.4953 10.1145C15.3441 10.2658 15.139 10.3508 14.9251 10.351V10.3511ZM20.3341 10.3205C20.1202 10.3202 19.9152 10.2351 19.7639 10.0838C19.6127 9.93258 19.5276 9.72751 19.5274 9.51362C19.5276 9.32859 19.5912 9.14922 19.7076 9.00544L21.5518 6.73098C21.6274 6.63745 21.723 6.56206 21.8316 6.51036C21.9402 6.45866 22.059 6.43198 22.1792 6.43227C22.3656 6.43227 22.5412 6.49457 22.6864 6.61237C22.769 6.67884 22.8376 6.76107 22.8881 6.85427C22.9387 6.94747 22.9702 7.04978 22.9808 7.15527C22.9922 7.26063 22.9826 7.36721 22.9524 7.46881C22.9223 7.57042 22.8723 7.66503 22.8053 7.74716L20.9612 10.0216C20.8859 10.1151 20.7906 10.1905 20.6823 10.2422C20.5739 10.2939 20.4554 10.3206 20.3353 10.3204H20.3341V10.3205ZM9.6069 10.2588C9.48571 10.2592 9.36603 10.232 9.25686 10.1794C9.14769 10.1267 9.05188 10.05 8.97664 9.95503L7.16373 7.68073C7.03056 7.51332 6.96925 7.29992 6.99324 7.08736C7.01722 6.87479 7.12456 6.68043 7.29169 6.54691C7.43405 6.4325 7.61135 6.37039 7.79399 6.37092C8.04133 6.37092 8.27138 6.48172 8.42536 6.67487L10.2384 8.94914C10.3716 9.11648 10.433 9.32984 10.4091 9.54238C10.3852 9.75492 10.2779 9.9493 10.1108 10.0828C9.9679 10.1965 9.79079 10.2585 9.6082 10.2588H9.6069Z" fill="#7B838B"/>
<path d="M14.9558 22.1841C13.1584 22.1841 11.5968 20.9791 11.1585 19.2541L11.1232 19.1151L3.95857 19.1108C3.74464 19.1103 3.53963 19.0251 3.38842 18.8738C3.23722 18.7224 3.15215 18.5174 3.15186 18.3034C3.15219 18.0896 3.2373 17.8847 3.38853 17.7335C3.53975 17.5823 3.74474 17.4973 3.95857 17.497L11.8479 17.5021C12.0617 17.5026 12.2666 17.5878 12.4177 17.7391C12.5688 17.8903 12.6539 18.0953 12.6542 18.3091C12.6542 19.5772 13.6652 20.5704 14.9558 20.5704C16.2418 20.5704 17.2493 19.5773 17.2493 18.3091C17.2497 18.0953 17.3349 17.8903 17.486 17.7391C17.6372 17.5879 17.8421 17.5026 18.056 17.5021L25.8723 17.4972C26.3173 17.4972 26.679 17.8585 26.6793 18.3033C26.6796 18.748 26.318 19.1103 25.8732 19.111L18.7811 19.1152L18.7457 19.2543C18.308 20.9792 16.7497 22.1841 14.9558 22.1841Z" fill="#7B838B"/>
</svg>
