<svg
  xmlns="http://www.w3.org/2000/svg"
  width="16"
  height="17"
  viewBox="0 0 16 17"
  fill="none">
  <path
    d="M13.6667 9.00001C13.4 9.00001 13.1667 9.23334 13.1667 9.50001V13.5C13.1667 13.6 13.1 13.6667 13 13.6667H3.00001C2.90001 13.6667 2.83334 13.6 2.83334 13.5V3.50001C2.83334 3.40001 2.90001 3.33334 3.00001 3.33334H7.00001C7.26668 3.33334 7.50001 3.10001 7.50001 2.83334C7.50001 2.56668 7.26668 2.33334 7.00001 2.33334H3.00001C2.36668 2.33334 1.83334 2.86668 1.83334 3.50001V13.5C1.83334 14.1333 2.36668 14.6667 3.00001 14.6667H13C13.6333 14.6667 14.1667 14.1333 14.1667 13.5V9.50001C14.1667 9.23334 13.9333 9.00001 13.6667 9.00001Z"
    fill="#5A646E"
  />
  <path
    d="M13.6667 2.33334H10C9.73335 2.33334 9.50001 2.56668 9.50001 2.83334C9.50001 3.10001 9.73335 3.33334 10 3.33334H12.4667L7.96668 7.80001C7.76668 8.00001 7.76668 8.30001 7.96668 8.50001C8.06668 8.60001 8.20001 8.63334 8.33335 8.63334C8.46668 8.63334 8.60001 8.60001 8.70001 8.50001L13.1667 4.03334V6.50001C13.1667 6.76668 13.4 7.00001 13.6667 7.00001C13.9333 7.00001 14.1667 6.76668 14.1667 6.50001V2.83334C14.1667 2.56668 13.9333 2.33334 13.6667 2.33334Z"
    fill="#5A646E"
  />
</svg>