<svg xmlns="http://www.w3.org/2000/svg" fill="none" viewBox="0 0 24 24"><path d="M3 9C2.71667 9 2.479 8.904 2.287 8.712C2.095 8.52 1.99934 8.28267 2 8V6C2 5.45 2.196 4.979 2.588 4.587C2.98 4.195 3.45067 3.99934 4 4H20C20.55 4 21.021 4.196 21.413 4.588C21.805 4.98 22.0007 5.45067 22 6V8C22 8.28334 21.904 8.521 21.712 8.713C21.52 8.905 21.2827 9.00067 21 9C20.7167 9 20.479 8.904 20.287 8.712C20.095 8.52 19.9993 8.28267 20 8V6H4V8C4 8.28334 3.904 8.521 3.712 8.713C3.52 8.905 3.28267 9.00067 3 9ZM4 20C3.45 20 2.979 19.804 2.587 19.412C2.195 19.02 1.99934 18.5493 2 18V16C2 15.7167 2.096 15.479 2.288 15.287C2.48 15.095 2.71734 14.9993 3 15C3.28334 15 3.521 15.096 3.713 15.288C3.905 15.48 4.00067 15.7173 4 16V18H20V16C20 15.7167 20.096 15.479 20.288 15.287C20.48 15.095 20.7173 14.9993 21 15C21.2833 15 21.521 15.096 21.713 15.288C21.905 15.48 22.0007 15.7173 22 16V18C22 18.55 21.804 19.021 21.412 19.413C21.02 19.805 20.5493 20.0007 20 20H4ZM10 17C10.1833 17 10.3583 16.954 10.525 16.862C10.6917 16.77 10.8167 16.6327 10.9 16.45L14 10.25L15.1 12.45C15.1833 12.6333 15.3083 12.771 15.475 12.863C15.6417 12.955 15.8167 13.0007 16 13H21C21.2833 13 21.521 12.904 21.713 12.712C21.905 12.52 22.0007 12.2827 22 12C22 11.7167 21.904 11.479 21.712 11.287C21.52 11.095 21.2827 10.9993 21 11H16.625L14.9 7.55C14.7167 7.21667 14.4167 7.05 14 7.05C13.5833 7.05 13.2833 7.21667 13.1 7.55L10 13.75L8.9 11.55C8.81667 11.3667 8.69167 11.229 8.525 11.137C8.35834 11.045 8.18334 10.9993 8 11H3C2.71667 11 2.479 11.096 2.287 11.288C2.095 11.48 1.99934 11.7173 2 12C2 12.2833 2.096 12.521 2.288 12.713C2.48 12.905 2.71734 13.0007 3 13H7.375L9.1 16.45C9.18334 16.6333 9.30834 16.771 9.475 16.863C9.64167 16.955 9.81667 17.0007 10 17Z"/></svg>