<svg width="24" height="25" viewBox="0 0 24 25" fill="none" xmlns="http://www.w3.org/2000/svg">
<path d="M2.98922 5.35518C3.16206 5.29165 3.35023 5.28267 3.52834 5.32945C3.70644 5.37623 3.86591 5.47652 3.98522 5.61678L8.40002 10.8104L12.8136 5.61678C12.9329 5.47615 13.0925 5.37555 13.2708 5.32858C13.4491 5.28161 13.6375 5.29054 13.8106 5.35416C13.9836 5.41779 14.133 5.53303 14.2384 5.68431C14.3438 5.83558 14.4002 6.01559 14.4 6.19998V17.6C14.4 17.8387 14.3052 18.0676 14.1364 18.2364C13.9676 18.4052 13.7387 18.5 13.5 18.5C13.2613 18.5 13.0324 18.4052 12.8636 18.2364C12.6948 18.0676 12.6 17.8387 12.6 17.6V8.64798L9.08522 12.7832C9.00073 12.8824 8.89571 12.9621 8.7774 13.0167C8.6591 13.0714 8.53034 13.0997 8.40002 13.0997C8.26971 13.0997 8.14095 13.0714 8.02265 13.0167C7.90434 12.9621 7.79931 12.8824 7.71482 12.7832L4.20002 8.64798V17.6C4.20002 17.8387 4.1052 18.0676 3.93642 18.2364C3.76764 18.4052 3.53872 18.5 3.30002 18.5C3.06133 18.5 2.83241 18.4052 2.66363 18.2364C2.49485 18.0676 2.40002 17.8387 2.40002 17.6V6.19998C2.39999 6.01579 2.45647 5.83603 2.56183 5.68496C2.66719 5.53389 2.81637 5.41878 2.98922 5.35518ZM15.864 14.564C16.0328 14.3954 16.2615 14.3008 16.5 14.3008C16.7385 14.3008 16.9673 14.3954 17.136 14.564L18 15.428V6.19998C18 5.96128 18.0948 5.73236 18.2636 5.56358C18.4324 5.3948 18.6613 5.29998 18.9 5.29998C19.1387 5.29998 19.3676 5.3948 19.5364 5.56358C19.7052 5.73236 19.8 5.96128 19.8 6.19998V15.428L20.664 14.564C20.7464 14.4756 20.8458 14.4046 20.9562 14.3554C21.0666 14.3062 21.1858 14.2798 21.3066 14.2777C21.4274 14.2755 21.5475 14.2978 21.6595 14.343C21.7716 14.3883 21.8734 14.4557 21.9589 14.5411C22.0443 14.6266 22.1117 14.7284 22.157 14.8405C22.2022 14.9525 22.2245 15.0726 22.2223 15.1934C22.2202 15.3142 22.1938 15.4334 22.1446 15.5438C22.0954 15.6542 22.0245 15.7536 21.936 15.836L19.536 18.236C19.3673 18.4045 19.1385 18.4992 18.9 18.4992C18.6615 18.4992 18.4328 18.4045 18.264 18.236L15.864 15.836C15.6955 15.6672 15.6008 15.4385 15.6008 15.2C15.6008 14.9615 15.6955 14.7327 15.864 14.564Z" fill="#5A646E"/>
</svg>
