<svg xmlns="http://www.w3.org/2000/svg" width="33" height="33" fill="none" viewBox="0 0 33 33"><g clip-path="url(#clip0_638_2892)"><path fill="#999FAA" d="M28.2457 7.58728C28.1364 7.21966 27.9111 6.89725 27.6035 6.66816C27.2959 6.43907 26.9225 6.3156 26.539 6.31616H7.0901C6.70047 6.31587 6.32153 6.44359 6.01157 6.67967C5.70161 6.91576 5.47779 7.24713 5.37454 7.62283L2.8501 17.8717H30.779L28.2457 7.58728Z"/><path fill="#999FAA" d="M2.59229 19.6497V25.8719C2.59229 26.3434 2.77959 26.7956 3.11298 27.129C3.44638 27.4624 3.89857 27.6497 4.37006 27.6497H29.259C29.7304 27.6497 30.1826 27.4624 30.516 27.129C30.8494 26.7956 31.0367 26.3434 31.0367 25.8719V19.6497H2.59229ZM27.4812 24.0941H23.9256V22.3163H27.4812V24.0941Z"/></g><defs><clipPath id="clip0_638_2892"><rect width="32" height="32" fill="#fff" transform="translate(0.814453 0.0939941)"/></clipPath></defs></svg>