<svg xmlns="http://www.w3.org/2000/svg" width="28" height="28" fill="none" viewBox="0 0 28 28"><mask id="mask0_3054_4354" style="mask-type:alpha" width="28" height="28" x="0" y="0" maskUnits="userSpaceOnUse"><rect width="28" height="28" fill="#D9D9D9"/></mask><g mask="url(#mask0_3054_4354)"><path fill="#FF324A" d="M1.16667 24.4999L14 2.33325L26.8333 24.4999H1.16667ZM5.19167 22.1666H22.8083L14 6.99992L5.19167 22.1666ZM14 20.9999C14.3306 20.9999 14.6076 20.8881 14.8313 20.6645C15.0549 20.4409 15.1667 20.1638 15.1667 19.8333C15.1667 19.5027 15.0549 19.2256 14.8313 19.002C14.6076 18.7784 14.3306 18.6666 14 18.6666C13.6695 18.6666 13.3924 18.7784 13.1688 19.002C12.9451 19.2256 12.8333 19.5027 12.8333 19.8333C12.8333 20.1638 12.9451 20.4409 13.1688 20.6645C13.3924 20.8881 13.6695 20.9999 14 20.9999ZM12.8333 17.4999H15.1667V11.6666H12.8333V17.4999Z"/></g></svg>