<?xml version="1.0" standalone="no"?>
<!DOCTYPE svg PUBLIC "-//W3C//DTD SVG 20010904//EN"
 "http://www.w3.org/TR/2001/REC-SVG-20010904/DTD/svg10.dtd">
<svg version="1.0" xmlns="http://www.w3.org/2000/svg"
 width="836.000000pt" height="836.000000pt" viewBox="0 0 836.000000 836.000000"
 preserveAspectRatio="xMidYMid meet">
<metadata>
Created by potrace 1.14, written by Peter Selinger 2001-2017
</metadata>
<g transform="translate(0.000000,836.000000) scale(0.100000,-0.100000)"
fill="#000000" stroke="none">
<path d="M3065 7594 c-38 -8 -83 -17 -99 -19 -16 -3 -32 -8 -36 -10 -4 -2 -20
-7 -36 -10 -16 -3 -54 -12 -84 -20 -30 -9 -62 -17 -70 -19 -8 -2 -35 -12 -60
-21 -25 -9 -52 -18 -60 -20 -8 -2 -17 -4 -20 -5 -3 -1 -9 -3 -15 -4 -5 -1 -27
-9 -49 -19 -21 -9 -41 -17 -43 -17 -3 0 -19 -6 -36 -14 -18 -8 -54 -24 -82
-36 -114 -50 -309 -152 -336 -176 -8 -8 -19 -14 -24 -14 -4 0 -23 -11 -41 -25
-18 -14 -35 -25 -38 -25 -6 0 -113 -74 -141 -97 -5 -5 -28 -22 -50 -38 -22
-17 -45 -34 -51 -40 -7 -5 -45 -38 -85 -72 -70 -59 -287 -278 -337 -340 -59
-72 -222 -291 -222 -297 0 -6 -50 -86 -60 -96 -3 -3 -14 -23 -25 -45 -11 -22
-23 -42 -26 -45 -9 -8 -115 -221 -139 -280 -12 -30 -28 -68 -35 -85 -25 -57
-94 -265 -88 -265 3 0 -1 -7 -8 -17 -8 -9 -13 -18 -11 -20 1 -1 2 -4 1 -5 0
-2 -2 -10 -4 -18 -2 -8 -14 -62 -28 -120 -14 -58 -28 -127 -32 -155 -5 -27
-10 -57 -11 -65 -8 -43 -19 -136 -29 -260 -6 -63 -5 -373 0 -445 3 -32 10 -64
15 -69 7 -7 10 -5 10 5 0 8 25 42 55 74 30 33 55 63 55 68 0 4 5 7 11 7 5 0
22 13 37 28 15 16 45 42 67 58 22 16 42 31 45 34 22 24 250 155 250 143 0 -3
6 -1 13 5 19 15 146 52 202 59 84 9 145 9 145 0 0 -4 4 -5 10 -2 16 10 142
-32 193 -65 64 -40 119 -96 197 -200 82 -108 249 -273 294 -289 6 -2 23 -14
39 -27 40 -34 259 -138 352 -168 44 -15 95 -31 113 -37 18 -6 45 -13 60 -15
15 -3 46 -9 69 -15 137 -30 478 -58 471 -38 -2 4 -34 41 -73 82 -38 41 -74 81
-80 89 -5 9 -24 35 -41 59 -67 95 -112 196 -147 329 -38 141 -48 220 -62 490
-6 105 -10 153 -20 200 -21 104 -29 134 -53 196 -15 38 -39 89 -52 113 -14 24
-31 54 -38 68 -19 35 -147 160 -172 168 -11 3 -20 9 -20 13 0 4 30 27 66 52
55 37 169 142 211 193 95 117 150 290 148 462 -1 65 -13 220 -20 255 -2 9 -6
40 -10 70 -3 30 -8 73 -11 95 -12 95 -12 258 1 319 12 58 70 214 84 226 4 3
19 25 35 50 35 54 102 136 136 167 29 26 23 27 -75 7z"/>
<path d="M6188 6696 c-1 -2 -46 -6 -98 -9 -52 -3 -106 -9 -120 -12 -14 -3 -40
-8 -59 -11 -19 -3 -45 -10 -58 -15 -13 -5 -23 -6 -23 -3 0 4 -7 1 -15 -6 -8
-7 -15 -10 -15 -6 0 9 -158 -52 -235 -91 -81 -41 -208 -121 -213 -134 -2 -5
-7 -9 -12 -9 -16 0 -156 -131 -228 -214 -93 -108 -204 -309 -251 -455 -90
-274 -96 -520 -21 -816 32 -125 49 -204 55 -261 3 -21 8 -64 12 -94 12 -96 6
-481 -8 -497 -1 -2 -3 -16 -4 -33 -1 -16 -3 -31 -5 -32 -1 -2 -3 -12 -5 -23
-14 -85 -22 -125 -25 -135 -1 -3 -2 -8 -1 -13 1 -4 -5 -23 -14 -42 -8 -20 -14
-38 -15 -40 0 -3 0 -6 -1 -7 0 -2 -2 -10 -4 -18 -23 -100 -125 -340 -201 -470
-43 -74 -153 -231 -207 -295 -63 -74 -194 -206 -266 -265 -29 -25 -63 -53 -75
-63 -27 -24 -198 -138 -251 -168 -72 -40 -172 -88 -277 -133 -36 -15 -128 -46
-140 -46 -4 -1 -23 -7 -43 -16 -19 -8 -35 -12 -35 -9 0 3 -13 -1 -29 -9 -16
-9 -31 -13 -33 -10 -3 2 -16 0 -29 -5 -22 -8 -38 -11 -139 -26 -19 -3 -51 -8
-70 -11 -110 -18 -311 -22 -460 -9 -52 5 -108 9 -125 11 -16 1 -30 3 -30 5 0
1 -9 3 -20 4 -37 5 -90 16 -130 26 -22 6 -48 13 -57 14 -47 9 -224 70 -230 80
-4 5 -8 7 -8 3 0 -17 -247 105 -375 185 -206 129 -416 320 -557 507 -63 83
-128 180 -128 190 0 5 -3 10 -7 10 -5 0 -13 10 -19 23 -90 177 -134 268 -134
275 0 5 -8 27 -17 48 -9 22 -17 41 -18 44 -1 3 -4 12 -8 20 -3 8 -16 49 -28
90 -12 41 -26 80 -31 85 -6 6 -7 5 -4 -5 6 -19 49 -213 48 -220 0 -3 4 -12 9
-21 4 -9 11 -31 14 -49 3 -18 12 -48 20 -66 8 -19 12 -34 10 -34 -8 0 96 -279
141 -378 13 -29 24 -57 24 -62 0 -6 5 -10 12 -10 6 0 9 -3 5 -6 -5 -5 62 -141
122 -246 11 -21 31 -55 42 -75 26 -47 154 -238 183 -274 12 -14 28 -36 36 -49
16 -23 22 -31 80 -101 181 -220 391 -423 606 -585 98 -74 98 -74 189 -134 33
-22 65 -43 70 -48 54 -43 346 -194 510 -264 132 -57 386 -146 440 -155 17 -3
48 -11 70 -18 36 -12 108 -29 175 -41 159 -30 201 -36 305 -49 156 -20 556
-26 715 -11 137 12 246 27 325 43 17 3 39 7 50 9 165 25 517 132 720 219 112
48 328 156 400 200 22 13 50 30 62 37 105 62 280 183 373 259 151 121 400 358
400 379 0 6 5 8 10 5 6 -3 10 -3 10 2 0 4 13 22 28 38 15 17 53 62 85 100 64
78 59 71 110 140 20 28 40 55 45 60 4 6 35 53 69 105 34 52 67 100 73 107 5 7
10 15 10 18 0 4 21 43 48 88 45 78 153 291 159 312 1 6 22 59 47 118 24 60 47
118 51 130 4 12 8 24 9 27 39 109 113 376 121 439 2 14 4 26 5 26 2 0 7 23 14
70 3 22 9 54 13 70 3 17 7 41 9 55 1 14 3 25 4 25 1 0 3 18 4 40 2 22 6 63 10
90 22 170 23 524 1 715 -3 25 -7 65 -10 89 -3 23 -7 55 -9 70 -6 33 -18 109
-22 136 -1 11 -3 20 -4 20 -1 0 -3 9 -5 20 -1 11 -7 40 -13 64 -6 25 -9 49 -6
53 3 4 0 8 -7 8 -7 0 -10 3 -6 6 3 3 -2 29 -10 57 -8 29 -17 59 -18 67 -2 8
-4 15 -5 15 -1 0 -3 9 -4 20 -6 45 -120 366 -161 450 -85 177 -196 320 -354
455 -60 52 -216 157 -246 166 -11 4 -22 10 -25 14 -5 7 -123 59 -145 63 -5 2
-15 6 -21 9 -6 4 -21 9 -35 12 -13 2 -46 11 -74 20 -75 22 -160 36 -255 42
-47 3 -90 7 -97 9 -6 2 -13 2 -15 1z"/>
</g>
</svg>
