<svg t="1733463650934" class="icon" viewBox="0 0 2048 1024" version="1.1" xmlns="http://www.w3.org/2000/svg" p-id="13352" width="200" height="200"><path d="M1183.28915187 848.05331375c277.37282531-17.84228063 532.63828219-114.69529781 768-215.99111437-161.36245875 107.97778594-980.15253656 518.77674938-985.66160625 239.34246562 1.06627219-34.47612 15.46094062-72.36430969 44.1791925-113.55794156 25.41280969-40.05627563 61.87930406-80.14809375 98.34579844-123.58089563 56.37023344-65.68234031 195.58978125-218.19474281 243.10995844-312.80859 8.85005531-17.80673812 14.35912594-34.5116625 16.56275531-48.97741594 5.54461312-84.59089219-101.65124062-118.00074-260.77452844-162.53535656l-30.92188031 18.90855188 59.67567563 48.97741593C867.24620469 225.70603438 705.95483187 275.8208075 510.36504969 344.84413156l27.61643906 70.12513875-98.34579844 96.85301813c16.56275437 3.34098469 187.84154062 61.23954094 364.66493906-63.44316938l1.06627219-1.13735718 2.23917-2.2036275c-5.54461312-8.88559781-16.59829687-18.94409437-32.0592375-31.17067782 53.06479125 3.34098469 85.08848531 50.11477219 79.57941563 97.95483188h-23.20918219c1.06627219-16.70492438-3.30544219-32.27249156-7.74824156-44.5346175-137.01592031 102.43317281-297.24102188 115.7971125-433.1551275 67.88596875v120.27545344c-67.42391719 23.35135125-182.33246906 96.85301719-182.33246907 166.97815593 4.40725687 34.5116625 20.97001125 46.7737875 37.56830813 55.65938531 150.2732325 85.72824844 556.94927813-31.17067781 555.81192094-31.17067687C656.23102531 922.62125094 511.46686437 982.75897812 297.07515781 991.64457594c-283.98370969-5.58015562-324.85746-195.94520531-193.35061125-394.09403907 127.06405031-200.38800469 327.06108844-378.52647188 646.40947781-492.08441343C842.97075125 72.05627563 978.88485781 35.34098469 1110.39170656 32c188.94335438 0 372.37763812 56.7612 360.22214063 240.47982188-8.85005531 141.38763375-205.54165125 335.09366906-311.63569125 477.5831175-46.38282094 61.23954094-54.1310625 103.5349875 24.31099593 97.95483187zM1362.35172125 205.62458375c43.46834531 16.70492438 55.87263937 35.64901875 43.46834531 55.65938531 12.4398375-22.2495375 0-41.15808937-43.46834531-55.65938531z" fill="#ff6600" p-id="13353"></path></svg>