<svg t="1733132797968" class="icon" viewBox="0 0 1024 1024" version="1.1" xmlns="http://www.w3.org/2000/svg" p-id="4274" width="256" height="256"><path d="M380.629333 385.429333L284.650667 626.773333h80.576l57.450666-160.853333 57.344 160.853333h82.56l-95.893333-241.344h-86.058667z m557.866667 240.810667h78.997333V384.896h-78.997333v241.344zM222.72 518.4c-8.682667-10.176-18.624-18.538667-36.970667-22.741333 12.074667-3.946667 17.706667-8.085333 23.936-14.869334 9.386667-10.197333 14.165333-22.464 14.165334-36.736 0-16.96-6.656-31.232-19.818667-42.752C190.933333 389.802667 171.989333 384 147.413333 384H0v52.885333h128.213333s19.925333 0.96 19.626667 19.797334c-0.256 20.416-20.181333 20.202667-20.181333 20.202666H0v53.077334h119.338667c8.597333 0 22.293333-1.792 29.376 3.562666 5.589333 4.245333 7.850667 7.616 7.850666 14.72 0 7.722667-2.773333 13.866667-8.298666 18.432-5.589333 4.544-10.773333 5.653333-28.757334 5.888H0v52.778667h135.893333c5.781333 0 17.578667-1.173333 35.349334-3.349333 13.354667-1.621333 23.317333-4.224 29.930666-7.893334a65.493333 65.493333 0 0 0 25.258667-23.68 63.146667 63.146667 0 0 0 9.216-33.749333c0-15.36-4.330667-28.117333-12.906667-38.272z m526.848-53.866667l57.322667 160.810667h82.56L793.6 384h-86.058667l-95.957333 241.344h80.554667l57.472-160.810667z" fill="#231F20" p-id="4275"></path></svg>