<svg xmlns="http://www.w3.org/2000/svg" width="20" height="20" viewBox="0 0 20 20" fill="none">
  <g clip-path="url(#clip0_19_425)">
    <path d="M8.51389 9.86351V1.43296C8.51389 1.00851 8.51389 1.0074 8.945 1.00684H12.8889C13.2433 1.00684 13.2567 1.01573 13.2567 1.36462C13.2567 5.10518 13.2556 8.84629 13.2539 12.5891C13.2539 14.4763 13.2639 16.3635 13.2678 18.2502C13.2678 18.6802 13.2678 18.6824 12.815 18.683H8.87111C8.52389 18.683 8.51722 18.6768 8.51722 18.3441V9.8624L8.51389 9.86351ZM0 18.7763C0.179444 18.4207 0.315555 18.1396 0.461111 17.8618C0.921111 16.9685 1.39111 16.0785 1.83944 15.1796C1.915 15.0274 1.92944 14.8374 1.93 14.6646C1.93556 11.5835 1.93556 8.50351 1.93 5.42462C1.92667 5.08684 2.00222 4.7524 2.15 4.44629C2.656 3.38617 3.15361 2.32206 3.64278 1.25407C3.725 1.07462 3.835 0.995733 4.04056 1.00018C4.74167 1.00851 5.44278 1.00296 6.14389 1.00462C6.50444 1.00462 6.51222 1.01184 6.51222 1.36018V11.1841C6.51222 12.3602 6.52167 13.5363 6.50722 14.7124C6.50278 14.9385 6.45167 15.1618 6.35611 15.368C5.88278 16.3957 5.38389 17.413 4.90278 18.438C4.79167 18.6741 4.645 18.7702 4.36056 18.7668C3.07278 18.7557 1.78389 18.7713 0.496666 18.7768L0 18.7763ZM15.2417 12.4257V6.51351C15.2417 6.1224 15.2417 6.11684 15.6517 6.11629C16.9661 6.11407 18.2806 6.11407 19.5961 6.11629C19.98 6.11629 19.9917 6.13296 19.9917 6.50518L20 18.3057C20 18.3902 19.9944 18.4746 19.9911 18.5596C19.9856 18.703 19.9156 18.7696 19.76 18.7696C18.3322 18.7696 16.9044 18.7718 15.4778 18.7763C15.3239 18.7763 15.2489 18.718 15.2528 18.5674V12.4257H15.2417ZM17.6 4.62407C16.9089 4.62407 16.2167 4.61573 15.5256 4.62851C15.3028 4.6324 15.2394 4.55629 15.2406 4.35073C15.2472 3.35351 15.2406 2.35573 15.2406 1.35796C15.2406 1.02573 15.2594 1.00907 15.5933 1.00796C16.9678 1.00518 18.3422 1.00796 19.7172 1.00073C19.9228 1.00073 19.9917 1.06684 19.9906 1.26518C19.9867 2.26351 19.9961 3.26129 19.9978 4.25851C19.9978 4.59573 19.9789 4.61018 19.6211 4.61073H17.5989L17.6006 4.62407H17.6Z" fill="#E06639"/>
  </g>
  <defs>
    <clipPath id="clip0_19_425">
      <rect width="20" height="20" fill="white"/>
    </clipPath>
  </defs>
</svg>