<svg xmlns="http://www.w3.org/2000/svg" width="20" height="20" viewBox="0 0 20 20" fill="none">
  <path d="M1.87904 12.428C1.87617 10.2129 1.87329 7.99778 1.87329 5.78268C1.87329 5.49212 2.02288 5.26486 2.27316 5.11815C3.16208 4.59746 4.05099 4.07676 4.94566 3.5647C6.33513 2.76496 7.72748 1.97098 9.11983 1.17412C9.26367 1.09357 9.40463 1.01015 9.53983 0.915213C9.91957 0.653428 10.3022 0.601647 10.7135 0.846171C11.2486 1.16549 11.7866 1.47618 12.3245 1.78687C14.0448 2.78222 15.768 3.7747 17.4883 4.76718C17.681 4.87938 17.8767 4.98582 18.0665 5.10089C18.3427 5.26774 18.4865 5.51226 18.4865 5.83733C18.4865 8.72272 18.4923 11.6081 18.4837 14.4935C18.4837 14.7955 18.3427 15.0516 18.0579 15.2155C17.379 15.6097 16.6799 15.975 16.0154 16.3864C15.0603 16.9761 14.0621 17.4824 13.1099 18.0779C12.5432 18.4318 11.9477 18.7424 11.3694 19.0733C11.1134 19.22 10.8603 19.3696 10.6071 19.522C10.3367 19.686 10.0634 19.6946 9.78723 19.5364C8.68544 18.9007 7.58364 18.2649 6.47897 17.6291C5.27073 16.933 4.0625 16.2397 2.85714 15.5435C2.63851 15.4169 2.42275 15.2932 2.21275 15.1551C1.98836 15.0055 1.87904 14.7812 1.87904 14.5165C1.87617 13.8376 1.88192 13.1587 1.8848 12.4798C1.91644 12.4682 1.91644 12.4481 1.87904 12.428ZM8.84366 8.02367C8.88681 7.98914 8.92996 7.95175 8.97599 7.92298C10.3223 7.14913 11.6686 6.37529 13.0178 5.60144C13.0725 5.5698 13.1444 5.5698 13.1473 5.48062C13.1502 5.38568 13.0667 5.38856 13.015 5.35979C12.221 4.89951 11.4212 4.44499 10.6301 3.97608C10.3022 3.78046 9.98861 3.80922 9.68367 3.98758C8.78612 4.5054 7.89721 5.03472 7.00254 5.55829C6.37828 5.92364 5.74828 6.28323 5.12114 6.6457C4.76155 6.85283 4.58319 7.1405 4.58894 7.57777C4.60621 9.32683 4.60045 11.0759 4.59182 12.825C4.58894 13.2191 4.77306 13.4809 5.08662 13.6679C5.69937 14.0332 6.32075 14.3928 6.945 14.7409C7.15788 14.8588 7.35638 15.0142 7.64406 15.1005V9.87342C7.77063 10.256 8.00653 10.5379 8.36037 10.7451C8.90407 11.0615 9.59449 10.9896 10.0461 10.5408C10.5726 10.0201 10.6071 9.31245 10.2964 8.78025C9.9771 8.22504 9.4449 8.04668 8.84366 8.02367ZM10.4546 16.4152C10.7337 16.3404 10.9609 16.1419 11.2141 15.998C12.0138 15.5435 12.8021 15.066 13.6076 14.6201C14.134 14.3266 14.6403 14.0016 15.184 13.7369C15.512 13.5787 15.7622 13.2968 15.7622 12.8883C15.7651 11.073 15.768 9.26067 15.7651 7.44544C15.7651 7.22681 15.6644 7.17215 15.4947 7.30735C14.9769 7.71298 14.3757 7.98052 13.8118 8.30847C12.7474 8.92984 11.6801 9.54547 10.6129 10.164C10.446 10.2589 10.3827 10.3682 10.3856 10.5638C10.3914 12.4424 10.3885 14.3238 10.3885 16.2023C10.3827 16.2713 10.3597 16.3519 10.4546 16.4152Z" fill="#066AF3"/>
  <path d="M1.87891 12.428C1.9163 12.4481 1.9163 12.4683 1.87891 12.4884V12.428Z" fill="#4372E0"/>
  <path d="M7.64396 9.87056C7.53752 9.00465 7.91437 8.42355 8.84356 8.02368C9.44768 8.0467 9.977 8.22505 10.2963 8.77739C10.6041 9.31247 10.5725 10.0173 10.046 10.538C9.59152 10.9867 8.90397 11.0587 8.36027 10.7422C8.00643 10.5351 7.76766 10.2532 7.64396 9.87056Z" fill="#002A9A"/>
</svg>