<svg xmlns="http://www.w3.org/2000/svg" width="20" height="20" viewBox="0 0 20 20" fill="none">
  <path fill-rule="evenodd" clip-rule="evenodd" d="M2.49157 11.9795C2.49157 10.7839 3.19649 9.58412 4.57642 8.63752C5.95094 7.69505 7.90674 7.0773 10.1193 7.0773C12.3318 7.0773 14.2876 7.69505 15.6621 8.63752C16.3575 9.11495 16.8818 9.65705 17.2309 10.2294C17.6546 9.44517 17.838 8.6114 17.7388 7.78037C17.732 7.72532 17.7388 7.6703 17.7538 7.61937C17.4713 7.3621 17.167 7.12132 16.8451 6.90117C15.0795 5.68905 12.6985 4.97357 10.1206 4.97357C7.54274 4.97357 5.16182 5.68905 3.39614 6.90117C1.63319 8.11057 0.397217 9.8882 0.397217 11.9795C0.397217 14.0708 1.63319 15.8485 3.39342 17.0565C5.15909 18.2686 7.54004 18.9841 10.1179 18.9841C12.6958 18.9841 15.0781 18.2686 16.8424 17.0565C18.6026 15.8485 19.8386 14.0722 19.8386 11.9795C19.8386 10.649 19.3388 9.44655 18.5225 8.43665C18.4804 9.36812 18.1531 10.2624 17.6098 11.0769C17.6994 11.3755 17.7443 11.6782 17.7443 11.9795C17.7443 13.1751 17.0393 14.3749 15.6594 15.3215C14.2849 16.264 12.3291 16.8817 10.1166 16.8817C7.90404 16.8817 5.94822 16.264 4.57372 15.3215C3.19512 14.3749 2.48886 13.1751 2.48886 11.9795H2.49157Z" fill="#3762FF"/>
  <path fill-rule="evenodd" clip-rule="evenodd" d="M2.47645 9.53728C1.91823 11.1278 2.04997 12.5628 2.77662 13.592C3.50325 14.6211 4.8085 15.2224 6.4886 15.2224C8.166 15.2224 10.1218 14.6115 11.9187 13.3347C13.7156 12.0579 14.9394 10.411 15.4963 8.8232C16.0545 7.2327 15.9227 5.79768 15.1961 4.7685C14.4694 3.73935 13.1642 3.13811 11.4841 3.13811C9.8067 3.13811 7.8509 3.749 6.05397 5.0258C4.25707 6.3026 3.03332 7.94953 2.47645 9.53728ZM0.46766 8.82733C1.18887 6.7759 2.71007 4.78228 4.82345 3.2812C6.93545 1.77874 9.31505 1 11.4827 1C13.6477 1 15.7014 1.78562 16.9346 3.53298C18.1665 5.28033 18.2249 7.48448 17.5051 9.53453C16.7838 11.586 15.2626 13.5796 13.1493 15.0807C11.0359 16.5818 8.65767 17.3605 6.4886 17.3619C4.32362 17.3619 2.27 16.5763 1.03675 14.8289C-0.196504 13.0815 -0.253548 10.876 0.466302 8.82733H0.46766Z" fill="#1041F3"/>
</svg>