<svg xmlns="http://www.w3.org/2000/svg" width="20" height="20" viewBox="0 0 20 20" fill="none">
  <g clip-path="url(#clip0_19_525)">
    <path d="M19.7907 4.23687C19.5785 4.13329 19.4875 4.33034 19.3629 4.43056C19.3208 4.46424 19.2846 4.50635 19.2492 4.54424C18.9393 4.87687 18.5781 5.0933 18.1056 5.06719C17.4143 5.02929 16.8248 5.24656 16.3035 5.77625C16.1915 5.12277 15.8235 4.73371 15.2635 4.48361C14.9696 4.35308 14.6732 4.2234 14.4686 3.94045C14.3246 3.74003 14.2858 3.51602 14.2134 3.29623C14.1679 3.16234 14.1225 3.02676 13.9692 3.00318C13.8033 2.97707 13.7385 3.11686 13.6728 3.23308C13.4117 3.71055 13.3107 4.23687 13.3199 4.76993C13.3435 5.96656 13.8488 6.92067 14.8526 7.59941C14.9671 7.67773 14.9957 7.75605 14.9604 7.86973C14.8921 8.10299 14.8105 8.33036 14.738 8.56363C14.6926 8.71352 14.6244 8.74637 14.4652 8.68152C13.924 8.44934 13.4325 8.11511 13.0176 7.6971C12.3035 7.00657 11.6584 6.24362 10.8534 5.64656C10.6639 5.50677 10.4753 5.37709 10.2799 5.2533C9.45801 4.45329 10.3877 3.79729 10.6024 3.72066C10.8273 3.63981 10.6808 3.36023 9.95402 3.3636C9.22728 3.36697 8.56201 3.61034 7.71485 3.93371C7.58924 3.98268 7.45963 4.02072 7.32748 4.0474C6.53537 3.89916 5.72548 3.87077 4.92494 3.96318C3.35356 4.14003 2.09882 4.88277 1.17587 6.15267C0.0684948 7.67689 -0.192559 9.41163 0.1266 11.2205C0.462602 13.1245 1.43355 14.7034 2.92746 15.9371C4.47441 17.2155 6.258 17.842 8.29169 17.7224C9.52623 17.6508 10.9022 17.4849 12.4534 16.1712C12.845 16.3649 13.2551 16.4424 13.9372 16.5014C14.4618 16.551 14.9671 16.4752 15.3578 16.3944C15.9709 16.2647 15.9279 15.6971 15.7065 15.5919C13.9111 14.7548 14.3044 15.095 13.9465 14.8205C14.8593 13.7384 16.2345 12.615 16.7726 8.97626C16.8147 8.68742 16.7785 8.50637 16.7726 8.27142C16.7692 8.12994 16.8012 8.07352 16.9637 8.05752C17.4151 8.01186 17.853 7.87735 18.2522 7.66173C19.416 7.02425 19.8842 5.98004 19.9953 4.72698C20.0122 4.53582 19.992 4.33708 19.7907 4.23687ZM9.65086 15.5136C7.91022 14.1434 7.06558 13.6929 6.71779 13.7131C6.39189 13.7308 6.45 14.1047 6.52158 14.3481C6.59653 14.5881 6.69421 14.754 6.83148 14.9645C6.92663 15.1043 6.99148 15.3131 6.73716 15.4681C6.17631 15.8167 5.20199 15.351 5.15568 15.3283C4.02136 14.6605 3.07314 13.7771 2.40451 12.5695C1.76029 11.4074 1.38555 10.1603 1.32324 8.82974C1.3064 8.50721 1.40155 8.39352 1.72071 8.33626C2.14107 8.25606 2.57166 8.24469 2.99567 8.30258C4.77168 8.56363 6.2841 9.35942 7.55148 10.6175C8.27569 11.3359 8.82306 12.1931 9.38728 13.0302C9.98602 13.9203 10.6319 14.7674 11.4538 15.4613C11.7427 15.7047 11.9751 15.8908 12.1957 16.0272C11.5279 16.1013 10.413 16.1173 9.65086 15.5136ZM10.4845 10.1409C10.4845 10.0729 10.5116 10.0077 10.5597 9.95958C10.6077 9.91149 10.673 9.88448 10.741 9.88448C10.809 9.88448 10.8742 9.91149 10.9223 9.95958C10.9704 10.0077 10.9974 10.0729 10.9974 10.1409C10.9974 10.2841 10.8829 10.3969 10.7397 10.3969C10.706 10.3972 10.6725 10.3908 10.6413 10.378C10.61 10.3652 10.5817 10.3463 10.5579 10.3223C10.5341 10.2984 10.5154 10.2699 10.5028 10.2386C10.4902 10.2073 10.484 10.1738 10.4845 10.1401V10.1409ZM13.0757 11.4731C12.9098 11.5405 12.7439 11.5994 12.5839 11.6062C12.3444 11.6135 12.1097 11.5386 11.9187 11.394C11.6913 11.2028 11.5288 11.0959 11.4589 10.7607C11.436 10.5977 11.4405 10.4321 11.4723 10.2706C11.5313 9.9969 11.4656 9.82342 11.2744 9.66427C11.117 9.53374 10.9191 9.49921 10.7001 9.49921C10.6251 9.49482 10.5523 9.47228 10.4879 9.43353C10.397 9.38721 10.322 9.27353 10.3936 9.13374C10.4163 9.08911 10.5275 8.97963 10.5536 8.95942C10.85 8.79016 11.1919 8.84574 11.5086 8.97289C11.8024 9.09247 12.0231 9.31311 12.3422 9.62384C12.669 10.0003 12.7271 10.1055 12.9132 10.3868C13.0597 10.6091 13.1936 10.8365 13.2846 11.0959C13.3401 11.2575 13.2677 11.3906 13.0757 11.4731Z" fill="#4D6BFE"/>
  </g>
  <defs>
    <clipPath id="clip0_19_525">
      <rect width="20" height="20" fill="white"/>
    </clipPath>
  </defs>
</svg>