<svg xmlns="http://www.w3.org/2000/svg" width="20" height="20" viewBox="0 0 20 20" fill="none">
  <path fill-rule="evenodd" clip-rule="evenodd" d="M11.2499 1.19138L13.7089 2.61105L13.7057 2.61646C13.7343 2.62815 13.7622 2.64182 13.7892 2.6574C14.392 3.00547 14.1579 4.07039 13.4883 4.26061C12.7362 4.47423 12.0225 4.77879 11.3596 5.16165C13.1451 6.80268 14.3916 9.02108 14.803 11.5208C15.4983 11.1087 16.1362 10.6099 16.7016 10.0392C17.1894 9.54688 18.2535 9.87195 18.2535 10.565V13.3219C18.2535 14.215 17.777 15.0403 17.0035 15.4869L13.9702 17.2382L13.9593 17.2191C13.3875 17.3676 12.709 16.6494 12.8893 16.0472C13.0842 15.3961 13.2106 14.7154 13.2604 14.0136C12.2292 14.33 11.1342 14.5002 9.99937 14.5002C8.83538 14.5002 7.71323 14.3211 6.65899 13.9889C6.70626 14.6818 6.82834 15.3541 7.01722 15.9979C7.19753 16.6125 6.4958 17.3379 5.91755 17.1563L5.91012 17.1692L2.9964 15.4869C2.2229 15.0403 1.7464 14.215 1.7464 13.3219V10.5661C1.7464 9.87307 2.81029 9.54795 3.29814 10.0402C3.84414 10.5911 4.4576 11.075 5.12509 11.4786C5.54356 8.99607 6.78603 6.79343 8.56149 5.16165C7.91262 4.78688 7.21498 4.48713 6.48042 4.27427C5.81148 4.08043 5.58192 3.02043 6.18507 2.6722C6.19859 2.6644 6.21233 2.65707 6.22626 2.65023L6.22548 2.64888L8.74993 1.19138C9.52344 0.744799 10.4764 0.7448 11.2499 1.19138ZM8.50596 3.25674C9.01264 3.49118 9.49866 3.76269 9.96054 4.0678C10.4357 3.7539 10.9365 3.47556 11.459 3.23656L10.4166 2.63476C10.1588 2.4859 9.8411 2.4859 9.58327 2.63476L8.50596 3.25674ZM3.41307 12.3363V13.3219C3.41307 13.6196 3.5719 13.8947 3.82973 14.0435L5.05968 14.7537C5.00062 14.2899 4.97017 13.8171 4.97017 13.3373L4.97024 13.2984C4.4235 13.0201 3.90289 12.6978 3.41307 12.3363ZM14.855 14.8028L16.1701 14.0435C16.428 13.8947 16.5868 13.6196 16.5868 13.3219V12.3354C16.0735 12.7144 15.5264 13.0502 14.9509 13.3375C14.9509 13.8343 14.9182 14.3234 14.855 14.8028ZM13.2243 12.268C12.2181 12.634 11.1321 12.8336 9.99937 12.8336C8.83866 12.8336 7.72691 12.624 6.6999 12.2406C6.98156 9.80749 8.18886 7.65651 9.96054 6.1489C11.7389 7.66218 12.9486 9.82368 13.2243 12.268Z" fill="#0884DD"/>
  <path d="M14.6501 4.11534C14.4192 4.51399 14.5556 5.02439 14.9545 5.25474L16.1701 5.95656C16.428 6.10542 16.5868 6.38053 16.5868 6.67825V8.36521C16.5868 8.82545 16.9599 9.19854 17.4201 9.19854C17.8804 9.19854 18.2535 8.82545 18.2535 8.36521V6.67825C18.2535 5.78509 17.777 4.95977 17.0035 4.51319L15.7879 3.81137C15.3897 3.58149 14.8806 3.71751 14.6501 4.11534Z" fill="#0884DD"/>
  <path d="M12.5241 17.1108C12.7542 17.5094 12.6177 18.0191 12.2191 18.2492L11.2499 18.8087C10.4764 19.2553 9.52344 19.2553 8.74993 18.8087L7.77194 18.2441C7.37295 18.0137 7.23659 17.5033 7.46753 17.1047C7.69799 16.7068 8.20711 16.5708 8.60528 16.8007L9.58327 17.3653C9.8411 17.5142 10.1588 17.5142 10.4166 17.3654L11.3858 16.8058C11.7843 16.5757 12.294 16.7122 12.5241 17.1108Z" fill="#0884DD"/>
  <path d="M2.57973 9.20785C2.1195 9.20785 1.7464 8.83475 1.7464 8.37452V6.67825C1.7464 5.78508 2.2229 4.95977 2.9964 4.51319L4.19282 3.82243C4.5914 3.59231 5.10106 3.72887 5.33118 4.12745C5.5613 4.52603 5.42473 5.03569 5.02616 5.26581L3.82973 5.95656C3.5719 6.10542 3.41307 6.38053 3.41307 6.67825V8.37452C3.41307 8.83475 3.03997 9.20785 2.57973 9.20785Z" fill="#0884DD"/>
</svg>