<svg width="152" height="46" viewBox="0 0 152 46" fill="none" xmlns="http://www.w3.org/2000/svg">
<g clip-path="url(#clip0_150_45)">
<path d="M24.2842 38H2.8335V7H24.7649C27.0326 7 29.0799 7.84439 30.6785 9.44325C32.4293 11.1946 33.3949 13.5831 33.3949 16.171V29.0323C33.3949 35.2127 27.4893 37.5934 24.3683 37.9922L24.2842 38.0039V38ZM5.40966 35.4864H24.1079C24.8771 35.3691 30.8187 34.2902 30.8187 29.0284V16.171C30.8187 14.2711 30.0975 12.4573 28.8355 11.1985C27.7177 10.0805 26.3475 9.51362 24.7649 9.51362H5.40565V35.4864H5.40966Z" fill="#2B59FF"/>
<path d="M20.8413 30.0445C20.1121 30.0445 19.3869 29.8412 18.6698 29.4385C17.4879 28.7661 16.7787 27.9139 16.1497 27.1634L16.1056 27.1086C15.4406 26.3112 14.8075 25.4941 14.1946 24.7045C13.7578 24.1416 13.3211 23.5786 12.8724 23.0196C12.4157 22.4528 11.9309 21.9641 11.39 21.5263C11.1937 21.366 10.9493 21.2253 10.6568 21.108C10.1881 20.9125 9.90762 20.9204 9.45489 21.1354C8.68164 21.5028 8.22491 21.9993 7.70006 22.5779C7.06703 23.2737 6.49411 23.9852 6.00131 24.6928C5.90115 24.8569 5.60467 25.3573 4.83142 25.4238L4.51091 25.4511L4.23045 25.2948C3.78974 25.0485 3.66153 24.6928 3.62147 24.5012C3.5173 23.9891 3.80577 23.6334 3.90192 23.5161C4.71924 22.3629 5.65676 21.1354 6.94684 20.0252C7.46368 19.5795 8.24494 18.911 9.67525 18.8016C11.358 18.6765 12.3636 19.3098 13.0527 19.8766C14.3548 20.9516 15.2442 22.1244 16.1056 23.262C16.2499 23.4535 16.3941 23.6412 16.5383 23.8327C16.6826 24.0204 16.8228 24.208 16.963 24.3957C17.7162 25.3925 18.4254 26.3346 19.455 27.1595C20.5408 28.0273 21.1378 28.0351 22.2315 27.1829C23.2332 26.405 23.9143 25.502 24.6354 24.5481C24.7756 24.3644 24.9159 24.1767 25.0561 23.993C25.2484 23.7428 25.4327 23.4926 25.621 23.2424C26.5145 22.0462 27.4359 20.807 28.8983 19.7046C29.5033 19.2472 30.3807 18.7351 31.783 18.7899C32.5322 18.8211 33.1051 18.9658 33.6299 19.259C35.1644 20.1073 36.0418 21.2096 36.8151 22.183L37.0154 22.4332C37.388 22.8984 37.7406 23.3636 38.0932 23.8327C38.8504 24.8413 39.5675 25.7912 40.465 26.6982C40.7775 27.0148 41.1781 27.3784 41.7591 27.6481C42.2318 27.867 42.5924 27.867 43.0452 27.6481C43.8104 27.2767 44.3072 26.7959 44.8641 26.147C45.2247 25.7248 45.5612 25.2987 45.9018 24.8687C46.1141 24.6028 46.3265 24.3331 46.5428 24.0673C46.8152 23.6099 47.2279 23.3753 47.7688 23.3636L48.1093 23.3558L48.3858 23.5474C48.6662 23.7428 48.8505 24.0204 48.8986 24.337C48.9747 24.8296 48.6943 25.1775 48.6021 25.2909L48.3297 25.6544C47.4683 26.8115 46.5749 28.0038 45.1526 29.0593C44.4354 29.591 43.586 30.0796 42.2399 30.0249C40.9458 29.9702 40.1685 29.4581 39.5355 28.9811C38.4417 28.1563 37.7125 27.2337 37.0034 26.3424L36.8792 26.1861C36.5346 25.7521 36.2061 25.3143 35.8776 24.8726C35.1885 23.9461 34.5354 23.0743 33.7181 22.2417C33.2854 21.7999 32.8888 21.452 32.3479 21.1706C31.815 20.893 31.5266 20.8852 31.0097 21.1393C29.936 21.6631 29.3631 22.3746 28.698 23.1916L28.4336 23.5161C27.9968 24.0438 27.5802 24.6028 27.1755 25.1384C26.3782 26.2017 25.5529 27.3041 24.4792 28.3439C24.1306 28.684 23.6418 29.118 22.9607 29.4776C22.2516 29.8529 21.5424 30.0405 20.8413 30.0405V30.0445Z" fill="#182547"/>
<path d="M49.8373 19.8109H45.4181C44.7897 19.8109 44.2803 20.308 44.2803 20.9211V25.233C44.2803 25.8461 44.7897 26.3432 45.4181 26.3432H49.8373C50.4657 26.3432 50.9751 25.8461 50.9751 25.233V20.9211C50.9751 20.308 50.4657 19.8109 49.8373 19.8109Z" fill="#EFF3F9"/>
<path d="M49.5084 27.3473H45.7423C44.3681 27.3473 43.2502 26.2566 43.2502 24.9157V21.2411C43.2502 19.9002 44.3681 18.8096 45.7423 18.8096H49.5084C50.8826 18.8096 52.0004 19.9002 52.0004 21.2411V24.9157C52.0004 26.2566 50.8826 27.3473 49.5084 27.3473ZM45.7423 20.815C45.5019 20.815 45.3096 21.0065 45.3096 21.2372V24.9118C45.3096 25.1464 45.5059 25.334 45.7423 25.334H49.5084C49.7487 25.334 49.9411 25.1425 49.9411 24.9118V21.2372C49.9411 21.0026 49.7447 20.815 49.5084 20.815H45.7423Z" fill="#2B59FF"/>
<path d="M6.58457 19.8109H2.16543C1.53702 19.8109 1.02759 20.308 1.02759 20.9211V25.233C1.02759 25.8461 1.53702 26.3432 2.16543 26.3432H6.58457C7.21298 26.3432 7.7224 25.8461 7.7224 25.233V20.9211C7.7224 20.308 7.21298 19.8109 6.58457 19.8109Z" fill="#EFF3F9"/>
<path d="M6.25811 27.3473H2.49203C1.11781 27.3473 0 26.2566 0 24.9157V21.2411C0 19.9002 1.11781 18.8096 2.49203 18.8096H6.25811C7.63233 18.8096 8.75014 19.9002 8.75014 21.2411V24.9157C8.75014 26.2566 7.63233 27.3473 6.25811 27.3473ZM2.49203 20.815C2.25164 20.815 2.05933 21.0065 2.05933 21.2372V24.9118C2.05933 25.1464 2.25564 25.334 2.49203 25.334H6.25811C6.4985 25.334 6.69081 25.1425 6.69081 24.9118V21.2372C6.69081 21.0026 6.49449 20.815 6.25811 20.815H2.49203Z" fill="#2B59FF"/>
</g>
<path d="M61.3821 34V12.6185H68.3849C70.547 12.6185 72.4316 13.0586 74.0388 13.9387C75.646 14.8188 76.8897 16.0625 77.7698 17.6697C78.6499 19.2578 79.09 21.1328 79.09 23.2949C79.09 25.4378 78.6499 27.3129 77.7698 28.9201C76.8897 30.5273 75.646 31.7805 74.0388 32.6798C72.4316 33.5599 70.547 34 68.3849 34H61.3821ZM64.1947 31.417H68.4136C70.0017 31.417 71.3697 31.0822 72.5177 30.4125C73.6848 29.7428 74.5841 28.8053 75.2155 27.5999C75.8469 26.3754 76.1626 24.9404 76.1626 23.2949C76.1626 21.6303 75.8373 20.1953 75.1868 18.9899C74.5554 17.7845 73.6561 16.8565 72.489 16.206C71.341 15.5363 69.9825 15.2015 68.4136 15.2015H64.1947V31.417ZM89.1698 34.3444C87.6774 34.3444 86.3476 33.9904 85.1805 33.2825C84.0133 32.5746 83.0949 31.6083 82.4253 30.3838C81.7556 29.1401 81.4208 27.753 81.4208 26.2223C81.4208 24.6725 81.746 23.2949 82.3966 22.0895C83.0662 20.8841 83.9655 19.937 85.0944 19.2482C86.2424 18.5403 87.5243 18.1863 88.9402 18.1863C90.0882 18.1863 91.1022 18.3968 91.9824 18.8177C92.8816 19.2195 93.6374 19.7744 94.2497 20.4823C94.8811 21.1711 95.3594 21.9651 95.6847 22.8644C96.0291 23.7445 96.2013 24.6629 96.2013 25.6196C96.2013 25.8301 96.1821 26.0692 96.1439 26.3371C96.1247 26.5858 96.096 26.825 96.0578 27.0546H83.3724V24.7586H94.508L93.2452 25.7918C93.4174 24.7969 93.3217 23.9072 92.9582 23.1227C92.5946 22.3382 92.0589 21.7164 91.351 21.2572C90.643 20.798 89.8394 20.5684 88.9402 20.5684C88.0409 20.5684 87.2182 20.798 86.472 21.2572C85.7258 21.7164 85.1422 22.3765 84.7213 23.2375C84.3195 24.0794 84.1568 25.0839 84.2334 26.251C84.1568 27.3799 84.329 28.3748 84.75 29.2358C85.19 30.0777 85.8023 30.7378 86.5868 31.2161C87.3904 31.6753 88.2609 31.9049 89.1985 31.9049C90.2317 31.9049 91.1022 31.6657 91.8102 31.1874C92.5181 30.7091 93.0921 30.0968 93.5322 29.3506L95.7708 30.4986C95.4646 31.2065 94.9863 31.8571 94.3358 32.4502C93.7044 33.0242 92.9486 33.4834 92.0685 33.8278C91.2075 34.1722 90.2412 34.3444 89.1698 34.3444ZM101.03 34V21.085H98.0742V18.5307H101.03V17.4401C101.03 16.3304 101.269 15.3928 101.748 14.6275C102.245 13.8622 102.896 13.2786 103.699 12.8768C104.522 12.475 105.431 12.2741 106.426 12.2741C106.636 12.2741 106.866 12.2932 107.115 12.3315C107.383 12.3506 107.603 12.3793 107.775 12.4176V14.7997C107.622 14.7614 107.44 14.7423 107.229 14.7423C107.019 14.7232 106.856 14.7136 106.742 14.7136C105.861 14.7136 105.134 14.9241 104.56 15.345C104.005 15.7659 103.728 16.4643 103.728 17.4401V18.5307H107.402V21.085H103.728V34H101.03ZM117.133 34.3444C115.641 34.3444 114.292 34 113.086 33.3112C111.881 32.6033 110.924 31.637 110.216 30.4125C109.508 29.188 109.154 27.8008 109.154 26.251C109.154 24.7012 109.499 23.3236 110.188 22.1182C110.896 20.9128 111.852 19.9561 113.058 19.2482C114.263 18.5403 115.621 18.1863 117.133 18.1863C118.625 18.1863 119.974 18.5403 121.18 19.2482C122.385 19.937 123.332 20.8841 124.021 22.0895C124.729 23.2949 125.083 24.6821 125.083 26.251C125.083 27.8199 124.719 29.2167 123.992 30.4412C123.265 31.6466 122.299 32.6033 121.094 33.3112C119.907 34 118.587 34.3444 117.133 34.3444ZM117.133 31.7614C118.09 31.7614 118.951 31.5222 119.716 31.0439C120.5 30.5656 121.113 29.9055 121.553 29.0636C122.012 28.2217 122.242 27.2842 122.242 26.251C122.242 25.1987 122.012 24.2707 121.553 23.4671C121.113 22.6444 120.5 21.9938 119.716 21.5155C118.951 21.018 118.09 20.7693 117.133 20.7693C116.157 20.7693 115.277 21.018 114.493 21.5155C113.727 21.9938 113.115 22.6444 112.656 23.4671C112.197 24.2707 111.967 25.1987 111.967 26.251C111.967 27.2842 112.197 28.2217 112.656 29.0636C113.115 29.9055 113.727 30.5656 114.493 31.0439C115.277 31.5222 116.157 31.7614 117.133 31.7614ZM135.653 40.314C134.562 40.314 133.548 40.1418 132.611 39.7974C131.692 39.453 130.898 38.9747 130.229 38.3624C129.578 37.7693 129.081 37.0709 128.736 36.2673L131.233 35.1193C131.501 35.8464 132.008 36.4586 132.754 36.9561C133.52 37.4727 134.476 37.731 135.624 37.731C136.504 37.731 137.298 37.5588 138.006 37.2144C138.733 36.8891 139.307 36.3917 139.728 35.722C140.149 35.0715 140.36 34.2774 140.36 33.3399V29.8672L140.848 30.3838C140.312 31.4361 139.537 32.2397 138.523 32.7946C137.528 33.3495 136.428 33.6269 135.222 33.6269C133.768 33.6269 132.467 33.2921 131.319 32.6224C130.171 31.9336 129.272 31.0056 128.621 29.8385C127.971 28.6522 127.646 27.3416 127.646 25.9066C127.646 24.4525 127.971 23.1418 128.621 21.9747C129.272 20.8076 130.162 19.8892 131.291 19.2195C132.439 18.5307 133.74 18.1863 135.194 18.1863C136.399 18.1863 137.49 18.4637 138.466 19.0186C139.461 19.5543 140.255 20.3005 140.848 21.2572L140.446 21.9747V18.5307H143.058V33.3399C143.058 34.6792 142.742 35.8751 142.11 36.9274C141.479 37.9797 140.599 38.8025 139.47 39.3956C138.36 40.0079 137.088 40.314 135.653 40.314ZM135.452 31.0439C136.37 31.0439 137.193 30.8143 137.92 30.3551C138.666 29.8959 139.26 29.2836 139.7 28.5183C140.14 27.7338 140.36 26.8633 140.36 25.9066C140.36 24.9691 140.14 24.1081 139.7 23.3236C139.26 22.5391 138.666 21.9173 137.92 21.4581C137.193 20.9989 136.37 20.7693 135.452 20.7693C134.515 20.7693 133.663 20.9989 132.898 21.4581C132.132 21.9173 131.53 22.5391 131.09 23.3236C130.669 24.0889 130.458 24.9499 130.458 25.9066C130.458 26.8633 130.669 27.7338 131.09 28.5183C131.53 29.2836 132.123 29.8959 132.869 30.3551C133.634 30.8143 134.495 31.0439 135.452 31.0439Z" fill="#182547"/>
<defs>
<clipPath id="clip0_150_45">
<rect width="52" height="31" fill="white" transform="translate(0 7)"/>
</clipPath>
</defs>
</svg>