<svg width="580" height="580" viewBox="0 0 580 580" fill="none" xmlns="http://www.w3.org/2000/svg">
<path d="M492.55 250.45C493.42 248.79 495.4 244.48 495.05 239C494.9 236.71 494.61 232.06 491.35 230.25C488.22 228.51 484.32 230.48 483.56 230.86C479.59 232.86 477.81 236.71 477.14 238.19C468.78 256.86 463.08 278.84 463.08 278.84C458.19 297.7 454.65 304.62 456.2 305.43C457.6 306.16 462.41 301.55 477.15 278.71C477.15 278.71 479.62 275.13 492.53 250.45H492.55Z" fill="url(#paint0_radial_206_1923)"/>
<path d="M556.33 255.57C555.56 252.1 552.24 250.17 549.56 248.61C539.93 242.99 527.35 246.8 526.17 250.08C526.07 250.34 525.71 251.35 526.17 252.14C526.72 253.1 528.06 253.04 528.85 253.38C531.28 254.4 531.98 259.63 530.91 263.28C529.83 266.96 527 268.93 523.24 271.47C519.59 273.93 511.17 278.71 505.11 280.9C504.31 281.19 502.58 281.79 502.01 283.26C501.55 284.46 502.22 285.31 501.86 287.09C501.72 287.78 501.44 288.53 500.53 289.89C498.71 292.61 496.51 294.6 494.93 295.93C494.29 296.47 492.29 298.15 488.74 300.65C487.09 301.81 484.96 303.31 482.25 304.93C480.91 305.73 477.72 307.58 471.64 310.24C463.09 313.97 459.87 314.47 459.97 315.04C460.2 316.34 477.05 314.33 490.8 311.71C491.95 311.49 499.11 310.09 507.75 306.4C517.53 302.23 519.01 299.5 519.25 297.55C519.56 295.06 517.95 292.81 517.33 291.95C514.25 287.63 509.28 287.28 509.45 286.16C509.61 285.16 513.56 285.44 519.47 284.09C522.25 283.45 524.45 282.69 525.83 282.16C526.96 281.8 528.67 281.23 530.69 280.39C542.45 275.49 558.26 264.31 556.31 255.57H556.33Z" fill="url(#paint1_radial_206_1923)"/>
<path d="M521.84 317.87C517.24 317.07 513.73 317.37 508.36 317.87C501.92 318.47 496.64 319.55 492.41 320.57C479.6 323.65 471.51 325.59 471.51 327.98C471.52 330.25 483.05 332.15 506.11 335.84C521.59 338.33 528.44 339.05 532.63 334.72C535.14 332.13 536.56 327.86 535.32 324.61C533.53 319.91 526.69 318.71 521.84 317.87ZM524.01 329.23C522.82 331.83 517.16 331.66 506.25 330.69C490.68 329.32 482.78 328.62 482.78 327.41C482.78 326.51 487.77 325.76 497.74 324.25C497.99 324.21 502.09 323.6 507.59 323.15C510.61 322.91 512.87 322.81 515.62 323.03C521.97 323.54 523.15 325.13 523.47 325.62C524.03 326.48 524.56 328.03 524.01 329.23Z" fill="url(#paint2_radial_206_1923)"/>
<path d="M444.5 246.05C444.5 246.05 444.5 246 444.5 245.97C444.14 239.65 443.28 230.91 441.12 220.71C431.65 176.15 406.4 147.32 397.71 137.64C359.96 95.59 313.26 82.62 295.14 78.59C280.5 75.97 190.76 61.45 111.52 122.64C96.3601 134.35 25.6601 192.01 23.5601 285.93C21.3201 386.36 98.8701 465.84 174.82 492.68C234.65 513.82 292.31 501.36 302.14 499.1C313.27 496.55 348.2 487.59 380.95 464.31C388.45 458.98 393.19 454.78 395.97 452.19C402.8 445.82 422.65 426.87 431.55 396.31C433.14 390.87 434 386.35 434.45 383.66C430.87 383.47 427.09 383.37 423.13 383.39C419.4 383.41 415.83 383.53 412.43 383.72C412.03 383.72 411.58 383.7 411.1 383.63C410.38 383.53 409.68 383.35 409.01 383.1C408.64 382.72 408.24 382.35 407.82 381.99C406.77 381.08 405.6 380.21 404.3 379.38C404.3 379.38 404.3 379.38 404.3 379.37C396.04 374.12 383.03 370.73 368.39 370.73C345.21 370.73 326.11 379.23 323.5 390.17C323.63 390.16 323.76 390.16 323.89 390.16H358.24C359.03 390.19 361.17 390.38 363.12 391.74C363.14 391.76 363.17 391.77 363.19 391.79C363.46 391.98 363.72 392.19 363.98 392.44C364.13 392.58 364.27 392.73 364.41 392.88C364.48 392.96 364.55 393.03 364.61 393.11C364.63 393.13 364.64 393.15 364.65 393.16C365.19 393.81 365.52 394.4 365.66 394.66C366.37 395.99 366.57 397.23 366.63 397.97C367.59 405.6 366.06 411.17 364.84 414.1C364.76 414.29 364.68 414.48 364.6 414.67C364.34 415.25 364.05 415.83 363.76 416.41C363.69 416.54 363.62 416.68 363.56 416.81C363.28 417.34 363 417.87 362.69 418.4C362.6 418.56 362.51 418.7 362.42 418.86C362.12 419.36 361.82 419.87 361.5 420.37C361.42 420.49 361.35 420.6 361.27 420.72C360.89 421.3 360.5 421.88 360.09 422.46C357.98 425.43 352.79 430.51 350.35 432.85C348.55 434.39 346.93 435.62 345.45 436.73C344.53 437.42 341.4 439.76 338.15 441.73C334.65 443.85 328.69 446.95 319.99 449.25C320.1 448.15 320.15 447.04 320.15 445.91C320.15 438.13 317.68 431.01 313.59 425.59C311.96 441.88 296.94 455.36 276.76 459.9H276.73C274.76 460.16 272.77 460.39 270.77 460.58C266.5 461 262.19 461.28 257.83 461.42C255.65 461.49 253.46 461.53 251.26 461.53C147.46 461.53 63.3201 381.83 63.3201 283.5C63.3201 185.17 147.48 105.42 251.28 105.42C324.08 105.42 387.2 144.63 418.4 201.97C423.93 212.11 428.45 222.82 431.85 233.98C436.64 249.69 439.21 266.28 439.21 283.45C439.21 292.54 438.49 301.47 437.11 310.19C438.17 308.86 439.17 307.42 440.1 305.88C443.84 295 446.05 281.48 446.05 266.82C446.05 263.37 445.93 259.99 445.69 256.69C445.43 253.03 445.03 249.48 444.5 246.05Z" fill="url(#paint3_radial_206_1923)"/>
<path d="M376.68 259.54C375.05 254.88 372.93 250.46 370.36 246.33C366.84 240.66 362.48 235.55 357.47 231.17C354.74 228.78 351.82 226.62 348.73 224.7C349.5 226.57 349.92 228.62 349.92 230.76C349.92 231.06 349.91 231.36 349.89 231.66C347.09 227.02 341.99 223.91 336.17 223.91C327.62 223.91 320.63 230.6 320.17 239.03C318.71 236.61 317.87 233.78 317.87 230.76C317.87 224.24 321.76 218.63 327.35 216.13C322.97 215.21 318.45 214.73 313.81 214.73H191.31C191.88 217.79 192.55 220.77 193.29 223.75C193.6 225.02 193.92 226.29 194.25 227.56C194.77 229.58 195.32 231.6 195.88 233.65C196.04 234.23 196.19 234.82 196.32 235.41C196.37 235.63 196.42 235.85 196.46 236.07C196.47 236.11 196.48 236.16 196.49 236.21C196.82 237.72 197.1 239.24 197.38 240.78C197.4 240.86 197.41 240.95 197.43 241.03C197.45 241.14 197.47 241.26 197.5 241.38C197.54 241.58 197.58 241.79 197.61 241.99C197.89 243.47 198.19 244.92 198.57 246.36C198.58 246.38 198.58 246.39 198.58 246.41C198.75 247.04 198.94 247.67 199.13 248.29C199.18 248.46 199.24 248.64 199.29 248.8L199.32 248.89C199.52 249.49 199.75 250.08 200 250.66C200.17 251.09 200.36 251.51 200.56 251.92C200.74 252.28 200.92 252.63 201.1 252.99C201.11 253.01 201.12 253.02 201.13 253.04C202.41 255.5 203.81 257.87 204.92 260.43C204.94 260.47 204.96 260.52 204.97 260.56C204.99 260.59 205 260.62 205.01 260.66C205.13 260.92 205.23 261.18 205.32 261.44C205.48 261.86 205.63 262.28 205.76 262.7C205.93 263.23 206.09 263.77 206.25 264.3C206.74 265.96 207.21 267.63 207.93 269.19C210.31 274.37 213.96 279.08 216.68 284.11C216.91 284.54 217.14 284.96 217.38 285.37C217.55 285.68 217.73 285.99 217.91 286.28C218.09 286.58 218.27 286.88 218.45 287.16C218.55 287.32 218.65 287.48 218.76 287.64C219 288.01 219.24 288.37 219.49 288.72C219.65 288.96 219.82 289.19 219.99 289.41C220.17 289.64 220.34 289.86 220.52 290.08C220.7 290.3 220.88 290.51 221.06 290.72C221.24 290.92 221.41 291.12 221.6 291.31C221.8 291.53 222.01 291.74 222.22 291.94C222.32 292.04 222.42 292.14 222.53 292.23C222.63 292.33 222.74 292.42 222.85 292.52C223.47 293.07 224.13 293.58 224.85 294.06C225.37 294.41 225.93 294.74 226.51 295.05C228.51 295.89 230.58 296.55 232.72 297.11C232.98 297.14 233.24 297.16 233.5 297.18H233.54C234.1 297.21 234.66 297.21 235.23 297.17C235.33 297.17 235.42 297.17 235.51 297.15C235.54 297.16 235.57 297.15 235.6 297.15C235.7 297.14 235.8 297.13 235.91 297.12C235.93 297.12 235.95 297.12 235.97 297.11C235.98 297.12 235.99 297.12 236 297.11C236.14 297.11 236.27 297.09 236.41 297.07C236.61 297.05 236.81 297.02 237.01 296.98C237.06 296.98 237.11 296.98 237.17 296.96C237.36 296.93 237.56 296.9 237.76 296.86C237.96 296.83 238.16 296.79 238.36 296.75C239.48 296.53 240.66 296.24 241.95 295.91C252.49 293.23 262.04 284.94 267.45 275.57C273.07 265.84 288.14 274.64 282.51 284.38C282.29 284.76 282.07 285.13 281.84 285.51C281.67 285.79 281.5 286.07 281.32 286.34C281.15 286.62 280.97 286.89 280.79 287.16C280.52 287.58 280.24 287.99 279.95 288.41C278.81 290.07 277.57 291.7 276.23 293.3C275.95 293.63 275.67 293.96 275.39 294.29C275.34 294.35 275.29 294.4 275.25 294.45C274.96 294.78 274.67 295.1 274.37 295.43C273.74 296.13 273.08 296.83 272.41 297.5C271.74 298.18 271.06 298.84 270.36 299.49C269.62 300.18 268.87 300.85 268.1 301.5C267.78 301.78 267.45 302.05 267.12 302.32C267.1 302.33 267.08 302.35 267.07 302.36C266.71 302.65 266.35 302.94 265.99 303.22C265.59 303.53 265.18 303.84 264.78 304.14H264.77C264.45 304.38 264.14 304.61 263.82 304.82C263.39 305.13 262.96 305.43 262.52 305.73C262.47 305.77 262.41 305.8 262.36 305.84C261.9 306.15 261.43 306.45 260.96 306.74C260.51 307.02 260.06 307.29 259.6 307.56C259.57 307.58 259.53 307.6 259.5 307.62C259.46 307.65 259.41 307.68 259.36 307.7C258.92 307.95 258.47 308.2 258.02 308.44C257.89 308.53 257.75 308.6 257.61 308.66C257.44 308.76 257.26 308.86 257.08 308.94C255.6 309.7 254.1 310.37 252.58 310.95C252.45 311 252.31 311.05 252.17 311.1C251.95 311.19 251.72 311.27 251.49 311.35C251.11 311.48 250.74 311.61 250.36 311.73C250.21 311.78 250.06 311.83 249.91 311.87C249.57 311.98 249.22 312.08 248.88 312.17C248.35 312.31 247.82 312.46 247.3 312.6C246.89 312.71 246.49 312.82 246.08 312.92C245.42 313.09 244.76 313.27 244.1 313.42C244.07 313.43 244.05 313.43 244.02 313.44C243.67 313.53 243.33 313.61 242.98 313.68C242.7 313.75 242.43 313.81 242.15 313.86C241.76 313.95 241.36 314.03 240.97 314.1C240.71 314.16 240.44 314.21 240.18 314.25C239.57 314.36 238.97 314.46 238.36 314.53C238.17 314.56 237.99 314.58 237.8 314.6C237.68 314.62 237.56 314.64 237.43 314.65C237.33 314.66 237.24 314.67 237.15 314.68C237.12 314.68 237.09 314.68 237.05 314.69C236.8 314.72 236.55 314.74 236.29 314.75C236.27 314.76 236.24 314.76 236.21 314.76H236.13C235.93 314.79 235.73 314.8 235.53 314.8C235.44 314.81 235.35 314.81 235.27 314.81C235.12 314.82 234.98 314.83 234.84 314.83C234.52 314.84 234.21 314.85 233.89 314.85C233.55 314.85 233.2 314.84 232.86 314.83C232.4 314.81 231.94 314.78 231.49 314.74C231.14 314.71 230.78 314.67 230.44 314.62C230.06 314.57 229.67 314.51 229.29 314.44C229.25 314.44 229.22 314.43 229.18 314.42C228.97 314.38 228.76 314.34 228.54 314.29C228.24 314.23 227.94 314.16 227.64 314.08C227.34 314 227.04 313.92 226.74 313.83C226.36 313.71 225.97 313.59 225.59 313.46C225.52 313.44 225.46 313.42 225.39 313.39C225.15 313.31 224.91 313.23 224.68 313.14C224.11 312.94 223.58 312.71 223.03 312.49C216.48 309.77 211.61 305.85 209.39 303.86C209.03 303.54 208.7 303.22 208.39 302.92C208.34 302.87 208.29 302.82 208.24 302.78C208.19 302.75 208.16 302.71 208.14 302.67L208.05 302.58C206.46 300.89 205.33 299.37 203.99 297.35C203.96 297.32 203.94 297.29 203.92 297.25C203.29 296.31 202.62 295.26 201.83 294.04C199.77 290.82 198.24 287.99 196.21 283.91C193.26 277.97 190.04 272.12 187.01 263.53C184.33 255.94 181.76 249.67 179.98 241.93C178.08 233.71 175.58 225.88 174.12 217.55C174 216.82 173.95 216.09 173.96 215.37C141.4 219.63 116.02 247.6 116.02 281.28V294.06C116.02 330.66 145.97 360.6 182.57 360.6H185.74C185.72 360.36 185.72 360.12 185.72 359.88C185.72 346.14 196.85 335.01 210.58 335.01C224.31 335.01 235.45 346.14 235.45 359.88C235.45 360.12 235.45 360.36 235.43 360.6H305.15V318.53C305.15 318.24 305.15 317.95 305.17 317.67C305.17 317.38 305.19 317.09 305.22 316.81C305.25 316.41 305.28 316 305.33 315.61C305.38 315.21 305.43 314.81 305.5 314.42C305.56 314.06 305.63 313.7 305.7 313.34L305.73 313.22C305.81 312.84 305.9 312.47 306 312.1C306.09 311.75 306.2 311.39 306.31 311.04C306.32 311.01 306.33 310.97 306.35 310.92C306.45 310.58 306.57 310.24 306.7 309.9C306.7 309.89 306.71 309.87 306.72 309.85C306.85 309.49 306.99 309.14 307.14 308.79C307.27 308.48 307.41 308.18 307.55 307.88C307.59 307.78 307.64 307.69 307.68 307.6C307.83 307.3 307.98 307 308.14 306.71C308.31 306.4 308.49 306.09 308.67 305.78C308.82 305.54 308.97 305.29 309.12 305.05C309.3 304.77 309.49 304.49 309.69 304.22C309.88 303.94 310.09 303.65 310.31 303.38C310.49 303.13 310.69 302.89 310.89 302.66C311.03 302.48 311.17 302.31 311.33 302.14C311.4 302.05 311.48 301.96 311.56 301.88C311.73 301.68 311.91 301.49 312.1 301.3C312.33 301.06 312.57 300.82 312.81 300.58C313.06 300.35 313.31 300.11 313.57 299.89C313.58 299.88 313.58 299.87 313.59 299.87C313.87 299.61 314.17 299.37 314.47 299.13C314.77 298.88 315.08 298.64 315.4 298.42C315.65 298.23 315.9 298.06 316.15 297.9C316.25 297.82 316.35 297.75 316.46 297.69C316.75 297.49 317.05 297.31 317.36 297.13C317.62 296.97 317.89 296.82 318.16 296.67C318.59 296.44 319.04 296.21 319.49 296C319.81 295.85 320.13 295.71 320.46 295.58C320.98 295.36 321.51 295.16 322.04 294.98C322.33 294.88 322.62 294.78 322.91 294.7C324.05 294.36 325.22 294.1 326.41 293.93C326.79 293.87 327.18 293.83 327.57 293.79C328.38 293.71 329.19 293.67 330.01 293.67C333.22 293.67 336.3 294.28 339.12 295.4C346.72 298.38 352.5 305.02 354.29 313.15C354.41 313.68 354.51 314.22 354.59 314.76C354.6 314.85 354.62 314.94 354.63 315.04C354.68 315.38 354.72 315.72 354.75 316.06C354.78 316.31 354.8 316.56 354.82 316.81V316.86C354.84 317.13 354.85 317.4 354.86 317.67C354.88 317.95 354.88 318.24 354.88 318.53V316.81C354.88 316.54 354.88 316.28 354.86 316.02L355.3 317.9C355.37 318.46 355.49 319.01 355.66 319.57L355.78 319.95L357.82 328.71C357.93 329.38 358.05 330.04 358.19 330.69C358.21 330.7 358.24 330.7 358.26 330.71H358.29C358.57 330.78 358.84 330.85 359.13 330.91L361.51 338.67C361.64 339.08 361.79 339.48 361.96 339.86C363.23 338.53 364.45 337.14 365.61 335.71C366.91 334.09 368.14 332.41 369.29 330.68C374 323.58 377.39 315.53 379.1 306.9C379.21 306.36 379.31 305.82 379.4 305.27C380.02 301.63 380.35 297.88 380.35 294.06V281.28C380.35 273.68 379.06 266.36 376.68 259.54Z" fill="#242B59"/>
<path d="M170.37 266.36H131.37C122.892 266.36 116.02 273.232 116.02 281.71V376.61C116.02 385.088 122.892 391.96 131.37 391.96H170.37C178.848 391.96 185.72 385.088 185.72 376.61V281.71C185.72 273.232 178.848 266.36 170.37 266.36Z" fill="#242B59"/>
<path d="M305.15 319.49V376.61C305.15 385.05 298.24 391.96 289.8 391.96H250.8C242.36 391.96 235.45 385.05 235.45 376.61V319.49C235.45 317.84 235.72 316.25 236.21 314.76C236.24 314.76 236.26 314.76 236.29 314.75C236.79 314.71 237.3 314.66 237.8 314.6C238.33 314.54 238.86 314.47 239.39 314.38C239.92 314.3 240.44 314.2 240.97 314.1C241.36 314.03 241.76 313.95 242.15 313.86C242.37 313.82 242.6 313.77 242.83 313.72C243.25 313.62 243.68 313.52 244.1 313.42C244.76 313.26 245.42 313.09 246.08 312.92C246.49 312.82 246.89 312.71 247.3 312.6C247.83 312.46 248.35 312.31 248.88 312.17C249.23 312.08 249.57 311.98 249.91 311.87C250.21 311.78 250.51 311.69 250.81 311.58C251.27 311.43 251.72 311.28 252.17 311.1C252.45 311.01 252.72 310.9 252.99 310.79C253.33 310.66 253.67 310.52 254.01 310.38C254.65 310.11 255.29 309.82 255.93 309.51C256.3 309.33 256.66 309.15 257.03 308.96C257.36 308.79 257.69 308.62 258.02 308.44C260 307.37 261.94 306.15 263.82 304.82C264.13 304.59 264.44 304.37 264.75 304.14H289.8C298.24 304.14 305.15 311.05 305.15 319.49Z" fill="#242B59"/>
<path d="M354.88 316.81C354.88 317.1 354.88 317.39 354.86 317.67C354.85 317.4 354.84 317.13 354.82 316.86V316.81C354.8 316.56 354.78 316.31 354.75 316.06C354.72 315.72 354.68 315.38 354.63 315.04C354.62 314.94 354.6 314.85 354.59 314.76C354.51 314.22 354.41 313.68 354.29 313.15C352.5 305.02 346.72 298.38 339.12 295.4C336.3 294.28 333.22 293.67 330.01 293.67C329.19 293.67 328.38 293.71 327.57 293.79C327.18 293.83 326.79 293.87 326.41 293.93C325.22 294.1 324.05 294.36 322.91 294.7C322.62 294.79 322.33 294.88 322.04 294.98C321.51 295.16 320.98 295.36 320.46 295.58C320.13 295.71 319.81 295.85 319.49 296C319.04 296.21 318.59 296.44 318.16 296.67C317.89 296.82 317.62 296.97 317.36 297.13C317.05 297.31 316.75 297.49 316.46 297.69C316.35 297.75 316.25 297.82 316.15 297.9C315.9 298.06 315.65 298.23 315.4 298.42C315.08 298.64 314.77 298.88 314.47 299.13C314.17 299.37 313.87 299.61 313.59 299.87C313.58 299.87 313.58 299.88 313.57 299.89C313.31 300.11 313.06 300.35 312.81 300.58C312.57 300.82 312.33 301.06 312.1 301.3C311.91 301.49 311.73 301.68 311.56 301.88C311.48 301.96 311.4 302.05 311.33 302.14C311.17 302.31 311.03 302.48 310.89 302.66C310.69 302.89 310.49 303.13 310.31 303.38C310.09 303.65 309.88 303.94 309.69 304.22C309.49 304.49 309.31 304.76 309.12 305.05C308.97 305.29 308.82 305.54 308.67 305.78C308.49 306.09 308.31 306.4 308.14 306.71C307.98 307 307.83 307.3 307.68 307.6C307.64 307.69 307.59 307.78 307.55 307.88C307.4 308.18 307.26 308.48 307.14 308.79C306.98 309.14 306.84 309.49 306.72 309.85C306.71 309.87 306.7 309.89 306.7 309.9C306.57 310.24 306.45 310.58 306.35 310.92C306.33 310.97 306.32 311.01 306.31 311.04C306.19 311.39 306.09 311.74 306 312.1C305.89 312.47 305.8 312.84 305.73 313.22L305.7 313.34C305.62 313.7 305.55 314.05 305.5 314.42C305.43 314.81 305.37 315.21 305.33 315.61C305.28 316.01 305.24 316.4 305.22 316.81C305.19 317.09 305.18 317.38 305.17 317.67C305.15 317.39 305.15 317.1 305.15 316.81C305.15 303.08 316.28 291.94 330.01 291.94C333.1 291.94 336.07 292.51 338.8 293.55C347.53 296.84 353.91 304.91 354.77 314.56C354.77 314.6 354.78 314.64 354.78 314.68C354.83 315.12 354.85 315.57 354.86 316.02C354.88 316.28 354.88 316.54 354.88 316.81Z" fill="#242B59"/>
<path d="M437.85 320.69L437.64 322.37C437.64 322.37 437.63 322.45 437.63 322.49C437.62 325.11 437.27 327.69 436.61 330.17L436.58 330.29C435.81 333.15 434.65 335.89 433.16 338.46C433.1 338.55 433.05 338.65 432.99 338.74C432.83 339.02 432.67 339.28 432.5 339.55C432.46 339.61 432.43 339.66 432.39 339.72C425.61 350.4 413.12 357.89 400.35 357.89H391.89C376.48 357.89 363.36 347.66 358.98 333.66C358.87 333.31 358.76 332.96 358.67 332.6C358.49 331.97 358.33 331.34 358.19 330.69C358.05 330.04 357.93 329.38 357.82 328.71V328.64C357.65 327.61 357.54 326.57 357.48 325.5L359.13 330.91C360.84 331.27 362.62 331.43 364.42 331.35C364.73 331.34 365.03 331.32 365.34 331.29C365.65 331.27 365.95 331.23 366.26 331.19C366.57 331.15 366.88 331.1 367.19 331.05L368.78 330.78C368.95 330.75 369.12 330.72 369.29 330.68C376.97 329.16 382.96 323.65 385.44 316.7L383.68 310.98C383.59 310.68 383.48 310.38 383.36 310.09C383.29 309.89 383.2 309.71 383.11 309.52C383.08 309.45 383.04 309.37 383 309.3C382.96 309.21 382.92 309.13 382.87 309.05C382.76 308.83 382.63 308.62 382.5 308.41C382.38 308.21 382.24 308.01 382.1 307.82C382.08 307.8 382.06 307.77 382.04 307.75C381.94 307.61 381.83 307.47 381.71 307.34C381.66 307.26 381.59 307.19 381.52 307.11C381.46 307.04 381.4 306.97 381.33 306.9C381.2 306.75 381.05 306.61 380.91 306.48C380.84 306.41 380.77 306.34 380.69 306.28C380.68 306.26 380.66 306.24 380.64 306.23C380.47 306.07 380.3 305.93 380.12 305.79C379.89 305.61 379.65 305.43 379.4 305.27C376.84 303.57 373.58 302.99 370.44 303.95L362.69 306.33C361.97 306.55 361.28 306.85 360.65 307.21C360.54 307.26 360.43 307.33 360.32 307.4C360.28 307.42 360.24 307.44 360.2 307.47C360.13 307.51 360.06 307.56 359.99 307.61H359.97C359.47 307.95 359 308.32 358.57 308.73L358.42 308.88C358.34 308.95 358.26 309.03 358.2 309.11C358.07 309.23 357.95 309.36 357.84 309.49C357.69 309.66 357.55 309.83 357.41 310.01V273.21C357.41 262.37 362.47 252.66 370.36 246.33C371.74 245.23 373.2 244.23 374.74 243.34C374.94 243.23 375.14 243.11 375.34 243.01L375.93 246.85L376.81 252.61L385.17 306.9L386.23 313.83L386.68 316.74V317.37C386.68 322.27 389.39 326.57 393.39 328.84C395.96 330.66 399.1 331.74 402.47 331.74C408.53 331.74 413.82 328.28 416.45 323.24C416.9 322.42 417.26 321.54 417.55 320.64L419.31 316.47C420.03 314.78 422 313.98 423.71 314.68L424.79 315.13L424.9 315.18V315.13L437.17 320.28C437.29 320.33 437.4 320.38 437.51 320.45C437.63 320.52 437.73 320.6 437.84 320.68H437.85V320.69Z" fill="#242B59"/>
<path d="M349.89 231.66C349.43 240.09 342.45 246.78 333.9 246.78C333.6 246.78 333.3 246.77 333.01 246.75C327.56 246.46 322.83 243.43 320.17 239.03C320.63 230.6 327.62 223.91 336.17 223.91C341.99 223.91 347.09 227.02 349.89 231.66Z" fill="#242B59"/>
<path d="M352.19 239.93C352.19 248.78 345.02 255.96 336.17 255.96C334.82 255.96 333.5 255.79 332.25 255.47C325.29 253.72 320.14 247.43 320.14 239.93C320.14 239.63 320.15 239.33 320.17 239.03C320.63 230.6 327.62 223.91 336.17 223.91C341.99 223.91 347.09 227.02 349.89 231.66C351.35 234.07 352.19 236.9 352.19 239.93Z" fill="#242B59"/>
<path d="M386.23 313.83C386.04 314.81 385.77 315.77 385.44 316.7L383.68 310.98C383.59 310.68 383.48 310.38 383.36 310.09C383.29 309.89 383.2 309.71 383.11 309.52C383.08 309.45 383.04 309.37 383 309.3C382.96 309.21 382.92 309.13 382.87 309.05C382.76 308.83 382.63 308.62 382.5 308.41C382.37 308.21 382.24 308.01 382.1 307.82C382.08 307.8 382.06 307.77 382.04 307.75C381.94 307.61 381.83 307.47 381.71 307.34C381.66 307.26 381.59 307.19 381.52 307.11C381.46 307.04 381.4 306.97 381.33 306.9C381.2 306.75 381.06 306.61 380.91 306.48C380.84 306.41 380.77 306.34 380.69 306.28C380.68 306.26 380.66 306.24 380.64 306.23C380.47 306.07 380.3 305.93 380.12 305.79C379.89 305.61 379.65 305.43 379.4 305.27C376.84 303.57 373.58 302.99 370.44 303.95L362.69 306.33C362.47 306.4 362.24 306.48 362.03 306.56C361.96 306.58 361.9 306.61 361.83 306.64C361.42 306.8 361.02 306.99 360.65 307.21C360.54 307.26 360.43 307.33 360.32 307.4C360.28 307.42 360.24 307.44 360.2 307.47C360.13 307.51 360.06 307.55 360 307.6L359.98 307.62C359.98 307.62 359.93 307.64 359.91 307.66C359.84 307.7 359.78 307.74 359.72 307.79C359.52 307.93 359.33 308.07 359.14 308.23C359.11 308.25 359.08 308.27 359.05 308.3L358.81 308.51C358.73 308.58 358.65 308.65 358.57 308.73C358.52 308.77 358.46 308.82 358.42 308.88C358.34 308.95 358.26 309.03 358.2 309.11C358.07 309.23 357.95 309.36 357.84 309.49C357.69 309.66 357.55 309.83 357.41 310.01V323.41C357.41 324.11 357.43 324.81 357.48 325.5L359.13 330.91C358.84 330.85 358.57 330.78 358.29 330.71H358.26C358.26 330.71 358.21 330.7 358.19 330.69C358.05 330.04 357.93 329.38 357.82 328.71L355.78 319.95L355.66 319.57C355.49 319.01 355.37 318.46 355.3 317.9L354.86 316.02L354.63 315.04C354.62 314.94 354.6 314.85 354.59 314.76C354.51 314.22 354.41 313.68 354.29 313.15C352.5 305.02 346.72 298.38 339.12 295.4L338.8 293.55L332.41 256.58C332.35 256.21 332.29 255.84 332.25 255.47C331.89 252.46 332.17 249.5 333.01 246.75C335.28 239.19 341.63 233.13 349.89 231.66C349.92 231.65 349.96 231.65 349.99 231.64L351.58 231.37C353.57 231.03 355.55 230.97 357.47 231.17C364.91 231.95 372.69 232.98 374.74 243.34C374.98 244.54 375.5 245.67 375.93 246.85L376.81 252.61L385.17 306.9L386.23 313.83Z" fill="#242B59"/>
<path d="M200.56 251.92C201.98 254.79 203.63 257.49 204.91 260.43C206.15 263.28 206.63 266.4 207.92 269.2C210.31 274.38 213.95 279.08 216.67 284.11C219.24 288.86 221.82 292.57 226.5 295.05C228.5 295.89 230.57 296.55 232.71 297.11C234.58 297.33 236.37 297.15 238.36 296.75V261.95C238.36 255.35 232.96 249.95 226.36 249.95H203.99C202.59 249.95 201.25 250.21 200 250.66C200.18 251.08 200.36 251.5 200.57 251.91L200.56 251.92Z" fill="#242B59"/>
<path d="M226.74 313.83C217.35 310.98 211.21 305.74 208.06 302.59C204.05 298.58 201.83 294.92 197.72 288.14C194.79 283.31 192.65 279.08 191.19 276.01L191.99 319.45C191.99 326.05 197.39 331.45 203.99 331.45H226.36C232.96 331.45 238.36 326.05 238.36 319.45V314.55C234.51 315.07 230.65 315.03 226.74 313.84V313.83Z" fill="#242B59"/>
<path d="M305.15 316.81H305.22C305.19 317.09 305.18 317.38 305.17 317.67C305.15 317.95 305.15 318.24 305.15 318.53V316.81Z" fill="#242B59"/>
<path d="M354.88 316.81V318.53C354.88 318.24 354.88 317.95 354.86 317.67C354.85 317.4 354.84 317.13 354.82 316.86V316.81H354.88Z" fill="#242B59"/>
<path d="M385.44 316.7C382.96 323.65 376.97 329.16 369.29 330.68C369.12 330.72 368.95 330.75 368.78 330.78L367.19 331.05C364.44 331.53 361.71 331.46 359.13 330.91L357.48 325.5C357.43 324.81 357.41 324.11 357.41 323.41V310.01C358.7 308.32 360.51 307 362.69 306.33L370.44 303.95C373.58 302.99 376.84 303.57 379.4 305.27C381.38 306.57 382.94 308.54 383.68 310.98L385.44 316.7Z" fill="#242B59"/>
<path d="M357.48 325.5L356.27 321.55L355.78 319.95L355.66 319.57C355.49 319.01 355.37 318.46 355.3 317.9C355.24 317.48 355.21 317.06 355.21 316.64C355.18 315.57 355.33 314.51 355.64 313.51C356 312.24 356.61 311.05 357.41 310.01V323.41C357.41 324.11 357.43 324.81 357.48 325.5Z" fill="#242B59"/>
<path d="M382.51 343.32L374.76 345.7C369.59 347.28 364.09 344.69 361.96 339.86C361.79 339.48 361.64 339.08 361.51 338.67L359.13 330.91C361.71 331.46 364.44 331.53 367.19 331.05L368.78 330.78C368.95 330.75 369.12 330.72 369.29 330.68C376.97 329.16 382.96 323.65 385.44 316.7L389.54 330.08C391.25 335.66 388.09 341.62 382.51 343.32Z" fill="#242B59"/>
<path d="M355.78 319.95L355.66 319.57C355.49 319.01 355.37 318.46 355.3 317.9L355.78 319.95Z" fill="#242B59"/>
<path d="M358.98 333.66C358.87 333.31 358.76 332.96 358.67 332.6C358.49 331.97 358.33 331.34 358.19 330.69C358.05 330.04 357.93 329.38 357.82 328.71L357.89 329L358.29 330.71L358.98 333.66Z" fill="#242B59"/>
<path d="M357.81 328.64V328.71L355.78 319.95L355.66 319.57C355.49 319.01 355.37 318.46 355.3 317.9L354.86 316.02C354.88 316.28 354.88 316.54 354.88 316.81V318.53C354.88 318.24 354.88 317.95 354.86 317.67C354.85 317.4 354.84 317.13 354.82 316.86V316.81C354.8 316.56 354.78 316.31 354.75 316.06C354.72 315.72 354.68 315.38 354.63 315.04C354.62 314.94 354.6 314.85 354.59 314.76C354.51 314.22 354.41 313.68 354.29 313.15L354.44 313.12L354.76 314.58L354.78 314.68L355.21 316.64L356.27 321.55L357.81 328.64Z" fill="#242B59"/>
<path d="M358.67 332.6C358.49 331.97 358.33 331.34 358.19 330.69C358.05 330.04 357.93 329.38 357.82 328.71L357.89 329L358.26 330.7L358.67 332.6Z" fill="#242B59"/>
<path d="M424.9 315.18V335.71H364.42V306.9H385.17L386.23 313.83L386.68 316.74L386.71 316.93C387.02 321.84 389.59 326.16 393.39 328.84C395.96 330.66 399.1 331.74 402.47 331.74C408.53 331.74 413.82 328.28 416.45 323.24C416.9 322.42 417.26 321.54 417.55 320.64L419.31 316.47C420.03 314.78 422 313.98 423.71 314.68L424.79 315.13L424.9 315.18Z" fill="#242B59"/>
<path d="M438.95 324.64L436.61 330.17L436.56 330.29L433.12 338.46L432.99 338.74C432.86 339.04 432.7 339.31 432.5 339.55C432.45 339.61 432.39 339.67 432.34 339.72C431.42 340.71 429.93 341.07 428.6 340.52L417.05 335.71L415.15 334.92C413.45 334.22 412.64 332.25 413.36 330.57L416.45 323.24L417.55 320.64L419.31 316.47C420.03 314.78 422 313.98 423.71 314.68L424.79 315.13L424.9 315.18L437.15 320.28C437.28 320.33 437.4 320.39 437.51 320.45C437.63 320.52 437.73 320.6 437.84 320.68H437.85C439.06 321.57 439.56 323.2 438.95 324.64Z" fill="#242B59"/>
<path d="M376.81 252.61L375.93 246.85L375.34 243.01L372.99 227.79C361.48 188.94 325.32 160.58 282.49 160.58C280.67 160.58 278.86 160.63 277.06 160.74C276.76 160.75 276.46 160.77 276.16 160.79C269.88 161.2 263.78 162.22 257.9 163.8C244.87 167.29 232.97 173.47 222.82 181.72C221.7 182.62 220.61 183.55 219.54 184.5C210.1 192.9 202.37 203.18 196.95 214.73C196.38 215.95 195.83 217.19 195.32 218.44C195.19 218.73 195.07 219.02 194.95 219.32C194.84 219.59 194.73 219.85 194.64 220.12C194.3 220.95 193.98 221.77 193.69 222.62C193.55 223 193.42 223.37 193.29 223.75H193.28C193.57 224.91 193.8 226.05 194.02 227.18C194.03 227.22 194.04 227.26 194.05 227.31C194.27 228.46 194.48 229.6 194.73 230.77C194.74 230.81 194.75 230.85 194.76 230.9C194.83 231.24 194.9 231.58 194.98 231.93C194.99 231.97 195 232 195.01 232.04C195.12 232.52 195.25 233.01 195.38 233.5C195.88 235.35 196.39 237.2 196.9 239.06C196.92 239.1 196.93 239.15 196.94 239.19C197.07 239.67 197.21 240.18 197.35 240.67C197.35 240.68 197.36 240.7 197.36 240.72C197.36 240.74 197.36 240.76 197.38 240.78C197.53 241.31 197.68 241.84 197.82 242.37C197.82 242.39 197.83 242.41 197.84 242.43C198.43 244.53 199.04 246.65 199.66 248.8C199.83 249.4 200 250 200.18 250.6C200.23 250.8 200.29 250.99 200.35 251.19C200.42 251.43 200.49 251.68 200.56 251.92C201.46 254.99 202.95 257.98 204.23 260.92C205.47 263.77 206.64 266.4 207.93 269.19C210.31 274.37 213 279.88 216.18 284.63C218.8 288.55 221.16 291.68 224.85 294.06C225.37 294.41 225.93 294.74 226.51 295.05C228.51 295.89 230.58 296.55 232.72 297.11C232.98 297.14 233.24 297.16 233.5 297.18H233.54C234.1 297.21 234.66 297.21 235.23 297.17C235.33 297.17 235.42 297.17 235.51 297.15C235.54 297.16 235.57 297.15 235.6 297.15C235.7 297.14 235.8 297.13 235.91 297.12C235.93 297.12 235.95 297.12 235.97 297.11C235.98 297.12 235.99 297.12 236 297.11C236.14 297.11 236.27 297.09 236.41 297.07C236.61 297.05 236.81 297.02 237.01 296.98C237.06 296.98 237.11 296.98 237.17 296.96C237.36 296.93 237.56 296.9 237.76 296.86C237.96 296.83 238.16 296.79 238.36 296.75C239.48 296.53 240.66 296.24 241.95 295.91C252.49 293.23 262.04 284.94 267.45 275.57C273.07 265.84 288.14 274.64 282.51 284.38C282.29 284.76 282.07 285.13 281.84 285.51C281.67 285.79 281.5 286.07 281.32 286.34C281.15 286.62 280.97 286.89 280.79 287.16C280.52 287.58 280.24 287.99 279.95 288.41C278.81 290.07 277.57 291.7 276.23 293.3C275.95 293.63 275.67 293.96 275.39 294.29C275.34 294.35 275.29 294.4 275.25 294.45C274.96 294.78 274.67 295.1 274.37 295.43C273.74 296.13 273.08 296.83 272.41 297.5C271.74 298.18 271.06 298.84 270.36 299.49C269.62 300.18 268.87 300.85 268.1 301.5C267.78 301.78 267.45 302.05 267.12 302.32C267.1 302.33 267.08 302.35 267.07 302.36C266.71 302.65 266.35 302.94 265.99 303.22C265.59 303.53 265.18 303.84 264.78 304.14H264.77C264.45 304.38 264.14 304.61 263.82 304.82C263.39 305.14 262.96 305.44 262.52 305.73C262.47 305.77 262.41 305.8 262.36 305.84C261.9 306.15 261.43 306.45 260.96 306.74C260.51 307.02 260.06 307.3 259.6 307.56C259.57 307.58 259.53 307.6 259.5 307.61C259.5 307.61 259.41 307.68 259.36 307.7C258.92 307.96 258.47 308.21 258.02 308.44C257.89 308.53 257.75 308.6 257.61 308.66C257.44 308.76 257.26 308.86 257.08 308.94C255.6 309.7 254.1 310.37 252.58 310.95C252.45 311 252.31 311.05 252.17 311.1C251.95 311.19 251.72 311.27 251.49 311.35C251.11 311.48 250.74 311.61 250.36 311.73C250.21 311.78 250.06 311.83 249.91 311.87C249.57 311.98 249.22 312.08 248.88 312.17C248.35 312.31 247.82 312.46 247.3 312.6C246.89 312.71 246.49 312.82 246.08 312.92C245.42 313.09 244.76 313.27 244.1 313.42C244.07 313.43 244.05 313.43 244.02 313.44C243.67 313.53 243.33 313.61 242.98 313.68C242.7 313.75 242.43 313.81 242.15 313.86C241.76 313.95 241.36 314.03 240.97 314.1C240.71 314.16 240.44 314.21 240.18 314.25C239.57 314.36 238.97 314.46 238.36 314.53C238.17 314.56 237.99 314.58 237.8 314.6C237.68 314.62 237.56 314.64 237.43 314.65C237.37 314.66 237.31 314.66 237.24 314.66C237.21 314.66 237.18 314.68 237.15 314.68C237.12 314.68 237.09 314.68 237.05 314.69C236.8 314.72 236.55 314.74 236.29 314.75C236.27 314.76 236.24 314.76 236.21 314.76H236.13C235.93 314.79 235.73 314.8 235.53 314.8C235.44 314.81 235.35 314.81 235.27 314.81C235.12 314.82 234.98 314.83 234.84 314.83C234.52 314.84 234.21 314.85 233.89 314.85C233.55 314.85 233.2 314.84 232.86 314.83C232.4 314.81 231.94 314.78 231.49 314.74C231.14 314.71 230.78 314.67 230.44 314.62C230.06 314.57 229.67 314.51 229.29 314.44C229.25 314.44 229.22 314.43 229.18 314.42C228.97 314.38 228.76 314.34 228.54 314.29C228.24 314.23 227.94 314.16 227.64 314.08C227.34 314 227.04 313.92 226.74 313.83C226.36 313.71 225.97 313.59 225.59 313.46C225.52 313.44 225.46 313.42 225.39 313.39L224.94 313.24C218.67 311.11 212.62 307.79 208.24 302.78C208.19 302.75 208.16 302.71 208.14 302.67L208.05 302.58C207.71 302.19 207.39 301.8 207.07 301.4C207.07 301.4 206.68 300.93 206.3 300.44C205.52 299.46 204.75 298.42 203.99 297.35C203.96 297.32 203.94 297.29 203.92 297.25C199.4 290.9 195.43 283.77 195.43 283.77C193.32 279.96 190.8 275.09 188.24 269.26C188.92 273.88 189.96 278.38 191.31 282.74V282.81C197.57 302.84 210.61 319.75 227.71 331.35C230.21 333.05 232.79 334.63 235.45 336.08C249.39 343.72 265.47 348.05 282.49 348.05C290.3 348.05 297.89 347.11 305.15 345.33V316.81H305.22C305.25 316.41 305.28 316 305.33 315.61C305.38 315.21 305.43 314.81 305.5 314.42C305.56 314.06 305.63 313.7 305.7 313.34L305.73 313.22C305.81 312.84 305.9 312.47 306 312.1C306.09 311.75 306.2 311.39 306.31 311.04C306.32 311.01 306.33 310.97 306.35 310.92C306.45 310.58 306.57 310.24 306.7 309.9C306.7 309.89 306.71 309.87 306.72 309.85C306.85 309.49 306.99 309.14 307.14 308.79C307.27 308.48 307.41 308.18 307.55 307.88C307.59 307.78 307.64 307.69 307.68 307.6C307.83 307.3 307.98 307 308.14 306.71C308.31 306.4 308.49 306.09 308.67 305.78C308.82 305.54 308.97 305.29 309.12 305.05C309.3 304.77 309.49 304.49 309.69 304.22C309.88 303.94 310.09 303.65 310.31 303.38C310.49 303.13 310.69 302.89 310.89 302.66C311.03 302.48 311.17 302.31 311.33 302.14C311.4 302.05 311.48 301.96 311.56 301.88C311.73 301.68 311.91 301.49 312.1 301.3C312.33 301.06 312.57 300.82 312.81 300.58C313.06 300.35 313.31 300.11 313.57 299.89C313.58 299.88 313.58 299.87 313.59 299.87C313.87 299.61 314.17 299.37 314.47 299.13C314.77 298.88 315.08 298.64 315.4 298.42C315.65 298.23 315.9 298.06 316.15 297.9C316.25 297.82 316.35 297.75 316.46 297.69C316.75 297.49 317.05 297.31 317.36 297.13C317.62 296.97 317.89 296.82 318.16 296.67C318.59 296.44 319.04 296.21 319.49 296C319.81 295.85 320.13 295.71 320.46 295.58C320.98 295.36 321.51 295.16 322.04 294.98C322.33 294.88 322.62 294.78 322.91 294.7C324.05 294.36 325.22 294.1 326.41 293.93C326.79 293.87 327.18 293.83 327.57 293.79C328.38 293.71 329.19 293.67 330.01 293.67C333.22 293.67 336.3 294.28 339.12 295.4C346.72 298.38 352.5 305.02 354.29 313.15C354.41 313.68 354.51 314.22 354.59 314.76C354.64 314.7 354.7 314.64 354.76 314.58C354.76 314.58 354.763 314.573 354.77 314.56L355.64 313.51C356.24 312.78 356.83 312.04 357.41 311.29C358.37 310.04 359.31 308.77 360.2 307.47C369.76 293.7 375.7 277.28 376.68 259.54C376.78 257.81 376.83 256.07 376.83 254.31C376.83 253.74 376.82 253.17 376.81 252.61ZM333.9 214.73C340.61 214.73 346.35 218.85 348.73 224.7C349.5 226.57 349.92 228.62 349.92 230.76C349.92 231.06 349.91 231.36 349.89 231.66C347.09 227.02 341.99 223.91 336.17 223.91C327.62 223.91 320.63 230.6 320.17 239.03C318.71 236.61 317.87 233.78 317.87 230.76C317.87 224.24 321.76 218.63 327.35 216.13C329.35 215.23 331.56 214.73 333.9 214.73Z" fill="#242B59"/>
<path d="M240.11 245.62C267.989 245.62 290.59 223.019 290.59 195.14C290.59 167.261 267.989 144.66 240.11 144.66C212.231 144.66 189.63 167.261 189.63 195.14C189.63 223.019 212.231 245.62 240.11 245.62Z" fill="#242B59"/>
<path d="M190.67 211.11C190.75 211.96 190.87 212.36 190.97 212.99C192.01 219.43 193.1 225.81 195.02 232.04C196.63 237.28 197.77 242.9 199.14 248.29C204.2 253.41 211.35 256.4 219.05 255.9L238.52 254.63C252.6 253.71 263.37 241.44 262.45 227.36L258.59 168.18C257.67 154.1 245.4 143.33 231.32 144.25L211.85 145.52C197.77 146.44 187 158.71 187.92 172.79L190.68 211.11H190.67Z" fill="#242B59"/>
<path d="M235.578 296.896C248.573 293.798 252.935 265.395 245.321 233.457C237.706 201.519 220.998 178.139 208.003 181.238C195.007 184.336 190.645 212.739 198.26 244.677C205.874 276.615 222.582 299.994 235.578 296.896Z" fill="#242B59"/>
<path d="M222.94 273.49C235.134 271.843 242.055 248.55 238.397 221.464C234.74 194.377 221.889 173.754 209.695 175.4C197.501 177.047 190.58 200.34 194.238 227.426C197.895 254.513 210.746 275.136 222.94 273.49Z" fill="#242B59"/>
<defs>
<radialGradient id="paint0_radial_206_1923" cx="0" cy="0" r="1" gradientUnits="userSpaceOnUse" gradientTransform="translate(396.31 425.52) scale(205.06 205.06)">
<stop stop-color="#3F4295"/>
<stop offset="0.37" stop-color="#485EB0"/>
<stop offset="1" stop-color="#5C97E6"/>
</radialGradient>
<radialGradient id="paint1_radial_206_1923" cx="0" cy="0" r="1" gradientUnits="userSpaceOnUse" gradientTransform="translate(396.31 425.52) scale(205.06 205.06)">
<stop stop-color="#3F4295"/>
<stop offset="0.37" stop-color="#485EB0"/>
<stop offset="1" stop-color="#5C97E6"/>
</radialGradient>
<radialGradient id="paint2_radial_206_1923" cx="0" cy="0" r="1" gradientUnits="userSpaceOnUse" gradientTransform="translate(396.31 425.52) scale(205.06 205.06)">
<stop stop-color="#3F4295"/>
<stop offset="0.37" stop-color="#485EB0"/>
<stop offset="1" stop-color="#5C97E6"/>
</radialGradient>
<radialGradient id="paint3_radial_206_1923" cx="0" cy="0" r="1" gradientUnits="userSpaceOnUse" gradientTransform="translate(396.31 425.52) scale(205.06 205.06)">
<stop stop-color="#3F4295"/>
<stop offset="0.37" stop-color="#485EB0"/>
<stop offset="1" stop-color="#5C97E6"/>
</radialGradient>
</defs>
</svg>
