<svg xmlns="http://www.w3.org/2000/svg" width="20" height="20" viewBox="0 0 20 20" fill="none">
  <path d="M3.84009 3.39999H6.48009V6.03999H3.84009V3.39999ZM14.4001 3.39999H17.0401V6.03999H14.4001V3.39999Z" fill="#FECE00"/>
  <path d="M3.84009 6.04001H6.48009V8.68001H3.84009V6.04001Z" fill="#FFA301"/>
  <path d="M3.84009 11.32H6.48009V13.96H3.84009V11.32ZM9.12009 11.32H11.7601V13.96H9.12009V11.32ZM14.4001 11.32H17.0401V13.96H14.4001V11.32Z" fill="#FE4900"/>
  <path d="M11.76 6.04001H14.4V8.68001H11.76V6.04001Z" fill="#FFA301"/>
  <path d="M3.84009 8.67999H6.48009V11.32H3.84009V8.67999Z" fill="#FF6F00"/>
  <path d="M3.84009 13.96H6.48009V16.6H3.84009V13.96ZM14.4001 13.96H17.0401V16.6H14.4001V13.96Z" fill="#FE0107"/>
  <path d="M11.76 8.67999H14.4V11.32H11.76V8.67999Z" fill="#FF6F00"/>
  <path d="M6.47998 6.04001H9.11998V8.68001H6.47998V6.04001ZM14.4 6.04001H17.04V8.68001H14.4V6.04001Z" fill="#FFA301"/>
  <path d="M6.47998 8.67999H9.11998V11.32H6.47998V8.67999ZM14.4 8.67999H17.04V11.32H14.4V8.67999ZM9.11998 8.67999H11.76V11.32H9.11998V8.67999Z" fill="#FF6F00"/>
  <path d="M2.95996 3.39999H3.83996V16.6H2.95996V3.39999ZM13.52 3.39999H14.4V6.03999H13.52V3.39999ZM10.88 6.03999H11.76V8.67999H10.88V6.03999ZM8.23996 11.32H9.11996V13.96H8.23996V11.32ZM13.52 11.32H14.4V16.6H13.52V11.32Z" fill="#191D1D"/>
</svg>