<svg xmlns="http://www.w3.org/2000/svg" width="20" height="20" viewBox="0 0 20 20" fill="none">
  <g clip-path="url(#clip0_19_404)">
    <path d="M0.00268555 4C0.00268555 1.79086 1.79355 0 4.00269 0H15.7674C17.9765 0 19.7674 1.79086 19.7674 4V15.7647C19.7674 17.9738 17.9765 19.7647 15.7674 19.7647H4.00269C1.79355 19.7647 0.00268555 17.9738 0.00268555 15.7647V4Z" fill="#1A1D22"/>
    <path d="M10.8263 5.64704C8.99739 4.86926 7.10896 4.23978 5.1792 3.76468C8.61496 1.21174 12.0663 1.29033 15.5321 3.99998C16.4328 4.66492 17.0601 5.52798 17.4145 6.58821L16.238 7.0588C14.505 6.3495 12.685 5.87472 10.8263 5.64704Z" fill="#EDEDEE"/>
    <path d="M5.17936 4.23529C6.87253 5.26682 8.75489 5.73741 10.8264 5.64706C11.1041 5.95388 11.4179 6.26729 11.7676 6.58823C11.2311 7.02353 11.2311 7.416 11.7676 7.7647L18.3558 9.41176V11.2941C15.7379 10.475 13.0643 9.84589 10.3558 9.41176C7.96524 8.39529 5.45512 7.61129 2.82642 7.05882C2.46642 5.3647 3.25042 4.42353 5.17936 4.23529Z" fill="#EFEFF0"/>
    <path d="M5.1792 3.76471C7.10896 4.2398 8.99739 4.86928 10.8263 5.64706C8.75473 5.73742 6.87238 5.26683 5.1792 4.2353V3.76471Z" fill="#626568"/>
    <path d="M2.82626 7.52942C4.8237 8.28538 6.867 8.91409 8.94391 9.41177C9.51473 9.52801 9.82862 9.84189 9.88509 10.3529C9.94156 10.864 10.2554 11.1779 10.8263 11.2941C13.2007 11.9264 15.5547 12.6326 17.8851 13.4118C17.5434 14.0692 16.9947 14.4612 16.238 14.5882C14.244 14.2688 12.2775 13.7968 10.3557 13.1765C7.43783 12.1713 4.44917 11.3848 1.4145 10.8235V9.41177C1.22062 8.24801 1.69121 7.62071 2.82626 7.52942Z" fill="#EEEEEF"/>
    <path d="M2.82642 7.05884C5.45512 7.61131 7.96524 8.39531 10.3558 9.41178C10.4368 9.8786 10.2796 10.192 9.88524 10.353C9.82877 9.8419 9.51489 9.52801 8.94406 9.41178C6.86716 8.9141 4.82385 8.28539 2.82642 7.52943V7.05884Z" fill="#5C5E62"/>
    <path d="M1.41454 9.41174V10.8235C4.44922 11.3848 7.43788 12.1712 10.3557 13.1764C10.0418 13.1764 9.88513 13.3332 9.88513 13.647C7.27104 12.9507 4.68132 12.166 2.12043 11.2941C1.89523 11.7281 1.81289 12.2222 1.88513 12.7059C0.927956 11.6917 0.77125 10.5939 1.41454 9.41174Z" fill="#4F5155"/>
    <path d="M9.88509 13.6471V15.0588C11.7392 15.2471 13.4649 15.7962 15.0616 16.7059C14.2004 18.0047 13.1025 18.24 11.7674 17.4118C8.98734 16.4788 6.15987 15.6934 3.29686 15.0588C2.47333 14.513 2.00274 13.729 1.88509 12.7059C1.81285 12.2223 1.89519 11.7282 2.12039 11.2941C4.68128 12.166 7.271 12.9507 9.88509 13.6471Z" fill="#F2F2F3"/>
    <path d="M3.29701 15.0588C6.16002 15.6934 8.98749 16.4788 11.7676 17.4118V17.8824C9.10825 17.3554 6.5074 16.5673 4.00289 15.5294C3.81512 15.6367 3.73701 15.7939 3.7676 16C3.37324 15.8391 3.21607 15.5257 3.29701 15.0588Z" fill="#5D5F62"/>
    <path d="M11.7674 17.8824C11.9736 17.8518 12.1307 17.9299 12.238 18.1177C8.93167 19.2894 6.10862 18.5835 3.76744 16C3.73685 15.7939 3.81497 15.6367 4.00273 15.5294C6.50725 16.5673 9.10809 17.3554 11.7674 17.8824Z" fill="#E7E7E8"/>
  </g>
  <defs>
    <clipPath id="clip0_19_404">
      <rect width="20" height="20" fill="white"/>
    </clipPath>
  </defs>
</svg>