<svg width="56" height="56" viewBox="0 0 56 56" fill="none" xmlns="http://www.w3.org/2000/svg">
<rect width="56" height="56" fill="white"/>
<path d="M41.6185 38.9982H47.094V9.63863L36.2313 16.3361L25.3743 9.74399L25.4151 22.36H30.8905L30.8497 18.7965L36.3268 22.0594L41.6185 18.7965V38.9982Z" fill="black"/>
<path d="M13.8139 25.2447C18.274 21.9258 24.9362 21.4061 29.7397 26.6988L29.7553 26.7174L29.77 26.736L44.4458 46.3619H38.2934L25.9741 29.9801C23.3658 27.195 19.7414 27.2723 17.1401 28.9567C14.539 30.6411 13.0336 33.8837 14.6606 37.4235C17.0531 42.6273 24.5159 42.6746 27.0356 37.5963L27.0854 37.4938L30.3217 41.7086C25.5485 48.0708 15.378 48.0035 10.8335 40.8238C6.998 34.7622 9.35162 28.5657 13.8139 25.2447Z" fill="black"/>
</svg>
