<svg xmlns="http://www.w3.org/2000/svg" width="16" height="16" viewBox="0 0 16 16" fill="none">
  <path d="M7.9999 14.8571L13.9368 11.424V4.5632L7.9999 1.14285L2.06299 4.56297V4.56342L7.9999 7.99657V14.8571Z" fill="url(#paint0_linear_6600_1320)"/>
  <path d="M13.9368 4.56297L7.9999 1.14285L2.06299 4.56297V4.56342L7.9999 7.99657L13.9368 4.56297Z" fill="url(#paint1_linear_6600_1320)"/>
  <path d="M13.9368 4.56297L7.9999 1.14285L2.06299 4.56297V4.56342L7.9999 7.99657L13.9368 4.56297Z" fill="url(#paint2_linear_6600_1320)"/>
  <path d="M13.9368 4.56297L7.9999 1.14285L2.06299 4.56297V4.56342L7.9999 7.99657L13.9368 4.56297Z" fill="url(#paint3_linear_6600_1320)"/>
  <path d="M2.06299 11.424V4.56343L7.9999 7.99635L2.06299 11.424Z" fill="url(#paint4_linear_6600_1320)"/>
  <path d="M8 14.8571L13.9369 11.424V4.56343L8 7.99635V14.8571Z" fill="url(#paint5_linear_6600_1320)"/>
  <path d="M8 14.8571L13.9369 11.424V4.56343L8 7.99635V14.8571Z" fill="url(#paint6_linear_6600_1320)"/>
  <path d="M8 14.8571L13.9369 11.424V4.56343L8 7.99635V14.8571Z" fill="url(#paint7_linear_6600_1320)"/>
  <path opacity="0.8" d="M6.4079 7.07291L7.9999 7.99337V1.14285L2.06299 4.5616L6.4079 7.07291Z" fill="url(#paint8_linear_6600_1320)"/>
  <path d="M7.9999 7.99634L2.06299 11.424L7.9999 14.8571V7.99634Z" fill="url(#paint9_linear_6600_1320)"/>
  <defs>
    <linearGradient id="paint0_linear_6600_1320" x1="4.58687" y1="3.32868" x2="14.719" y2="13.4608" gradientUnits="userSpaceOnUse">
      <stop stop-color="#FDB60D"/>
      <stop offset="0.548" stop-color="#FF318C"/>
      <stop offset="0.888" stop-color="#6B57FF"/>
    </linearGradient>
    <linearGradient id="paint1_linear_6600_1320" x1="6.53476" y1="7.10102" x2="7.1887" y2="5.96845" gradientUnits="userSpaceOnUse">
      <stop stop-color="white" stop-opacity="0.6"/>
      <stop offset="0.081" stop-color="#FFC524" stop-opacity="0.4"/>
      <stop offset="0.705" stop-color="#FFC524" stop-opacity="0"/>
    </linearGradient>
    <linearGradient id="paint2_linear_6600_1320" x1="6.49887" y1="1.96342" x2="7.47327" y2="3.6512" gradientUnits="userSpaceOnUse">
      <stop stop-color="#F9ED32" stop-opacity="0.6"/>
      <stop offset="0.198" stop-color="#FFC524" stop-opacity="0.4"/>
      <stop offset="0.705" stop-color="#FFC524" stop-opacity="0"/>
    </linearGradient>
    <linearGradient id="paint3_linear_6600_1320" x1="9.58002" y1="1.82651" x2="9.14596" y2="2.57828" gradientUnits="userSpaceOnUse">
      <stop stop-color="#FDB60D" stop-opacity="0.6"/>
      <stop offset="0.234" stop-color="#FDB60D" stop-opacity="0.4"/>
      <stop offset="0.518" stop-color="#FF318C" stop-opacity="0"/>
    </linearGradient>
    <linearGradient id="paint4_linear_6600_1320" x1="2.06299" y1="7.9936" x2="11.7204" y2="7.9936" gradientUnits="userSpaceOnUse">
      <stop offset="0.015"/>
      <stop offset="0.193"/>
      <stop offset="0.572" stop-color="#6B57FF"/>
      <stop offset="0.826" stop-color="#FF318C"/>
    </linearGradient>
    <linearGradient id="paint5_linear_6600_1320" x1="8" y1="9.71017" x2="9.59931" y2="9.71017" gradientUnits="userSpaceOnUse">
      <stop stop-color="#FFB2FF" stop-opacity="0.6"/>
      <stop offset="0.081" stop-color="#D828FF" stop-opacity="0.4"/>
      <stop offset="0.705" stop-color="#FF318C" stop-opacity="0"/>
    </linearGradient>
    <linearGradient id="paint6_linear_6600_1320" x1="13.9614" y1="9.71017" x2="12.328" y2="9.71017" gradientUnits="userSpaceOnUse">
      <stop stop-color="#6644FF" stop-opacity="0.8"/>
      <stop offset="0.097" stop-color="#6B57FF" stop-opacity="0.4"/>
      <stop offset="0.705" stop-color="#FF318C" stop-opacity="0"/>
    </linearGradient>
    <linearGradient id="paint7_linear_6600_1320" x1="12.5406" y1="12.4334" x2="12.0706" y2="11.6192" gradientUnits="userSpaceOnUse">
      <stop offset="0.006" stop-color="#FF318C"/>
      <stop offset="0.469" stop-color="#6B57FF" stop-opacity="0"/>
    </linearGradient>
    <linearGradient id="paint8_linear_6600_1320" x1="5.03145" y1="1.3568" x2="5.03145" y2="5.38125" gradientUnits="userSpaceOnUse">
      <stop offset="0.239" stop-color="#FF5592" stop-opacity="0.65"/>
      <stop offset="0.829" stop-color="#FF57E4" stop-opacity="0"/>
    </linearGradient>
    <linearGradient id="paint9_linear_6600_1320" x1="6.45407" y1="5.07245" x2="4.97682" y2="13.4505" gradientUnits="userSpaceOnUse">
      <stop offset="0.047" stop-color="white" stop-opacity="0.86"/>
      <stop offset="0.767" stop-color="#CBCAA4" stop-opacity="0"/>
    </linearGradient>
  </defs>
</svg>