<svg width="32" height="32" viewBox="0 0 32 32" fill="none" xmlns="http://www.w3.org/2000/svg">
<g clip-path="url(#clip0_4573_12579)">
<path d="M3 23.775V29.904C3.00003 30.1776 3.05449 30.4484 3.16019 30.7007C3.2659 30.953 3.42075 31.1818 3.61572 31.3737C3.81068 31.5656 4.04188 31.7168 4.29585 31.8185C4.54981 31.9202 4.82147 31.9703 5.095 31.966L10.617 31.878C10.9089 31.8734 11.1966 31.8068 11.4608 31.6827C11.7251 31.5585 11.96 31.3797 12.15 31.158L28.5035 12.079C28.8235 11.7055 29 11.229 29 10.737V5.0625C29 4.79165 28.9467 4.52345 28.843 4.27322C28.7394 4.02298 28.5874 3.79561 28.3959 3.60409C28.2044 3.41257 27.977 3.26065 27.7268 3.157C27.4765 3.05335 27.2084 3 26.9375 3H21.436C20.841 3 20.2755 3.257 19.8835 3.7045L3.5105 22.4165C3.18134 22.7925 2.99993 23.2753 3 23.775Z" fill="#00D886"/>
<path d="M3 24.5074V29.9384C3 30.4854 3.2173 31.01 3.60409 31.3968C3.99089 31.7836 4.51549 32.0009 5.0625 32.0009H11.3455C11.4455 32.0009 11.5455 31.9939 11.6445 31.9789L30.237 29.2549C30.7268 29.183 31.1745 28.9373 31.4982 28.5627C31.8218 28.188 32 27.7095 32 27.2144V19.5149C32 19.244 31.9466 18.9757 31.8429 18.7254C31.7392 18.4751 31.5872 18.2477 31.3956 18.0561C31.2039 17.8646 30.9764 17.7127 30.7261 17.6091C30.4757 17.5055 30.2074 17.4523 29.9365 17.4524L20.6845 17.4549C20.4715 17.4549 20.26 17.4879 20.0575 17.5524L4.4355 22.5424C4.01881 22.6754 3.65519 22.9375 3.39717 23.2907C3.13914 23.6439 3.00005 24.07 3 24.5074Z" fill="url(#paint0_linear_4573_12579)"/>
<path d="M0 2.0625V19.126C0 19.9555 0.4965 20.7035 1.26 21.026L19.9715 28.925C20.2305 29.0345 20.509 29.09 20.7905 29.087L29.955 29.012C30.4989 29.0074 31.0189 28.7881 31.4019 28.4019C31.7849 28.0157 31.9999 27.4939 32 26.95V18.117C32 17.714 31.882 17.3205 31.661 16.9835L21.1065 0.93C20.9188 0.644296 20.663 0.409727 20.3622 0.247391C20.0613 0.0850555 19.7248 4.31658e-05 19.383 0L2.0625 0C1.51549 0 0.990886 0.217298 0.604092 0.604092C0.217298 0.990886 0 1.51549 0 2.0625Z" fill="url(#paint1_linear_4573_12579)"/>
<path d="M26 6H6V26H26V6Z" fill="black"/>
<path d="M16.5 22.0001H8.49997V23.5001H16.5V22.0001ZM8.49597 8.49609H11.717C12.242 8.49609 12.705 8.59259 13.105 8.78559C13.505 8.97859 13.8135 9.25009 14.03 9.60059C14.246 9.95059 14.354 10.3556 14.354 10.8166C14.354 11.2776 14.244 11.6916 14.024 12.0466C13.8045 12.4026 13.4915 12.6776 13.0865 12.8721C12.681 13.0671 12.21 13.1641 11.674 13.1641H9.95897V15.9991H8.49597V8.49609ZM12.266 11.8111C12.4505 11.7196 12.5925 11.5891 12.6925 11.4196C12.7925 11.2496 12.8425 11.0526 12.8425 10.8276C12.8425 10.6026 12.7925 10.4016 12.6925 10.2351C12.5925 10.0691 12.45 9.94009 12.2665 9.84909C12.0825 9.75809 11.867 9.71259 11.6205 9.71259H9.95897V11.9476H11.6205C11.867 11.9476 12.0825 11.9026 12.2665 11.8111H12.266ZM10.951 12.6926H12.548L14.515 16.0001H12.8375L10.951 12.6926ZM15.8065 8.49609H19.0275C19.5525 8.49609 20.0155 8.59259 20.4155 8.78559C20.8155 8.97859 21.124 9.25009 21.3405 9.60059C21.5565 9.95059 21.6645 10.3556 21.6645 10.8166C21.6645 11.2776 21.5545 11.6916 21.3345 12.0466C21.115 12.4026 20.8025 12.6776 20.397 12.8721C19.9915 13.0671 19.5205 13.1641 18.985 13.1641H17.27V15.9991H15.8065V8.49609ZM19.5765 11.8111C19.761 11.7196 19.903 11.5891 20.003 11.4196C20.103 11.2496 20.153 11.0526 20.153 10.8276C20.153 10.6026 20.103 10.4016 20.003 10.2351C19.903 10.0691 19.7605 9.94009 19.577 9.84909C19.393 9.75809 19.1775 9.71259 18.931 9.71259H17.2695V11.9476H18.931C19.1775 11.9476 19.3925 11.9026 19.5765 11.8111ZM18.2615 12.6926H19.8585L21.8255 16.0001H20.148L18.2615 12.6926Z" fill="white"/>
</g>
<defs>
<linearGradient id="paint0_linear_4573_12579" x1="3.8355" y1="32.1964" x2="30.5625" y2="19.8044" gradientUnits="userSpaceOnUse">
<stop offset="0.08" stop-color="#00D886"/>
<stop offset="0.46" stop-color="#FFAB00"/>
</linearGradient>
<linearGradient id="paint1_linear_4573_12579" x1="29.966" y1="29.838" x2="0.667998" y2="0.539999" gradientUnits="userSpaceOnUse">
<stop offset="0.19" stop-color="#FFAB00"/>
<stop offset="0.83" stop-color="#FF004C"/>
</linearGradient>
<clipPath id="clip0_4573_12579">
<rect width="32" height="32" fill="white"/>
</clipPath>
</defs>
</svg>
