<svg width="48" height="49" viewBox="0 0 48 49" fill="none" xmlns="http://www.w3.org/2000/svg">
<path fill-rule="evenodd" clip-rule="evenodd" d="M5 6.87744C3.89543 6.87744 3 7.77287 3 8.87744V39.2693C3 40.3739 3.89543 41.2693 5 41.2693H43C44.1046 41.2693 45 40.3739 45 39.2693V8.87744C45 7.77287 44.1046 6.87744 43 6.87744H5ZM31.8967 12.3996L29.6862 14.1245L26.9034 14.4679L26.56 17.2506L24.8351 19.4612L26.56 21.6717L26.9034 24.4544L27.9199 24.5798L27.9199 34.1882C27.9199 34.4117 28.1804 34.5341 28.3525 34.3915L31.7405 31.584C31.8387 31.5027 31.9809 31.5031 32.0786 31.5849L35.4395 34.4012C35.6114 34.5452 35.8732 34.423 35.8732 34.1988V24.5799L36.8899 24.4544L37.2333 21.6717L38.9582 19.4612L37.2333 17.2506L36.8899 14.4679L34.1072 14.1245L31.8967 12.3996ZM33.951 24.9197L31.8967 26.5227L29.8421 24.9195V30.099C29.8421 30.3225 30.1025 30.4449 30.2747 30.3023L31.7474 29.0819C31.8455 29.0006 31.9878 29.001 32.0855 29.0829L33.5173 30.2827C33.6892 30.4267 33.951 30.3045 33.951 30.0803V24.9197ZM31.8967 15.4473L33.1531 16.4277L34.7349 16.6229L34.9301 18.2047L35.9105 19.4612L34.9301 20.7176L34.7349 22.2994L33.1531 22.4946L31.8967 23.475L30.6402 22.4946L29.0584 22.2994L28.8633 20.7176L27.8828 19.4612L28.8633 18.2047L29.0584 16.6229L30.6402 16.4277L31.8967 15.4473ZM9.0414 15.6906H21.4805V18.8142H9.0414V15.6906ZM9.0414 22.8988H18.6302V26.0224H9.0414V22.8988ZM9.0414 30.107V33.2306H23.8577V30.107H9.0414Z" fill="url(#paint0_angular_4811_30779)"/>
<defs>
<radialGradient id="paint0_angular_4811_30779" cx="0" cy="0" r="1" gradientUnits="userSpaceOnUse" gradientTransform="translate(4.80023 41.2691) rotate(-40.5478) scale(52.9039 58.1837)">
<stop stop-color="#925CB4"/>
<stop offset="1" stop-color="#9E6BBD"/>
</radialGradient>
</defs>
</svg>
