<svg width="10" height="10" viewBox="0 0 10 10" fill="none" xmlns="http://www.w3.org/2000/svg">
<g clip-path="url(#clip0_279_3058)">
<path d="M4.99967 0.833252C2.69967 0.833252 0.833008 2.69992 0.833008 4.99992C0.833008 7.29992 2.69967 9.16659 4.99967 9.16659C7.29967 9.16659 9.16634 7.29992 9.16634 4.99992C9.16634 2.69992 7.29967 0.833252 4.99967 0.833252ZM3.95801 6.11242V3.88742C3.95801 3.55825 4.32467 3.35825 4.59967 3.53742L6.32884 4.64992C6.38732 4.68769 6.4354 4.73951 6.46869 4.80065C6.50199 4.86179 6.51943 4.9303 6.51943 4.99992C6.51943 5.06954 6.50199 5.13804 6.46869 5.19918C6.4354 5.26032 6.38732 5.31215 6.32884 5.34992L4.59967 6.46242C4.32467 6.64159 3.95801 6.44159 3.95801 6.11242Z" fill="#46AEFF"/>
</g>
<defs>
<clipPath id="clip0_279_3058">
<rect width="10" height="10" fill="white"/>
</clipPath>
</defs>
</svg>
