<svg width="16" height="16" viewBox="0 0 16 16" fill="none" xmlns="http://www.w3.org/2000/svg">
<rect width="16" height="15.0588" rx="2" fill="#46AEFF"/>
<path d="M11.3838 11H10.2314V6.46875C10.2314 6.09766 10.2542 5.64355 10.2998 5.10645H10.2803C10.2087 5.41243 10.1452 5.63216 10.0898 5.76562L8 11H7.19922L5.10449 5.80469C5.0459 5.65169 4.98405 5.41895 4.91895 5.10645H4.89941C4.92546 5.38639 4.93848 5.84375 4.93848 6.47852V11H3.86426V3.99805H5.5L7.34082 8.66113C7.48079 9.01921 7.57194 9.28613 7.61426 9.46191H7.63867C7.75911 9.09408 7.85677 8.82064 7.93164 8.6416L9.80664 3.99805H11.3838V11Z" fill="white"/>
</svg>
