<svg width="16" height="16" viewBox="0 0 16 16" fill="none" xmlns="http://www.w3.org/2000/svg">
<circle cx="8" cy="8" r="7.5" stroke="#616161"/>
<path d="M10.3047 3.79492C9.71875 3.28125 8.94531 3 8.125 3C7.30469 3 6.53125 3.2832 5.94531 3.79492C5.33594 4.32813 5 5.04492 5 5.8125V5.96094C5 6.04688 5.07031 6.11719 5.15625 6.11719H6.09375C6.17969 6.11719 6.25 6.04688 6.25 5.96094V5.8125C6.25 4.95117 7.0918 4.25 8.125 4.25C9.1582 4.25 10 4.95117 10 5.8125C10 6.41992 9.57031 6.97656 8.9043 7.23242C8.49023 7.39062 8.13867 7.66797 7.88672 8.03125C7.63086 8.40234 7.49805 8.84766 7.49805 9.29883V9.71875C7.49805 9.80469 7.56836 9.875 7.6543 9.875H8.5918C8.67773 9.875 8.74805 9.80469 8.74805 9.71875V9.27539C8.74906 9.08578 8.80718 8.90088 8.91484 8.7448C9.02249 8.58871 9.17468 8.46869 9.35156 8.40039C10.5039 7.95703 11.248 6.94141 11.248 5.8125C11.25 5.04492 10.9141 4.32813 10.3047 3.79492ZM7.34375 11.9062C7.34375 12.1135 7.42606 12.3122 7.57257 12.4587C7.71909 12.6052 7.9178 12.6875 8.125 12.6875C8.3322 12.6875 8.53091 12.6052 8.67743 12.4587C8.82394 12.3122 8.90625 12.1135 8.90625 11.9062C8.90625 11.699 8.82394 11.5003 8.67743 11.3538C8.53091 11.2073 8.3322 11.125 8.125 11.125C7.9178 11.125 7.71909 11.2073 7.57257 11.3538C7.42606 11.5003 7.34375 11.699 7.34375 11.9062Z" fill="#616161"/>
</svg>
