<svg width="10" height="10" viewBox="0 0 10 10" fill="none" xmlns="http://www.w3.org/2000/svg">
<path d="M6 3H1C0.4485 3 0 3.4485 0 4V9C0 9.5515 0.4485 10 1 10H6C6.5515 10 7 9.5515 7 9V4C7 3.4485 6.5515 3 6 3Z" fill="#007FEE"/>
<path d="M9 0H4C3.73478 0 3.48043 0.105357 3.29289 0.292893C3.10536 0.48043 3 0.734784 3 1V2H7C7.26522 2 7.51957 2.10536 7.70711 2.29289C7.89464 2.48043 8 2.73478 8 3V7H9C9.26522 7 9.51957 6.89464 9.70711 6.70711C9.89464 6.51957 10 6.26522 10 6V1C10 0.734784 9.89464 0.48043 9.70711 0.292893C9.51957 0.105357 9.26522 0 9 0Z" fill="#007FEE"/>
</svg>
