<svg width="12" height="14" viewBox="0 0 12 14" fill="none" xmlns="http://www.w3.org/2000/svg">
<g clip-path="url(#clip0_346_2267)">
<path d="M0.5 3H2.5V1.75C2.5 1.19844 2.94844 0.75 3.5 0.75H8.5C9.05156 0.75 9.5 1.19844 9.5 1.75V3H11.5C11.7766 3 12 3.22344 12 3.5V4C12 4.06875 11.9438 4.125 11.875 4.125H10.9313L10.5453 12.2969C10.5203 12.8297 10.0797 13.25 9.54688 13.25H2.45312C1.91875 13.25 1.47969 12.8313 1.45469 12.2969L1.06875 4.125H0.125C0.0562496 4.125 0 4.06875 0 4V3.5C0 3.22344 0.223437 3 0.5 3ZM3.625 3H8.375V1.875H3.625V3Z" fill="#EF599D"/>
</g>
<defs>
<clipPath id="clip0_346_2267">
<rect width="12" height="12.5" fill="white" transform="matrix(-1 0 0 1 12 0.75)"/>
</clipPath>
</defs>
</svg>
