<svg width="11" height="12" viewBox="0 0 11 12" fill="none" xmlns="http://www.w3.org/2000/svg">
<g clip-path="url(#clip0_346_2199)">
<path d="M5.25 6C6.90703 6 8.25 4.65703 8.25 3C8.25 1.34297 6.90703 0 5.25 0C3.59297 0 2.25 1.34297 2.25 3C2.25 4.65703 3.59297 6 5.25 6ZM7.35 6.75H6.95859C6.43828 6.98906 5.85938 7.125 5.25 7.125C4.64062 7.125 4.06406 6.98906 3.54141 6.75H3.15C1.41094 6.75 0 8.16094 0 9.9V10.875C0 11.4961 0.503906 12 1.125 12H9.375C9.99609 12 10.5 11.4961 10.5 10.875V9.9C10.5 8.16094 9.08906 6.75 7.35 6.75Z" fill="#605E5C"/>
</g>
<defs>
<clipPath id="clip0_346_2199">
<rect width="10.5" height="12" fill="white"/>
</clipPath>
</defs>
</svg>
