<svg width="262" height="262" viewBox="0 0 262 262" fill="none" xmlns="http://www.w3.org/2000/svg">
<path d="M37.2986 131L39.118 147.375L27.7465 150.104L37.2986 131Z" fill="url(#paint0_linear_6_1155)"/>
<path d="M50.9444 138.278L52.1953 150.957L45.2871 150.14L50.9444 138.278Z" fill="url(#paint1_linear_6_1155)"/>
<path d="M50.9445 138.278L58.8477 148.369L51.8542 151.014L50.9445 138.278Z" fill="url(#paint2_linear_6_1155)"/>
<path d="M25.4722 141.917L26.3819 151.469L18.6493 155.108L25.4722 141.917Z" fill="url(#paint3_linear_6_1155)"/>
<path d="M25.4722 141.917L31.3854 149.649L26.382 151.469L25.4722 141.917Z" fill="url(#paint4_linear_6_1155)"/>
<path d="M37.2986 131L48.2153 144.191L39.118 146.92L37.2986 131Z" fill="url(#paint5_linear_6_1155)"/>
<path opacity="0.8" d="M131 217.736C203.349 217.736 262 199.179 262 176.287C262 153.395 203.349 134.838 131 134.838C58.6507 134.838 0 153.395 0 176.287C0 199.179 58.6507 217.736 131 217.736Z" fill="url(#paint6_linear_6_1155)"/>
<path d="M231.809 141.746L230.562 157.865L221.318 155.219L231.809 141.746Z" fill="url(#paint7_linear_6_1155)"/>
<path d="M231.514 141.746L239.229 155.949L230.273 157.865L231.514 141.746Z" fill="url(#paint8_linear_6_1155)"/>
<path opacity="0.8" d="M42.7865 87.5107C41.8311 82.3904 37.358 78.7128 32.1995 78.8064C29.4396 78.7935 26.7758 79.8292 24.7369 81.7079C23.5944 81.1878 22.3557 80.9183 21.1026 80.9172C17.1319 80.854 13.6558 83.5972 12.7565 87.5035C9.70494 88.1848 7.50447 90.8766 7.41992 94.0317C7.53726 97.871 10.6993 100.896 14.5019 100.806H41.0196C44.8237 100.9 47.9881 97.8728 48.1016 94.0317C48.0187 90.8849 45.8284 88.1977 42.7865 87.5107Z" fill="url(#paint9_linear_6_1155)"/>
<path opacity="0.8" d="M196.683 51.9639C195.304 49.8043 192.973 48.4628 190.438 48.3703C188.961 46.0855 186.432 44.7287 183.739 44.7766C181.58 44.7548 179.503 45.6157 177.977 47.1651C177.278 46.939 176.549 46.8232 175.816 46.8218C172.423 46.8218 169.621 49.2029 169.333 52.2122C166.747 52.8373 164.885 55.1282 164.773 57.8218C164.773 61.0649 167.705 63.709 171.256 63.709H196.157C199.758 63.709 202.64 61.0649 202.64 57.8218C202.697 54.7395 200.032 52.2049 196.683 51.9639Z" fill="url(#paint10_linear_6_1155)"/>
<path opacity="0.8" d="M242.97 43.942C240.539 38.9334 235.464 35.7462 229.892 35.729C226.789 35.7357 223.77 36.7409 221.283 38.5957C218.324 32.8301 211.898 29.7224 205.536 30.9803C199.174 32.2382 194.417 37.5568 193.879 44.0137C187.035 46.1711 182.788 52.9921 183.877 60.0787C184.965 67.1652 191.064 72.4001 198.241 72.4082H238.73C245.949 72.4218 252.084 67.1438 253.142 60.0107C254.201 52.8776 249.861 46.0488 242.949 43.9707L242.97 43.942Z" fill="url(#paint11_linear_6_1155)"/>
<path opacity="0.385356" d="M159.482 168.718L203 199.537L126.47 224.172L89.6075 158.759L142.766 158.759L159.482 168.718Z" fill="url(#paint12_linear_6_1155)"/>
<path d="M88.7543 103.008H69.0029V94.3377C69.0029 94.3377 68.5047 86 80.5302 86C92.1414 86 88.7543 103.008 88.7543 103.008Z" fill="url(#paint13_linear_6_1155)"/>
<path d="M80.0695 86C80.0695 86 87.6555 86.9273 87.6555 96.7203C87.6555 106.513 87.6555 153.455 87.6555 153.455C87.6555 153.455 87.492 160.777 95.3824 160.777C103.27 160.777 118.121 160.777 118.121 160.777L129.628 126.807V99.1002C129.628 99.1002 130.499 86.0027 118.699 86.0027C108.119 86 80.0695 86 80.0695 86Z" fill="url(#paint14_linear_6_1155)"/>
<g filter="url(#filter0_d_6_1155)">
<path d="M121.271 94.6419H95.6006C94.9481 94.6419 94.4191 95.1709 94.4191 95.8234V98.5011C94.4191 99.1536 94.9481 99.6825 95.6006 99.6825H121.271C121.923 99.6825 122.452 99.1536 122.452 98.5011V95.8234C122.452 95.1709 121.923 94.6419 121.271 94.6419Z" fill="url(#paint15_linear_6_1155)"/>
</g>
<g filter="url(#filter1_d_6_1155)">
<path d="M113.407 104.617H95.6006C94.9481 104.617 94.4191 105.146 94.4191 105.799V108.476C94.4191 109.129 94.9481 109.658 95.6006 109.658H113.407C114.06 109.658 114.589 109.129 114.589 108.476V105.799C114.589 105.146 114.06 104.617 113.407 104.617Z" fill="url(#paint16_linear_6_1155)"/>
</g>
<g filter="url(#filter2_d_6_1155)">
<path d="M113.407 114.592H95.6006C94.9481 114.592 94.4191 115.121 94.4191 115.774V118.451C94.4191 119.104 94.9481 119.633 95.6006 119.633H113.407C114.06 119.633 114.589 119.104 114.589 118.451V115.774C114.589 115.121 114.06 114.592 113.407 114.592Z" fill="url(#paint17_linear_6_1155)"/>
</g>
<path d="M98.3585 160.777H133.493L129.602 132.454C129.602 132.454 124.709 125.571 115.087 125.571C104.248 125.571 104.776 135.828 104.776 136.358C104.776 136.889 104.776 154.028 104.776 154.028C104.776 154.028 104.703 160.777 98.3585 160.777Z" fill="url(#paint18_linear_6_1155)"/>
<path d="M159.482 168.718H127.179V136.865C127.179 136.865 127.968 125.571 115.204 125.571C129.685 125.571 145.373 125.571 145.373 125.571C145.373 125.571 159.482 125.218 159.482 139.687C159.482 154.157 159.482 168.718 159.482 168.718Z" fill="url(#paint19_linear_6_1155)"/>
<g filter="url(#filter3_d_6_1155)">
<path d="M152.436 135.562H134.585C133.932 135.562 133.404 136.091 133.404 136.744V139.422C133.404 140.074 133.932 140.603 134.585 140.603H152.436C153.089 140.603 153.618 140.074 153.618 139.422V136.744C153.618 136.091 153.089 135.562 152.436 135.562Z" fill="url(#paint20_linear_6_1155)"/>
</g>
<g filter="url(#filter4_d_6_1155)">
<path d="M148.105 145.538H134.585C133.932 145.538 133.404 146.067 133.404 146.719V149.397C133.404 150.05 133.932 150.579 134.585 150.579H148.105C148.757 150.579 149.286 150.05 149.286 149.397V146.719C149.286 146.067 148.757 145.538 148.105 145.538Z" fill="url(#paint21_linear_6_1155)"/>
</g>
<g filter="url(#filter5_d_6_1155)">
<path d="M150.03 155.513H134.585C133.932 155.513 133.404 156.042 133.404 156.695V159.372C133.404 160.025 133.932 160.554 134.585 160.554H150.03C150.682 160.554 151.211 160.025 151.211 159.372V156.695C151.211 156.042 150.682 155.513 150.03 155.513Z" fill="url(#paint22_linear_6_1155)"/>
</g>
<path d="M170.361 153.361C176.503 147.22 176.503 137.262 170.361 131.12C164.22 124.979 154.262 124.979 148.12 131.12C141.979 137.262 141.979 147.22 148.12 153.361C154.262 159.503 164.22 159.503 170.361 153.361Z" fill="url(#paint23_linear_6_1155)"/>
<path d="M160.813 127.879C166.611 127.877 171.84 131.356 174.06 136.693C176.28 142.031 175.055 148.175 170.956 152.262C166.857 156.348 160.691 157.571 155.334 155.361C149.977 153.15 146.484 147.941 146.484 142.163C146.493 134.278 152.905 127.888 160.818 127.879H160.813ZM160.818 124.974C151.291 124.974 143.568 132.67 143.568 142.163C143.568 151.657 151.291 159.353 160.818 159.353C170.345 159.353 178.068 151.657 178.068 142.163C178.068 132.67 170.345 124.974 160.818 124.974Z" fill="#0478ED"/>
<path d="M170.805 152.453C170.225 152.452 169.67 152.682 169.259 153.091L169.148 153.202C168.737 153.612 168.505 154.17 168.505 154.751C168.505 155.333 168.737 155.89 169.148 156.301L179.18 166.336C179.59 166.748 180.147 166.979 180.728 166.979C181.31 166.979 181.867 166.748 182.277 166.336L182.388 166.224C182.8 165.814 183.032 165.256 183.032 164.675C183.032 164.094 182.8 163.536 182.388 163.126L172.352 153.091C171.941 152.681 171.385 152.452 170.805 152.453Z" fill="#63A6F9"/>
<path d="M171.773 152.453C171.194 152.452 170.638 152.682 170.228 153.091L170.117 153.202C169.705 153.612 169.474 154.17 169.474 154.751C169.474 155.333 169.705 155.89 170.117 156.301L180.148 166.336C180.558 166.748 181.116 166.979 181.697 166.979C182.278 166.979 182.835 166.748 183.246 166.336L183.357 166.224C183.769 165.814 184 165.256 184 164.675C184 164.094 183.769 163.536 183.357 163.126L173.32 153.091C172.909 152.681 172.353 152.452 171.773 152.453Z" fill="#3597FB"/>
<path d="M160.092 157.9C168.817 157.9 175.889 150.881 175.889 142.223C175.889 133.566 168.817 126.547 160.092 126.547C151.367 126.547 144.294 133.566 144.294 142.223C144.294 150.881 151.367 157.9 160.092 157.9Z" fill="url(#paint24_linear_6_1155)"/>
<path d="M160.086 127.637C165.885 127.635 171.113 131.114 173.334 136.451C175.554 141.788 174.329 147.933 170.23 152.019C166.131 156.106 159.965 157.329 154.608 155.118C149.251 152.908 145.758 147.699 145.758 141.921C145.767 134.036 152.179 127.646 160.092 127.637H160.086ZM160.092 124.731C150.565 124.731 142.842 132.428 142.842 141.921C142.842 151.415 150.565 159.111 160.092 159.111C169.619 159.111 177.342 151.415 177.342 141.921C177.342 132.428 169.619 124.731 160.092 124.731Z" fill="url(#paint25_linear_6_1155)"/>
<path d="M154.975 143.788C156.027 145.281 158.204 145.148 158.204 145.148C157.66 144.636 157.306 144.168 157.27 142.835C157.233 141.502 156.453 141.148 156.453 141.148C157.85 140.292 157.351 139.365 157.306 138.332C157.279 137.687 157.669 137.21 157.977 136.936C156.202 137.195 154.598 138.111 153.5 139.493C152.401 140.875 151.893 142.616 152.081 144.354C152.208 144.009 154.004 142.411 154.975 143.788Z" fill="url(#paint26_linear_6_1155)"/>
<path d="M167.793 141.203C167.746 141.054 167.689 140.91 167.622 140.769V140.76C167.307 140.12 166.785 139.604 166.141 139.297C165.497 138.99 164.768 138.911 164.073 139.07C163.377 139.23 162.756 139.621 162.31 140.178C161.865 140.735 161.62 141.427 161.616 142.141C161.616 142.366 161.64 142.59 161.688 142.809C161.689 142.812 161.689 142.815 161.688 142.818C161.706 142.908 161.733 142.999 161.76 143.089C161.921 143.725 161.953 144.386 161.853 145.034C161.752 145.683 161.523 146.304 161.177 146.861C160.832 147.419 160.378 147.901 159.842 148.278C159.307 148.656 158.701 148.922 158.06 149.061C157.42 149.199 156.758 149.207 156.114 149.083C155.471 148.96 154.859 148.708 154.314 148.343C153.77 147.978 153.305 147.506 152.947 146.957C152.589 146.408 152.345 145.792 152.229 145.146C152.392 146.266 152.788 147.338 153.392 148.294C153.995 149.251 154.792 150.069 155.732 150.698C156.671 151.326 157.732 151.75 158.846 151.942C159.959 152.134 161.101 152.09 162.196 151.812C163.292 151.534 164.317 151.03 165.205 150.33C166.093 149.631 166.824 148.753 167.352 147.753C167.88 146.753 168.191 145.653 168.267 144.525C168.343 143.396 168.182 142.264 167.793 141.203Z" fill="url(#paint27_linear_6_1155)"/>
<path fill-rule="evenodd" clip-rule="evenodd" d="M166.606 143.332C166.606 147.224 163.386 150.379 159.415 150.379C157.308 150.379 155.412 149.49 154.097 148.074C154.176 148.134 154.258 148.191 154.341 148.246C154.891 148.607 155.51 148.856 156.16 148.979C156.811 149.101 157.48 149.093 158.127 148.956C158.774 148.819 159.387 148.556 159.928 148.182C160.47 147.808 160.928 147.331 161.277 146.779C161.626 146.228 161.858 145.613 161.96 144.972C162.061 144.33 162.029 143.675 161.867 143.046C161.839 142.957 161.812 142.868 161.794 142.778C161.794 142.775 161.794 142.772 161.794 142.769C161.745 142.552 161.721 142.331 161.721 142.108C161.725 141.402 161.972 140.717 162.422 140.166C162.873 139.614 163.501 139.228 164.203 139.07C164.493 139.004 164.789 138.979 165.082 138.994C166.037 140.19 166.606 141.696 166.606 143.332Z" fill="url(#paint28_linear_6_1155)"/>
<path d="M165.554 136.07V135.937C165.554 135.75 165.593 135.578 165.679 135.421C165.749 135.281 165.859 135.14 166.007 135.015C166.375 134.694 166.594 134.491 166.664 134.405C166.86 134.155 166.961 133.834 166.961 133.451C166.961 132.982 166.805 132.606 166.492 132.333C166.179 132.051 165.773 131.918 165.272 131.918C164.694 131.918 164.24 132.083 163.912 132.419C163.583 132.747 163.419 133.193 163.419 133.764H164.24C164.24 133.42 164.31 133.154 164.451 132.966C164.608 132.739 164.866 132.63 165.218 132.63C165.499 132.63 165.726 132.708 165.882 132.864C166.031 133.021 166.109 133.232 166.109 133.506C166.109 133.709 166.031 133.897 165.89 134.076L165.757 134.225C165.272 134.655 164.975 134.976 164.873 135.195C164.764 135.398 164.717 135.648 164.717 135.937V136.07H165.554ZM165.131 137.611C165.288 137.611 165.429 137.556 165.538 137.454C165.648 137.345 165.71 137.212 165.71 137.048C165.71 136.884 165.655 136.751 165.546 136.649C165.436 136.54 165.296 136.493 165.131 136.493C164.975 136.493 164.834 136.54 164.725 136.649C164.615 136.751 164.561 136.884 164.561 137.048C164.561 137.204 164.615 137.337 164.725 137.447C164.834 137.556 164.975 137.611 165.131 137.611Z" fill="url(#paint29_linear_6_1155)"/>
<path d="M165.216 136.07V135.938C165.216 135.75 165.255 135.578 165.341 135.421C165.412 135.281 165.521 135.14 165.67 135.015C166.037 134.694 166.256 134.491 166.326 134.405C166.522 134.155 166.624 133.834 166.624 133.451C166.624 132.982 166.467 132.607 166.154 132.333C165.842 132.051 165.435 131.918 164.935 131.918C164.356 131.918 163.902 132.083 163.574 132.419C163.246 132.747 163.081 133.193 163.081 133.764H163.902C163.902 133.42 163.973 133.154 164.114 132.966C164.27 132.739 164.528 132.63 164.88 132.63C165.161 132.63 165.388 132.708 165.544 132.865C165.693 133.021 165.771 133.232 165.771 133.506C165.771 133.709 165.693 133.897 165.552 134.077L165.419 134.225C164.935 134.655 164.637 134.976 164.536 135.195C164.426 135.398 164.379 135.648 164.379 135.938V136.07H165.216ZM164.794 137.611C164.95 137.611 165.091 137.556 165.2 137.455C165.31 137.345 165.372 137.212 165.372 137.048C165.372 136.884 165.318 136.751 165.208 136.649C165.099 136.54 164.958 136.493 164.794 136.493C164.637 136.493 164.497 136.54 164.387 136.649C164.278 136.751 164.223 136.884 164.223 137.048C164.223 137.204 164.278 137.337 164.387 137.447C164.497 137.556 164.637 137.611 164.794 137.611Z" fill="url(#paint30_linear_6_1155)"/>
<defs>
<filter id="filter0_d_6_1155" x="94.4191" y="94.6419" width="28.7332" height="5.74063" filterUnits="userSpaceOnUse" color-interpolation-filters="sRGB">
<feFlood flood-opacity="0" result="BackgroundImageFix"/>
<feColorMatrix in="SourceAlpha" type="matrix" values="0 0 0 0 0 0 0 0 0 0 0 0 0 0 0 0 0 0 127 0" result="hardAlpha"/>
<feOffset dx="0.5" dy="0.5"/>
<feGaussianBlur stdDeviation="0.1"/>
<feComposite in2="hardAlpha" operator="out"/>
<feColorMatrix type="matrix" values="0 0 0 0 0.0156863 0 0 0 0 0.470588 0 0 0 0 0.929412 0 0 0 1 0"/>
<feBlend mode="normal" in2="BackgroundImageFix" result="effect1_dropShadow_6_1155"/>
<feBlend mode="normal" in="SourceGraphic" in2="effect1_dropShadow_6_1155" result="shape"/>
</filter>
<filter id="filter1_d_6_1155" x="94.4191" y="104.617" width="20.8697" height="5.74063" filterUnits="userSpaceOnUse" color-interpolation-filters="sRGB">
<feFlood flood-opacity="0" result="BackgroundImageFix"/>
<feColorMatrix in="SourceAlpha" type="matrix" values="0 0 0 0 0 0 0 0 0 0 0 0 0 0 0 0 0 0 127 0" result="hardAlpha"/>
<feOffset dx="0.5" dy="0.5"/>
<feGaussianBlur stdDeviation="0.1"/>
<feComposite in2="hardAlpha" operator="out"/>
<feColorMatrix type="matrix" values="0 0 0 0 0.0156863 0 0 0 0 0.470588 0 0 0 0 0.929412 0 0 0 1 0"/>
<feBlend mode="normal" in2="BackgroundImageFix" result="effect1_dropShadow_6_1155"/>
<feBlend mode="normal" in="SourceGraphic" in2="effect1_dropShadow_6_1155" result="shape"/>
</filter>
<filter id="filter2_d_6_1155" x="94.4191" y="114.592" width="20.8697" height="5.74063" filterUnits="userSpaceOnUse" color-interpolation-filters="sRGB">
<feFlood flood-opacity="0" result="BackgroundImageFix"/>
<feColorMatrix in="SourceAlpha" type="matrix" values="0 0 0 0 0 0 0 0 0 0 0 0 0 0 0 0 0 0 127 0" result="hardAlpha"/>
<feOffset dx="0.5" dy="0.5"/>
<feGaussianBlur stdDeviation="0.1"/>
<feComposite in2="hardAlpha" operator="out"/>
<feColorMatrix type="matrix" values="0 0 0 0 0.0156863 0 0 0 0 0.470588 0 0 0 0 0.929412 0 0 0 1 0"/>
<feBlend mode="normal" in2="BackgroundImageFix" result="effect1_dropShadow_6_1155"/>
<feBlend mode="normal" in="SourceGraphic" in2="effect1_dropShadow_6_1155" result="shape"/>
</filter>
<filter id="filter3_d_6_1155" x="133.404" y="135.562" width="20.9141" height="5.74063" filterUnits="userSpaceOnUse" color-interpolation-filters="sRGB">
<feFlood flood-opacity="0" result="BackgroundImageFix"/>
<feColorMatrix in="SourceAlpha" type="matrix" values="0 0 0 0 0 0 0 0 0 0 0 0 0 0 0 0 0 0 127 0" result="hardAlpha"/>
<feOffset dx="0.5" dy="0.5"/>
<feGaussianBlur stdDeviation="0.1"/>
<feComposite in2="hardAlpha" operator="out"/>
<feColorMatrix type="matrix" values="0 0 0 0 0.0156863 0 0 0 0 0.470588 0 0 0 0 0.929412 0 0 0 1 0"/>
<feBlend mode="normal" in2="BackgroundImageFix" result="effect1_dropShadow_6_1155"/>
<feBlend mode="normal" in="SourceGraphic" in2="effect1_dropShadow_6_1155" result="shape"/>
</filter>
<filter id="filter4_d_6_1155" x="133.404" y="145.538" width="16.5825" height="5.74064" filterUnits="userSpaceOnUse" color-interpolation-filters="sRGB">
<feFlood flood-opacity="0" result="BackgroundImageFix"/>
<feColorMatrix in="SourceAlpha" type="matrix" values="0 0 0 0 0 0 0 0 0 0 0 0 0 0 0 0 0 0 127 0" result="hardAlpha"/>
<feOffset dx="0.5" dy="0.5"/>
<feGaussianBlur stdDeviation="0.1"/>
<feComposite in2="hardAlpha" operator="out"/>
<feColorMatrix type="matrix" values="0 0 0 0 0.0156863 0 0 0 0 0.470588 0 0 0 0 0.929412 0 0 0 1 0"/>
<feBlend mode="normal" in2="BackgroundImageFix" result="effect1_dropShadow_6_1155"/>
<feBlend mode="normal" in="SourceGraphic" in2="effect1_dropShadow_6_1155" result="shape"/>
</filter>
<filter id="filter5_d_6_1155" x="133.404" y="155.513" width="18.5077" height="5.74063" filterUnits="userSpaceOnUse" color-interpolation-filters="sRGB">
<feFlood flood-opacity="0" result="BackgroundImageFix"/>
<feColorMatrix in="SourceAlpha" type="matrix" values="0 0 0 0 0 0 0 0 0 0 0 0 0 0 0 0 0 0 127 0" result="hardAlpha"/>
<feOffset dx="0.5" dy="0.5"/>
<feGaussianBlur stdDeviation="0.1"/>
<feComposite in2="hardAlpha" operator="out"/>
<feColorMatrix type="matrix" values="0 0 0 0 0.0156863 0 0 0 0 0.470588 0 0 0 0 0.929412 0 0 0 1 0"/>
<feBlend mode="normal" in2="BackgroundImageFix" result="effect1_dropShadow_6_1155"/>
<feBlend mode="normal" in="SourceGraphic" in2="effect1_dropShadow_6_1155" result="shape"/>
</filter>
<linearGradient id="paint0_linear_6_1155" x1="32.1103" y1="130.714" x2="37.2487" y2="158.555" gradientUnits="userSpaceOnUse">
<stop stop-color="#F8FBFF"/>
<stop offset="1" stop-color="#F3F8FF" stop-opacity="0"/>
</linearGradient>
<linearGradient id="paint1_linear_6_1155" x1="48.7412" y1="138.54" x2="51.4288" y2="151.672" gradientUnits="userSpaceOnUse">
<stop stop-color="#F8FBFF"/>
<stop offset="1" stop-color="#F3F8FF" stop-opacity="0"/>
</linearGradient>
<linearGradient id="paint2_linear_6_1155" x1="51.1719" y1="138.676" x2="52.647" y2="152.421" gradientUnits="userSpaceOnUse">
<stop stop-color="#E0EDFF"/>
<stop offset="1" stop-color="#E4EFFF" stop-opacity="0"/>
</linearGradient>
<linearGradient id="paint3_linear_6_1155" x1="22.6435" y1="141.746" x2="25.9271" y2="158.292" gradientUnits="userSpaceOnUse">
<stop stop-color="#F8FBFF"/>
<stop offset="1" stop-color="#F3F8FF" stop-opacity="0"/>
</linearGradient>
<linearGradient id="paint4_linear_6_1155" x1="23.6528" y1="141.917" x2="35.4792" y2="156.472" gradientUnits="userSpaceOnUse">
<stop stop-color="#D5E6FF"/>
<stop offset="1" stop-color="#E4EFFF"/>
</linearGradient>
<linearGradient id="paint5_linear_6_1155" x1="37.6113" y1="131" x2="40.5395" y2="159.96" gradientUnits="userSpaceOnUse">
<stop stop-color="#E0EDFF"/>
<stop offset="1" stop-color="#E4EFFF" stop-opacity="0"/>
</linearGradient>
<linearGradient id="paint6_linear_6_1155" x1="131" y1="217.736" x2="131" y2="134.838" gradientUnits="userSpaceOnUse">
<stop offset="0.120601" stop-color="white" stop-opacity="0"/>
<stop offset="0.293078" stop-color="#FBFDFF" stop-opacity="0.1"/>
<stop offset="0.432925" stop-color="#F1F7FF" stop-opacity="0.2"/>
<stop offset="0.653246" stop-color="#EAF3FF" stop-opacity="0.478824"/>
<stop offset="0.81" stop-color="#E1EEFF" stop-opacity="0.82"/>
<stop offset="1" stop-color="#D9E9FF"/>
</linearGradient>
<linearGradient id="paint7_linear_6_1155" x1="226.563" y1="141.568" x2="229.644" y2="158.98" gradientUnits="userSpaceOnUse">
<stop stop-color="#F9FBFF"/>
<stop offset="1" stop-color="#E5F0FE" stop-opacity="0.22"/>
</linearGradient>
<linearGradient id="paint8_linear_6_1155" x1="230.434" y1="141.746" x2="232.644" y2="159.723" gradientUnits="userSpaceOnUse">
<stop stop-color="#D7E7FF"/>
<stop offset="1" stop-color="#E4EFFF"/>
</linearGradient>
<linearGradient id="paint9_linear_6_1155" x1="27.7464" y1="100.836" x2="27.7464" y2="78.7917" gradientUnits="userSpaceOnUse">
<stop offset="0.208333" stop-color="white" stop-opacity="0"/>
<stop offset="0.494792" stop-color="#F7FAFF" stop-opacity="0.213439"/>
<stop offset="0.755208" stop-color="#EFF6FF" stop-opacity="0.409091"/>
<stop offset="1" stop-color="#D9E9FF"/>
</linearGradient>
<linearGradient id="paint10_linear_6_1155" x1="183.661" y1="63.722" x2="183.661" y2="44.7633" gradientUnits="userSpaceOnUse">
<stop offset="0.0207315" stop-color="white" stop-opacity="0"/>
<stop offset="0.404824" stop-color="#F5F9FF" stop-opacity="0.1"/>
<stop offset="0.571948" stop-color="#EEF5FF" stop-opacity="0.3"/>
<stop offset="0.772394" stop-color="#E4EFFF" stop-opacity="0.74"/>
<stop offset="1" stop-color="#D9E9FF"/>
</linearGradient>
<linearGradient id="paint11_linear_6_1155" x1="218.419" y1="72.4369" x2="218.419" y2="30.6764" gradientUnits="userSpaceOnUse">
<stop offset="0.0207315" stop-color="white" stop-opacity="0"/>
<stop offset="0.404824" stop-color="#F5F9FF" stop-opacity="0.1"/>
<stop offset="0.571948" stop-color="#EEF5FF" stop-opacity="0.3"/>
<stop offset="0.772394" stop-color="#E4EFFF" stop-opacity="0.74"/>
<stop offset="1" stop-color="#D9E9FF"/>
</linearGradient>
<linearGradient id="paint12_linear_6_1155" x1="146.007" y1="205.307" x2="138.061" y2="171.677" gradientUnits="userSpaceOnUse">
<stop stop-color="white" stop-opacity="0"/>
<stop offset="1" stop-color="#8FC4FF"/>
</linearGradient>
<linearGradient id="paint13_linear_6_1155" x1="89.6075" y1="116.369" x2="69" y2="77.8655" gradientUnits="userSpaceOnUse">
<stop stop-color="#F6FBFF"/>
<stop offset="1" stop-color="#9DC8F5"/>
</linearGradient>
<linearGradient id="paint14_linear_6_1155" x1="79.846" y1="86" x2="117.545" y2="128.753" gradientUnits="userSpaceOnUse">
<stop stop-color="#EDF5FF"/>
<stop offset="1" stop-color="#3A96F4"/>
</linearGradient>
<linearGradient id="paint15_linear_6_1155" x1="119.977" y1="100.1" x2="116.606" y2="89.5272" gradientUnits="userSpaceOnUse">
<stop stop-color="#D9E9FF"/>
<stop offset="0.31" stop-color="#DFECFF"/>
<stop offset="0.73" stop-color="#F0F6FF"/>
<stop offset="1" stop-color="white"/>
</linearGradient>
<linearGradient id="paint16_linear_6_1155" x1="112.808" y1="110.075" x2="108.493" y2="100.34" gradientUnits="userSpaceOnUse">
<stop stop-color="#D9E9FF"/>
<stop offset="0.31" stop-color="#DFECFF"/>
<stop offset="0.73" stop-color="#F0F6FF"/>
<stop offset="1" stop-color="white"/>
</linearGradient>
<linearGradient id="paint17_linear_6_1155" x1="112.808" y1="120.05" x2="108.493" y2="110.314" gradientUnits="userSpaceOnUse">
<stop stop-color="#D9E9FF"/>
<stop offset="0.31" stop-color="#DFECFF"/>
<stop offset="0.73" stop-color="#F0F6FF"/>
<stop offset="1" stop-color="white"/>
</linearGradient>
<linearGradient id="paint18_linear_6_1155" x1="141.126" y1="160.838" x2="98.287" y2="125.043" gradientUnits="userSpaceOnUse">
<stop stop-color="#F5FBFF"/>
<stop offset="1" stop-color="#8ABEF8"/>
</linearGradient>
<linearGradient id="paint19_linear_6_1155" x1="115.004" y1="125.571" x2="133.863" y2="158.678" gradientUnits="userSpaceOnUse">
<stop stop-color="#EDF5FF"/>
<stop offset="1" stop-color="#3A96F4"/>
</linearGradient>
<linearGradient id="paint20_linear_6_1155" x1="151.832" y1="141.02" x2="147.525" y2="131.278" gradientUnits="userSpaceOnUse">
<stop stop-color="#D9E9FF"/>
<stop offset="0.31" stop-color="#DFECFF"/>
<stop offset="0.73" stop-color="#F0F6FF"/>
<stop offset="1" stop-color="white"/>
</linearGradient>
<linearGradient id="paint21_linear_6_1155" x1="147.883" y1="150.996" x2="142.905" y2="142.15" gradientUnits="userSpaceOnUse">
<stop stop-color="#D9E9FF"/>
<stop offset="0.31" stop-color="#DFECFF"/>
<stop offset="0.73" stop-color="#F0F6FF"/>
<stop offset="1" stop-color="white"/>
</linearGradient>
<linearGradient id="paint22_linear_6_1155" x1="149.639" y1="160.971" x2="144.969" y2="151.668" gradientUnits="userSpaceOnUse">
<stop stop-color="#D9E9FF"/>
<stop offset="0.31" stop-color="#DFECFF"/>
<stop offset="0.73" stop-color="#F0F6FF"/>
<stop offset="1" stop-color="white"/>
</linearGradient>
<linearGradient id="paint23_linear_6_1155" x1="174.65" y1="139.844" x2="143.892" y2="139.963" gradientUnits="userSpaceOnUse">
<stop stop-color="#D2E8FF"/>
<stop offset="1" stop-color="#D2E8FF" stop-opacity="0"/>
</linearGradient>
<linearGradient id="paint24_linear_6_1155" x1="152.17" y1="126.851" x2="174.681" y2="153.766" gradientUnits="userSpaceOnUse">
<stop stop-color="#E3F1FF" stop-opacity="0.8"/>
<stop offset="1" stop-color="#D2E8FF"/>
</linearGradient>
<linearGradient id="paint25_linear_6_1155" x1="147.601" y1="130.745" x2="168.962" y2="155.735" gradientUnits="userSpaceOnUse">
<stop stop-color="#BDDDFF"/>
<stop offset="1" stop-color="#379AFF"/>
</linearGradient>
<linearGradient id="paint26_linear_6_1155" x1="152.733" y1="138.338" x2="154.937" y2="146.154" gradientUnits="userSpaceOnUse">
<stop stop-color="#C8E0FF"/>
<stop offset="1" stop-color="#4CA2FD"/>
</linearGradient>
<linearGradient id="paint27_linear_6_1155" x1="158.932" y1="140.181" x2="163.773" y2="150.791" gradientUnits="userSpaceOnUse">
<stop stop-color="#B7D9FE"/>
<stop offset="1" stop-color="#3597FB"/>
</linearGradient>
<linearGradient id="paint28_linear_6_1155" x1="161.228" y1="139.069" x2="163.299" y2="152.565" gradientUnits="userSpaceOnUse">
<stop stop-color="#C9E0FF"/>
<stop offset="0.35936" stop-color="#8ABDFF"/>
<stop offset="1" stop-color="#3094FF"/>
</linearGradient>
<linearGradient id="paint29_linear_6_1155" x1="165.19" y1="131.918" x2="165.19" y2="137.611" gradientUnits="userSpaceOnUse">
<stop stop-color="#3E9DFC"/>
<stop offset="1" stop-color="#0478ED"/>
</linearGradient>
<linearGradient id="paint30_linear_6_1155" x1="163.081" y1="131.918" x2="166.402" y2="136.662" gradientUnits="userSpaceOnUse">
<stop stop-color="#94CDF3"/>
<stop offset="1" stop-color="#378DF2"/>
</linearGradient>
</defs>
</svg>
