<svg width="104" height="110" viewBox="0 0 104 110" fill="none" xmlns="http://www.w3.org/2000/svg">
<path d="M95.6398 35.9114C95.3711 35.0494 95.041 34.2082 94.6525 33.394V33.3416C92.8389 29.6178 89.8319 26.6216 86.1194 24.8389C82.4066 23.0563 78.2063 22.592 74.1992 23.5209C70.1922 24.4499 66.6138 26.718 64.0443 29.957C61.4747 33.1962 60.0649 37.2164 60.0434 41.3656C60.0437 42.6706 60.1832 43.9719 60.4592 45.2467C60.4605 45.264 60.4605 45.2816 60.4592 45.2991C60.563 45.8236 60.7189 46.348 60.875 46.8724C61.8023 50.5669 61.9829 54.4121 61.4054 58.1785C60.8282 61.9449 59.505 65.5553 57.5146 68.7943C55.5244 72.0331 52.908 74.8343 49.8216 77.0301C46.7352 79.2262 43.242 80.7722 39.5504 81.5758C35.859 82.3794 32.0449 82.4242 28.3359 81.7076C24.627 80.9908 21.0991 79.5274 17.9629 77.4045C14.8266 75.2815 12.1463 72.5428 10.0819 69.3513C8.01747 66.1601 6.61129 62.5817 5.94727 58.83C6.88627 65.3334 9.16805 71.5655 12.6449 77.1224C16.1218 82.6796 20.7163 87.4379 26.1309 91.0891C31.5453 94.7406 37.6593 97.2036 44.0769 98.319C50.4947 99.4345 57.0728 99.1774 63.3858 97.5643C69.6986 95.9512 75.6055 93.0181 80.724 88.9549C85.8424 84.8919 90.0585 79.7891 93.0989 73.9773C96.1394 68.1655 97.9367 61.7739 98.3744 55.2166C98.8121 48.6593 97.8804 42.0822 95.6398 35.9114Z" fill="url(#paint0_linear_992_3384)"/>
<path d="M21.7968 51.6973C27.8248 60.5606 40.2965 59.7738 40.2965 59.7738C37.1787 56.7321 35.152 53.9526 34.9441 46.0333C34.7362 38.1141 30.2673 36.0163 30.2673 36.0163C38.27 30.9292 35.4119 25.4224 35.152 19.2863C34.9961 15.4578 37.2305 12.6258 38.9975 11C28.8281 12.5373 19.6393 17.9767 13.3464 26.1839C7.05351 34.3913 4.14234 44.7334 5.21982 55.0539C5.94733 53.0085 16.2365 43.5159 21.7968 51.6973Z" fill="url(#paint1_linear_992_3384)"/>
<path d="M95.6398 35.9114C95.3711 35.0494 95.041 34.2082 94.6525 33.394V33.3416C92.8389 29.6178 89.8319 26.6216 86.1194 24.8389C82.4066 23.0563 78.2063 22.592 74.1992 23.5209C70.1922 24.4499 66.6138 26.718 64.0443 29.957C61.4747 33.1962 60.0649 37.2164 60.0434 41.3656C60.0438 42.6706 60.1832 43.9719 60.4592 45.2467C60.4605 45.264 60.4605 45.2816 60.4592 45.2991C60.563 45.8236 60.7189 46.348 60.875 46.8724C61.8023 50.5669 61.9829 54.4121 61.4054 58.1785C60.8282 61.9449 59.505 65.5553 57.5146 68.7943C55.5244 72.0331 52.908 74.8343 49.8216 77.0301C46.7352 79.2262 43.242 80.7722 39.5504 81.5758C35.859 82.3794 32.0449 82.4242 28.3359 81.7076C24.627 80.9908 21.0991 79.5274 17.9629 77.4045C14.8266 75.2815 12.1463 72.5428 10.0819 69.3513C8.01747 66.1601 6.61129 62.5817 5.94727 58.83C6.88627 65.3334 9.16805 71.5655 12.6449 77.1224C16.1218 82.6796 20.7163 87.4379 26.1309 91.0891C31.5453 94.7406 37.6593 97.2036 44.0769 98.319C50.4947 99.4345 57.0728 99.1774 63.3858 97.5643C69.6986 95.9512 75.6055 93.0181 80.724 88.9549C85.8424 84.8919 90.0585 79.7891 93.0989 73.9773C96.1394 68.1655 97.9367 61.7739 98.3744 55.2166C98.8121 48.6593 97.8804 42.0822 95.6398 35.9114Z" fill="url(#paint2_linear_992_3384)"/>
<path fill-rule="evenodd" clip-rule="evenodd" d="M87.8971 48.5506C87.8971 71.4037 69.5403 89.9299 46.8962 89.9299C34.8777 89.9299 24.067 84.711 16.5676 76.3962C17.0219 76.7462 17.4872 77.0824 17.963 77.4045C21.0992 79.5275 24.6271 80.9908 28.336 81.7076C32.0452 82.4242 35.8591 82.3795 39.5505 81.5759C43.2421 80.7722 46.7353 79.2262 49.8217 77.0302C52.9081 74.8343 55.5246 72.0331 57.5149 68.7943C59.5051 65.5553 60.8283 61.945 61.4057 58.1785C61.983 54.4121 61.8024 50.5669 60.875 46.8724C60.7192 46.348 60.5631 45.8236 60.4593 45.2992C60.4606 45.2816 60.4606 45.264 60.4593 45.2467C60.1833 43.9719 60.0438 42.6707 60.0435 41.3657C60.065 37.2164 61.4748 33.1962 64.0444 29.957C66.6139 26.718 70.1923 24.4499 74.1993 23.5209C75.8524 23.1377 77.5384 22.9916 79.2094 23.0773C84.6528 30.1003 87.8971 38.9431 87.8971 48.5506Z" fill="url(#paint3_linear_992_3384)"/>
<defs>
<linearGradient id="paint0_linear_992_3384" x1="91.2488" y1="28.4748" x2="24.3277" y2="90.8058" gradientUnits="userSpaceOnUse">
<stop stop-color="#6378FF"/>
<stop offset="1" stop-color="#6312FF"/>
</linearGradient>
<linearGradient id="paint1_linear_992_3384" x1="9.40376" y1="31.7721" x2="40.0444" y2="51.8157" gradientUnits="userSpaceOnUse">
<stop stop-color="#DCEEFF"/>
<stop offset="1" stop-color="#ACD4FF"/>
</linearGradient>
<linearGradient id="paint2_linear_992_3384" x1="112.247" y1="101.124" x2="59.341" y2="23.4234" gradientUnits="userSpaceOnUse">
<stop stop-color="#97CCFF"/>
<stop offset="1" stop-color="#D0E7FF"/>
</linearGradient>
<linearGradient id="paint3_linear_992_3384" x1="87.5038" y1="81.8221" x2="61.6229" y2="22.7447" gradientUnits="userSpaceOnUse">
<stop stop-color="#C4DBFB"/>
<stop offset="1" stop-color="#F1F6FE"/>
</linearGradient>
</defs>
</svg>
