<svg xmlns="http://www.w3.org/2000/svg" fill="none" viewBox="0 0 53 36">
  <rect width="51.5" height="35" x=".75" y=".5" fill="#1f72cd" stroke="#e4e4e7" rx="5.5" />
  <path
    fill="#fff"
    fill-rule="evenodd"
    d="M10.27 12.75 5.5 23.62h5.7l.72-1.73h1.62l.7 1.73h6.3V22.3l.55 1.32h3.25l.56-1.35v1.35h13.08l1.6-1.69 1.48 1.69 6.72.01-4.79-5.41 4.79-5.47h-6.62l-1.54 1.66-1.45-1.66H23.95l-1.22 2.8-1.25-2.8h-5.7v1.28l-.64-1.28zm19.53 1.54h7.5l2.3 2.56 2.37-2.56h2.3l-3.5 3.92 3.5 3.88h-2.4l-2.3-2.58-2.38 2.58h-7.4zm1.85 3.04v-1.42h4.69l2.04 2.27-2.14 2.3h-4.59v-1.56h4.1v-1.59zM11.37 14.3h2.79l3.16 7.37V14.3h3.05l2.45 5.29 2.25-5.29h3.04v7.8h-1.85l-.02-6.1-2.69 6.1H21.9L19.2 16v6.1h-3.8l-.73-1.75h-3.89l-.72 1.75H8.03zm.08 4.44 1.28-3.12L14 18.73z"
    clip-rule="evenodd"
  />
</svg>
