<svg xmlns="http://www.w3.org/2000/svg" fill="none" viewBox="0 0 53 36">
  <rect width="51.5" height="35" x=".75" y=".5" fill="#fff" stroke="#e4e4e7" rx="5.5" />
  <path
    fill="#0079be"
    d="M28.81 29.25c5.85.03 11.19-4.81 11.19-10.7 0-6.44-5.34-10.89-11.19-10.89h-5.03A10.6 10.6 0 0 0 13 18.55c0 5.89 4.87 10.73 10.78 10.7z"
  />
  <path
    fill="#fff"
    d="M23.8 8.56a9.84 9.84 0 0 0-9.78 9.88 9.84 9.84 0 0 0 9.79 9.88c5.4 0 9.79-4.43 9.79-9.88a9.84 9.84 0 0 0-9.8-9.88m-6.2 9.88a6.3 6.3 0 0 1 3.99-5.85v11.7a6.3 6.3 0 0 1-3.99-5.85m8.43 5.84V12.6a6.27 6.27 0 0 1 0 11.7"
  />
  <path
    fill="#0079be"
    d="M28.81 29.25c5.85.03 11.19-4.81 11.19-10.7 0-6.44-5.34-10.89-11.19-10.89h-5.03A10.6 10.6 0 0 0 13 18.55c0 5.89 4.87 10.73 10.78 10.7z"
  />
  <path
    fill="#fff"
    d="M23.8 8.56a9.84 9.84 0 0 0-9.78 9.88 9.84 9.84 0 0 0 9.79 9.88c5.4 0 9.79-4.43 9.79-9.88a9.84 9.84 0 0 0-9.8-9.88m-6.2 9.88a6.3 6.3 0 0 1 3.99-5.85v11.7a6.3 6.3 0 0 1-3.99-5.85m8.43 5.84V12.6a6.27 6.27 0 0 1 0 11.7"
  />
</svg>
