<svg xmlns="http://www.w3.org/2000/svg" fill="none" viewBox="0 0 53 36"><rect width="51.5" height="35" x=".75" y=".5" fill="#fff" stroke="#e4e4e7" rx="5.5"/><path fill="#fd6020" d="m22.75 34.5 28.5-8.62v5.62a3 3 0 0 1-3 3z"/><path fill="#000" d="M23.02 13.67c.55 0 1.18.08 1.65.4v1.61c-.4-.48-1.02-.8-1.65-.8a2.4 2.4 0 0 0-2.2 2.5v.15a2.24 2.24 0 0 0 2.28 2.26c.63 0 1.18-.32 1.57-.8v1.6c-.55.25-1.1.41-1.73.41a3.63 3.63 0 0 1-3.52-3.7c0-2.1 1.57-3.8 3.6-3.63m12.31 4.83 1.88-4.83h1.41L35.72 21h-.7l-2.9-7.33h1.4zm-18.58-5c.7 0 1.41.33 1.96.81l-.7.97c-.32-.32-.71-.57-1.1-.57-.47-.08-.86.33-.94.81 0 .4.23.56 1.02.89 1.56.64 1.96 1.12 2.03 2.1v.23c-.07 1.3-1.1 2.26-2.35 2.18-.94 0-1.88-.48-2.35-1.37l.86-.89c.24.57.79.97 1.41.97h.08c.47 0 .94-.48.94-1.05a.9.9 0 0 0-.39-.72 5 5 0 0 0-.94-.4c-1.25-.4-1.65-.97-1.65-1.94v-.08c.08-1.13 1.02-2.01 2.12-1.93m-8.15.17a3.47 3.47 0 0 1 3.3 3.62c0 1.05-.48 2.02-1.26 2.74-.7.57-1.57.89-2.43.8H6.25v-7.16zm5.17 7.17h-1.33v-7.17h1.33zm29.24-5.96h-2.43v1.6h2.36v1.22h-2.36v1.93h2.43v1.2h-3.76v-7.16h3.76zm2.83-1.21c1.56 0 2.43.72 2.43 2.1a1.95 1.95 0 0 1-1.57 2.09l2.12 2.98h-1.65l-1.8-2.9h-.16v2.9h-1.33v-7.17zm-37.87 1.2h-.4v4.76h.4c.63.08 1.33-.16 1.8-.56q.7-.75.71-1.86c0-.64-.24-1.29-.7-1.77a2.4 2.4 0 0 0-1.8-.56m37.24 2.1h.4q1.26-.02 1.25-1.13c0-.64-.4-1.05-1.26-1.05h-.39z"/><path fill="#fd6020" fill-rule="evenodd" d="M28.67 13.5a3.65 3.65 0 0 0-3.6 3.7c0 2.02 1.56 3.71 3.6 3.8s3.6-1.62 3.68-3.71c-.08-2.1-1.64-3.79-3.68-3.79" clip-rule="evenodd"/></svg>