<svg xmlns="http://www.w3.org/2000/svg" fill="none" viewBox="0 0 53 36">
  <rect width="51.5" height="35" x=".75" y=".5" fill="#fff" stroke="#e4e4e7" rx="5.5" />
  <path
    fill="url(#a)"
    d="M33.72 18.43c.77.02 1.55-.03 2.32.03.77.14.96 1.32.27 1.7-.47.26-1.03.1-1.54.14h-1.05zm2.76-2.12c.17.6-.41 1.15-1 1.06h-1.76c.02-.56-.02-1.18.02-1.72.7.02 1.42-.04 2.12.03.3.07.56.32.62.63m4.25-8.96c.03 1.15 0 2.37.01 3.55v14.36a3.56 3.56 0 0 1-3.4 3.39h-5.35V21.4q2.9.02 5.83-.01c.9-.06 1.89-.65 1.93-1.65.1-1-.84-1.68-1.73-1.79-.34 0-.33-.1 0-.14.85-.18 1.52-1.06 1.27-1.94-.21-.93-1.24-1.29-2.09-1.29H32c0-1.35-.03-2.7.02-4.06a3.56 3.56 0 0 1 3.52-3.18z"
  />
  <path
    fill="url(#b)"
    d="M12.35 10.72a3.56 3.56 0 0 1 3.42-3.37h5.33v17.98a3.56 3.56 0 0 1-3.41 3.32h-5.34v-7.48c1.73.4 3.54.58 5.3.31 1.06-.17 2.21-.69 2.57-1.78.26-.94.11-1.92.15-2.88v-2.23h-3.05c-.01 1.47.03 2.95-.02 4.42-.08.9-.98 1.48-1.84 1.45-1.05.01-3.15-.76-3.15-.76 0-2.77.03-6.23.04-8.98"
  />
  <path
    fill="url(#c)"
    d="M22.24 15.49c-.16.03-.03-.55-.07-.77 0-1.4-.03-2.8.02-4.19a3.56 3.56 0 0 1 3.54-3.18h5.2l-.01 17.98a3.56 3.56 0 0 1-3.41 3.32h-5.34v-8.2c1.21 1 2.87 1.16 4.38 1.16 1.14 0 2.28-.18 3.39-.44v-1.5a6 6 0 0 1-4.1.66 2.2 2.2 0 0 1-1.66-2.17c-.11-1.04.5-2.14 1.52-2.44 1.26-.4 2.64-.1 3.83.42.25.13.5.3.4-.13v-1.18c-1.98-.47-4.09-.64-6.08-.13-.58.16-1.14.4-1.6.79"
  />
  <defs>
    <linearGradient
      id="a"
      x1="31.93"
      x2="40.69"
      y1="17.54"
      y2="17.54"
      gradientUnits="userSpaceOnUse"
    >
      <stop stop-color="#58b03a" />
      <stop offset="1" stop-color="#55b330" />
    </linearGradient>
    <linearGradient id="b" x1="12.16" x2="20.96" y1="18.2" y2="18.2" gradientUnits="userSpaceOnUse">
      <stop stop-color="#0f6eb6" />
      <stop offset="1" stop-color="#006dba" />
    </linearGradient>
    <linearGradient
      id="c"
      x1="22.15"
      x2="30.92"
      y1="17.75"
      y2="17.75"
      gradientUnits="userSpaceOnUse"
    >
      <stop stop-color="#de0d3d" />
      <stop offset="1" stop-color="#e30138" />
    </linearGradient>
  </defs>
</svg>
