<svg xmlns="http://www.w3.org/2000/svg" fill="none" viewBox="0 0 53 36">
  <rect width="51.5" height="35" x=".75" y=".5" fill="#fff" stroke="#e4e4e7" rx="5.5" />
  <path
    fill="#ed0006"
    d="M33.51 7.5a10.3 10.3 0 0 1 10.24 10.35A10.3 10.3 0 0 1 33.5 28.21c-2.53 0-4.85-.94-6.64-2.48a10 10 0 0 1-6.64 2.48A10.3 10.3 0 0 1 10 17.85 10.3 10.3 0 0 1 20.23 7.5c2.54 0 4.85.93 6.64 2.48a10 10 0 0 1 6.64-2.48"
  />
  <path
    fill="#f9a000"
    d="M33.51 7.5a10.3 10.3 0 0 1 10.24 10.35A10.3 10.3 0 0 1 33.5 28.21c-2.53 0-4.85-.94-6.64-2.48 2.2-1.9 3.6-4.72 3.6-7.88 0-3.15-1.4-5.97-3.6-7.87a10 10 0 0 1 6.64-2.48"
  />
  <path
    fill="#ff5e00"
    d="M26.87 9.98a10.38 10.38 0 0 1 0 15.75c-2.2-1.9-3.6-4.72-3.6-7.88 0-3.15 1.4-5.97 3.6-7.87"
  />
</svg>
