<svg xmlns="http://www.w3.org/2000/svg" fill="none" viewBox="0 0 53 36">
  <rect width="51.5" height="35" x=".75" y=".5" fill="#fff" stroke="#e4e4e7" rx="5.5" />
  <path
    fill="#e21836"
    d="M16.49 7.5h8.27c1.16 0 1.87.94 1.6 2.1l-3.85 16.54a2.8 2.8 0 0 1-2.58 2.1h-8.27c-1.16 0-1.88-.94-1.6-2.1L13.9 9.6a2.8 2.8 0 0 1 2.58-2.1"
  />
  <path
    fill="#00447c"
    d="M24.07 7.5h9.52c1.15 0 .63.94.36 2.1L30.1 26.14c-.27 1.15-.19 2.1-1.35 2.1h-9.51c-1.16 0-1.87-.95-1.6-2.1L21.49 9.6a2.8 2.8 0 0 1 2.58-2.1"
  />
  <path
    fill="#007b84"
    d="M33.21 7.5h8.27c1.16 0 1.88.94 1.6 2.1l-3.84 16.54a2.8 2.8 0 0 1-2.59 2.1h-8.27c-1.16 0-1.87-.95-1.6-2.1L30.63 9.6a2.8 2.8 0 0 1 2.58-2.1"
  />
  <path
    fill="#fefefe"
    d="M18.65 12.8c-.85 0-1.1 0-1.18-.02l-.61 2.8c-.12.53-.21.92-.52 1.16a1 1 0 0 1-.61.22q-.58-.01-.63-.55l-.01-.12.11-.72s.6-2.41.71-2.73l.01-.04c-1.17.01-1.38 0-1.4-.02l-.03.18-.61 2.72-.06.23-.1.75q0 .33.13.56c.28.5 1.08.57 1.53.57.59 0 1.13-.13 1.5-.35.64-.38.81-.97.96-1.5l.07-.27s.62-2.5.73-2.83zm2.11 2.02c-.15 0-.42.04-.67.16q-.13.07-.26.15l.08-.29-.04-.05c-.53.1-.64.12-1.12.19l-.04.03c-.06.46-.1.8-.32 1.72l-.24 1 .02.05c.5-.03.65-.03 1.07-.02l.04-.04.18-.9.23-1.07a1 1 0 0 1 .32-.1c.24 0 .2.2.2.3-.01.13-.1.6-.19.98l-.06.26-.13.55.02.04c.49-.03.64-.03 1.05-.02l.05-.04c.07-.43.1-.55.23-1.18l.07-.3c.13-.57.2-.85.1-1.09-.11-.26-.36-.33-.59-.33m2.36.6-.59.1-.57.09-.02.02-.02.01-.07.54a10 10 0 0 1-.27 1.15c-.03.08-.07.17-.13.4l.02.03v.02l.55-.02h.57l.02-.02.03-.02.06-.38.15-.69.14-.6.15-.58-.01-.03zm0-.8c-.23-.14-.64-.1-.92.1-.28.18-.3.44-.07.59.23.13.64.09.92-.1.27-.2.3-.46.07-.6m1.42 3.2c.48 0 .97-.13 1.33-.52.28-.31.41-.78.46-.97.14-.64.03-.94-.11-1.12-.22-.28-.6-.37-1-.37-.24 0-.8.02-1.25.43-.32.3-.47.7-.56 1.08-.09.4-.19 1.1.46 1.36.2.09.49.11.67.11m-.03-1.44c.1-.48.24-.89.57-.89.25 0 .27.3.16.8-.02.1-.12.5-.24.67q-.15.2-.32.2c-.03 0-.24 0-.24-.3q0-.22.07-.48m3 1.38.04-.04.18-.9c.06-.27.18-.86.24-1.07q.15-.09.31-.1c.24 0 .21.2.2.3 0 .13-.1.59-.19.98l-.05.26q-.08.27-.13.55l.01.04c.5-.03.63-.03 1.05-.02l.05-.04c.07-.43.1-.55.23-1.18l.07-.3c.13-.57.2-.85.1-1.09-.11-.26-.36-.33-.59-.33a1.6 1.6 0 0 0-.93.31l.08-.29-.04-.05c-.52.1-.64.12-1.12.19l-.04.03c-.06.46-.1.8-.31 1.72l-.25 1 .03.05c.5-.03.64-.03 1.07-.02m3.59.02.21-1.04.17-.67s.05-.07.1-.1h.07c.67 0 1.44 0 2.04-.44q.61-.47.81-1.29.05-.2.06-.45 0-.31-.17-.57c-.3-.43-.91-.44-1.61-.44h-1.76l-.03.17-.33 1.5-.8 3.32zm.6-2.65.34-1.49v-.07l.01-.06.14.01.72.06c.28.11.4.39.32.75-.08.33-.3.61-.57.75-.23.11-.5.12-.8.12h-.18zm2.13 1.28c-.1.39-.2 1.1.45 1.34q.3.14.58.1.3-.01.55-.25l-.05.18.03.04c.46-.02.6-.02 1.11-.02l.05-.03c.07-.43.14-.85.33-1.68l.28-1.18-.01-.04c-.52.1-.66.11-1.16.19l-.04.03-.01.11a.7.7 0 0 0-.37-.3c-.22-.08-.74.03-1.19.44-.31.29-.47.69-.55 1.07m1.09.02c.11-.47.24-.87.57-.87q.31.01.3.52l-.06.27-.1.42q-.07.15-.13.24c-.09.12-.29.2-.4.2-.04 0-.24 0-.25-.3q0-.22.07-.48m5.7-1.57-.05-.04c-.51.1-.6.12-1.08.18l-.03.04v.02c-.36.8-.35.63-.64 1.27v-.08l-.07-1.39-.05-.04c-.53.1-.55.12-1.04.18l-.04.04-.01.05c.07.33.05.26.11.76l.1.73c.05.4.08.6.14 1.23-.34.55-.42.76-.74 1.25l-.23.36q-.03.06-.08.08l-.15.02h-.13l-.18.62.64.01c.38 0 .61-.17.74-.41l.4-.7.04-.04c.27-.59 2.34-4.14 2.34-4.14m-6.8 8.19h-.26l1-3.34h.34l.1-.34.02.38c-.02.24.17.44.66.41h.56l.2-.64h-.21q-.19 0-.18-.1v-.39H35c-.34.01-1.35.04-1.56.09-.24.06-.5.25-.5.25l.1-.34h-.98l-.2.68-1.03 3.39h-.2l-.19.64h1.95l-.07.21h.96l.07-.21h.27zm-.8-2.66c-.15.04-.44.17-.44.17l.26-.85h.78l-.19.62s-.24.02-.4.06m.02 1.22-.4.06c-.16.05-.46.2-.46.2l.27-.88h.78zm-.43 1.45h-.78l.22-.75h.78zm1.88-2.07h1.12l-.16.52H34.3l-.17.57h1l-.76 1.06q-.08.1-.15.13a1 1 0 0 1-.2.06h-.28l-.2.63h.73c.38 0 .6-.18.76-.4l.52-.7.11.71q.06.2.19.25c.07.03.15.1.25.1l.25.01h.36l.21-.7h-.14c-.08 0-.22-.01-.24-.04q-.04-.04-.04-.15l-.11-.72h-.46l.2-.24h1.14l.17-.57H36.4l.16-.52h1.05l.2-.65h-3.13zm-9.5 2.21.26-.87h1.08l.2-.65h-1.08l.17-.54h1.05l.2-.63h-2.64l-.2.63h.6l-.15.54h-.6l-.2.66h.6l-.36 1.15c-.04.16.03.22.07.29q.06.1.2.14t.27.04h1.22l.21-.72-.54.07c-.1 0-.39-.01-.36-.1m.13-4.18-.28.5a1 1 0 0 1-.16.2q-.06.04-.24.04h-.14l-.2.63h.48c.23 0 .4-.08.49-.12.09-.05.11-.02.18-.1l.16-.13h1.48l.2-.66H26l.2-.36zm2.18 4.2q-.03-.05.03-.24l.4-1.34h1.9q.15-.03.35-.13.18-.1.25-.23.1-.12.25-.56l.5-1.7-1.49.02s-.46.06-.66.14-.5.32-.5.32l.14-.47h-.92l-1.3 4.28q-.07.26-.07.36c0 .08.1.15.16.21.08.06.19.05.3.06l.5.02h.71l.22-.74-.63.06a.2.2 0 0 1-.14-.07m.7-2.48h1.5l-.09.3h-1.5zm.3-1h1.52l-.1.35s-.73 0-.84.02c-.5.08-.8.36-.8.36zm1.14 2.3a.2.2 0 0 1-.06.1q-.05.03-.15.03H29l.02-.37h-.9l-.03 1.8c0 .12 0 .2.1.26.1.07.39.08.78.08h.56l.2-.67-.49.03h-.16l-.06-.03c-.03-.02-.06-.01-.05-.14v-.46l.51-.02c.28 0 .4-.1.5-.18s.12-.17.16-.3l.09-.4h-.7z"
  />
</svg>
