<svg xmlns="http://www.w3.org/2000/svg" fill="none" viewBox="0 0 53 36">
  <rect width="51.5" height="35" x=".75" y=".5" fill="#fff" stroke="#e4e4e7" rx="5.5" />
  <path
    fill="#172b85"
    fill-rule="evenodd"
    d="M16.18 24.39H13l-2.38-9.1a1.5 1.5 0 0 0-.7-.96c-.9-.44-1.86-.8-2.92-.97v-.35h5.12c.7 0 1.24.53 1.33 1.14l1.23 6.56 3.18-7.7h3.1zm6.54 0h-3L22.19 13h3zm6.36-8.23c.09-.6.62-.96 1.24-.96a5.6 5.6 0 0 1 2.91.53l.53-2.45a8 8 0 0 0-2.73-.53c-2.92 0-5.04 1.58-5.04 3.76 0 1.67 1.5 2.54 2.56 3.07 1.15.52 1.6.87 1.5 1.4 0 .78-.88 1.13-1.76 1.13a8 8 0 0 1-3.1-.7l-.53 2.45c1.07.44 2.21.62 3.27.62 3.27.08 5.3-1.5 5.3-3.86 0-2.97-4.15-3.14-4.15-4.46m14.67 8.23L41.36 13H38.8c-.53 0-1.06.35-1.24.88l-4.41 10.5h3.09l.61-1.66h3.8l.36 1.66zm-4.5-8.31.87 4.28h-2.47z"
    clip-rule="evenodd"
  />
</svg>
