<svg width="78" height="78" viewBox="0 0 78 78" fill="none" xmlns="http://www.w3.org/2000/svg">
<g clip-path="url(#clip0_1172_18737)">
<rect width="78" height="78" fill="url(#paint0_linear_1172_18737)"/>
<path opacity="0.2" d="M28.0356 14H50.3189C53.2689 14 55.7922 16.11 56.3156 19.0133C56.4257 19.6265 56.4001 20.2564 56.2404 20.8585C56.0807 21.4607 55.7909 22.0205 55.3914 22.4986C54.9919 22.9766 54.4924 23.3611 53.9281 23.6252C53.3639 23.8892 52.7486 24.0262 52.1256 24.0267H26.2322C25.6093 24.0262 24.9939 23.8892 24.4297 23.6252C23.8654 23.3611 23.3659 22.9766 22.9664 22.4986C22.5669 22.0205 22.2771 21.4607 22.1174 20.8585C21.9577 20.2564 21.9321 19.6265 22.0422 19.0133C22.2948 17.6075 23.0333 16.3352 24.1289 15.4188C25.2245 14.5024 26.6073 14.0002 28.0356 14Z" fill="white"/>
<path d="M54.0255 18.7065H24.3322C22.6237 18.7059 20.9802 19.3613 19.7409 20.5373C18.5015 21.7134 17.761 23.3204 17.6722 25.0265L16.0122 56.9865C15.9651 57.8902 16.1025 58.794 16.416 59.6428C16.7295 60.4916 17.2125 61.2678 17.8356 61.9239C18.4587 62.5801 19.2088 63.1025 20.0404 63.4594C20.8719 63.8163 21.7673 64.0002 22.6722 63.9999H55.6855C56.5901 63.9997 57.4852 63.8155 58.3163 63.4584C59.1475 63.1013 59.8972 62.5788 60.5199 61.9227C61.1427 61.2666 61.6254 60.4906 61.9387 59.642C62.2519 58.7934 62.3892 57.8899 62.3422 56.9865L60.6822 25.0265C60.5934 23.3209 59.8533 21.7144 58.6147 20.5385C57.3761 19.3625 55.7335 18.7068 54.0255 18.7065Z" fill="url(#paint1_linear_1172_18737)"/>
<path d="M27.3333 28.304C27.4618 28.7253 27.617 29.1402 27.7984 29.5464C28.4077 30.9106 29.3008 32.15 30.4267 33.1941C31.5526 34.2382 32.8892 35.0664 34.3602 35.6314C35.8312 36.1965 37.4079 36.4873 39.0001 36.4873C40.5923 36.4873 42.1689 36.1965 43.6399 35.6314C45.111 35.0664 46.4476 34.2382 47.5734 33.1941C48.6993 32.15 49.5924 30.9106 50.2017 29.5464C50.3832 29.1402 50.5384 28.7253 50.6669 28.304H47.471C47.4682 28.3103 47.4654 28.3166 47.4625 28.3229C47.0228 29.3075 46.3713 30.2175 45.5335 30.9944C44.6953 31.7717 43.6881 32.3992 42.5642 32.8309C41.4402 33.2627 40.2284 33.4873 39.0001 33.4873C37.7717 33.4873 36.56 33.2627 35.4359 32.8309C34.3121 32.3992 33.3049 31.7717 32.4666 30.9944C31.6288 30.2175 30.9774 29.3075 30.5376 28.3229C30.5348 28.3166 30.532 28.3103 30.5292 28.304H27.3333Z" fill="url(#paint2_linear_1172_18737)"/>
</g>
<defs>
<linearGradient id="paint0_linear_1172_18737" x1="78" y1="0" x2="0" y2="78" gradientUnits="userSpaceOnUse">
<stop stop-color="#8DC3FF"/>
<stop offset="1" stop-color="#3291FA"/>
</linearGradient>
<linearGradient id="paint1_linear_1172_18737" x1="39.1772" y1="18.7065" x2="39.1772" y2="63.9999" gradientUnits="userSpaceOnUse">
<stop stop-color="white"/>
<stop offset="1" stop-color="white" stop-opacity="0.8"/>
</linearGradient>
<linearGradient id="paint2_linear_1172_18737" x1="39.0001" y1="28.304" x2="39.0001" y2="36.4873" gradientUnits="userSpaceOnUse">
<stop stop-color="#617DBC"/>
<stop offset="1" stop-color="#80BCFF"/>
</linearGradient>
<clipPath id="clip0_1172_18737">
<rect width="78" height="78" fill="white"/>
</clipPath>
</defs>
</svg>
