<svg width="48" height="49" viewBox="0 0 48 49" fill="none" xmlns="http://www.w3.org/2000/svg">
<path fill-rule="evenodd" clip-rule="evenodd" d="M6.98633 4.50357C4.77719 4.50357 2.98633 6.29443 2.98633 8.50357V36.5036C2.98633 40.9218 6.56805 44.5036 10.9863 44.5036H36.9863C41.4046 44.5036 44.9863 40.9218 44.9863 36.5036V8.50357C44.9863 6.29443 43.1955 4.50357 40.9863 4.50357H6.98633ZM14.767 9.99605C14.6997 9.8334 14.6367 9.66918 14.5781 9.50357H16.5057C16.9136 10.4208 17.4869 11.2558 18.1975 11.9664C18.9578 12.7267 19.8604 13.3297 20.8537 13.7412C21.847 14.1526 22.9117 14.3644 23.9868 14.3644C25.062 14.3644 26.1267 14.1526 27.12 13.7412C28.1133 13.3297 29.0159 12.7267 29.7761 11.9664C30.4868 11.2558 31.0601 10.4208 31.4679 9.50357H33.3956C33.337 9.66918 33.274 9.8334 33.2066 9.99606C32.7051 11.2068 31.9701 12.3069 31.0434 13.2336C30.1167 14.1603 29.0166 14.8954 27.8058 15.3969C26.595 15.8984 25.2974 16.1565 23.9868 16.1565C22.6763 16.1565 21.3786 15.8984 20.1679 15.3969C18.9571 14.8954 17.857 14.1603 16.9303 13.2336C16.0036 12.3069 15.2685 11.2068 14.767 9.99605ZM17.0019 22.8142C17.0019 22.2619 17.4497 21.8142 18.0019 21.8142H22.0868C22.6391 21.8142 23.0868 22.262 23.0868 22.8142V26.8451C23.0868 27.3974 22.6391 27.8451 22.0868 27.8451H18.0019C17.4497 27.8451 17.0019 27.3974 17.0019 26.8451V22.8142ZM25.8868 21.8142C25.3345 21.8142 24.8868 22.2619 24.8868 22.8142V26.8451C24.8868 27.3974 25.3345 27.8451 25.8868 27.8451H29.9716C30.5239 27.8451 30.9716 27.3974 30.9716 26.8451V22.8142C30.9716 22.262 30.5239 21.8142 29.9716 21.8142H25.8868ZM17.0019 30.6451C17.0019 30.0928 17.4497 29.6451 18.0019 29.6451H22.0868C22.6391 29.6451 23.0868 30.0928 23.0868 30.6451V34.676C23.0868 35.2283 22.6391 35.676 22.0868 35.676H18.0019C17.4497 35.676 17.0019 35.2283 17.0019 34.676V30.6451ZM25.8868 29.6451C25.3345 29.6451 24.8868 30.0928 24.8868 30.6451V34.676C24.8868 35.2283 25.3345 35.676 25.8868 35.676H29.9716C30.5239 35.676 30.9716 35.2283 30.9716 34.676V30.6451C30.9716 30.0928 30.5239 29.6451 29.9716 29.6451H25.8868Z" fill="url(#paint0_angular_4715_17932)"/>
<defs>
<radialGradient id="paint0_angular_4715_17932" cx="0" cy="0" r="1" gradientUnits="userSpaceOnUse" gradientTransform="translate(4.78655 44.5036) rotate(-44.8573) scale(56.71 63.1297)">
<stop stop-color="#216CC3"/>
<stop offset="1" stop-color="#4D8DD7"/>
</radialGradient>
</defs>
</svg>
