<svg width="16" height="16" viewBox="0 0 16 16" fill="none" xmlns="http://www.w3.org/2000/svg">
<path d="M2.86312 10.7605C3.03359 10.7347 3.20984 10.7283 3.37359 10.6795C3.84812 10.5389 3.9725 10.1744 3.61609 9.83969C3.13062 9.38344 2.59078 8.98578 2.07406 8.56297C1.79437 8.33375 1.51562 8.10219 1.23437 7.87625C0.990153 7.68094 0.933591 7.40531 1.08265 7.17312C1.54359 6.45359 2.00172 5.72406 2.545 5.06891C2.90609 4.63359 3.28093 4.76797 3.48843 5.31203C3.54515 5.46062 3.57437 5.61969 3.62031 5.77281C3.7564 6.22766 4.04312 6.39047 4.47968 6.20406C5.22968 5.88344 5.85875 5.39156 6.29218 4.68953C6.60468 4.18344 6.47 3.84203 5.91125 3.64078C5.65265 3.54687 5.375 3.50203 5.12812 3.38687C4.74859 3.20953 4.64375 2.87453 4.96047 2.62437C5.67312 2.06031 6.43172 1.54859 7.20672 1.07328C7.50515 0.890312 7.825 1.07328 8.03984 1.35937C8.44297 1.89437 8.84171 2.43297 9.25062 2.96344C9.4014 3.15891 9.55093 3.37125 9.74687 3.51109C9.92468 3.63812 10.1898 3.77812 10.3719 3.7325C10.6945 3.65187 10.8109 3.34531 10.7858 3.00094C10.7744 2.84469 10.7656 2.67719 10.808 2.53C10.9342 2.09031 11.3731 1.87234 11.77 2.08812C12.5297 2.50094 13.1353 3.08594 13.4469 3.91312C13.7169 4.62984 13.4702 4.94609 12.7103 4.99828C12.4916 5.01391 12.1358 5.12469 12.1009 5.25859C12.0502 5.45734 12.1616 5.79766 12.3236 5.93391C12.9789 6.48437 13.6762 6.98437 14.3631 7.49437C15.1173 8.05516 15.1842 8.33406 14.6559 9.12625C14.2933 9.67016 13.9206 10.2161 13.4841 10.6994C13.003 11.2327 12.5333 11.112 12.4084 10.4083C12.1937 9.19797 11.4497 9.18594 10.7053 9.93375C10.2939 10.3472 9.94875 10.8536 9.67625 11.3725C9.41734 11.8656 9.63922 12.2036 10.1731 12.3541C10.5136 12.45 11.0169 12.4658 11.0152 12.8894C11.0136 13.1777 10.7009 13.5216 10.4423 13.7383C9.98765 14.1194 9.47968 14.4414 8.97281 14.7539C8.31656 15.158 8.00406 15.0741 7.53812 14.4437C7.04687 13.7762 6.55187 13.1109 6.04843 12.4531C5.95057 12.3264 5.82899 12.22 5.69047 12.1397C5.34031 11.9394 5.05531 12.1033 5.02297 12.5062C4.9589 13.3042 4.42218 13.6395 3.68843 13.3006C2.92984 12.9503 2.41922 12.3308 2.0925 11.5772C1.8625 11.0469 2.20312 10.6955 2.86312 10.7605Z" fill="#24282C"/>
</svg>
