<svg xmlns="http://www.w3.org/2000/svg" width="24" height="24" fill="none" viewBox="0 0 24 24"><rect width="24" height="24" fill="#090A0A" rx="4"/><path fill="url(#paint0_linear_12749_76087)" fill-rule="evenodd" d="M11.3789 3.06674C11.763 2.84494 12.2371 2.84494 12.6213 3.06674L19.4268 6.99594C19.8107 7.21776 20.0474 7.62726 20.0475 8.07067V15.9291C20.0475 16.3727 19.811 16.783 19.4268 17.0048L12.6213 20.934C12.2371 21.1558 11.763 21.1558 11.3789 20.934L4.57331 17.0048C4.18927 16.783 3.95264 16.3726 3.95264 15.9291V8.07067C3.95269 7.62733 4.1895 7.21778 4.57331 6.99594L11.3789 3.06674ZM9.68242 6.82619C9.40944 6.65087 9.09505 6.98008 9.28252 7.24484L10.7436 9.30889C10.8419 9.44774 10.9091 9.60616 10.9404 9.77336C10.9718 9.94067 10.9662 10.1133 10.9248 10.2784C10.8834 10.4434 10.8073 10.5978 10.7009 10.7304C10.5945 10.863 10.4604 10.9709 10.3083 11.047L9.05862 11.6718C8.2402 12.0813 8.17817 13.2262 8.94823 13.7213L14.3177 17.1735C14.5906 17.3488 14.9058 17.0196 14.7186 16.7549L13.2565 14.6919C13.1581 14.553 13.0911 14.3937 13.0597 14.2264C13.0284 14.0592 13.034 13.8873 13.0753 13.7223C13.1167 13.5572 13.1926 13.4021 13.2992 13.2693C13.4058 13.1366 13.5406 13.0289 13.6929 12.9528L14.9415 12.3279C15.7602 11.9182 15.8219 10.7733 15.0519 10.2784L9.68242 6.82619Z" clip-rule="evenodd"/><defs><linearGradient id="paint0_linear_12749_76087" x1="12" x2="12" y1="2.9" y2="21.1" gradientUnits="userSpaceOnUse"><stop stop-color="#00E88D"/><stop offset="1" stop-color="#00E0DA"/></linearGradient></defs></svg>