<svg width="25" height="24" viewBox="0 0 24 24" fill="none" xmlns="http://www.w3.org/2000/svg">
<rect width="24" height="24" transform="translate(0.984375)" fill="#111113"/>
<path d="M16.7264 7.32106H13.7363L12.3468 5.56934H9.22476C6.17313 5.56934 3.68433 8.06047 3.68433 11.1238C3.68433 14.1871 6.17313 16.6782 9.23357 16.6782H12.2148L13.6044 18.4299H16.7351C19.7955 18.4299 22.2843 15.9388 22.2843 12.8755C22.2843 9.81219 19.7955 7.32106 16.7351 7.32106H16.7264ZM9.23357 8.34216H12.1445L13.534 10.0939H16.7351C18.2654 10.0939 19.5142 11.3439 19.5142 12.8755C19.5142 14.4072 18.2654 15.6571 16.7351 15.6571H13.8154L12.4259 13.9054H9.23357C7.70335 13.9054 6.45455 12.6554 6.45455 11.1238C6.45455 9.59213 7.70335 8.34216 9.23357 8.34216Z" fill="#46D7AB"/>
</svg>
