<svg width="25" height="24" viewBox="0 0 24 24" fill="none" xmlns="http://www.w3.org/2000/svg">
<rect width="24" height="24" transform="translate(0.980469)" fill="#090A0A"/>
<path fill-rule="evenodd" clip-rule="evenodd" d="M12.3979 3.62279C12.7582 3.4148 13.2027 3.4148 13.563 3.62279L19.9448 7.30736C20.3048 7.51536 20.5268 7.89937 20.5269 8.31517V15.6843C20.5269 16.1003 20.3051 16.4851 19.9448 16.6931L13.563 20.3777C13.2027 20.5857 12.7582 20.5857 12.3979 20.3777L6.01611 16.6931C5.65599 16.4851 5.43408 16.1002 5.43408 15.6843V8.31517C5.43413 7.89944 5.6562 7.51538 6.01611 7.30736L12.3979 3.62279ZM10.8071 7.14818C10.5511 6.98377 10.2563 7.29248 10.4321 7.54075L11.8022 9.4763C11.8944 9.60651 11.9574 9.75506 11.9868 9.91185C12.0162 10.0687 12.011 10.2306 11.9722 10.3855C11.9333 10.5401 11.862 10.6849 11.7622 10.8093C11.6624 10.9337 11.5367 11.0348 11.394 11.1062L10.2222 11.6921C9.4547 12.0761 9.39654 13.1497 10.1187 13.614L15.1538 16.8513C15.4097 17.0156 15.7053 16.707 15.5298 16.4587L14.1587 14.5242C14.0664 14.3939 14.0036 14.2445 13.9741 14.0876C13.9448 13.9309 13.9501 13.7697 13.9888 13.615C14.0276 13.4601 14.0988 13.3147 14.1987 13.1902C14.2987 13.0657 14.4251 12.9647 14.5679 12.8933L15.7388 12.3074C16.5065 11.9232 16.5644 10.8496 15.8423 10.3855L10.8071 7.14818Z" fill="url(#paint0_linear_12332_29875)"/>
<defs>
<linearGradient id="paint0_linear_12332_29875" x1="12.9805" y1="3.4668" x2="12.9805" y2="20.5337" gradientUnits="userSpaceOnUse">
<stop stop-color="#00E88D"/>
<stop offset="1" stop-color="#00E0DA"/>
</linearGradient>
</defs>
</svg>
