<svg xmlns="http://www.w3.org/2000/svg" width="16" height="16" fill="none" viewBox="0 0 16 16"><path fill="url(#paint0_linear_6600_1320)" d="M7.9999 14.8571L13.9368 11.424V4.5632L7.9999 1.14285L2.06299 4.56297V4.56342L7.9999 7.99657V14.8571Z"/><path fill="url(#paint1_linear_6600_1320)" d="M13.9368 4.56297L7.9999 1.14285L2.06299 4.56297V4.56342L7.9999 7.99657L13.9368 4.56297Z"/><path fill="url(#paint2_linear_6600_1320)" d="M13.9368 4.56297L7.9999 1.14285L2.06299 4.56297V4.56342L7.9999 7.99657L13.9368 4.56297Z"/><path fill="url(#paint3_linear_6600_1320)" d="M13.9368 4.56297L7.9999 1.14285L2.06299 4.56297V4.56342L7.9999 7.99657L13.9368 4.56297Z"/><path fill="url(#paint4_linear_6600_1320)" d="M2.06299 11.424V4.56343L7.9999 7.99635L2.06299 11.424Z"/><path fill="url(#paint5_linear_6600_1320)" d="M8 14.8571L13.9369 11.424V4.56343L8 7.99635V14.8571Z"/><path fill="url(#paint6_linear_6600_1320)" d="M8 14.8571L13.9369 11.424V4.56343L8 7.99635V14.8571Z"/><path fill="url(#paint7_linear_6600_1320)" d="M8 14.8571L13.9369 11.424V4.56343L8 7.99635V14.8571Z"/><path fill="url(#paint8_linear_6600_1320)" d="M6.4079 7.07291L7.9999 7.99337V1.14285L2.06299 4.5616L6.4079 7.07291Z" opacity=".8"/><path fill="url(#paint9_linear_6600_1320)" d="M7.9999 7.99634L2.06299 11.424L7.9999 14.8571V7.99634Z"/><defs><linearGradient id="paint0_linear_6600_1320" x1="4.587" x2="14.719" y1="3.329" y2="13.461" gradientUnits="userSpaceOnUse"><stop stop-color="#FDB60D"/><stop offset=".548" stop-color="#FF318C"/><stop offset=".888" stop-color="#6B57FF"/></linearGradient><linearGradient id="paint1_linear_6600_1320" x1="6.535" x2="7.189" y1="7.101" y2="5.968" gradientUnits="userSpaceOnUse"><stop stop-color="#fff" stop-opacity=".6"/><stop offset=".081" stop-color="#FFC524" stop-opacity=".4"/><stop offset=".705" stop-color="#FFC524" stop-opacity="0"/></linearGradient><linearGradient id="paint2_linear_6600_1320" x1="6.499" x2="7.473" y1="1.963" y2="3.651" gradientUnits="userSpaceOnUse"><stop stop-color="#F9ED32" stop-opacity=".6"/><stop offset=".198" stop-color="#FFC524" stop-opacity=".4"/><stop offset=".705" stop-color="#FFC524" stop-opacity="0"/></linearGradient><linearGradient id="paint3_linear_6600_1320" x1="9.58" x2="9.146" y1="1.827" y2="2.578" gradientUnits="userSpaceOnUse"><stop stop-color="#FDB60D" stop-opacity=".6"/><stop offset=".234" stop-color="#FDB60D" stop-opacity=".4"/><stop offset=".518" stop-color="#FF318C" stop-opacity="0"/></linearGradient><linearGradient id="paint4_linear_6600_1320" x1="2.063" x2="11.72" y1="7.994" y2="7.994" gradientUnits="userSpaceOnUse"><stop offset=".015"/><stop offset=".193"/><stop offset=".572" stop-color="#6B57FF"/><stop offset=".826" stop-color="#FF318C"/></linearGradient><linearGradient id="paint5_linear_6600_1320" x1="8" x2="9.599" y1="9.71" y2="9.71" gradientUnits="userSpaceOnUse"><stop stop-color="#FFB2FF" stop-opacity=".6"/><stop offset=".081" stop-color="#D828FF" stop-opacity=".4"/><stop offset=".705" stop-color="#FF318C" stop-opacity="0"/></linearGradient><linearGradient id="paint6_linear_6600_1320" x1="13.961" x2="12.328" y1="9.71" y2="9.71" gradientUnits="userSpaceOnUse"><stop stop-color="#64F" stop-opacity=".8"/><stop offset=".097" stop-color="#6B57FF" stop-opacity=".4"/><stop offset=".705" stop-color="#FF318C" stop-opacity="0"/></linearGradient><linearGradient id="paint7_linear_6600_1320" x1="12.541" x2="12.071" y1="12.433" y2="11.619" gradientUnits="userSpaceOnUse"><stop offset=".006" stop-color="#FF318C"/><stop offset=".469" stop-color="#6B57FF" stop-opacity="0"/></linearGradient><linearGradient id="paint8_linear_6600_1320" x1="5.031" x2="5.031" y1="1.357" y2="5.381" gradientUnits="userSpaceOnUse"><stop offset=".239" stop-color="#FF5592" stop-opacity=".65"/><stop offset=".829" stop-color="#FF57E4" stop-opacity="0"/></linearGradient><linearGradient id="paint9_linear_6600_1320" x1="6.454" x2="4.977" y1="5.072" y2="13.45" gradientUnits="userSpaceOnUse"><stop offset=".047" stop-color="#fff" stop-opacity=".86"/><stop offset=".767" stop-color="#CBCAA4" stop-opacity="0"/></linearGradient></defs></svg>