<svg width="32" height="32" viewBox="0 0 32 32" fill="none" xmlns="http://www.w3.org/2000/svg">
<g clip-path="url(#clip0_4568_11992)">
<path d="M23.775 29H29.9045C30.1781 29 30.4489 28.9455 30.7012 28.8398C30.9535 28.7341 31.1823 28.5793 31.3742 28.3843C31.5661 28.1893 31.7173 27.9581 31.819 27.7042C31.9207 27.4502 31.9708 27.1785 31.9665 26.905L31.8785 21.383C31.8738 21.0911 31.8072 20.8035 31.6831 20.5392C31.559 20.2749 31.3802 20.04 31.1585 19.85L12.0795 3.4965C11.7056 3.17608 11.2294 2.99998 10.737 3H5.0625C4.51549 3 3.99089 3.2173 3.60409 3.60409C3.2173 3.99089 3 4.51549 3 5.0625V10.564C3 11.159 3.257 11.7245 3.7045 12.116L22.417 28.49C22.7929 28.8189 23.2755 29.0001 23.775 29Z" fill="#00D886"/>
<path d="M24.5065 29H29.9375C30.4845 29 31.0091 28.7827 31.3959 28.3959C31.7827 28.0091 32 27.4845 32 26.9375V20.6545C32 20.5545 31.993 20.4545 31.978 20.3555L29.254 1.7635C29.1823 1.27352 28.9367 0.825704 28.5621 0.501904C28.1874 0.178103 27.7087 -5.28643e-05 27.2135 1.17667e-08H19.5145C19.2436 3.80652e-09 18.9754 0.0533647 18.7251 0.157046C18.4749 0.260728 18.2475 0.412695 18.0559 0.604269C17.8644 0.795843 17.7125 1.02327 17.6089 1.27356C17.5053 1.52385 17.452 1.79211 17.452 2.063L17.4545 11.3155C17.4545 11.528 17.4875 11.7395 17.552 11.942L22.5415 27.565C22.6747 27.9816 22.9367 28.3451 23.2899 28.603C23.6431 28.861 24.0692 29 24.5065 29Z" fill="url(#paint0_linear_4568_11992)"/>
<path d="M2.0625 32H19.126C19.5315 32 19.928 31.8805 20.2659 31.6564C20.6038 31.4323 20.8682 31.1135 21.026 30.74L28.925 12.0285C29.0345 11.7695 29.09 11.4905 29.087 11.2095L29.012 2.045C29.0075 1.50107 28.7883 0.980954 28.4021 0.597923C28.0159 0.214892 27.4939 -1.84852e-05 26.95 1.19253e-09H18.117C17.7144 0.000125624 17.3205 0.117959 16.984 0.339L0.93 10.8935C0.644296 11.0812 0.409727 11.337 0.247391 11.6378C0.0850555 11.9387 4.31658e-05 12.2752 0 12.617L0 29.9375C0 30.4845 0.217298 31.0091 0.604092 31.3959C0.990886 31.7827 1.51549 32 2.0625 32Z" fill="url(#paint1_linear_4568_11992)"/>
<path d="M26 6H6V26H26V6Z" fill="black"/>
<path d="M9.87403 15.6209C9.29849 15.2902 8.82425 14.8086 8.50253 14.2279C8.17003 13.6364 8.00403 12.9764 8.00403 12.2474C8.00403 11.5184 8.17003 10.8584 8.50253 10.2674C8.83503 9.67644 9.29253 9.21144 9.87403 8.87394C10.4565 8.53644 11.1065 8.36694 11.825 8.36694C12.4075 8.36694 12.944 8.47094 13.436 8.67794C13.9101 8.87325 14.3347 9.17164 14.679 9.55144C15.0142 9.92207 15.2574 10.3664 15.389 10.8484H13.824C13.7118 10.6152 13.5545 10.4065 13.361 10.2344C13.166 10.0614 12.9385 9.92744 12.6775 9.83294C12.4165 9.73844 12.136 9.69094 11.836 9.69094C11.3925 9.69094 10.9925 9.80144 10.635 10.0229C10.2773 10.2453 9.98729 10.5614 9.79653 10.9369C9.59453 11.3244 9.49353 11.7614 9.49353 12.2469C9.49353 12.7324 9.59453 13.1699 9.79653 13.5574C9.98718 13.9331 10.2772 14.2492 10.635 14.4714C10.9925 14.6929 11.3925 14.8034 11.836 14.8034C12.2465 14.8034 12.619 14.7264 12.9535 14.5729C13.2875 14.4194 13.5525 14.2064 13.749 13.9349C13.9441 13.6681 14.0544 13.3488 14.0655 13.0184L14.0705 13.1734H12.3075V12.0214H15.486V12.6114C15.486 13.2719 15.326 13.8699 15.006 14.4039C14.6897 14.935 14.2361 15.3711 13.693 15.6664C13.1375 15.9734 12.515 16.1269 11.825 16.1269C11.135 16.1269 10.4565 15.9584 9.87403 15.6204V15.6209ZM18.1355 15.6209C17.5583 15.2904 17.0821 14.8088 16.758 14.2279C16.424 13.6364 16.257 12.9764 16.257 12.2474C16.257 11.5184 16.4235 10.8584 16.758 10.2674C17.0819 9.68629 17.5582 9.20449 18.1355 8.87394C18.7195 8.53644 19.3725 8.36694 20.0945 8.36694C20.816 8.36694 21.4635 8.53594 22.048 8.87344C22.6248 9.20372 23.1002 9.68565 23.4225 10.2669C23.7545 10.8584 23.921 11.5184 23.921 12.2474C23.921 12.9764 23.7545 13.6364 23.4225 14.2274C23.0905 14.8184 22.632 15.2839 22.0475 15.6214C21.4635 15.9589 20.8125 16.1279 20.0945 16.1279C19.376 16.1279 18.7195 15.9584 18.1355 15.6209ZM21.2895 14.5064C21.6435 14.2834 21.9205 13.9739 22.1205 13.5794C22.3205 13.1844 22.4205 12.7404 22.4205 12.2474C22.4205 11.7544 22.3205 11.3104 22.1205 10.9154C21.9341 10.5358 21.6466 10.2151 21.2895 9.98844C20.936 9.76544 20.5375 9.65344 20.0945 9.65344C19.652 9.65344 19.252 9.76494 18.897 9.98844C18.5386 10.2149 18.2493 10.5356 18.061 10.9154C17.859 11.3104 17.758 11.7544 17.758 12.2474C17.758 12.7404 17.859 13.1844 18.061 13.5794C18.263 13.9744 18.5415 14.2834 18.897 14.5064C19.252 14.7299 19.652 14.8414 20.0945 14.8414C20.538 14.8414 20.936 14.7299 21.2895 14.5064ZM16.5 21.9999H8.50003V23.4999H16.5V21.9999Z" fill="white"/>
</g>
<defs>
<linearGradient id="paint0_linear_4568_11992" x1="32.1955" y1="28.1645" x2="19.8035" y2="1.437" gradientUnits="userSpaceOnUse">
<stop offset="0.24" stop-color="#00D886"/>
<stop offset="0.51" stop-color="#007DFE"/>
</linearGradient>
<linearGradient id="paint1_linear_4568_11992" x1="29.838" y1="2.0335" x2="0.539999" y2="31.3315" gradientUnits="userSpaceOnUse">
<stop offset="0.27" stop-color="#007DFE"/>
<stop offset="0.7" stop-color="#D249FC"/>
</linearGradient>
<clipPath id="clip0_4568_11992">
<rect width="32" height="32" fill="white"/>
</clipPath>
</defs>
</svg>
