<svg width="24" height="24" viewBox="0 0 24 24" fill="none" xmlns="http://www.w3.org/2000/svg">
<rect width="24" height="24" transform="translate(0.984375)" fill="#9146FF"/>
<path d="M8.02516 17.2533C6.04296 21.6462 10.2637 22.7476 13.3768 20.1768C14.2916 23.0598 17.7253 20.9093 18.9567 18.676C21.6708 13.7536 20.5747 8.73206 20.2934 7.69629C18.364 0.632614 8.72095 0.625574 7.06116 7.73231C6.6736 8.97596 6.66679 10.3904 6.44728 11.859C6.3366 12.5996 6.25858 13.0722 5.972 13.8512C5.80724 14.299 5.58055 14.6967 5.22438 15.367C4.67124 16.408 4.90461 18.4172 7.75569 17.3753L8.02516 17.2533Z" fill="white"/>
<path d="M13.7535 10.7538C12.962 10.7538 12.8438 9.80793 12.8438 9.24404C12.8438 8.73511 12.935 8.3307 13.1077 8.07436C13.2597 7.84881 13.477 7.73438 13.7535 7.73438C14.0301 7.73438 14.2673 7.85061 14.4346 8.07992C14.6253 8.34122 14.726 8.74367 14.726 9.24404C14.726 10.1895 14.3623 10.7538 13.7535 10.7538Z" fill="black"/>
<path d="M17.0098 10.7538C16.2182 10.7538 16.1 9.80793 16.1 9.24404C16.1 8.73511 16.1913 8.3307 16.364 8.07436C16.5159 7.84881 16.7333 7.73438 17.0098 7.73438C17.2863 7.73438 17.5235 7.85061 17.6909 8.07992C17.8815 8.34122 17.9823 8.74367 17.9823 9.24404C17.9823 10.1895 17.6187 10.7538 17.0098 10.7538Z" fill="black"/>
</svg>
