<svg xmlns="http://www.w3.org/2000/svg" width="24" height="24" fill="none" viewBox="0 0 24 24"><rect width="24" height="24" fill="#9146FF" rx="4"/><path fill="#fff" d="M7.04079 17.2533C5.05859 21.6462 9.27937 22.7476 12.3925 20.1768C13.3073 23.0598 16.7409 20.9093 17.9723 18.676C20.6864 13.7536 19.5903 8.73206 19.309 7.69629C17.3797 0.632614 7.73658 0.625574 6.07679 7.73231C5.68923 8.97596 5.68241 10.3904 5.46291 11.859C5.35223 12.5996 5.2742 13.0722 4.98763 13.8512C4.82287 14.299 4.59617 14.6967 4.24001 15.367C3.68686 16.408 3.92024 18.4172 6.77132 17.3753L7.04079 17.2533Z"/><path fill="#000" d="M12.7691 10.7538C11.9776 10.7538 11.8594 9.80793 11.8594 9.24404C11.8594 8.73511 11.9506 8.3307 12.1234 8.07436C12.2753 7.84881 12.4926 7.73438 12.7691 7.73438C13.0457 7.73438 13.2829 7.85061 13.4502 8.07992C13.6409 8.34122 13.7416 8.74367 13.7416 9.24404C13.7416 10.1895 13.3779 10.7538 12.7691 10.7538Z"/><path fill="#000" d="M16.0254 10.7538C15.2338 10.7538 15.1156 9.80793 15.1156 9.24404C15.1156 8.73511 15.2069 8.3307 15.3796 8.07436C15.5315 7.84881 15.7489 7.73438 16.0254 7.73438C16.3019 7.73438 16.5391 7.85061 16.7065 8.07992C16.8971 8.34122 16.9979 8.74367 16.9979 9.24404C16.9979 10.1895 16.6343 10.7538 16.0254 10.7538Z"/></svg>