<svg width="25" height="24" viewBox="0 0 24 24" fill="none" xmlns="http://www.w3.org/2000/svg">
<path d="M22.4773 14.0405L20.0899 9.85934L21.1143 7.89627C21.2557 7.70982 21.2922 7.4355 21.2343 7.21476L19.9206 4.84235C19.8199 4.68591 19.6463 4.58947 19.4598 4.58518H14.5757L13.4827 2.67354C13.4056 2.52352 13.2577 2.42066 13.0905 2.40137H10.5124C10.3217 2.40565 10.1867 2.54495 10.0924 2.70997L10.0516 2.77641L7.6128 6.95759H5.27253C5.07966 6.9533 4.89749 7.04974 4.79462 7.21476L3.44662 9.60217C3.36089 9.77362 3.36089 9.97721 3.44662 10.1487L5.87046 14.3641L4.77748 16.2758C4.69176 16.4472 4.69176 16.6487 4.77748 16.8223L6.02262 19.0082C6.12334 19.1754 6.30551 19.2804 6.50053 19.2804H11.3825L12.5591 21.3271C12.6491 21.4814 12.8077 21.5821 12.9855 21.6014H15.7501C15.9409 21.5971 16.1166 21.4942 16.2109 21.3292L18.6197 17.1116H20.7714C20.9621 17.0944 21.1336 16.9873 21.2322 16.8223L22.4773 14.6213C22.593 14.4434 22.593 14.2163 22.4773 14.0405ZM19.4577 14.3148L18.2125 12.011L13.0905 21.0377L11.6911 18.7339H6.57125L7.80139 16.4987H10.4117L5.28968 7.50408H7.96855L10.5124 2.96286L11.7918 5.19811L10.4781 7.50194H20.72L19.4234 9.79076L22.0015 14.3127H19.4577V14.3148Z" fill="#605BEC"/>
<path d="M12.9705 15.1824L16.1638 10.0625H9.76233L12.9705 15.1824Z" fill="#605BEC"/>
</svg>
