<svg width="24" height="24" viewBox="0 0 24 24" fill="none" xmlns="http://www.w3.org/2000/svg">
<rect width="24" height="24" rx="4" fill="url(#paint0_linear_12749_76179)"/>
<path d="M21.196 13.9766L18.8832 9.92609L19.8756 8.02436C20.0126 7.84373 20.0479 7.57799 19.9919 7.36415L18.7192 5.06588C18.6216 4.91432 18.4535 4.8209 18.2728 4.81674H13.5414L12.4825 2.96484C12.4078 2.81951 12.2645 2.71986 12.1026 2.70117H9.60502C9.42024 2.70532 9.28945 2.84027 9.1981 3.00013L9.15865 3.06449L6.79602 7.11501H4.5289C4.34204 7.11086 4.16557 7.20429 4.06592 7.36415L2.76004 9.67695C2.67699 9.84304 2.67699 10.0403 2.76004 10.2064L5.10813 14.2901L4.04931 16.142C3.96627 16.3081 3.96627 16.5032 4.04931 16.6714L5.25554 18.7891C5.35312 18.951 5.52959 19.0527 5.71851 19.0527H10.4479L11.5877 21.0354C11.6749 21.1849 11.8285 21.2825 12.0009 21.3012H14.6791C14.8638 21.297 15.0341 21.1974 15.1254 21.0375L17.459 16.9517H19.5434C19.7282 16.9351 19.8943 16.8313 19.9898 16.6714L21.196 14.5392C21.3081 14.3669 21.3081 14.1468 21.196 13.9766ZM18.2708 14.2423L17.0645 12.0105L12.1026 20.7552L10.7469 18.5233H5.78703L6.97872 16.3579H9.50744L4.5455 7.64442H7.14066L9.60502 3.24512L10.8445 5.41051L9.5718 7.64235H19.4936L18.2375 9.85965L20.7351 14.2403H18.2708V14.2423Z" fill="white"/>
<path d="M11.9864 15.0829L15.0798 10.123H8.87842L11.9864 15.0829Z" fill="white"/>
<defs>
<linearGradient id="paint0_linear_12749_76179" x1="12" y1="0" x2="12" y2="24" gradientUnits="userSpaceOnUse">
<stop stop-color="#131313"/>
<stop offset="1" stop-color="#3C3C3C"/>
</linearGradient>
</defs>
</svg>
