<svg width="32" height="32" viewBox="0 0 32 32" fill="none" xmlns="http://www.w3.org/2000/svg">
<g clip-path="url(#clip0_4568_11976)">
<path d="M3 23.775V29.9045C3.00003 30.1781 3.05449 30.4489 3.16019 30.7012C3.2659 30.9535 3.42075 31.1823 3.61572 31.3742C3.81068 31.5661 4.04188 31.7173 4.29585 31.819C4.54981 31.9207 4.82147 31.9708 5.095 31.9665L10.617 31.8785C10.9089 31.8738 11.1965 31.8072 11.4608 31.6831C11.7251 31.559 11.96 31.3802 12.15 31.1585L28.5035 12.0795C28.8235 11.7055 29 11.2295 29 10.737V5.0625C29 4.79165 28.9467 4.52345 28.843 4.27322C28.7394 4.02298 28.5874 3.79561 28.3959 3.60409C28.2044 3.41257 27.977 3.26065 27.7268 3.157C27.4765 3.05335 27.2084 3 26.9375 3H21.436C20.841 3 20.2755 3.257 19.8835 3.7045L3.5105 22.417C3.18141 22.7929 3 23.2754 3 23.775Z" fill="#00D886"/>
<path d="M3 24.5074V29.9384C3 30.4854 3.2173 31.01 3.60409 31.3968C3.99089 31.7836 4.51549 32.0009 5.0625 32.0009H11.3455C11.4455 32.0009 11.5455 31.9939 11.6445 31.9789L30.237 29.2549C30.7268 29.183 31.1745 28.9373 31.4982 28.5627C31.8218 28.188 32 27.7095 32 27.2144V19.5149C32 19.244 31.9466 18.9757 31.8429 18.7254C31.7392 18.4751 31.5872 18.2477 31.3956 18.0561C31.2039 17.8646 30.9764 17.7127 30.7261 17.6091C30.4757 17.5055 30.2074 17.4523 29.9365 17.4524L20.6845 17.4549C20.4715 17.4549 20.26 17.4879 20.0575 17.5524L4.4355 22.5424C4.01881 22.6754 3.65519 22.9375 3.39717 23.2907C3.13914 23.6439 3.00005 24.07 3 24.5074Z" fill="url(#paint0_linear_4568_11976)"/>
<path d="M0 2.0625V19.126C0 19.9555 0.4965 20.7035 1.26 21.026L19.9715 28.925C20.2305 29.0345 20.509 29.09 20.7905 29.087L29.955 29.012C30.4989 29.0074 31.0189 28.7881 31.4019 28.4019C31.7849 28.0157 31.9999 27.4939 32 26.95V18.117C32 17.714 31.882 17.3205 31.661 16.9835L21.1065 0.93C20.9188 0.644296 20.663 0.409727 20.3622 0.247391C20.0613 0.0850555 19.7248 4.31658e-05 19.383 0L2.0625 0C1.51549 0 0.990886 0.217298 0.604092 0.604092C0.217298 0.990886 0 1.51549 0 2.0625Z" fill="url(#paint1_linear_4568_11976)"/>
<path d="M26 6H6V26H26V6Z" fill="black"/>
<path d="M16.5 21.9999H8.49997V23.4999H16.5V21.9999ZM8.49647 8.49594H11.7175C12.246 8.49594 12.7095 8.59244 13.1075 8.78544C13.5065 8.97844 13.8135 9.24994 14.03 9.60044C14.246 9.95044 14.354 10.3554 14.354 10.8164C14.354 11.2774 14.244 11.6959 14.0245 12.0494C13.8045 12.4034 13.493 12.6774 13.0895 12.8724C12.6855 13.0674 12.214 13.1644 11.6745 13.1644H9.95947V15.9999H8.49597V8.49644L8.49647 8.49594ZM12.2665 11.8109C12.451 11.7199 12.5925 11.5894 12.6925 11.4199C12.7925 11.2499 12.8425 11.0509 12.8425 10.8224C12.8425 10.5939 12.7925 10.4014 12.6925 10.2354C12.5925 10.0689 12.4505 9.94044 12.2665 9.84944C12.0825 9.75844 11.8675 9.71294 11.621 9.71294H9.95897V11.9479H11.621C11.8675 11.9479 12.0825 11.9019 12.2665 11.8109ZM16.8565 15.6209C16.2808 15.2903 15.8063 14.8086 15.4845 14.2279C15.1525 13.6364 14.9865 12.9764 14.9865 12.2474C14.9865 11.5184 15.1525 10.8584 15.4845 10.2674C15.8063 9.68664 16.2807 9.2048 16.8565 8.87394C17.439 8.53644 18.0895 8.36694 18.8075 8.36694C19.415 8.36694 19.9725 8.47944 20.4795 8.70444C20.9699 8.91676 21.4039 9.2407 21.747 9.65044C22.0834 10.0537 22.3162 10.5331 22.425 11.0469H20.892C20.7947 10.7797 20.6422 10.5359 20.4445 10.3314C20.2429 10.1237 19.9991 9.9617 19.7295 9.85644C19.439 9.74359 19.1296 9.68725 18.818 9.69044C18.3745 9.69044 17.9745 9.80144 17.617 10.0229C17.2593 10.2452 16.9693 10.5611 16.7785 10.9364C16.5765 11.3244 16.4755 11.7609 16.4755 12.2464C16.4755 12.7329 16.5765 13.1694 16.7785 13.5569C16.9691 13.9325 17.2592 14.2487 17.617 14.4709C17.9745 14.6924 18.3745 14.8029 18.818 14.8029C19.1295 14.8063 19.4387 14.7499 19.729 14.6369C19.9965 14.5331 20.2387 14.3731 20.4393 14.1679C20.6399 13.9626 20.7943 13.7168 20.892 13.4469H22.425C22.3161 13.9606 22.0833 14.4398 21.747 14.8429C21.4039 15.2527 20.9699 15.5766 20.4795 15.7889C19.972 16.0139 19.415 16.1264 18.8075 16.1264C18.0895 16.1264 17.439 15.9579 16.8565 15.6199V15.6209Z" fill="white"/>
</g>
<defs>
<linearGradient id="paint0_linear_4568_11976" x1="3.8355" y1="32.1964" x2="30.563" y2="19.8044" gradientUnits="userSpaceOnUse">
<stop offset="0.1" stop-color="#00D886"/>
<stop offset="0.59" stop-color="#F0EB18"/>
</linearGradient>
<linearGradient id="paint1_linear_4568_11976" x1="29.9665" y1="29.838" x2="0.668499" y2="0.540001" gradientUnits="userSpaceOnUse">
<stop offset="0.3" stop-color="#F0EB18"/>
<stop offset="0.7" stop-color="#00C4F4"/>
</linearGradient>
<clipPath id="clip0_4568_11976">
<rect width="32" height="32" fill="white"/>
</clipPath>
</defs>
</svg>
