<svg width="25" height="24" viewBox="0 0 24 24" fill="none" xmlns="http://www.w3.org/2000/svg">
<rect width="24" height="24" transform="translate(0.984375)" fill="#111113"/>
<path d="M22.0429 13.7872V10.6435C22.0429 8.85749 21.2656 7.42419 19.9127 6.71073L12.9254 3.02637L12.8904 3.09325L12.8554 3.16014C14.1573 3.84653 14.9042 5.23125 14.9042 6.95917V10.1029C14.9042 10.1976 14.9018 10.2971 14.897 10.3967C14.8962 10.4158 14.8946 10.4349 14.8931 10.4548L14.8899 10.5018C14.8859 10.5647 14.8819 10.6284 14.8755 10.6913C14.8731 10.7168 14.87 10.7431 14.8668 10.7686L14.8596 10.8283C14.8532 10.8808 14.8477 10.9326 14.8397 10.9851C14.8357 11.0146 14.8309 11.0433 14.8262 11.0727L14.819 11.1181C14.8102 11.1715 14.8015 11.2248 14.7911 11.2782C14.776 11.3578 14.7601 11.4366 14.7426 11.5155L14.737 11.5385C14.7195 11.615 14.7003 11.6906 14.6797 11.7663L14.6613 11.8332C14.6398 11.9096 14.6175 11.9861 14.5936 12.0625L14.5721 12.1286C14.5451 12.2122 14.5164 12.2958 14.4862 12.3786C14.4782 12.4009 14.4694 12.4224 14.4607 12.4447L14.4471 12.4805C14.4225 12.5442 14.3978 12.6087 14.3715 12.6724C14.3564 12.7099 14.3396 12.7473 14.3237 12.7847L14.3181 12.7983C14.2974 12.8468 14.2759 12.8954 14.2536 12.9432C14.2345 12.9862 14.2138 13.0284 14.1939 13.0706C14.1708 13.1184 14.1485 13.1653 14.1246 13.2123C14.1023 13.2561 14.08 13.2991 14.057 13.3421C14.0347 13.3843 14.0116 13.4273 13.9885 13.4695C13.9646 13.5125 13.9399 13.5555 13.9152 13.5985C13.8913 13.6399 13.8674 13.6821 13.842 13.7227C13.8165 13.7657 13.7902 13.8079 13.7631 13.8501C13.7376 13.8908 13.713 13.9306 13.6867 13.9704C13.6596 14.0126 13.6318 14.0532 13.5999 14.101C13.5744 14.1384 13.5489 14.1758 13.5235 14.2124C13.4964 14.2507 13.4693 14.2881 13.4375 14.3319C13.408 14.3725 13.3785 14.4123 13.3483 14.4521C13.3188 14.4911 13.2893 14.5286 13.2591 14.5668C13.228 14.6058 13.197 14.6456 13.1659 14.6838C13.1389 14.7173 13.111 14.7499 13.0831 14.7826L13.0775 14.7889C13.0409 14.8327 13.0035 14.8757 12.9653 14.9187C12.935 14.953 12.9048 14.9864 12.8745 15.0199C12.8363 15.0621 12.7981 15.1027 12.759 15.1441C12.7296 15.1751 12.6993 15.2054 12.669 15.2365C12.6173 15.289 12.5647 15.34 12.5114 15.3909L12.4883 15.4132C12.4692 15.4315 12.4509 15.4491 12.4318 15.4674C12.3649 15.5295 12.2972 15.59 12.2279 15.6497L12.2088 15.6664C12.2016 15.6728 12.1937 15.68 12.1865 15.6864L12.1539 15.7134C12.0973 15.7613 12.04 15.8074 11.9827 15.8536C11.9651 15.8679 11.9468 15.8814 11.9285 15.8957L11.915 15.9061C11.8664 15.9436 11.8178 15.9802 11.7645 16.0192C11.7422 16.0351 11.7207 16.0519 11.6984 16.0677C11.6419 16.1084 11.5853 16.1474 11.528 16.1856L11.4834 16.2167C11.4086 16.266 11.3329 16.3138 11.2565 16.36L11.2079 16.3887C11.1474 16.4245 11.0869 16.4595 11.0255 16.4937C11.0072 16.5042 10.9889 16.5137 10.9706 16.5232L10.9419 16.5384C10.891 16.5654 10.8408 16.5917 10.7898 16.618C10.762 16.6315 10.7341 16.6451 10.7062 16.6585L10.6967 16.6633C10.6473 16.6872 10.5987 16.7096 10.5486 16.7319C10.5167 16.7462 10.4849 16.7606 10.4522 16.774C10.4021 16.7956 10.3511 16.8163 10.3009 16.8362L10.2739 16.8465C10.2516 16.8553 10.2293 16.864 10.207 16.8728C10.152 16.8936 10.0963 16.9126 10.0405 16.9317L10.0103 16.9421C9.99356 16.9477 9.97684 16.9541 9.96012 16.9596C9.87174 16.9883 9.78972 17.013 9.7101 17.0352L9.22197 17.169C9.14952 17.189 9.07705 17.2072 9.00539 17.2239C8.99185 17.2271 8.97911 17.2295 8.96557 17.2319L8.91143 17.2431C8.87082 17.2519 8.831 17.2605 8.79039 17.2677C8.77367 17.271 8.75616 17.2734 8.73944 17.2765L8.67414 17.2876C8.64229 17.2933 8.61044 17.2988 8.57859 17.3028C8.56027 17.3052 8.54196 17.3076 8.52365 17.3091L8.45756 17.3172C8.42809 17.3211 8.39863 17.3243 8.36916 17.3275C8.35722 17.3282 8.34528 17.3291 8.33414 17.3306L8.30706 17.333C8.26088 17.337 8.21469 17.3411 8.1685 17.3433C8.15099 17.3442 8.13426 17.345 8.11675 17.345H8.09127C8.05066 17.3474 8.01084 17.349 7.97103 17.349C7.95192 17.349 7.932 17.349 7.91291 17.349H7.88901C7.85159 17.349 7.81336 17.3481 7.77594 17.3466C7.75524 17.3466 7.73453 17.345 7.71384 17.3435H7.69313C7.65411 17.3402 7.61589 17.3378 7.57688 17.3347L7.52591 17.3299C7.47733 17.3251 7.42956 17.3203 7.38099 17.3139L7.34994 17.31C7.2934 17.3019 7.23686 17.2933 7.18033 17.2828L7.13812 17.2749C7.10308 17.2677 7.06806 17.2606 7.03302 17.2526C6.97808 17.2407 6.92393 17.2271 6.86978 17.212L6.84669 17.2057C6.83634 17.2033 6.82678 17.2 6.81643 17.1976C6.74476 17.177 6.67469 17.1547 6.6086 17.1316L6.55923 17.1132C6.51066 17.0957 6.46129 17.0766 6.41351 17.0567C6.3952 17.0488 6.37689 17.0408 6.35857 17.0328L6.34663 17.0273C6.30442 17.0089 6.26302 16.9898 6.22161 16.9699L6.2025 16.9604C6.19772 16.9578 6.19401 16.9559 6.19135 16.9548L5.67139 16.6824L6.04802 17.0591H6.06077L13.0314 20.734C13.0552 20.7467 13.0791 20.7586 13.1038 20.7713C13.1118 20.7753 13.1197 20.7785 13.1277 20.7825L13.1428 20.7897C13.1858 20.8103 13.2288 20.8303 13.2734 20.8494L13.2862 20.855C13.3053 20.8629 13.3236 20.8717 13.3427 20.8796C13.3929 20.9004 13.443 20.9195 13.494 20.9385L13.5107 20.9449C13.5195 20.9481 13.5274 20.9514 13.5346 20.9545L13.545 20.9576C13.615 20.9824 13.6883 21.0055 13.7615 21.0262C13.7727 21.0294 13.7838 21.0325 13.795 21.0349L13.8165 21.0406C13.8722 21.0557 13.9296 21.07 13.9869 21.0827L14.0004 21.0858C14.0076 21.0875 14.014 21.0891 14.0211 21.0906C14.0378 21.0947 14.0554 21.0978 14.0729 21.1011L14.1406 21.1138C14.1987 21.1241 14.2568 21.1337 14.3158 21.1425L14.3484 21.1464C14.3978 21.1528 14.4479 21.1583 14.4981 21.1631L14.596 21.1719C14.6112 21.1727 14.6263 21.1735 14.6422 21.1743L14.6804 21.1759C14.7059 21.1774 14.7306 21.1791 14.7569 21.1798C14.7927 21.1815 14.8294 21.1815 14.8652 21.1822H14.8954C14.9106 21.1822 14.9249 21.1822 14.94 21.1822C14.9464 21.1822 14.952 21.1822 14.9583 21.1822C14.9974 21.1822 15.0364 21.1807 15.0834 21.1783H15.1088C15.1264 21.1767 15.1447 21.1767 15.163 21.175C15.21 21.1727 15.2577 21.1688 15.3055 21.1647L15.331 21.1623C15.3437 21.1616 15.3565 21.1607 15.3764 21.1583C15.4043 21.1552 15.4321 21.152 15.46 21.1488L15.5229 21.1408C15.5436 21.1384 15.5643 21.136 15.585 21.1329C15.6185 21.1281 15.6511 21.1225 15.6845 21.1169L15.7483 21.1066C15.7666 21.1035 15.7849 21.1011 15.8032 21.097C15.8446 21.0891 15.886 21.0803 15.9274 21.0715L15.9784 21.0612C15.9935 21.058 16.0086 21.0549 16.0238 21.0516C16.0978 21.0349 16.1719 21.0158 16.2467 20.9951L16.7348 20.8614C16.8153 20.839 16.8997 20.8143 16.9912 20.7842C17.0088 20.7785 17.0255 20.773 17.0422 20.7665L17.074 20.7555C17.1314 20.7356 17.1887 20.7156 17.2452 20.695C17.2699 20.6861 17.2938 20.6758 17.3177 20.6663L17.3408 20.6567C17.3926 20.6359 17.4451 20.6153 17.4961 20.593C17.5287 20.5787 17.5614 20.5644 17.5948 20.55C17.6458 20.5269 17.6959 20.5038 17.7461 20.4799L17.7628 20.472C17.7891 20.4592 17.8154 20.4465 17.8417 20.4338C17.8942 20.4075 17.946 20.3804 17.9977 20.3525L18.0264 20.3374C18.0455 20.3271 18.0646 20.3175 18.0829 20.3071C18.1458 20.2729 18.2072 20.2362 18.2693 20.1996L18.2899 20.1877C18.2995 20.1821 18.309 20.1765 18.3195 20.1709C18.3934 20.1264 18.4668 20.0802 18.5393 20.0324L18.5893 19.9982L20.1237 20.6973C21.0204 21.1059 22.0396 20.4505 22.0396 19.4646V13.7856C22.0396 13.7851 22.0396 13.7846 22.0396 13.784L22.0429 13.7872Z" fill="#2ADB5C"/>
<path d="M12.9295 3.02928C12.9056 3.01654 12.8817 3.00459 12.8578 2.99265C12.8451 2.98628 12.8316 2.9807 12.8188 2.97433C12.7758 2.95363 12.7328 2.93372 12.6898 2.91461C12.6667 2.90426 12.6444 2.8947 12.6206 2.88435C12.5712 2.86365 12.521 2.84454 12.4701 2.82623C12.4565 2.82145 12.443 2.81508 12.4287 2.8103C12.4255 2.8095 12.4223 2.80791 12.4191 2.80711C12.3482 2.78243 12.2766 2.75934 12.2041 2.73864C12.1858 2.73306 12.1675 2.72908 12.1492 2.7243C12.0934 2.70917 12.0369 2.69484 11.9803 2.6829C11.9684 2.68051 11.9573 2.67653 11.9461 2.67414C11.9214 2.66856 11.8967 2.66458 11.8721 2.6598C11.8577 2.65662 11.8426 2.65423 11.8283 2.65105C11.7709 2.64069 11.7128 2.63114 11.6539 2.62318C11.6427 2.62158 11.6316 2.62079 11.6204 2.61919C11.5711 2.61282 11.5225 2.60725 11.4723 2.60247C11.4548 2.60088 11.4373 2.59929 11.4198 2.59769C11.4046 2.5961 11.3895 2.59451 11.3744 2.59371C11.3497 2.59212 11.325 2.59132 11.3003 2.58973C11.2717 2.58814 11.243 2.58655 11.2143 2.58575C11.1761 2.58416 11.1371 2.58416 11.0981 2.58336C11.0702 2.58336 11.0415 2.58257 11.0137 2.58336C10.9731 2.58336 10.9316 2.58575 10.8902 2.58655C10.864 2.58734 10.8369 2.58814 10.8106 2.58973C10.7636 2.59212 10.7159 2.5961 10.6689 2.60008C10.6474 2.60168 10.6259 2.60327 10.6044 2.60486C10.602 2.60486 10.5996 2.60486 10.598 2.60486C10.5598 2.60884 10.5208 2.61442 10.4818 2.61919C10.4507 2.62318 10.4205 2.62636 10.3894 2.63034C10.3456 2.63671 10.3018 2.64467 10.258 2.65184C10.2293 2.65662 10.2007 2.6606 10.172 2.66617C10.1226 2.67573 10.0725 2.68608 10.0223 2.69723C9.99842 2.70201 9.97533 2.70678 9.95144 2.71236C9.87739 2.72908 9.80333 2.74819 9.72928 2.76889L9.24116 2.90267C9.15516 2.92656 9.06997 2.95204 8.98477 2.97991C8.95689 2.98867 8.92981 2.99902 8.90194 3.00857C8.84461 3.02848 8.78728 3.04839 8.73075 3.06909C8.6989 3.08103 8.66704 3.09377 8.63439 3.10651C8.58263 3.12722 8.53089 3.14792 8.47913 3.17022C8.44648 3.18455 8.41303 3.19888 8.38039 3.21322C8.32943 3.23631 8.27927 3.2594 8.22909 3.28329C8.19725 3.29842 8.16539 3.31355 8.13354 3.32947C8.08099 3.35575 8.02923 3.38282 7.97747 3.41069C7.94881 3.42582 7.92014 3.44095 7.89227 3.45608C7.82936 3.49032 7.76806 3.52695 7.70594 3.56358C7.68922 3.57313 7.6725 3.58269 7.65578 3.59304C7.58172 3.63763 7.50847 3.68461 7.43521 3.73239C7.43122 3.73478 7.42725 3.73796 7.42327 3.74035C7.40734 3.7507 7.39221 3.76185 7.37708 3.7722C7.31815 3.81201 7.26003 3.85183 7.2027 3.89324C7.17881 3.91075 7.15491 3.92827 7.13103 3.94499C7.08086 3.98242 7.0307 4.01984 6.98133 4.05806C6.95823 4.07559 6.93515 4.09389 6.91285 4.11142C6.85392 4.1584 6.795 4.20617 6.73688 4.25474C6.72572 4.2643 6.71457 4.27306 6.70343 4.28182C6.70104 4.28341 6.69866 4.28579 6.69627 4.28739C6.68432 4.29774 6.67317 4.30889 6.66123 4.31925C6.59115 4.37976 6.52109 4.44187 6.4534 4.50557C6.42553 4.53105 6.39925 4.55733 6.37138 4.5836C6.31724 4.63536 6.26389 4.68791 6.21053 4.74127C6.1962 4.7556 6.18187 4.76913 6.16753 4.78346C6.15081 4.8002 6.13569 4.8185 6.11897 4.83522C6.07915 4.87743 6.03934 4.91963 6.00032 4.96263C5.96927 4.99687 5.93822 5.03111 5.90715 5.06534C5.86814 5.10914 5.83071 5.15374 5.79249 5.19754C5.77338 5.21983 5.75427 5.24133 5.73596 5.26362C5.72481 5.27716 5.71366 5.29149 5.70251 5.30503C5.66986 5.34485 5.63802 5.38465 5.60695 5.42527C5.5767 5.46428 5.54565 5.50331 5.51539 5.54232C5.48434 5.58293 5.45408 5.62434 5.42381 5.66574C5.4047 5.69202 5.3848 5.7175 5.36569 5.74458C5.35533 5.75891 5.34658 5.77324 5.33622 5.78758C5.30835 5.82738 5.28128 5.868 5.25341 5.90782C5.22475 5.95001 5.19608 5.99221 5.16821 6.03521C5.14194 6.07582 5.11566 6.11723 5.09018 6.15863C5.07266 6.18571 5.05514 6.21278 5.03842 6.24065C5.02886 6.25658 5.02011 6.2733 5.00975 6.28923C4.98427 6.33142 4.95959 6.37363 4.9357 6.41664C4.91022 6.46043 4.88554 6.50423 4.86085 6.54881C4.83696 6.59182 4.81387 6.63561 4.79078 6.6786C4.77645 6.70567 4.76052 6.73275 4.74698 6.76062C4.73822 6.77734 4.73106 6.79407 4.7223 6.81079C4.69761 6.85935 4.67452 6.90793 4.65063 6.9565C4.62993 6.99951 4.60923 7.0425 4.58932 7.08629C4.56702 7.13566 4.54552 7.18504 4.52403 7.23441C4.51129 7.26386 4.49695 7.29333 4.48501 7.32359C4.47943 7.33633 4.47466 7.34987 4.46908 7.3634C4.44201 7.4279 4.41733 7.49319 4.39184 7.55928C4.37831 7.59432 4.36477 7.62856 4.35203 7.66359C4.32098 7.748 4.29231 7.83321 4.26444 7.9192C4.25966 7.93353 4.25409 7.94786 4.24931 7.963C4.24931 7.96459 4.24851 7.96697 4.24772 7.96857C4.24533 7.97494 4.24374 7.98211 4.24135 7.98847C4.21666 8.06651 4.19437 8.14454 4.17207 8.22258C4.1657 8.24567 4.15933 8.26798 4.15376 8.29106C4.13305 8.3683 4.11315 8.44634 4.09563 8.52437C4.09404 8.53233 4.09165 8.54029 4.09006 8.54826C4.07413 8.61674 4.0598 8.68522 4.04626 8.75449C4.04387 8.76723 4.04228 8.77917 4.03989 8.79192C4.02874 8.84925 4.01998 8.90658 4.01043 8.96471C4.00326 9.00692 3.9961 9.04991 3.98973 9.09212C3.98097 9.15263 3.9746 9.21315 3.96743 9.27366C3.96265 9.31348 3.95708 9.35329 3.95389 9.39311C3.94752 9.45999 3.94275 9.52768 3.93876 9.59536C3.93637 9.6288 3.93319 9.66145 3.9316 9.69489C3.92841 9.79284 3.92603 9.89396 3.92603 9.9943V13.138C3.92603 14.2838 4.25091 15.2624 4.8083 15.9998C4.86404 16.0739 4.92217 16.1447 4.98189 16.214C5.07266 16.3176 5.16742 16.4155 5.26775 16.507C5.50106 16.7212 5.76065 16.9044 6.04173 17.0524L13.029 20.7361C11.7454 20.0592 10.9141 18.6554 10.9133 16.8216V13.6779C10.9133 13.5775 10.9157 13.4764 10.9205 13.3761C10.9221 13.3426 10.9253 13.31 10.9277 13.2765C10.9325 13.2089 10.9364 13.142 10.9428 13.0743C10.9468 13.0345 10.9524 12.9947 10.9563 12.9548C10.9635 12.8943 10.9699 12.8338 10.9786 12.7733C10.985 12.7311 10.9922 12.6881 10.9993 12.6459C11.0089 12.5886 11.0184 12.5304 11.0288 12.4731C11.0439 12.3919 11.0607 12.3107 11.079 12.2302C11.0806 12.2223 11.0829 12.2143 11.0845 12.2064C11.1029 12.1283 11.122 12.0503 11.1427 11.973C11.149 11.9507 11.1546 11.9277 11.161 11.9053C11.1825 11.8273 11.2056 11.7485 11.2303 11.6713C11.2327 11.6649 11.2342 11.6577 11.2366 11.6513C11.2414 11.6354 11.2478 11.6187 11.2533 11.6028C11.2812 11.5176 11.3099 11.4316 11.3409 11.3472C11.3537 11.3121 11.3672 11.2779 11.3808 11.2429C11.4054 11.1776 11.4309 11.1123 11.458 11.047C11.4755 11.004 11.4946 10.961 11.5129 10.9188C11.5344 10.8694 11.5559 10.82 11.5782 10.7707C11.5981 10.7269 11.6188 10.6839 11.6395 10.6409C11.6626 10.5923 11.6865 10.5437 11.7112 10.4952C11.7335 10.4506 11.7566 10.4068 11.7797 10.3622C11.8028 10.3184 11.8259 10.2754 11.8498 10.2324C11.8744 10.1878 11.8991 10.144 11.9246 10.1002C11.9493 10.058 11.974 10.015 11.9987 9.9728C12.0249 9.929 12.052 9.886 12.0791 9.84301C12.1046 9.80159 12.1308 9.76099 12.1571 9.71958C12.185 9.67659 12.2137 9.63438 12.2423 9.59218C12.2694 9.55157 12.2965 9.51175 12.3251 9.47194C12.3538 9.43133 12.3833 9.39072 12.4127 9.35091C12.443 9.30949 12.4732 9.26809 12.5043 9.22748C12.5346 9.18767 12.5648 9.14945 12.5959 9.11043C12.6277 9.07062 12.6596 9.03 12.6914 8.9902C12.7209 8.95437 12.7511 8.91852 12.7814 8.88269C12.8196 8.8381 12.8571 8.79352 12.8961 8.74972C12.9263 8.71548 12.9574 8.68124 12.9884 8.647C13.0275 8.60399 13.0673 8.5618 13.1071 8.5196C13.1373 8.48774 13.1676 8.45669 13.1987 8.42563C13.2512 8.37229 13.3053 8.31972 13.3595 8.26798C13.3866 8.24169 13.4136 8.21541 13.4415 8.18994C13.51 8.12624 13.5793 8.06412 13.6493 8.00361C13.6637 7.99167 13.6772 7.97813 13.6915 7.96618C13.7027 7.95663 13.7138 7.94787 13.725 7.9391C13.7831 7.89054 13.8412 7.84276 13.901 7.79578C13.9241 7.77746 13.9471 7.75995 13.9702 7.74242C14.0196 7.7042 14.0698 7.66598 14.1199 7.62936C14.1438 7.61184 14.1677 7.59432 14.1916 7.57681C14.2489 7.5354 14.3079 7.49479 14.366 7.45578C14.3811 7.44542 14.3962 7.43427 14.4122 7.42471C14.4886 7.37376 14.5659 7.32518 14.6439 7.2774C14.6606 7.26785 14.6773 7.25829 14.6933 7.24874C14.7554 7.21212 14.8175 7.17548 14.8804 7.14125C14.9083 7.12532 14.9369 7.11099 14.9656 7.09585C15.0173 7.06799 15.0699 7.04091 15.1225 7.01463C15.1543 6.99871 15.1854 6.98358 15.2172 6.96844C15.2674 6.94457 15.3183 6.92067 15.3693 6.89759C15.4019 6.88324 15.4346 6.86892 15.4672 6.85459C15.519 6.83229 15.5708 6.81158 15.6233 6.79089C15.6552 6.77814 15.687 6.7654 15.7189 6.75346C15.7754 6.73196 15.8327 6.71205 15.8901 6.69294C15.9179 6.68338 15.945 6.67383 15.9729 6.66427C16.0581 6.6364 16.1433 6.61093 16.2293 6.58703L16.7174 6.45326C16.7923 6.43256 16.8662 6.41425 16.9396 6.39753C16.965 6.39195 16.9897 6.38717 17.0144 6.3816C17.063 6.37124 17.1116 6.3601 17.1594 6.35134C17.1888 6.34577 17.2183 6.34178 17.2477 6.33701C17.2907 6.32984 17.3338 6.32187 17.3767 6.31551C17.4077 6.31073 17.4388 6.30834 17.4699 6.30436C17.5105 6.29958 17.551 6.29401 17.5917 6.29002C17.6132 6.28764 17.6339 6.28684 17.6555 6.28525C17.7031 6.28126 17.7509 6.27729 17.7979 6.2749C17.8242 6.2733 17.8505 6.2733 17.8768 6.27171C17.9181 6.27012 17.9595 6.26852 18.0009 6.26773C18.0296 6.26773 18.0575 6.26773 18.0854 6.26773C18.1244 6.26773 18.1635 6.26772 18.2016 6.27012C18.2303 6.27091 18.259 6.27251 18.2877 6.2741C18.3274 6.27648 18.3673 6.27887 18.4063 6.28206C18.4238 6.28365 18.4413 6.28525 18.4589 6.28684C18.5082 6.29162 18.5576 6.29719 18.607 6.30356C18.6182 6.30515 18.6292 6.30595 18.6404 6.30754C18.6993 6.31551 18.7574 6.32506 18.8148 6.33541C18.8291 6.3378 18.8442 6.34099 18.8586 6.34417C18.8952 6.35134 18.9311 6.3593 18.9677 6.36727C19.0242 6.38 19.0808 6.39433 19.1365 6.40867C19.1547 6.41344 19.1731 6.41822 19.1914 6.423C19.2638 6.4437 19.3355 6.466 19.4064 6.49069C19.424 6.49705 19.4406 6.50342 19.4582 6.5098C19.5083 6.5281 19.5585 6.54722 19.6079 6.56792C19.6309 6.57747 19.6541 6.58783 19.6771 6.59818C19.7209 6.61729 19.7639 6.6372 19.8062 6.6579C19.8436 6.67622 19.8802 6.69374 19.9168 6.71285L12.9295 3.02928Z" fill="white"/>
</svg>
