<svg width="24" height="24" viewBox="0 0 24 24" fill="none" xmlns="http://www.w3.org/2000/svg">
<rect width="24" height="24" rx="4" fill="#111113"/>
<path d="M21.0585 13.7872V10.6435C21.0585 8.85749 20.2812 7.42419 18.9284 6.71073L11.9411 3.02637L11.906 3.09325L11.871 3.16014C13.1729 3.84653 13.9198 5.23125 13.9198 6.95917V10.1029C13.9198 10.1976 13.9174 10.2971 13.9127 10.3967C13.9119 10.4158 13.9103 10.4349 13.9087 10.4548L13.9055 10.5018C13.9015 10.5647 13.8975 10.6284 13.8912 10.6913C13.8888 10.7168 13.8856 10.7431 13.8824 10.7686L13.8752 10.8283C13.8689 10.8808 13.8633 10.9326 13.8553 10.9851C13.8513 11.0146 13.8466 11.0433 13.8418 11.0727L13.8346 11.1181C13.8259 11.1715 13.8171 11.2248 13.8068 11.2782C13.7916 11.3578 13.7757 11.4366 13.7582 11.5155L13.7526 11.5385C13.7351 11.615 13.716 11.6906 13.6953 11.7663L13.677 11.8332C13.6555 11.9096 13.6332 11.9861 13.6093 12.0625L13.5878 12.1286C13.5607 12.2122 13.532 12.2958 13.5018 12.3786C13.4938 12.4009 13.4851 12.4224 13.4763 12.4447L13.4628 12.4805C13.4381 12.5442 13.4134 12.6087 13.3871 12.6724C13.372 12.7099 13.3553 12.7473 13.3393 12.7847L13.3338 12.7983C13.3131 12.8468 13.2916 12.8954 13.2693 12.9432C13.2502 12.9862 13.2294 13.0284 13.2095 13.0706C13.1865 13.1184 13.1642 13.1653 13.1403 13.2123C13.118 13.2561 13.0957 13.2991 13.0726 13.3421C13.0503 13.3843 13.0272 13.4273 13.0041 13.4695C12.9802 13.5125 12.9555 13.5555 12.9308 13.5985C12.907 13.6399 12.8831 13.6821 12.8576 13.7227C12.8321 13.7657 12.8058 13.8079 12.7788 13.8501C12.7533 13.8908 12.7286 13.9306 12.7023 13.9704C12.6752 14.0126 12.6474 14.0532 12.6155 14.101C12.59 14.1384 12.5646 14.1758 12.5391 14.2124C12.512 14.2507 12.4849 14.2881 12.4531 14.3319C12.4236 14.3725 12.3942 14.4123 12.3639 14.4521C12.3344 14.4911 12.305 14.5286 12.2747 14.5668C12.2437 14.6058 12.2126 14.6456 12.1816 14.6838C12.1545 14.7173 12.1266 14.7499 12.0987 14.7826L12.0932 14.7889C12.0565 14.8327 12.0191 14.8757 11.9809 14.9187C11.9506 14.953 11.9204 14.9864 11.8901 15.0199C11.8519 15.0621 11.8137 15.1027 11.7747 15.1441C11.7452 15.1751 11.7149 15.2054 11.6847 15.2365C11.6329 15.289 11.5804 15.34 11.527 15.3909L11.5039 15.4132C11.4848 15.4315 11.4665 15.4491 11.4474 15.4674C11.3805 15.5295 11.3128 15.59 11.2435 15.6497L11.2244 15.6664C11.2173 15.6728 11.2093 15.68 11.2021 15.6864L11.1695 15.7134C11.1129 15.7613 11.0556 15.8074 10.9983 15.8536C10.9808 15.8679 10.9624 15.8814 10.9441 15.8957L10.9306 15.9061C10.882 15.9436 10.8335 15.9802 10.7801 16.0192C10.7578 16.0351 10.7363 16.0519 10.714 16.0677C10.6575 16.1084 10.6009 16.1474 10.5436 16.1856L10.499 16.2167C10.4242 16.266 10.3485 16.3138 10.2721 16.36L10.2235 16.3887C10.163 16.4245 10.1025 16.4595 10.0412 16.4937C10.0229 16.5042 10.0045 16.5137 9.98623 16.5232L9.95756 16.5384C9.90659 16.5654 9.85643 16.5917 9.80546 16.618C9.7776 16.6315 9.74973 16.6451 9.72186 16.6585L9.7123 16.6633C9.66293 16.6872 9.61437 16.7096 9.56419 16.7319C9.53234 16.7462 9.5005 16.7606 9.46785 16.774C9.41769 16.7956 9.36672 16.8163 9.31656 16.8362L9.28948 16.8465C9.26719 16.8553 9.24488 16.864 9.22259 16.8728C9.16765 16.8936 9.11191 16.9126 9.05617 16.9317L9.02591 16.9421C9.00919 16.9477 8.99247 16.9541 8.97575 16.9596C8.88737 16.9883 8.80535 17.013 8.72572 17.0352L8.2376 17.169C8.16514 17.189 8.09268 17.2072 8.02102 17.2239C8.00748 17.2271 7.99473 17.2295 7.9812 17.2319L7.92706 17.2431C7.88645 17.2519 7.84663 17.2605 7.80602 17.2677C7.7893 17.271 7.77178 17.2734 7.75506 17.2765L7.68977 17.2876C7.65791 17.2933 7.62607 17.2988 7.59421 17.3028C7.57589 17.3052 7.55759 17.3076 7.53927 17.3091L7.47318 17.3172C7.44372 17.3211 7.41425 17.3243 7.38479 17.3275C7.37285 17.3282 7.36091 17.3291 7.34976 17.3306L7.32269 17.333C7.2765 17.337 7.23032 17.3411 7.18413 17.3433C7.16662 17.3442 7.14988 17.345 7.13237 17.345H7.10689C7.06628 17.3474 7.02646 17.349 6.98666 17.349C6.96755 17.349 6.94763 17.349 6.92853 17.349H6.90464C6.86721 17.349 6.82899 17.3481 6.79156 17.3466C6.77086 17.3466 6.75016 17.345 6.72946 17.3435H6.70875C6.66974 17.3402 6.63152 17.3378 6.5925 17.3347L6.54154 17.3299C6.49296 17.3251 6.44519 17.3203 6.39661 17.3139L6.36556 17.31C6.30902 17.3019 6.25248 17.2933 6.19596 17.2828L6.15375 17.2749C6.11871 17.2677 6.08368 17.2606 6.04864 17.2526C5.9937 17.2407 5.93955 17.2271 5.88541 17.212L5.86231 17.2057C5.85196 17.2033 5.84241 17.2 5.83206 17.1976C5.76039 17.177 5.69032 17.1547 5.62423 17.1316L5.57486 17.1132C5.52629 17.0957 5.47692 17.0766 5.42914 17.0567C5.41083 17.0488 5.39251 17.0408 5.3742 17.0328L5.36225 17.0273C5.32005 17.0089 5.27864 16.9898 5.23724 16.9699L5.21813 16.9604C5.21335 16.9578 5.20963 16.9559 5.20698 16.9548L4.68701 16.6824L5.06365 17.0591H5.07639L12.047 20.734C12.0709 20.7467 12.0948 20.7586 12.1194 20.7713C12.1274 20.7753 12.1354 20.7785 12.1433 20.7825L12.1585 20.7897C12.2015 20.8103 12.2445 20.8303 12.2891 20.8494L12.3018 20.855C12.3209 20.8629 12.3392 20.8717 12.3583 20.8796C12.4085 20.9004 12.4587 20.9195 12.5096 20.9385L12.5263 20.9449C12.5351 20.9481 12.5431 20.9514 12.5502 20.9545L12.5606 20.9576C12.6307 20.9824 12.7039 21.0055 12.7772 21.0262C12.7883 21.0294 12.7995 21.0325 12.8106 21.0349L12.8321 21.0406C12.8879 21.0557 12.9452 21.07 13.0025 21.0827L13.016 21.0858C13.0232 21.0875 13.0296 21.0891 13.0368 21.0906C13.0535 21.0947 13.071 21.0978 13.0885 21.1011L13.1562 21.1138C13.2143 21.1241 13.2724 21.1337 13.3314 21.1425L13.364 21.1464C13.4134 21.1528 13.4636 21.1583 13.5137 21.1631L13.6117 21.1719C13.6268 21.1727 13.6419 21.1735 13.6578 21.1743L13.6961 21.1759C13.7215 21.1774 13.7462 21.1791 13.7725 21.1798C13.8083 21.1815 13.845 21.1815 13.8808 21.1822H13.9111C13.9262 21.1822 13.9405 21.1822 13.9557 21.1822C13.962 21.1822 13.9676 21.1822 13.974 21.1822C14.013 21.1822 14.052 21.1807 14.099 21.1783H14.1245C14.142 21.1767 14.1603 21.1767 14.1786 21.175C14.2256 21.1727 14.2734 21.1688 14.3211 21.1647L14.3466 21.1623C14.3594 21.1616 14.3721 21.1607 14.392 21.1583C14.4199 21.1552 14.4478 21.152 14.4756 21.1488L14.5385 21.1408C14.5592 21.1384 14.5799 21.136 14.6006 21.1329C14.6341 21.1281 14.6667 21.1225 14.7002 21.1169L14.7639 21.1066C14.7822 21.1035 14.8005 21.1011 14.8188 21.097C14.8602 21.0891 14.9016 21.0803 14.943 21.0715L14.994 21.0612C15.0091 21.058 15.0243 21.0549 15.0394 21.0516C15.1134 21.0349 15.1875 21.0158 15.2623 20.9951L15.7505 20.8614C15.8309 20.839 15.9153 20.8143 16.0069 20.7842C16.0244 20.7785 16.0411 20.773 16.0578 20.7665L16.0897 20.7555C16.147 20.7356 16.2043 20.7156 16.2609 20.695C16.2856 20.6861 16.3094 20.6758 16.3333 20.6663L16.3564 20.6567C16.4082 20.6359 16.4607 20.6153 16.5117 20.593C16.5444 20.5787 16.577 20.5644 16.6104 20.55C16.6614 20.5269 16.7116 20.5038 16.7617 20.4799L16.7784 20.472C16.8047 20.4592 16.831 20.4465 16.8573 20.4338C16.9098 20.4075 16.9616 20.3804 17.0134 20.3525L17.042 20.3374C17.0611 20.3271 17.0802 20.3175 17.0986 20.3071C17.1615 20.2729 17.2228 20.2362 17.2849 20.1996L17.3055 20.1877C17.3151 20.1821 17.3246 20.1765 17.3351 20.1709C17.4091 20.1264 17.4824 20.0802 17.5549 20.0324L17.605 19.9982L19.1394 20.6973C20.036 21.1059 21.0552 20.4505 21.0552 19.4646V13.7856C21.0552 13.7851 21.0552 13.7846 21.0552 13.784L21.0585 13.7872Z" fill="#2ADB5C"/>
<path d="M11.9451 3.02928C11.9212 3.01654 11.8974 3.00459 11.8735 2.99265C11.8607 2.98628 11.8472 2.9807 11.8344 2.97433C11.7915 2.95363 11.7485 2.93372 11.7055 2.91461C11.6824 2.90426 11.6601 2.8947 11.6362 2.88435C11.5868 2.86365 11.5366 2.84454 11.4857 2.82623C11.4721 2.82145 11.4586 2.81508 11.4443 2.8103C11.4411 2.8095 11.4379 2.80791 11.4347 2.80711C11.3638 2.78243 11.2922 2.75934 11.2197 2.73864C11.2014 2.73306 11.1831 2.72908 11.1648 2.7243C11.109 2.70917 11.0525 2.69484 10.996 2.6829C10.984 2.68051 10.9729 2.67653 10.9617 2.67414C10.937 2.66856 10.9124 2.66458 10.8877 2.6598C10.8733 2.65662 10.8582 2.65423 10.8439 2.65105C10.7865 2.64069 10.7284 2.63114 10.6695 2.62318C10.6583 2.62158 10.6472 2.62079 10.6361 2.61919C10.5867 2.61282 10.5381 2.60725 10.4879 2.60247C10.4704 2.60088 10.4529 2.59929 10.4354 2.59769C10.4203 2.5961 10.4051 2.59451 10.39 2.59371C10.3653 2.59212 10.3406 2.59132 10.316 2.58973C10.2873 2.58814 10.2586 2.58655 10.23 2.58575C10.1917 2.58416 10.1527 2.58416 10.1137 2.58336C10.0858 2.58336 10.0572 2.58257 10.0293 2.58336C9.98869 2.58336 9.94727 2.58575 9.90587 2.58655C9.8796 2.58734 9.85252 2.58814 9.82624 2.58973C9.77926 2.59212 9.73148 2.5961 9.6845 2.60008C9.663 2.60168 9.64151 2.60327 9.62001 2.60486C9.61762 2.60486 9.61523 2.60486 9.61363 2.60486C9.57541 2.60884 9.5364 2.61442 9.49738 2.61919C9.46633 2.62318 9.43608 2.62636 9.40501 2.63034C9.36122 2.63671 9.31742 2.64467 9.27363 2.65184C9.24497 2.65662 9.2163 2.6606 9.18764 2.66617C9.13827 2.67573 9.08809 2.68608 9.03793 2.69723C9.01404 2.70201 8.99095 2.70678 8.96706 2.71236C8.89301 2.72908 8.81896 2.74819 8.74491 2.76889L8.25678 2.90267C8.17079 2.92656 8.08559 2.95204 8.00039 2.97991C7.97251 2.98867 7.94544 2.99902 7.91757 3.00857C7.86024 3.02848 7.8029 3.04839 7.74638 3.06909C7.71452 3.08103 7.68267 3.09377 7.65002 3.10651C7.59826 3.12722 7.54651 3.14792 7.49475 3.17022C7.46211 3.18455 7.42865 3.19888 7.39602 3.21322C7.34505 3.23631 7.29489 3.2594 7.24472 3.28329C7.21287 3.29842 7.18102 3.31355 7.14916 3.32947C7.09661 3.35575 7.04485 3.38282 6.99309 3.41069C6.96443 3.42582 6.93576 3.44095 6.90789 3.45608C6.84499 3.49032 6.78368 3.52695 6.72157 3.56358C6.70485 3.57313 6.68813 3.58269 6.67141 3.59304C6.59734 3.63763 6.52409 3.68461 6.45083 3.73239C6.44685 3.73478 6.44287 3.73796 6.43889 3.74035C6.42297 3.7507 6.40783 3.76185 6.39271 3.7722C6.33378 3.81201 6.27565 3.85183 6.21832 3.89324C6.19443 3.91075 6.17054 3.92827 6.14666 3.94499C6.09649 3.98242 6.04633 4.01984 5.99696 4.05806C5.97386 4.07559 5.95077 4.09389 5.92848 4.11142C5.86955 4.1584 5.81063 4.20617 5.7525 4.25474C5.74135 4.2643 5.7302 4.27306 5.71905 4.28182C5.71666 4.28341 5.71428 4.28579 5.71189 4.28739C5.69994 4.29774 5.68879 4.30889 5.67685 4.31925C5.60678 4.37976 5.53671 4.44187 5.46903 4.50557C5.44116 4.53105 5.41488 4.55733 5.38701 4.5836C5.33286 4.63536 5.27952 4.68791 5.22616 4.74127C5.21183 4.7556 5.1975 4.76913 5.18316 4.78346C5.16644 4.8002 5.15131 4.8185 5.13459 4.83522C5.09478 4.87743 5.05497 4.91963 5.01594 4.96263C4.98489 4.99687 4.95384 5.03111 4.92278 5.06534C4.88376 5.10914 4.84634 5.15374 4.80811 5.19754C4.789 5.21983 4.76989 5.24133 4.75159 5.26362C4.74044 5.27716 4.72928 5.29149 4.71813 5.30503C4.68549 5.34485 4.65364 5.38465 4.62258 5.42527C4.59232 5.46428 4.56127 5.50331 4.53101 5.54232C4.49996 5.58293 4.46971 5.62434 4.43944 5.66574C4.42033 5.69202 4.40042 5.7175 4.38131 5.74458C4.37096 5.75891 4.3622 5.77324 4.35185 5.78758C4.32398 5.82738 4.2969 5.868 4.26904 5.90782C4.24038 5.95001 4.2117 5.99221 4.18384 6.03521C4.15756 6.07582 4.13128 6.11723 4.1058 6.15863C4.08828 6.18571 4.07077 6.21278 4.05405 6.24065C4.04449 6.25658 4.03573 6.2733 4.02538 6.28923C3.9999 6.33142 3.97521 6.37363 3.95132 6.41664C3.92584 6.46043 3.90116 6.50423 3.87647 6.54881C3.85259 6.59182 3.8295 6.63561 3.8064 6.6786C3.79207 6.70567 3.77614 6.73275 3.76261 6.76062C3.75385 6.77734 3.74668 6.79407 3.73792 6.81079C3.71324 6.85935 3.69015 6.90793 3.66626 6.9565C3.64556 6.99951 3.62485 7.0425 3.60495 7.08629C3.58265 7.13566 3.56115 7.18504 3.53965 7.23441C3.52691 7.26386 3.51258 7.29333 3.50063 7.32359C3.49506 7.33633 3.49028 7.34987 3.48471 7.3634C3.45763 7.4279 3.43295 7.49319 3.40747 7.55928C3.39393 7.59432 3.3804 7.62856 3.36766 7.66359C3.3366 7.748 3.30794 7.83321 3.28007 7.9192C3.27529 7.93353 3.26971 7.94786 3.26494 7.963C3.26494 7.96459 3.26414 7.96697 3.26334 7.96857C3.26095 7.97494 3.25936 7.98211 3.25697 7.98847C3.23229 8.06651 3.20999 8.14454 3.1877 8.22258C3.18133 8.24567 3.17496 8.26798 3.16938 8.29106C3.14868 8.3683 3.12877 8.44634 3.11125 8.52437C3.10966 8.53233 3.10727 8.54029 3.10568 8.54826C3.08976 8.61674 3.07542 8.68522 3.06189 8.75449C3.0595 8.76723 3.0579 8.77917 3.05552 8.79192C3.04437 8.84925 3.03561 8.90658 3.02605 8.96471C3.01889 9.00692 3.01172 9.04991 3.00535 9.09212C2.99659 9.15263 2.99022 9.21315 2.98305 9.27366C2.97828 9.31348 2.9727 9.35329 2.96952 9.39311C2.96315 9.45999 2.95837 9.52768 2.95439 9.59536C2.952 9.6288 2.94881 9.66145 2.94722 9.69489C2.94404 9.79284 2.94165 9.89396 2.94165 9.9943V13.138C2.94165 14.2838 3.26653 15.2624 3.82392 15.9998C3.87966 16.0739 3.93779 16.1447 3.99751 16.214C4.08829 16.3176 4.18304 16.4155 4.28338 16.507C4.51668 16.7212 4.77627 16.9044 5.05736 17.0524L12.0447 20.7361C10.7611 20.0592 9.92976 18.6554 9.92897 16.8216V13.6779C9.92897 13.5775 9.93136 13.4764 9.93613 13.3761C9.93772 13.3426 9.94091 13.31 9.9433 13.2765C9.94808 13.2089 9.95205 13.142 9.95843 13.0743C9.96241 13.0345 9.96798 12.9947 9.97196 12.9548C9.97913 12.8943 9.98549 12.8338 9.99426 12.7733C10.0006 12.7311 10.0078 12.6881 10.015 12.6459C10.0245 12.5886 10.0341 12.5304 10.0444 12.4731C10.0596 12.3919 10.0763 12.3107 10.0946 12.2302C10.0962 12.2223 10.0986 12.2143 10.1002 12.2064C10.1185 12.1283 10.1376 12.0503 10.1583 11.973C10.1647 11.9507 10.1702 11.9277 10.1766 11.9053C10.1981 11.8273 10.2212 11.7485 10.2459 11.6713C10.2483 11.6649 10.2499 11.6577 10.2523 11.6513C10.257 11.6354 10.2634 11.6187 10.269 11.6028C10.2968 11.5176 10.3255 11.4316 10.3566 11.3472C10.3693 11.3121 10.3828 11.2779 10.3964 11.2429C10.4211 11.1776 10.4465 11.1123 10.4736 11.047C10.4911 11.004 10.5102 10.961 10.5286 10.9188C10.5501 10.8694 10.5716 10.82 10.5939 10.7707C10.6138 10.7269 10.6345 10.6839 10.6552 10.6409C10.6783 10.5923 10.7022 10.5437 10.7268 10.4952C10.7491 10.4506 10.7722 10.4068 10.7953 10.3622C10.8184 10.3184 10.8415 10.2754 10.8654 10.2324C10.8901 10.1878 10.9147 10.144 10.9402 10.1002C10.9649 10.058 10.9896 10.015 11.0143 9.9728C11.0406 9.929 11.0676 9.886 11.0947 9.84301C11.1202 9.80159 11.1465 9.76099 11.1728 9.71958C11.2006 9.67659 11.2293 9.63438 11.258 9.59218C11.285 9.55157 11.3121 9.51175 11.3408 9.47194C11.3694 9.43133 11.3989 9.39072 11.4284 9.35091C11.4586 9.30949 11.4889 9.26809 11.5199 9.22748C11.5502 9.18767 11.5804 9.14945 11.6115 9.11043C11.6433 9.07062 11.6752 9.03 11.707 8.9902C11.7365 8.95437 11.7668 8.91852 11.797 8.88269C11.8352 8.8381 11.8727 8.79352 11.9117 8.74972C11.942 8.71548 11.973 8.68124 12.0041 8.647C12.0431 8.60399 12.0829 8.5618 12.1227 8.5196C12.153 8.48774 12.1832 8.45669 12.2143 8.42563C12.2668 8.37229 12.321 8.31972 12.3751 8.26798C12.4022 8.24169 12.4293 8.21541 12.4571 8.18994C12.5256 8.12624 12.5949 8.06412 12.665 8.00361C12.6793 7.99167 12.6928 7.97813 12.7072 7.96618C12.7183 7.95663 12.7295 7.94787 12.7406 7.9391C12.7987 7.89054 12.8569 7.84276 12.9166 7.79578C12.9397 7.77746 12.9628 7.75995 12.9859 7.74242C13.0352 7.7042 13.0854 7.66598 13.1356 7.62936C13.1595 7.61184 13.1833 7.59432 13.2072 7.57681C13.2646 7.5354 13.3235 7.49479 13.3816 7.45578C13.3967 7.44542 13.4119 7.43427 13.4278 7.42471C13.5042 7.37376 13.5815 7.32518 13.6595 7.2774C13.6762 7.26785 13.693 7.25829 13.7089 7.24874C13.771 7.21212 13.8331 7.17548 13.896 7.14125C13.9239 7.12532 13.9525 7.11099 13.9812 7.09585C14.033 7.06799 14.0855 7.04091 14.1381 7.01463C14.1699 6.99871 14.201 6.98358 14.2328 6.96844C14.283 6.94457 14.334 6.92067 14.3849 6.89759C14.4176 6.88324 14.4502 6.86892 14.4829 6.85459C14.5346 6.83229 14.5864 6.81158 14.6389 6.79089C14.6708 6.77814 14.7026 6.7654 14.7345 6.75346C14.791 6.73196 14.8484 6.71205 14.9057 6.69294C14.9336 6.68338 14.9606 6.67383 14.9885 6.66427C15.0737 6.6364 15.1589 6.61093 15.2449 6.58703L15.733 6.45326C15.8079 6.43256 15.8819 6.41425 15.9552 6.39753C15.9806 6.39195 16.0053 6.38717 16.0301 6.3816C16.0786 6.37124 16.1272 6.3601 16.175 6.35134C16.2044 6.34577 16.2339 6.34178 16.2633 6.33701C16.3064 6.32984 16.3494 6.32187 16.3923 6.31551C16.4234 6.31073 16.4544 6.30834 16.4855 6.30436C16.5261 6.29958 16.5667 6.29401 16.6073 6.29002C16.6288 6.28764 16.6496 6.28684 16.6711 6.28525C16.7188 6.28126 16.7666 6.27729 16.8135 6.2749C16.8398 6.2733 16.8661 6.2733 16.8924 6.27171C16.9338 6.27012 16.9752 6.26852 17.0166 6.26773C17.0452 6.26773 17.0732 6.26773 17.101 6.26773C17.14 6.26773 17.1791 6.26772 17.2172 6.27012C17.2459 6.27091 17.2746 6.27251 17.3033 6.2741C17.343 6.27648 17.3829 6.27887 17.4219 6.28206C17.4394 6.28365 17.4569 6.28525 17.4745 6.28684C17.5238 6.29162 17.5733 6.29719 17.6226 6.30356C17.6338 6.30515 17.6449 6.30595 17.6561 6.30754C17.7149 6.31551 17.7731 6.32506 17.8304 6.33541C17.8448 6.3378 17.8599 6.34099 17.8742 6.34417C17.9108 6.35134 17.9467 6.3593 17.9833 6.36727C18.0398 6.38 18.0964 6.39433 18.1521 6.40867C18.1704 6.41344 18.1887 6.41822 18.207 6.423C18.2795 6.4437 18.3512 6.466 18.422 6.49069C18.4396 6.49705 18.4562 6.50342 18.4738 6.5098C18.5239 6.5281 18.5741 6.54722 18.6235 6.56792C18.6466 6.57747 18.6697 6.58783 18.6927 6.59818C18.7365 6.61729 18.7796 6.6372 18.8218 6.6579C18.8592 6.67622 18.8958 6.69374 18.9324 6.71285L11.9451 3.02928Z" fill="white"/>
</svg>
