<svg width="32" height="32" viewBox="0 0 32 32" fill="none" xmlns="http://www.w3.org/2000/svg">
<g clip-path="url(#clip0_4573_12570)">
<path d="M23.775 29H29.904C30.1776 29 30.4484 28.9455 30.7007 28.8398C30.953 28.7341 31.1818 28.5793 31.3737 28.3843C31.5656 28.1893 31.7168 27.9581 31.8185 27.7042C31.9202 27.4502 31.9703 27.1785 31.966 26.905L31.878 21.383C31.8734 21.0911 31.8068 20.8034 31.6827 20.5392C31.5585 20.2749 31.3797 20.04 31.158 19.85L12.079 3.4965C11.7052 3.1762 11.2292 3.0001 10.737 3H5.0625C4.51549 3 3.99089 3.2173 3.60409 3.60409C3.2173 3.99089 3 4.51549 3 5.0625V10.564C3 11.159 3.257 11.7245 3.7045 12.116L22.417 28.49C22.793 28.8189 23.2755 29.0001 23.775 29Z" fill="#007DFE"/>
<path d="M24.5065 29H29.9375C30.4845 29 31.0091 28.7827 31.3959 28.3959C31.7827 28.0091 32 27.4845 32 26.9375V20.6545C32 20.5545 31.993 20.4545 31.978 20.3555L29.254 1.7635C29.1822 1.27356 28.9366 0.825807 28.562 0.502025C28.1873 0.178244 27.7087 5.08847e-05 27.2135 0L19.5145 0C19.2436 -7.96014e-09 18.9754 0.0533647 18.7251 0.157046C18.4749 0.260728 18.2475 0.412695 18.0559 0.604269C17.8644 0.795843 17.7125 1.02327 17.6089 1.27356C17.5053 1.52385 17.452 1.79211 17.452 2.063L17.4545 11.3155C17.4545 11.528 17.4875 11.7395 17.552 11.942L22.5415 27.565C22.6747 27.9816 22.9367 28.3451 23.2899 28.603C23.6431 28.861 24.0692 29 24.5065 29Z" fill="url(#paint0_linear_4573_12570)"/>
<path d="M2.0625 32H19.126C19.5315 32 19.928 31.8805 20.2659 31.6564C20.6038 31.4323 20.8682 31.1135 21.026 30.74L28.925 12.0285C29.0345 11.7695 29.09 11.4905 29.087 11.2095L29.012 2.045C29.0075 1.50107 28.7883 0.980954 28.4021 0.597923C28.0159 0.214892 27.4939 -1.84852e-05 26.95 1.19253e-09H18.117C17.7144 0.000125624 17.3205 0.117959 16.984 0.339L0.93 10.8935C0.644296 11.0812 0.409727 11.337 0.247391 11.6378C0.0850555 11.9387 4.31658e-05 12.2752 0 12.617L0 29.9375C0 30.4845 0.217298 31.0091 0.604092 31.3959C0.990886 31.7827 1.51549 32 2.0625 32Z" fill="url(#paint1_linear_4573_12570)"/>
<path d="M26 6H6V26H26V6Z" fill="black"/>
<path d="M16.5 22.0001H8.49997V23.5001H16.5V22.0001ZM8.49597 8.49609H11.717C12.242 8.49609 12.705 8.59259 13.105 8.78559C13.505 8.97859 13.8135 9.25009 14.03 9.60059C14.246 9.95059 14.354 10.3556 14.354 10.8166C14.354 11.2776 14.244 11.6916 14.024 12.0466C13.8045 12.4026 13.4915 12.6776 13.0865 12.8721C12.681 13.0671 12.21 13.1641 11.674 13.1641H9.95897V15.9991H8.49597V8.49609ZM12.266 11.8111C12.4505 11.7196 12.5925 11.5891 12.6925 11.4196C12.7925 11.2496 12.8425 11.0526 12.8425 10.8276C12.8425 10.6026 12.7925 10.4016 12.6925 10.2351C12.5925 10.0691 12.45 9.94009 12.2665 9.84909C12.0825 9.75809 11.867 9.71259 11.6205 9.71259H9.95897V11.9476H11.6205C11.867 11.9476 12.0825 11.9026 12.2665 11.8111H12.266ZM10.951 12.6926H12.548L14.515 16.0001H12.8375L10.951 12.6926ZM15.8065 8.49609H18.663C19.374 8.49609 20.011 8.65659 20.574 8.97859C21.1297 9.29309 21.5869 9.75603 21.8945 10.3156C22.2125 10.8856 22.3715 11.5291 22.3715 12.2476C22.3715 12.9661 22.2125 13.6101 21.895 14.1801C21.5871 14.7396 21.1297 15.2025 20.574 15.5171C20.0115 15.8386 19.374 15.9991 18.663 15.9991H15.8065V8.49609ZM19.8205 14.4341C20.1565 14.2341 20.4155 13.9476 20.598 13.5741C20.78 13.2006 20.8715 12.7591 20.8715 12.2476C20.8715 11.7361 20.78 11.2941 20.598 10.9211C20.4155 10.5476 20.1565 10.2611 19.8205 10.0606C19.4845 9.86059 19.0935 9.76059 18.647 9.76059H17.2695V14.7341H18.647C19.0935 14.7341 19.4845 14.6341 19.8205 14.4341Z" fill="white"/>
</g>
<defs>
<linearGradient id="paint0_linear_4573_12570" x1="32.1955" y1="28.1645" x2="19.8035" y2="1.437" gradientUnits="userSpaceOnUse">
<stop offset="0.21" stop-color="#007DFE"/>
<stop offset="0.55" stop-color="#FFB700"/>
</linearGradient>
<linearGradient id="paint1_linear_4573_12570" x1="29.838" y1="2.0335" x2="0.539999" y2="31.3315" gradientUnits="userSpaceOnUse">
<stop offset="0.23" stop-color="#FFB700"/>
<stop offset="0.73" stop-color="#FF0A67"/>
</linearGradient>
<clipPath id="clip0_4573_12570">
<rect width="32" height="32" fill="white"/>
</clipPath>
</defs>
</svg>
