<svg width="32" height="32" viewBox="0 0 32 32" fill="none" xmlns="http://www.w3.org/2000/svg">
<g clip-path="url(#clip0_4568_12034)">
<path d="M29.9375 1.67961e-10H12.874C12.4685 -5.17355e-06 12.0721 0.119515 11.7341 0.343618C11.3962 0.567721 11.1318 0.886464 10.974 1.26L3.07554 19.971C2.96594 20.2302 2.91063 20.5091 2.91304 20.7905L2.98804 29.9545C2.99252 30.4986 3.2118 31.0188 3.59811 31.4019C3.98442 31.7851 4.50646 32 5.05054 32H13.8835C14.2862 32.0002 14.6801 31.8823 15.0165 31.661L31.071 21.107C31.3567 20.9192 31.5912 20.6633 31.7533 20.3624C31.9155 20.0614 32.0003 19.7249 32 19.383V2.0625C32 1.51549 31.7827 0.990886 31.3959 0.604092C31.0092 0.217298 30.4845 1.67962e-10 29.9375 1.67961e-10Z" fill="url(#paint0_linear_4568_12034)"/>
<path d="M7.4935 3H2.063C1.79211 2.99993 1.52385 3.05323 1.27356 3.15685C1.02327 3.26048 0.795843 3.41239 0.604269 3.60392C0.412695 3.79544 0.260728 4.02283 0.157046 4.2731C0.0533647 4.52337 -7.96014e-09 4.79161 0 5.0625L0 11.3455C0 11.4455 0.007 11.5455 0.022 11.6445L2.746 30.2365C2.81777 30.7263 3.06335 31.174 3.43788 31.4978C3.81242 31.8216 4.29092 31.9998 4.786 32H12.485C12.7559 32 13.0241 31.9466 13.2744 31.843C13.5247 31.7393 13.7521 31.5873 13.9436 31.3957C14.1351 31.2042 14.287 30.9767 14.3906 30.7264C14.4943 30.4761 14.5476 30.2079 14.5475 29.937L14.5455 20.685C14.5455 20.472 14.512 20.26 14.4475 20.058L9.458 4.435C9.32489 4.01848 9.06288 3.65504 8.70978 3.39711C8.35669 3.13919 7.93077 3.00013 7.4935 3Z" fill="url(#paint1_linear_4568_12034)"/>
<path d="M8.225 3H2.095C1.82143 3.00003 1.55061 3.05449 1.29829 3.16019C1.04597 3.2659 0.817204 3.42075 0.625305 3.61572C0.433406 3.81069 0.282212 4.04188 0.180525 4.29585C0.0788374 4.54981 0.0286893 4.82147 0.033 5.095L0 10.5C0.0095 11.0905 0.393 11.7655 0.8415 12.15L19.9205 28.503C20.2945 28.8235 20.7705 28.9995 21.2625 28.9995H26.9375C27.4845 28.9995 28.0091 28.7822 28.3959 28.3954C28.7827 28.0086 29 27.484 29 26.937V21.4355C29 20.841 28.743 20.2755 28.295 19.8835L9.5835 3.5105C9.20751 3.1813 8.72474 2.99988 8.225 3Z" fill="#FF8100"/>
<path d="M26 6H6V26H26V6Z" fill="black"/>
<path d="M16.5 22.0001H8.5V23.5001H16.5V22.0001ZM8.506 8.49609H11.727C12.252 8.49609 12.7145 8.59259 13.115 8.78559C13.515 8.97859 13.823 9.25009 14.0395 9.60059C14.2555 9.95059 14.3635 10.3556 14.3635 10.8166C14.3635 11.2776 14.2535 11.6916 14.0335 12.0466C13.8145 12.4026 13.5015 12.6776 13.096 12.8721C12.6905 13.0671 12.22 13.1641 11.684 13.1641H9.969V15.9991H8.506V8.49609ZM12.276 11.8111C12.46 11.7196 12.602 11.5891 12.702 11.4196C12.802 11.2496 12.852 11.0526 12.852 10.8276C12.852 10.6026 12.802 10.4016 12.702 10.2351C12.602 10.0691 12.46 9.94009 12.276 9.84909C12.092 9.75809 11.877 9.71259 11.63 9.71259H9.9685V11.9476H11.63C11.877 11.9476 12.092 11.9026 12.276 11.8111ZM10.9605 12.6926H12.5575L14.525 16.0001H12.8475L10.961 12.6931L10.9605 12.6926ZM15.8165 8.49609H17.853L19.3965 13.4211L19.525 14.0646L19.6375 13.4216L21.1275 8.49659H23.1965V15.9991H21.7495V10.6451L21.771 10.2541L20.024 15.9991H18.9625L17.237 10.2916L17.2585 10.6451V15.9991H15.817V8.49609H15.8165Z" fill="white"/>
</g>
<defs>
<linearGradient id="paint0_linear_4568_12034" x1="2.16254" y1="29.966" x2="31.4605" y2="0.668499" gradientUnits="userSpaceOnUse">
<stop offset="0.29" stop-color="#FF2358"/>
<stop offset="0.75" stop-color="#7256FF"/>
</linearGradient>
<linearGradient id="paint1_linear_4568_12034" x1="-0.1955" y1="3.8355" x2="12.1965" y2="30.5625" gradientUnits="userSpaceOnUse">
<stop offset="0.29" stop-color="#FF8100"/>
<stop offset="0.56" stop-color="#FF2358"/>
</linearGradient>
<clipPath id="clip0_4568_12034">
<rect width="32" height="32" fill="white"/>
</clipPath>
</defs>
</svg>
