<svg width="10" height="10" viewBox="0 0 16 16" fill="none" xmlns="http://www.w3.org/2000/svg">
<path d="M11.5096 1.81832L13.9373 3.00598C14.305 3.19371 14.356 3.32899 14.356 3.52341L14.3667 12.4643C14.3667 12.7028 14.2377 12.7967 13.8824 12.9969L11.5186 14.1817C11.42 14.2276 11.3412 14.2835 10.7507 14.2835C10.7507 14.2835 11.2618 14.2878 11.2618 13.8794V2.17207C11.2647 2.05545 11.2216 1.94237 11.1419 1.85724C11.0621 1.77211 10.9521 1.72175 10.8355 1.71704C11.3591 1.71704 11.5096 1.81832 11.5096 1.81832Z" fill="#4B9AE9"/>
<path d="M1.87568 9.7842C1.79092 9.87883 1.74405 10.0014 1.74405 10.1285C1.74405 10.2555 1.79092 10.3781 1.87568 10.4727C1.87568 10.4727 2.49583 11.0489 2.67867 11.2142C2.86151 11.3795 3.13261 11.3046 3.30822 11.1722C3.48383 11.0399 11.2611 5.10298 11.2611 5.10298V2.17207C11.2644 2.05533 11.2215 1.94202 11.1416 1.85679C11.0618 1.77156 10.9515 1.72133 10.8348 1.71704C10.7527 1.71953 10.6746 1.75353 10.6169 1.81199L1.87568 9.7842Z" fill="#2A63A4"/>
<path d="M2.68065 4.81628C2.75716 4.74125 2.86005 4.69922 2.96721 4.69922C3.07437 4.69922 3.17726 4.74125 3.25377 4.81628L11.262 10.885V13.8796C11.262 14.2903 10.7502 14.2829 10.7502 14.2829C10.681 14.2721 10.6178 14.2375 10.5715 14.185L1.81526 6.16437C1.74139 6.09047 1.69989 5.99025 1.69989 5.88576C1.69989 5.78127 1.74139 5.68106 1.81526 5.60716L2.68065 4.81628Z" fill="#3478C6"/>
</svg>
