<svg width="11" height="11" viewBox="0 0 15 15" fill="none" xmlns="http://www.w3.org/2000/svg">
<mask id="mask0_2992_1341" style="mask-type:alpha" maskUnits="userSpaceOnUse" x="0" y="0" width="14" height="14">
<path d="M9.41077 13.0691C9.52637 13.1848 9.67506 13.2616 9.83626 13.289C9.99745 13.3165 10.1632 13.2931 10.3105 13.2223L12.9184 11.9682C13.0527 11.9036 13.166 11.8024 13.2453 11.6763C13.3246 11.5501 13.3667 11.4042 13.3667 11.2552V2.75167C13.3667 2.60268 13.3246 2.45671 13.2453 2.33057C13.166 2.20443 13.0527 2.10325 12.9184 2.03868L10.3105 0.784481C10.1632 0.71362 9.99746 0.690294 9.83626 0.717728C9.67507 0.745162 9.52639 0.822001 9.41077 0.937619C9.70274 0.645643 10.2019 0.852416 10.2019 1.26532V12.7414C10.2019 13.1543 9.70274 13.361 9.41077 13.0691V13.0691Z" fill="white"/>
<path d="M9.67455 9.60451L6.35702 7.03095L9.67455 4.40252V1.54673C9.67455 1.20305 9.2663 1.02289 9.01237 1.25441L4.39374 5.50793L2.24382 3.84009C2.14571 3.76565 2.02465 3.72788 1.90161 3.73334C1.77858 3.7388 1.66134 3.78714 1.57021 3.86997L0.87275 4.50405C0.64277 4.71315 0.642473 5.07464 0.872106 5.28414L9.01158 12.7484C9.26526 12.981 9.67455 12.801 9.67455 12.4568V9.60451ZM2.51566 7.30615L0.872106 8.72289C0.642523 8.93239 0.64277 9.29398 0.87275 9.50298L1.57016 10.1371C1.66129 10.2199 1.77853 10.2682 1.90156 10.2737C2.0246 10.2791 2.14566 10.2414 2.24377 10.1669L4.13625 8.7837L2.51566 7.30615Z" fill="white"/>
</mask>
<g mask="url(#mask0_2992_1341)">
<path d="M9.01235 1.25395C9.26628 1.02239 9.67453 1.20254 9.67453 1.54627V4.40201L5.89229 7.39857L3.9446 5.92102L9.01235 1.25395ZM2.51564 7.30565L0.872088 8.72238C0.642504 8.93193 0.642752 9.29352 0.872731 9.50252L1.57014 10.1366C1.66127 10.2194 1.77851 10.2678 1.90155 10.2732C2.02458 10.2787 2.14564 10.2409 2.24375 10.1665L4.13623 8.7832L2.51564 7.30565Z" fill="#009A7C"/>
<g filter="url(#filter0_d_2992_1341)">
<path d="M9.67455 9.60462L2.24377 3.8402C2.14567 3.76575 2.02461 3.72798 1.90157 3.73343C1.77854 3.73888 1.66129 3.78721 1.57016 3.87004L0.87275 4.50421C0.64277 4.71331 0.642473 5.07481 0.872106 5.2843L9.01118 12.7481C9.26501 12.9809 9.67455 12.8008 9.67455 12.4564V9.60462Z" fill="#00B294"/>
</g>
<g filter="url(#filter1_d_2992_1341)">
<path d="M10.3105 13.2223C10.1632 13.2931 9.99746 13.3164 9.83627 13.289C9.67508 13.2616 9.52639 13.1847 9.41077 13.0691C9.70274 13.361 10.202 13.1543 10.202 12.7414V1.26532C10.202 0.852416 9.70274 0.645643 9.41077 0.93762C9.52639 0.822001 9.67507 0.745162 9.83626 0.717728C9.99745 0.690294 10.1632 0.71362 10.3105 0.784482L12.9184 2.03863C13.0527 2.1032 13.166 2.20437 13.2453 2.33051C13.3246 2.45665 13.3667 2.60262 13.3667 2.75162V11.2551C13.3667 11.4041 13.3246 11.5501 13.2453 11.6763C13.166 11.8024 13.0527 11.9036 12.9184 11.9682L10.3105 13.2223Z" fill="#24BFA5"/>
</g>
</g>
<defs>
<filter id="filter0_d_2992_1341" x="-23.3007" y="-20.2678" width="56.976" height="57.1216" filterUnits="userSpaceOnUse" color-interpolation-filters="sRGB">
<feFlood flood-opacity="0" result="BackgroundImageFix"/>
<feColorMatrix in="SourceAlpha" type="matrix" values="0 0 0 0 0 0 0 0 0 0 0 0 0 0 0 0 0 0 127 0" result="hardAlpha"/>
<feOffset/>
<feGaussianBlur stdDeviation="12.0004"/>
<feColorMatrix type="matrix" values="0 0 0 0 0 0 0 0 0 0 0 0 0 0 0 0 0 0 0.15 0"/>
<feBlend mode="normal" in2="BackgroundImageFix" result="effect1_dropShadow_2992_1341"/>
<feBlend mode="normal" in="SourceGraphic" in2="effect1_dropShadow_2992_1341" result="shape"/>
</filter>
<filter id="filter1_d_2992_1341" x="-14.59" y="-23.2942" width="51.9574" height="60.5952" filterUnits="userSpaceOnUse" color-interpolation-filters="sRGB">
<feFlood flood-opacity="0" result="BackgroundImageFix"/>
<feColorMatrix in="SourceAlpha" type="matrix" values="0 0 0 0 0 0 0 0 0 0 0 0 0 0 0 0 0 0 127 0" result="hardAlpha"/>
<feOffset/>
<feGaussianBlur stdDeviation="12.0004"/>
<feColorMatrix type="matrix" values="0 0 0 0 0 0 0 0 0 0 0 0 0 0 0 0 0 0 0.25 0"/>
<feBlend mode="overlay" in2="BackgroundImageFix" result="effect1_dropShadow_2992_1341"/>
<feBlend mode="normal" in="SourceGraphic" in2="effect1_dropShadow_2992_1341" result="shape"/>
</filter>
</defs>
</svg>
