<svg  viewBox="0 0 1524 1524" fill="none" xmlns="http://www.w3.org/2000/svg">
<path fill-rule="evenodd" clip-rule="evenodd" d="M346 314C328.327 314 314 328.327 314 346V1050H250V346C250 292.981 292.981 250 346 250H1203.37C1246.14 250 1267.55 301.703 1237.31 331.941L709.255 860H858V794H922V876C922 902.51 900.51 924 874 924H645.255L535.255 1034H1034V634H1098V1034C1098 1069.35 1069.35 1098 1034 1098H471.255L359.255 1210H1178C1195.67 1210 1210 1195.67 1210 1178V474H1274V1178C1274 1231.02 1231.02 1274 1178 1274H320.627C277.864 1274 256.448 1222.3 286.686 1192.06L812.745 666H666V730H602V650C602 623.49 623.49 602 650 602H876.745L988.745 490H490V890H426V490C426 454.654 454.654 426 490 426H1052.75L1164.75 314H346Z" fill="#084CCF"/>
</svg>
