<svg width="16" height="16" viewBox="0 0 16 16" fill="none" xmlns="http://www.w3.org/2000/svg">
<path d="M9.3335 5.33325H2.66683C1.9315 5.33325 1.3335 5.93125 1.3335 6.66659V13.3333C1.3335 14.0686 1.9315 14.6666 2.66683 14.6666H9.3335C10.0688 14.6666 10.6668 14.0686 10.6668 13.3333V6.66659C10.6668 5.93125 10.0688 5.33325 9.3335 5.33325Z" fill="#23A8F2"/>
<path d="M13.3335 1.33325H6.66683C6.31321 1.33325 5.97407 1.47373 5.72402 1.72378C5.47397 1.97382 5.3335 2.31296 5.3335 2.66659V3.99992H10.6668C11.0205 3.99992 11.3596 4.14039 11.6096 4.39044C11.8597 4.64049 12.0002 4.97963 12.0002 5.33325V10.6666H13.3335C13.6871 10.6666 14.0263 10.5261 14.2763 10.2761C14.5264 10.026 14.6668 9.68687 14.6668 9.33325V2.66659C14.6668 2.31296 14.5264 1.97382 14.2763 1.72378C14.0263 1.47373 13.6871 1.33325 13.3335 1.33325Z" fill="#23A8F2"/>
</svg>
