<svg width="24" height="24" viewBox="0 0 24 24" fill="none" xmlns="http://www.w3.org/2000/svg">
<path d="M18.9999 10.9999H7.82992L12.7099 6.11991C13.0999 5.72991 13.0999 5.08991 12.7099 4.69991C12.6174 4.60721 12.5075 4.53366 12.3865 4.48348C12.2656 4.4333 12.1359 4.40747 12.0049 4.40747C11.874 4.40747 11.7443 4.4333 11.6233 4.48348C11.5023 4.53366 11.3924 4.60721 11.2999 4.69991L4.70992 11.2899C4.61722 11.3824 4.54367 11.4923 4.49349 11.6133C4.44331 11.7343 4.41748 11.8639 4.41748 11.9949C4.41748 12.1259 4.44331 12.2556 4.49349 12.3765C4.54367 12.4975 4.61722 12.6074 4.70992 12.6999L11.2999 19.2899C11.3925 19.3825 11.5024 19.4559 11.6234 19.506C11.7443 19.5561 11.874 19.5819 12.0049 19.5819C12.1359 19.5819 12.2655 19.5561 12.3865 19.506C12.5074 19.4559 12.6173 19.3825 12.7099 19.2899C12.8025 19.1973 12.8759 19.0874 12.9261 18.9665C12.9762 18.8455 13.0019 18.7158 13.0019 18.5849C13.0019 18.454 12.9762 18.3243 12.9261 18.2034C12.8759 18.0824 12.8025 17.9725 12.7099 17.8799L7.82992 12.9999H18.9999C19.5499 12.9999 19.9999 12.5499 19.9999 11.9999C19.9999 11.4499 19.5499 10.9999 18.9999 10.9999Z" fill="#23A8F2"/>
</svg>
