<svg width="281" height="245" viewBox="0 0 281 245" fill="none" xmlns="http://www.w3.org/2000/svg">
<path d="M140.701 229.402C204.049 229.402 255.402 178.049 255.402 114.701C255.402 51.3534 204.049 0 140.701 0C77.3534 0 26 51.3534 26 114.701C26 178.049 77.3534 229.402 140.701 229.402Z" fill="url(#paint0_linear_899_3699)"/>
<g filter="url(#filter0_f_899_3699)">
<ellipse cx="140.5" cy="184" rx="118.5" ry="12" fill="#A6CBF7"/>
</g>
<path d="M116.028 113.666C123.802 113.666 130.105 107.364 130.105 99.5889C130.105 91.8142 123.802 85.5115 116.028 85.5115C108.253 85.5115 101.95 91.8142 101.95 99.5889C101.95 107.364 108.253 113.666 116.028 113.666Z" fill="url(#paint1_linear_899_3699)"/>
<path d="M172.257 135.911H149.744C148.64 135.911 147.744 136.807 147.744 137.911V141.643C147.744 142.748 148.64 143.643 149.744 143.643H172.257C173.362 143.643 174.257 142.748 174.257 141.643V137.911C174.257 136.807 173.362 135.911 172.257 135.911Z" fill="url(#paint2_linear_899_3699)"/>
<path d="M158.053 210.461C157.535 208.317 154.485 208.317 153.968 210.461L152.226 217.677C152.041 218.443 151.443 219.041 150.676 219.226L143.46 220.968C141.316 221.486 141.316 224.535 143.46 225.053L150.676 226.795C151.443 226.98 152.041 227.578 152.226 228.344L153.968 235.56C154.485 237.704 157.535 237.704 158.053 235.56L159.794 228.344C159.979 227.578 160.578 226.98 161.344 226.795L168.56 225.053C170.704 224.535 170.704 221.486 168.56 220.968L161.344 219.226C160.578 219.041 159.979 218.443 159.794 217.677L158.053 210.461Z" fill="url(#paint3_linear_899_3699)"/>
<path d="M62.0525 27.4607C61.5349 25.3167 58.4853 25.3167 57.9678 27.4607L56.2258 34.6767C56.0409 35.4429 55.4427 36.0411 54.6765 36.2261L47.4605 37.968C45.3165 38.4856 45.3165 41.5352 47.4605 42.0528L54.6765 43.7947C55.4427 43.9796 56.0409 44.5778 56.2258 45.344L57.9678 52.56C58.4853 54.7041 61.5349 54.7041 62.0525 52.56L63.7944 45.344C63.9794 44.5778 64.5776 43.9796 65.3438 43.7947L72.5598 42.0528C74.7038 41.5352 74.7038 38.4856 72.5598 37.968L65.3438 36.2261C64.5776 36.0411 63.9794 35.4429 63.7944 34.6767L62.0525 27.4607Z" fill="url(#paint4_linear_899_3699)"/>
<circle r="4.81488" transform="matrix(-1 0 0 1 119.128 13.128)" stroke="url(#paint5_linear_899_3699)" stroke-width="2.6263"/>
<path d="M267.89 67.4916C268.979 66.6974 268.799 65.0222 267.567 64.4762L259.249 60.7908C258.017 60.2448 256.656 61.2375 256.799 62.5777L257.766 71.6239C257.91 72.964 259.45 73.6465 260.539 72.8524L267.89 67.4916Z" fill="url(#paint6_linear_899_3699)"/>
<path d="M215.046 182.018C213.74 181.687 212.564 182.894 212.931 184.191L215.403 192.947C215.77 194.244 217.403 194.658 218.343 193.692L224.689 187.173C225.629 186.207 225.171 184.586 223.865 184.255L215.046 182.018Z" fill="url(#paint7_linear_899_3699)"/>
<circle r="4.81488" transform="matrix(-1 0 0 1 84.1278 202.128)" stroke="url(#paint8_linear_899_3699)" stroke-width="2.6263"/>
<rect x="84.5" y="56.5" width="142" height="90" rx="7.5" fill="url(#paint9_linear_899_3699)" fill-opacity="0.8" stroke="url(#paint10_linear_899_3699)"/>
<g filter="url(#filter1_b_899_3699)">
<rect x="69" y="73" width="143" height="91" rx="8" fill="url(#paint11_linear_899_3699)" fill-opacity="0.6"/>
<rect x="69.5" y="73.5" width="142" height="90" rx="7.5" stroke="url(#paint12_linear_899_3699)"/>
</g>
<g filter="url(#filter2_b_899_3699)">
<rect x="52" y="89" width="143" height="91" rx="8" fill="url(#paint13_linear_899_3699)" fill-opacity="0.6"/>
<rect x="52.5" y="89.5" width="142" height="90" rx="7.5" stroke="url(#paint14_linear_899_3699)"/>
</g>
<path d="M253.586 92.9435C253.638 92.8498 253.669 92.7461 253.679 92.6392C253.688 92.5324 253.674 92.4249 253.638 92.3237C253.603 92.2225 253.547 92.13 253.473 92.0522C253.399 91.9744 253.31 91.9131 253.211 91.8723C250.317 90.7186 240.081 87.2942 234.486 94.1979C230.743 98.7353 225.453 101.726 219.635 102.594C219.489 102.614 219.352 102.677 219.242 102.776C219.132 102.875 219.055 103.005 219.02 103.148C218.986 103.292 218.995 103.442 219.048 103.58C219.1 103.718 219.193 103.837 219.315 103.922C224.259 107.428 240.593 116.365 253.586 92.9435Z" fill="url(#paint15_linear_899_3699)"/>
<path d="M13.1022 149.26C13.0457 149.155 13.0118 149.04 13.0026 148.921C12.9933 148.803 13.0091 148.683 13.0488 148.571C13.0885 148.459 13.1512 148.356 13.2329 148.27C13.3147 148.184 13.4136 148.115 13.5234 148.069C16.728 146.797 28.0724 143.006 34.2711 150.642C38.4233 155.677 44.296 158.992 50.7521 159.945C50.9135 159.969 51.0641 160.04 51.1843 160.151C51.3045 160.261 51.3888 160.405 51.4263 160.564C51.4638 160.723 51.4527 160.889 51.3945 161.042C51.3364 161.194 51.2337 161.326 51.1 161.419C45.5972 165.301 27.4956 175.208 13.1022 149.26Z" fill="url(#paint16_linear_899_3699)"/>
<path d="M78 99H66C64.8954 99 64 99.8954 64 101V111C64 112.105 64.8954 113 66 113H78C79.1046 113 80 112.105 80 111V101C80 99.8954 79.1046 99 78 99Z" fill="url(#paint17_linear_899_3699)" fill-opacity="0.8"/>
<path d="M180 120H68C65.7909 120 64 121.791 64 124V130C64 132.209 65.7909 134 68 134H180C182.209 134 184 132.209 184 130V124C184 121.791 182.209 120 180 120Z" fill="url(#paint18_linear_899_3699)" fill-opacity="0.8"/>
<path d="M180 138H68C65.7909 138 64 139.791 64 142V148C64 150.209 65.7909 152 68 152H180C182.209 152 184 150.209 184 148V142C184 139.791 182.209 138 180 138Z" fill="url(#paint19_linear_899_3699)" fill-opacity="0.8"/>
<path d="M180 156H68C65.7909 156 64 157.791 64 160V166C64 168.209 65.7909 170 68 170H180C182.209 170 184 168.209 184 166V160C184 157.791 182.209 156 180 156Z" fill="url(#paint20_linear_899_3699)" fill-opacity="0.8"/>
<path fill-rule="evenodd" clip-rule="evenodd" d="M177.639 123.413C178.354 120.553 177.227 117.807 175.122 117.281C173.017 116.756 170.731 118.649 170.017 121.509C169.997 121.59 169.978 121.671 169.961 121.752C169.132 121.232 167.835 121.286 166.688 121.975C165.212 122.861 164.544 124.461 165.198 125.549C165.851 126.637 167.577 126.801 169.053 125.915C169.457 125.672 169.801 125.376 170.073 125.051C170.489 126.362 171.359 127.348 172.534 127.641C173.569 127.9 174.647 127.574 175.561 126.836C175.653 127.105 175.776 127.374 175.933 127.635C176.819 129.111 178.419 129.778 179.508 129.125C180.596 128.472 180.759 126.746 179.873 125.269C179.303 124.319 178.436 123.704 177.601 123.561C177.614 123.512 177.627 123.463 177.639 123.413Z" fill="url(#paint21_linear_899_3699)"/>
<path d="M170.042 131.761C164.149 151.614 132.435 148.492 124.9 146.326" stroke="#E2E3FF" stroke-linecap="round" stroke-linejoin="round" stroke-dasharray="4 4"/>
<g filter="url(#filter3_bd_899_3699)">
<path d="M194 99H174C170.134 99 167 102.134 167 106C167 109.866 170.134 113 174 113H194C197.866 113 201 109.866 201 106C201 102.134 197.866 99 194 99Z" fill="url(#paint22_linear_899_3699)" fill-opacity="0.8" shape-rendering="crispEdges"/>
</g>
<defs>
<filter id="filter0_f_899_3699" x="0.114187" y="150.114" width="280.772" height="67.7716" filterUnits="userSpaceOnUse" color-interpolation-filters="sRGB">
<feFlood flood-opacity="0" result="BackgroundImageFix"/>
<feBlend mode="normal" in="SourceGraphic" in2="BackgroundImageFix" result="shape"/>
<feGaussianBlur stdDeviation="10.9429" result="effect1_foregroundBlur_899_3699"/>
</filter>
<filter id="filter1_b_899_3699" x="54" y="58" width="173" height="121" filterUnits="userSpaceOnUse" color-interpolation-filters="sRGB">
<feFlood flood-opacity="0" result="BackgroundImageFix"/>
<feGaussianBlur in="BackgroundImageFix" stdDeviation="7.5"/>
<feComposite in2="SourceAlpha" operator="in" result="effect1_backgroundBlur_899_3699"/>
<feBlend mode="normal" in="SourceGraphic" in2="effect1_backgroundBlur_899_3699" result="shape"/>
</filter>
<filter id="filter2_b_899_3699" x="31" y="68" width="185" height="133" filterUnits="userSpaceOnUse" color-interpolation-filters="sRGB">
<feFlood flood-opacity="0" result="BackgroundImageFix"/>
<feGaussianBlur in="BackgroundImageFix" stdDeviation="10.5"/>
<feComposite in2="SourceAlpha" operator="in" result="effect1_backgroundBlur_899_3699"/>
<feBlend mode="normal" in="SourceGraphic" in2="effect1_backgroundBlur_899_3699" result="shape"/>
</filter>
<filter id="filter3_bd_899_3699" x="162" y="94" width="44" height="27" filterUnits="userSpaceOnUse" color-interpolation-filters="sRGB">
<feFlood flood-opacity="0" result="BackgroundImageFix"/>
<feGaussianBlur in="BackgroundImageFix" stdDeviation="2.5"/>
<feComposite in2="SourceAlpha" operator="in" result="effect1_backgroundBlur_899_3699"/>
<feColorMatrix in="SourceAlpha" type="matrix" values="0 0 0 0 0 0 0 0 0 0 0 0 0 0 0 0 0 0 127 0" result="hardAlpha"/>
<feOffset dy="4"/>
<feGaussianBlur stdDeviation="2"/>
<feComposite in2="hardAlpha" operator="out"/>
<feColorMatrix type="matrix" values="0 0 0 0 0.271181 0 0 0 0 0.568104 0 0 0 0 0.916667 0 0 0 0.8 0"/>
<feBlend mode="normal" in2="effect1_backgroundBlur_899_3699" result="effect2_dropShadow_899_3699"/>
<feBlend mode="normal" in="SourceGraphic" in2="effect2_dropShadow_899_3699" result="shape"/>
</filter>
<linearGradient id="paint0_linear_899_3699" x1="141" y1="0" x2="141" y2="229" gradientUnits="userSpaceOnUse">
<stop stop-color="white" stop-opacity="0.5"/>
<stop offset="1" stop-color="#9DCAFF"/>
</linearGradient>
<linearGradient id="paint1_linear_899_3699" x1="89.0001" y1="96.0001" x2="149.71" y2="132.977" gradientUnits="userSpaceOnUse">
<stop stop-color="#5149F2"/>
<stop offset="1" stop-color="#F7F7FF"/>
</linearGradient>
<linearGradient id="paint2_linear_899_3699" x1="161.001" y1="135.911" x2="161.001" y2="143.643" gradientUnits="userSpaceOnUse">
<stop stop-color="#5149F3"/>
<stop offset="1" stop-color="#8B85FF"/>
</linearGradient>
<linearGradient id="paint3_linear_899_3699" x1="141.17" y1="231.252" x2="167.525" y2="181.018" gradientUnits="userSpaceOnUse">
<stop stop-color="#B5AAF8"/>
<stop offset="1" stop-color="#F7F7FF"/>
</linearGradient>
<linearGradient id="paint4_linear_899_3699" x1="45.17" y1="48.2516" x2="71.5247" y2="-1.98228" gradientUnits="userSpaceOnUse">
<stop stop-color="#498DF2"/>
<stop offset="1" stop-color="#FFF7FE"/>
</linearGradient>
<linearGradient id="paint5_linear_899_3699" x1="10.4564" y1="8.53171" x2="2.76961" y2="-6.11983" gradientUnits="userSpaceOnUse">
<stop stop-color="#B4A4F5"/>
<stop offset="1" stop-color="#F7F7FF"/>
</linearGradient>
<linearGradient id="paint6_linear_899_3699" x1="257.563" y1="60.8521" x2="279.543" y2="69.5458" gradientUnits="userSpaceOnUse">
<stop stop-color="#BF9DF8"/>
<stop offset="1" stop-color="#F7F7FF"/>
</linearGradient>
<linearGradient id="paint7_linear_899_3699" x1="216.527" y1="194.205" x2="209.189" y2="171.737" gradientUnits="userSpaceOnUse">
<stop stop-color="#4982F2"/>
<stop offset="1" stop-color="#F7F7FF"/>
</linearGradient>
<linearGradient id="paint8_linear_899_3699" x1="10.4564" y1="8.53171" x2="2.76961" y2="-6.11983" gradientUnits="userSpaceOnUse">
<stop stop-color="#4978F2"/>
<stop offset="1" stop-color="#F7F7FF"/>
</linearGradient>
<linearGradient id="paint9_linear_899_3699" x1="227" y1="147" x2="84" y2="56" gradientUnits="userSpaceOnUse">
<stop stop-color="#2B6FF4"/>
<stop offset="1" stop-color="#DFF0FF"/>
</linearGradient>
<linearGradient id="paint10_linear_899_3699" x1="84" y1="57.5" x2="224" y2="144.5" gradientUnits="userSpaceOnUse">
<stop stop-color="#E5F2FE"/>
<stop offset="1" stop-color="white" stop-opacity="0"/>
</linearGradient>
<linearGradient id="paint11_linear_899_3699" x1="212" y1="164" x2="69" y2="73" gradientUnits="userSpaceOnUse">
<stop stop-color="#319BFC"/>
<stop offset="1" stop-color="#DDE7FF"/>
</linearGradient>
<linearGradient id="paint12_linear_899_3699" x1="72.5" y1="73" x2="212" y2="164" gradientUnits="userSpaceOnUse">
<stop stop-color="#E5F2FE"/>
<stop offset="1" stop-color="white" stop-opacity="0"/>
</linearGradient>
<linearGradient id="paint13_linear_899_3699" x1="195" y1="180" x2="52" y2="89" gradientUnits="userSpaceOnUse">
<stop stop-color="#31B3FC"/>
<stop offset="1" stop-color="#D9E3FF"/>
</linearGradient>
<linearGradient id="paint14_linear_899_3699" x1="54.5" y1="89" x2="191" y2="177" gradientUnits="userSpaceOnUse">
<stop stop-color="#E5F2FE"/>
<stop offset="1" stop-color="white" stop-opacity="0"/>
</linearGradient>
<linearGradient id="paint15_linear_899_3699" x1="262.119" y1="109.501" x2="250.376" y2="82.2141" gradientUnits="userSpaceOnUse">
<stop stop-color="#568CF4"/>
<stop offset="1" stop-color="#BFD9FF"/>
</linearGradient>
<linearGradient id="paint16_linear_899_3699" x1="60.8021" y1="167.6" x2="47.8023" y2="137.368" gradientUnits="userSpaceOnUse">
<stop stop-color="#568CF4"/>
<stop offset="1" stop-color="#BFD9FF"/>
</linearGradient>
<linearGradient id="paint17_linear_899_3699" x1="72" y1="99" x2="72" y2="113" gradientUnits="userSpaceOnUse">
<stop stop-color="#2E99FD"/>
<stop offset="1" stop-color="#6FC3FE"/>
</linearGradient>
<linearGradient id="paint18_linear_899_3699" x1="124" y1="120" x2="124" y2="134" gradientUnits="userSpaceOnUse">
<stop stop-color="#2E99FD"/>
<stop offset="1" stop-color="#6FC3FE"/>
</linearGradient>
<linearGradient id="paint19_linear_899_3699" x1="124" y1="138" x2="124" y2="152" gradientUnits="userSpaceOnUse">
<stop stop-color="#2E99FD"/>
<stop offset="1" stop-color="#6FC3FE"/>
</linearGradient>
<linearGradient id="paint20_linear_899_3699" x1="124" y1="156" x2="124" y2="170" gradientUnits="userSpaceOnUse">
<stop stop-color="#2E99FD"/>
<stop offset="1" stop-color="#6FC3FE"/>
</linearGradient>
<linearGradient id="paint21_linear_899_3699" x1="171.095" y1="117.129" x2="181.51" y2="127.233" gradientUnits="userSpaceOnUse">
<stop stop-color="#EEF0FF"/>
<stop offset="1" stop-color="#AEA7FB"/>
</linearGradient>
<linearGradient id="paint22_linear_899_3699" x1="184" y1="99" x2="184" y2="113" gradientUnits="userSpaceOnUse">
<stop stop-color="#2E99FD"/>
<stop offset="1" stop-color="#6FC3FE"/>
</linearGradient>
</defs>
</svg>
