<svg width="32" height="32" viewBox="0 0 32 32" fill="none" xmlns="http://www.w3.org/2000/svg">
<g clip-path="url(#clip0_366_1117)">
<path d="M23.5556 3.62671C20.24 3.62671 16.8889 4.80004 16.8889 7.03115V8.42671C21.6 8.65782 24.8889 10.7378 24.8889 13.5467V19.5023L24.9334 19.5556C27.7156 19.2712 30.1778 18.1334 30.1778 16.2223V7.03115C30.2222 4.80004 26.8711 3.62671 23.5556 3.62671Z" fill="#239BF2"/>
<path d="M15.1112 8.42656V7.03101C15.1112 4.79101 11.7601 3.61768 8.4445 3.61768C5.12894 3.61768 1.77783 4.7999 1.77783 7.03101V16.2132C1.77783 18.1332 4.24005 19.2621 7.02228 19.5555L7.11117 19.4932V13.5377C7.11117 10.7377 10.4001 8.65768 15.1112 8.42656Z" fill="#239BF2"/>
<path d="M15.9999 9.64453C11.6177 9.64453 8.31104 11.3156 8.31104 13.5379V24.4801C8.31104 26.7023 11.6177 28.3734 15.9999 28.3734C20.3821 28.3734 23.6888 26.7023 23.6888 24.4801V22.5601C21.4669 24.1915 18.7536 25.0133 15.9999 24.889C14.1828 24.9203 12.3753 24.619 10.6666 24.0001V22.4623C12.3503 23.184 14.1684 23.5386 15.9999 23.5023C19.7421 23.5023 22.7999 22.409 23.671 20.6312V18.1956C22.0444 19.5556 19.3066 20.4445 15.9999 20.4445C14.1828 20.4758 12.3753 20.1746 10.6666 19.5556V17.9823C12.3503 18.704 14.1684 19.0586 15.9999 19.0223C19.7421 19.0223 22.7999 18.0356 23.671 16.2579V13.5379C23.6888 11.3156 20.3821 9.64453 15.9999 9.64453Z" fill="#239BF2"/>
</g>
<defs>
<clipPath id="clip0_366_1117">
<rect width="32" height="32" fill="white"/>
</clipPath>
</defs>
</svg>
