<svg xmlns="http://www.w3.org/2000/svg"   viewBox="0 0 20 21" fill="none">
  <path fill-rule="evenodd" clip-rule="evenodd" d="M4.60135 3.05566L4.98747 3.05567C5.83961 3.05566 6.53261 3.05565 7.09498 3.1016C7.67584 3.14905 8.19462 3.24989 8.67731 3.49584C9.19282 3.7585 9.64294 4.12731 10 4.57461C10.3571 4.12731 10.8072 3.7585 11.3227 3.49584C11.8054 3.24989 12.3242 3.14905 12.9051 3.1016C13.4674 3.05565 14.1604 3.05566 15.0126 3.05567L15.3987 3.05566C15.8122 3.05565 16.1744 3.05563 16.4738 3.0801C16.7915 3.10605 17.1154 3.16389 17.4293 3.32384C17.8923 3.55972 18.2687 3.93612 18.5046 4.39908C18.6645 4.71298 18.7224 5.03689 18.7483 5.3546C18.7728 5.65402 18.7728 6.0162 18.7728 6.4297V14.0709C18.7728 14.4844 18.7728 14.8466 18.7483 15.146C18.7224 15.4637 18.6645 15.7877 18.5046 16.1016C18.2687 16.5645 17.8923 16.9409 17.4293 17.1768C17.1154 17.3367 16.7915 17.3946 16.4738 17.4205C16.1744 17.445 15.8122 17.445 15.3987 17.445H4.60137C4.18785 17.445 3.82566 17.445 3.52623 17.4205C3.20852 17.3946 2.88461 17.3367 2.57071 17.1768C2.10775 16.9409 1.73135 16.5645 1.49547 16.1016C1.33553 15.7877 1.27769 15.4637 1.25173 15.146C1.22726 14.8466 1.22728 14.4844 1.2273 14.0709V6.42972C1.22728 6.01621 1.22726 5.65402 1.25173 5.3546C1.27769 5.03689 1.33553 4.71298 1.49547 4.39908C1.73135 3.93612 2.10775 3.55972 2.57071 3.32384C2.88461 3.16389 3.20852 3.10605 3.52623 3.0801C3.82565 3.05563 4.18784 3.05565 4.60135 3.05566ZM9.11769 8.98785C9.11769 8.08949 9.117 7.46878 9.07762 6.98675C9.03908 6.51502 8.96792 6.25432 8.86986 6.06187C8.65186 5.63402 8.30401 5.28617 7.87616 5.06817C7.68371 4.97011 7.42301 4.89896 6.95128 4.86041C6.46925 4.82103 5.84854 4.82034 4.95018 4.82034H4.63456C4.1781 4.82034 3.88882 4.82103 3.66993 4.83891C3.46135 4.85596 3.39552 4.88411 3.37185 4.89617C3.24094 4.96288 3.13451 5.06931 3.06781 5.20022C3.05575 5.22389 3.02759 5.28972 3.01054 5.4983C2.99266 5.71718 2.99197 6.00647 2.99197 6.46293V14.0377C2.99197 14.4942 2.99266 14.7834 3.01054 15.0023C3.02759 15.2109 3.05575 15.2767 3.06781 15.3004C3.13451 15.4313 3.24094 15.5378 3.37185 15.6045C3.39552 15.6165 3.46135 15.6447 3.66993 15.6617C3.88882 15.6796 4.1781 15.6803 4.63456 15.6803H9.11769V8.98785ZM10.8824 15.6803V8.98785C10.8824 8.08949 10.8831 7.46878 10.9224 6.98675C10.961 6.51502 11.0321 6.25432 11.1302 6.06187C11.3482 5.63402 11.696 5.28617 12.1239 5.06817C12.3163 4.97011 12.577 4.89896 13.0488 4.86041C13.5308 4.82103 14.1515 4.82034 15.0499 4.82034H15.3655C15.822 4.82034 16.1112 4.82103 16.3301 4.83891C16.5387 4.85596 16.6045 4.88411 16.6282 4.89617C16.7591 4.96288 16.8655 5.06931 16.9322 5.20022C16.9443 5.22389 16.9725 5.28972 16.9895 5.4983C17.0074 5.71718 17.0081 6.00647 17.0081 6.46293V14.0377C17.0081 14.4942 17.0074 14.7834 16.9895 15.0023C16.9725 15.2109 16.9443 15.2767 16.9322 15.3004C16.8655 15.4313 16.7591 15.5378 16.6282 15.6045C16.6045 15.6165 16.5387 15.6447 16.3301 15.6617C16.1112 15.6796 15.822 15.6803 15.3655 15.6803H10.8824Z" fill="currentColor"/>
</svg>