<svg width="16" height="16" viewBox="0 0 16 16" fill="none" xmlns="http://www.w3.org/2000/svg">
<path d="M14.4646 7.37003C14.1932 7.37003 14.0124 7.21087 14.0124 6.88431V5.00843C14.0124 3.81081 13.5191 3.14923 12.2445 3.14923H11.6525V4.41373H11.8334C12.335 4.41373 12.5734 4.69022 12.5734 5.18428V6.84246C12.5734 7.56258 12.7873 7.85575 13.2559 8.00645C12.7873 8.14881 12.5734 8.45033 12.5734 9.17044V10.4016C12.5734 10.7449 12.5734 11.08 12.483 11.4232C12.3926 11.7415 12.2445 12.0429 12.039 12.3025C11.9239 12.4533 11.7924 12.579 11.6442 12.6962V12.8637H12.2363C13.5109 12.8637 14.0042 12.2021 14.0042 11.0045V9.1286C14.0042 8.79357 14.1768 8.64287 14.4564 8.64287H14.7935V7.37838H14.4646V7.37003ZM10.4356 5.05887H8.61017C8.60036 5.05882 8.59065 5.05683 8.5816 5.05301C8.57256 5.04918 8.56436 5.04361 8.55748 5.03661C8.55061 5.0296 8.54518 5.0213 8.54153 5.01219C8.53788 5.00308 8.53606 4.99333 8.53619 4.98352V4.84116C8.53619 4.79932 8.56907 4.76581 8.61017 4.76581H10.4438C10.4849 4.76581 10.5178 4.79932 10.5178 4.84116V4.98352C10.5178 5.02536 10.4767 5.05887 10.4356 5.05887ZM10.748 6.86775H9.41597C9.40615 6.8677 9.39643 6.8657 9.38737 6.86187C9.37832 6.85804 9.37012 6.85246 9.36324 6.84544C9.35636 6.83842 9.35094 6.83011 9.34729 6.82098C9.34365 6.81186 9.34185 6.8021 9.34199 6.79227V6.64992C9.34199 6.60807 9.37487 6.57457 9.41597 6.57457H10.748C10.7891 6.57457 10.822 6.6082 10.822 6.64992V6.79227C10.822 6.8259 10.7892 6.86775 10.748 6.86775ZM11.2743 5.96331H8.61017C8.60036 5.96326 8.59065 5.96127 8.5816 5.95744C8.57256 5.95362 8.56436 5.94805 8.55748 5.94105C8.55061 5.93404 8.54518 5.92574 8.54153 5.91663C8.53788 5.90752 8.53606 5.89777 8.53619 5.88796V5.7456C8.53619 5.70363 8.56907 5.67013 8.61017 5.67013H11.2661C11.3072 5.67013 11.3401 5.70376 11.3401 5.74548V5.88796C11.3401 5.92146 11.3154 5.96331 11.2743 5.96331ZM6.49691 5.46899C6.67787 5.46899 6.85871 5.48568 7.03145 5.52753V5.18428C7.03145 4.69856 7.27805 4.41373 7.77149 4.41373H7.95221V3.14923H7.36025C6.08579 3.14923 5.59247 3.81081 5.59247 5.00843V5.62803C5.88017 5.52765 6.18455 5.46899 6.49691 5.46899Z" fill="none"/>
<path d="M11.8334 10.0246C11.7019 8.961 10.8961 8.07325 9.85997 7.87236C9.57228 7.8137 9.28445 7.80535 9.00485 7.85555C8.99663 7.85555 8.99663 7.8472 8.98841 7.8472C8.53619 6.8841 7.56587 6.24768 6.51347 6.24768C5.46095 6.24768 4.49897 6.86741 4.0384 7.83039C4.03018 7.83039 4.03018 7.83886 4.02196 7.83886C3.72487 7.80399 3.42391 7.82383 3.13396 7.89739C2.11432 8.1486 1.3414 9.01953 1.20166 10.0748C1.1856 10.1801 1.17736 10.2865 1.177 10.393C1.177 10.7112 1.39084 11.0044 1.7032 11.0462C1.79292 11.0602 1.88463 11.0544 1.97183 11.029C2.05903 11.0037 2.1396 10.9595 2.20784 10.8996C2.27608 10.8397 2.33032 10.7655 2.36674 10.6823C2.40316 10.5991 2.42085 10.5089 2.41858 10.4182C2.41858 10.3596 2.41858 10.2925 2.4268 10.2338C2.49256 9.69793 2.89546 9.24571 3.42179 9.12004C3.58618 9.0782 3.75058 9.06985 3.90689 9.09501C4.40843 9.16201 4.90174 8.90234 5.11559 8.45012C5.27189 8.1151 5.51849 7.82204 5.84741 7.663C6.20921 7.48702 6.62033 7.46199 6.99857 7.596C7.39325 7.73835 7.68929 8.03975 7.87013 8.41674C8.05931 8.78514 8.14973 9.04469 8.55263 9.09501C8.71703 9.12004 9.1776 9.1117 9.35021 9.10335C9.68736 9.10335 10.0245 9.22055 10.2629 9.46341C10.4235 9.63419 10.5344 9.84559 10.5836 10.0748C10.6576 10.4517 10.5671 10.8285 10.3451 11.1132C10.1889 11.3143 9.97518 11.465 9.73667 11.532C9.6216 11.5656 9.50639 11.5738 9.39131 11.5738H7.57409C7.21241 11.5738 6.92459 11.2808 6.92459 10.9122V8.45859C6.92459 8.35821 6.84239 8.27439 6.74363 8.27439H6.48881C5.98715 8.28273 5.58425 8.85227 5.58425 9.45519V11.6578C5.58425 12.311 6.10235 12.8384 6.74375 12.8384L9.63804 12.8301C10.2958 12.7631 10.9043 12.4198 11.3154 11.8923C11.7265 11.3814 11.9157 10.7113 11.8335 10.0247L11.8334 10.0246Z" fill="none"/>
</svg>
