<svg xmlns="http://www.w3.org/2000/svg"   viewBox="0 0 16 17" fill="none">
  <path fill-rule="evenodd" clip-rule="evenodd" d="M13.3911 4.57913C14.5171 6.14478 14.3761 8.33997 12.9681 9.74796L12.1427 10.5734C11.8733 10.8428 11.4365 10.8428 11.1671 10.5734L6.4765 5.88275C6.2071 5.61334 6.2071 5.17655 6.4765 4.90715L7.3019 4.08175C8.70206 2.68159 10.8807 2.53437 12.4446 3.64007L13.3718 2.71284C13.6321 2.45249 14.0542 2.45249 14.3146 2.71284C14.5749 2.97319 14.5749 3.3953 14.3146 3.65565L13.3911 4.57913ZM1.68141 14.4113C1.42106 14.6717 1.42106 15.0938 1.68141 15.3541C1.94176 15.6145 2.36387 15.6145 2.62422 15.3541L3.54281 14.4355C5.10788 15.5547 7.29749 15.4116 8.70284 14.0062L9.52824 13.1808C9.79765 12.9114 9.79765 12.4746 9.52824 12.2052L8.94648 11.6234L9.44333 11.1266C9.70368 10.8662 9.70368 10.4441 9.44333 10.1838C9.18298 9.92343 8.76087 9.92343 8.50052 10.1838L8.00367 10.6806L6.379 9.05597L6.87231 8.56266C7.13266 8.30231 7.13266 7.8802 6.87231 7.61985C6.61196 7.3595 6.18985 7.3595 5.9295 7.61985L5.43619 8.11316L4.83763 7.5146C4.56823 7.2452 4.13144 7.2452 3.86203 7.5146L3.03663 8.34C1.63384 9.7428 1.4887 11.927 2.60123 13.4915L1.68141 14.4113ZM4.34983 8.91242L3.97944 9.28281C2.93546 10.3268 2.93546 12.0194 3.97944 13.0634C5.02342 14.1074 6.71605 14.1074 7.76004 13.0634L8.13043 12.693L4.34983 8.91242ZM12.0253 8.80515L11.6549 9.17554L7.87432 5.39495L8.24471 5.02456C9.28869 3.98057 10.9813 3.98057 12.0253 5.02456C13.0693 6.06854 13.0693 7.76117 12.0253 8.80515Z" fill="currentColor"/>
</svg>