<svg width="41" height="40" viewBox="0 0 41 40" fill="none" xmlns="http://www.w3.org/2000/svg">
<circle cx="20.5" cy="19.9922" r="19.6429" stroke="#9CA2A8" stroke-width="0.714286" stroke-dasharray="2.86 2.86"/>
<path d="M12.7322 28.4869L12.7099 28.4864C12.5811 28.4822 11.9112 28.4392 11.465 28.0209C11.0075 27.5918 10.9529 26.9748 10.9466 26.8554C10.946 26.8441 10.9457 26.8329 10.9457 26.8217V23.4614C10.939 23.323 10.9301 22.8554 11.0868 22.336C11.2369 21.8381 11.4224 21.5112 11.4755 21.423L13.1624 18.4385C13.1709 18.4235 13.1798 18.409 13.1894 18.395C13.242 18.3169 13.5247 17.9153 13.9124 17.674C14.3204 17.42 14.8142 17.4003 14.9559 17.4003H25.612C25.6257 17.4003 25.6393 17.4007 25.6533 17.4016C25.7592 17.4084 26.3093 17.4548 26.735 17.6983C27.1414 17.9311 27.4686 18.3379 27.53 18.417C27.5425 18.4332 27.5542 18.4499 27.5651 18.4672L29.5687 21.642C29.5773 21.656 29.5859 21.6706 29.5938 21.6856C29.6321 21.7593 29.8302 22.1489 29.9305 22.5278C30.0295 22.9027 30.0534 23.317 30.0571 23.3961L30.0576 23.4231V26.7839C30.0598 26.9616 30.0271 27.5714 29.5213 28.0245C29.0422 28.4534 28.3973 28.4866 28.211 28.4866H12.7322V28.4869ZM12.5606 22.104C12.5237 22.1696 12.409 22.3864 12.3126 22.7059C12.2108 23.0436 12.2229 23.3594 12.2246 23.3943C12.2255 23.4095 12.226 23.4246 12.2262 23.4398V26.7995L12.2275 26.8088C12.2354 26.8692 12.2723 27.0156 12.3358 27.0816L12.3444 27.0907L12.3545 27.0981C12.4434 27.1637 12.6639 27.2013 12.7409 27.2059L28.2121 27.2062C28.3404 27.2047 28.5648 27.1619 28.6665 27.0708C28.7574 26.9892 28.7778 26.8493 28.7778 26.8269L28.7766 26.7881V23.4428C28.7696 23.3123 28.7444 23.0522 28.692 22.8551C28.6327 22.63 28.5001 22.3603 28.474 22.3087L28.4669 22.2962L26.5007 19.1802L26.4945 19.1728C26.42 19.083 26.2413 18.8913 26.0986 18.8095C25.9751 18.7388 25.7234 18.6935 25.5938 18.6814L25.5803 18.6807H14.9581C14.8587 18.6816 14.674 18.7079 14.5887 18.7613C14.4685 18.8362 14.3262 19.0073 14.2677 19.0872L14.2626 19.0941L12.5862 22.0598L12.5681 22.0903L12.5684 22.0895C12.5679 22.091 12.5606 22.104 12.5606 22.104ZM20.4405 16.4613C20.2707 16.4612 20.108 16.3937 19.9879 16.2736C19.8678 16.1536 19.8003 15.9909 19.8001 15.8211V12.1378C19.8003 11.9681 19.8678 11.8054 19.9878 11.6853C20.1078 11.5653 20.2705 11.4978 20.4402 11.4976C20.61 11.4977 20.7728 11.5652 20.8929 11.6853C21.0129 11.8053 21.0805 11.968 21.0807 12.1378V15.821C21.0806 15.9908 21.013 16.1536 20.893 16.2736C20.773 16.3936 20.6102 16.4611 20.4405 16.4613V16.4613ZM24.7333 16.4371C24.5635 16.4368 24.4008 16.3693 24.2808 16.2492C24.1608 16.1292 24.0932 15.9664 24.093 15.7967C24.0932 15.6498 24.1437 15.5075 24.2361 15.3933L25.6997 13.5882C25.7597 13.514 25.8356 13.4542 25.9218 13.4131C26.008 13.3721 26.1022 13.3509 26.1977 13.3511C26.3456 13.3511 26.4849 13.4006 26.6002 13.4941C26.6658 13.5468 26.7202 13.6121 26.7603 13.6861C26.8004 13.76 26.8254 13.8412 26.8339 13.925C26.8429 14.0086 26.8353 14.0932 26.8113 14.1738C26.7874 14.2544 26.7477 14.3295 26.6946 14.3947L25.231 16.1999C25.1713 16.2741 25.0956 16.3339 25.0096 16.3749C24.9236 16.416 24.8295 16.4372 24.7343 16.4369H24.7333V16.4371ZM16.2196 16.3881C16.1235 16.3884 16.0285 16.3668 15.9418 16.325C15.8552 16.2833 15.7792 16.2224 15.7194 16.147L14.2806 14.342C14.1749 14.2091 14.1263 14.0398 14.1453 13.8711C14.1644 13.7024 14.2495 13.5481 14.3822 13.4421C14.4952 13.3513 14.6359 13.302 14.7808 13.3025C14.9771 13.3025 15.1597 13.3904 15.2819 13.5437L16.7209 15.3487C16.8266 15.4815 16.8753 15.6508 16.8563 15.8195C16.8373 15.9882 16.7522 16.1424 16.6196 16.2484C16.5062 16.3386 16.3656 16.3878 16.2207 16.3881H16.2196Z" fill="#7B838B"/>
<path d="M20.4654 25.8527C19.0389 25.8527 17.7995 24.8963 17.4517 23.5273L17.4236 23.417L11.7374 23.4136C11.5676 23.4132 11.4049 23.3456 11.2849 23.2255C11.1649 23.1054 11.0974 22.9426 11.0972 22.7728C11.0974 22.6031 11.165 22.4404 11.285 22.3205C11.405 22.2005 11.5677 22.133 11.7374 22.1328L17.9988 22.1368C18.1685 22.1372 18.3311 22.2049 18.451 22.3249C18.571 22.445 18.6385 22.6076 18.6387 22.7773C18.6387 23.7838 19.4411 24.572 20.4654 24.572C21.486 24.572 22.2856 23.7838 22.2856 22.7773C22.286 22.6076 22.3535 22.445 22.4735 22.3249C22.5935 22.2049 22.7561 22.1373 22.9258 22.1368L29.1293 22.1329C29.4825 22.1329 29.7695 22.4197 29.7698 22.7727C29.77 23.1256 29.483 23.4132 29.13 23.4137L23.5013 23.4171L23.4733 23.5274C23.1258 24.8964 21.8891 25.8527 20.4654 25.8527Z" fill="#7B838B"/>
</svg>
