<svg width="42" height="42" viewBox="0 0 42 42" fill="none" xmlns="http://www.w3.org/2000/svg">
<path d="M21 2.625C26.1957 2.7615 30.5235 4.55875 33.9815 8.0185C37.4412 11.4765 39.2385 15.8025 39.375 21C39.2385 26.1957 37.4412 30.5235 33.9815 33.9815C30.5235 37.4412 26.1975 39.2385 21 39.375C15.8042 39.2385 11.4765 37.4412 8.0185 33.9815C4.55875 30.5235 2.7615 26.1975 2.625 21C2.7615 15.8042 4.55875 11.4765 8.0185 8.0185C11.4765 4.55875 15.8025 2.7615 21 2.625ZM21 18.7863L16.7335 14.5198C16.5891 14.3653 16.4146 14.2419 16.2208 14.1574C16.027 14.0728 15.818 14.0288 15.6065 14.028C15.3994 14.0271 15.1943 14.0685 15.0038 14.1498C14.8133 14.231 14.6414 14.3504 14.4988 14.5005C14.1838 14.8138 14.0262 15.183 14.028 15.6065C14.028 16.0318 14.1925 16.408 14.5198 16.7352L18.7863 21L14.5198 25.2665C14.3653 25.4109 14.2419 25.5854 14.1574 25.7792C14.0728 25.973 14.0288 26.182 14.028 26.3935C14.028 26.817 14.1855 27.1862 14.5005 27.5012C14.8138 27.8162 15.183 27.9738 15.6065 27.972C15.8182 27.9711 16.0275 27.9271 16.2216 27.8425C16.4157 27.758 16.5905 27.6347 16.7352 27.4803L21 23.2137L25.2665 27.4803C25.704 27.8898 26.208 28.021 26.7837 27.8705C27.0494 27.8117 27.2927 27.6782 27.485 27.4856C27.6772 27.2931 27.8104 27.0495 27.8687 26.7837C27.9471 26.5193 27.9524 26.2386 27.884 25.9715C27.8156 25.7043 27.6761 25.4607 27.4803 25.2665L23.2137 21L27.4803 16.7335C27.6347 16.5891 27.7581 16.4146 27.8426 16.2208C27.9272 16.027 27.9712 15.818 27.972 15.6065C27.9729 15.3994 27.9315 15.1943 27.8502 15.0038C27.769 14.8133 27.6496 14.6414 27.4995 14.4988C27.3573 14.3487 27.1857 14.2294 26.9954 14.1485C26.8052 14.0675 26.6003 14.0265 26.3935 14.028C26.1818 14.0289 25.9725 14.0729 25.7784 14.1575C25.5843 14.242 25.4095 14.3653 25.2647 14.5198L21 18.7863Z" fill="#FF5B6E"/>
</svg>
