<svg xmlns="http://www.w3.org/2000/svg"  viewBox="0 0 17 16" fill="none">
  <path fill-rule="evenodd" clip-rule="evenodd" d="M8.02876 1.52827C8.28911 1.26792 8.71122 1.26792 8.97157 1.52827L11.6382 4.19494C11.8986 4.45529 11.8986 4.8774 11.6382 5.13775C11.3779 5.3981 10.9558 5.3981 10.6954 5.13775L9.16683 3.60915V9.99967C9.16683 10.3679 8.86835 10.6663 8.50016 10.6663C8.13197 10.6663 7.8335 10.3679 7.8335 9.99967V3.60915L6.3049 5.13775C6.04455 5.3981 5.62244 5.3981 5.36209 5.13775C5.10174 4.8774 5.10174 4.45529 5.36209 4.19494L8.02876 1.52827ZM2.50016 7.33301C2.86835 7.33301 3.16683 7.63148 3.16683 7.99967V10.7997C3.16683 11.3707 3.16735 11.7589 3.19186 12.059C3.21574 12.3513 3.25903 12.5007 3.31215 12.605C3.43999 12.8559 3.64396 13.0599 3.89484 13.1877C3.99911 13.2408 4.14858 13.2841 4.44086 13.308C4.74091 13.3325 5.12911 13.333 5.70016 13.333H11.3002C11.8712 13.333 12.2594 13.3325 12.5595 13.308C12.8517 13.2841 13.0012 13.2408 13.1055 13.1877C13.3564 13.0599 13.5603 12.8559 13.6882 12.605C13.7413 12.5007 13.7846 12.3513 13.8085 12.059C13.833 11.7589 13.8335 11.3707 13.8335 10.7997V7.99967C13.8335 7.63148 14.132 7.33301 14.5002 7.33301C14.8684 7.33301 15.1668 7.63148 15.1668 7.99967V10.8272C15.1668 11.3639 15.1668 11.8068 15.1374 12.1676C15.1068 12.5423 15.041 12.8868 14.8762 13.2103C14.6205 13.7121 14.2126 14.12 13.7108 14.3757C13.3872 14.5406 13.0428 14.6063 12.668 14.6369C12.3073 14.6664 11.8644 14.6664 11.3277 14.6663H5.67261C5.13597 14.6664 4.69307 14.6664 4.33228 14.6369C3.95755 14.6063 3.61308 14.5406 3.28952 14.3757C2.78776 14.12 2.37981 13.7121 2.12415 13.2103C1.95929 12.8868 1.89358 12.5423 1.86296 12.1676C1.83348 11.8068 1.83349 11.3639 1.8335 10.8272L1.8335 7.99967C1.8335 7.63148 2.13197 7.33301 2.50016 7.33301Z" fill="currentColor"/>
</svg>