<svg width="24" height="24" viewBox="0 0 24 24" fill="none" xmlns="http://www.w3.org/2000/svg">
<g id="icon/solid/file-config" clip-path="url(#clip0_5517_9713)">
<g id="Union">
<path fill-rule="evenodd" clip-rule="evenodd" d="M16.1453 3.2781L19.0531 6.00879C19.7719 6.68371 20.1312 7.02116 20.387 7.42234C20.6045 7.76328 20.7661 8.13673 20.8658 8.52861C20.9831 8.98973 20.9831 9.48269 20.9831 10.4686V14.6201C20.2553 14.2695 19.4392 14.073 18.5772 14.073C15.5121 14.073 13.0273 16.5578 13.0273 19.6229C13.0273 20.6264 13.2936 21.5678 13.7595 22.3801H9.13484C6.97078 22.3801 5.88875 22.3801 5.06514 21.9522C4.3711 21.5917 3.8052 21.0258 3.44467 20.3318C3.01685 19.5082 3.01685 18.4261 3.01685 16.2621V7.73793C3.01685 5.57387 3.01685 4.49184 3.44467 3.66823C3.8052 2.97419 4.3711 2.40829 5.06514 2.04776C5.88875 1.61993 6.97078 1.61993 9.13485 1.61993H11.9572C12.8616 1.61993 13.3138 1.61993 13.7411 1.71997C14.1045 1.80503 14.4533 1.94313 14.7763 2.12983C15.1563 2.34943 15.486 2.65899 16.1453 3.2781ZM14.3328 4.65261C13.7396 4.08381 13.443 3.7994 13.1884 3.7891C12.9862 3.78091 12.791 3.86416 12.657 4.01578C12.4882 4.20668 12.4882 4.61761 12.4882 5.43949V6.37785C12.4882 7.58007 12.4882 8.18118 12.7222 8.64036C12.928 9.04427 13.2564 9.37266 13.6603 9.57847C14.1195 9.81243 14.7206 9.81243 15.9228 9.81243H17.0022C17.8674 9.81243 18.3 9.81243 18.4924 9.63783C18.6451 9.4993 18.7258 9.29844 18.7115 9.09279C18.6935 8.8336 18.3812 8.53421 17.7567 7.93543L14.3328 4.65261Z" fill="currentColor"/>
<path fill-rule="evenodd" clip-rule="evenodd" d="M17.6292 16.208C17.9175 15.0877 19.5087 15.0877 19.797 16.208C19.9532 16.8151 20.5775 17.1755 21.1813 17.0073C22.2958 16.6968 23.0914 18.0748 22.2652 18.8847C21.8176 19.3235 21.8176 20.0443 22.2652 20.4831C23.0914 21.293 22.2958 22.671 21.1813 22.3605C20.5775 22.1923 19.9532 22.5527 19.797 23.1597C19.5087 24.2801 17.9175 24.2801 17.6292 23.1597C17.473 22.5527 16.8487 22.1923 16.2449 22.3605C15.1305 22.671 14.3349 21.293 15.161 20.4831C15.6086 20.0443 15.6086 19.3235 15.161 18.8847C14.3349 18.0748 15.1305 16.6968 16.2449 17.0073C16.8487 17.1755 17.473 16.8151 17.6292 16.208ZM20.1094 19.6839C20.1094 20.455 19.4843 21.0802 18.7131 21.0802C17.9419 21.0802 17.3168 20.455 17.3168 19.6839C17.3168 18.9127 17.9419 18.2876 18.7131 18.2876C19.4843 18.2876 20.1094 18.9127 20.1094 19.6839Z" fill="currentColor"/>
</g>
</g>
<defs>
<clipPath id="clip0_5517_9713">
<rect width="24" height="24" fill="white"/>
</clipPath>
</defs>
</svg>
