<svg width="20" height="21" viewBox="0 0 20 21" fill="none" xmlns="http://www.w3.org/2000/svg">
<path fill-rule="evenodd" clip-rule="evenodd" d="M6.99978 4.03708C6.99978 3.38368 6.99978 3.05698 7.12694 2.80742C7.23879 2.5879 7.41727 2.40942 7.63679 2.29757C7.88636 2.17041 8.21305 2.17041 8.86645 2.17041H11.1331C11.7865 2.17041 12.1132 2.17041 12.3628 2.29757C12.5823 2.40942 12.7608 2.5879 12.8726 2.80742C12.9998 3.05698 12.9998 3.38368 12.9998 4.03708V6.30374C12.9998 6.95714 12.9998 7.28384 12.8726 7.5334C12.7608 7.75292 12.5823 7.9314 12.3628 8.04325C12.1132 8.17041 11.7865 8.17041 11.1331 8.17041H10.8399V9.67065H17.5536C18.0137 9.67065 18.3867 10.0436 18.3867 10.5037C18.3867 10.9638 18.0137 11.3368 17.5536 11.3368H15.1688V12.8371H15.469C16.1224 12.8371 16.4491 12.8371 16.6987 12.9642C16.9182 13.0761 17.0967 13.2546 17.2085 13.4741C17.3357 13.7237 17.3357 14.0504 17.3357 14.7037V16.9704C17.3357 17.6238 17.3357 17.9505 17.2085 18.2001C17.0967 18.4196 16.9182 18.5981 16.6987 18.7099C16.4491 18.8371 16.1224 18.8371 15.469 18.8371H13.2024C12.549 18.8371 12.2223 18.8371 11.9727 18.7099C11.7532 18.5981 11.5747 18.4196 11.4629 18.2001C11.3357 17.9505 11.3357 17.6238 11.3357 16.9704V14.7037C11.3357 14.0504 11.3357 13.7237 11.4629 13.4741C11.5747 13.2546 11.7532 13.0761 11.9727 12.9642C12.2223 12.8371 12.549 12.8371 13.2024 12.8371H13.5026V11.3368L6.67486 11.3368V12.8371H6.97512C7.62851 12.8371 7.95521 12.8371 8.20478 12.9642C8.4243 13.0761 8.60278 13.2546 8.71463 13.4741C8.84179 13.7237 8.84179 14.0504 8.84179 14.7037V16.9704C8.84179 17.6238 8.84179 17.9505 8.71463 18.2001C8.60278 18.4196 8.4243 18.5981 8.20478 18.7099C7.95521 18.8371 7.62851 18.8371 6.97512 18.8371H4.70845C4.05506 18.8371 3.72836 18.8371 3.4788 18.7099C3.25928 18.5981 3.0808 18.4196 2.96895 18.2001C2.84179 17.9505 2.84179 17.6238 2.84179 16.9704V14.7037C2.84179 14.0504 2.84179 13.7237 2.96895 13.4741C3.0808 13.2546 3.25928 13.0761 3.4788 12.9642C3.72836 12.8371 4.05506 12.8371 4.70845 12.8371H5.00867V11.3368H2.44588C1.98578 11.3368 1.61279 10.9638 1.61279 10.5037C1.61279 10.0436 1.98578 9.67065 2.44588 9.67065H9.17369V8.17041H8.86645C8.21305 8.17041 7.88636 8.17041 7.63679 8.04325C7.41727 7.9314 7.23879 7.75292 7.12694 7.5334C6.99978 7.28384 6.99978 6.95714 6.99978 6.30374V4.03708ZM8.86645 3.83708H11.1331C11.2066 3.83708 11.2726 3.83708 11.333 3.83724C11.3331 3.89758 11.3331 3.96362 11.3331 4.03708V6.30374C11.3331 6.3772 11.3331 6.44324 11.333 6.50358C11.2726 6.50374 11.2066 6.50374 11.1331 6.50374H8.86645C8.79299 6.50374 8.72695 6.50374 8.66661 6.50358C8.66646 6.44324 8.66645 6.3772 8.66645 6.30374V4.03708C8.66645 3.96362 8.66646 3.89758 8.66661 3.83724C8.72695 3.83708 8.79299 3.83708 8.86645 3.83708ZM6.97512 14.5037H4.70845C4.63499 14.5037 4.56896 14.5038 4.50862 14.5039C4.50846 14.5642 4.50845 14.6303 4.50845 14.7037V16.9704C4.50845 17.0439 4.50846 17.1099 4.50862 17.1702C4.56896 17.1704 4.63499 17.1704 4.70845 17.1704H6.97512C7.04858 17.1704 7.11462 17.1704 7.17496 17.1702C7.17511 17.1099 7.17512 17.0439 7.17512 16.9704V14.7037C7.17512 14.6303 7.17511 14.5642 7.17496 14.5039C7.11462 14.5038 7.04858 14.5037 6.97512 14.5037ZM13.2024 14.5037H15.469C15.5425 14.5037 15.6085 14.5038 15.6689 14.5039C15.669 14.5642 15.669 14.6303 15.669 14.7037V16.9704C15.669 17.0439 15.669 17.1099 15.6689 17.1702C15.6085 17.1704 15.5425 17.1704 15.469 17.1704H13.2024C13.1289 17.1704 13.0629 17.1704 13.0025 17.1702C13.0024 17.1099 13.0024 17.0439 13.0024 16.9704V14.7037C13.0024 14.6303 13.0024 14.5642 13.0025 14.5039C13.0629 14.5038 13.1289 14.5037 13.2024 14.5037Z" fill="#667085"/>
</svg>
