
<svg width="20" height="21" viewBox="0 0 20 21" fill="none" xmlns="http://www.w3.org/2000/svg">
<path fill-rule="evenodd" clip-rule="evenodd" d="M7.52603 3.45746C8.42234 1.22837 11.578 1.22837 12.4743 3.45746C12.5269 3.58821 12.5931 3.82035 12.6839 4.13905C12.6914 4.16511 12.6989 4.19175 12.7067 4.21896C12.7467 4.35917 12.7567 4.39265 12.7649 4.41579C12.929 4.87971 13.4063 5.15526 13.8901 5.06545C13.9143 5.06097 13.9483 5.05287 14.0897 5.01742C14.1171 5.01054 14.144 5.0038 14.1703 4.9972C14.4917 4.91653 14.7258 4.85777 14.8654 4.83793C17.244 4.49961 18.8218 7.2325 17.3395 9.12327C17.2525 9.23418 17.0846 9.40756 16.854 9.64561C16.8352 9.66507 16.8159 9.68496 16.7962 9.70528C16.6948 9.81004 16.6708 9.83542 16.6548 9.85408C16.3351 10.2282 16.3351 10.7793 16.6548 11.1534C16.6708 11.1721 16.6948 11.1974 16.7962 11.3022C16.8159 11.3225 16.8352 11.3424 16.854 11.3619C17.0846 11.5999 17.2525 11.7733 17.3395 11.8842C18.8218 13.775 17.244 16.5079 14.8654 16.1695C14.7258 16.1497 14.4917 16.0909 14.1702 16.0102C14.1439 16.0037 14.1171 15.9969 14.0897 15.9901C13.9483 15.9546 13.9143 15.9465 13.8901 15.942C13.4063 15.8522 12.929 16.1278 12.7649 16.5917C12.7567 16.6148 12.7467 16.6483 12.7067 16.7885C12.6989 16.8157 12.6914 16.8424 12.6839 16.8684C12.5931 17.1871 12.5269 17.4193 12.4743 17.55C11.578 19.7791 8.42234 19.7791 7.52603 17.55C7.47345 17.4193 7.40727 17.1871 7.31641 16.8684C7.30899 16.8423 7.3014 16.8157 7.29363 16.7885C7.25362 16.6483 7.24365 16.6148 7.23546 16.5917C7.07132 16.1278 6.59405 15.8522 6.11022 15.942C6.08608 15.9465 6.05209 15.9546 5.91066 15.9901C5.8832 15.9969 5.85631 16.0037 5.83001 16.0103C5.50861 16.091 5.27451 16.1497 5.13499 16.1695C2.75639 16.5079 1.17856 13.775 2.66085 11.8842C2.74779 11.7733 2.91574 11.5999 3.14631 11.3619C3.16516 11.3424 3.18444 11.3225 3.20412 11.3022C3.30554 11.1974 3.32955 11.1721 3.3455 11.1534C3.6652 10.7793 3.6652 10.2282 3.3455 9.85408C3.32955 9.83542 3.30554 9.81003 3.20412 9.70528C3.18445 9.68495 3.16517 9.66506 3.14632 9.6456C2.91574 9.40756 2.7478 9.23418 2.66085 9.12327C1.17856 7.2325 2.75639 4.49962 5.13499 4.83793C5.27451 4.85777 5.50864 4.91653 5.83007 4.9972C5.85635 5.00379 5.88322 5.01054 5.91066 5.01742C6.05209 5.05287 6.08608 5.06097 6.11022 5.06545C6.59405 5.15526 7.07132 4.87971 7.23546 4.4158C7.24365 4.39265 7.25362 4.35916 7.29363 4.21896C7.3014 4.19176 7.30899 4.16513 7.31641 4.13908C7.40727 3.82036 7.47345 3.58822 7.52603 3.45746ZM10.928 4.07924C10.5919 3.24333 9.40849 3.24333 9.07237 4.07924C9.07237 4.07924 9.07254 4.07881 9.07237 4.07924C9.07239 4.07925 9.06892 4.08841 9.06063 4.11394C9.05164 4.14161 9.03999 4.17941 9.02462 4.23109C8.99369 4.33519 8.95305 4.47755 8.89631 4.67634C8.89418 4.68382 8.89207 4.6912 8.88999 4.6985C8.85966 4.80487 8.83454 4.89295 8.80668 4.97171C8.36897 6.20883 7.09627 6.94362 5.80604 6.70413C5.7239 6.68888 5.63506 6.66659 5.52778 6.63967C5.52042 6.63783 5.51297 6.63596 5.50543 6.63407C5.3049 6.5838 5.1613 6.54782 5.05568 6.52257C5.00324 6.51003 4.96468 6.50122 4.93622 6.49517C4.90997 6.48958 4.8996 6.48791 4.8996 6.48789C4.89915 6.48783 4.8996 6.48789 4.8996 6.48789C4.00763 6.36102 3.41664 7.38595 3.9725 8.09499C3.97033 8.09223 3.97599 8.09955 3.99667 8.12251C4.01615 8.14413 4.04305 8.17312 4.08013 8.21227C4.15481 8.29111 4.25778 8.39748 4.40157 8.54601C4.40698 8.5516 4.41233 8.55713 4.41762 8.56258C4.49456 8.64202 4.55828 8.70781 4.61255 8.77132C5.46507 9.76894 5.46507 11.2385 4.61255 12.2362C4.55827 12.2997 4.49454 12.3655 4.41758 12.4449C4.41231 12.4504 4.40697 12.4559 4.40157 12.4615C4.25778 12.61 4.15481 12.7164 4.08013 12.7952C4.04305 12.8344 4.01615 12.8633 3.99667 12.885C3.97871 12.9049 3.97208 12.913 3.97206 12.913C3.97178 12.9134 3.97206 12.913 3.97206 12.913C3.41621 13.6221 4.00832 14.6464 4.9003 14.5195C4.89683 14.52 4.90599 14.5187 4.93622 14.5123C4.96468 14.5063 5.00324 14.4974 5.05568 14.4849C5.1613 14.4597 5.3049 14.4237 5.50543 14.3734L5.52779 14.3678C5.63507 14.3409 5.7239 14.3186 5.80604 14.3033C7.09627 14.0639 8.36897 14.7986 8.80668 16.0358C8.83454 16.1145 8.85966 16.2026 8.88999 16.309L8.89631 16.3311C8.95305 16.5299 8.99369 16.6723 9.02463 16.7764C9.03999 16.8281 9.05164 16.8659 9.06063 16.8935C9.06892 16.9191 9.07265 16.9289 9.07263 16.9289C9.07263 16.9289 9.07281 16.9293 9.07263 16.9289C9.40875 17.7648 10.5919 17.7641 10.928 16.9282C10.9267 16.9315 10.9302 16.9229 10.9397 16.8935C10.9487 16.8659 10.9604 16.8281 10.9757 16.7764C11.0067 16.6723 11.0473 16.5299 11.104 16.3311L11.1104 16.309C11.1407 16.2026 11.1658 16.1145 11.1937 16.0358C11.6314 14.7986 12.9041 14.0639 14.1943 14.3033C14.2764 14.3186 14.3653 14.3409 14.4726 14.3678C14.4799 14.3697 14.4874 14.3715 14.4949 14.3734C14.6954 14.4237 14.839 14.4597 14.9447 14.4849C14.9971 14.4974 15.0357 14.5063 15.0641 14.5123C15.0904 14.5179 15.1007 14.5196 15.1007 14.5196C15.1007 14.5196 15.1012 14.5196 15.1007 14.5196C15.9927 14.6465 16.5837 13.6215 16.0278 12.9125C16.0279 12.9125 16.0281 12.9128 16.0278 12.9125C16.0278 12.9125 16.0216 12.9049 16.0037 12.885C15.9842 12.8633 15.9573 12.8344 15.9202 12.7952C15.8455 12.7164 15.7426 12.61 15.5988 12.4615L15.5827 12.4449C15.5058 12.3654 15.4421 12.2997 15.3878 12.2362C14.5353 11.2385 14.5353 9.76894 15.3878 8.77132C15.4421 8.70781 15.5058 8.64202 15.5827 8.56259L15.5988 8.54601C15.7426 8.39748 15.8455 8.29111 15.9202 8.21227C15.9573 8.17312 15.9842 8.14413 16.0037 8.12251C16.0216 8.10257 16.0283 8.09443 16.0283 8.09444C16.0283 8.09444 16.0286 8.09408 16.0283 8.09444C16.5841 7.3854 15.992 6.36112 15.1 6.48799C15.1035 6.4875 15.0944 6.48874 15.0641 6.49517C15.0357 6.50122 14.9971 6.51003 14.9447 6.52257C14.839 6.54782 14.6954 6.5838 14.4949 6.63407L14.4726 6.63967C14.3653 6.66659 14.2764 6.68888 14.1943 6.70413C12.9041 6.94362 11.6314 6.20883 11.1937 4.97171C11.1658 4.89296 11.1407 4.80489 11.1104 4.69855L11.104 4.67634C11.0473 4.47755 11.0067 4.33519 10.9757 4.23109C10.9604 4.17941 10.9487 4.14161 10.9397 4.11394C10.9314 4.08841 10.928 4.07925 10.928 4.07924C10.928 4.07924 10.9278 4.07881 10.928 4.07924Z" fill="#667085"/>
<path fill-rule="evenodd" clip-rule="evenodd" d="M10.0002 12.0802C10.8708 12.0802 11.5766 11.3744 11.5766 10.5037C11.5766 9.63308 10.8708 8.92727 10.0002 8.92727C9.12951 8.92727 8.4237 9.63308 8.4237 10.5037C8.4237 11.3744 9.12951 12.0802 10.0002 12.0802ZM10.0002 13.7469C11.7913 13.7469 13.2433 12.2949 13.2433 10.5037C13.2433 8.71261 11.7913 7.2606 10.0002 7.2606C8.20904 7.2606 6.75704 8.71261 6.75704 10.5037C6.75704 12.2949 8.20904 13.7469 10.0002 13.7469Z" fill="#667085"/>
</svg>
