<svg xmlns="http://www.w3.org/2000/svg" width="16" height="17" viewBox="0 0 16 17" fill="none">
  <path fill-rule="evenodd" clip-rule="evenodd" d="M7.99998 3.52572C4.99379 3.52572 2.55678 5.96272 2.55678 8.96892C2.55678 11.9751 4.99379 14.4121 7.99998 14.4121C11.0062 14.4121 13.4432 11.9751 13.4432 8.96892C13.4432 5.96272 11.0062 3.52572 7.99998 3.52572ZM1.22345 8.96892C1.22345 5.22634 4.25741 2.19238 7.99998 2.19238C11.7426 2.19238 14.7765 5.22634 14.7765 8.96892C14.7765 12.7115 11.7426 15.7455 7.99998 15.7455C4.25741 15.7455 1.22345 12.7115 1.22345 8.96892ZM8.14828 6.59471C7.87681 6.54814 7.59763 6.59916 7.36017 6.73871C7.12271 6.87827 6.9423 7.09736 6.8509 7.35719C6.72872 7.70451 6.34811 7.88703 6.00078 7.76485C5.65346 7.64267 5.47094 7.26205 5.59312 6.91473C5.78901 6.35787 6.17566 5.8883 6.68459 5.5892C7.19352 5.2901 7.79187 5.18077 8.37369 5.28057C8.9555 5.38036 9.48322 5.68285 9.86338 6.13445C10.2435 6.58596 10.4515 7.15738 10.4507 7.74755C10.4504 8.71211 9.73579 9.3441 9.23739 9.67636C8.96785 9.85606 8.70305 9.98798 8.50826 10.0746C8.40993 10.1183 8.32705 10.1515 8.2672 10.1743C8.23721 10.1857 8.21285 10.1946 8.19503 10.2009L8.17327 10.2085L8.16626 10.2109L8.16375 10.2117L8.16275 10.2121C8.16255 10.2122 8.16192 10.2124 7.95111 9.5799L8.16192 10.2124C7.81263 10.3288 7.43508 10.14 7.31865 9.79072C7.20226 9.44154 7.39087 9.06413 7.73994 8.94757L7.74835 8.9446C7.75738 8.94139 7.7724 8.93594 7.79254 8.92827C7.83292 8.91289 7.89325 8.8888 7.96675 8.85614C8.11564 8.78996 8.30909 8.69276 8.49779 8.56696C8.91576 8.28831 9.1174 8.00402 9.1174 7.74694L9.1174 7.74595C9.11781 7.47052 9.02073 7.20383 8.84335 6.99312C8.66597 6.78241 8.41975 6.64127 8.14828 6.59471ZM7.33332 12.0239C7.33332 11.6557 7.63179 11.3572 7.99998 11.3572H8.00609C8.37428 11.3572 8.67276 11.6557 8.67276 12.0239C8.67276 12.392 8.37428 12.6905 8.00609 12.6905H7.99998C7.63179 12.6905 7.33332 12.392 7.33332 12.0239Z" fill="currentColor"/>
</svg>