<svg xmlns="http://www.w3.org/2000/svg" width="14" height="14" viewBox="0 0 14 14" fill="none">
  <g clip-path="url(#clip0_5915_18901)">
    <path fill-rule="evenodd" clip-rule="evenodd" d="M7.00003 2.05299C4.26787 2.05299 2.05302 4.26784 2.05302 7C2.05302 9.73216 4.26787 11.947 7.00003 11.947C9.73219 11.947 11.947 9.73216 11.947 7C11.947 4.26784 9.73219 2.05299 7.00003 2.05299ZM0.886353 7C0.886353 3.62351 3.62354 0.886322 7.00003 0.886322C10.3765 0.886322 13.1137 3.62351 13.1137 7C13.1137 10.3765 10.3765 13.1137 7.00003 13.1137C3.62354 13.1137 0.886353 10.3765 0.886353 7ZM6.4167 4.78786C6.4167 4.4657 6.67786 4.20453 7.00003 4.20453H7.00556C7.32773 4.20453 7.58889 4.4657 7.58889 4.78786C7.58889 5.11003 7.32773 5.3712 7.00556 5.3712H7.00003C6.67786 5.3712 6.4167 5.11003 6.4167 4.78786ZM7.00003 6.41667C7.3222 6.41667 7.58336 6.67783 7.58336 7V9.21214C7.58336 9.5343 7.3222 9.79547 7.00003 9.79547C6.67786 9.79547 6.4167 9.5343 6.4167 9.21214V7C6.4167 6.67783 6.67786 6.41667 7.00003 6.41667Z" fill="currentColor"/>
  </g>
  <defs>
    <clipPath id="clip0_5915_18901">
      <rect width="14" height="14" fill="white"/>
    </clipPath>
  </defs>
</svg>