<svg fill="none" viewBox="0 0 64 64" xmlns="http://www.w3.org/2000/svg"><defs><linearGradient id="__WEBTEAM_UI_SITE_HEADER_LOGO_ID__0" x1="1" x2="62.75" y1="63" y2="1.25" gradientUnits="userSpaceOnUse"><stop stop-color="#FF9419"></stop><stop offset="0.43" stop-color="#FF021D"></stop><stop offset="0.99" stop-color="#E600FF"></stop></linearGradient></defs><path fill="url(#__WEBTEAM_UI_SITE_HEADER_LOGO_ID__0)" d="M22.14 0H59c2.76 0 5 2.24 5 5v36.86c0 2.65-1.055 5.195-2.93 7.07L48.93 61.07A10.003 10.003 0 0 1 41.86 64H5c-2.76 0-5-2.24-5-5V22.14c0-2.65 1.055-5.195 2.93-7.07L15.07 2.93A10.003 10.003 0 0 1 22.14 0Z"></path><path fill="#000" d="M52 12H6v46h46V12Z"></path><g fill="#fff" class="jetbrains-simple_svg__letters-to-show-hovered"><path d="M11.92 21.49a.87.87 0 0 0 .1-.42V16h1.635v5.19c0 .43-.09.815-.275 1.145-.185.33-.45.585-.785.77-.34.185-.725.275-1.16.275H10v-1.505h1.22c.16 0 .3-.035.42-.1s.215-.16.28-.285ZM10 51h16v3H10v-3Zm6.595-30.63h3.475v-1.38h-3.475v-1.565h3.835V16h-5.425v7.38h5.53v-1.42h-3.94v-1.59Zm6.725-2.905h-2.19V16h6v1.465h-2.18v5.915h-1.63v-5.915Z"></path><path fill-rule="evenodd" d="M14.935 29.295a2.155 2.155 0 0 0-.4-.16 1.612 1.612 0 0 0 .94-.71 1.64 1.64 0 0 0 .23-.87c0-.375-.1-.71-.305-1.005a2.016 2.016 0 0 0-.86-.69c-.37-.165-.79-.25-1.26-.25H10v7.38h3.345c.495 0 .94-.085 1.325-.26.39-.175.69-.415.905-.725.215-.31.32-.66.32-1.06 0-.365-.085-.69-.255-.98a1.75 1.75 0 0 0-.705-.67Zm-3.35-2.445h1.45c.2 0 .38.035.53.11a.81.81 0 0 1 .36.31c.085.135.13.29.13.47s-.045.35-.13.49-.205.245-.36.32c-.155.075-.33.115-.53.115h-1.45V26.85Zm2.5 4.47a.91.91 0 0 1-.395.325c-.17.075-.365.115-.59.115h-1.515v-1.895H13.1c.22 0 .41.04.585.12.17.08.305.195.4.34.095.145.14.315.14.505s-.045.35-.14.49Zm8.375-2.14c-.225.355-.54.635-.95.83l-.005-.005c-.08.035-.16.07-.245.1l1.685 2.885H21.08l-1.495-2.69H18.52v2.69h-1.635v-7.38h3.23c.535 0 1.005.095 1.41.29.405.195.72.465.94.82.22.355.33.75.33 1.22s-.11.885-.335 1.24Zm-2.465-2.24h-1.47v2.045h1.47c.23 0 .425-.04.595-.125.17-.08.3-.2.39-.355.09-.155.135-.34.135-.545 0-.205-.045-.385-.135-.54a.897.897 0 0 0-.39-.355 1.305 1.305 0 0 0-.595-.125Zm5.745-1.325-2.635 7.38h1.66l.52-1.63h2.735l.56 1.63h1.63l-2.7-7.38h-1.77Zm-.085 4.515.85-2.605.1-.475.1.475.905 2.605h-1.955Z" clip-rule="evenodd"></path><path d="M30.95 25.615h1.685v7.38H30.95v-7.38Zm7.835 4.99-3.175-4.99h-1.59v7.38h1.49V28l3.16 4.995h1.61v-7.38h-1.495v4.99Zm7.28-1.595c.285.205.51.46.67.77h-.005c.16.31.24.645.24 1.01 0 .445-.12.845-.355 1.2s-.565.63-.99.83c-.425.2-.915.3-1.46.3-.545 0-1.03-.1-1.45-.295a2.378 2.378 0 0 1-.995-.82 2.169 2.169 0 0 1-.37-1.22h1.635c0 .19.055.36.155.505.1.145.24.255.425.335.18.08.395.12.62.12.225 0 .425-.035.59-.105a.91.91 0 0 0 .39-.3c.095-.13.14-.28.14-.445 0-.2-.065-.375-.19-.51s-.295-.23-.515-.285l-1.33-.275a2.436 2.436 0 0 1-.915-.395c-.26-.19-.465-.43-.61-.715a2.085 2.085 0 0 1-.215-.96c0-.44.11-.83.335-1.175.22-.345.535-.61.935-.805.4-.195.85-.29 1.37-.29.52 0 .98.095 1.38.28.405.185.72.445.945.775.225.33.345.71.355 1.14h-1.635c0-.16-.045-.3-.13-.425s-.205-.22-.36-.29c-.155-.07-.34-.105-.54-.105s-.375.035-.53.1a.822.822 0 0 0-.355.275.69.69 0 0 0-.125.415c0 .175.06.32.175.44.115.12.275.2.47.245l1.255.26c.37.07.7.21.99.415Z"></path></g></svg>