<svg viewBox="0 0 18 18" fill="none" xmlns="http://www.w3.org/2000/svg">
<path fill-rule="evenodd" clip-rule="evenodd" d="M8.00018 3.29608C9.56228 1.73399 12.0949 1.73399 13.657 3.29608C15.2191 4.85818 15.2191 7.39084 13.657 8.95294L12.7142 9.89575C12.4539 10.1561 12.0318 10.1561 11.7714 9.89575C11.5111 9.6354 11.5111 9.21329 11.7714 8.95294L12.7142 8.01013C13.7556 6.96873 13.7556 5.28029 12.7142 4.23889C11.6728 3.1975 9.98439 3.1975 8.94299 4.23889L8.00018 5.1817C7.73983 5.44205 7.31772 5.44205 7.05737 5.1817C6.79702 4.92135 6.79702 4.49924 7.05737 4.23889L8.00018 3.29608ZM10.8049 6.14819C11.0653 6.40854 11.0653 6.83065 10.8049 7.091L6.13825 11.7577C5.8779 12.018 5.45579 12.018 5.19544 11.7577C4.93509 11.4973 4.93509 11.0752 5.19544 10.8149L9.86211 6.14819C10.1225 5.88784 10.5446 5.88784 10.8049 6.14819ZM4.22894 8.01013C4.48929 8.27048 4.48929 8.69259 4.22894 8.95294L3.28613 9.89575C2.24474 10.9371 2.24474 12.6256 3.28613 13.667C4.32753 14.7084 6.01597 14.7084 7.05737 13.667L8.00018 12.7242C8.26053 12.4638 8.68264 12.4638 8.94299 12.7242C9.20334 12.9845 9.20334 13.4066 8.94299 13.667L8.00018 14.6098C6.43808 16.1719 3.90542 16.1719 2.34333 14.6098C0.781228 13.0477 0.781229 10.515 2.34333 8.95294L3.28613 8.01013C3.54648 7.74978 3.96859 7.74978 4.22894 8.01013Z" fill="#485264"/>
</svg>
