<svg  viewBox="0 0 16 17" fill="none" xmlns="http://www.w3.org/2000/svg">
<path d="M1.79445 5.66971C2.22155 5.66971 2.56778 5.32348 2.56778 4.89638C2.56778 4.46928 2.22155 4.12305 1.79445 4.12305C1.36735 4.12305 1.02112 4.46928 1.02112 4.89638C1.02112 5.32348 1.36735 5.66971 1.79445 5.66971Z" fill="#485264"/>
<path d="M4.79216 4.22971C4.42397 4.22971 4.12549 4.52819 4.12549 4.89638C4.12549 5.26457 4.42397 5.56305 4.79216 5.56305H14.3122C14.6804 5.56305 14.9789 5.26457 14.9789 4.89638C14.9789 4.52819 14.6804 4.22971 14.3122 4.22971H4.79216Z" fill="#485264"/>
<path d="M4.12549 8.0002C4.12549 7.63201 4.42397 7.33354 4.79216 7.33354H14.3122C14.6804 7.33354 14.9789 7.63201 14.9789 8.0002C14.9789 8.36839 14.6804 8.66687 14.3122 8.66687H4.79216C4.42397 8.66687 4.12549 8.36839 4.12549 8.0002Z" fill="#485264"/>
<path d="M1.79445 8.77353C2.22155 8.77353 2.56778 8.4273 2.56778 8.0002C2.56778 7.5731 2.22155 7.22687 1.79445 7.22687C1.36735 7.22687 1.02112 7.5731 1.02112 8.0002C1.02112 8.4273 1.36735 8.77353 1.79445 8.77353Z" fill="#485264"/>
<path d="M4.12549 11.1042C4.12549 10.736 4.42397 10.4375 4.79216 10.4375H14.3122C14.6804 10.4375 14.9789 10.736 14.9789 11.1042C14.9789 11.4724 14.6804 11.7709 14.3122 11.7709H4.79216C4.42397 11.7709 4.12549 11.4724 4.12549 11.1042Z" fill="#485264"/>
<path d="M1.79445 11.8775C2.22155 11.8775 2.56778 11.5313 2.56778 11.1042C2.56778 10.6771 2.22155 10.3309 1.79445 10.3309C1.36735 10.3309 1.02112 10.6771 1.02112 11.1042C1.02112 11.5313 1.36735 11.8775 1.79445 11.8775Z" fill="#485264"/>
</svg>
