<svg width="32" height="32" viewBox="0 0 32 32" fill="none" xmlns="http://www.w3.org/2000/svg">
<path d="M16 2C16.2652 2 16.5196 2.10536 16.7071 2.29289C16.8946 2.48043 17 2.73478 17 3V9C17 9.26522 16.8946 9.51957 16.7071 9.70711C16.5196 9.89464 16.2652 10 16 10C15.7348 10 15.4804 9.89464 15.2929 9.70711C15.1054 9.51957 15 9.26522 15 9V3C15 2.73478 15.1054 2.48043 15.2929 2.29289C15.4804 2.10536 15.7348 2 16 2ZM16 22C16.2652 22 16.5196 22.1054 16.7071 22.2929C16.8946 22.4804 17 22.7348 17 23V29C17 29.2652 16.8946 29.5196 16.7071 29.7071C16.5196 29.8946 16.2652 30 16 30C15.7348 30 15.4804 29.8946 15.2929 29.7071C15.1054 29.5196 15 29.2652 15 29V23C15 22.7348 15.1054 22.4804 15.2929 22.2929C15.4804 22.1054 15.7348 22 16 22ZM30 16C30 16.2652 29.8946 16.5196 29.7071 16.7071C29.5196 16.8946 29.2652 17 29 17H23C22.7348 17 22.4804 16.8946 22.2929 16.7071C22.1054 16.5196 22 16.2652 22 16C22 15.7348 22.1054 15.4804 22.2929 15.2929C22.4804 15.1054 22.7348 15 23 15H29C29.2652 15 29.5196 15.1054 29.7071 15.2929C29.8946 15.4804 30 15.7348 30 16ZM10 16C10 16.2652 9.89464 16.5196 9.70711 16.7071C9.51957 16.8946 9.26522 17 9 17H3C2.73478 17 2.48043 16.8946 2.29289 16.7071C2.10536 16.5196 2 16.2652 2 16C2 15.7348 2.10536 15.4804 2.29289 15.2929C2.48043 15.1054 2.73478 15 3 15H9C9.26522 15 9.51957 15.1054 9.70711 15.2929C9.89464 15.4804 10 15.7348 10 16ZM6.1 6.1C6.28753 5.91253 6.54184 5.80721 6.807 5.80721C7.07216 5.80721 7.32647 5.91253 7.514 6.1L11.76 10.344C11.9422 10.5326 12.043 10.7852 12.0407 11.0474C12.0384 11.3096 11.9332 11.5604 11.7478 11.7458C11.5624 11.9312 11.3116 12.0364 11.0494 12.0387C10.7872 12.041 10.5346 11.9402 10.346 11.758L6.1 7.514C5.91253 7.32647 5.80721 7.07216 5.80721 6.807C5.80721 6.54184 5.91253 6.28753 6.1 6.1ZM20.242 20.242C20.4295 20.0545 20.6838 19.9492 20.949 19.9492C21.2142 19.9492 21.4685 20.0545 21.656 20.242L25.9 24.486C26.0822 24.6746 26.183 24.9272 26.1807 25.1894C26.1784 25.4516 26.0732 25.7024 25.8878 25.8878C25.7024 26.0732 25.4516 26.1784 25.1894 26.1807C24.9272 26.183 24.6746 26.0822 24.486 25.9L20.242 21.656C20.0545 21.4685 19.9492 21.2142 19.9492 20.949C19.9492 20.6838 20.0545 20.4295 20.242 20.242ZM25.9 6.102C26.0869 6.28945 26.1918 6.54333 26.1918 6.808C26.1918 7.07267 26.0869 7.32655 25.9 7.514L21.656 11.76C21.4674 11.9422 21.2148 12.043 20.9526 12.0407C20.6904 12.0384 20.4396 11.9332 20.2542 11.7478C20.0688 11.5624 19.9636 11.3116 19.9613 11.0494C19.959 10.7872 20.0598 10.5346 20.242 10.346L24.486 6.102C24.6735 5.91453 24.9278 5.80921 25.193 5.80921C25.4582 5.80921 25.7125 5.91453 25.9 6.102ZM11.758 20.242C11.9455 20.4295 12.0508 20.6838 12.0508 20.949C12.0508 21.2142 11.9455 21.4685 11.758 21.656L7.514 25.9C7.3254 26.0822 7.0728 26.183 6.8106 26.1807C6.5484 26.1784 6.29759 26.0732 6.11218 25.8878C5.92677 25.7024 5.8216 25.4516 5.81933 25.1894C5.81705 24.9272 5.91784 24.6746 6.1 24.486L10.344 20.242C10.5315 20.0545 10.7858 19.9492 11.051 19.9492C11.3162 19.9492 11.5705 20.0545 11.758 20.242Z" fill="black"/>
</svg>
