<svg xmlns="http://www.w3.org/2000/svg"   viewBox="0 0 18 18" fill="none">
  <path fill-rule="evenodd" clip-rule="evenodd" d="M5.175 1.92749C5.175 1.51328 5.51079 1.17749 5.925 1.17749C6.33921 1.17749 6.675 1.51328 6.675 1.92749V3.06799H11.145V1.92749C11.145 1.51328 11.4808 1.17749 11.895 1.17749C12.3092 1.17749 12.645 1.51328 12.645 1.92749V3.06939C13.7947 3.07656 14.447 3.12044 14.9638 3.38886C15.4843 3.65926 15.9087 4.08368 16.1791 4.60421C16.5 5.22192 16.5 6.03344 16.5 7.65649V11.9117C16.5 13.5347 16.5 14.3462 16.1791 14.9639C15.9087 15.4845 15.4843 15.9089 14.9638 16.1793C14.3461 16.5002 13.5345 16.5002 11.9115 16.5002H6.0885C4.46545 16.5002 3.65393 16.5002 3.03622 16.1793C2.51569 15.9089 2.09127 15.4845 1.82087 14.9639C1.5 14.3462 1.5 13.5347 1.5 11.9117V7.65649C1.5 6.03344 1.5 5.22192 1.82087 4.60421C2.09127 4.08368 2.51569 3.65926 3.03622 3.38886C3.52537 3.13477 4.13605 3.08189 5.175 3.07088V1.92749ZM11.145 4.56799V5.24375C11.145 5.65797 11.4808 5.99375 11.895 5.99375C12.3092 5.99375 12.645 5.65796 12.645 5.24375V4.56949C13.0864 4.5723 13.4176 4.58029 13.6905 4.60295C14.079 4.63522 14.2133 4.6893 14.2723 4.71998C14.5189 4.84807 14.7199 5.04911 14.848 5.29568C14.8787 5.35474 14.9328 5.48895 14.965 5.87749C14.9988 6.28399 15 6.81979 15 7.65649V11.9117C15 12.7484 14.9988 13.2842 14.965 13.6907C14.9328 14.0792 14.8787 14.2134 14.848 14.2725C14.7199 14.5191 14.5189 14.7201 14.2723 14.8482C14.2133 14.8789 14.079 14.9329 13.6905 14.9652C13.284 14.999 12.7482 15.0002 11.9115 15.0002H6.0885C5.2518 15.0002 4.71599 14.999 4.3095 14.9652C3.92096 14.9329 3.78674 14.8789 3.72768 14.8482C3.48112 14.7201 3.28007 14.5191 3.15199 14.2725C3.12131 14.2134 3.06723 14.0792 3.03496 13.6907C3.00121 13.2842 3 12.7484 3 11.9117V7.65649C3 6.81979 3.00121 6.28399 3.03496 5.87749C3.06723 5.48895 3.12131 5.35474 3.15199 5.29568C3.28007 5.04911 3.48112 4.84807 3.72768 4.71998C3.78674 4.6893 3.92096 4.63522 4.3095 4.60295C4.54399 4.58348 4.82151 4.57484 5.175 4.57101V5.24375C5.175 5.65797 5.51079 5.99375 5.925 5.99375C6.33921 5.99375 6.675 5.65796 6.675 5.24375V4.56799H11.145ZM13.1258 8.2501C13.54 8.2501 13.8758 8.58589 13.8758 9.0001C13.8758 9.41431 13.54 9.7501 13.1258 9.7501H10.2613C9.84705 9.7501 9.51126 9.41431 9.51126 9.0001C9.51126 8.58589 9.84705 8.2501 10.2613 8.2501H13.1258ZM13.8758 12.0918C13.8758 11.6776 13.54 11.3418 13.1258 11.3418H5.96745C5.55324 11.3418 5.21745 11.6776 5.21745 12.0918C5.21745 12.506 5.55324 12.8418 5.96745 12.8418H13.1258C13.54 12.8418 13.8758 12.506 13.8758 12.0918Z" fill="currentColor"/>
</svg>