<svg xmlns="http://www.w3.org/2000/svg" width="30" height="30" viewBox="0 0 30 30" fill="none">
  <path d="M25.0626 22.5433C25.0626 25.3209 20.5606 27.5706 15.0078 27.5706C9.45512 27.5706 4.95312 25.3209 4.95312 22.5433V17.4832C5.58406 18.2587 6.48019 18.9022 7.47686 19.3999C9.45261 20.3878 12.1171 20.9722 15.0078 20.9722C17.8986 20.9722 20.5631 20.3878 22.5388 19.4012C23.5355 18.9022 24.4316 18.2575 25.0626 17.4832V22.5433Z" fill="#111824"/>
  <path d="M15.0078 13.4312C17.8986 13.4312 20.5631 12.8468 22.5388 11.8601C23.5355 11.3612 24.4316 10.7164 25.0626 9.9422V15.0022C25.0626 15.6307 22.8178 17.0019 21.6955 17.7145C20.0327 18.5453 17.6698 19.087 15.0078 19.087C12.3459 19.087 9.983 18.5465 8.3202 17.7145C6.83838 16.973 4.95312 15.6307 4.95312 15.0022V9.9422C5.58406 10.7177 6.48019 11.3612 7.47686 11.8589C9.45261 12.8468 12.1171 13.4312 15.0078 13.4312Z" fill="#111824"/>
  <path d="M21.6955 10.1735C20.0327 11.0042 17.6698 11.5459 15.0078 11.5459C12.3459 11.5459 9.983 11.0055 8.3202 10.1735C7.67293 9.91958 6.21751 9.11394 5.20575 7.81185C5.12065 7.70239 5.05881 7.5767 5.02401 7.44249C4.98921 7.30828 4.9822 7.16838 5.0034 7.03136C5.03231 6.84535 5.07252 6.65305 5.12406 6.53365C5.99379 4.20095 10.0886 2.43384 15.0078 2.43384C19.9271 2.43384 24.0219 4.20095 24.8916 6.53365C24.9432 6.65305 24.9834 6.84535 25.0123 7.03136C25.0333 7.16846 25.0261 7.30842 24.9911 7.44263C24.9561 7.57685 24.894 7.70249 24.8087 7.81185C23.7982 9.11394 22.3428 9.91958 21.6955 10.1735Z" fill="#111824"/>
</svg>