<svg width="30" height="30" viewBox="0 0 30 30" fill="none" xmlns="http://www.w3.org/2000/svg">
<path fill-rule="evenodd" clip-rule="evenodd" d="M19.5016 2.57798C20.0375 2.54671 20.5692 2.68873 21.0181 2.98305L26.4802 6.56438C27.0087 6.91092 27.3271 7.50039 27.3271 8.13239V24.7962C27.3271 25.7995 26.5375 26.6249 25.5352 26.6694L8.51603 27.4244C7.89714 27.4518 7.30464 27.1718 6.93294 26.6762L3.173 21.663C2.84844 21.2302 2.673 20.7039 2.673 20.163L2.67297 4.73927C2.67297 4.0772 3.1892 3.52997 3.85015 3.4914L19.5016 2.57798ZM18.6018 5.06324C18.917 5.04399 19.334 5.16723 19.6815 5.38242L21.9064 6.75981C22.4054 7.06877 22.4556 7.46822 21.9982 7.49058L10.7897 8.03852C10.3819 8.05845 9.82737 7.84626 9.46907 7.53311L8.18486 6.41072C7.78771 6.06362 7.83374 5.72073 8.28115 5.69341L18.6018 5.06324ZM16.3611 22.27C16.0744 22.2158 15.8916 21.9436 15.9449 21.65L17.3732 13.7847C17.4308 13.4676 17.7396 13.2502 18.0493 13.3087L18.6923 13.4302C18.979 13.4844 19.1618 13.7566 19.1085 14.0502L17.6802 21.9155C17.6226 22.2326 17.3138 22.45 17.0041 22.3915L16.3611 22.27ZM14.1162 14.095C13.8926 13.8566 13.5007 13.8809 13.282 14.1468L11.572 16.2259L10.1647 17.9407C9.9831 18.162 9.98616 18.4757 10.1719 18.6742L11.7231 20.332L13.3591 22.0762C13.5827 22.3146 13.9746 22.2903 14.1933 22.0244L14.6941 21.4156C14.8762 21.1941 14.8732 20.8797 14.6869 20.6811L12.66 18.52C12.4737 18.3214 12.4707 18.0071 12.6528 17.7856L14.6353 15.3753C14.8175 15.1538 14.8145 14.8394 14.6282 14.6408L14.1162 14.095ZM21.6943 13.6239L23.4117 15.455L24.8816 17.026C25.0673 17.2244 25.0703 17.5381 24.8887 17.7594L23.4511 19.5111L21.7714 21.5534C21.5527 21.8192 21.1608 21.8436 20.9372 21.6052L20.4252 21.0593C20.2389 20.8608 20.2359 20.5464 20.4181 20.3249L22.4006 17.9146C22.5827 17.6931 22.5797 17.3787 22.3934 17.1801L20.3665 15.019C20.1802 14.8204 20.1772 14.5061 20.3594 14.2846L20.8601 13.6758C21.0788 13.4099 21.4707 13.3855 21.6943 13.6239Z" fill="url(#paint0_linear_283_8035)"/>
<defs>
<linearGradient id="paint0_linear_283_8035" x1="14.7949" y1="1.36596" x2="4.48029" y2="27.4262" gradientUnits="userSpaceOnUse">
<stop stop-color="#213654"/>
<stop offset="1" stop-color="#0F1D32"/>
</linearGradient>
</defs>
</svg>
