<svg  viewBox="0 0 18 18" fill="none" xmlns="http://www.w3.org/2000/svg">
<path fill-rule="evenodd" clip-rule="evenodd" d="M10 3.61995C9.63185 3.61995 9.33337 3.32148 9.33337 2.95329C9.33337 2.5851 9.63185 2.28662 10 2.28662H14C14.3682 2.28662 14.6667 2.5851 14.6667 2.95329V6.95329C14.6667 7.32148 14.3682 7.61995 14 7.61995C13.6319 7.61995 13.3334 7.32148 13.3334 6.95329V4.56276L9.80478 8.09136C9.54443 8.35171 9.12232 8.35171 8.86197 8.09136C8.60162 7.83101 8.60162 7.4089 8.86197 7.14855L12.3906 3.61995H10ZM7.13811 9.81522C7.39846 10.0756 7.39846 10.4977 7.13811 10.758L3.60952 14.2866H6.00004C6.36823 14.2866 6.66671 14.5851 6.66671 14.9533C6.66671 15.3215 6.36823 15.62 6.00004 15.62H2.00004C1.82323 15.62 1.65366 15.5497 1.52864 15.4247C1.40361 15.2997 1.33337 15.1301 1.33337 14.9533L1.33337 10.9533C1.33337 10.5851 1.63185 10.2866 2.00004 10.2866C2.36823 10.2866 2.66671 10.5851 2.66671 10.9533L2.66671 13.3438L6.1953 9.81522C6.45565 9.55487 6.87776 9.55487 7.13811 9.81522Z" fill="#485264"/>
</svg>
