<svg  viewBox="0 0 16 17" fill="none" xmlns="http://www.w3.org/2000/svg">
<path d="M2.06682 5.99984C1.87793 5.99984 1.71948 5.93584 1.59148 5.80784C1.46348 5.67984 1.3997 5.52162 1.40015 5.33317V3.99984C1.40015 3.63317 1.53082 3.31917 1.79215 3.05784C2.05348 2.7965 2.36726 2.66606 2.73348 2.66651H13.4001C13.7668 2.66651 14.0808 2.79717 14.3421 3.0585C14.6035 3.31984 14.7339 3.63362 14.7335 3.99984V5.33317C14.7335 5.52206 14.6695 5.68051 14.5415 5.80851C14.4135 5.93651 14.2553 6.00028 14.0668 5.99984C13.8779 5.99984 13.7195 5.93584 13.5915 5.80784C13.4635 5.67984 13.3997 5.52162 13.4001 5.33317V3.99984H2.73348V5.33317C2.73348 5.52206 2.66948 5.68051 2.54148 5.80851C2.41348 5.93651 2.25526 6.00028 2.06682 5.99984ZM2.73348 13.3332C2.36682 13.3332 2.05282 13.2025 1.79148 12.9412C1.53015 12.6798 1.3997 12.3661 1.40015 11.9998V10.6665C1.40015 10.4776 1.46415 10.3192 1.59215 10.1912C1.72015 10.0632 1.87837 9.99939 2.06682 9.99984C2.2557 9.99984 2.41415 10.0638 2.54215 10.1918C2.67015 10.3198 2.73393 10.4781 2.73348 10.6665V11.9998H13.4001V10.6665C13.4001 10.4776 13.4641 10.3192 13.5921 10.1912C13.7201 10.0632 13.8784 9.99939 14.0668 9.99984C14.2557 9.99984 14.4141 10.0638 14.5421 10.1918C14.6701 10.3198 14.7339 10.4781 14.7335 10.6665V11.9998C14.7335 12.3665 14.6028 12.6805 14.3415 12.9418C14.0801 13.2032 13.7664 13.3336 13.4001 13.3332H2.73348ZM6.73348 11.3332C6.8557 11.3332 6.97237 11.3025 7.08348 11.2412C7.19459 11.1798 7.27793 11.0883 7.33348 10.9665L9.40015 6.83317L10.1335 8.29984C10.189 8.42206 10.2724 8.51384 10.3835 8.57517C10.4946 8.63651 10.6113 8.66695 10.7335 8.66651H14.0668C14.2557 8.66651 14.4141 8.60251 14.5421 8.47451C14.6701 8.34651 14.7339 8.18828 14.7335 7.99984C14.7335 7.81095 14.6695 7.6525 14.5415 7.52451C14.4135 7.39651 14.2553 7.33273 14.0668 7.33317H11.1501L10.0001 5.03317C9.87793 4.81095 9.67793 4.69984 9.40015 4.69984C9.12237 4.69984 8.92237 4.81095 8.80015 5.03317L6.73348 9.16651L6.00015 7.69984C5.94459 7.57762 5.86126 7.48584 5.75015 7.42451C5.63904 7.36317 5.52237 7.33273 5.40015 7.33317H2.06682C1.87793 7.33317 1.71948 7.39717 1.59148 7.52517C1.46348 7.65317 1.3997 7.81139 1.40015 7.99984C1.40015 8.18873 1.46415 8.34717 1.59215 8.47517C1.72015 8.60317 1.87837 8.66695 2.06682 8.66651H4.98348L6.13348 10.9665C6.18904 11.0887 6.27237 11.1805 6.38348 11.2418C6.49459 11.3032 6.61126 11.3336 6.73348 11.3332Z" fill="#485264"/>
</svg>
