<svg width="21" height="21" viewBox="0 0 21 21" fill="none" xmlns="http://www.w3.org/2000/svg">
<path opacity="0.5" d="M11.1667 2.08203H9.50008C7.92841 2.08203 7.14341 2.08203 6.65508 2.57036C6.16675 3.0587 6.16675 3.8437 6.16675 5.41536V8.7487H14.5001V5.41536C14.5001 3.8437 14.5001 3.0587 14.0117 2.57036C13.5234 2.08203 12.7384 2.08203 11.1667 2.08203Z" fill="#FDB022"/>
<path fill-rule="evenodd" clip-rule="evenodd" d="M10.3334 18.7493C12.1015 18.7493 13.7972 18.047 15.0475 16.7967C16.2977 15.5465 17.0001 13.8508 17.0001 12.0827C17.0001 10.3146 16.2977 8.61888 15.0475 7.36864C13.7972 6.11839 12.1015 5.41602 10.3334 5.41602C8.5653 5.41602 6.86961 6.11839 5.61937 7.36864C4.36913 8.61888 3.66675 10.3146 3.66675 12.0827C3.66675 13.8508 4.36913 15.5465 5.61937 16.7967C6.86961 18.047 8.5653 18.7493 10.3334 18.7493ZM10.3334 9.58268C10.0967 9.58268 9.93841 9.86602 9.62175 10.4352L9.54008 10.5818C9.45008 10.7435 9.40508 10.8235 9.33508 10.8768C9.26425 10.9302 9.17675 10.9502 9.00175 10.9893L8.84341 11.026C8.22841 11.1652 7.92091 11.2343 7.84758 11.4693C7.77425 11.7052 7.98425 11.9502 8.40341 12.4402L8.51175 12.5668C8.63091 12.706 8.69091 12.7752 8.71758 12.8618C8.74425 12.9485 8.73508 13.041 8.71758 13.2268L8.70091 13.396C8.63758 14.0502 8.60591 14.3777 8.79675 14.5227C8.98841 14.6677 9.27675 14.5352 9.85258 14.2702L10.0009 14.2018C10.1651 14.1268 10.2467 14.0885 10.3334 14.0885C10.4201 14.0885 10.5017 14.1268 10.6659 14.2018L10.8142 14.2702C11.3901 14.536 11.6784 14.6677 11.8701 14.5227C12.0617 14.3777 12.0292 14.0502 11.9659 13.396L11.9492 13.2268C11.9317 13.041 11.9226 12.9485 11.9492 12.8618C11.9759 12.776 12.0359 12.706 12.1551 12.5668L12.2634 12.4402C12.6826 11.9502 12.8926 11.7052 12.8192 11.4693C12.7459 11.2343 12.4384 11.1652 11.8234 11.026L11.6651 10.9893C11.4901 10.9502 11.4026 10.931 11.3317 10.8768C11.2617 10.8235 11.2167 10.7435 11.1267 10.5818L11.0451 10.4352C10.7284 9.86602 10.5701 9.58268 10.3334 9.58268Z" fill="#FDB022"/>
</svg>
