<svg xmlns="http://www.w3.org/2000/svg"  viewBox="0 0 16 17" fill="none">
  <path d="M7.99999 7.30176C8.44202 7.30176 8.86594 7.47735 9.1785 7.78991C9.49106 8.10247 9.66666 8.5264 9.66666 8.96842C9.66666 9.41045 9.49106 9.83438 9.1785 10.1469C8.86594 10.4595 8.44202 10.6351 7.99999 10.6351C7.55796 10.6351 7.13404 10.4595 6.82148 10.1469C6.50892 9.83438 6.33332 9.41045 6.33332 8.96842C6.33332 8.5264 6.50892 8.10247 6.82148 7.78991C7.13404 7.47735 7.55796 7.30176 7.99999 7.30176ZM7.99999 4.80176C10.4793 4.80176 12.6354 6.17814 13.7536 8.20804C13.8619 8.40459 13.916 8.50287 13.9566 8.70171C13.9834 8.83273 13.9834 9.10412 13.9566 9.23514C13.916 9.43398 13.8619 9.53226 13.7536 9.72881C12.6354 11.7587 10.4793 13.1351 7.99999 13.1351C5.52073 13.1351 3.36454 11.7587 2.24638 9.72881C2.13811 9.53226 2.08397 9.43398 2.04338 9.23514C2.01663 9.10412 2.01663 8.83273 2.04338 8.70171C2.08397 8.50287 2.13811 8.40459 2.24638 8.20804C3.36454 6.17814 5.52073 4.80176 7.99999 4.80176ZM3.64632 8.07968C3.49816 8.27582 3.42408 8.37389 3.35702 8.62724C3.31547 8.78421 3.31547 9.15264 3.35702 9.30961C3.42408 9.56296 3.49816 9.66103 3.64632 9.85717C4.0471 10.3878 4.54332 10.843 5.11248 11.198C5.97869 11.7383 6.9791 12.0247 7.99999 12.0247C9.02088 12.0247 10.0213 11.7383 10.8875 11.198C11.4567 10.843 11.9529 10.3878 12.3537 9.85717C12.5018 9.66103 12.5759 9.56296 12.643 9.30961C12.6845 9.15264 12.6845 8.78421 12.643 8.62724C12.5759 8.37389 12.5018 8.27582 12.3537 8.07968C11.9529 7.54909 11.4567 7.09384 10.8875 6.73884C10.0213 6.19856 9.02088 5.91214 7.99999 5.91214C6.9791 5.91214 5.97869 6.19856 5.11248 6.73884C4.54332 7.09384 4.0471 7.54909 3.64632 8.07968Z" fill="currentColor"/>
</svg>