<svg viewBox="0 0 16 17" fill="none" xmlns="http://www.w3.org/2000/svg">
<path d="M5.87868 2.66683H10.1214C10.8651 2.66683 11.3414 2.6679 11.7027 2.69791C12.0481 2.72659 12.1674 2.77466 12.2199 2.80193C12.439 2.91578 12.6177 3.09449 12.7316 3.31366C12.7589 3.36616 12.8069 3.48546 12.8356 3.83083C12.8656 4.19216 12.8667 4.66843 12.8667 5.41216V6.32693C12.8667 6.69512 13.1652 6.9936 13.5334 6.9936C13.9015 6.9936 14.2 6.69512 14.2 6.32693V5.41216C14.2 3.96945 14.2 3.2481 13.9148 2.69903C13.6744 2.23633 13.2972 1.85907 12.8345 1.61872C12.2854 1.3335 11.5641 1.3335 10.1214 1.3335H5.87868C4.43598 1.3335 3.71462 1.3335 3.16555 1.61872C2.70285 1.85907 2.32559 2.23633 2.08524 2.69903C1.80002 3.2481 1.80002 3.96945 1.80002 5.41216V10.5882C1.80002 12.0309 1.80002 12.7522 2.08524 13.3013C2.32559 13.764 2.70285 14.1413 3.16555 14.3816C3.71462 14.6668 4.43598 14.6668 5.87869 14.6668H6.20336C6.57155 14.6668 6.87003 14.3684 6.87003 14.0002C6.87003 13.632 6.57155 13.3335 6.20336 13.3335H5.87869C5.13495 13.3335 4.65868 13.3324 4.29735 13.3024C3.95198 13.2737 3.83268 13.2257 3.78018 13.1984C3.56101 13.0845 3.38231 12.9058 3.26846 12.6867C3.24119 12.6342 3.19311 12.5149 3.16443 12.1695C3.13442 11.8082 3.13335 11.3319 3.13335 10.5882V5.41216C3.13335 4.66843 3.13442 4.19216 3.16443 3.83083C3.19311 3.48546 3.24119 3.36616 3.26846 3.31366C3.38231 3.09449 3.56101 2.91578 3.78018 2.80193C3.83268 2.77466 3.95198 2.72659 4.29735 2.69791C4.65868 2.6679 5.13495 2.66683 5.87868 2.66683Z" fill="#485264"/>
<path d="M5.23638 4.05968C4.86819 4.05968 4.56971 4.35816 4.56971 4.72635C4.56971 5.09454 4.86819 5.39302 5.23638 5.39302H10.7636C11.1318 5.39302 11.4303 5.09454 11.4303 4.72635C11.4303 4.35816 11.1318 4.05968 10.7636 4.05968H5.23638Z" fill="#485264"/>
<path d="M4.56971 7.20279C4.56971 6.8346 4.86819 6.53612 5.23638 6.53612H6.72523C7.09342 6.53612 7.3919 6.8346 7.3919 7.20279C7.3919 7.57098 7.09342 7.86946 6.72523 7.86946H5.23638C4.86819 7.86946 4.56971 7.57098 4.56971 7.20279Z" fill="#485264"/>
<path fill-rule="evenodd" clip-rule="evenodd" d="M15.2675 11.2681C15.2675 13.5195 13.4424 15.3447 11.191 15.3447C8.93957 15.3447 7.11445 13.5195 7.11445 11.2681C7.11445 9.01674 8.93957 7.19162 11.191 7.19162C13.4424 7.19162 15.2675 9.01674 15.2675 11.2681ZM14.0675 11.2681C14.0675 12.8568 12.7796 14.1447 11.191 14.1447C9.60231 14.1447 8.31445 12.8568 8.31445 11.2681C8.31445 9.67948 9.60231 8.39162 11.191 8.39162C12.7796 8.39162 14.0675 9.67948 14.0675 11.2681Z" fill="#485264"/>
<path d="M11.191 9.28113C10.8596 9.28113 10.591 9.54976 10.591 9.88113V11.1348C10.591 11.2652 10.6326 11.3859 10.7033 11.4844C10.7539 11.5881 10.8349 11.6784 10.9423 11.7404L12.0294 12.368C12.3164 12.5337 12.6834 12.4354 12.849 12.1484C13.0147 11.8615 12.9164 11.4945 12.6294 11.3288L11.791 10.8447V9.88113C11.791 9.54976 11.5223 9.28113 11.191 9.28113Z" fill="#485264"/>
</svg>
