<svg width="16" height="16" viewBox="0 0 24 24" fill="currentColor" xmlns="http://www.w3.org/2000/svg">
<path fill-rule="evenodd" clip-rule="evenodd" d="M18.455 2.34081L18.7201 2.37408C19.4208 2.47076 20.3481 2.60071 20.8731 3.12673C21.3035 3.55608 21.4688 4.25467 21.5675 4.87842L21.6257 5.27969C21.7567 6.22571 21.791 7.46488 21.5675 8.84128C21.1267 11.5577 19.6807 14.7991 16.0494 17.3086C16.0297 17.5041 16.0286 17.7016 16.0328 17.8991L16.0432 18.1943C16.0598 18.6486 16.0765 19.1019 15.9496 19.5437C15.7521 20.2298 15.0483 20.6821 14.3903 21.0064L14.068 21.1592L13.6522 21.3422C12.8746 21.6728 11.8246 22.0117 11.1666 21.3526C10.7715 20.9586 10.6093 20.3806 10.4773 19.8057L10.4285 19.5905C10.3734 19.3188 10.304 19.0502 10.2205 18.7859C10.1686 18.6341 10.1124 18.4792 10.0521 18.3233C9.98576 18.4047 9.91533 18.4828 9.84109 18.5572C9.48244 18.9158 8.94706 19.1663 8.50628 19.342C8.02495 19.5323 7.48022 19.6986 6.97602 19.8358L6.71717 19.9044L6.22129 20.0282L5.77219 20.1321L5.23473 20.2465L4.89895 20.312C4.73148 20.343 4.55899 20.3328 4.39634 20.2823C4.23369 20.2317 4.08578 20.1424 3.96535 20.022C3.84492 19.9016 3.7556 19.7536 3.70508 19.591C3.65456 19.4283 3.64436 19.2558 3.67537 19.0884L3.76477 18.6403L3.92487 17.9147L4.05377 17.3845L4.15149 17.0103C4.28872 16.5071 4.45505 15.9624 4.64633 15.4821C4.82098 15.0403 5.07152 14.5049 5.43017 14.1462L5.51334 14.0662L5.44681 14.0392C5.26914 13.9716 5.08918 13.9102 4.90726 13.8552L4.6193 13.7668C3.89784 13.5485 3.12647 13.3135 2.64723 12.8333C2.06506 12.2521 2.26154 11.3675 2.54223 10.6314L2.65658 10.3466L2.84059 9.93076L2.99341 9.60849C3.31775 8.95148 3.76997 8.24768 4.45609 8.05016C4.81994 7.94621 5.19835 7.93997 5.57883 7.95037L5.80754 7.95764C6.10486 7.96804 6.40114 7.97947 6.69118 7.9514C9.20071 4.31913 12.4421 2.87308 15.1585 2.4323C16.2482 2.25357 17.3571 2.2228 18.455 2.34081ZM8.2547 15.5174C8.09108 15.3963 7.89554 15.3259 7.69229 15.3148C7.48903 15.3037 7.28698 15.3525 7.11117 15.4551L6.99681 15.532L6.90013 15.6183L6.77019 15.7825C6.4999 16.1734 6.34604 16.714 6.22649 17.2192L6.11421 17.7057L6.06119 17.9272L6.25975 17.8794L6.6943 17.7796C7.29517 17.6392 7.96154 17.4573 8.37113 17.0882C8.54922 16.9102 8.65666 16.6737 8.67348 16.4224C8.69031 16.1712 8.61538 15.9224 8.46262 15.7222L8.37737 15.6245L8.35242 15.6006L8.2547 15.5174ZM15.722 8.26744C15.5289 8.07433 15.2998 7.92114 15.0475 7.8166C14.7953 7.71207 14.5249 7.65824 14.2519 7.65819C13.9788 7.65814 13.7084 7.71187 13.4562 7.81632C13.2039 7.92077 12.9746 8.07388 12.7815 8.26692C12.5884 8.45995 12.4352 8.68914 12.3307 8.94138C12.2262 9.19362 12.1723 9.46398 12.1723 9.73703C12.1722 10.0101 12.226 10.2805 12.3304 10.5327C12.4349 10.785 12.588 11.0143 12.781 11.2074C13.1709 11.5974 13.6997 11.8165 14.2511 11.8166C14.8026 11.8167 15.3315 11.5977 15.7215 11.2079C16.1114 10.818 16.3306 10.2892 16.3307 9.73776C16.3308 9.18632 16.1118 8.65743 15.722 8.26744Z"/>
</svg>
