<svg xmlns="http://www.w3.org/2000/svg" width="16" height="17" viewBox="0 0 16 17" fill="none">
  <path fill-rule="evenodd" clip-rule="evenodd" d="M7.33333 3.15951C4.756 3.15951 2.66666 5.24884 2.66666 7.82617C2.66666 10.4035 4.756 12.4928 7.33333 12.4928C8.59063 12.4928 9.73179 11.9956 10.5709 11.1871C10.5885 11.1643 10.6077 11.1423 10.6286 11.1214C10.6495 11.1005 10.6714 11.0813 10.6943 11.0638C11.5028 10.2246 12 9.08347 12 7.82617C12 5.24884 9.91066 3.15951 7.33333 3.15951ZM12.0213 11.5713C12.8423 10.5448 13.3333 9.24285 13.3333 7.82617C13.3333 4.51246 10.647 1.82617 7.33333 1.82617C4.01962 1.82617 1.33333 4.51246 1.33333 7.82617C1.33333 11.1399 4.01962 13.8262 7.33333 13.8262C8.75 13.8262 10.052 13.3352 11.0785 12.5141L13.5286 14.9642C13.7889 15.2246 14.2111 15.2246 14.4714 14.9642C14.7317 14.7039 14.7317 14.2818 14.4714 14.0214L12.0213 11.5713Z" fill="#485264"/>
</svg>