<svg xmlns="http://www.w3.org/2000/svg" viewBox="0 0 20 21" fill="none">
  <path fill-rule="evenodd" clip-rule="evenodd" d="M7.52585 3.45764C8.42216 1.22856 11.5778 1.22856 12.4741 3.45764C12.5267 3.5884 12.5929 3.82053 12.6837 4.13924C12.6912 4.1653 12.6988 4.19193 12.7065 4.21914C12.7465 4.35935 12.7565 4.39283 12.7647 4.41598C12.9288 4.8799 13.4061 5.15545 13.8899 5.06563C13.9141 5.06115 13.9481 5.05305 14.0895 5.0176C14.1169 5.01072 14.1438 5.00398 14.1701 4.99738C14.4915 4.91671 14.7256 4.85796 14.8652 4.83811C17.2438 4.4998 18.8216 7.23268 17.3393 9.12346C17.2524 9.23436 17.0844 9.40775 16.8538 9.64579C16.835 9.66525 16.8157 9.68514 16.796 9.70546C16.6946 9.81022 16.6706 9.8356 16.6547 9.85426C16.335 10.2284 16.335 10.7795 16.6547 11.1536C16.6706 11.1722 16.6946 11.1976 16.796 11.3024C16.8157 11.3227 16.835 11.3426 16.8538 11.3621C17.0844 11.6001 17.2524 11.7735 17.3393 11.8844C18.8216 13.7752 17.2438 16.508 14.8652 16.1697C14.7256 16.1499 14.4915 16.0911 14.17 16.0104C14.1437 16.0038 14.1169 15.9971 14.0895 15.9902C13.9481 15.9548 13.9141 15.9467 13.8899 15.9422C13.4061 15.8524 12.9288 16.1279 12.7647 16.5919C12.7565 16.615 12.7465 16.6485 12.7065 16.7887C12.6988 16.8159 12.6912 16.8426 12.6837 16.8686C12.5929 17.1873 12.5267 17.4194 12.4741 17.5502C11.5778 19.7793 8.42216 19.7793 7.52585 17.5502C7.47327 17.4194 7.40709 17.1873 7.31623 16.8686C7.3088 16.8425 7.30121 16.8159 7.29345 16.7887C7.25344 16.6485 7.24346 16.615 7.23527 16.5919C7.07113 16.1279 6.59387 15.8524 6.11003 15.9422C6.0859 15.9467 6.05191 15.9548 5.91048 15.9902C5.88302 15.9971 5.85613 16.0039 5.82983 16.0105C5.50843 16.0911 5.27432 16.1499 5.13481 16.1697C2.7562 16.508 1.17837 13.7752 2.66066 11.8844C2.74761 11.7735 2.91555 11.6001 3.14613 11.3621C3.16498 11.3426 3.18426 11.3227 3.20394 11.3024C3.30535 11.1976 3.32937 11.1722 3.34532 11.1536C3.66502 10.7795 3.66502 10.2284 3.34532 9.85426C3.32937 9.8356 3.30536 9.81022 3.20394 9.70546C3.18426 9.68514 3.16499 9.66524 3.14614 9.64578C2.91556 9.40774 2.74761 9.23436 2.66066 9.12345C1.17837 7.23268 2.7562 4.4998 5.13481 4.83811C5.27433 4.85796 5.50845 4.91671 5.82989 4.99738C5.85617 5.00398 5.88304 5.01072 5.91048 5.0176C6.05191 5.05305 6.0859 5.06115 6.11003 5.06564C6.59387 5.15545 7.07113 4.8799 7.23527 4.41598C7.24346 4.39283 7.25344 4.35935 7.29345 4.21914C7.30121 4.19194 7.3088 4.16531 7.31623 4.13926C7.40709 3.82054 7.47327 3.5884 7.52585 3.45764ZM10.9278 4.07943C10.5917 3.24352 9.40831 3.24352 9.07219 4.07943C9.07218 4.07942 9.07236 4.079 9.07219 4.07943C9.07221 4.07943 9.06873 4.08859 9.06044 4.11412C9.05146 4.1418 9.0398 4.17959 9.02444 4.23128C8.9935 4.33537 8.95286 4.47773 8.89613 4.67652C8.894 4.684 8.89189 4.69139 8.88981 4.69869C8.85948 4.80505 8.83436 4.89313 8.8065 4.97189C8.36879 6.20901 7.09609 6.94381 5.80586 6.70431C5.72372 6.68906 5.63488 6.66677 5.5276 6.63986C5.52023 6.63801 5.51279 6.63614 5.50525 6.63425C5.30472 6.58399 5.16111 6.548 5.0555 6.52275C5.00305 6.51021 4.96449 6.50141 4.93604 6.49535C4.90978 6.48976 4.89942 6.48809 4.89942 6.48808C4.89896 6.48801 4.89942 6.48807 4.89942 6.48808C4.00744 6.36121 3.41645 7.38614 3.97231 8.09518C3.97015 8.09241 3.9758 8.09973 3.99649 8.12269C4.01596 8.14431 4.04287 8.1733 4.07995 8.21245C4.15463 8.29129 4.25759 8.39767 4.40139 8.54619C4.4068 8.55178 4.41215 8.55731 4.41744 8.56277C4.49438 8.64221 4.55809 8.708 4.61236 8.7715C5.46489 9.76912 5.46489 11.2387 4.61236 12.2363C4.55809 12.2999 4.49436 12.3657 4.4174 12.4451C4.41212 12.4506 4.40679 12.4561 4.40139 12.4616C4.25759 12.6102 4.15463 12.7166 4.07995 12.7954C4.04287 12.8345 4.01596 12.8635 3.99649 12.8851C3.97852 12.9051 3.9719 12.9132 3.97188 12.9132C3.9716 12.9136 3.97188 12.9132 3.97188 12.9132C3.41602 13.6223 4.00814 14.6465 4.90012 14.5197C4.89664 14.5202 4.90581 14.5189 4.93604 14.5125C4.96449 14.5064 5.00305 14.4976 5.05549 14.4851C5.16111 14.4598 5.30472 14.4239 5.50525 14.3736L5.5276 14.368C5.63488 14.3411 5.72372 14.3188 5.80586 14.3035C7.09609 14.064 8.36879 14.7988 8.8065 16.0359C8.83436 16.1147 8.85948 16.2028 8.88981 16.3091L8.89613 16.3313C8.95286 16.5301 8.9935 16.6725 9.02444 16.7766C9.0398 16.8283 9.05146 16.866 9.06044 16.8937C9.06873 16.9192 9.07247 16.9291 9.07245 16.9291C9.07245 16.9291 9.07262 16.9295 9.07245 16.9291C9.40857 17.765 10.5917 17.7643 10.9278 16.9284C10.9265 16.9317 10.93 16.9231 10.9395 16.8937C10.9485 16.866 10.9602 16.8283 10.9755 16.7766C11.0065 16.6725 11.0471 16.5301 11.1039 16.3313L11.1102 16.3091C11.1405 16.2028 11.1656 16.1147 11.1935 16.036C11.6312 14.7988 12.9039 14.064 14.1941 14.3035C14.2763 14.3188 14.3651 14.3411 14.4724 14.368C14.4798 14.3698 14.4872 14.3717 14.4947 14.3736C14.6953 14.4239 14.8389 14.4598 14.9445 14.4851C14.9969 14.4976 15.0355 14.5064 15.0639 14.5125C15.0902 14.5181 15.1006 14.5197 15.1006 14.5198C15.1006 14.5198 15.101 14.5198 15.1006 14.5198C15.9925 14.6466 16.5835 13.6217 16.0277 12.9127C16.0277 12.9127 16.028 12.913 16.0277 12.9127C16.0277 12.9127 16.0215 12.9051 16.0035 12.8851C15.984 12.8635 15.9571 12.8345 15.92 12.7954C15.8454 12.7165 15.7424 12.6102 15.5986 12.4616L15.5825 12.4451C15.5056 12.3656 15.4419 12.2998 15.3876 12.2363C14.5351 11.2387 14.5351 9.76912 15.3876 8.7715C15.4419 8.708 15.5056 8.64221 15.5825 8.56277L15.5986 8.54619C15.7424 8.39767 15.8454 8.29129 15.92 8.21245C15.9571 8.1733 15.984 8.14431 16.0035 8.12269C16.0215 8.10275 16.0281 8.09461 16.0281 8.09462C16.0281 8.09462 16.0284 8.09426 16.0281 8.09462C16.584 7.38558 15.9918 6.3613 15.0999 6.48817C15.1033 6.48768 15.0942 6.48892 15.0639 6.49535C15.0355 6.50141 14.9969 6.51021 14.9445 6.52275C14.8389 6.548 14.6953 6.58399 14.4947 6.63425L14.4724 6.63986C14.3651 6.66677 14.2763 6.68906 14.1941 6.70431C12.9039 6.94381 11.6312 6.20901 11.1935 4.97189C11.1656 4.89314 11.1405 4.80507 11.1102 4.69874L11.1039 4.67653C11.0471 4.47773 11.0065 4.33537 10.9755 4.23128C10.9602 4.17959 10.9485 4.1418 10.9395 4.11412C10.9312 4.08859 10.9278 4.07943 10.9278 4.07943C10.9278 4.07942 10.9276 4.079 10.9278 4.07943Z" fill="currentColor"/>
  <path fill-rule="evenodd" clip-rule="evenodd" d="M9.99999 12.0804C10.8707 12.0804 11.5765 11.3746 11.5765 10.5039C11.5765 9.63326 10.8707 8.92745 9.99999 8.92745C9.12933 8.92745 8.42352 9.63326 8.42352 10.5039C8.42352 11.3746 9.12933 12.0804 9.99999 12.0804ZM9.99999 13.7471C11.7911 13.7471 13.2431 12.2951 13.2431 10.5039C13.2431 8.71279 11.7911 7.26079 9.99999 7.26079C8.20886 7.26079 6.75685 8.71279 6.75685 10.5039C6.75685 12.2951 8.20886 13.7471 9.99999 13.7471Z" fill="currentColor"/>
</svg>