<svg width="17" height="16" viewBox="0 0 17 16" fill="none" xmlns="http://www.w3.org/2000/svg">
<path d="M12.3808 4.51543C12.678 4.23551 13.15 4.24717 13.3918 4.57609C13.943 5.32599 14.3167 6.19538 14.4797 7.1184C14.6857 8.28499 14.5462 9.48636 14.0784 10.5747C13.6105 11.6631 12.8347 12.5909 11.8465 13.2441C10.8582 13.8973 9.70052 14.2474 8.51588 14.2513C7.33125 14.2551 6.17132 13.9126 5.17879 13.2659C4.18627 12.6191 3.40444 11.6964 2.9295 10.6111C2.45456 9.52584 2.30723 8.32541 2.50561 7.1575C2.66258 6.23343 3.03056 5.36162 3.57692 4.60814C3.81656 4.27765 4.28848 4.2629 4.58744 4.54088C4.88641 4.81885 4.89755 5.28396 4.67102 5.62356C4.314 6.15879 4.07171 6.76538 3.96305 7.40506C3.81293 8.28883 3.92442 9.1972 4.28381 10.0184C4.6432 10.8397 5.23481 11.5379 5.98586 12.0273C6.73691 12.5167 7.61464 12.7759 8.51106 12.773C9.40748 12.77 10.2835 12.5051 11.0313 12.0108C11.7792 11.5166 12.3662 10.8144 12.7202 9.99089C13.0742 9.16733 13.1798 8.25824 13.0239 7.37548C12.9111 6.73652 12.6648 6.13152 12.3043 5.59864C12.0756 5.26052 12.0837 4.79535 12.3808 4.51543Z" />
<path d="M7.77042 2.09376C7.77042 1.67388 8.11081 1.3335 8.53069 1.3335C8.95058 1.3335 9.29096 1.67388 9.29096 2.09376V6.48773C9.29096 6.90761 8.95058 7.24799 8.53069 7.24799C8.11081 7.24799 7.77042 6.90761 7.77042 6.48773V2.09376Z" />
</svg>
