<svg  viewBox="0 0 25 25" fill="none" xmlns="http://www.w3.org/2000/svg">
<path fill-rule="evenodd" clip-rule="evenodd" d="M9.59121 17.3942L16.5483 13.4847C17.6019 12.8926 18.2544 12.5234 18.6987 12.2178C18.8446 12.1175 18.9351 12.0453 18.9878 12C18.9351 11.9547 18.8446 11.8824 18.6987 11.7821C18.2544 11.4766 17.6019 11.1073 16.5483 10.5153L9.59121 6.60575C8.53802 6.01391 7.88266 5.64818 7.3876 5.42596C7.18202 5.33367 7.05852 5.29253 6.99741 5.27484C6.96271 5.28546 6.93245 5.3008 6.90712 5.3186C6.89401 5.38214 6.87595 5.48976 6.86024 5.6564C6.81122 6.17645 6.8088 6.90384 6.8088 8.09048L6.8088 15.9095C6.8088 17.0961 6.81122 17.8235 6.86024 18.3436C6.87595 18.5102 6.89401 18.6178 6.90712 18.6814C6.93246 18.6992 6.96271 18.7145 6.99741 18.7251C7.05852 18.7074 7.18202 18.6663 7.3876 18.574C7.88266 18.3518 8.53802 17.9861 9.59121 17.3942ZM21.0514 10.9799C20.7108 10.2355 19.6961 9.66527 17.6668 8.52486L10.7097 4.61535C8.68033 3.47494 7.66564 2.90474 6.83301 2.98992C6.10676 3.06421 5.447 3.43496 5.01777 4.00999C4.52567 4.66925 4.52567 5.80966 4.52567 8.09048L4.52567 15.9095C4.52567 18.1903 4.52567 19.3307 5.01777 19.99C5.447 20.565 6.10676 20.9358 6.83301 21.0101C7.66564 21.0952 8.68033 20.525 10.7097 19.3846L17.6668 15.4751C19.6961 14.3347 20.7108 13.7645 21.0514 13.0201C21.3484 12.3707 21.3484 11.6292 21.0514 10.9799Z" />
</svg>
