<svg width="16" height="16" viewBox="0 0 16 16" fill="none" xmlns="http://www.w3.org/2000/svg">
<path fill-rule="evenodd" clip-rule="evenodd" d="M5.7942 11.5962L10.4322 8.98988C11.1346 8.59516 11.5697 8.34899 11.8659 8.1453C11.9631 8.07842 12.0235 8.03024 12.0586 8.00006C12.0235 7.96988 11.9631 7.92169 11.8659 7.85482C11.5697 7.65113 11.1346 7.40495 10.4322 7.01024L5.7942 4.4039C5.09208 4.00934 4.65517 3.76552 4.32513 3.61737C4.18808 3.55585 4.10575 3.52842 4.065 3.51662C4.04187 3.52371 4.0217 3.53393 4.00481 3.5458C3.99607 3.58816 3.98403 3.6599 3.97356 3.771C3.94088 4.1177 3.93927 4.60263 3.93927 5.39372L3.93927 10.6064C3.93927 11.3975 3.94088 11.8824 3.97356 12.2291C3.98403 12.3402 3.99607 12.412 4.00481 12.4543C4.0217 12.4662 4.04187 12.4764 4.065 12.4835C4.10574 12.4717 4.18808 12.4443 4.32513 12.3827C4.65517 12.2346 5.09208 11.9908 5.7942 11.5962ZM13.4343 7.32001C13.2073 6.82372 12.5308 6.44358 11.1779 5.68331L6.53987 3.07697C5.18695 2.31669 4.51049 1.93656 3.95541 1.99334C3.47124 2.04287 3.0314 2.29004 2.74524 2.6734C2.41718 3.1129 2.41718 3.87317 2.41718 5.39372L2.41718 10.6064C2.41718 12.1269 2.41718 12.8872 2.74524 13.3267C3.0314 13.7101 3.47124 13.9572 3.95541 14.0068C4.51049 14.0636 5.18695 13.6834 6.53987 12.9231L11.1779 10.3168C12.5308 9.55654 13.2073 9.1764 13.4343 8.68011C13.6323 8.24723 13.6323 7.75289 13.4343 7.32001Z" fill="currentColor"/>
</svg>
