<svg width="18" height="19" viewBox="0 0 18 19"  xmlns="http://www.w3.org/2000/svg">
<path fill-rule="evenodd" clip-rule="evenodd" d="M8.4583 7.68583L6.60858 7.24235C6.3905 7.19006 6.16154 7.16202 5.92405 7.16202C4.3115 7.16202 3.00427 8.46925 3.00427 10.0818C3.00427 11.6943 4.3115 13.0016 5.92405 13.0016C7.24744 13.0016 8.36881 12.1199 8.72548 10.9088L9.04242 9.83248H13.8426L13.8426 4.49023L8.4583 4.49024V7.68583ZM5.4583 5.68627C3.23625 5.91898 1.50427 7.79813 1.50427 10.0818C1.50427 12.5228 3.48308 14.5016 5.92405 14.5016C7.93065 14.5016 9.62493 13.1644 10.1644 11.3325H13.8426C14.6711 11.3325 15.3426 10.6609 15.3426 9.83248V4.49023C15.3426 3.66181 14.6711 2.99023 13.8426 2.99023H8.4583C7.70971 2.99023 7.08919 3.53861 6.97655 4.25556C6.96454 4.33202 6.9583 4.4104 6.9583 4.49024V5.78369C6.62653 5.70414 6.28021 5.66202 5.92405 5.66202C5.76675 5.66202 5.61136 5.67024 5.4583 5.68627Z" />
<path fill-rule="evenodd" clip-rule="evenodd" d="M11.1475 9.83248L8.10266 15.1063H14.9726L12.3191 10.5104L13.8417 9.83333C13.8419 9.83316 13.8425 9.83265 13.8426 9.83248C13.8426 9.83402 13.8426 9.83457 13.8426 9.83436L13.8426 9.83248C13.8426 9.83266 13.8427 9.83226 13.8426 9.83248C13.8428 9.83197 13.8435 9.83163 13.8435 9.83148C13.8436 9.83143 13.8436 9.83138 13.8435 9.83148C13.8435 9.83163 13.8428 9.83197 13.8426 9.83248L13.8426 4.49023L8.4583 4.49024L8.45832 9.83248H11.1475ZM14.7236 11.0467C15.0988 10.774 15.3426 10.3317 15.3426 9.83248V4.49023C15.3426 3.66181 14.6711 2.99023 13.8426 2.99023H8.4583C7.62987 2.99023 6.9583 3.66181 6.9583 4.49024L6.95832 9.83248C6.95832 10.1379 7.04957 10.4219 7.2063 10.6589C7.47474 11.0648 7.93527 11.3325 8.45832 11.3325H8.54945L6.80362 14.3563C6.22627 15.3563 6.94796 16.6063 8.10266 16.6063H14.9726C16.1273 16.6063 16.849 15.3563 16.2716 14.3563L14.4515 11.2038C14.548 11.1609 14.6391 11.1081 14.7236 11.0467Z" />
<path fill-rule="evenodd" clip-rule="evenodd" d="M13.8426 4.49023L8.4583 4.49024L8.45832 9.83248H13.8426L13.8426 4.49023ZM8.4583 2.99023C7.62987 2.99023 6.9583 3.66181 6.9583 4.49024L6.95832 9.83248C6.95832 10.6609 7.62989 11.3325 8.45832 11.3325H13.8426C14.6711 11.3325 15.3426 10.6609 15.3426 9.83248V4.49023C15.3426 3.66181 14.6711 2.99023 13.8426 2.99023H8.4583Z" />
</svg>
