<svg width="16" height="17" viewBox="0 0 16 17" xmlns="http://www.w3.org/2000/svg">
  <path fill-rule="evenodd" clip-rule="evenodd"
    d="M7.51851 6.94046L5.87432 6.54626C5.68047 6.49978 5.47695 6.47485 5.26585 6.47485C3.83247 6.47485 2.67049 7.63684 2.67049 9.07021C2.67049 10.5036 3.83247 11.6656 5.26585 11.6656C6.44219 11.6656 7.43897 10.8819 7.75601 9.80528L8.03774 8.8486H12.3046L12.3046 4.09993L7.51851 4.09994V6.94046ZM4.85185 5.16307C2.87669 5.36993 1.33716 7.04028 1.33716 9.07021C1.33716 11.24 3.09609 12.9989 5.26585 12.9989C7.04949 12.9989 8.55552 11.8103 9.03504 10.1819H12.3046C13.041 10.1819 13.6379 9.58498 13.6379 8.8486V4.09993C13.6379 3.36356 13.041 2.7666 12.3046 2.7666H7.51851C6.8531 2.7666 6.30153 3.25404 6.2014 3.89134C6.19073 3.9593 6.18518 4.02897 6.18518 4.09994V5.24967C5.89028 5.17897 5.58244 5.14152 5.26585 5.14152C5.12602 5.14152 4.9879 5.14883 4.85185 5.16307Z" />
  <path fill-rule="evenodd" clip-rule="evenodd"
    d="M9.90894 8.8486L7.20239 13.5365H13.309L10.9504 9.45115L12.3037 8.84935C12.3039 8.84921 12.3045 8.84875 12.3046 8.8486C12.3046 8.84997 12.3045 8.85046 12.3046 8.85027L12.3046 8.8486C12.3045 8.84876 12.3047 8.8484 12.3046 8.8486C12.3048 8.84814 12.3053 8.84785 12.3054 8.84771C12.3054 8.84766 12.3054 8.84762 12.3054 8.84771C12.3053 8.84785 12.3048 8.84814 12.3046 8.8486L12.3046 4.09993L7.51851 4.09994L7.51853 8.8486H9.90894ZM13.0877 9.92789C13.4212 9.68552 13.6379 9.29238 13.6379 8.8486V4.09993C13.6379 3.36356 13.041 2.7666 12.3046 2.7666H7.51851C6.78213 2.7666 6.18518 3.36356 6.18518 4.09994L6.1852 8.8486C6.1852 9.12004 6.26631 9.37254 6.40563 9.58318C6.64424 9.94396 7.0536 10.1819 7.51853 10.1819H7.59953L6.04769 12.8698C5.53449 13.7587 6.17599 14.8698 7.20239 14.8698H13.309C14.3354 14.8698 14.9769 13.7587 14.4637 12.8698L12.8458 10.0675C12.9316 10.0294 13.0126 9.98246 13.0877 9.92789Z" />
  <path fill-rule="evenodd" clip-rule="evenodd"
    d="M12.3046 4.09993L7.51851 4.09994L7.51853 8.8486H12.3046L12.3046 4.09993ZM7.51851 2.7666C6.78213 2.7666 6.18518 3.36356 6.18518 4.09994L6.1852 8.8486C6.1852 9.58498 6.78215 10.1819 7.51853 10.1819H12.3046C13.041 10.1819 13.6379 9.58498 13.6379 8.8486V4.09993C13.6379 3.36356 13.041 2.7666 12.3046 2.7666H7.51851Z" />
</svg>