<svg xmlns="http://www.w3.org/2000/svg"   viewBox="0 0 24 25" fill="none">
  <path fill-rule="evenodd" clip-rule="evenodd" d="M22.9054 15.1238C22.9054 17.8063 20.8422 20.0068 18.2162 20.2252V20.243H6.10276V20.2418C3.32674 20.1828 1.0945 17.914 1.0945 15.1238C1.0945 12.7231 2.74712 10.7083 4.9768 10.1551C5.80125 7.0478 8.63317 4.75781 11.9999 4.75781C15.3667 4.75781 18.1986 7.0478 19.0231 10.1551C21.2528 10.7083 22.9054 12.7231 22.9054 15.1238ZM12 18.1345C11.4477 18.1345 11 17.6868 11 17.1345V13.1993L10.4501 13.7491C10.1222 14.0771 9.59038 14.0771 9.26239 13.7491C8.93441 13.4211 8.93441 12.8893 9.26239 12.5613L11.2581 10.5656C11.2807 10.5407 11.3044 10.5169 11.3293 10.4944L11.4048 10.419L11.4061 10.4177C11.7341 10.0897 12.2658 10.0897 12.5938 10.4177L12.5951 10.419L12.6705 10.4943C12.6954 10.5169 12.7193 10.5407 12.7418 10.5657L14.7362 12.56C15.0649 12.8887 15.0649 13.4217 14.7362 13.7504C14.4075 14.0791 13.8745 14.0791 13.5458 13.7504L13 13.2046V17.1345C13 17.6868 12.5522 18.1345 12 18.1345Z" fill="currentColor"/>
</svg>