<svg width="18" height="19" viewBox="0 0 18 19" xmlns="http://www.w3.org/2000/svg">
  <path fill-rule="evenodd" clip-rule="evenodd" d="M9.00001 3.55469C7.55026 3.55469 6.37501 4.72994 6.37501 6.17969C6.37501 7.62944 7.55026 8.80469 9.00001 8.80469C10.4498 8.80469 11.625 7.62944 11.625 6.17969C11.625 4.72994 10.4498 3.55469 9.00001 3.55469ZM4.87501 6.17969C4.87501 3.90151 6.72184 2.05469 9.00001 2.05469C11.2782 2.05469 13.125 3.90151 13.125 6.17969C13.125 8.45786 11.2782 10.3047 9.00001 10.3047C6.72184 10.3047 4.87501 8.45786 4.87501 6.17969ZM9.00001 12.5547C6.87074 12.5547 4.97288 13.5816 3.76039 15.1863C3.68622 15.2845 3.62945 15.3597 3.58224 15.4258C3.54639 15.476 3.52192 15.5128 3.50489 15.5408C3.61636 15.5535 3.77519 15.5547 4.07044 15.5547H13.9296C14.2248 15.5547 14.3837 15.5535 14.4951 15.5408C14.4781 15.5128 14.4536 15.476 14.4178 15.4258C14.3706 15.3597 14.3138 15.2845 14.2396 15.1863C13.0271 13.5816 11.1293 12.5547 9.00001 12.5547ZM2.56362 14.282C4.04334 12.3237 6.37417 11.0547 9.00001 11.0547C11.6259 11.0547 13.9567 12.3237 15.4364 14.282C15.4431 14.2909 15.4498 14.2998 15.4566 14.3087C15.5838 14.4769 15.7202 14.6573 15.8177 14.8314C15.9357 15.042 16.0231 15.2857 16.0177 15.5821C16.0134 15.8204 15.9412 16.0434 15.8535 16.2195C15.7659 16.3956 15.6315 16.5876 15.444 16.7347C15.194 16.9309 14.9218 17.0004 14.68 17.0294C14.4679 17.0548 14.2165 17.0547 13.9638 17.0547C13.9524 17.0547 13.941 17.0547 13.9296 17.0547H4.07044C4.05904 17.0547 4.04765 17.0547 4.03626 17.0547C3.78351 17.0547 3.53212 17.0548 3.31999 17.0294C3.0782 17.0004 2.80602 16.9309 2.55603 16.7347C2.36857 16.5876 2.23415 16.3956 2.14649 16.2195C2.05884 16.0434 1.98665 15.8204 1.98229 15.5821C1.97687 15.2857 2.06433 15.042 2.18233 14.8314C2.27982 14.6573 2.41624 14.4769 2.54346 14.3087C2.55021 14.2998 2.55693 14.2909 2.56362 14.282Z"/>
  </svg>
  