<svg xmlns="http://www.w3.org/2000/svg"  viewBox="0 0 14 14" fill="none">
  <g clip-path="url(#clip0_3592_26324)">
    <path fill-rule="evenodd" clip-rule="evenodd" d="M7.00003 2.05339C4.26787 2.05339 2.05302 4.26824 2.05302 7.0004C2.05302 9.73256 4.26787 11.9474 7.00003 11.9474C9.73219 11.9474 11.947 9.73256 11.947 7.0004C11.947 4.26824 9.73219 2.05339 7.00003 2.05339ZM0.886353 7.0004C0.886353 3.62391 3.62354 0.886719 7.00003 0.886719C10.3765 0.886719 13.1137 3.62391 13.1137 7.0004C13.1137 10.3769 10.3765 13.1141 7.00003 13.1141C3.62354 13.1141 0.886353 10.3769 0.886353 7.0004ZM6.4167 4.78826C6.4167 4.46609 6.67786 4.20493 7.00003 4.20493H7.00556C7.32773 4.20493 7.58889 4.46609 7.58889 4.78826C7.58889 5.11042 7.32773 5.37159 7.00556 5.37159H7.00003C6.67786 5.37159 6.4167 5.11042 6.4167 4.78826ZM7.00003 6.41706C7.3222 6.41706 7.58336 6.67823 7.58336 7.0004V9.21253C7.58336 9.5347 7.3222 9.79587 7.00003 9.79587C6.67786 9.79587 6.4167 9.5347 6.4167 9.21253V7.0004C6.4167 6.67823 6.67786 6.41706 7.00003 6.41706Z" fill="#0884DD"/>
  </g>
  <defs>
    <clipPath id="clip0_3592_26324">
      <rect width="14" height="14" fill="currentColor"/>
    </clipPath>
  </defs>
</svg>