
<svg xmlns="http://www.w3.org/2000/svg" viewBox="0 0 21 20" fill="none">
  <g clip-path="url(#clip0_7087_3990)">
    <path fill-rule="evenodd" clip-rule="evenodd" d="M9.27333 1.94544C9.64774 1.73464 10.0702 1.6239 10.4998 1.6239C10.9295 1.6239 11.3519 1.73464 11.7263 1.94544C12.1007 2.15623 12.4145 2.45996 12.6373 2.82733L12.6397 2.83129L19.698 14.6146L19.7048 14.6261C19.9231 15.0042 20.0386 15.4328 20.0398 15.8693C20.0411 16.3058 19.928 16.7351 19.7118 17.1143C19.4956 17.4935 19.1839 17.8096 18.8077 18.031C18.4315 18.2523 18.0038 18.3713 17.5673 18.3761L17.5582 18.3762L3.43233 18.3762C2.99583 18.3714 2.56819 18.2523 2.19197 18.031C1.81574 17.8096 1.50403 17.4935 1.28787 17.1143C1.0717 16.7351 0.958596 16.3058 0.959818 15.8693C0.96104 15.4328 1.07654 15.0042 1.29483 14.6261L1.3016 14.6146L8.36231 2.82732C8.58515 2.45996 8.89892 2.15623 9.27333 1.94544ZM10.4998 3.29057C10.3566 3.29057 10.2158 3.32748 10.091 3.39775C9.96675 3.46769 9.86255 3.56834 9.78833 3.69005L2.7354 15.4644C2.66442 15.5892 2.62688 15.7303 2.62648 15.874C2.62607 16.0195 2.66377 16.1625 2.73583 16.289C2.80788 16.4154 2.91179 16.5207 3.03719 16.5945C3.16151 16.6677 3.30265 16.7073 3.44682 16.7095H17.5528C17.697 16.7073 17.8381 16.6677 17.9625 16.5945C18.0879 16.5207 18.1918 16.4154 18.2638 16.289C18.3359 16.1625 18.3736 16.0195 18.3732 15.874C18.3728 15.7303 18.3352 15.5892 18.2643 15.4644L11.2123 3.69171C11.212 3.69116 11.2117 3.69061 11.2113 3.69005C11.1371 3.56834 11.0329 3.46769 10.9087 3.39775C10.7839 3.32748 10.643 3.29057 10.4998 3.29057ZM10.4998 6.70952C10.9601 6.70952 11.3332 7.08262 11.3332 7.54285V10.8762C11.3332 11.3364 10.9601 11.7095 10.4998 11.7095C10.0396 11.7095 9.66649 11.3364 9.66649 10.8762V7.54285C9.66649 7.08262 10.0396 6.70952 10.4998 6.70952ZM9.66649 14.2095C9.66649 13.7493 10.0396 13.3762 10.4998 13.3762H10.5082C10.9684 13.3762 11.3415 13.7493 11.3415 14.2095C11.3415 14.6698 10.9684 15.0429 10.5082 15.0429H10.4998C10.0396 15.0429 9.66649 14.6698 9.66649 14.2095Z" fill="#F79009"/>
  </g>
  <defs>
    <clipPath id="clip0_7087_3990">
      <rect width="20" height="20" fill="white" transform="translate(0.5)"/>
    </clipPath>
  </defs>
</svg>