<svg width="33" height="33" viewBox="0 0 33 33" fill="none" xmlns="http://www.w3.org/2000/svg">
<path d="M16.2791 3.21301C9.45482 3.21301 9.88092 6.17243 9.88092 6.17243L9.88849 9.23847H16.4008V10.159H7.30192C7.30192 10.159 2.93506 9.66372 2.93506 16.5494C2.93506 23.4352 6.74656 23.191 6.74656 23.191H9.02125V19.9957C9.02125 19.9957 8.89862 16.1842 12.7719 16.1842H19.2309C19.2309 16.1842 22.8598 16.2428 22.8598 12.677V6.78115C22.8598 6.78115 23.411 3.21301 16.2791 3.21301ZM12.6882 5.27486C12.8421 5.27473 12.9945 5.30493 13.1367 5.36376C13.2789 5.42259 13.4081 5.50888 13.5169 5.6177C13.6258 5.72651 13.7121 5.85572 13.7709 5.99792C13.8297 6.14012 13.8599 6.29253 13.8598 6.44642C13.8599 6.60031 13.8297 6.75272 13.7709 6.89492C13.7121 7.03712 13.6258 7.16633 13.5169 7.27514C13.4081 7.38396 13.2789 7.47025 13.1367 7.52908C12.9945 7.5879 12.8421 7.61811 12.6882 7.61797C12.5343 7.61811 12.3819 7.5879 12.2397 7.52908C12.0975 7.47025 11.9683 7.38396 11.8595 7.27514C11.7507 7.16633 11.6644 7.03712 11.6056 6.89492C11.5467 6.75272 11.5165 6.60031 11.5167 6.44642C11.5165 6.29253 11.5467 6.14012 11.6056 5.99792C11.6644 5.85572 11.7507 5.72651 11.8595 5.6177C11.9683 5.50888 12.0975 5.42259 12.2397 5.36376C12.3819 5.30493 12.5343 5.27473 12.6882 5.27486Z" fill="url(#paint0_linear_1263_243)"/>
<path d="M16.4725 29.9549C23.2968 29.9549 22.8707 26.9955 22.8707 26.9955L22.8631 23.9296H16.3507V23.0091H25.4496C25.4496 23.0091 29.8165 23.5043 29.8165 16.6184C29.8165 9.7327 26.005 9.9769 26.005 9.9769H23.7303V13.1721C23.7303 13.1721 23.8529 16.9836 19.9796 16.9836H13.5206C13.5206 16.9836 9.89171 16.925 9.89171 20.4909V26.3869C9.89171 26.3869 9.34067 29.9549 16.4724 29.9549M20.0633 27.8933C19.9094 27.8934 19.757 27.8632 19.6148 27.8044C19.4726 27.7455 19.3434 27.6593 19.2346 27.5504C19.1257 27.4416 19.0395 27.3124 18.9806 27.1702C18.9218 27.028 18.8916 26.8756 18.8917 26.7217C18.8916 26.5678 18.9218 26.4154 18.9806 26.2732C19.0394 26.131 19.1257 26.0017 19.2345 25.8929C19.3433 25.7841 19.4726 25.6978 19.6148 25.639C19.757 25.5801 19.9094 25.5499 20.0633 25.5501C20.2172 25.5499 20.3696 25.5801 20.5118 25.6389C20.654 25.6978 20.7832 25.7841 20.892 25.8929C21.0008 26.0017 21.0871 26.1309 21.1459 26.2731C21.2048 26.4153 21.235 26.5677 21.2348 26.7216C21.235 26.8755 21.2048 27.0279 21.1459 27.1701C21.0871 27.3123 21.0008 27.4415 20.892 27.5503C20.7832 27.6591 20.654 27.7454 20.5118 27.8043C20.3696 27.8631 20.2172 27.8934 20.0633 27.8933Z" fill="url(#paint1_linear_1263_243)"/>
<defs>
<linearGradient id="paint0_linear_1263_243" x1="261.268" y1="243.741" x2="1593.45" y2="1562.63" gradientUnits="userSpaceOnUse">
<stop stop-color="#387EB8"/>
<stop offset="1" stop-color="#366994"/>
</linearGradient>
<linearGradient id="paint1_linear_1263_243" x1="391.191" y1="421.125" x2="1821.8" y2="1773.52" gradientUnits="userSpaceOnUse">
<stop stop-color="#FFE052"/>
<stop offset="1" stop-color="#FFC331"/>
</linearGradient>
</defs>
</svg>
