<svg width="32" height="33" viewBox="0 0 32 33" fill="none" xmlns="http://www.w3.org/2000/svg">
<g clip-path="url(#clip0_1120_1682)">
<path d="M31.9546 16.2157C31.9546 25.03 24.8089 32.1757 15.9942 32.1757C7.17919 32.1757 0.0336914 25.03 0.0336914 16.2157C0.0336914 7.401 7.17944 0.255371 15.9942 0.255371C24.8091 0.255371 31.9546 7.401 31.9546 16.2157Z" fill="#DD4814"/>
<path d="M5.1415 14.0844C3.96413 14.0844 3.01025 15.0383 3.01025 16.2157C3.01025 17.3924 3.96413 18.3464 5.1415 18.3464C6.31838 18.3464 7.27225 17.3924 7.27225 16.2157C7.27225 15.0383 6.31838 14.0844 5.1415 14.0844ZM20.3559 23.7692C19.3368 24.3579 18.9871 25.6604 19.5759 26.6791C20.164 27.6983 21.4665 28.0477 22.4858 27.4591C23.5049 26.8709 23.8544 25.5684 23.2658 24.5491C22.6776 23.5306 21.3744 23.1812 20.3559 23.7692ZM9.77013 16.2157C9.77013 14.1099 10.8161 12.2494 12.4165 11.1229L10.8586 8.5137C8.99438 9.75995 7.60713 11.6642 7.03063 13.8946C7.70338 14.4433 8.13388 15.2789 8.13388 16.2156C8.13388 17.1517 7.70338 17.9873 7.03063 18.5362C7.60638 20.7671 8.99363 22.6716 10.8586 23.9178L12.4165 21.3078C10.8161 20.1819 9.77013 18.3216 9.77013 16.2157ZM15.9941 9.99107C19.2458 9.99107 21.9135 12.4841 22.1935 15.6636L25.2298 15.6188C25.0805 13.2716 24.055 11.1643 22.4795 9.61482C21.6693 9.92095 20.7333 9.87407 19.9245 9.40782C19.1141 8.9402 18.606 8.15132 18.4671 7.29507C17.6617 7.07217 16.8298 6.95906 15.994 6.95882C14.571 6.95737 13.1669 7.28521 11.8916 7.9167L13.3723 10.5701C14.1934 10.1879 15.0884 9.99023 15.9941 9.99107ZM15.9941 22.4398C15.0884 22.4406 14.1935 22.243 13.3724 21.8608L11.8918 24.5139C13.1668 25.1461 14.5711 25.4743 15.9943 25.4728C16.83 25.4726 17.6619 25.3592 18.4673 25.1357C18.6061 24.2794 19.1144 23.4913 19.9245 23.0229C20.734 22.5558 21.6694 22.5098 22.4795 22.8159C24.0551 21.2664 25.0805 19.1592 25.23 16.8119L22.1929 16.7672C21.9135 19.9476 19.2459 22.4397 15.9941 22.4397V22.4398ZM20.3551 8.66095C21.3744 9.24945 22.677 8.90095 23.265 7.8817C23.8538 6.86245 23.505 5.55982 22.4858 4.97107C21.4665 4.38307 20.164 4.73232 19.5751 5.75157C18.9873 6.77032 19.3366 8.07282 20.3551 8.66095Z" fill="white"/>
</g>
<defs>
<clipPath id="clip0_1120_1682">
<rect width="32" height="32" fill="white" transform="translate(0 0.255371)"/>
</clipPath>
</defs>
</svg>
