<svg xmlns="http://www.w3.org/2000/svg" fill="none" viewBox="0 0 831 219">
	<g filter="url(#a)">
		<g clip-path="url(#b)">
			<rect width="831" height="219" fill="#09090b" rx="18" />
			<path
				stroke="url(#c)"
				stroke-dasharray="2.7 2.7"
				stroke-width=".9"
				d="m870.3 94.7 1 2.5-.4.2 1 2.5.4-.2 1 2.5-.5.2 1 2.5.5-.1 1 2.5-.5.1 1 2.5.4-.1 1 2.5-.4.1 1 2.6.4-.2 1 2.5-.4.2 1 2.5.4-.2 1 2.5-.4.2 1 2.5.4-.2 1 2.5-.5.2 1 2.5.5-.1 1 2.5-.5.1 1 2.5.4-.1 1 2.5-.4.1 1 2.6.4-.2 1 2.5-.4.2 1 2.5.4-.2 1 2.5-.4.2 1 2.5.4-.2 1 2.5-.4.2 1 2.5.4-.1 1 2.5-.5.1.4.9-.8.3.1.4-2.4 1.1-.2-.4-2.4 1 .2.5-2.5 1-.1-.4-2.5 1.1.2.4-2.4 1-.2-.3-2.4 1 .2.4-2.5 1.1-.1-.4-2.5 1 .2.5-2.4 1-.2-.4-2.4 1 .2.5-2.5 1-.1-.3-2.5 1 .2.4-2.4 1-.2-.3-2.4 1 .2.5-2.5 1-.2-.4-2.4 1 .2.5-2.4 1-.2-.4-2.4 1.1.1.4-2.4 1-.2-.3-2.4 1 .2.4-2.4 1.1-.2-.4-2.4 1 .1.5-2.4 1-.2-.4-2.4 1.1.2.4-2.4 1-.2-.3-1 .4-1.2-.3-.1.4-2.6-.7.1-.5-2.6-.7-.1.4-2.6-.8.1-.4-2.5-.8-.2.4-2.5-.7v-.5l-2.5-.7-.1.4-2.6-.8.1-.4-2.5-.8-.2.5-2.6-.8.2-.4-2.6-.8-.1.4-2.6-.7.1-.5-2.6-.7v.4l-2.7-.8.2-.4-2.6-.8-.1.5-2.6-.8.1-.4-2.6-.8-.1.4-2.6-.8.1-.4-2.5-.8-.2.5-2.5-.8v-.4l-2.5-.8-.1.4-2.6-.7.1-.5-2.5-.7-.2.4-2.6-.8.2-.4-2.6-.8-.1.5-2.6-.8.1-.4-2.6-.8v.4l-2.7-.7.2-.5-2.6-.7-.1.4-2.6-.8.1-.4-2.6-.8-.1.4-2.6-.7.1-.5-2.5-.7-.2.4-2.5-.8v-.4l-2.5-.8-.1.5-2.6-.8.1-.4-1.1-.4-.7-1-.3.3-1.5-2.1.4-.3-1.5-2.2-.4.3-1.5-2.2.4-.2-1.5-2.2-.3.2-1.5-2.1.4-.3-1.5-2.2-.4.3-1.5-2.2.4-.2-1.5-2.2-.3.2-1.5-2.1.4-.3-1.5-2.2-.4.3-1.5-2.2.4-.3-1.5-2.1-.3.2-1.5-2.2.3-.2-1.4-2.2-.4.3-1.5-2.2.4-.3-1.5-2.1-.4.2-1.4-2.2.3-.2-1.4-2.2-.4.3-1.5-2.2.4-.3-1.5-2.1-.4.2-1.4-2.2.3-.2-1.4-2.2-.4.3-1.5-2.2.4-.3-1.5-2.1-.4.2-1.4-2.2.3-.2-1.4-2.2-.4.3-1.5-2.2.4-.3-1.5-2.1-.4.2-1.4-2.2.3-.2-.4-.7.7-.4-.2-.4 2.4-1.4.2.4 2.4-1.4-.2-.4 2.3-1.4.3.4 2.3-1.4-.2-.4 2.4-1.4.2.4 2.4-1.4-.2-.4 2.3-1.3.2.3 2.4-1.3-.2-.4 2.4-1.4.2.4 2.4-1.4-.3-.4 2.4-1.4.2.4 2.4-1.4-.2-.4 2.3-1.4.3.4 2.3-1.4-.2-.3 2.4-1.4.2.4 2.4-1.4-.2-.4 2.3-1.4.3.4 2.3-1.4-.2-.4 2.4-1.4.2.4 2.4-1.4-.2-.4 2.3-1.4.2.4 2.4-1.4-.2-.3 2.4-1.4.2.4 2.4-1.4-.3-.4 2.4-1.4.2.4 2.4-1.4-.2-.4 2.3-1.4.3.4 1-.6 1 .4.2-.4 2.6 1-.2.3 2.6 1 .2-.5 2.5 1-.1.4 2.6 1 .1-.5 2.6 1-.2.3 2.6 1 .2-.5 2.5 1-.1.4 2.6 1 .1-.5 2.6 1-.2.3 2.6 1 .2-.5 2.5 1-.1.4 2.5 1 .2-.5 2.6 1-.2.3 2.6 1 .1-.5 2.6 1-.1.4 2.5 1 .2-.5 2.6 1-.2.3 2.6 1 .1-.5 2.6 1-.1.4 2.5 1 .2-.5 2.6 1-.2.3 2.6 1 .1-.5 2.6 1-.2.4 2.6.9.2-.4 2.5 1-.1.3 2.6 1 .1-.5 2.6 1-.2.4 2.6.9.2-.4 2.5.9-.1.4 2.6 1 .1-.5 2.6 1-.2.4 2.6.9.2-.4 2.5.9-.1.4 2.6 1 .1-.5 2.6 1-.2.4 2.6.9.1-.4 2.6.9-.1.4 2.5 1 .2-.5 2.6 1-.2.4 2.6.9.1-.4 2.6.9-.1.4 1 .4.5 1z"
			/>
			<path
				stroke="url(#d)"
				stroke-width=".9"
				d="m566.7-20.6 73.7 98.5-62.8 39.7-135.7-40L336.8-21l58.5-61.7z"
			/>
			<path
				stroke="url(#e)"
				stroke-width=".9"
				d="m925 131.4 13.6 42.2-45.8 18.9-62.2-19-22.2-42.2 47.9-23.8z"
			/>
			<path
				stroke="#3f6eba"
				stroke-width=".9"
				d="M584-43.4 625.6 16l-37 26-79.1-26.3-51.9-59.5L494-77.3zM916.6 16.3 929 59.6l-39 19.7-53.3-19.8L818 16.2l40.6-24z"
			/>
			<mask id="h" fill="#fff">
				<path
					d="m714.7 157.6 13.1 18.3 30.2 8.6 18.5-8.6-11.5-18.3-31.7-9.6zm49.5.4 11.2 17.5-17.8 8.4-29.1-8.4-12.7-17.5 18-9.2z"
				/>
			</mask>
			<path
				fill="url(#f)"
				d="m714.7 157.6 13.1 18.3 30.2 8.6 18.5-8.6-11.5-18.3-31.7-9.6zm49.5.4 11.2 17.5-17.8 8.4-29.1-8.4-12.7-17.5 18-9.2z"
			/>
			<path
				fill="url(#g)"
				d="m714.7 157.6-.5-.8-.9.5.6.9zm13.1 18.3-.7.5.2.2.3.1zm30.2 8.6-.2.9h.6zm18.5-8.6.3.8 1-.5-.6-.8zM765 157.6l.7-.4-.2-.3-.3-.1zm-31.7-9.6.3-.8-.4-.1-.3.1zm31 10 .7-.5-.2-.3h-.3zm11 17.5.4.9 1-.5-.6-.8zm-17.7 8.4-.3.9h.7zm-29.1-8.4-.8.6.2.2.3.1zM715.8 158l-.4-.8-1 .5.7.8zm18-9.2.2-.9-.3-.1-.3.2zm-19.1 8.8-.8.6 13.2 18.2.7-.5.8-.6-13.2-18.2zm13.1 18.3-.2.8 30.2 8.7.2-.9.3-.8L728 175zm30.2 8.6.4.8 18.4-8.6-.3-.8-.4-.9-18.5 8.7zm18.5-8.6.7-.5-11.5-18.2-.7.4-.8.5 11.5 18.2zM765 157.6l.2-.8-31.6-9.6-.3.8-.2.9 31.6 9.6zm-31.7-9.6-.4-.8-18.7 9.6.5.8.4.8 18.6-9.6zm31 10-.8.5 11.1 17.5.8-.5.7-.4-11.1-17.6zm11 17.5-.3-.8-17.8 8.4.4.8.4.8 17.7-8.3zm-17.7 8.4.2-.8-29-8.4-.3.8-.3 1 29.1 8.3zm-29.1-8.4.7-.5-12.7-17.5-.7.5-.7.5 12.6 17.6zM715.8 158l.4.8 18-9.2-.4-.8-.4-.8-18 9.2zm18-9.2-.3.8L764 159l.2-1 .3-.8L734 148z"
				mask="url(#h)"
			/>
			<path
				stroke="#3f6eba"
				stroke-width=".9"
				d="m716.2 68.4 27.2 44-36.4 19.7-64.8-20-34.8-44 36.8-24.4z"
			/>
			<path
				stroke="url(#i)"
				stroke-dasharray="2.7 2.7"
				stroke-width=".9"
				d="m701.3 147.7 1.6 2.1-.4.3 1.5 2 .4-.2 1.5 2.1-.3.3 1.5 2 .4-.2 1.5 2.1-.4.3.5.6-.7.4.2.4-2.4 1.2-.2-.4-2.4 1.2.2.4-2.4 1.3-.2-.4-2.4 1.2.2.4-2.4 1.2-.2-.4-2.3 1.2.2.4-2.4 1.3-.2-.4-2.4 1.2.2.4-2.4 1.2-.2-.4-2.4 1.3.2.3-2.4 1.3-.2-.4-2.4 1.2.2.4-2.3 1.2-.2-.4-2.4 1.3.2.4-2.4 1.2-.2-.4-2.4 1.2.2.4-2.4 1.2-.2-.4-1 .6-1.2-.3-.1.4-2.7-.7.1-.5-2.7-.7v.4l-2.7-.7v-.5l-2.6-.7-.1.4-2.7-.7.1-.4-2.7-.8v.5l-2.8-.8.2-.4-2.7-.7-.1.4-2.7-.7.1-.5-2.7-.7-.1.4-2.7-.7.1-.4-2.6-.8-.2.4-2.6-.7v-.4l-2.6-.8-.1.5-2.7-.8.1-.4-2.7-.7v.4l-2.8-.7.2-.5-2.7-.7-.1.4-2.7-.7.1-.4-2.7-.8v.5l-2.8-.8.1-.4-2.6-.7-.1.4-2.7-.8v-.4l-2.6-.7-.1.4-2.7-.7.1-.5-2.6-.7-.2.4-2.6-.7v-.4l-2.6-.8-.1.5-2.7-.8.1-.4-1.2-.3-.8-1-.4.4-1.8-2 .3-.3-1.9-1.9-.3.3-1.8-2 .3-.2-1.9-2-.3.4-1.8-2 .3-.3-1.9-2-.3.4-1.8-2 .3-.3-1.9-1.9-.3.3-1.9-2 .4-.2-1.9-2-.3.3-1.9-1.9.4-.3-1.9-2-.3.4-1.9-2 .3-.3-1.8-2-.3.4-1.9-2 .3-.2-1.8-2-.3.3-1.9-1.9.3-.3-1.8-2-.3.4-1.9-2 .3-.3-1.8-2-.4.4-1.8-2 .3-.3-1.8-1.9-.4.3-1.8-2 .3-.2-1.9-2-.3.4-1.8-2 .3-.3-.6-.6.7-.4-.3-.4 2.2-1.4.2.4 2.2-1.5-.3-.3 2.2-1.5.2.4 2.2-1.5-.3-.3 2.2-1.5.2.4 2.2-1.4-.3-.4 2.2-1.4.2.3 2.2-1.4-.3-.4 2.2-1.4.2.4 2.2-1.5-.3-.4 2.1-1.4.3.4 2.1-1.5-.2-.3 2.1-1.5.3.4 2.1-1.4-.2-.4 2.1-1.5.3.4 2.1-1.4-.2-.4 2.1-1.4.3.3 2.1-1.4-.2-.4L580 81l.3.4.9-.6 1 .3.2-.4 2.5.8-.1.4 2.5.8.2-.4 2.5.8-.1.4 2.5.8.2-.4 2.5.8-.1.4 2.5.8.2-.4 2.5.8-.1.4 2.5.8.2-.4 2.5.8-.1.4 2.5.8.1-.4 2.6.8-.1.4 2.5.8.1-.4 2.6.8-.2.4 2.6.8.1-.4 2.6.8-.2.4 2.6.8.1-.4 2.6.8-.2.4 2.6.8.1-.4 2.6.8-.2.4 2.6.8.1-.4 2.6.8-.2.4 2.6.8.1-.4 2.5.8v.4l2.5.8v-.4l2.6.8-.1.4 2.5.8.2-.4 2.5.8-.1.4 2.5.8.2-.4 2.5.8-.1.4 2.5.8.2-.4 2.5.8-.1.4 2.5.8.2-.4 2.5.8-.1.4 2.5.8.1-.4 2.6.8-.1.4 1 .3.8 1 .3-.3 1.6 2-.4.4 1.5 2 .4-.2 1.5 2-.3.4 1.5 2 .4-.2 1.5 2-.3.3 1.5 2.1.4-.2 1.5 2-.4.3 1.6 2.1.3-.2 1.6 2-.4.3 1.6 2.1.3-.2 1.6 2-.4.3 1.5 2.1.4-.2 1.5 2-.3.3 1.5 2.1.4-.3 1.5 2.1-.4.3 1.6 2.1.3-.3 1.6 2.1-.4.3 1.6 2z"
			/>
			<path
				stroke="url(#j)"
				stroke-width=".9"
				d="m820-72.3 41.6 111-80.8 44.4-128.2-44.5-76.4-111.1 84.2-70.6z"
			/>
			<path
				fill="#3f6eba"
				d="M716.6 78.2c-1.6-2.5-.1-4.7 3.4-4.7s7.6 2.2 9.2 4.7c1.6 2.6 0 4.7-3.4 4.7-3.5 0-7.6-2.1-9.2-4.7M736 68.9c-.9-1.6 0-3 2.2-3s4.6 1.4 5.5 3 0 2.8-2.1 2.8-4.6-1.3-5.5-2.8M712.2 126.8c-1.5-2.3-.1-4 3.1-4s7.1 1.7 8.6 4 0 4-3.1 4c-3.2 0-7-1.8-8.6-4M797 70.8c-1.4-2.7.4-4.8 4-4.8 3.5 0 7.5 2.1 8.7 4.8 1.3 2.7-.5 4.8-4 4.8s-7.4-2.1-8.8-4.8M827.5 54c-1.2-2.8.7-5 4.4-5s7.6 2.3 8.7 5c1.2 2.9-.8 5.1-4.4 5.1s-7.5-2.2-8.7-5M679 124.6c-1.7-2.3-.4-4 2.8-4a12 12 0 0 1 8.9 4c1.6 2.2.3 4-3 4-3.1 0-7-1.8-8.7-4M609.5 92c-2-2.7-1-4.8 2.6-4.8s8.2 2.1 10.2 4.7.9 4.6-2.7 4.6c-3.5 0-8-2-10-4.6M601 30.3c-1.1-1.6-.5-2.9 1.5-2.9a8 8 0 0 1 5.7 2.9c1.1 1.5.5 2.8-1.5 2.8a8 8 0 0 1-5.6-2.8M619.7 57c-2-2.7-.8-5 2.8-5s8.2 2.3 10.3 5c2 2.8.8 5-2.8 5s-8.2-2.2-10.3-5M767.5 167q-1-1.7 1.7-1.9c1.7 0 3.5.9 4.2 2q.9 1.7-1.8 1.8c-1.6 0-3.5-.8-4.1-1.9M730.4 148.8q-1-1.8 1.7-2c1.7 0 3.7.9 4.4 2q1 1.8-1.7 2c-1.7 0-3.7-.9-4.4-2M626.5 96.3q-1.4-2.2 1.4-2.4c2 0 4.3 1 5.3 2.4s.4 2.4-1.4 2.4c-1.9 0-4.2-1-5.3-2.4M619.4 87c-1.1-1.3-.5-2.4 1.4-2.4s4.3 1 5.4 2.5c1 1.4.4 2.5-1.5 2.5a8 8 0 0 1-5.3-2.5M631 171.9c-.9-1-.3-1.9 1.3-1.9a7 7 0 0 1 4.6 1.9q1.4 1.7-1.2 1.8a7 7 0 0 1-4.6-1.8"
			/>
			<path fill="url(#k)" d="M0 0h831v219H0z" />
			<path
				fill="#fff"
				fill-opacity=".1"
				d="M40 41.5c0-6 5-11 11-11h222a11 11 0 0 1 0 22H51c-6 0-11-5-11-11"
			/>
			<path
				stroke="#fff"
				stroke-opacity=".1"
				d="M51 31h222a10.5 10.5 0 1 1 0 21H51a10.5 10.5 0 1 1 0-21Z"
			/>
			<circle cx="55" cy="41.5" r="3" fill="#60a5fa" />
			<path
				fill="#d9d9d9"
				d="M64.8 45.5v-7.3H62V37h6.6v1.2H66v7.3zm4.6 0V37h1.3v3.6h-.2q0-.6.4-1l.7-.5 1-.1q.6 0 1.1.3t.7.8q.3.6.3 1.3v4.1h-1.3v-3.8q0-.8-.3-1.2-.3-.5-.9-.5t-1.1.5q-.4.4-.4 1.3v3.7zm9.6.1q-1 .1-1.6-.4-.7-.3-1-1.1a4 4 0 0 1-.4-1.8q0-1 .3-1.7.4-.8 1-1.2A3 3 0 0 1 79 39q.9 0 1.6.4.6.3 1 1.1.4.7.4 1.9v.3h-4.6q0 .9.5 1.4t1.2.5q.6 0 1-.3l.4-.7h1.4q-.3 1-1 1.5a3 3 0 0 1-1.8.5m-1.7-3.9h3.2q0-.8-.5-1.2t-1-.4q-.7 0-1.2.4a2 2 0 0 0-.5 1.2m8.7 3.8q0-1 .3-1.7.3-.8 1-1.4l1.9-1.3 1-.6.4-.5.2-.7q0-.4-.2-.7l-.5-.4q-.3-.2-.8-.2-.9 0-1.3.4a2 2 0 0 0-.6 1.3l-1.4-.1q.1-1.4 1-2 .8-.8 2.3-.8.8 0 1.5.3t1 .9.3 1.3q0 .6-.2 1.1-.2.4-.7.9t-1.4.8q-1.1.6-1.6 1.2t-.6 1H92v1.2zm10.8.2a3 3 0 0 1-3-2 6 6 0 0 1-.5-2.4q0-1.4.4-2.4t1.2-1.6 1.9-.5a3 3 0 0 1 1.8.5q.8.6 1.2 1.6t.4 2.4a6 6 0 0 1-.4 2.3q-.5 1-1.2 1.6-.7.5-1.8.5m0-1.2q1 0 1.5-.8t.6-2.4q0-1.1-.3-1.8-.2-.8-.7-1.1t-1.1-.4q-.8 0-1.2.4t-.7 1-.3 1.9q0 1.5.6 2.4t1.6.8m4.6 1q0-1 .3-1.7.3-.8 1-1.4l1.9-1.3 1-.6.4-.5.2-.7q0-.4-.2-.7l-.5-.4q-.3-.2-.8-.2-.9 0-1.3.4a2 2 0 0 0-.6 1.3l-1.4-.1q.1-1.4 1-2 .8-.8 2.3-.8.8 0 1.5.3t1 .9.3 1.3q0 .6-.2 1.1-.2.4-.7.9t-1.4.8q-1.1.6-1.6 1.2t-.6 1h4.5v1.2zm10.5.2q-1 0-1.7-.5t-1-1.3-.4-2q0-1.1.2-2 .2-1 .6-1.6l1-1.1a3 3 0 0 1 1.7-.4q1 0 1.8.6.6.4.9 1.5h-1.3q0-.4-.5-.7l-1-.2q-.9 0-1.5.8t-.6 2.6h-.2q0-.5.4-.8.3-.4.8-.6l1-.2q1 0 1.6.4.6.3 1 1 .3.6.3 1.5.1.9-.4 1.6-.4.6-1 1t-1.7.4m0-1.2q.9 0 1.3-.5t.5-1.3q0-.6-.2-1l-.6-.6-.9-.2-1 .2-.6.6-.2 1q0 .5.2 1l.6.6q.4.3 1 .2m7.8 1V37h1.6l4 7v-7h1.3v8.5h-1.7l-4-6.8v6.8zm11.3.1q-1 .1-1.6-.4-.7-.3-1-1.1a4 4 0 0 1-.4-1.8q0-1 .3-1.7.4-.8 1-1.2a3 3 0 0 1 1.7-.4q.8 0 1.5.4.7.3 1 1.1.4.7.4 1.9v.3h-4.6q0 .9.5 1.4t1.2.5q.6 0 1-.3l.5-.7h1.3q-.3 1-1 1.5a3 3 0 0 1-1.8.5m-1.7-3.9h3.2q0-.8-.4-1.2T131 40q-.7 0-1.2.4a2 2 0 0 0-.5 1.2m7 3.8-2-6.4h1.4l1.3 5 1.4-5h1.3l1.4 5 1.3-5h1.4l-2 6.4h-1.4l-1.3-4.6-1.4 4.6zm13.6 0v-3.4l-3-5.1h1.5l2.1 3.8 2.2-3.8h1.5l-3 5v3.5zm6.9.1q-1 .1-1.7-.4-.7-.3-1-1.1a4 4 0 0 1-.4-1.8q0-1 .4-1.7.3-.8 1-1.2a3 3 0 0 1 1.6-.4q.9 0 1.5.4.7.3 1 1.1.4.7.4 1.9v.3h-4.5q0 .9.4 1.4t1.3.5q.5 0 1-.3l.4-.7h1.3q-.2 1-1 1.5a3 3 0 0 1-1.7.5m-1.7-3.9h3.2q0-.8-.5-1.2t-1-.4q-.8 0-1.2.4a2 2 0 0 0-.5 1.2m7.7 4q-1 0-1.6-.5-.5-.4-.5-1.3t.5-1.3 1.5-.7l2.2-.4q0-.7-.4-1-.3-.4-1-.4t-1 .2l-.4.8h-1.3q0-1 .9-1.6a3 3 0 0 1 1.8-.5q1.3 0 2 .7t.7 1.9v2.8h.5v1.1h-.4l-.7-.1-.5-.4-.1-.9.1.1q0 .4-.4.7-.3.4-.8.6zm.2-1q.7 0 1-.3.4-.1.7-.6l.2-.9v-.4l-1.9.3-.8.4-.2.6q0 .4.3.6.2.3.7.2m4.8.8v-6.4h1.2v1.7q0-.9.4-1.3t1.1-.4h.6v1.2h-.6l-.8.1-.5.5-.1.8v3.8zm11.2.2q-1.2 0-2-.5-1-.6-1.4-1.6-.6-1-.5-2.3 0-1.4.5-2.4a4 4 0 0 1 3.4-2.1q1.6 0 2.4.8.9.7 1.2 2.2h-1.4q0-.8-.7-1.3T179 38t-1.4.4-.9 1.1-.3 1.8.3 1.7 1 1.1q.5.4 1.3.4 1 0 1.6-.5.5-.7.7-1.5h1.3q0 1-.6 1.7t-1.2 1.1a4 4 0 0 1-1.8.4m5-.2V37h1.2v3.6h-.1q0-.6.4-1l.7-.5 1-.1q.7 0 1 .3.6.3.8.8t.3 1.3v4.1H188v-3.8q0-.8-.3-1.2-.3-.5-1-.5t-1 .5-.5 1.3v3.7zm8.7.1q-1 0-1.6-.4t-.6-1.3.5-1.3q.6-.4 1.6-.7l2.2-.4q0-.7-.4-1-.3-.4-1-.4t-1 .2l-.5.8h-1.3q.3-1 1-1.6a3 3 0 0 1 1.8-.5q1.3 0 2 .7t.6 1.9v2.5l.1.3h.5v1.1h-.5l-.7-.1-.4-.4-.1-.9v.1q0 .4-.3.7-.3.4-.8.6zm.2-1q.6 0 1-.2.5-.1.6-.6l.3-.9v-.4l-2 .3q-.5.1-.7.4-.2.2-.2.6t.2.6.8.2m6 .9q-.5 0-1-.3-.3-.4-.3-1V37h1.3v7.3l.4.2h.5v1zm3.4 0q-.7 0-1-.3-.4-.4-.4-1V37h1.2v7l.1.3.4.2h.5v1zm4.5.1q-1 .1-1.6-.4-.7-.3-1-1.1a4 4 0 0 1-.4-1.8q0-1 .3-1.7.4-.8 1-1.2a3 3 0 0 1 1.7-.4q.8 0 1.5.4.7.3 1 1.1.4.7.4 1.9v.3H205q0 .9.5 1.4t1.2.5q.6 0 1-.3l.5-.7h1.3q-.3 1-1 1.5a3 3 0 0 1-1.8.5m-1.7-3.9h3.2q0-.8-.5-1.2-.3-.4-1-.4t-1.2.4a2 2 0 0 0-.5 1.2m5.9 3.8v-6.4h1.1v1.7q0-.7.3-1t.8-.6q.5-.2.9-.2.8 0 1.2.3t.7.9.3 1.2v4.1H215v-3.7l-.1-1-.4-.6-.7-.2q-.8 0-1.1.5-.5.4-.5 1.3v3.7zm9.5 2q-.8 0-1.3-.3t-1-.6l-.5-1h1.3l.5.5q.3.3 1 .3.8 0 1.2-.3.4-.4.4-1v-1q-.2.5-.7.8t-1.1.3a3 3 0 0 1-2.4-1.5q-.4-.7-.4-1.6t.4-1.6 1-1.1a3 3 0 0 1 2.5-.1q.6.3.8.8v-1h1.2V45q0 .8-.4 1.3-.3.6-1 .9zm0-3.4q.8 0 1.2-.5t.4-1.5q0-.6-.2-1.1-.2-.4-.6-.7t-.8-.2q-.8 0-1.2.5-.5.6-.5 1.5t.5 1.5q.4.5 1.2.5m7.2 1.5q-.9.1-1.6-.4-.7-.3-1-1.1a4 4 0 0 1-.4-1.8q0-1 .4-1.7.3-.8 1-1.2a3 3 0 0 1 1.6-.4q.8 0 1.5.4.7.3 1 1.1.4.7.4 1.9v.3H226q0 .9.5 1.4t1.2.5q.6 0 1-.3l.5-.7h1.3q-.3 1-1 1.5a3 3 0 0 1-1.8.5m-1.7-3.9h3.3q-.1-.8-.5-1.2t-1.1-.4q-.8 0-1.1.4a2 2 0 0 0-.6 1.2m9 3.8v-6.4h1.2v6.4zm-.1-7.3v-1.3h1.3v1.3zm5.4 7.4q-.8 0-1.5-.2l-1-.8q-.3-.5-.3-1.1h1.3q0 .5.4.8t1.1.3 1-.2.3-.6v-.4l-.5-.3-1-.2-1.5-.4-.7-.6q-.3-.4-.3-1 0-.8.7-1.4t1.9-.5q.8 0 1.4.3t.8.7q.4.5.5 1l-1.4.1q0-.3-.2-.5l-.5-.4-.6-.2q-.6 0-1 .3l-.2.6v.5q.3 0 .5.3l.9.2q1 0 1.5.4.6.1.8.6.2.3.2.9t-.3 1-1 .6zm7.1-.1V37h1.3v8l-.7-.7h4.9v1.2zm6.3 0v-6.4h1.3v6.4zm0-7.3v-1.3h1.3v1.3zm4.7 7.3-2.3-6.4h1.3l1.8 5.1 1.7-5h1.4l-2.4 6.3zm7.3.1q-1 .1-1.6-.4-.7-.3-1-1.1a4 4 0 0 1-.4-1.8q0-1 .3-1.7.4-.8 1-1.2a3 3 0 0 1 1.7-.4q.8 0 1.5.4.6.3 1 1.1.4.7.4 1.9v.3H264q0 .9.5 1.4t1.2.5q.6 0 1-.3l.5-.7h1.3q-.3 1-1 1.5a3 3 0 0 1-1.8.5m-1.7-3.9h3.2q0-.8-.4-1.2t-1.1-.4q-.7 0-1.2.4a2 2 0 0 0-.5 1.2m6 1.3-.1-3.3V37h1.2v2.7L271 43zm-.3 2.5V44h1.5v1.5z"
			/>
			<path
				fill="url(#l)"
				d="M47.4 93.9q-2 0-3.4-.9t-2-2.2-.8-3.4l3.6-.1q0 1.8.7 2.6.7 1 2 1 1.1 0 1.8-1 .7-.8.7-2.5v-11h3.6v11q0 2-.8 3.4-.7 1.5-2.1 2.3t-3.3.8m15-.1A7 7 0 0 1 59 93q-1.5-.9-2.2-2.4-.9-1.5-.9-3.5 0-2.1.9-3.6t2.2-2.3 3.5-.9 3.4.9 2.3 2.3.8 3.6-.8 3.5q-.8 1.5-2.3 2.4a7 7 0 0 1-3.4.8m0-2.8q1.5 0 2.2-1a5 5 0 0 0 .7-3q0-1.8-.7-2.8t-2.1-1-2.1 1-.8 2.9a5 5 0 0 0 .8 2.9q.8 1 2 1m8.8 2.5V80.6h3.6v12.9zm0-14.4v-3h3.7v3zm7 14.4V80.6h3.2l.1 3.8-.4-.1q.2-1.5.7-2.3.7-.9 1.5-1.3 1-.3 2-.4 1.4 0 2.3.6 1 .6 1.5 1.8.5 1 .5 2.5v8.3H86v-7l-.1-1.8a2 2 0 0 0-.6-1.1q-.5-.4-1.2-.4a2 2 0 0 0-1.8.8 4 4 0 0 0-.6 2.4v7.1zm25.4 0q-2 0-3-1-.8-.8-.9-2.9v-12h3.6v11.6q0 .9.4 1.3.4.3 1.2.3h1.8v2.7zm-6-10.2v-2.7h9.1v2.7zM109 93.5v-17h3.5v7.1h-.4q.1-1 .7-1.8t1.4-1q.9-.5 1.9-.5 1.5 0 2.4.7 1 .6 1.4 1.7.6 1.1.5 2.5v8.3h-3.6v-7.4q0-1.5-.4-2.2t-1.5-.7-1.7.7-.6 2.3v7.3zm20.1.3a7 7 0 0 1-3.4-.8 6 6 0 0 1-2.3-2.4q-.8-1.5-.8-3.5 0-2.1.8-3.6a6 6 0 0 1 2.3-2.3q1.4-.9 3.4-.9t3.3.9q1.5.8 2.2 2.4t.8 3.7v.7h-9q0 1.5.8 2.3.7.8 2 .8.8 0 1.5-.4t.9-1.2l3.6.2a5 5 0 0 1-2.1 3 7 7 0 0 1-4 1m-2.8-8h5.4q0-1.4-.8-2-.7-.8-1.8-.8t-1.9.8-.9 2m24 8q-2.3 0-3.8-.7a6 6 0 0 1-3.5-5.2l3.6-.2q.2 1 .6 1.7.4.8 1.2 1.1t1.9.4q.9 0 1.5-.3l1-.6q.3-.5.3-1.1t-.2-1-1.1-.9l-2.4-.7q-2.2-.5-3.6-1.1t-1.9-1.6-.6-2.4q0-1.6.8-2.7a5 5 0 0 1 2.2-1.8q1.4-.6 3.4-.6 2.1 0 3.6.7 1.5.8 2.2 2 1 1.5 1 3l-3.6.2q0-.8-.5-1.5-.3-.7-1-1t-1.8-.4q-1.2 0-2 .6-.6.5-.6 1.4 0 .7.3 1 .3.5 1 .8l2.2.6q2.4.5 3.8 1.2t2 1.7q.5 1 .5 2.3a5 5 0 0 1-3 4.6q-1.5.6-3.6.6m15.3 0a7 7 0 0 1-3.4-.8 6 6 0 0 1-2.3-2.4q-.8-1.5-.8-3.5 0-2.1.8-3.6a6 6 0 0 1 2.3-2.3q1.4-.9 3.4-.9 1.9 0 3.3.9 1.5.8 2.2 2.4t.8 3.7v.7h-9q0 1.5.7 2.3.8.8 2 .8 1 0 1.6-.4t.9-1.2l3.6.2a5 5 0 0 1-2.1 3 7 7 0 0 1-4 1m-2.8-8h5.4q0-1.4-.8-2-.7-.8-1.8-.8t-1.9.8-.9 2m15.2 8q-2 0-3.2-1a3 3 0 0 1-1.3-2.5q0-1.7 1-2.6a7 7 0 0 1 3.3-1.4l4.1-.8q0-1.2-.6-1.9t-1.6-.6-1.6.4-.7 1.4l-3.7-.2q.5-2 2-3.1a7 7 0 0 1 4-1.2q3 0 4.3 1.4 1.5 1.5 1.5 4v4.4q0 .5.2.8l.5.1h.4v2.5l-.6.1h-.7q-.8 0-1.4-.2-.7-.3-1-1-.6-.5-.5-1.7l.3.2q-.2.8-.8 1.5a4 4 0 0 1-1.6 1q-1 .4-2.3.4m.9-2.5q.9 0 1.6-.3.7-.4 1-1t.4-1.6v-.7l-3 .7q-.8.1-1.2.5-.5.4-.5 1t.5 1 1.2.4m12.7 2.2q-1.6 0-2.5-.8t-.9-2.6V76.5h3.6v13.3q0 .5.3.8l.8.2h.8v2.7zm9.8.3a7 7 0 0 1-3.5-.8q-1.4-.9-2.3-2.4t-.8-3.5.8-3.6q1-1.5 2.3-2.3 1.5-.9 3.5-.9t3.4.9q1.4.8 2.3 2.3t.8 3.6-.8 3.5q-.9 1.5-2.3 2.4a7 7 0 0 1-3.4.8m0-2.8q1.4 0 2-1a5 5 0 0 0 .8-3q0-1.8-.8-2.8-.6-1-2-1t-2.1 1q-.8 1-.8 2.9a5 5 0 0 0 .8 2.9q.8 1 2 1m14.2 2.8q-2 0-3.3-.6a5 5 0 0 1-2-1.5q-.8-1-.9-2.3h3.7q0 .8.7 1.3t1.8.5l1.5-.3q.6-.3.6-1l-.2-.6q-.2-.3-.8-.5l-1.7-.4q-2-.3-3.1-.8t-1.7-1.3-.5-1.8q0-1.9 1.5-3t4.3-1.2q1.8 0 3 .6t2 1.6.8 2.3l-3.6.1q0-.7-.4-1l-.8-.7q-.4-.3-1-.3-1 0-1.6.4-.5.4-.5 1t.3.8q.2.3.7.5l1.4.3q2.1.3 3.3.8t1.8 1.3.5 1.9-.7 2.1q-.8.9-2 1.3a9 9 0 0 1-3 .5m13.6-10.6-.5-4.7v-2h2.9l-.2 6.7zm4.2 0-.2-6.7h2.9v2l-.5 4.7zm5.4 10.3v-17h7.5q1.9 0 3.2.6 1.5.6 2.2 1.8.7 1 .7 2.6a4 4 0 0 1-3.8 4.3v-.2q1.7 0 2.6.8.8.7 1 2.2l.4 4.9h-3.7l-.3-4.3q0-1-.7-1.5-.5-.4-1.8-.4h-3.6v6.2zm3.7-9.3h3.4q1.4 0 2-.6.8-.6.8-1.7t-.8-1.8-2.1-.6h-3.3zm16.9 9.6a4 4 0 0 1-3.1-1.3Q255 91.3 255 89v-8.3h3.6v7.5q0 1.5.4 2.2.5.6 1.4.6a2 2 0 0 0 1.8-.7q.6-.8.6-2.3v-7.3h3.6v12.9h-3.3l-.1-3.7.4.1a5 5 0 0 1-1.3 2.9q-1 1-3 1m10.3-.3V80.6h3.3l.1 3.8-.4-.1q0-1.5.7-2.3.7-.9 1.5-1.3 1-.3 2-.4 1.4 0 2.3.6 1 .6 1.5 1.8.6 1 .5 2.5v8.3h-3.6v-7l-.1-1.8a2 2 0 0 0-.6-1.1q-.4-.4-1.2-.4a2 2 0 0 0-1.8.8 4 4 0 0 0-.6 2.4v7.1zm24 0-4.5-17h3.8l3 12 2.9-12h3.2l3 12 2.8-12h3.9l-4.6 17h-4l-2.8-10.9-2.7 10.9zm19.9 0V80.6h3.6v12.9zm-.1-14.4v-3h3.7v3zm10 14.4q-1.5 0-2.4-.8-1-.8-1-2.6V76.5h3.7v13.3q0 .5.3.8l.7.2h.9v2.7zm8.6.3q-1.6 0-2.9-.8a6 6 0 0 1-1.8-2.4q-.6-1.5-.6-3.5 0-2.1.6-3.6t1.9-2.3 2.8-.9q1.4 0 2.3.6 1 .6 1.5 1.6v-6h3.6v17H336v-1.9q-.6 1-1.7 1.6-1 .6-2.3.6M333 91q.9 0 1.5-.4t1-1.3l.2-2.2q0-1.4-.3-2.2t-.9-1.3-1.5-.5q-1.2 0-2 1a5 5 0 0 0-.7 3 5 5 0 0 0 .7 2.8q.8 1.1 2 1.1m9.4-7.8-.5-4.7v-2h2.9l-.2 6.7zm4.2 0-.2-6.7h2.9v2l-.5 4.7zm10.9 10.3v-17h3.6v8l-1.6-1.1h9.7l-1.6 1.1v-8h3.6v17h-3.6v-8.2l1.6 1.2h-9.7l1.6-1.2v8.2zm20.7.3q-2 0-3.3-1a3 3 0 0 1-1.2-2.5q0-1.7 1-2.6a7 7 0 0 1 3.2-1.4l4.1-.8q0-1.2-.5-1.9T380 83t-1.6.4-.8 1.4l-3.6-.2q.4-2 1.9-3.1a7 7 0 0 1 4-1.2q3 0 4.4 1.4 1.5 1.5 1.4 4v4.4l.2.8.6.1h.3v2.5l-.5.1h-.7q-.8 0-1.5-.2t-1-1q-.4-.5-.4-1.7l.3.2q-.3.8-.9 1.5a4 4 0 0 1-1.6 1q-1 .4-2.2.4m.8-2.5q1 0 1.6-.3.7-.4 1-1t.4-1.6v-.7l-2.9.7q-.9.1-1.3.5t-.4 1q0 .7.4 1t1.2.4m15.2 2.5a7 7 0 0 1-3.4-.8q-1.5-.9-2.3-2.4t-.8-3.5.8-3.6 2.3-2.3 3.4-.9q1.7 0 3 .6t2.3 1.8q.8 1 1 2.7l-3.7.2q-.1-1.2-.9-1.8-.6-.7-1.7-.7-1.4 0-2 1-.9 1.1-.8 3a5 5 0 0 0 .7 2.9q.8 1 2.1 1 1 0 1.7-.6.8-.6.9-2l3.7.2q-.1 1.6-1 2.8-.9 1-2.2 1.8-1.4.6-3 .6m8.3-.3v-17h3.6v9.4l4.8-5.3h4.3l-5 5.3 5.1 7.6h-3.9L408 88l-1.8 1.9v3.6zm18 .3q-2 0-3.3-1a3 3 0 0 1-1.2-2.5q0-1.7 1-2.6a7 7 0 0 1 3.2-1.4l4.2-.8q0-1.2-.6-1.9t-1.6-.6-1.6.4-.8 1.4l-3.6-.2q.4-2 2-3.1a7 7 0 0 1 4-1.2q3 0 4.3 1.4 1.5 1.5 1.5 4v4.4l.1.8.6.1h.4v2.5l-.6.1h-.7q-.8 0-1.5-.2t-1-1q-.4-.5-.4-1.7l.3.2q-.3.8-.9 1.5a4 4 0 0 1-1.6 1q-.9.4-2.2.4m.9-2.5q.8 0 1.5-.3.7-.4 1-1 .5-.7.5-1.6v-.7l-3 .7q-.8.1-1.3.5t-.4 1q0 .7.4 1t1.3.4m14.2 2.2q-2 0-3-1-.9-.8-.9-2.9v-12h3.6v11.6q0 .9.4 1.3.4.3 1.2.3h1.8v2.7zm-6-10.2v-2.7h9v2.7zM441 93.5v-17h3.6v7.1h-.5q.2-1 .8-1.8t1.4-1q.9-.5 1.9-.5 1.4 0 2.4.7t1.4 1.7.5 2.5v8.3h-3.6v-7.4q0-1.5-.4-2.2t-1.5-.7-1.8.7-.6 2.3v7.3zm20.2.3a7 7 0 0 1-3.4-.8q-1.5-.9-2.3-2.4t-.8-3.5.8-3.6 2.3-2.3 3.4-.9 3.4.9 2.3 2.3.8 3.6-.8 3.5q-.8 1.5-2.3 2.4a7 7 0 0 1-3.4.8m0-2.8q1.4 0 2.1-1a5 5 0 0 0 .7-3q0-1.8-.7-2.8-.8-1-2-1-1.5 0-2.2 1t-.7 2.9a5 5 0 0 0 .7 2.9q.8 1 2.1 1m8.8 2.5V80.6h3.2l.2 3.8-.5-.1q.2-1.5.8-2.3.6-.9 1.5-1.3.9-.3 2-.4 1.2 0 2.3.6t1.4 1.8q.6 1 .6 2.5v8.3h-3.6v-7q0-1.2-.2-1.8a2 2 0 0 0-.6-1.1q-.4-.4-1.2-.4a2 2 0 0 0-1.7.8 4 4 0 0 0-.6 2.4v7.1zm14 0v-3.7h3.9v3.7z"
			/>
			<path
				fill="#fff"
				fill-opacity=".6"
				d="M41.2 123.5v-10h3.2q2.4 0 3.6 1.4 1.3 1.2 1.3 3.6t-1.3 3.7q-1.2 1.3-3.5 1.3zm1.5-1.4h1.7q1.7 0 2.5-.9t.8-2.7q0-1.7-.8-2.7-.9-.9-2.5-.9h-1.7zm11.5 1.6q-1.1 0-2-.5-.7-.5-1.2-1.4t-.4-2 .4-2q.4-1 1.3-1.4.8-.6 1.8-.5t1.8.5 1.2 1.3.4 2.1v.4h-5.3q0 1.1.5 1.6t1.5.6q.6 0 1-.3l.7-.8h1.5a3 3 0 0 1-1.2 1.7q-.8.7-2 .7m-2-4.6h3.7q0-1-.5-1.5t-1.3-.5q-.8 0-1.3.5t-.6 1.5m6.8 6.5v-9.5h1.4v1.5h-.1q.3-.9 1-1.3.5-.4 1.4-.4 1 0 1.8.5.7.6 1 1.4.4 1 .4 2t-.4 2q-.3.8-1 1.3t-1.8.6l-1-.2q-.6-.2-.9-.6l-.5-.8.2-.2v3.7zm3.4-3.2q.9 0 1.4-.7.6-.7.5-2 0-1.1-.5-1.8t-1.4-.7q-.6 0-1 .3t-.7.8l-.2 1.5q0 .8.2 1.4t.7.9 1 .3m6.7 1.1q-.7 0-1.2-.4-.4-.3-.4-1.2v-8.3h1.4v8.2q0 .2.2.4h1v1.3zm5.3.2q-1 0-1.9-.5t-1.2-1.4-.4-2 .4-2q.5-1 1.2-1.4.9-.6 1.9-.5t1.8.5 1.3 1.3.4 2q0 1.3-.4 2.1t-1.3 1.4-1.8.5m0-1.3q.9 0 1.5-.7t.5-2q0-1.1-.5-1.8t-1.5-.7q-.9 0-1.5.7t-.5 1.9.5 1.9q.6.7 1.5.7m5.2 3.2v-1.2h1l.5-.1.3-.4.2-.6H81l-2.7-7.2H80l2 5.8 2-5.8h1.6l-3 8.3q-.2.6-.7 1l-1.2.2zm12.8-2a3 3 0 0 1-1.9-.5q-.6-.5-.6-1.5t.5-1.5 1.8-.7l2.6-.5q0-.9-.4-1.3t-1.2-.5-1.1.4q-.5.3-.6.9l-1.5-.1q.2-1.1 1-1.8t2.2-.6q1.5 0 2.3.8t.8 2.3v3.2l.4.1h.2v1.2h-.5l-.8-.1-.5-.5-.2-1h.2l-.5 1-1 .6zm.2-1.1q.8 0 1.2-.3.5-.2.7-.7.3-.4.3-1v-.5l-2.2.4q-.6 0-1 .4l-.2.7q0 .5.3.7.3.3 1 .3m5.6 3.1v-9.5h1.4v1.5h-.1q.3-.9.9-1.3t1.5-.4q1 0 1.8.5.7.6 1 1.4.4 1 .4 2t-.4 2q-.3.8-1 1.3t-1.8.6l-1-.2q-.6-.2-1-.6l-.4-.8.2-.2v3.7zm3.4-3.2q.8 0 1.4-.7t.5-2q0-1.1-.5-1.8t-1.4-.7q-.6 0-1 .3t-.7.8l-.2 1.5q0 .8.2 1.4t.7.9 1 .3m5 3.2v-9.5h1.4v1.5h-.1q.2-.9.9-1.3t1.5-.4q1 0 1.8.5.7.6 1 1.4.4 1 .4 2t-.4 2q-.4.8-1 1.3t-1.8.6l-1-.2q-.6-.2-1-.6l-.4-.8.2-.2v3.7zm3.4-3.2q.8 0 1.4-.7t.5-2q0-1.1-.5-1.8t-1.4-.7q-.6 0-1 .3t-.7.8q-.2.7-.2 1.5t.2 1.4q.2.6.7.9t1 .3m7.8 1.3q-1 0-1.7-.4-.8-.3-1.2-.8t-.4-1.4h1.5q.1.6.6 1 .4.3 1.2.3t1.1-.2q.4-.3.4-.7l-.1-.5-.5-.3-1.1-.3q-1.1-.1-1.8-.4l-.9-.8-.2-1q0-1 .7-1.7.8-.6 2.2-.6 1 0 1.7.3t1 .9l.5 1.2-1.6.1-.2-.7-.6-.4-.8-.2q-.7 0-1 .3t-.4.7.2.6l.5.3 1 .3q1.1.1 1.8.4l1 .7.2 1q0 .8-.4 1.3l-1 .7q-.7.3-1.7.3m4.3 2 .7-2.2h-.7v-1.8h1.8v1.6l-1 2.4zm8.3-2.2-2.2-7.4h1.5l1.6 5.8 1.7-5.8h1.4l1.6 5.8 1.6-5.8h1.6l-2.3 7.4h-1.7l-1.5-5.3-1.6 5.3zm10 0v-7.4h1.5v7.4zm0-8.5v-1.5h1.5v1.5zm3.7 8.5v-7.4h1.3v2-.2q0-.6.4-1.1.3-.5.8-.7l1.1-.2q.8 0 1.4.4.6.3.9 1t.3 1.4v4.8h-1.5v-4.3q0-.7-.2-1.1 0-.5-.4-.7-.3-.3-.9-.3-.8 0-1.2.5-.6.6-.5 1.6v4.3zm14.7.2q-1 0-1.8-.5t-1.3-1.4-.4-2 .4-2q.4-1 1.3-1.4.8-.6 1.8-.5t1.6.3q.8.3 1.2 1 .5.5.6 1.4h-1.6q0-.7-.6-1-.4-.4-1.2-.4t-1.4.7-.6 1.9q0 1.2.6 1.9t1.4.7q.8 0 1.2-.4.5-.5.6-1.2h1.6q-.2.9-.6 1.5a3 3 0 0 1-1.2 1q-.7.4-1.6.4m6.4-.2q-.8 0-1.2-.4-.4-.3-.4-1.2v-8.3h1.5v8.6h1.1v1.3zm5.3.2q-1 0-1.9-.5t-1.2-1.4-.4-2 .4-2q.4-1 1.2-1.4.9-.6 1.9-.5t1.9.5 1.2 1.3.4 2q0 1.3-.4 2.1t-1.2 1.4q-.9.5-1.9.5m0-1.3q.9 0 1.5-.7t.5-2q0-1.1-.5-1.8t-1.5-.7q-.9 0-1.5.7a3 3 0 0 0-.5 1.9q0 1.2.5 1.9t1.5.7m7.5 1.3q-1.2 0-1.8-.8a3 3 0 0 1-.7-2V116h1.5v4.4q0 1 .4 1.4.3.5 1 .5.9 0 1.3-.5t.4-1.5v-4.3h1.5v7.4h-1.4v-2l.2.1q-.2 1-.8 1.6-.7.5-1.6.5m8.2 0a3 3 0 0 1-1.6-.5 3 3 0 0 1-1.1-1.4q-.4-.8-.4-2t.4-2q.4-1 1-1.4.8-.6 1.7-.5t1.4.3q.6.3 1 .9v-3.5h1.4v9.9h-1.4v-1.1q-.3.6-1 1-.6.3-1.4.3m.4-1.3q.7 0 1-.3t.7-1l.2-1.3q0-.8-.2-1.4l-.6-1-1-.2q-1 0-1.5.7a3 3 0 0 0-.5 1.9q0 1.2.5 1.9t1.4.7m11.8 1.3q-1 0-1.8-.4-.7-.3-1.1-.8t-.4-1.4h1.5q0 .6.5 1 .4.3 1.3.3.7 0 1-.2.6-.3.5-.7l-.1-.5-.5-.3-1.2-.3q-1-.1-1.7-.4l-.9-.8-.3-1q0-1 .8-1.7.7-.6 2.2-.6 1 0 1.6.3t1 .9q.5.6.5 1.2l-1.5.1q0-.4-.3-.7l-.5-.4-.8-.2q-.7 0-1 .3t-.4.7l.1.6.6.3 1 .3q1 .1 1.7.4t1 .7l.2 1q.1.8-.4 1.3-.3.4-1 .7t-1.6.3m7 0q-1.2 0-1.8-.8a3 3 0 0 1-.7-2V116h1.5v4.4q0 1 .4 1.4.3.5 1 .5.9 0 1.3-.5t.5-1.5v-4.3h1.4v7.4h-1.3v-2l.1.1q-.1 1-.8 1.6-.7.5-1.6.5m9.3 0q-.8 0-1.4-.4-.6-.3-1-1v1.2H211v-10h1.4v3.6a3 3 0 0 1 2.3-1.2 3 3 0 0 1 1.7.5q.7.4 1 1.3t.4 2a5 5 0 0 1-.4 2.1 3 3 0 0 1-1 1.4 3 3 0 0 1-1.7.5m-.3-1.3q.8 0 1.4-.7t.5-2q0-1.1-.5-1.8t-1.4-.7q-.6 0-1 .3l-.7.9q-.3.6-.3 1.4t.3 1.4.7.9q.4.3 1 .3m7.8 1.3q-1 0-1.8-.4-.7-.3-1-.8-.5-.6-.5-1.4h1.5q.1.6.5 1 .4.3 1.3.3t1.1-.2q.4-.3.4-.7l-.1-.5-.5-.3-1.1-.3q-1.2-.1-1.8-.4l-.9-.8-.2-1q0-1 .7-1.7.8-.6 2.2-.6 1 0 1.7.3t1 .9l.5 1.2-1.6.1q0-.4-.3-.7-.1-.3-.5-.4l-.8-.2q-.7 0-1 .3t-.4.7.2.6l.5.3 1 .3q1 .1 1.8.4l.9.7q.3.5.3 1 0 .8-.4 1.3l-1.1.7q-.7.3-1.6.3m7.6 0q-1 0-1.8-.5t-1.3-1.4-.4-2 .4-2q.4-1 1.3-1.4.8-.6 1.8-.5t1.6.3q.8.3 1.2 1 .5.5.6 1.4h-1.6q0-.7-.6-1t-1.2-.4q-.8 0-1.4.7a3 3 0 0 0-.6 1.9q0 1.2.6 1.9t1.4.7q.8 0 1.2-.4.5-.5.6-1.2h1.6q-.2.9-.6 1.5a3 3 0 0 1-1.2 1q-.6.4-1.6.4m4.7-.2v-7.4h1.4v2-.1q0-1 .5-1.5t1.3-.4h.7v1.3h-.7q-.6 0-1 .2-.3.1-.5.5l-.2 1v4.4zm5.1 0v-7.4h1.5v7.4zm0-8.5v-1.5h1.5v1.5zm3.7 10.6v-9.5h1.4v1.5q.2-.9.8-1.3t1.5-.4q1 0 1.8.5.7.6 1 1.4.4 1 .4 2t-.3 2q-.4.8-1 1.3-.9.6-1.9.6l-1-.2-.9-.6-.4-.8.1-.2v3.7zm3.5-3.2q.8 0 1.4-.7t.5-2q0-1.1-.5-1.8t-1.4-.7q-.7 0-1 .3-.6.3-.7.8-.3.7-.3 1.5l.2 1.4q.3.6.7.9.5.3 1 .3m7.5 1.1q-1 0-1.6-.5-.5-.5-.5-1.5v-7.2h1.5v7q0 .6.2.8l.7.2h1v1.2zm-3.2-6.2V116h4.6v1.2zm6 6.2v-7.4h1.5v7.4zm0-8.5v-1.5h1.5v1.5zm6.5 8.7q-1 0-1.8-.5t-1.3-1.4-.4-2 .4-2q.4-1 1.3-1.4.8-.6 1.8-.5t1.9.5 1.2 1.3.4 2q0 1.3-.4 2.1t-1.2 1.4q-.9.5-1.9.5m0-1.3q1 0 1.5-.7t.5-2q0-1.1-.5-1.8t-1.5-.7q-.9 0-1.5.7t-.5 1.9.5 1.9q.6.7 1.5.7m5 1.1v-7.4h1.4v2l-.1-.2q0-.6.5-1.1.3-.5.8-.7l1.1-.2q.9 0 1.4.4.6.3.8 1t.3 1.4v4.8h-1.5v-4.3l-.1-1.1q-.2-.5-.5-.7-.3-.3-.8-.3-.8 0-1.3.5t-.5 1.6v4.3zm11 .2q-1 0-1.8-.4-.6-.3-1-.8t-.5-1.4h1.5q.1.6.5 1 .5.3 1.3.3t1.1-.2.4-.7l-.1-.5-.5-.3-1.1-.3q-1.1-.1-1.8-.4l-.9-.8-.2-1q0-1 .7-1.7.8-.6 2.2-.6 1 0 1.7.3t1 .9l.5 1.2-1.6.1-.2-.7-.6-.4-.8-.2q-.6 0-1 .3t-.4.7q0 .4.2.6l.5.3 1 .3q1 .1 1.8.4l1 .7.2 1q0 .8-.4 1.3l-1.1.7q-.7.3-1.6.3m4.3 2 .7-2.2h-.7v-1.8h1.8v1.6l-1 2.4zm8.9-2a3 3 0 0 1-1.9-.6q-.6-.5-.7-1.5t.6-1.5 1.8-.7l2.6-.5q0-.9-.4-1.3t-1.2-.5-1.2.4-.5.9l-1.5-.1q.1-1.1 1-1.8t2.2-.6q1.4 0 2.3.8t.8 2.3v3.2l.4.1h.2v1.2h-.5l-.9-.1-.5-.5-.1-1h.1q0 .6-.5 1l-.9.6zm.2-1.2q.8 0 1.2-.3t.7-.7.3-1v-.5l-2.2.4q-.7 0-1 .4l-.2.7q0 .5.3.7.3.3 1 .3m5.6 1v-7.4h1.3v2-.2q0-.6.4-1.1.3-.5.8-.7l1.1-.2q.9 0 1.4.4.6.3.9 1l.2 1.4v4.8h-1.4v-4.3q0-.7-.2-1.1 0-.5-.4-.7-.4-.3-.9-.3-.8 0-1.3.5t-.4 1.6v4.3zm10.7.2a3 3 0 0 1-1.6-.5 3 3 0 0 1-1.1-1.4q-.4-.8-.4-2t.4-2q.4-1 1-1.4.7-.6 1.7-.5.8 0 1.4.3t1 .9v-3.5h1.4v9.9h-1.4v-1.1q-.4.6-1 1-.5.3-1.4.3m.4-1.3q.6 0 1-.3t.7-1l.2-1.3q0-.8-.2-1.4l-.7-1-1-.2q-.9 0-1.4.7a3 3 0 0 0-.5 1.9q0 1.2.5 1.9t1.4.7m11.9 3.4q-.9 0-1.6-.3-.6-.3-1-.8t-.6-1l1.5-.2q.1.5.5.8l1.2.2q.9.1 1.4-.4.5-.3.5-1.1v-1.1l-.8.9q-.6.3-1.4.3a3 3 0 0 1-2.8-1.7q-.3-.9-.4-1.9 0-1 .4-1.9t1.2-1.3a3 3 0 0 1 3 0q.6.3.9 1V116h1.4v6.8q0 .9-.4 1.6-.5.6-1.2 1-.7.3-1.8.3m0-4q.9 0 1.4-.6t.5-1.7q0-.8-.2-1.2-.3-.6-.7-.9t-1-.3q-.9 0-1.4.7-.6.6-.5 1.7 0 1 .5 1.7t1.4.7m8.4 1.9q-1 0-1.9-.5-.7-.5-1.2-1.4t-.4-2 .4-2q.5-1 1.2-1.4.9-.6 1.9-.5t1.8.5 1.2 1.3.4 2.1v.4H328q0 1.1.6 1.6t1.4.6 1.1-.3q.4-.3.6-.8h1.6a3 3 0 0 1-1.2 1.7q-.8.7-2 .7m-2-4.6h3.8q0-1-.5-1.5t-1.3-.5q-.8 0-1.3.5t-.7 1.5m9.5 4.4q-1 0-1.6-.5-.5-.5-.5-1.5v-7.2h1.5v7q0 .6.2.8l.7.2h1v1.2zm-3.2-6.2V116h4.6v1.2zm10.2 6.2v-8q0-.8.5-1.4t1.7-.5h1.3v1.2h-1.1q-.4 0-.7.2l-.2.7v7.8zm-1-6.1v-1.2h4.4v1.2zm8.5 6.3q-1 0-1.9-.5-.7-.5-1.2-1.4t-.4-2 .4-2q.4-1 1.2-1.4.9-.6 1.9-.5t1.8.5 1.1 1.3q.5.9.5 2.1v.4H350q0 1.1.6 1.6t1.4.6q.7 0 1.1-.3t.6-.8h1.6a3 3 0 0 1-1.2 1.7q-1 .7-2 .7m-2-4.6h3.8q0-1-.6-1.5t-1.2-.5q-.9 0-1.3.5-.6.6-.7 1.5m9.1 4.6a3 3 0 0 1-1.8-.6q-.7-.5-.7-1.5t.5-1.5 1.9-.7l2.5-.5q0-.9-.4-1.3t-1.2-.5-1.1.4q-.5.3-.6.9l-1.5-.1q.2-1.1 1-1.8t2.2-.6q1.5 0 2.3.8t.8 2.3v3.2l.4.1h.3v1.2h-.6l-.8-.1-.5-.5-.2-1h.2l-.5 1-1 .6zm.3-1.2q.6 0 1.1-.3t.7-.7q.3-.4.3-1v-.5l-2.2.4q-.6 0-1 .4l-.2.7q0 .5.3.7.4.3 1 .3m8 1q-1 0-1.6-.5-.5-.5-.5-1.5v-7.2h1.5v7q0 .6.2.8l.7.2h1v1.2zm-3.2-6.2V116h4.6v1.2zm8.5 6.4q-1.2 0-1.8-.8a3 3 0 0 1-.7-2V116h1.5v4.4q0 1 .3 1.4.4.5 1.1.5.9 0 1.3-.5t.4-1.5v-4.3h1.5v7.4H375v-2l.2.1q-.2 1-.8 1.6-.6.5-1.6.5m5.7-.2v-7.4h1.4v2l-.1-.1q.1-1 .6-1.5t1.3-.4h.7v1.3h-.7q-.6 0-1 .2-.3.1-.5.5l-.2 1v4.4zm8 .2q-1 0-1.9-.5-.7-.5-1.2-1.4t-.4-2 .4-2q.4-1 1.2-1.4.9-.6 1.9-.5t1.8.5 1.2 1.3.4 2.1v.4h-5.4q0 1.1.6 1.6t1.4.6q.7 0 1.1-.3t.6-.8h1.6a3 3 0 0 1-1.2 1.7q-.9.7-2 .7m-2-4.6h3.8q0-1-.6-1.5t-1.2-.5q-.8 0-1.3.5t-.7 1.5m9.5 4.6a3 3 0 0 1-1.6-.5 3 3 0 0 1-1.1-1.4q-.4-.8-.4-2t.4-2q.4-1 1-1.4.9-.6 1.7-.5.9 0 1.4.3.6.3 1 .9v-3.5h1.4v9.9h-1.4v-1.1q-.3.6-1 1-.5.3-1.4.3m.4-1.3q.6 0 1-.3t.7-1l.2-1.3q0-.8-.2-1.4t-.6-1l-1-.2q-1 0-1.5.7a3 3 0 0 0-.5 1.9q0 1.2.5 1.9t1.4.7m5 1.1v-1.8h1.9v1.8z"
			/>
			<g filter="url(#m)">
				<g clip-path="url(#n)">
					<rect width="120" height="36" x="40" y="152.5" fill="#000" rx="18" />
					<path
						fill="#fff"
						fill-opacity=".5"
						d="M186.1 146q-.1 0-.2.2l.1.2q.1 0 .2-.2zm-1 5.5-.2.1.2.2.1-.2zm-10-7-.2.2.2.2.1-.1zm-.8 4.8-.2.1.2.2.1-.1zm-10-6.2-.3.1.2.2.1-.1zm-1 5-.2.2.2.2.1-.1zm-1 6.5-.3.1.1.2.2-.1zm-9.9-7.9-.2.1.1.2.2-.1zm8.3 16.7-.3.1.2.3.1-.2zm-2.8-2.9h-.6q.2.3.6.4.2 0 .3-.2 0-.1-.3-.2m-6.6-7.4q0 0-.3.2l.2.2.1-.2zm2.2 4.5-.1.3h.3v-.3zm1.8 2.6v.3h.2v-.3zm3.3 5.5-.1.3h.3v-.3zm-17.8-23v.3q0 0 .2 0v-.2zm4.6 7v.2h.2v-.2q0-.2-.2 0m4.7 6.7-.1.3h.3v-.2zm5.3 8q0 0 0 .2h.2v-.2q0 0-.2 0M124 121.1l-.2.2.3.2v-.4m17.5 26.5h-.6l.6.3.3-.1q0-.2-.2-.2m17.5 24.5-.6.3-.1.3h.3zm-9.2-10.3q-.1 0-.2.2l.2.2v-.2q0-.1 0-.2M147 159l-.6.1.5.3.4-.1zm6.9 11h-.7l.6.3.3-.1q0-.1-.2-.3M136 144l-.4.6.6-.3q.2-.2.1-.4zm17.2 25-.2.3.1.2q.2 0 .2-.2zm-28.9-42.5-.2.2.2.2.1-.2zm15.9 24.8q-.4.3-.4.6l.5-.3q.3-.2.2-.4zm-3.7-4.9h-.6q.2.3.6.3h.3q0-.3-.3-.3m6.3 11.1-.1.3h.3l.4-.6zm1.7 2.2-.2.4.4-.1v-.3zm5.1 8.1q-.1.1-.1.4l.3-.1v-.3zm3.7 6.5q-.1 0-.2 0v.2h.2zm-20.1-28.5v.3h.2q.1-.1.1-.4zm-8.5-12.8-.1.2.2.1v-.3m13.6 21q0 0 0 .2h.2l.1-.3zm-1.8-2.7v.3h.1q.1 0 .1-.3zm.6 1.5h-.4q0 .3.3.3l.2-.1zm14.5 22.1-.2.2.1.2q.2 0 .2-.2zm-3.4-4.3q0 0-.3.2l.2.2.1-.2zm-16.8-24.4-.6.1.5.3.4-.1zm5.4 8.3-.2.1.1.2q.2 0 .2-.2zm-19.4-27h-.2v.3h.2zm21.7 34.2-.2.4.3-.1q.4-.3.4-.6zm-7.4-11.2v.3h.2v-.2zm4.6 6.8v.3h.2v-.2q0 0-.2 0m4.7 6.9-.1.3h.3v-.3zm-28.1-41q-.1 0-.2.2.1 0 .2 0h.1q0-.3-.1-.2m19.2 28.4-.3.1.3.2.1-.1zm-6.7-9.8-.2.2.2.1v-.3m17.5 26.6h-.6l.6.3.3-.1q0-.2-.3-.2m-13-17.6v.3h.3l.1-.3zm2 2.5-.3.1.2.2.1-.1zm3.2 5.7q-.2 0 0 .2 0 0 .1 0l.2-.3zm-2.2-3.2v.2l.2.1v-.3zM122 140l-.6.3h.6q.3 0 .3-.2zm16 23.8h-.6q.2.3.5.4.3 0 .4-.2 0-.1-.3-.2m4.5 6.8-.1.1.1.2.2-.2zM113.2 128l-.2.2.2.1.1-.1zm22 33.6-.3.1.3.3.1-.2zm-8.2-10h-.3q.1.3.2.3.2 0 .2-.2zm-1-.9-.2.2q0 .2.2.1v-.3m17.2 26.7-.1.1.1.2.2-.3zm-29.5-43-.2.2.2.2v-.4m10.4 16.8-.1.2.1.1h.2q0-.2-.2-.3m15.6 24.3q-.3-.2-.4 0 0 0 .2.3l.6.2zm-7.9-11-.1-.1v.3h.2zm9.7 14.2-.2.1v.2h.3zM122 151q-.3 0-.4.2l.3.2q.1 0 .2-.2zm-1.7-.8-.6.3h.6q.3 0 .3-.2zm8.5 12.6-.1.2q0 .1.2.2l.1-.3q0 0-.2 0m-7.1-10h-.2l.1.3q.2 0 .2-.2zm8 12.4h-.3v.3h.3zm-3.3-4.4-.1.2q0 .2.2.2l.1-.2q0-.2-.2-.2m-12.1-17.5q-.1 0-.2.2 0 0 .2 0zm-12.4-18-.2.2.2.1v-.3m26.2 39.5-.2.1q0 .2.2.2l.1-.2q0-.1-.1-.1M110.9 141l-.6.3h.6l.3-.1q0-.2-.3-.2m15 23.1h-.2v.3h.3zm8.8 13.5-.2.1v.2h.2zm-32.5-47.2q-.1 0-.2.2l.2.1.1-.2zm30.2 44.8-.1.2q0 .1.2.1v-.3zm-9.5-12.3-.1.2.1.1.2-.1zm11.5 17.5v.2l.2.1v-.3zm-11.2-16.3q-.1 0-.1.1l.1.2.2-.3zm7.8 12v.2l.2.2q0-.1 0-.4zM115 152q-.1 0-.2.2l.2.1v-.3m2.7 5.5-.2.3.1.2.2-.2zm7.2 10.9q-.2 0-.2 0 0 .1 0 .2h.2zm8.3 12.8q0 0 0 .2t.2.2v-.4zm-2.3-3.3h-.2v.3l.3-.1zm-28.2-41.2-.1.2.2.2v-.4m13.5 22.9q-.1 0 0 .2 0 0 .1 0l.2-.3zm-7-9.1-.6.2h.7l.2-.1q0-.2-.3-.1m13.9 21.3q-.3 0-.2.3h.3l.5-.5s-.5 0-.6.2m-9.3-13.5-.1.2.2.1q.1 0 .3-.2zm7.5 11.5q-.3 0-.3.2t.3.2l.6-.3zm3.7 5.6q-.2 0 0 .4l.4.5s0-.5-.2-.7q-.1-.3-.2-.2m-9.4-13q0-.2-.2 0v.2h.3zm11.4 18.2v.4l.4.5-.1-.7q0-.3-.3-.2m-23.6-35-.2.1.2.2zm-3.4-5.2h-.3l.1.3h.2zm11.6 18.3-.6.2h.6l.3-.1q0-.2-.3-.1m-2.1-3.5h-.3v.3h.3zm-4.8-6.2q-.1 0-.2 0v.2h.2zm-4.7-5.4-.6.3h.6l.3-.1q0-.2-.3-.2m20.7 31.2v.3h.1l.1-.2q0 0-.2 0m-10.1-13.6v.2q0 0 .2 0v-.2zM69 100.7h-.3v.3h.3zm44.7 68-.2.1q0 .2.2.2l.3-.2zm-10-14.3-.1.2.2.2v-.4m17.8 26.7-.3.3v.2l.3-.1zm-6-8.1-.3.1v.3h.2q.1-.3 0-.4m4.8 9.4-.2.3h.3q.5-.2.5-.5-.2 0-.6.2m-53.4-79q-.1 0-.2 0v.2h.2zm29.8 44.2-.1.2v.2l.3-.2zm4.2 6.7q-.3-.3-.6-.3l.4.6h.3zm8.8 13-.3.2v.3h.2zm-12-15-.2.2.3.1.6-.2zm6.6 8.8h-.3l.1.3h.2zm-7.4-10-.1.1.1.2.2-.2zm1.5 2-.2.1v.2h.2zm6 10.2q-.1 0-.2.2l.2.1v-.3m2.9 4.6-.1.2v.2l.3-.2zm6.4 11q-.2 0-.2.2l.2.1q.1 0 .3-.2zm-7.3-11-.2.1q0 .2.2.2l.1-.1zm-9.3-13.5q0 0 0 .2v.2l.2-.2zm-4.5-6.9-.2.1v.2h.2zm11.4 20v.2h.2v-.3zm-23.5-33.9-.3.2.3.2.6-.3zm8.5 12.5q0 0 0 .1v.2l.4-.2q-.1-.2-.4-.1m-2.5-3.6-.5.4q-.1.3 0 .4l.2-.2zm23.5 36-.5.5q0 .3 0 .4 0 0 .3-.2zm-35.3-50.2q-.2 0-.4.2v.2h.3q0-.3 0-.4m5.6 9.1-.2.1v.2h.2zm27.3 40.7-.1.2v.2l.3-.2zm-3.5-4.8h-.3v.2h.3zm-8.3-10.6h-.2v.2h.3zm-25.3-35.8v.4l.2-.2zm38 56.4-.2.2v.2h.2q0-.1 0-.4m-48.5-70.8q-.1 0-.2.2l.2.2.1-.2zM80.7 144q-.3 0-.3.2t.3.1l.6-.2zm8.8 12.4h-.1l-.2.2v.3h.3v-.2l.3-.2zm13.4 21.4-.3.2v.2h.2q.1-.1.1-.4m-27.2-39.2q-.2 0-.2.2l.2.1.3-.2zm-5.6-8.6h-.3l.1.2q0 .2.2 0zm37.8 57.1v.3q.2 0 .2-.2zm-24.2-36.3-.3.2v.3h.3zM59.5 116l-.2.1.2.2.1-.1zm43.2 64.5q-.2 0-.2.2l.2.1.3-.2zm-18.5-26.8-.1.2v.2l.3-.2zM75 139.1l-.5.4q0 .3 0 .4l.2-.2zm3 6-.4.2v.3h.3zm-19-25.8-.3.1.2.2.1-.1zm-4.4-5.6H54q.2.3.5.3h.3q0-.3-.2-.3M96 174.8l-.2.2q0 .2.2.2l.1-.2zm-27.6-38.7q-.3 0-.3.3h.3q.5 0 .6-.2zm19 27.7H87l.1.3.2-.1zm2.8 5.1-.2.2.2.2q.2 0 .1-.2zm4.9 7.6v.2h.2v-.2q-.1 0-.2 0m-19-27.8-.2.2q0 .1.2.1t.2-.2zm27.1 40.2-.5.5v.3l.2-.1q.4-.4.3-.7m-19.7-27.8-.2.1v.2h.2zm18.4 29.3q-.2 0-.3.2l.3.1.6-.2q-.2-.2-.6-.1m-50.3-73.7H51l.6.3.3-.1q0-.1-.3-.2m45.7 66.9H97v.3h.2zm-44.5-63.2h-.6l.5.3.4-.1q0-.2-.3-.2m26.3 40q-.3.2-.2.3h.3q.4-.4.4-.6zm2.3 4-.2.1q0 .2.3.2l.6-.3zm7.8 12.3q-.1 0-.1.3h.3l.4-.6zm-1-2.2-.1.1.1.2q.2 0 .2-.2zm7.5 10.8-.2.3.1.2.2-.1zM57 129.4q-.1 0-.2.2l.2.2.1-.2zm39.8 59-.1.3v.1q.2 0 .3-.2zM76.4 159l-.1.2.1.2.3-.3zm-5.2-7.8h-.3v.2h.3zm25 37.1-.3.2v.3h.2q.1-.3.1-.5m-44.6-64.6-.6.1.6.3.3-.1zm42.5 62.8-.2.2q0 .2.2.2l.1-.1zm-13.4-19.2-.6-.2.4.5h.4q0 0-.2-.3m7.5 11.4-.2.1q0 .2.2.2l.1-.1zm-12.7-19.7-.5.5q0 .2 0 .4 0 0 .3-.2.2-.4.2-.7m15.3 24.4v.2q0 .2.2 0 .1 0 .1-.3zm-7.4-11.7H83l.1.3h.2zm-10.9-15.5v.3q.2 0 .3-.2zm-16-23.3q-.1 0-.2.2l.2.2.1-.2zm26 38.5v.4l.1.1.2-.2zM95 190.6v.2q0 .1.2 0l.2-.3zm.9.5-.2.4.1.2.2-.2zm-20-29-.1.2.1.2.2-.1zm-25.4-35.2-.6.1.6.3.3-.1zm30 43.7-.1.7.1.4.2-.4zm13.8 21.7-.2.2.1.1.2-.1zm-6.2-7.9q-.2 0-.2.2l.1.1.2-.1zm-1.6-2.8-.2.7.1.3q.2 0 .2-.3zm-22.9-32.7-.2.6.1.4.2-.3zm-7.8-11q-.2 0-.3.2l.2.2.1-.2zm27 41.2v.7l.1.3q.2 0 .1-.4zm-33.9-49q-.1 0-.3.2l.2.2q.2 0 .2-.2zm31.6 48.3-.2.3q0 .2.2.2l.1-.2zm7.7 11.8-.2.2.1.2q.2 0 .2-.2zm-1.9-2.8-.2.7.1.3q.2 0 .2-.3zm-.5 0h-.6l.5.3h.4q0-.3-.3-.3m-13.9-20.6-.1.2.1.1h.2q0-.2-.2-.3M84 184.7v.7q0 .3.2.2l.1-.3c0-.2-.2-.7-.3-.6m-20.7-29v.2h.2l.2-.4zm5.1 8v.3h.2l.1-.3zm7.9 11-.6-.1.4.5h.3zm3.2 4.8H79l.1.3h.2zm-12.5-18.3-.1.4v.1l.3-.1q0-.3-.2-.4m8 12.1-.2.3q0 0 .2 0t.1-.1zm-1.5-1.4v.2h.2q.1 0 .1-.3zm-25.5-38h-.4l.3.3q.1 0 .2-.2zM78.5 180q0 .1 0 .2 0 .2.2 0 .1 0 .1-.3zM71 168.4l-.6-.2.4.5h.3zm12 18.5v.2q.2 0 .2 0 .1 0 .1-.2zm-7-9.2-.2.4q0 .2.2.1.2 0 .1-.2 0-.1-.2-.3m4.2 6.5-.2.3q0 .2.2.2l.1-.2zm6.1 9-.2.7.1.4.2-.4zm-9-12.8-.3.7.1.4.2-.4zm10 15.6-.2.2.1.2q.2 0 .2-.2zm-12.6-16.7q-.2 0-.1.3h.1l.2-.1zm-1.1-1.6-.2.3.1.2q.2 0 .2-.2zm3.6 5.6v.4q0 0 .1 0l.1-.1zm7.7 13q-.2 0-.1.3l.3-.1c.1-.1.5-.5.4-.6zm-4.4-7.7q-.2 0-.4 0l.2.3.2-.1zm-.2 1.4-.2.4.1.1.2-.1zm-7.4-10v.1q.1.2.2 0 0 0 0-.2zm-1.4-2.2-.2.1.1.2q.2 0 .2-.2zm7.3 11-.1.3q0 .2.2.1 0 0 0-.2zm-2.9-4v.3l.1.1.1-.2q0-.1-.2-.1m1.1 1.5-.2.6.1.4.2-.3zm6 9.6h-.6q.2.3.5.4l.4-.1zm-3.1-3.5v.3l.2.1v-.2zm2.5 4.8v.4q0 .1.2 0 0 0 0-.2zm-4.9-6.9-.1.3h.3q0-.3-.2-.3m-10.3-14.8-.1.3q0 0 .2 0 0 0 0-.1zm8.2 11.9H75l.1.3.2-.1zm-10.1-14.2h-.4l.2.3h.2zm2.9 6.2-.1.2q0 .2.2.2v-.2zm2.6 3.6q-.1 0-.4 0l.2.3h.2zm7.4 13-.1.3q0 0 .2 0 0-.2-.1-.2m-12.5-18.6-.6-.1.4.4h.3zm-3.6-4.2-.6-.2.4.5h.3zm7.4 11.8q-.2 0-.1.2l.1.1.2-.2zm-2.3-2.2v.8q0 .3.2.2l.1-.3zm9.7 15-.1.3q0 .2.2.2v-.3zm-5.9-7.3v.2q0 0 .1 0l.1-.1q0-.2-.2-.1m4.6 7q-.2 0-.4 0l.2.3h.2zm-7-9.1q-.2.2-.1.7 0 .3.2.3 0 0 0-.4t-.2-.6m-10-13.9v.7q0 .3.3.3v-.4zM74.2 198h-.2q-.2.3 0 .4.1 0 .2-.2zm-2.4-1.7q0 0 0 .2v.1q.3 0 .2-.2 0-.1-.2-.1m-1.6-2.3v.7q0 .2.2.3v-.4c0-.2-.1-.7-.2-.6m.6 2.6h-.2v.3l.2-.1zm-10.1-14.7-.1.4.2.1q0 0 0-.2zm-.2.3-.2.1v.2h.2zm-3.3-4.8h-.2v.3h.3zm8.8 14.6h-.3l.1.3h.2zm4.9 7.7v.7q0 .3.2.3v-.4zm-9-12.2v.3l.1.2.2-.3zm-1.3-1.2q-.3-.2-.6-.2l.5.5h.3q0 0-.2-.3m8.7 13.5-.1.2q0 .3.2.3v-.3zM56.9 182q-.3-.2-.6-.2l.5.5h.3q0-.1-.2-.3m6.5 10.8v.4l.1.1.1-.2q0-.2-.2-.3m-5.4-8v.7q0 .3.2.3 0 0 0-.4zm-6.5-7.8-.2.1v.2h.2zm7.8 13.4v.7q0 .2.2.3v-.4c0-.2-.1-.7-.2-.6m4.8 8.1q0 .1 0 .4 0 .2.1.1l.1-.2zm-10.3-15q-.2 0-.1.3l.1.1q.2 0 .2-.2zm8.2 12v.7q0 .3.2.3l.1-.4zm3.5 5.9h-.2v.2q.1 0 .2 0zM51.6 181q-.3-.2-.6-.2l.5.5h.3q0 0-.2-.3m11.5 18.4h-.2v.3l.2-.1zm-11.4-15.3q0 0 0 .2v.1q.3 0 .2-.2zm4 7h-.1v.3h.2zm-3.2-4.8h-.2v.3h.2zm11 16q-.2-.1-.4.1-.2.4-.2.7l.5-.5zM47 178.6q-.3-.2-.6-.2l.4.5h.4q0 0-.2-.3m14.3 21.2q0 0-.3.2l-.3.6.5-.5zm0 1.7v.2q0 .3.2.3v-.3zM53 189.7l-.1.2q0 .2.2.2v-.2zm3.3 5q0 0 0 .2v.1q.3 0 .2-.2zm-.8.3-.2.1v.2h.3zm-3.6-4.2-.2.1v.2h.3zm-2.8-4.1v.7l.1.3q.2 0 .1-.4zm8.8 13q0 0-.3.2l-.2.6.4-.4q.2-.4 0-.4m-11-13.6h-.2v.3h.2zm-3.7-4.7h-.4l.2.3h.2zm7.1 10.8v.7q0 .4.2.3l.1-.3zm7.6 12.2v.2q0 .1.1.1l.1-.2q0 0-.2 0M41 179v.7q0 .4.2.3v-.3c0-.2 0-.7-.2-.7m4 6.7-.1.4q0 .2.2.1v-.2zm1.7 4.3-.2.1v.2h.3zm-4.3-6.2h-.2v.3h.3zm14 22H56v.3l.2-.1zm-13.4-19-.1.2q0 .2.2.2v-.2zM53.5 204v.2q0 0 .1 0l.1-.1.2-.1v-.2h-.2v.2zm-11.4-16.5-.2.1v.2h.2zm9.4 14.4h-.2v.3l.2-.1zm-15.2-21.2-.6-.1.4.4h.3zm14 26h-.1q0 .3.2.3v-.3zm.1.3q0 0-.3.2-.2.4-.2.7l.5-.5zM32 180.8v.7q0 .3.2.3v-.4z"
					/>
					<path
						fill="#fafafa"
						d="M63.2 175.7q-1 0-1.8-.4t-1.1-1.3q-.4-.7-.4-1.8l1.5-.1q0 1 .5 1.7.4.5 1.3.5t1.3-.6.5-1.7v-6.4h1.5v6.4q0 1.2-.4 2a3 3 0 0 1-1.2 1.3q-.7.4-1.7.4m8.4 0q-1 0-1.8-.5t-1.3-1.4-.4-2 .4-2q.4-1 1.3-1.4.8-.6 1.8-.5t1.9.5 1.2 1.3.4 2q0 1.3-.4 2.1t-1.2 1.4q-.9.5-1.9.5m0-1.3q1 0 1.5-.7t.5-2q0-1.1-.5-1.8t-1.5-.7q-.9 0-1.5.7t-.5 1.9.5 1.9q.6.7 1.5.7m5 1.1v-7.4h1.5v7.4zm0-8.5v-1.5h1.6v1.5zm3.8 8.5v-7.4h1.3v2l-.1-.2q0-.6.5-1.1.3-.5.8-.7l1.1-.2q.8 0 1.4.4.5.3.8 1t.3 1.4v4.8H85v-4.3L85 170q0-.5-.5-.7-.3-.3-.8-.3-.8 0-1.3.5t-.5 1.6v4.3zm11.8 0v-10H94l4.6 8.2v-8.1h1.5v9.9h-2l-4.5-8v8zm13.2.2q-1 0-1.9-.5t-1.2-1.4-.4-2 .4-2q.4-1 1.2-1.4.9-.6 1.9-.5t1.9.5q.8.4 1.2 1.3t.4 2q0 1.3-.4 2.1t-1.2 1.4q-.8.5-2 .5m0-1.3q.9 0 1.5-.7t.5-2a3 3 0 0 0-.5-1.8q-.6-.7-1.5-.7t-1.5.7q-.5.6-.5 1.9t.5 1.9 1.5.7m6.3 1.1-2.3-7.4h1.6l1.6 5.8 1.6-5.8h1.4l1.7 5.8 1.6-5.8h1.5l-2.2 7.4h-1.7l-1.6-5.3-1.5 5.3z"
					/>
					<path
						stroke="#a1a1aa"
						stroke-linecap="round"
						stroke-linejoin="round"
						stroke-width="1.3"
						d="M128.3 170.5h9.4m0 0-4.7-4.7m4.7 4.7-4.7 4.7"
					/>
					<g filter="url(#o)" opacity=".8">
						<rect width="102.5" height="5" x="48.8" y="185.6" fill="url(#p)" rx="2.5" />
					</g>
					<g filter="url(#q)" opacity=".8">
						<rect width="63" height="7.6" x="68.5" y="182.9" fill="url(#r)" rx="3.8" />
					</g>
				</g>
				<rect width="119" height="35" x="40.5" y="153" stroke="url(#s)" rx="17.5" />
			</g>
		</g>
	</g>
	<defs>
		<linearGradient
			id="c"
			x1="695.3"
			x2="895.5"
			y1="120.5"
			y2="120.5"
			gradientUnits="userSpaceOnUse"
		>
			<stop stop-color="#3b82f6" />
			<stop offset="1" stop-color="#5978ac" />
		</linearGradient>
		<linearGradient
			id="d"
			x1="336.1"
			x2="641.1"
			y1="17.4"
			y2="17.4"
			gradientUnits="userSpaceOnUse"
		>
			<stop stop-color="#3b82f6" />
			<stop offset="1" stop-color="#5978ac" />
		</linearGradient>
		<linearGradient
			id="e"
			x1="807.7"
			x2="939.2"
			y1="150"
			y2="150"
			gradientUnits="userSpaceOnUse"
		>
			<stop stop-color="#3b82f6" />
			<stop offset="1" stop-color="#5978ac" />
		</linearGradient>
		<linearGradient
			id="f"
			x1="714.7"
			x2="776.5"
			y1="166.3"
			y2="166.3"
			gradientUnits="userSpaceOnUse"
		>
			<stop stop-color="#3b82f6" />
			<stop offset="1" stop-color="#5978ac" />
		</linearGradient>
		<linearGradient
			id="g"
			x1="714.7"
			x2="776.5"
			y1="166.3"
			y2="166.3"
			gradientUnits="userSpaceOnUse"
		>
			<stop stop-color="#3b82f6" />
			<stop offset="1" stop-color="#5978ac" />
		</linearGradient>
		<linearGradient
			id="i"
			x1="538.2"
			x2="709.8"
			y1="130.8"
			y2="130.8"
			gradientUnits="userSpaceOnUse"
		>
			<stop stop-color="#3b82f6" />
			<stop offset="1" stop-color="#5978ac" />
		</linearGradient>
		<linearGradient
			id="j"
			x1="575.6"
			x2="862.1"
			y1="-30"
			y2="-30"
			gradientUnits="userSpaceOnUse"
		>
			<stop stop-color="#3b82f6" />
			<stop offset="1" stop-color="#5978ac" />
		</linearGradient>
		<linearGradient id="k" x1="0" x2="831" y1="109.5" y2="109.5" gradientUnits="userSpaceOnUse">
			<stop offset=".5" />
			<stop offset="1" stop-opacity="0" />
		</linearGradient>
		<linearGradient id="l" x1="40" x2="489" y1="84.5" y2="84.5" gradientUnits="userSpaceOnUse">
			<stop stop-color="#fff" />
			<stop offset="1" stop-color="#146dff" />
		</linearGradient>
		<linearGradient
			id="p"
			x1="48.8"
			x2="151.2"
			y1="188.1"
			y2="188.1"
			gradientUnits="userSpaceOnUse"
		>
			<stop stop-color="#95bdfe" stop-opacity="0" />
			<stop offset=".5" stop-color="#79acff" />
			<stop offset="1" stop-color="#95bdfe" stop-opacity="0" />
		</linearGradient>
		<linearGradient
			id="r"
			x1="68.5"
			x2="131.5"
			y1="186.8"
			y2="186.8"
			gradientUnits="userSpaceOnUse"
		>
			<stop stop-color="#95bdfe" stop-opacity="0" />
			<stop offset=".5" stop-color="#448bff" />
			<stop offset="1" stop-color="#95bdfe" stop-opacity="0" />
		</linearGradient>
		<linearGradient
			id="s"
			x1="40"
			x2="160"
			y1="170.5"
			y2="170.5"
			gradientUnits="userSpaceOnUse"
		>
			<stop stop-color="#fff" stop-opacity=".1" />
			<stop offset=".5" stop-color="#fff" stop-opacity=".2" />
			<stop offset="1" stop-color="#fff" stop-opacity=".1" />
		</linearGradient>
		<filter
			id="a"
			width="831"
			height="219"
			x="0"
			y="0"
			color-interpolation-filters="sRGB"
			filterUnits="userSpaceOnUse"
		>
			<feFlood flood-opacity="0" result="BackgroundImageFix" />
			<feBlend in="SourceGraphic" in2="BackgroundImageFix" result="shape" />
			<feColorMatrix
				in="SourceAlpha"
				result="hardAlpha"
				values="0 0 0 0 0 0 0 0 0 0 0 0 0 0 0 0 0 0 127 0"
			/>
			<feOffset />
			<feGaussianBlur stdDeviation="15" />
			<feComposite in2="hardAlpha" k2="-1" k3="1" operator="arithmetic" />
			<feColorMatrix values="0 0 0 0 1 0 0 0 0 1 0 0 0 0 1 0 0 0 0.25 0" />
			<feBlend in2="shape" result="effect1_innerShadow_4352_9575" />
		</filter>
		<filter
			id="m"
			width="144"
			height="60"
			x="28"
			y="150.5"
			color-interpolation-filters="sRGB"
			filterUnits="userSpaceOnUse"
		>
			<feFlood flood-opacity="0" result="BackgroundImageFix" />
			<feColorMatrix
				in="SourceAlpha"
				result="hardAlpha"
				values="0 0 0 0 0 0 0 0 0 0 0 0 0 0 0 0 0 0 127 0"
			/>
			<feMorphology in="SourceAlpha" radius="2" result="effect1_dropShadow_4352_9575" />
			<feOffset dy="4" />
			<feGaussianBlur stdDeviation="3" />
			<feComposite in2="hardAlpha" operator="out" />
			<feColorMatrix values="0 0 0 0 1 0 0 0 0 1 0 0 0 0 1 0 0 0 0.05 0" />
			<feBlend in2="BackgroundImageFix" result="effect1_dropShadow_4352_9575" />
			<feColorMatrix
				in="SourceAlpha"
				result="hardAlpha"
				values="0 0 0 0 0 0 0 0 0 0 0 0 0 0 0 0 0 0 127 0"
			/>
			<feMorphology in="SourceAlpha" radius="3" result="effect2_dropShadow_4352_9575" />
			<feOffset dy="10" />
			<feGaussianBlur stdDeviation="7.5" />
			<feComposite in2="hardAlpha" operator="out" />
			<feColorMatrix values="0 0 0 0 1 0 0 0 0 1 0 0 0 0 1 0 0 0 0.16 0" />
			<feBlend in2="effect1_dropShadow_4352_9575" result="effect2_dropShadow_4352_9575" />
			<feBlend in="SourceGraphic" in2="effect2_dropShadow_4352_9575" result="shape" />
		</filter>
		<filter
			id="o"
			width="110.5"
			height="13"
			x="44.8"
			y="181.6"
			color-interpolation-filters="sRGB"
			filterUnits="userSpaceOnUse"
		>
			<feFlood flood-opacity="0" result="BackgroundImageFix" />
			<feBlend in="SourceGraphic" in2="BackgroundImageFix" result="shape" />
			<feGaussianBlur result="effect1_foregroundBlur_4352_9575" stdDeviation="2" />
		</filter>
		<filter
			id="q"
			width="71"
			height="15.6"
			x="64.5"
			y="178.9"
			color-interpolation-filters="sRGB"
			filterUnits="userSpaceOnUse"
		>
			<feFlood flood-opacity="0" result="BackgroundImageFix" />
			<feBlend in="SourceGraphic" in2="BackgroundImageFix" result="shape" />
			<feGaussianBlur result="effect1_foregroundBlur_4352_9575" stdDeviation="2" />
		</filter>
		<clipPath id="b"><rect width="831" height="219" fill="#fff" rx="18" /></clipPath>
		<clipPath id="n">
			<rect width="120" height="36" x="40" y="152.5" fill="#fff" rx="18" />
		</clipPath>
	</defs>
</svg>
