<svg width="16" height="16" viewBox="0 0 16 16" xmlns="http://www.w3.org/2000/svg" fill="#d7dae0"><path fill-rule="evenodd" clip-rule="evenodd" d="M11.957 6h.05a2.99 2.99 0 0 1 2.116.879 3.003 3.003 0 0 1 0 4.242 2.99 2.99 0 0 1-2.117.879v-.013L12 12H4.523a3.486 3.486 0 0 1-2.628-1.16 3.502 3.502 0 0 1 1.958-5.78 3.462 3.462 0 0 1 1.468.04 3.486 3.486 0 0 1 3.657-2.06A3.479 3.479 0 0 1 11.957 6zM5 11h7.01a1.994 1.994 0 0 0 1.992-2 2.002 2.002 0 0 0-1.996-2h-.914l-.123-.857a2.49 2.49 0 0 0-2.126-2.122A2.478 2.478 0 0 0 6.231 5.5l-.333.762-.809-.189A2.49 2.49 0 0 0 4.523 6c-.662 0-1.297.263-1.764.732A2.503 2.503 0 0 0 4.523 11H5z"/></svg>