<svg t="1731049321823" class="icon" viewBox="0 0 1024 1024" version="1.1" xmlns="http://www.w3.org/2000/svg" p-id="5354" width="200" height="200"><path d="M522.666667 42.666667c3.776 0 7.530667 0.170667 11.242666 0.490666C782.954667 54.613333 981.333333 260.138667 981.333333 512c0 251.861333-198.4 457.386667-447.424 468.821333-3.712 0.341333-7.466667 0.512-11.242666 0.512l-3.285334-0.064C516.906667 981.333333 514.474667 981.333333 512 981.333333 252.8 981.333333 42.666667 771.2 42.666667 512S252.8 42.666667 512 42.666667l7.658667 0.042666L522.666667 42.666667zM490.666667 533.333333h-149.056c4.842667 191.082667 74.069333 342.08 149.056 376.576V533.333333z m213.056 0H554.666667v376.576c74.986667-34.517333 144.213333-185.514667 149.056-376.554666z m-426.133334 0H107.221333c8.746667 168.853333 120.853333 310.4 274.261334 362.517334-60.16-81.109333-100.394667-212.650667-103.893334-362.496z m639.189334 0h-149.034667c-3.349333 143.104-40.170667 269.504-95.872 351.253334C810.048 825.216 908.586667 691.221333 916.778667 533.333333zM381.482667 128.128c-146.986667 50.069333-255.936 181.909333-272.597334 341.226667h169.450667c6.634667-140.970667 45.866667-263.978667 103.146667-341.226667zM342.4 469.333333H490.666667V114.090667C418.496 147.285333 351.637333 288.426667 342.4 469.333333zM554.666667 114.090667L554.666667 469.333333h148.266666C693.674667 288.448 626.837333 147.306667 554.666667 114.090667z m117.184 25.322666l1.834666 2.730667c51.904 77.674667 87.04 194.474667 93.290667 327.189333h148.117333c-15.530667-148.565333-111.317333-273.237333-243.242666-329.92z" fill="#d7dae0" p-id="5355"></path></svg>