<svg width="49" height="48" viewBox="0 0 49 48" fill="none" xmlns="http://www.w3.org/2000/svg">
<path d="M38.1355 25.8572C38.6993 26.2468 39.9442 26.8233 40.0046 25.5772C40.6737 25.2661 40.0328 24.4735 39.6911 24.225C39.0275 23.743 38.1471 23.5502 37.3379 23.6235C37.3169 23.9955 37.345 24.3664 37.3731 24.737C37.3814 24.8463 37.3897 24.9555 37.3967 25.0647C37.428 25.5491 37.5074 25.5768 37.7136 25.6486C37.8181 25.685 37.9553 25.7328 38.1355 25.8572Z" fill="#F6D2A2"/>
<path fill-rule="evenodd" clip-rule="evenodd" d="M39.6911 24.225C40.0328 24.4735 40.6737 25.2661 40.0046 25.5772C39.9442 26.8233 38.6993 26.2468 38.1355 25.8572C37.9553 25.7328 37.8181 25.685 37.7136 25.6486C37.5074 25.5768 37.428 25.5491 37.3967 25.0647C37.3897 24.9555 37.3814 24.8463 37.3731 24.737C37.345 24.3664 37.3169 23.9955 37.3379 23.6235C38.1471 23.5502 39.0275 23.743 39.6911 24.225ZM40.1955 25.7004C40.3462 25.6042 40.4435 25.4735 40.4807 25.3154C40.5233 25.1338 40.4783 24.9505 40.4096 24.7963C40.2731 24.4895 40.0015 24.2034 39.8088 24.0632L39.8087 24.0632C39.0996 23.5482 38.1691 23.3474 37.3198 23.4243L37.1479 23.4399L37.1382 23.6122C37.1164 23.9974 37.1454 24.3794 37.1732 24.7459L37.1737 24.7521C37.182 24.8616 37.1902 24.9697 37.1971 25.0776L37.1971 25.0776C37.2126 25.3162 37.2403 25.4946 37.3217 25.6201C37.4093 25.7554 37.541 25.8007 37.6323 25.8321C37.6376 25.8339 37.6428 25.8357 37.6478 25.8375C37.747 25.872 37.864 25.9127 38.0218 26.0218L38.0218 26.0218C38.312 26.2223 38.7988 26.4877 39.2399 26.5297C39.4648 26.5511 39.7062 26.5167 39.8967 26.3532C40.0659 26.2079 40.1638 25.9872 40.1955 25.7004Z" fill="black"/>
<path d="M11.6644 26.0154C11.1005 26.4051 9.85563 26.9816 9.79523 25.7355C9.12616 25.4243 9.76689 24.6317 10.1087 24.3833C10.7723 23.9013 12.031 23.7212 12.8403 23.7945C12.8613 24.1661 12.8332 24.5367 12.8051 24.9069C12.7968 25.0165 12.7885 25.1261 12.7814 25.2357C12.7521 25.6922 12.5319 25.738 12.2402 25.7987C12.0654 25.8351 11.8649 25.8768 11.6644 26.0154Z" fill="#F6D2A2"/>
<path fill-rule="evenodd" clip-rule="evenodd" d="M11.6644 26.0154C11.1005 26.405 9.85562 26.9816 9.79522 25.7355C9.12615 25.4243 9.76688 24.6317 10.1087 24.3833C10.7723 23.9013 12.031 23.7212 12.8403 23.7945C12.8613 24.1661 12.8332 24.5367 12.8051 24.9069C12.7968 25.0165 12.7885 25.1261 12.7814 25.2357C12.752 25.6922 12.5319 25.738 12.2401 25.7987C12.0654 25.8351 11.8649 25.8768 11.6644 26.0154ZM9.60436 25.8587C9.636 26.1455 9.73396 26.3661 9.90316 26.5114C10.0936 26.675 10.3351 26.7094 10.56 26.6879C11.0011 26.6459 11.4878 26.3805 11.7781 26.18L11.7781 26.18C11.9418 26.0668 12.1054 26.0311 12.2809 25.9945C12.2871 25.9933 12.2934 25.992 12.2998 25.9906C12.4304 25.9636 12.6008 25.9284 12.7341 25.8218C12.8899 25.6972 12.9644 25.5074 12.981 25.2485L12.981 25.2485C12.988 25.1403 12.9962 25.0318 13.0045 24.9221L13.005 24.9159C13.0328 24.5497 13.0617 24.168 13.04 23.7832L13.0302 23.6108L12.8583 23.5953C12.4329 23.5567 11.897 23.585 11.382 23.6842C10.8701 23.7829 10.3569 23.9558 9.99119 24.2214L9.99114 24.2215C9.79829 24.3617 9.52664 24.6478 9.39015 24.9546C9.32152 25.1088 9.27648 25.2921 9.31918 25.4737C9.35636 25.6318 9.45368 25.7625 9.60436 25.8587Z" fill="black"/>
<path d="M9.79526 25.7355C9.97641 25.6679 10.1684 25.6202 10.2913 25.4563L9.79526 25.7355Z" fill="#C6B198"/>
<path d="M12.6721 10.8902C7.90166 9.54865 11.5562 2.81507 15.5781 6.25723L12.6721 10.8902ZM33.5843 5.69114C37.5631 2.50813 41.2852 8.94013 36.4313 10.4227L33.5843 5.69114Z" fill="#6AD7E5"/>
<path fill-rule="evenodd" clip-rule="evenodd" d="M15.5781 6.25723L12.6721 10.8902C7.90166 9.54865 11.5562 2.81507 15.5781 6.25723ZM15.3155 6.29944L12.5835 10.655C11.5348 10.3231 10.9673 9.71565 10.737 9.0508C10.4938 8.34859 10.615 7.54895 11.0012 6.87979C11.3871 6.21122 12.027 5.6915 12.796 5.53636C13.5241 5.38949 14.3966 5.56376 15.3155 6.29944ZM33.8475 5.74062L36.5209 10.1837C37.5913 9.81991 38.1698 9.20413 38.4053 8.54318C38.6536 7.84636 38.5335 7.06444 38.1477 6.40876C37.7621 5.75342 37.1199 5.24015 36.3484 5.07468C35.6194 4.91836 34.7523 5.06774 33.8475 5.74062ZM33.5843 5.69114C37.5631 2.50813 41.2852 8.94013 36.4313 10.4227L33.5843 5.69114Z" fill="black"/>
<path d="M34.5371 40.984C35.4962 41.5774 37.3913 43.4598 35.9526 44.3299C34.57 45.5958 33.6544 42.8526 32.4409 42.4848C32.9636 41.775 33.6258 41.128 34.5371 40.984ZM17.9414 42.7725C16.8156 42.9467 15.7848 44.2896 14.8463 44.8054C13.9619 45.3328 13.6236 44.6366 13.544 44.4952C13.4054 44.4321 13.417 44.5541 13.203 44.3387C12.3832 43.0448 14.4544 41.7718 15.3261 41.1291C16.5403 40.8836 17.3012 41.9363 17.9414 42.7725Z" fill="#F6D2A2"/>
<path fill-rule="evenodd" clip-rule="evenodd" d="M35.9526 44.3299C37.3913 43.4598 35.4962 41.5774 34.5371 40.984C33.6984 41.1166 33.0706 41.6752 32.5684 42.3168C32.525 42.3722 32.4825 42.4283 32.4409 42.4848C32.5055 42.5044 32.5692 42.5307 32.6321 42.5627C33.0121 42.7561 33.3656 43.1591 33.7179 43.5608C34.4049 44.3441 35.0873 45.1221 35.9526 44.3299ZM32.756 42.4019C33.0091 42.5383 33.2399 42.7479 33.4513 42.9677C33.5926 43.1146 33.7316 43.2731 33.8669 43.4274L33.8711 43.4322C34.0089 43.5893 34.1428 43.7418 34.2773 43.8811C34.5513 44.1652 34.8017 44.3657 35.0458 44.435C35.2658 44.4974 35.5126 44.4616 35.8175 44.1824L35.8321 44.169L35.8491 44.1588C36.1572 43.9724 36.266 43.7503 36.2733 43.5172C36.2812 43.267 36.1727 42.9724 35.975 42.6602C35.5985 42.0656 34.953 41.4925 34.4953 41.1944C33.7807 41.3325 33.2236 41.8139 32.756 42.4019ZM14.8463 44.8054C15.198 44.6121 15.5626 44.3027 15.9404 43.9821C16.506 43.5021 17.101 42.9972 17.7259 42.8199C17.7973 42.7997 17.8692 42.7837 17.9414 42.7725C17.9222 42.7474 17.9029 42.7222 17.8835 42.6968C17.8576 42.6629 17.8315 42.6287 17.8051 42.5943C17.1925 41.7953 16.4553 40.9008 15.3261 41.1291C15.2414 41.1916 15.1452 41.2601 15.0415 41.3339C14.0789 42.0196 12.4629 43.1707 13.203 44.3387C13.341 44.4775 13.3852 44.4762 13.4363 44.4746C13.4645 44.4737 13.4947 44.4728 13.544 44.4952C13.5469 44.5005 13.5502 44.5065 13.5539 44.5131C13.6494 44.6865 13.9946 45.3133 14.8463 44.8054ZM13.3605 44.2132C13.3984 44.2501 13.4209 44.2673 13.4318 44.2746C13.4403 44.2744 13.4549 44.274 13.4698 44.2746C13.517 44.2763 13.5679 44.2864 13.6269 44.3133L13.6863 44.3403L13.7183 44.3971C13.7213 44.4026 13.7245 44.4084 13.7279 44.4145C13.7748 44.4987 13.8551 44.6431 13.9979 44.7306C14.0694 44.7745 14.1581 44.8043 14.2724 44.7995C14.3888 44.7945 14.5438 44.7529 14.7439 44.6336L14.7499 44.63L14.75 44.6301C14.9681 44.5102 15.1971 44.339 15.441 44.1397C15.5624 44.0406 15.6855 43.9361 15.8117 43.829L15.8118 43.8289C15.9376 43.7222 16.0664 43.6129 16.197 43.5061C16.6237 43.1569 17.0932 42.8128 17.5959 42.6505C17.328 42.3033 17.0472 41.9594 16.7242 41.7014C16.3441 41.3979 15.9217 41.2266 15.4079 41.3172C15.3283 41.3753 15.2415 41.4372 15.1497 41.5026C14.7205 41.8085 14.1833 42.1914 13.7763 42.6264C13.5239 42.8961 13.3379 43.1698 13.258 43.4387C13.1826 43.6924 13.1991 43.9482 13.3605 44.2132Z" fill="black"/>
<path d="M12.8711 9.21402C12.2418 8.88109 11.78 8.42896 12.165 7.70101C12.5214 7.0271 13.1835 7.1003 13.813 7.43319L12.8711 9.21402ZM35.6724 8.58108C36.3017 8.24815 36.7634 7.79602 36.3785 7.06807C36.022 6.3942 35.3599 6.46736 34.7305 6.80025L35.6724 8.58108Z" fill="black"/>
<path d="M40.0046 25.5772C39.8234 25.5097 39.6314 25.462 39.5085 25.2982L40.0046 25.5772Z" fill="#C6B198"/>
<path d="M24.4219 2.99997C29.1977 2.99997 33.6747 3.68305 36.0085 8.27142C38.1034 13.4144 37.3584 18.9602 37.678 24.3957C37.9524 29.0628 38.5605 34.4548 36.3954 38.7798C34.1178 43.3301 28.4262 44.4747 23.737 44.3071C20.0537 44.1752 15.6043 42.9736 13.5256 39.6085C11.0867 35.6606 12.2415 29.7903 12.4185 25.3976C12.6283 20.194 11.0092 14.9747 12.7185 9.88291C14.4919 4.60099 19.2745 3.40728 24.4219 2.99997Z" fill="#6AD7E5"/>
<path fill-rule="evenodd" clip-rule="evenodd" d="M36.3954 38.7798L36.2165 38.6903C37.2811 36.5638 37.6678 34.1667 37.7516 31.7092C37.8194 29.7222 37.6892 27.7088 37.5641 25.774C37.5343 25.3135 37.5048 24.8575 37.4783 24.4074C37.3981 23.0426 37.3847 21.6721 37.3769 20.3075C37.3762 20.1842 37.3755 20.0609 37.3749 19.9377C37.3682 18.6961 37.3616 17.4603 37.3092 16.2324C37.1941 13.5361 36.8589 10.8929 35.8265 8.35463C33.5501 3.88795 29.1949 3.20073 24.4298 3.19997C21.8652 3.40333 19.4166 3.80165 17.3929 4.79306C15.3761 5.78111 13.7764 7.3604 12.9081 9.94656C12.066 12.455 12.0414 15.0014 12.2058 17.5856C12.2529 18.3271 12.316 19.0736 12.3792 19.8231C12.5355 21.6741 12.6934 23.5441 12.6183 25.4056C12.5827 26.2886 12.5078 27.2313 12.4307 28.2014C12.4115 28.4432 12.3921 28.6867 12.3732 28.9315C12.2782 30.1605 12.194 31.4232 12.1911 32.6703C12.1852 35.1686 12.506 37.5774 13.6958 39.5033L13.5256 39.6085C11.5746 36.4502 11.9233 32.0617 12.2315 28.1836C12.3085 27.2139 12.3831 26.2762 12.4185 25.3976C12.493 23.5492 12.3368 21.6989 12.1809 19.853C11.898 16.5022 11.6163 13.1661 12.7185 9.88291C14.4919 4.60099 19.2745 3.40728 24.4219 2.99997C29.1977 2.99997 33.6747 3.68305 36.0085 8.27142C37.5323 12.0124 37.5535 15.9664 37.5749 19.9362C37.5829 21.4239 37.5909 22.9139 37.678 24.3957C37.7043 24.8433 37.7337 25.2975 37.7634 25.7569C38.0435 30.0872 38.3529 34.8696 36.3954 38.7798ZM36.3954 38.7798L36.2165 38.6903C35.1068 40.9074 33.1626 42.3029 30.9022 43.1247C28.6399 43.9472 26.0721 44.1904 23.7441 44.1072C20.0784 43.976 15.7196 42.7797 13.6958 39.5033L13.5256 39.6085C15.6043 42.9736 20.0537 44.1752 23.737 44.3071C28.4262 44.4747 34.1178 43.3301 36.3954 38.7798Z" fill="black"/>
<path d="M26.2838 16.07C26.2664 15.8382 26.274 15.4231 26.2727 15.2048L24.692 14.6684C24.6839 14.9224 24.6701 15.4225 24.6505 15.673C24.6093 16.1986 24.5685 16.7201 24.6357 17.253C24.7909 17.6148 25.1161 17.8689 25.503 17.9296C25.5716 17.8986 25.6429 17.8732 25.7138 17.848C25.9323 17.7702 26.1477 17.6935 26.2727 17.4575C26.3539 17.0003 26.3182 16.5264 26.2838 16.07Z" fill="white"/>
<path fill-rule="evenodd" clip-rule="evenodd" d="M26.0727 15.3481L24.8835 14.9445C24.8753 15.1978 24.8641 15.5064 24.8499 15.6886C24.8092 16.2073 24.7714 16.6996 24.8306 17.199C24.955 17.4681 25.1942 17.6598 25.4799 17.7219C25.5365 17.6988 25.5924 17.6789 25.6435 17.6607L25.6467 17.6595C25.861 17.5832 25.9964 17.5286 26.0814 17.3894C26.1501 16.9713 26.1182 16.5341 26.0844 16.085C26.0706 15.9027 26.0717 15.6118 26.0725 15.3911C26.0726 15.3765 26.0726 15.3621 26.0727 15.3481ZM26.2727 17.4575C26.1477 17.6935 25.9323 17.7702 25.7138 17.848C25.6429 17.8732 25.5716 17.8986 25.503 17.9296C25.1161 17.8689 24.7909 17.6148 24.6357 17.253C24.5685 16.7201 24.6093 16.1986 24.6505 15.673C24.6655 15.4803 24.6772 15.1398 24.6855 14.8774C24.6867 14.8404 24.6877 14.805 24.6888 14.7717C24.6899 14.7342 24.691 14.6994 24.692 14.6684L26.2727 15.2048C26.273 15.2597 26.2728 15.3269 26.2725 15.4006C26.2717 15.6201 26.2707 15.8964 26.2838 16.07C26.3182 16.5264 26.3539 17.0003 26.2727 17.4575Z" fill="black"/>
<path d="M15.5286 10.2174C16.64 14.5569 23.5876 13.4459 23.3258 9.09291C23.0119 3.87965 14.4661 4.88559 15.5286 10.2174Z" fill="white"/>
<path fill-rule="evenodd" clip-rule="evenodd" d="M23.1262 9.10494C23.0514 7.86276 22.4901 7.00568 21.7143 6.48561C20.9324 5.96147 19.9185 5.77111 18.9369 5.89908C17.9554 6.02703 17.0252 6.4707 16.4061 7.18972C15.7925 7.9023 15.4714 8.89977 15.7237 10.173C16.2485 12.211 18.1402 12.9857 19.9122 12.7171C21.6875 12.4479 23.2489 11.1466 23.1262 9.10494ZM15.5286 10.2174C16.64 14.5569 23.5876 13.4459 23.3258 9.09291C23.0119 3.87965 14.4661 4.88559 15.5286 10.2174Z" fill="black"/>
<path d="M25.2649 9.41123C26.1224 14.3957 34.27 13.0778 33.0997 8.05068C32.0505 3.5427 24.98 4.79054 25.2649 9.41123Z" fill="white"/>
<path fill-rule="evenodd" clip-rule="evenodd" d="M32.9049 8.09603L32.9049 8.09602C32.6554 7.024 32.0522 6.30403 31.2962 5.88679C30.5358 5.46719 29.6099 5.34836 28.7165 5.50471C26.9292 5.81748 25.3352 7.2111 25.4639 9.38806C25.67 10.5689 26.3024 11.367 27.1152 11.8351C27.9356 12.3076 28.9497 12.449 29.9096 12.2881C30.8699 12.1272 31.7582 11.667 32.3347 10.9588C32.9066 10.2562 33.184 9.29522 32.9049 8.09603ZM25.2649 9.41123C26.1224 14.3957 34.27 13.0778 33.0997 8.05068C32.0505 3.5427 24.98 4.79054 25.2649 9.41123Z" fill="black"/>
<path d="M16.2717 9.50968C16.2717 9.84669 16.3953 10.1699 16.6153 10.4082C16.8353 10.6465 17.1337 10.7804 17.4449 10.7804C17.756 10.7804 18.0544 10.6465 18.2745 10.4082C18.4945 10.1699 18.6181 9.84669 18.6181 9.50968C18.6181 9.17266 18.4945 8.84945 18.2745 8.61114C18.0544 8.37283 17.756 8.23895 17.4449 8.23895C17.1337 8.23895 16.8353 8.37283 16.6153 8.61114C16.3953 8.84945 16.2717 9.17266 16.2717 9.50968Z" fill="black"/>
<path d="M17.7019 9.79646C17.7015 9.8392 17.7083 9.88163 17.722 9.92128C17.7357 9.96092 17.756 9.997 17.7817 10.0274C17.8074 10.0578 17.8381 10.082 17.8719 10.0985C17.9056 10.1149 17.9419 10.1234 17.9785 10.1234C18.0151 10.1234 18.0514 10.1149 18.0852 10.0985C18.1189 10.082 18.1496 10.0578 18.1753 10.0274C18.201 9.997 18.2213 9.96092 18.235 9.92128C18.2487 9.88163 18.2555 9.8392 18.2551 9.79646C18.2555 9.75371 18.2487 9.71129 18.235 9.67164C18.2213 9.63199 18.201 9.59592 18.1753 9.5655C18.1496 9.53508 18.1189 9.51094 18.0852 9.49445C18.0514 9.47797 18.0151 9.46948 17.9785 9.46948C17.9419 9.46948 17.9056 9.47797 17.8719 9.49445C17.8381 9.51094 17.8074 9.53508 17.7817 9.5655C17.756 9.59592 17.7357 9.63199 17.722 9.67164C17.7083 9.71129 17.7015 9.75371 17.7019 9.79646Z" fill="white"/>
<path d="M26.121 9.19324C26.121 9.53026 26.2425 9.85347 26.4589 10.0918C26.6752 10.3301 26.9687 10.464 27.2746 10.464C27.5806 10.464 27.8741 10.3301 28.0904 10.0918C28.3068 9.85347 28.4283 9.53026 28.4283 9.19324C28.4283 8.85622 28.3068 8.53301 28.0904 8.2947C27.8741 8.0564 27.5806 7.92252 27.2746 7.92252C26.9687 7.92252 26.6752 8.0564 26.4589 8.2947C26.2425 8.53301 26.121 8.85622 26.121 9.19324Z" fill="black"/>
<path d="M22.8954 15.3219C22.3835 16.5625 23.1808 19.0431 24.5697 17.2134C24.4704 16.4265 24.6134 15.5242 24.6384 14.737L22.8954 15.3219Z" fill="white"/>
<path fill-rule="evenodd" clip-rule="evenodd" d="M24.3616 17.1552C24.3208 16.7671 24.333 16.3596 24.3578 15.9628C24.3678 15.8036 24.3797 15.6479 24.3913 15.4953C24.4036 15.3334 24.4157 15.1751 24.425 15.0196L23.0488 15.4814C22.9588 15.7427 22.9245 16.0634 22.9453 16.3852C22.9684 16.7423 23.058 17.0802 23.1938 17.3206C23.3318 17.5646 23.4903 17.6674 23.6461 17.6643C23.8061 17.661 24.0491 17.5472 24.3616 17.1552ZM22.8954 15.3219C22.3835 16.5625 23.1808 19.0431 24.5697 17.2134C24.502 16.6773 24.5469 16.0877 24.5902 15.5174C24.6048 15.3255 24.6192 15.1358 24.6291 14.9511C24.633 14.8789 24.6362 14.8075 24.6384 14.737L22.8954 15.3219Z" fill="black"/>
<path fill-rule="evenodd" clip-rule="evenodd" d="M27.6071 9.70832C27.5561 9.64775 27.5274 9.56561 27.5274 9.47996H27.5275C27.527 9.43722 27.5337 9.39479 27.5472 9.35514C27.5607 9.31549 27.5806 9.27941 27.6059 9.24899C27.6312 9.21857 27.6614 9.19441 27.6946 9.17793C27.7278 9.16144 27.7635 9.15295 27.7995 9.15295C27.8355 9.15295 27.8711 9.16144 27.9044 9.17793C27.9376 9.19441 27.9677 9.21857 27.993 9.24899C28.0183 9.27941 28.0383 9.31549 28.0518 9.35514C28.0652 9.39479 28.0719 9.43722 28.0715 9.47996C28.0715 9.56561 28.0428 9.64775 27.9918 9.70832C27.9408 9.76888 27.8716 9.8029 27.7995 9.8029C27.7273 9.8029 27.6581 9.76888 27.6071 9.70832Z" fill="white"/>
<path d="M23.0705 12.9329C22.1165 13.0142 21.3366 14.1486 21.8326 15.046C22.4896 16.2346 23.9558 14.9408 24.869 15.062C25.9201 15.0835 26.7812 16.1734 27.6253 15.259C28.5642 14.2421 27.2212 13.2517 26.1714 12.8089L23.0705 12.9329Z" fill="#F6D2A2"/>
<path fill-rule="evenodd" clip-rule="evenodd" d="M22.0077 14.9492L22.0077 14.9492C22.1454 15.1984 22.3122 15.301 22.4942 15.3366C22.6905 15.375 22.9263 15.3396 23.2001 15.2619C23.335 15.2236 23.473 15.177 23.615 15.128C23.6349 15.1212 23.655 15.1142 23.6751 15.1073C23.7965 15.0653 23.9207 15.0223 24.0424 14.9845C24.3176 14.8992 24.6123 14.8292 24.884 14.8623C25.1758 14.8701 25.4477 14.9503 25.6948 15.0433C25.8097 15.0865 25.9223 15.1337 26.0293 15.1785C26.0388 15.1825 26.0483 15.1865 26.0577 15.1904C26.1747 15.2394 26.2846 15.2849 26.3918 15.323C26.6079 15.3999 26.7925 15.439 26.9623 15.4185C27.1245 15.3989 27.2948 15.3222 27.4783 15.1234L27.4783 15.1234C27.6842 14.9004 27.7496 14.6977 27.742 14.5179C27.7342 14.3324 27.6472 14.1396 27.4889 13.9448C27.1775 13.5618 26.635 13.2271 26.1343 13.0105L23.0832 13.1325C22.6804 13.1685 22.3013 13.429 22.0777 13.7889C21.8547 14.1477 21.8022 14.5775 22.0077 14.9492ZM23.0705 12.9329C22.1165 13.0142 21.3366 14.1486 21.8326 15.046C22.2549 15.8101 23.0117 15.5483 23.741 15.2961C24.1461 15.156 24.5429 15.0188 24.869 15.062C25.2527 15.0699 25.611 15.2201 25.9525 15.3632C26.5464 15.6121 27.0893 15.8396 27.6253 15.259C28.5642 14.2421 27.2212 13.2517 26.1714 12.8089L23.0705 12.9329Z" fill="black"/>
<path d="M22.9504 12.8832C22.8797 11.2304 26.031 11.0238 26.4031 12.4073C26.7743 13.7875 23.1055 14.1081 22.9504 12.8832Z" fill="black"/>
</svg>
