<svg width="70" height="50" viewBox="0 0 70 50" fill="none" xmlns="http://www.w3.org/2000/svg">
  <path
    fill-rule="evenodd"
    clip-rule="evenodd"
    d="M50 25C50 33.2843 43.2843 40 35 40C26.7157 40 20 33.2843 20 25C20 16.7157 26.7157 10 35 10C43.2843 10 50 16.7157 50 25ZM38 25C38 26.6569 36.6569 28 35 28C33.3431 28 32 26.6569 32 25C32 23.3431 33.3431 22 35 22C36.6569 22 38 23.3431 38 25Z"
    fill="#268DC7"
  />
  <path
    fill-rule="evenodd"
    clip-rule="evenodd"
    d="M25 0C11.1929 0 0 11.1929 0 25V50H45C58.8071 50 70 38.8071 70 25V0H25ZM65 5H48.2712C54.738 9.29969 59 16.6521 59 25C59 33.1193 54.9682 40.2969 48.7974 44.64C58.0271 42.8659 65 34.7473 65 25V5ZM5 25C5 15.2527 11.9729 7.13406 21.2026 5.36004C15.0318 9.7031 11 16.8807 11 25C11 33.3479 15.262 40.7003 21.7288 45H5V25ZM35 44C45.4934 44 54 35.4934 54 25C54 14.5066 45.4934 6 35 6C24.5066 6 16 14.5066 16 25C16 35.4934 24.5066 44 35 44Z"
    fill="#268DC7"
  />
</svg>
