<svg width="49" height="48" viewBox="0 0 49 48" fill="none" xmlns="http://www.w3.org/2000/svg">
<path d="M19.4348 35.5597C19.4348 35.5597 17.7474 36.4853 20.6373 36.7976C24.139 37.1747 25.9284 37.1206 29.7861 36.4332C29.7861 36.4332 30.8024 37.0322 32.2191 37.5514C23.568 41.045 12.6407 37.3488 19.4348 35.5597ZM18.3771 31C18.3771 31 16.484 32.321 19.3764 32.6033C23.117 32.9674 26.0703 32.997 31.1833 32.0694C31.1833 32.0694 31.8888 32.7451 33 33.1142C22.5425 35.9971 10.8949 33.3411 18.3771 31Z" fill="#408FC1"/>
<path d="M26.9828 23.5504C29.1466 25.8934 26.4154 28 26.4154 28C26.4154 28 31.9061 25.334 29.385 21.9939C27.0295 18.8805 25.2238 17.3341 35 12C35 12.0003 19.6541 15.605 26.9828 23.5504Z" fill="#EF5859"/>
<path d="M37.4394 38.9554C37.4394 38.9554 38.59 39.9187 36.1716 40.6632C31.5735 42.0774 17.0298 42.5037 12.9905 40.7198C11.5392 40.0783 14.2619 39.1888 15.1184 39.0011C16.0115 38.8048 16.5215 38.8406 16.5215 38.8406C14.9065 37.6863 6.08323 41.1081 12.0404 42.0896C28.2852 44.763 41.6524 40.8857 37.4394 38.9554ZM20.4153 26.398C20.4153 26.398 13.0183 28.1819 17.7961 28.8303C19.8137 29.1044 23.8341 29.0415 27.5815 28.7224C30.6432 28.4612 33.7157 27.9035 33.7157 27.9035C33.7157 27.9035 32.6371 28.3732 31.8559 28.9141C24.3427 30.9204 9.8323 29.986 14.0101 27.9349C17.542 26.2007 20.4153 26.398 20.4153 26.398ZM33.6851 33.9278C41.3218 29.9002 37.7905 26.0295 35.3258 26.5509C34.7233 26.6783 34.453 26.7892 34.453 26.7892C34.453 26.7892 34.6773 26.4321 35.1051 26.2785C39.9807 24.5389 43.7298 31.4104 33.5325 34.1321C33.5325 34.1314 33.6495 34.0238 33.6851 33.9278Z" fill="#408FC1"/>
<path d="M28.8629 3C28.8629 3 33.2954 7.35805 24.6577 14.0573C17.7307 19.433 23.0782 22.4974 24.6553 26C20.6114 22.4154 17.6452 19.2594 19.6349 16.3223C22.5566 12.012 30.6509 9.92129 28.8629 3Z" fill="#EF5859"/>
<path d="M20.8462 44.8676C28.2921 45.3536 39.7293 44.597 40 41C40 41 39.4796 42.3636 33.8457 43.4455C27.4897 44.667 19.6489 44.5246 15 43.7411C15 43.7414 15.9524 44.5463 20.8462 44.8676Z" fill="#408FC1"/>
</svg>
