<svg xmlns="http://www.w3.org/2000/svg" width="16" height="16" viewBox="0 0 16 16" fill="none">
  <g clip-path="url(#clip0_3151_10977)">
    <path d="M1.635 7.146C1.635 7.146 3.08 5.012 5.97 4.791V4.017C2.77 4.273 0 6.983 0 6.983C0 6.983 1.57 11.519 5.97 11.935V11.111C2.74 10.705 1.635 7.146 1.635 7.146ZM5.97 9.475V10.228C3.53 9.793 2.852 7.256 2.852 7.256C2.852 7.256 4.023 5.958 5.97 5.747V6.575H5.966C4.945 6.452 4.146 7.405 4.146 7.405C4.146 7.405 4.594 9.012 5.97 9.475ZM6 2L5.97 4.017C6.06387 4.00933 6.15789 4.00367 6.252 4C9.889 3.877 12.259 6.983 12.259 6.983C12.259 6.983 9.537 10.293 6.702 10.293C6.442 10.293 6.198 10.269 5.97 10.228V11.111C6.165 11.136 6.368 11.151 6.58 11.151C9.218 11.151 11.126 9.803 12.974 8.208C13.281 8.454 14.535 9.05 14.793 9.312C13.036 10.782 8.941 11.969 6.62 11.969C6.40292 11.968 6.186 11.9566 5.97 11.935V14H16L16.03 2H6ZM5.97 5.747V4.791C6.06388 4.78393 6.1579 4.77893 6.252 4.776C8.868 4.694 10.584 7.024 10.584 7.024C10.584 7.024 8.73 9.598 6.743 9.598C6.457 9.598 6.201 9.552 5.97 9.475V6.575C6.988 6.698 7.193 7.147 7.805 8.168L9.167 7.02C9.167 7.02 8.173 5.716 6.497 5.716C6.3209 5.71686 6.14498 5.7272 5.97 5.747Z" fill="#10B981"/>
  </g>
  <defs>
    <clipPath id="clip0_3151_10977">
      <rect width="16" height="16" fill="white"/>
    </clipPath>
  </defs>
</svg>