<svg xmlns="http://www.w3.org/2000/svg" width="25" height="24" viewBox="0 0 25 24" fill="none">
  <path opacity="0.5" d="M13.5 1.99902H11.5C9.614 1.99902 8.672 1.99902 8.086 2.58502C7.5 3.17102 7.5 4.11302 7.5 5.99902V9.99902H17.5V5.99902C17.5 4.11302 17.5 3.17102 16.914 2.58502C16.328 1.99902 15.386 1.99902 13.5 1.99902Z" fill="#18181B"/>
  <path fill-rule="evenodd" clip-rule="evenodd" d="M12.5 22C14.6217 22 16.6566 21.1571 18.1569 19.6569C19.6571 18.1566 20.5 16.1217 20.5 14C20.5 11.8783 19.6571 9.84344 18.1569 8.34315C16.6566 6.84285 14.6217 6 12.5 6C10.3783 6 8.34344 6.84285 6.84315 8.34315C5.34285 9.84344 4.5 11.8783 4.5 14C4.5 16.1217 5.34285 18.1566 6.84315 19.6569C8.34344 21.1571 10.3783 22 12.5 22ZM12.5 11C12.216 11 12.026 11.34 11.646 12.023L11.548 12.199C11.44 12.393 11.386 12.489 11.302 12.553C11.217 12.617 11.112 12.641 10.902 12.688L10.712 12.732C9.974 12.899 9.605 12.982 9.517 13.264C9.429 13.547 9.681 13.841 10.184 14.429L10.314 14.581C10.457 14.748 10.529 14.831 10.561 14.935C10.593 15.039 10.582 15.15 10.561 15.373L10.541 15.576C10.465 16.361 10.427 16.754 10.656 16.928C10.886 17.102 11.232 16.943 11.923 16.625L12.101 16.543C12.298 16.453 12.396 16.407 12.5 16.407C12.604 16.407 12.702 16.453 12.899 16.543L13.077 16.625C13.768 16.944 14.114 17.102 14.344 16.928C14.574 16.754 14.535 16.361 14.459 15.576L14.439 15.373C14.418 15.15 14.407 15.039 14.439 14.935C14.471 14.832 14.543 14.748 14.686 14.581L14.816 14.429C15.319 13.841 15.571 13.547 15.483 13.264C15.395 12.982 15.026 12.899 14.288 12.732L14.098 12.688C13.888 12.641 13.783 12.618 13.698 12.553C13.614 12.489 13.56 12.393 13.452 12.199L13.354 12.023C12.974 11.34 12.784 11 12.5 11Z" fill="#18181B"/>
</svg>