<svg width="49" height="48" viewBox="0 0 49 48" fill="none" xmlns="http://www.w3.org/2000/svg">
<path d="M24.8179 3.94354C14.5815 3.94354 15.2206 8.38266 15.2206 8.38266L15.232 12.9817H25.0004V14.3625H11.3521C11.3521 14.3625 4.80182 13.6196 4.80182 23.9481C4.80182 34.2769 10.5191 33.9106 10.5191 33.9106H13.9311V29.1176C13.9311 29.1176 13.7472 23.4004 19.5571 23.4004H29.2456C29.2456 23.4004 34.6889 23.4883 34.6889 18.1396V9.29575C34.6889 9.29575 35.5157 3.94354 24.8179 3.94354ZM19.4316 7.03632C19.6624 7.03611 19.891 7.08143 20.1043 7.16967C20.3176 7.25791 20.5114 7.38734 20.6747 7.55057C20.8379 7.71379 20.9673 7.9076 21.0556 8.1209C21.1438 8.33421 21.1891 8.56282 21.1889 8.79365C21.1891 9.02449 21.1438 9.2531 21.0556 9.4664C20.9673 9.6797 20.8379 9.87351 20.6747 10.0367C20.5114 10.2 20.3176 10.3294 20.1043 10.4176C19.891 10.5059 19.6624 10.5512 19.4316 10.551C19.2007 10.5512 18.9721 10.5059 18.7588 10.4176C18.5455 10.3294 18.3517 10.2 18.1885 10.0367C18.0253 9.87351 17.8958 9.6797 17.8076 9.4664C17.7193 9.2531 17.674 9.02449 17.6742 8.79365C17.674 8.56282 17.7193 8.33421 17.8076 8.1209C17.8958 7.9076 18.0253 7.71379 18.1885 7.55057C18.3517 7.38734 18.5455 7.25791 18.7588 7.16967C18.9721 7.08143 19.2007 7.03611 19.4316 7.03632Z" fill="url(#paint0_linear_2859_2729)"/>
<path d="M25.1085 44.0565C35.3449 44.0565 34.7058 39.6174 34.7058 39.6174L34.6944 35.0185H24.9258V33.6377H38.5741C38.5741 33.6377 45.1244 34.3806 45.1244 24.0518C45.1244 13.7232 39.4072 14.0895 39.4072 14.0895H35.9951V18.8823C35.9951 18.8823 36.1791 24.5995 30.3692 24.5995H20.6806C20.6806 24.5995 15.2373 24.5116 15.2373 29.8605V38.7044C15.2373 38.7044 14.4108 44.0565 25.1084 44.0565M30.4947 40.964C30.2638 40.9642 30.0352 40.9189 29.8219 40.8307C29.6086 40.7424 29.4148 40.613 29.2516 40.4498C29.0884 40.2865 28.9589 40.0927 28.8707 39.8794C28.7825 39.6661 28.7371 39.4375 28.7373 39.2067C28.7371 38.9758 28.7824 38.7472 28.8706 38.5339C28.9589 38.3206 29.0883 38.1267 29.2515 37.9635C29.4148 37.8003 29.6086 37.6708 29.8219 37.5826C30.0352 37.4943 30.2638 37.449 30.4947 37.4492C30.7255 37.449 30.9541 37.4943 31.1674 37.5825C31.3807 37.6708 31.5745 37.8002 31.7378 37.9634C31.901 38.1267 32.0304 38.3205 32.1187 38.5338C32.2069 38.7471 32.2522 38.9757 32.252 39.2065C32.2522 39.4374 32.2069 39.666 32.1187 39.8793C32.0304 40.0926 31.901 40.2864 31.7378 40.4496C31.5745 40.6128 31.3807 40.7423 31.1674 40.8305C30.9541 40.9188 30.7255 40.9642 30.4947 40.964Z" fill="url(#paint1_linear_2859_2729)"/>
<defs>
<linearGradient id="paint0_linear_2859_2729" x1="392.301" y1="364.736" x2="2390.57" y2="2343.07" gradientUnits="userSpaceOnUse">
<stop stop-color="#387EB8"/>
<stop offset="1" stop-color="#366994"/>
</linearGradient>
<linearGradient id="paint1_linear_2859_2729" x1="587.186" y1="630.812" x2="2733.1" y2="2659.41" gradientUnits="userSpaceOnUse">
<stop stop-color="#FFE052"/>
<stop offset="1" stop-color="#FFC331"/>
</linearGradient>
</defs>
</svg>
