<svg width="84" height="84" viewBox="0 0 84 84" fill="none" xmlns="http://www.w3.org/2000/svg">
<path d="M49.1509 44.7556C46.5569 47.3496 42.8218 47.8201 40.8083 45.8066C38.7947 43.7931 39.2653 40.058 41.8593 37.464C44.4533 34.87 48.1884 34.3994 50.2019 36.4129C52.2155 38.4264 51.7449 42.1616 49.1509 44.7556Z" fill="#D43848"/>
<path fill-rule="evenodd" clip-rule="evenodd" d="M42 83.8266C65.1189 83.8266 83.8606 65.085 83.8606 41.966C83.8606 18.8471 65.1189 0.105469 42 0.105469C18.8811 0.105469 0.13945 18.8471 0.13945 41.966C0.13945 65.085 18.8811 83.8266 42 83.8266ZM29.9387 41.4002C43.5152 23.864 58.5454 21.2789 64.5558 22.3396C65.6164 28.35 63.0313 43.3801 45.4951 56.9566L44.0809 64.7347L36.3027 72.5129L33.5084 63.5066L36.7144 59.5399L32.743 62.7412L27.9514 62.4795L25.3426 65.0883L21.807 61.5528L24.4158 58.9439L24.1541 54.1523L27.3554 50.181L23.3887 53.3869L14.3824 50.5926L22.1606 42.8144L29.9387 41.4002ZM21.0999 62.2599L24.6354 65.7954L17.4085 73.0224L14.0288 72.8665L13.8729 69.4868L21.0999 62.2599ZM18.3912 61.6442L19.4592 62.7122L13.5865 68.5848L13.5895 66.4459L18.3912 61.6442ZM25.2511 68.5041L24.1832 67.4361L18.3105 73.3088L20.4494 73.3058L25.2511 68.5041Z" fill="#D43848"/>
</svg>