<svg width="1233" height="316" viewBox="0 0 1233 316" fill="none" xmlns="http://www.w3.org/2000/svg">
<g clip-path="url(#clip0_3260_1974)">
<path d="M120.9 214.2L190.5 0H242.8L144.3 273.8H98.2L0 0H52.1L120.9 214.2ZM412.1 151.6H299.6V235.8H431V273.8H252V0H429.7V38.4H299.6V114H412.1V151.6ZM495.8 38.4H546C562.5 38.7 575 42.8 583.3 50.8C591.6 58.8 595.8 70.2 595.8 84.8C595.8 98.8 591.3 109.9 582.3 118C573.3 126.1 560.7 130.1 544.7 130.1H517.6V154.3L603.7 273.8H654.7V271.4L577.5 164.7C602.4 159.2 620.8 143 630.1 128.8C638.3 116.2 643.4 101.1 643.4 82.8C643.4 56 634.8 35.4 617.6 21.3C600.5 7.1 576.1 0 544.5 0H448.2V273.8H495.8" fill="black"/>
<path d="M1052.3 157.7L1010.8 220.4L1040.5 273.8H1125.6L1052.3 157.7Z" fill="#782A91"/>
<path d="M827.9 315.2C850.268 315.2 868.4 297.067 868.4 274.7C868.4 252.332 850.268 234.2 827.9 234.2C805.532 234.2 787.4 252.332 787.4 274.7C787.4 297.067 805.532 315.2 827.9 315.2Z" fill="#782A91"/>
<path d="M1037 0L989.4 74.2L949 0H865L950.3 135.8L883.2 241.5C888.9 251 892.3 262 892.4 273.9H942.5L1121.3 0H1037Z" fill="#782A91"/>
<path d="M763.5 273.8C763.6 263.9 766 254.6 770.1 246.3V38.4H855.5V0H638.2V38.4H722.8V273.8H763.5ZM1177.5 6.9H1162.2V49.1H1153.7V6.9H1138.5V0H1177.5V6.9ZM1193 0L1207.2 37.7L1221.3 0H1232.3V49.1H1223.8V32.9L1224.6 11.2L1210.1 49.1H1204L1189.5 11.3L1190.3 32.9V49.1H1181.8V0H1193Z" fill="black"/>
</g>
<defs>
<clipPath id="clip0_3260_1974">
<rect width="1232.6" height="315.2" fill="white"/>
</clipPath>
</defs>
</svg>