<svg width="16" height="16" viewBox="0 0 16 16" fill="none" xmlns="http://www.w3.org/2000/svg">
	<path fill-rule="evenodd" clip-rule="evenodd" d="M4.60004 1.71324C4.60004 1.34505 4.89852 1.04657 5.26671 1.04657C5.6349 1.04657 5.93338 1.34505 5.93338 1.71324V2.72702H9.90671V1.71324C9.90671 1.34505 10.2052 1.04657 10.5734 1.04657C10.9416 1.04657 11.24 1.34505 11.24 1.71324V2.72826C12.262 2.73463 12.8418 2.77363 13.3012 3.01223C13.7639 3.25259 14.1411 3.62985 14.3815 4.09255C14.6667 4.64162 14.6667 5.36297 14.6667 6.80568V10.5881C14.6667 12.0308 14.6667 12.7521 14.3815 13.3012C14.1411 13.7639 13.7639 14.1412 13.3012 14.3815C12.7521 14.6667 12.0308 14.6667 10.588 14.6667H5.41204C3.96933 14.6667 3.24798 14.6667 2.69891 14.3815C2.23621 14.1412 1.85894 13.7639 1.61859 13.3012C1.33337 12.7521 1.33337 12.0308 1.33337 10.5881V6.80568C1.33337 5.36297 1.33337 4.64162 1.61859 4.09255C1.85894 3.62985 2.23621 3.25259 2.69891 3.01223C3.1337 2.78638 3.67653 2.73937 4.60004 2.72959V1.71324ZM9.90671 4.06035V4.66102C9.90671 5.02921 10.2052 5.32769 10.5734 5.32769C10.9416 5.32769 11.24 5.02921 11.24 4.66102V4.06168C11.6324 4.06418 11.9268 4.07128 12.1694 4.09143C12.5147 4.12011 12.634 4.16818 12.6865 4.19545C12.9057 4.3093 13.0844 4.48801 13.1983 4.70718C13.2255 4.75968 13.2736 4.87898 13.3023 5.22435C13.3323 5.58568 13.3334 6.06195 13.3334 6.80568V10.5881C13.3334 11.3318 13.3323 11.8081 13.3023 12.1694C13.2736 12.5148 13.2255 12.6341 13.1983 12.6866C13.0844 12.9057 12.9057 13.0844 12.6865 13.1983C12.634 13.2256 12.5147 13.2736 12.1694 13.3023C11.808 13.3323 11.3318 13.3334 10.588 13.3334H5.41204C4.66831 13.3334 4.19204 13.3323 3.83071 13.3023C3.48534 13.2736 3.36604 13.2256 3.31354 13.1983C3.09437 13.0844 2.91566 12.9057 2.80181 12.6866C2.77454 12.6341 2.72647 12.5148 2.69779 12.1694C2.66778 11.8081 2.66671 11.3318 2.66671 10.5881V6.80568C2.66671 6.06195 2.66778 5.58568 2.69779 5.22435C2.72647 4.87898 2.77454 4.75968 2.80181 4.70718C2.91566 4.48801 3.09437 4.3093 3.31354 4.19545C3.36604 4.16818 3.48534 4.12011 3.83071 4.09143C4.03914 4.07412 4.28583 4.06644 4.60004 4.06304V4.66102C4.60004 5.02921 4.89852 5.32769 5.26671 5.32769C5.6349 5.32769 5.93338 5.02921 5.93338 4.66102V4.06035H9.90671ZM11.6674 7.33333C12.0356 7.33333 12.3341 7.63181 12.3341 8C12.3341 8.36819 12.0356 8.66667 11.6674 8.66667H9.12117C8.75297 8.66667 8.4545 8.36819 8.4545 8C8.4545 7.63181 8.75298 7.33333 9.12117 7.33333H11.6674ZM12.3341 10.7482C12.3341 10.38 12.0356 10.0815 11.6674 10.0815H5.30444C4.93625 10.0815 4.63778 10.38 4.63778 10.7482C4.63778 11.1164 4.93625 11.4148 5.30444 11.4148H11.6674C12.0356 11.4148 12.3341 11.1164 12.3341 10.7482Z" fill="#667085"/>
	</svg>
