<svg width="16" height="16" viewBox="0 0 16 16" fill="none" xmlns="http://www.w3.org/2000/svg">
<g id="icon/line/cube">
<path id="Icon (Stroke)" fill-rule="evenodd" clip-rule="evenodd" d="M7.73144 0.790031C7.90865 0.753584 8.09143 0.753584 8.26865 0.790031C8.47349 0.832161 8.65659 0.934713 8.80215 1.01624C8.8157 1.02383 8.82893 1.03124 8.84183 1.03841L13.7752 3.77915C13.7888 3.78672 13.8028 3.79446 13.8172 3.8024C13.9713 3.88727 14.1651 3.99398 14.3139 4.15543C14.4425 4.29502 14.5398 4.46046 14.5994 4.6407C14.6683 4.84917 14.6675 5.07035 14.6668 5.24627C14.6668 5.26271 14.6667 5.27875 14.6667 5.29435V10.7058C14.6667 10.7214 14.6668 10.7374 14.6668 10.7538C14.6675 10.9298 14.6683 11.1509 14.5994 11.3594C14.5398 11.5396 14.4425 11.7051 14.3139 11.8447C14.1651 12.0061 13.9713 12.1128 13.8173 12.1977C13.8029 12.2056 13.7888 12.2134 13.7752 12.221L8.84182 14.9617C8.82893 14.9689 8.8157 14.9763 8.80214 14.9839C8.65658 15.0654 8.47349 15.168 8.26865 15.2101C8.09143 15.2465 7.90865 15.2465 7.73144 15.2101C7.52659 15.1679 7.3435 15.0654 7.19793 14.9839C7.18438 14.9763 7.17115 14.9689 7.15826 14.9617L2.22493 12.221C2.21129 12.2134 2.19724 12.2056 2.18284 12.1977C2.02875 12.1128 1.83501 12.0061 1.68622 11.8447C1.55759 11.7051 1.46024 11.5397 1.40069 11.3594C1.33181 11.1509 1.33262 10.9298 1.33326 10.7538C1.33332 10.7374 1.33338 10.7214 1.33338 10.7058V5.29435C1.33338 5.27875 1.33332 5.26271 1.33326 5.24627C1.33262 5.07035 1.33181 4.84917 1.40069 4.6407C1.46024 4.46046 1.55759 4.29502 1.68622 4.15543C1.835 3.99398 2.02875 3.88727 2.18283 3.8024C2.19724 3.79447 2.21129 3.78673 2.22493 3.77915L7.15826 1.03841C7.17115 1.03124 7.18438 1.02383 7.19794 1.01624C7.3435 0.934713 7.52659 0.832162 7.73144 0.790031ZM8.00004 2.09938C7.99903 2.09987 7.99796 2.10037 7.99686 2.10091C7.95838 2.11946 7.90681 2.14782 7.80579 2.20395L3.3728 4.66672L8.00002 7.2374L12.6273 4.66671L8.1943 2.20395C8.09327 2.14782 8.0417 2.11946 8.00323 2.10091C8.00212 2.10037 8.00106 2.09987 8.00004 2.09938ZM13.3334 5.7997V10.7058C13.3334 10.8277 13.3331 10.8902 13.3304 10.9354C13.3303 10.9367 13.3302 10.938 13.3301 10.9392C13.3291 10.9399 13.328 10.9406 13.3269 10.9413C13.2887 10.9656 13.2343 10.9962 13.1276 11.0554L8.66671 13.5337L8.66669 8.3923L13.3334 5.7997ZM7.33336 8.39231L2.66671 5.79973V10.7058C2.66671 10.8277 2.66699 10.8902 2.66971 10.9354C2.66979 10.9367 2.66987 10.938 2.66995 10.9392C2.67098 10.9399 2.67205 10.9406 2.67318 10.9413C2.71137 10.9656 2.76582 10.9962 2.87245 11.0554L7.33337 13.5337L7.33336 8.39231Z" fill="#667085"/>
</g>
</svg>
