<svg xmlns="http://www.w3.org/2000/svg"   viewBox="0 0 18 18" fill="none">
  <path fill-rule="evenodd" clip-rule="evenodd" d="M8.90953 5.81587L7.87406 3.82768C7.8224 3.72848 7.71983 3.66626 7.60798 3.66626H3.03746C2.78894 3.66626 2.58746 3.86773 2.58746 4.11626V13.2835C2.58746 13.8634 3.05757 14.3335 3.63747 14.3335H14.3626C14.9425 14.3335 15.4126 13.8634 15.4126 13.2835V6.86587C15.4126 6.28597 14.9425 5.81587 14.3626 5.81587H8.90953ZM1.08746 4.11626C1.08746 3.0393 1.96051 2.16626 3.03746 2.16626H7.60798C8.27908 2.16626 8.89445 2.5396 9.20444 3.13481L9.81956 4.31587H14.3626C15.7709 4.31587 16.9126 5.45754 16.9126 6.86587V13.2835C16.9126 14.6919 15.7709 15.8335 14.3626 15.8335H3.63747C2.22914 15.8335 1.08746 14.6919 1.08746 13.2835V4.11626Z" fill="currentColor"/>
</svg>