<svg xmlns="http://www.w3.org/2000/svg" width="12" height="13" viewBox="0 0 12 13" fill="none">
  <path opacity="0.8" d="M6 1.23828C6.33333 1.23828 6.5 1.40495 6.5 1.73828V3.23828C6.5 3.57161 6.33333 3.73828 6 3.73828C5.66667 3.73828 5.5 3.57161 5.5 3.23828V1.73828C5.5 1.40495 5.66667 1.23828 6 1.23828Z" fill="black"/>
  <path opacity="0.4" d="M6 8.73828C6.33333 8.73828 6.5 8.90495 6.5 9.23828V10.7383C6.5 11.0716 6.33333 11.2383 6 11.2383C5.66667 11.2383 5.5 11.0716 5.5 10.7383V9.23828C5.5 8.90495 5.66667 8.73828 6 8.73828Z" fill="black"/>
  <path opacity="0.2" d="M11 6.23828C11 6.57161 10.8333 6.73828 10.5 6.73828H9C8.66667 6.73828 8.5 6.57161 8.5 6.23828C8.5 5.90495 8.66667 5.73828 9 5.73828H10.5C10.8333 5.73828 11 5.90495 11 6.23828Z" fill="black"/>
  <path opacity="0.6" d="M3.5 6.23828C3.5 6.57161 3.33333 6.73828 3 6.73828H1.5C1.16667 6.73828 1 6.57161 1 6.23828C1 5.90495 1.16667 5.73828 1.5 5.73828H3C3.33333 5.73828 3.5 5.90495 3.5 6.23828Z" fill="black"/>
  <path opacity="0.1" d="M9.53561 2.70284C9.77131 2.93854 9.77131 3.17424 9.53561 3.40995L8.47495 4.47061C8.23925 4.70631 8.00354 4.70631 7.76784 4.47061C7.53214 4.2349 7.53214 3.9992 7.76784 3.7635L8.8285 2.70284C9.0642 2.46714 9.29991 2.46714 9.53561 2.70284Z" fill="black"/>
  <path opacity="0.5" d="M4.23214 8.00585C4.46784 8.24155 4.46784 8.47725 4.23214 8.71295L3.17148 9.77361C2.93578 10.0093 2.70008 10.0093 2.46437 9.77361C2.22867 9.53791 2.22867 9.30221 2.46437 9.06651L3.52503 8.00585C3.76074 7.77015 3.99644 7.77015 4.23214 8.00585Z" fill="black"/>
  <path opacity="0.3" d="M9.53536 9.77383C9.29966 10.0095 9.06396 10.0095 8.82826 9.77383L7.7676 8.71317C7.53189 8.47747 7.53189 8.24176 7.7676 8.00606C8.0033 7.77036 8.239 7.77036 8.4747 8.00606L9.53536 9.06672C9.77107 9.30242 9.77107 9.53813 9.53536 9.77383Z" fill="black"/>
  <path opacity="0.7" d="M4.23239 4.47033C3.99668 4.70603 3.76098 4.70603 3.52528 4.47033L2.46462 3.40967C2.22892 3.17397 2.22892 2.93827 2.46462 2.70256C2.70032 2.46686 2.93602 2.46686 3.17173 2.70256L4.23239 3.76322C4.46809 3.99893 4.46809 4.23463 4.23239 4.47033Z" fill="black"/>
</svg>