<svg xmlns="http://www.w3.org/2000/svg"  viewBox="0 0 20 21" fill="none">
  <path fill-rule="evenodd" clip-rule="evenodd" d="M7.00003 4.03726C7.00003 3.38387 7.00003 3.05717 7.12718 2.8076C7.23904 2.58808 7.41751 2.4096 7.63704 2.29775C7.8866 2.17059 8.2133 2.17059 8.86669 2.17059H11.1334C11.7868 2.17059 12.1135 2.17059 12.363 2.29775C12.5825 2.4096 12.761 2.58808 12.8729 2.8076C13 3.05717 13 3.38387 13 4.03726V6.30393C13 6.95732 13 7.28402 12.8729 7.53358C12.761 7.7531 12.5825 7.93158 12.363 8.04343C12.1135 8.17059 11.7868 8.17059 11.1334 8.17059H10.8401V9.67083H17.5539C18.014 9.67083 18.387 10.0438 18.387 10.5039C18.387 10.964 18.014 11.337 17.5539 11.337H15.169V12.8373H15.4693C16.1227 12.8373 16.4494 12.8373 16.6989 12.9644C16.9184 13.0763 17.0969 13.2548 17.2088 13.4743C17.3359 13.7238 17.3359 14.0505 17.3359 14.7039V16.9706C17.3359 17.624 17.3359 17.9507 17.2088 18.2003C17.0969 18.4198 16.9184 18.5982 16.6989 18.7101C16.4494 18.8373 16.1227 18.8373 15.4693 18.8373H13.2026C12.5492 18.8373 12.2225 18.8373 11.9729 18.7101C11.7534 18.5982 11.5749 18.4198 11.4631 18.2003C11.3359 17.9507 11.3359 17.624 11.3359 16.9706V14.7039C11.3359 14.0505 11.3359 13.7238 11.4631 13.4743C11.5749 13.2548 11.7534 13.0763 11.9729 12.9644C12.2225 12.8373 12.5492 12.8373 13.2026 12.8373H13.5028V11.337L6.6751 11.337V12.8373H6.97536C7.62876 12.8373 7.95546 12.8373 8.20502 12.9644C8.42454 13.0763 8.60302 13.2548 8.71487 13.4743C8.84203 13.7238 8.84203 14.0505 8.84203 14.7039V16.9706C8.84203 17.624 8.84203 17.9507 8.71487 18.2003C8.60302 18.4198 8.42454 18.5982 8.20502 18.7101C7.95546 18.8373 7.62876 18.8373 6.97536 18.8373H4.7087C4.0553 18.8373 3.72861 18.8373 3.47904 18.7101C3.25952 18.5982 3.08104 18.4198 2.96919 18.2003C2.84203 17.9507 2.84203 17.624 2.84203 16.9706V14.7039C2.84203 14.0505 2.84203 13.7238 2.96919 13.4743C3.08104 13.2548 3.25952 13.0763 3.47904 12.9644C3.72861 12.8373 4.0553 12.8373 4.7087 12.8373H5.00892V11.337H2.44613C1.98602 11.337 1.61304 10.964 1.61304 10.5039C1.61304 10.0438 1.98602 9.67083 2.44613 9.67083H9.17393V8.17059H8.86669C8.2133 8.17059 7.8866 8.17059 7.63704 8.04343C7.41751 7.93158 7.23904 7.7531 7.12718 7.53358C7.00003 7.28402 7.00003 6.95732 7.00003 6.30393V4.03726ZM8.86669 3.83726H11.1334C11.2068 3.83726 11.2729 3.83727 11.3332 3.83742C11.3334 3.89776 11.3334 3.9638 11.3334 4.03726V6.30393C11.3334 6.37739 11.3334 6.44342 11.3332 6.50376C11.2729 6.50392 11.2068 6.50393 11.1334 6.50393H8.86669C8.79323 6.50393 8.7272 6.50392 8.66686 6.50376C8.6667 6.44342 8.66669 6.37739 8.66669 6.30393V4.03726C8.66669 3.9638 8.6667 3.89776 8.66686 3.83742C8.7272 3.83727 8.79323 3.83726 8.86669 3.83726ZM6.97536 14.5039H4.7087C4.63524 14.5039 4.5692 14.5039 4.50886 14.5041C4.50871 14.5644 4.5087 14.6305 4.5087 14.7039V16.9706C4.5087 17.0441 4.50871 17.1101 4.50886 17.1704C4.5692 17.1706 4.63524 17.1706 4.7087 17.1706H6.97536C7.04883 17.1706 7.11486 17.1706 7.1752 17.1704C7.17536 17.1101 7.17536 17.0441 7.17536 16.9706V14.7039C7.17536 14.6305 7.17536 14.5644 7.1752 14.5041C7.11486 14.5039 7.04882 14.5039 6.97536 14.5039ZM13.2026 14.5039H15.4693C15.5427 14.5039 15.6088 14.5039 15.6691 14.5041C15.6693 14.5644 15.6693 14.6305 15.6693 14.7039V16.9706C15.6693 17.0441 15.6693 17.1101 15.6691 17.1704C15.6088 17.1706 15.5427 17.1706 15.4693 17.1706H13.2026C13.1291 17.1706 13.0631 17.1706 13.0028 17.1704C13.0026 17.1101 13.0026 17.0441 13.0026 16.9706V14.7039C13.0026 14.6305 13.0026 14.5644 13.0028 14.5041C13.0631 14.5039 13.1291 14.5039 13.2026 14.5039Z" fill="currentColor"/>
</svg>