<svg width="14" height="15" viewBox="0 0 14 15" fill="none" xmlns="http://www.w3.org/2000/svg">
<g clip-path="url(#clip0_1815_15719)">
<path d="M1.43062 6.75275C1.43062 6.75275 2.695 4.8855 5.22375 4.69212V4.01488C2.42375 4.23888 0 6.61012 0 6.61012C0 6.61012 1.37375 10.5791 5.22375 10.9431V10.2221C2.3975 9.86688 1.43062 6.75275 1.43062 6.75275ZM5.22375 8.79063V9.4495C3.08875 9.06887 2.4955 6.849 2.4955 6.849C2.4955 6.849 3.52012 5.71325 5.22375 5.52863V6.25312H5.22025C4.32688 6.1455 3.62775 6.97938 3.62775 6.97938C3.62775 6.97938 4.01975 8.3855 5.22375 8.79063ZM5.25 2.25L5.22375 4.01488C5.30588 4.00817 5.38815 4.00321 5.4705 4C8.65287 3.89237 10.7266 6.61012 10.7266 6.61012C10.7266 6.61012 8.34488 9.50638 5.86425 9.50638C5.63675 9.50638 5.42325 9.48537 5.22375 9.4495V10.2221C5.39437 10.244 5.572 10.2571 5.7575 10.2571C8.06575 10.2571 9.73525 9.07763 11.3523 7.682C11.6209 7.89725 12.7181 8.41875 12.9439 8.648C11.4065 9.93425 7.82337 10.9729 5.7925 10.9729C5.60255 10.972 5.41275 10.9621 5.22375 10.9431V12.75H14L14.0263 2.25H5.25ZM5.22375 5.52863V4.69212C5.30589 4.68594 5.38816 4.68156 5.4705 4.679C7.7595 4.60725 9.261 6.646 9.261 6.646C9.261 6.646 7.63875 8.89825 5.90013 8.89825C5.64988 8.89825 5.42587 8.858 5.22375 8.79063V6.25312C6.1145 6.36075 6.29387 6.75363 6.82937 7.647L8.02112 6.6425C8.02112 6.6425 7.15138 5.5015 5.68488 5.5015C5.53079 5.50225 5.37686 5.5113 5.22375 5.52863Z" fill="#89CD11"/>
</g>
<defs>
<clipPath id="clip0_1815_15719">
<rect width="14" height="14" fill="white" transform="translate(0 0.5)"/>
</clipPath>
</defs>
</svg>
