<svg width="25" height="24" viewBox="0 0 25 24" fill="none" xmlns="http://www.w3.org/2000/svg">
<path d="M4.80499 1.74001C4.12471 1.74001 3.47229 2.01025 2.99126 2.49128C2.51023 2.97231 2.23999 3.62473 2.23999 4.30501L2.23999 19.695C2.23999 20.3753 2.51023 21.0277 2.99126 21.5087C3.47229 21.9898 4.12471 22.26 4.80499 22.26H20.195C20.8753 22.26 21.5277 21.9898 22.0087 21.5087C22.4897 21.0277 22.76 20.3753 22.76 19.695V4.30501C22.76 3.62473 22.4897 2.97231 22.0087 2.49128C21.5277 2.01025 20.8753 1.74001 20.195 1.74001H4.80499ZM12.7898 8.64627C12.0409 8.64627 11.5881 8.8566 11.5881 9.40679C11.5881 10.007 12.3666 10.2712 13.3323 10.5995C14.9072 11.1318 16.9798 11.8346 16.9887 14.438C16.9887 16.9607 14.9675 18.4125 12.0255 18.4125C10.6981 18.4083 9.38534 18.1352 8.16642 17.6097V14.2546C9.35402 14.9036 10.8533 15.3832 12.0267 15.3832C12.8181 15.3832 13.3836 15.1716 13.3836 14.5227C13.3836 13.8583 12.5397 13.5544 11.5202 13.1876C9.96834 12.6284 8.01124 11.9231 8.01124 9.57608C8.01124 7.08162 9.9196 5.58751 12.7898 5.58751C13.9893 5.57646 15.1798 5.79634 16.2962 6.23517V9.54787C15.2215 8.97074 13.8646 8.64627 12.7898 8.64627Z" fill="#9893FF"/>
</svg>
