<svg xmlns="http://www.w3.org/2000/svg" width="279" height="99" fill="none" viewBox="0 0 279 99"><path stroke="#B1C8DE" stroke-dasharray=".64 .64" stroke-opacity=".3" stroke-width=".319" d="M0.202637 6.35278H278.75"/><path stroke="#B1C8DE" stroke-dasharray=".64 .64" stroke-opacity=".3" stroke-width=".319" d="M0.202515 20.3757H278.75"/><path stroke="#B1C8DE" stroke-dasharray=".64 .64" stroke-opacity=".3" stroke-width=".319" d="M0.202515 34.3987H278.75"/><path stroke="#B1C8DE" stroke-dasharray=".64 .64" stroke-opacity=".3" stroke-width=".319" d="M0.202515 48.4216H278.75"/><path stroke="#B1C8DE" stroke-dasharray=".64 .64" stroke-opacity=".3" stroke-width=".319" d="M0.202515 62.4447H278.75"/><path fill="url(#paint0_linear_1110_157)" d="M37.0613 24.3358C17.5681 24.3358 0.173584 34.9728 0.173584 34.9728V98.5H278.486V10.8086C278.486 10.8086 269.441 3.33186 255.137 0.910636C229.356 -3.45348 225.758 28.4066 203.11 28.4067C186.474 28.4067 185.325 8.49906 163.144 6.68445C140.963 4.86983 130.957 50.5859 95.1994 50.0705C68.4128 49.6844 52.1252 24.3358 37.0613 24.3358Z"/><path stroke="#24282C" stroke-linecap="round" stroke-width=".797" d="M0.666504 35.0346C0.666504 35.0346 17.5954 24.4834 37.0866 24.4834C53.3085 24.4834 68.4348 49.8161 95.2186 50.2019C130.972 50.717 140.977 5.02968 163.156 6.84315C185.335 8.65663 186.484 28.5517 203.118 28.5517C225.764 28.5517 229.362 -3.2884 255.14 1.07298C269.442 3.49268 278.486 10.9647 278.486 10.9647"/><defs><linearGradient id="paint0_linear_1110_157" x1="139.445" x2="139.235" y1="22.206" y2="98.5" gradientUnits="userSpaceOnUse"><stop stop-color="#DCE3E7" stop-opacity=".42"/><stop offset="1" stop-color="#E9EDEF" stop-opacity="0"/></linearGradient></defs></svg>