<svg width="20" height="21" viewBox="0 0 20 21" fill="none" xmlns="http://www.w3.org/2000/svg">
	<g clip-path="url(#clip0_3622_30108)">
	<path d="M8.03355 2.15552H13.1455V3.85951H8.03355V2.15552ZM16.5697 7.59893L17.7915 6.37716L16.5867 5.17244L15.3658 6.39335C14.0281 5.32138 12.3694 4.7292 10.6553 4.71159C8.94116 4.69398 7.27067 5.25196 5.91122 6.29623L7.12106 7.5231C8.13186 6.80518 9.34035 6.41822 10.5802 6.4155L10.5887 6.41636V12.3633L14.8086 16.5875C13.9755 17.4245 12.9128 17.9954 11.7549 18.2278C10.5971 18.4602 9.39632 18.3437 8.30477 17.893C7.21321 17.4424 6.27998 16.6778 5.62334 15.6963C4.96669 14.7148 4.61617 13.5604 4.61619 12.3795H7.17218L3.76419 8.9715L0.356201 12.3795H2.91219C2.91103 13.6048 3.20353 14.8125 3.76518 15.9015C4.32683 16.9906 5.14127 17.9291 6.14029 18.6386C7.13931 19.3481 8.2938 19.8078 9.50705 19.9793C10.7203 20.1507 11.957 20.029 13.1135 19.6242C14.27 19.2193 15.3126 18.5433 16.1541 17.6526C16.9956 16.7619 17.6113 15.6825 17.9498 14.5049C18.2883 13.3273 18.3396 12.0857 18.0995 10.8841C17.8593 9.68255 17.3348 8.55603 16.5697 7.59893Z" fill="url(#paint0_linear_3622_30108)"/>
	</g>
	<defs>
	<linearGradient id="paint0_linear_3622_30108" x1="9.30217" y1="2.15552" x2="9.30217" y2="20.0547" gradientUnits="userSpaceOnUse">
	<stop stop-color="#417FDC"/>
	<stop offset="1" stop-color="#2361BE"/>
	</linearGradient>
	<clipPath id="clip0_3622_30108">
	<rect width="20" height="20" fill="white" transform="translate(0 0.895508)"/>
	</clipPath>
	</defs>
	</svg>
	