<svg width="20" height="21" viewBox="0 0 20 21" fill="none" xmlns="http://www.w3.org/2000/svg">
	<path d="M14.8919 7.06034C14.8419 6.89342 14.7834 6.72884 14.7165 6.56727C14.4581 5.94347 14.0794 5.37667 13.6019 4.89923C13.1245 4.4218 12.5577 4.04307 11.9339 3.78469C11.3101 3.5263 10.6415 3.39331 9.9663 3.39331C9.2911 3.39331 8.62251 3.5263 7.99871 3.78469C7.37491 4.04307 6.80811 4.4218 6.33068 4.89923C5.85324 5.37667 5.47452 5.94347 5.21613 6.56727C5.14983 6.72735 5.09178 6.89037 5.04212 7.0557C4.99325 7.05363 4.94413 7.05259 4.89476 7.05259C3.00094 7.05259 1.4657 8.58783 1.4657 10.4816C1.4657 12.3755 3.00094 13.9107 4.89476 13.9107C4.94125 13.9107 4.98754 13.9098 5.03358 13.9079V12.4875C5.03358 11.567 5.77978 10.8208 6.70025 10.8208H13.3832C14.3036 10.8208 15.0498 11.567 15.0498 12.4875V13.902C15.0961 13.9038 15.1425 13.9048 15.1892 13.9048C17.0827 13.9048 18.6178 12.3698 18.6178 10.4762C18.6178 8.58265 17.0827 7.04763 15.1892 7.04763C15.089 7.04763 14.9899 7.05192 14.8919 7.06034Z" fill="url(#paint0_linear_3622_26983)"/>
	<path d="M5.89408 16.3632C5.89408 15.9029 6.26717 15.5298 6.72741 15.5298H13.356C13.8163 15.5298 14.1894 15.9029 14.1894 16.3632V17.6132C14.1894 18.0734 13.8163 18.4465 13.356 18.4465H6.72741C6.26717 18.4465 5.89408 18.0734 5.89408 17.6132V16.3632Z" fill="url(#paint1_linear_3622_26983)"/>
	<path d="M6.72741 11.8147C6.26717 11.8147 5.89408 12.1878 5.89408 12.6481V13.8981C5.89408 14.3583 6.26717 14.7314 6.72741 14.7314H13.356C13.8163 14.7314 14.1894 14.3583 14.1894 13.8981V12.6481C14.1894 12.1878 13.8163 11.8147 13.356 11.8147H6.72741Z" fill="url(#paint2_linear_3622_26983)"/>
	<path fill-rule="evenodd" clip-rule="evenodd" d="M14.1108 14.2517C14.1607 14.1454 14.1888 14.027 14.1894 13.902C14.1894 13.9007 14.1894 13.8994 14.1894 13.8981V12.6481C14.1894 12.5931 14.1841 12.5395 14.1739 12.4875C14.1008 12.1127 13.7763 11.8278 13.3832 11.8152C13.3742 11.8149 13.3651 11.8147 13.356 11.8147H6.72741C6.71832 11.8147 6.70927 11.8149 6.70025 11.8152C6.30708 11.8278 5.98269 12.1127 5.90953 12.4875C5.89939 12.5395 5.89408 12.5931 5.89408 12.6481V13.8981C5.89408 13.9014 5.8941 13.9047 5.89414 13.9079C5.89556 14.0307 5.92354 14.1471 5.9726 14.2517C6.06567 14.45 6.23459 14.6056 6.44199 14.6812C6.53102 14.7137 6.62715 14.7314 6.72741 14.7314H13.356C13.4563 14.7314 13.5524 14.7137 13.6414 14.6812C13.8488 14.6056 14.0178 14.45 14.1108 14.2517ZM5.9726 16.0096C5.92223 16.1169 5.89408 16.2367 5.89408 16.3632V17.6132C5.89408 18.0734 6.26717 18.4465 6.72741 18.4465H13.356C13.8163 18.4465 14.1894 18.0734 14.1894 17.6132V16.3632C14.1894 16.2367 14.1612 16.1169 14.1108 16.0096C13.9778 15.7261 13.6899 15.5298 13.356 15.5298H6.72741C6.39359 15.5298 6.10562 15.7261 5.9726 16.0096Z" fill="url(#paint3_linear_3622_26983)"/>
	<defs>
	<linearGradient id="paint0_linear_3622_26983" x1="10.0417" y1="3.39331" x2="10.0417" y2="18.4465" gradientUnits="userSpaceOnUse">
	<stop stop-color="#4DCFF8"/>
	<stop offset="1" stop-color="#00AAE0"/>
	</linearGradient>
	<linearGradient id="paint1_linear_3622_26983" x1="10.0417" y1="3.39331" x2="10.0417" y2="18.4465" gradientUnits="userSpaceOnUse">
	<stop stop-color="#4DCFF8"/>
	<stop offset="1" stop-color="#00AAE0"/>
	</linearGradient>
	<linearGradient id="paint2_linear_3622_26983" x1="10.0417" y1="3.39331" x2="10.0417" y2="18.4465" gradientUnits="userSpaceOnUse">
	<stop stop-color="#4DCFF8"/>
	<stop offset="1" stop-color="#00AAE0"/>
	</linearGradient>
	<linearGradient id="paint3_linear_3622_26983" x1="10.0417" y1="3.39331" x2="10.0417" y2="18.4465" gradientUnits="userSpaceOnUse">
	<stop stop-color="#4DCFF8"/>
	<stop offset="1" stop-color="#00AAE0"/>
	</linearGradient>
	</defs>
	</svg>
	