<svg width="25" height="24" viewBox="0 0 25 24" fill="none" xmlns="http://www.w3.org/2000/svg">
	<path fill-rule="evenodd" clip-rule="evenodd" d="M8.65857 2H17.1412C17.9461 1.99999 18.6105 1.99998 19.1517 2.04419C19.7138 2.09012 20.2305 2.18868 20.7158 2.43597C21.4685 2.81947 22.0804 3.43139 22.4639 4.18404C22.7112 4.66937 22.8098 5.18608 22.8557 5.74817C22.8999 6.28936 22.8999 6.95372 22.8999 7.75868V16.2413C22.8999 17.0463 22.8999 17.7106 22.8557 18.2518C22.8098 18.8139 22.7112 19.3306 22.4639 19.816C22.0804 20.5686 21.4685 21.1805 20.7158 21.564C20.2305 21.8113 19.7138 21.9099 19.1517 21.9558C18.6105 22 17.9462 22 17.1412 22H8.65855C7.85359 22 7.18924 22 6.64805 21.9558C6.08595 21.9099 5.56925 21.8113 5.08391 21.564C4.33126 21.1805 3.71934 20.5686 3.33585 19.816C3.08856 19.3306 2.98999 18.8139 2.94407 18.2518C2.89985 17.7106 2.89986 17.0463 2.89987 16.2413V7.7587C2.89986 6.95373 2.89985 6.28937 2.94407 5.74817C2.98999 5.18608 3.08856 4.66937 3.33585 4.18404C3.71934 3.43139 4.33126 2.81947 5.08391 2.43597C5.56925 2.18868 6.08595 2.09012 6.64805 2.04419C7.18924 1.99998 7.8536 1.99999 8.65857 2ZM6.81091 4.03755C6.3725 4.07337 6.14829 4.1383 5.99189 4.21799C5.61557 4.40973 5.30961 4.7157 5.11786 5.09202C5.03817 5.24842 4.97324 5.47262 4.93742 5.91104C4.90065 6.36113 4.89987 6.94342 4.89987 7.8V16.2C4.89987 17.0566 4.90065 17.6389 4.93742 18.089C4.97324 18.5274 5.03817 18.7516 5.11786 18.908C5.30961 19.2843 5.61557 19.5903 5.99189 19.782C6.14829 19.8617 6.3725 19.9266 6.81091 19.9624C7.261 19.9992 7.84329 20 8.69987 20H17.0999C17.9565 20 18.5387 19.9992 18.9888 19.9624C19.4272 19.9266 19.6515 19.8617 19.8079 19.782C20.1842 19.5903 20.4901 19.2843 20.6819 18.908C20.7616 18.7516 20.8265 18.5274 20.8623 18.089C20.8991 17.6389 20.8999 17.0566 20.8999 16.2V7.8C20.8999 6.94342 20.8991 6.36113 20.8623 5.91104C20.8265 5.47262 20.7616 5.24842 20.6819 5.09202C20.4901 4.7157 20.1842 4.40973 19.8079 4.21799C19.6515 4.1383 19.4272 4.07337 18.9888 4.03755C18.5387 4.00078 17.9565 4 17.0999 4H8.69987C7.84329 4 7.261 4.00078 6.81091 4.03755ZM12.8999 6C13.4522 6 13.8999 6.44772 13.8999 7V17C13.8999 17.5523 13.4522 18 12.8999 18C12.3476 18 11.8999 17.5523 11.8999 17V7C11.8999 6.44772 12.3476 6 12.8999 6ZM16.8999 10C17.4522 10 17.8999 10.4477 17.8999 11V17C17.8999 17.5523 17.4522 18 16.8999 18C16.3476 18 15.8999 17.5523 15.8999 17V11C15.8999 10.4477 16.3476 10 16.8999 10ZM8.89987 12C9.45216 12 9.89987 12.4477 9.89987 13V17C9.89987 17.5523 9.45216 18 8.89987 18C8.34759 18 7.89987 17.5523 7.89987 17V13C7.89987 12.4477 8.34759 12 8.89987 12Z" fill="#667085"/>
	</svg>	