<svg width="20" height="21" viewBox="0 0 20 21" fill="none" xmlns="http://www.w3.org/2000/svg">
	<path d="M17.5958 6.06828V5.65022L17.5954 5.61106C17.5504 3.67542 14.167 2.56226 9.99994 2.56226C5.83264 2.56226 2.44869 3.65966 2.40405 5.61106V6.06828H2.40779C2.4053 6.10044 2.40405 6.13288 2.40405 6.16559C2.40405 7.63556 5.10661 8.82721 9.99994 8.82721C14.8933 8.82721 17.5958 7.63556 17.5958 6.16559C17.5958 6.13289 17.5946 6.10045 17.592 6.06828H17.5958Z" fill="url(#paint0_linear_3622_26931)"/>
	<path d="M2.40405 8.36456V11.3301C2.40387 11.3371 2.40393 11.344 2.40399 11.351L2.40405 11.3615C2.40405 12.8297 5.10661 14.02 9.99994 14.02C14.8933 14.02 17.5958 12.8297 17.5958 11.3615C17.5958 11.351 17.5957 11.3405 17.5954 11.3301L17.5958 8.36456H17.5436C17.1465 9.70301 14.4993 10.7363 9.99994 10.7363C5.50056 10.7363 2.85339 9.70301 2.45633 8.36456H2.40405Z" fill="url(#paint1_linear_3622_26931)"/>
	<path d="M2.40405 13.2671V16.248H2.40762C2.51854 17.9039 5.20939 19.2289 9.99994 19.2289C14.7905 19.2289 17.4813 17.9039 17.5923 16.248H17.5958V13.2671C17.5958 14.8638 14.8933 16.1583 9.99994 16.1583C5.10661 16.1583 2.40405 14.8638 2.40405 13.2671Z" fill="url(#paint2_linear_3622_26931)"/>
	<defs>
	<linearGradient id="paint0_linear_3622_26931" x1="9.99988" y1="2.56226" x2="9.99988" y2="19.2289" gradientUnits="userSpaceOnUse">
	<stop stop-color="#918FFF"/>
	<stop offset="1" stop-color="#565CE8"/>
	</linearGradient>
	<linearGradient id="paint1_linear_3622_26931" x1="9.99988" y1="2.56226" x2="9.99988" y2="19.2289" gradientUnits="userSpaceOnUse">
	<stop stop-color="#918FFF"/>
	<stop offset="1" stop-color="#565CE8"/>
	</linearGradient>
	<linearGradient id="paint2_linear_3622_26931" x1="9.99988" y1="2.56226" x2="9.99988" y2="19.2289" gradientUnits="userSpaceOnUse">
	<stop stop-color="#918FFF"/>
	<stop offset="1" stop-color="#565CE8"/>
	</linearGradient>
	</defs>
	</svg>
	