<svg width="20" height="20" viewBox="0 0 20 20" fill="none" xmlns="http://www.w3.org/2000/svg">
	<path d="M2.13708 3.61792C2.13708 3.13467 2.52884 2.74292 3.01208 2.74292C3.49533 2.74292 3.88708 3.13467 3.88708 3.61792V16.3821C3.88708 16.8653 3.49533 17.2571 3.01208 17.2571C2.52884 17.2571 2.13708 16.8653 2.13708 16.3821V3.61792Z" fill="#111824"/>
	<path d="M16.2797 3.61792C16.2797 3.13467 16.6715 2.74292 17.1547 2.74292C17.638 2.74292 18.0297 3.13467 18.0297 3.61792V16.3821C18.0297 16.8653 17.638 17.2571 17.1547 17.2571C16.6715 17.2571 16.2797 16.8653 16.2797 16.3821V3.61792Z" fill="#111824"/>
	<path d="M8.87397 5.18099C9.02871 4.74754 9.50552 4.52161 9.93897 4.67634C10.3724 4.83108 10.5983 5.3079 10.4436 5.74134L7.19955 14.8285C7.04481 15.2619 6.56799 15.4879 6.13455 15.3331C5.7011 15.1784 5.47516 14.7016 5.6299 14.2681L8.87397 5.18099Z" fill="#111824"/>
	<path d="M11.2896 5.17147C11.1348 4.73802 10.658 4.51209 10.2246 4.66682C9.79112 4.82156 9.56518 5.29838 9.71992 5.73182L12.9674 14.8285C13.1221 15.262 13.5989 15.4879 14.0324 15.3332C14.4658 15.1784 14.6918 14.7016 14.537 14.2682L11.2896 5.17147Z" fill="#111824"/>
	<path d="M8.83226 5.45744C8.83226 4.98686 9.21373 4.60539 9.68431 4.60539H10.4746C10.9451 4.60539 11.3266 4.98686 11.3266 5.45744C11.3266 5.92801 10.9451 6.30949 10.4746 6.30949H9.68431C9.21373 6.30949 8.83226 5.92801 8.83226 5.45744Z" fill="#111824"/>
	<path d="M6.95454 11.4592C6.95454 10.999 7.32764 10.6259 7.78788 10.6259H12.3789C12.8391 10.6259 13.2122 10.999 13.2122 11.4592C13.2122 11.9195 12.8391 12.2926 12.3789 12.2926H7.78788C7.32764 12.2926 6.95454 11.9195 6.95454 11.4592Z" fill="#111824"/>
	</svg>
	