<svg width="20" height="21" viewBox="0 0 20 21" fill="none" xmlns="http://www.w3.org/2000/svg">
<path d="M18.748 16.3395V16.448C18.748 17.1906 18.453 17.9028 17.9279 18.4279C17.4028 18.953 16.6906 19.248 15.948 19.248H4.048C3.6803 19.248 3.3162 19.1756 2.97648 19.0349C2.63677 18.8941 2.3281 18.6879 2.06809 18.4279C1.80809 18.1679 1.60184 17.8592 1.46112 17.5195C1.32041 17.1798 1.24799 16.8157 1.24799 16.448L1.24799 4.548C1.24798 4.1803 1.32041 3.8162 1.46112 3.47648C1.60183 3.13677 1.80808 2.8281 2.06808 2.56809C2.32808 2.30809 2.63675 2.10184 2.97647 1.96112C3.31618 1.82041 3.68028 1.74799 4.04798 1.74799L15.948 1.74799C16.6906 1.74799 17.4028 2.04298 17.9279 2.56809C18.453 3.09319 18.748 3.80538 18.748 4.54798V16.3395Z" fill="#1683FE"/>
<path d="M15.689 12.829C14.989 12.584 14.0545 12.234 13.008 11.8525C13.6803 10.6547 14.1978 9.37627 14.548 8.04802H11.048V6.99805H15.248V6.25603L11.048 6.29804V4.198H9.31894C9.00745 4.198 8.94795 4.548 8.94795 4.548V6.29801H4.74796V6.99801H8.94795V8.048H5.44798V8.748H12.448C12.1641 9.62778 11.7924 10.4767 11.3385 11.282C9.14397 10.5505 6.78848 9.95551 5.28347 10.3405C4.54932 10.4957 3.88082 10.8733 3.36898 11.422C1.73797 13.4205 2.92096 16.448 6.36498 16.448C8.41599 16.448 10.4005 15.2965 11.9335 13.41C14.2295 14.537 18.748 16.4235 18.748 16.4235V13.7355C18.748 13.7355 18.195 13.6655 15.689 12.829ZM6.05346 15.307C3.33746 15.307 2.55346 13.1755 3.89396 11.989C4.33109 11.5899 4.86807 11.3166 5.44796 11.198C7.04746 11.023 8.69245 11.807 10.467 12.6785C9.18597 14.2955 7.61794 15.307 6.05346 15.307Z" fill="white"/>
</svg>
