<svg xmlns="http://www.w3.org/2000/svg" width="17" height="16" fill="none" viewBox="0 0 17 16"><path fill="#fff" d="M11.9667 4.56668L12.9267 5.52668L9.67334 8.78001L7.48 6.58668C7.41833 6.52488 7.34507 6.47585 7.26442 6.44239C7.18377 6.40894 7.09731 6.39172 7.01 6.39172C6.92269 6.39172 6.83624 6.40894 6.75559 6.44239C6.67494 6.47585 6.60168 6.52488 6.54 6.58668L2.54 10.5933C2.47828 10.6551 2.42932 10.7283 2.39592 10.809C2.36251 10.8896 2.34532 10.9761 2.34532 11.0633C2.34532 11.1506 2.36251 11.2371 2.39592 11.3177C2.42932 11.3984 2.47828 11.4716 2.54 11.5333C2.60172 11.5951 2.675 11.644 2.75564 11.6774C2.83628 11.7108 2.92271 11.728 3.01 11.728C3.09729 11.728 3.18372 11.7108 3.26436 11.6774C3.34501 11.644 3.41828 11.5951 3.48 11.5333L7.00667 8.00001L9.2 10.1933C9.46 10.4533 9.88 10.4533 10.14 10.1933L13.8667 6.47335L14.8267 7.43335C14.8733 7.47903 14.9322 7.51003 14.9963 7.52251C15.0603 7.53499 15.1266 7.5284 15.187 7.50356C15.2473 7.47871 15.299 7.43671 15.3357 7.38275C15.3724 7.32879 15.3924 7.26526 15.3933 7.20001V4.33335C15.3952 4.28965 15.388 4.24604 15.3723 4.20521C15.3567 4.16438 15.3328 4.1272 15.3022 4.09596C15.2716 4.06472 15.2349 4.04009 15.1944 4.02359C15.1539 4.00709 15.1104 3.99906 15.0667 4.00001H12.2067C12.1409 3.99963 12.0764 4.01873 12.0214 4.05491C11.9665 4.0911 11.9234 4.14274 11.8978 4.20334C11.8721 4.26394 11.865 4.33078 11.8772 4.39544C11.8895 4.4601 11.9206 4.51968 11.9667 4.56668Z"/></svg>