<svg width="20" height="20" viewBox="0 0 20 20" fill="none" xmlns="http://www.w3.org/2000/svg">
	<path
		d="M5.66401 6.66675C5.66401 6.20651 6.03711 5.83342 6.49735 5.83342H13.6695C14.1297 5.83342 14.5028 6.20651 14.5028 6.66675C14.5028 7.12699 14.1297 7.50008 13.6695 7.50008H6.49735C6.03711 7.50008 5.66401 7.12699 5.66401 6.66675Z"
		fill="#667085" />
	<path
		d="M5.66401 10.0001C5.66401 9.53984 6.03711 9.16675 6.49735 9.16675H13.6695C14.1297 9.16675 14.5028 9.53984 14.5028 10.0001C14.5028 10.4603 14.1297 10.8334 13.6695 10.8334H6.49735C6.03711 10.8334 5.66401 10.4603 5.66401 10.0001Z"
		fill="#667085" />
	<path
		d="M6.49735 12.5001C6.03711 12.5001 5.66401 12.8732 5.66401 13.3334C5.66401 13.7937 6.03711 14.1667 6.49735 14.1667H13.6695C14.1297 14.1667 14.5028 13.7937 14.5028 13.3334C14.5028 12.8732 14.1297 12.5001 13.6695 12.5001H6.49735Z"
		fill="#667085" />
	<path fill-rule="evenodd" clip-rule="evenodd"
		d="M13.4691 2.62239C13.6249 2.77597 13.8751 2.77598 14.0308 2.62241L14.7192 1.94367C14.875 1.79011 15.1252 1.79012 15.2809 1.9437L15.9691 2.62238C16.1249 2.77596 16.3751 2.77597 16.5308 2.62239L17.1596 2.00242C17.286 1.87779 17.5 1.96733 17.5 2.14483L17.5 17.8551C17.5 18.0327 17.286 18.1222 17.1596 17.9975L16.5308 17.3775C16.3751 17.2239 16.1249 17.2239 15.9691 17.3775L15.2808 18.0563C15.1251 18.2099 14.8748 18.2099 14.7191 18.0563L14.0308 17.3775C13.8751 17.2239 13.6248 17.2239 13.4691 17.3775L12.7808 18.0563C12.6251 18.2099 12.3748 18.2099 12.2191 18.0563L11.5308 17.3775C11.375 17.2239 11.1248 17.2239 10.969 17.3775L10.2807 18.0563C10.1249 18.2099 9.87471 18.2099 9.71897 18.0563L9.03067 17.3775C8.87493 17.2239 8.62469 17.2239 8.46894 17.3775L7.78067 18.0563C7.62492 18.2099 7.37468 18.2099 7.21894 18.0563L6.53068 17.3775C6.37493 17.2239 6.12468 17.2239 5.96893 17.3775L5.28066 18.0564C5.1249 18.21 4.87463 18.21 4.71888 18.0564L4.03078 17.3776C3.87503 17.224 3.62474 17.224 3.46898 17.3776L2.84045 17.9976C2.71407 18.1223 2.5 18.0327 2.5 17.8552V2.14495C2.5 1.96743 2.71407 1.8779 2.84045 2.00257L3.469 2.62257C3.62475 2.7762 3.87502 2.77621 4.03078 2.62259L4.71905 1.94376C4.8748 1.79015 5.12505 1.79015 5.2808 1.94374L5.96896 2.62239C6.1247 2.77597 6.37491 2.77598 6.53067 2.62241L7.21906 1.94367C7.37481 1.79011 7.62503 1.79012 7.78077 1.9437L8.46898 2.6224C8.62471 2.77597 8.87492 2.77599 9.03067 2.62244L9.71916 1.94365C9.87492 1.7901 10.1251 1.79011 10.2809 1.94369L10.9691 2.62239C11.1248 2.77597 11.375 2.77599 11.5308 2.62243L12.2192 1.94366C12.375 1.7901 12.6252 1.79012 12.7809 1.9437L13.4691 2.62239ZM16.0753 4.53092C16.0753 4.19955 15.8067 3.93092 15.4753 3.93092H4.52471C4.19334 3.93092 3.92471 4.19955 3.92471 4.53092V15.4692C3.92471 15.8006 4.19334 16.0692 4.52471 16.0692H15.4753C15.8067 16.0692 16.0753 15.8006 16.0753 15.4692V4.53092Z"
		fill="#667085" />
</svg>