<svg width="20" height="20" viewBox="0 0 20 20" fill="none" xmlns="http://www.w3.org/2000/svg">
	<path d="M5.66401 6.6665C5.66401 6.20627 6.03711 5.83317 6.49735 5.83317H13.6695C14.1297 5.83317 14.5028 6.20627 14.5028 6.6665C14.5028 7.12674 14.1297 7.49984 13.6695 7.49984H6.49735C6.03711 7.49984 5.66401 7.12674 5.66401 6.6665Z" fill="#111824"/>
	<path d="M5.66401 9.99984C5.66401 9.5396 6.03711 9.1665 6.49735 9.1665H13.6695C14.1297 9.1665 14.5028 9.5396 14.5028 9.99984C14.5028 10.4601 14.1297 10.8332 13.6695 10.8332H6.49735C6.03711 10.8332 5.66401 10.4601 5.66401 9.99984Z" fill="#111824"/>
	<path d="M6.49735 12.4998C6.03711 12.4998 5.66401 12.8729 5.66401 13.3332C5.66401 13.7934 6.03711 14.1665 6.49735 14.1665H13.6695C14.1297 14.1665 14.5028 13.7934 14.5028 13.3332C14.5028 12.8729 14.1297 12.4998 13.6695 12.4998H6.49735Z" fill="#111824"/>
	<path fill-rule="evenodd" clip-rule="evenodd" d="M13.4691 2.62214C13.6249 2.77572 13.8751 2.77574 14.0308 2.62217L14.7192 1.94343C14.875 1.78986 15.1252 1.78988 15.2809 1.94346L15.9691 2.62213C16.1249 2.77572 16.3751 2.77573 16.5308 2.62215L17.1596 2.00218C17.286 1.87755 17.5 1.96709 17.5 2.14459L17.5 17.8549C17.5 18.0324 17.286 18.1219 17.1596 17.9973L16.5308 17.3773C16.3751 17.2237 16.1249 17.2237 15.9691 17.3773L15.2808 18.056C15.1251 18.2096 14.8748 18.2096 14.7191 18.056L14.0308 17.3773C13.8751 17.2237 13.6248 17.2237 13.4691 17.3773L12.7808 18.056C12.6251 18.2096 12.3748 18.2096 12.2191 18.056L11.5308 17.3773C11.375 17.2237 11.1248 17.2237 10.969 17.3773L10.2807 18.0561C10.1249 18.2096 9.87471 18.2096 9.71897 18.056L9.03067 17.3773C8.87493 17.2237 8.62469 17.2237 8.46894 17.3773L7.78067 18.056C7.62492 18.2096 7.37468 18.2096 7.21894 18.056L6.53068 17.3773C6.37493 17.2237 6.12468 17.2237 5.96893 17.3773L5.28066 18.0561C5.1249 18.2097 4.87463 18.2097 4.71888 18.0561L4.03078 17.3774C3.87503 17.2237 3.62474 17.2237 3.46898 17.3774L2.84045 17.9974C2.71407 18.122 2.5 18.0325 2.5 17.855V2.14471C2.5 1.96719 2.71407 1.87766 2.84045 2.00232L3.469 2.62232C3.62475 2.77595 3.87502 2.77596 4.03078 2.62234L4.71905 1.94352C4.8748 1.78991 5.12505 1.7899 5.2808 1.9435L5.96896 2.62214C6.1247 2.77572 6.37491 2.77574 6.53067 2.62217L7.21906 1.94343C7.37481 1.78986 7.62503 1.78988 7.78077 1.94346L8.46898 2.62215C8.62471 2.77573 8.87492 2.77575 9.03067 2.62219L9.71916 1.94341C9.87492 1.78985 10.1251 1.78987 10.2809 1.94345L10.9691 2.62215C11.1248 2.77573 11.375 2.77574 11.5308 2.62218L12.2192 1.94342C12.375 1.78986 12.6252 1.78987 12.7809 1.94345L13.4691 2.62214ZM16.0753 4.53068C16.0753 4.19931 15.8067 3.93068 15.4753 3.93068H4.52471C4.19334 3.93068 3.92471 4.19931 3.92471 4.53068V15.4689C3.92471 15.8003 4.19334 16.0689 4.52471 16.0689H15.4753C15.8067 16.0689 16.0753 15.8003 16.0753 15.469V4.53068Z" fill="#111824"/>
	</svg>	