<svg width="20" height="20" viewBox="0 0 20 20" fill="none" xmlns="http://www.w3.org/2000/svg">
	<path fill-rule="evenodd" clip-rule="evenodd" d="M9.77541 1.54383C9.92382 1.51599 10.0761 1.51599 10.2245 1.54383C10.401 1.57693 10.5581 1.6573 10.6288 1.69347C10.636 1.69717 10.6424 1.70042 10.6477 1.7031L18.0618 5.41013C18.3441 5.55129 18.5225 5.83984 18.5225 6.15548C18.5225 6.47113 18.3441 6.75968 18.0618 6.90084L10.6477 10.6079C10.6424 10.6105 10.636 10.6138 10.6288 10.6175C10.5581 10.6537 10.401 10.734 10.2245 10.7671C10.0761 10.795 9.92382 10.795 9.77541 10.7671C9.59898 10.734 9.44186 10.6537 9.37114 10.6175C9.36389 10.6138 9.35756 10.6105 9.3522 10.6079L1.93813 6.90084C1.65581 6.75968 1.47748 6.47113 1.47748 6.15548C1.47748 5.83984 1.65581 5.55129 1.93813 5.41013L9.3522 1.7031C9.35756 1.70042 9.36389 1.69717 9.37114 1.69347C9.44186 1.6573 9.59898 1.57693 9.77541 1.54383ZM9.99997 3.2426L4.1742 6.15548L9.99997 9.06837L15.8257 6.15548L9.99997 3.2426ZM1.56545 9.62738C1.77128 9.21574 2.27184 9.04888 2.68349 9.25471L9.99997 12.9129L17.3164 9.25471C17.7281 9.04888 18.2287 9.21574 18.4345 9.62738C18.6403 10.039 18.4735 10.5396 18.0618 10.7454L10.6477 14.4524C10.6424 14.4551 10.636 14.4584 10.6288 14.4621C10.5581 14.4982 10.401 14.5786 10.2245 14.6117C10.0761 14.6396 9.92382 14.6396 9.77541 14.6117C9.59898 14.5786 9.44186 14.4982 9.37114 14.4621C9.36389 14.4584 9.35756 14.4551 9.3522 14.4524L1.93813 10.7454C1.52648 10.5396 1.35963 10.039 1.56545 9.62738ZM1.56545 13.472C1.77128 13.0603 2.27184 12.8935 2.68349 13.0993L9.99997 16.7575L17.3164 13.0993C17.7281 12.8935 18.2287 13.0603 18.4345 13.472C18.6403 13.8836 18.4735 14.3842 18.0618 14.59L10.6477 18.297C10.6424 18.2997 10.636 18.3029 10.6288 18.3067C10.5581 18.3428 10.401 18.4232 10.2245 18.4563C10.0761 18.4841 9.92382 18.4841 9.77541 18.4563C9.59897 18.4232 9.44186 18.3428 9.37114 18.3067C9.36389 18.3029 9.35755 18.2997 9.35219 18.297L1.93813 14.59C1.52648 14.3842 1.35963 13.8836 1.56545 13.472Z" fill="#667085"/>
	</svg>
	