<svg xmlns="http://www.w3.org/2000/svg" width="15" height="8" fill="none" viewBox="0 0 15 8"><path fill="#00A9A6" d="M10.5476 0.81424L11.5581 1.77424L8.13373 5.02757L5.82511 2.83424C5.76019 2.77244 5.68308 2.72341 5.59819 2.68995C5.51331 2.6565 5.42231 2.63928 5.33041 2.63928C5.2385 2.63928 5.1475 2.6565 5.06262 2.68995C4.97773 2.72341 4.90062 2.77244 4.8357 2.83424L0.625446 6.84091C0.56048 6.90263 0.508947 6.9759 0.473787 7.05654C0.438628 7.13719 0.420532 7.22362 0.420532 7.31091C0.420532 7.39819 0.438628 7.48463 0.473787 7.56527C0.508947 7.64591 0.56048 7.71918 0.625446 7.78091C0.690411 7.84263 0.767537 7.89159 0.852418 7.92499C0.9373 7.95839 1.02828 7.97559 1.12015 7.97559C1.21203 7.97559 1.303 7.95839 1.38788 7.92499C1.47276 7.89159 1.54989 7.84263 1.61486 7.78091L5.3269 4.24757L7.63552 6.44091C7.90919 6.70091 8.35126 6.70091 8.62493 6.44091L12.5475 2.72091L13.5579 3.68091C13.607 3.72659 13.6691 3.75759 13.7365 3.77007C13.8039 3.78255 13.8737 3.77596 13.9372 3.75112C14.0007 3.72627 14.0551 3.68427 14.0937 3.63031C14.1323 3.57635 14.1534 3.51281 14.1544 3.44757V0.580906C14.1563 0.537208 14.1488 0.493598 14.1323 0.452768C14.1158 0.411939 14.0907 0.374758 14.0584 0.34352C14.0262 0.312283 13.9876 0.287653 13.945 0.27115C13.9023 0.254648 13.8566 0.246623 13.8106 0.247573H10.8002C10.731 0.247186 10.6631 0.266289 10.6053 0.302473C10.5474 0.338657 10.5021 0.390303 10.4751 0.450903C10.4481 0.511502 10.4405 0.578343 10.4535 0.643002C10.4664 0.70766 10.4991 0.767242 10.5476 0.81424Z"/></svg>