<svg xmlns="http://www.w3.org/2000/svg" width="14" height="8" fill="none" viewBox="0 0 14 8"><path fill="#219BF4" d="M10.37 7.21664L11.3369 6.25664L8.06041 3.00331L5.85148 5.19664C5.78937 5.25845 5.71559 5.30748 5.63436 5.34093C5.55314 5.37439 5.46607 5.39161 5.37814 5.39161C5.29021 5.39161 5.20314 5.37439 5.12191 5.34093C5.04069 5.30748 4.96691 5.25845 4.9048 5.19664L0.876362 1.18998C0.750824 1.06533 0.680298 0.896262 0.680298 0.719978C0.680298 0.543694 0.750824 0.37463 0.876362 0.249978C1.0019 0.125326 1.17217 0.0552979 1.3497 0.0552979C1.52724 0.0552979 1.69751 0.125326 1.82304 0.249978L5.37478 3.78331L7.58371 1.58998C7.64582 1.52818 7.7196 1.47914 7.80082 1.44569C7.88205 1.41224 7.96912 1.39502 8.05705 1.39502C8.14498 1.39502 8.23205 1.41224 8.31327 1.44569C8.3945 1.47914 8.46828 1.52818 8.53039 1.58998L12.2836 5.30998L13.2504 4.34998C13.2973 4.3043 13.3567 4.2733 13.4212 4.26081C13.4857 4.24833 13.5525 4.25492 13.6132 4.27977C13.674 4.30461 13.7261 4.34661 13.763 4.40057C13.8 4.45453 13.8201 4.51807 13.8211 4.58331V7.44331C13.8211 7.62998 13.6734 7.77664 13.4854 7.77664H10.605C10.3096 7.78331 10.1619 7.42331 10.37 7.21664Z"/></svg>