<svg width="16" height="16" viewBox="0 0 16 16" fill="none" xmlns="http://www.w3.org/2000/svg">
	<path fill-rule="evenodd" clip-rule="evenodd" d="M7.33334 2.66683C4.75601 2.66683 2.66668 4.75617 2.66668 7.3335C2.66668 9.91083 4.75601 12.0002 7.33334 12.0002C8.59064 12.0002 9.73181 11.5029 10.5709 10.6944C10.5885 10.6716 10.6077 10.6497 10.6286 10.6288C10.6495 10.6079 10.6714 10.5886 10.6943 10.5711C11.5028 9.73196 12 8.59079 12 7.3335C12 4.75617 9.91067 2.66683 7.33334 2.66683ZM12.0213 11.0786C12.8424 10.0522 13.3333 8.75017 13.3333 7.3335C13.3333 4.01979 10.6471 1.3335 7.33334 1.3335C4.01963 1.3335 1.33334 4.01979 1.33334 7.3335C1.33334 10.6472 4.01963 13.3335 7.33334 13.3335C8.75002 13.3335 10.052 12.8425 11.0785 12.0214L13.5286 14.4716C13.789 14.7319 14.2111 14.7319 14.4714 14.4716C14.7318 14.2112 14.7318 13.7891 14.4714 13.5288L12.0213 11.0786Z" fill="#485264"/>
	</svg>
	