<svg width="24" height="25" viewBox="0 0 24 25" fill="none" xmlns="http://www.w3.org/2000/svg">
	<path fill-rule="evenodd" clip-rule="evenodd" d="M6.97566 3.8335H17.0244C17.7945 3.83348 18.4327 3.83347 18.953 3.87599C19.4943 3.92021 19.9955 4.01537 20.4675 4.25585C21.1966 4.62735 21.7894 5.22015 22.1609 5.94928C22.3923 6.40332 22.4891 6.88449 22.5355 7.40229C22.5872 7.56276 22.5964 7.73169 22.5661 7.89328C22.5833 8.32449 22.5833 8.82227 22.5833 9.3924V15.6078C22.5833 16.378 22.5833 17.0161 22.5408 17.5365C22.4966 18.0777 22.4014 18.579 22.1609 19.051C21.7894 19.7801 21.1966 20.3729 20.4675 20.7444C19.9955 20.9849 19.4943 21.08 18.953 21.1243C18.4327 21.1668 17.7945 21.1668 17.0244 21.1667H6.97563C6.20548 21.1668 5.56734 21.1668 5.04699 21.1243C4.50574 21.08 4.00447 20.9849 3.53251 20.7444C2.80338 20.3729 2.21058 19.7801 1.83908 19.051C1.5986 18.579 1.50344 18.0777 1.45922 17.5365C1.4167 17.0161 1.41671 16.378 1.41673 15.6078V9.39243C1.41672 8.82229 1.41671 8.3245 1.43395 7.89329C1.40358 7.7317 1.41282 7.56276 1.46448 7.40228C1.51087 6.88449 1.60773 6.40332 1.83908 5.94928C2.21058 5.22015 2.80338 4.62735 3.53251 4.25585C4.00447 4.01537 4.50574 3.92021 5.04699 3.87599C5.56735 3.83347 6.20549 3.83348 6.97566 3.8335ZM3.41673 9.62914V15.5668C3.41673 16.3883 3.4175 16.9444 3.45258 17.3736C3.48669 17.7912 3.54821 18 3.62109 18.143C3.80085 18.4958 4.08769 18.7826 4.44049 18.9624C4.58352 19.0353 4.79228 19.0968 5.20985 19.1309C5.63909 19.166 6.19513 19.1667 7.0167 19.1667H16.9833C17.8049 19.1667 18.3609 19.166 18.7902 19.1309C19.2077 19.0968 19.4165 19.0353 19.5595 18.9624C19.9123 18.7826 20.1992 18.4958 20.3789 18.143C20.4518 18 20.5133 17.7912 20.5474 17.3736C20.5825 16.9444 20.5833 16.3883 20.5833 15.5668V9.62914L14.3321 14.005C14.2943 14.0315 14.2568 14.0578 14.2196 14.0839C13.7 14.4488 13.2353 14.7752 12.7055 14.9073C12.2422 15.0227 11.7578 15.0227 11.2946 14.9073C10.7647 14.7752 10.3 14.4488 9.78044 14.0839C9.74323 14.0578 9.70575 14.0315 9.66794 14.005L3.41673 9.62914ZM20.5 7.24616L13.1852 12.3665C12.4838 12.8575 12.3431 12.9364 12.2217 12.9666C12.0761 13.0029 11.9239 13.0029 11.7783 12.9666C11.6569 12.9364 11.5162 12.8575 10.8149 12.3665L3.50005 7.24616C3.53307 7.06553 3.57479 6.94813 3.62109 6.85726C3.80085 6.50446 4.08769 6.21762 4.44049 6.03786C4.58352 5.96498 4.79228 5.90346 5.20985 5.86935C5.63909 5.83427 6.19513 5.8335 7.0167 5.8335H16.9833C17.8049 5.8335 18.3609 5.83427 18.7902 5.86935C19.2077 5.90346 19.4165 5.96498 19.5595 6.03786C19.9123 6.21762 20.1992 6.50446 20.3789 6.85726C20.4252 6.94813 20.4669 7.06553 20.5 7.24616Z" fill="#485264"/>
	</svg>
	