<svg width="20" height="20" viewBox="0 0 20 20" fill="none" xmlns="http://www.w3.org/2000/svg">
	<path
		d="M6.43118 6.49711C6.43118 6.03687 6.80427 5.66378 7.26451 5.66378C7.72475 5.66378 8.09784 6.03687 8.09784 6.49711V8.16378C8.09784 8.62402 7.72475 8.99711 7.26451 8.99711C6.80427 8.99711 6.43118 8.62402 6.43118 8.16378V6.49711Z"
		fill="#485264" />
	<path
		d="M10.7986 5.66378C10.3384 5.66378 9.96529 6.03687 9.96529 6.49711V8.16378C9.96529 8.62402 10.3384 8.99711 10.7986 8.99711C11.2589 8.99711 11.632 8.62402 11.632 8.16378V6.49711C11.632 6.03687 11.2589 5.66378 10.7986 5.66378Z"
		fill="#485264" />
	<path fill-rule="evenodd" clip-rule="evenodd"
		d="M2.86975 4.59761C2.86975 2.97705 4.18347 1.66333 5.80403 1.66333H10.8669C11.6451 1.66333 12.3914 1.97248 12.9417 2.52276L16.271 5.852C16.8212 6.40228 17.1304 7.14863 17.1304 7.92685V15.4025C17.1304 17.023 15.8167 18.3367 14.1961 18.3367H5.80403C4.18347 18.3367 2.86975 17.023 2.86975 15.4025V4.59761ZM5.80403 3.33C5.10395 3.33 4.53642 3.89753 4.53642 4.59761V15.4025C4.53642 16.1025 5.10395 16.6701 5.80403 16.6701H14.1961C14.8962 16.6701 15.4637 16.1025 15.4637 15.4025V7.92685C15.4637 7.59066 15.3302 7.26824 15.0924 7.03051L11.7632 3.70127C11.5255 3.46355 11.2031 3.33 10.8669 3.33H5.80403Z"
		fill="#485264" />
</svg>