<svg width="16" height="16" viewBox="0 0 16 16" fill="none" xmlns="http://www.w3.org/2000/svg">
	<path
		d="M5.29739 2.0141C5.44471 1.41876 6.22675 1.40093 6.41898 1.94929L8.49799 10.9123L9.80448 6.28543C9.9482 5.77466 10.5901 5.69022 10.8588 6.11559L12.2001 8.86318H14.472C14.8033 8.86318 15.0718 9.1321 15.0718 9.46377C15.0718 9.81423 14.7881 10.0984 14.438 10.0984H11.8395C11.644 10.0985 11.4613 9.99693 11.3516 9.82722L10.5154 8.12024L9.00668 13.4648C8.84278 14.0447 8.07843 14.0489 7.89048 13.508L5.84782 4.70434L4.62438 9.63638C4.56302 9.88361 4.36278 10.0657 4.12052 10.0946L1.52053 10.0975C1.19356 10.0979 0.928223 9.83261 0.928223 9.50509V9.44042C0.928223 9.1216 1.18637 8.86304 1.50477 8.86304H3.59787L5.29739 2.0141Z"
		fill="#485264" />
</svg>