<svg width="18" height="18" viewBox="0 0 18 18" fill="none" xmlns="http://www.w3.org/2000/svg">
	<path fill-rule="evenodd" clip-rule="evenodd" d="M7.80932 5.73789C7.3806 5.73789 6.98445 5.96661 6.77009 6.33789L5.57942 8.40018C5.36507 8.77146 5.36507 9.2289 5.57942 9.60018L6.77009 11.6625C6.98445 12.0337 7.3806 12.2625 7.80932 12.2625H10.1906C10.6194 12.2625 11.0155 12.0337 11.2299 11.6625L12.4205 9.60018C12.6349 9.2289 12.6349 8.77146 12.4205 8.40018L11.2299 6.33789C11.0155 5.96661 10.6194 5.73789 10.1906 5.73789H7.80932ZM6.96507 9.00018L7.98252 7.23789H10.0174L11.0349 9.00018L10.0174 10.7625H7.98252L6.96507 9.00018Z" fill="#485264"/>
	<path fill-rule="evenodd" clip-rule="evenodd" d="M16.5139 7.72518C16.9694 8.51415 16.9694 9.48621 16.5139 10.2752L13.8611 14.8699C13.4056 15.6589 12.5638 16.1449 11.6527 16.1449H6.34723C5.4362 16.1449 4.59438 15.6589 4.13886 14.8699L1.48611 10.2752C1.03059 9.48621 1.03059 8.51415 1.48611 7.72518L4.13886 3.13047C4.59438 2.3415 5.4362 1.85547 6.34723 1.85547H11.6527C12.5638 1.85547 13.4056 2.3415 13.8611 3.13047L16.5139 7.72518ZM15.2148 9.52518L12.5621 14.1199C12.3745 14.4448 12.0279 14.6449 11.6527 14.6449H6.34723C5.9721 14.6449 5.62546 14.4448 5.4379 14.1199L2.78514 9.52518C2.59758 9.20031 2.59758 8.80005 2.78514 8.47518L5.4379 3.88047C5.62547 3.5556 5.9721 3.35547 6.34723 3.35547L11.6527 3.35547C12.0279 3.35547 12.3745 3.5556 12.5621 3.88047L15.2148 8.47518C15.4024 8.80005 15.4024 9.20031 15.2148 9.52518Z" fill="#485264"/>
	</svg>
	