<svg width="16" height="16" viewBox="0 0 16 16" fill="none" xmlns="http://www.w3.org/2000/svg">
	<path d="M2.42795 7.25409C2.42795 7.25409 3.68996 5.39033 6.21397 5.19732V4.52134C3.41921 4.74492 1 7.11173 1 7.11173C1 7.11173 2.37118 11.0733 6.21397 11.4366V10.717C3.39301 10.3624 2.42795 7.25409 2.42795 7.25409ZM6.21397 9.28815V9.94579C4.08297 9.56588 3.49083 7.35016 3.49083 7.35016C3.49083 7.35016 4.51354 6.21653 6.21397 6.03225V6.7554H6.21048C5.31878 6.64797 4.62096 7.48029 4.62096 7.48029C4.62096 7.48029 5.01223 8.88378 6.21397 9.28815ZM6.24017 2.75977L6.21397 4.52134C6.29596 4.51464 6.37807 4.50969 6.46026 4.50649C9.63668 4.39907 11.7065 7.11173 11.7065 7.11173C11.7065 7.11173 9.32926 10.0026 6.85328 10.0026C6.6262 10.0026 6.4131 9.9816 6.21397 9.94579V10.717C6.38428 10.7388 6.56157 10.7519 6.74672 10.7519C9.05065 10.7519 10.717 9.57461 12.331 8.1816C12.5991 8.39645 13.6943 8.91697 13.9197 9.14579C12.3852 10.4296 8.80873 11.4663 6.78166 11.4663C6.59207 11.4654 6.40262 11.4555 6.21397 11.4366V13.2401H14.9738L15 2.75977H6.24017ZM6.21397 6.03225V5.19732C6.29596 5.19114 6.37808 5.18677 6.46026 5.18422C8.74498 5.1126 10.2437 7.14754 10.2437 7.14754C10.2437 7.14754 8.62445 9.39557 6.88908 9.39557C6.6393 9.39557 6.41572 9.3554 6.21397 9.28815V6.7554C7.10306 6.86282 7.2821 7.25496 7.81659 8.14667L9.00611 7.14404C9.00611 7.14404 8.13799 6.00518 6.67424 6.00518C6.52044 6.00593 6.3668 6.01497 6.21397 6.03225Z" fill="#485264"/>
	</svg>
	