<svg width="16" height="16" viewBox="0 0 16 16" fill="none" xmlns="http://www.w3.org/2000/svg">
	<path d="M3.93331 5.73697C3.93331 5.36878 4.23179 5.0703 4.59998 5.0703C4.96817 5.0703 5.26664 5.36878 5.26664 5.73697V6.6703C5.26664 7.03849 4.96817 7.33697 4.59998 7.33697C4.23179 7.33697 3.93331 7.03849 3.93331 6.6703V5.73697Z" fill="#485264"/>
	<path d="M6.19995 5.73697C6.19995 5.36878 6.49843 5.0703 6.86662 5.0703C7.23481 5.0703 7.53328 5.36878 7.53328 5.73697V6.6703C7.53328 7.03849 7.23481 7.33697 6.86662 7.33697C6.49843 7.33697 6.19995 7.03849 6.19995 6.6703V5.73697Z" fill="#485264"/>
	<path d="M8.46663 5.73697C8.46663 5.36878 8.76511 5.0703 9.1333 5.0703C9.50149 5.0703 9.79997 5.36878 9.79997 5.73697V6.6703C9.79997 7.03849 9.50149 7.33697 9.1333 7.33697C8.76511 7.33697 8.46663 7.03849 8.46663 6.6703V5.73697Z" fill="#485264"/>
	<path d="M10.7333 5.73697C10.7333 5.36878 11.0318 5.0703 11.3999 5.0703C11.7681 5.0703 12.0666 5.36878 12.0666 5.73697V6.6703C12.0666 7.03849 11.7681 7.33697 11.3999 7.33697C11.0318 7.33697 10.7333 7.03849 10.7333 6.6703V5.73697Z" fill="#485264"/>
	<path fill-rule="evenodd" clip-rule="evenodd" d="M2.66659 2.66821C1.93021 2.66821 1.33325 3.26517 1.33325 4.00155V9.0827C1.33325 9.81908 1.93021 10.416 2.66659 10.416H3.33354C3.43108 10.416 3.52084 10.4693 3.56759 10.5549L4.70498 12.6376C4.93872 13.0657 5.3875 13.3319 5.87519 13.3319H9.97543C10.4631 13.3319 10.9119 13.0657 11.1456 12.6376L12.283 10.5549C12.3298 10.4693 12.4195 10.416 12.5171 10.416H13.3333C14.0696 10.416 14.6666 9.81908 14.6666 9.0827V4.00155C14.6666 3.26517 14.0696 2.66821 13.3333 2.66821H2.66659ZM4.47239 9.42984C4.35552 9.21583 4.13113 9.0827 3.88729 9.0827H2.93325C2.78598 9.0827 2.66659 8.96331 2.66659 8.81603V4.26821C2.66659 4.12094 2.78598 4.00155 2.93325 4.00155L13.0666 4.00155C13.2139 4.00155 13.3333 4.12094 13.3333 4.26821V8.81603C13.3333 8.96331 13.2139 9.0827 13.0666 9.0827H11.9633C11.7195 9.0827 11.4951 9.21583 11.3782 9.42984L10.0892 11.7903C10.019 11.9187 9.88441 11.9986 9.73811 11.9986H6.11251C5.9662 11.9986 5.83157 11.9187 5.76144 11.7903L4.47239 9.42984Z" fill="#485264"/>
	</svg>
	