<svg width="20" height="20" viewBox="0 0 20 20" fill="none" xmlns="http://www.w3.org/2000/svg">
	<path fill-rule="evenodd" clip-rule="evenodd" d="M3.30087 2.06515C3.30087 1.91721 3.47926 1.84261 3.58458 1.9465L4.47468 2.82449C4.60447 2.95252 4.81305 2.95252 4.94284 2.82449L5.88259 1.89752C6.01237 1.7695 6.22092 1.76949 6.35072 1.89748L7.29062 2.82427C7.42041 2.95225 7.62893 2.95225 7.75871 2.82426L8.69851 1.89745C8.82829 1.76947 9.03681 1.76946 9.1666 1.89743L10.1067 2.82429C10.2365 2.95226 10.445 2.95225 10.5748 2.82427L11.5146 1.89745C11.6444 1.76947 11.8529 1.76945 11.9827 1.89742L12.9228 2.8243C13.0526 2.95227 13.2611 2.95225 13.3909 2.82427L14.3307 1.89745C14.4604 1.76947 14.669 1.76946 14.7987 1.89743L15.7388 2.8243C15.8686 2.95227 16.0771 2.95225 16.2069 2.82427L17.0971 1.94643C17.2024 1.84256 17.3808 1.91717 17.3808 2.06509L17.3809 15.0138C17.3809 16.8548 15.8885 18.3472 14.0476 18.3472H4.05111C2.21016 18.3472 0.717773 16.8548 0.717773 15.0138V13.4919C0.717773 13.0316 1.09087 12.6585 1.55111 12.6585H3.30053L3.30087 2.06515ZM4.99926 4.87578C4.87227 5.00105 4.80077 5.17199 4.80076 5.35038L4.80048 14.1585H2.21777V15.0138C2.21777 16.0264 3.03858 16.8472 4.05111 16.8472H14.0476C15.0601 16.8472 15.8809 16.0264 15.8809 15.0138L15.8808 5.34964C15.8808 5.1712 15.8093 5.0002 15.6822 4.87492L14.7989 4.00401C14.6691 3.87604 14.4606 3.87606 14.3308 4.00404L13.391 4.93085C13.2612 5.05883 13.0527 5.05884 12.9229 4.93088L11.9828 4.00399C11.853 3.87602 11.6445 3.87604 11.5147 4.00402L10.5749 4.93086C10.4451 5.05884 10.2366 5.05885 10.1068 4.93088L9.16671 4.00401C9.03692 3.87604 8.82841 3.87606 8.69863 4.00404L7.75877 4.9309C7.62899 5.05889 7.42047 5.0589 7.29068 4.93091L6.3509 4.00424C6.2211 3.87625 6.01256 3.87627 5.88278 4.00428L4.99926 4.87578Z" fill="#667085"/>
	<path fill-rule="evenodd" clip-rule="evenodd" d="M2.55113 14.1585C2.36704 14.1585 2.2178 14.3078 2.2178 14.4919L2.21777 15.0138C2.21777 16.0264 3.03858 16.8472 4.05111 16.8472L10.6954 16.8472C10.83 16.8472 10.9109 16.6944 10.8444 16.5773C10.5553 16.0686 10.3902 15.4803 10.3902 14.8534V14.4919C10.3902 14.3078 10.2409 14.1585 10.0568 14.1585H2.55113ZM1.55111 12.6585C1.09087 12.6585 0.717773 13.0316 0.717773 13.4919V15.0138C0.717773 16.8548 2.21016 18.3472 4.05111 18.3472H14.0476C15.8885 18.3472 17.3809 16.8548 17.3809 15.0138L17.381 12.6585H15.8785V14.8534C15.8785 15.9418 15.0065 16.8265 13.923 16.8472C13.9102 16.8474 13.8973 16.8475 13.8844 16.8475C13.8714 16.8475 13.8585 16.8474 13.8457 16.8472C12.7622 16.8265 11.8902 15.9418 11.8902 14.8534V13.4919C11.8902 13.0316 11.5171 12.6585 11.0568 12.6585L1.55111 12.6585Z" fill="#667085"/>
	<path d="M6.32642 7.3669C6.32642 6.90666 6.69952 6.53356 7.15975 6.53356H11.0568C11.5171 6.53356 11.8902 6.90666 11.8902 7.3669C11.8902 7.82713 11.5171 8.20023 11.0568 8.20023H7.15975C6.69952 8.20023 6.32642 7.82713 6.32642 7.3669Z" fill="#667085"/>
	<path d="M6.32642 10.2287C6.32642 9.76845 6.69952 9.39535 7.15975 9.39535H11.0568C11.5171 9.39535 11.8902 9.76845 11.8902 10.2287C11.8902 10.6889 11.5171 11.062 11.0568 11.062H7.15975C6.69952 11.062 6.32642 10.6889 6.32642 10.2287Z" fill="#667085"/>
	<path d="M14.3553 7.37951C14.3553 7.83975 13.9822 8.21284 13.522 8.21284C13.0617 8.21284 12.6886 7.83975 12.6886 7.37951C12.6886 6.91927 13.0617 6.54618 13.522 6.54618C13.9822 6.54618 14.3553 6.91927 14.3553 7.37951Z" fill="#667085"/>
	<path d="M14.3553 10.2287C14.3553 10.6889 13.9822 11.062 13.522 11.062C13.0617 11.062 12.6886 10.6889 12.6886 10.2287C12.6886 9.76845 13.0617 9.39535 13.522 9.39535C13.9822 9.39535 14.3553 9.76845 14.3553 10.2287Z" fill="#667085"/>
	</svg>
	