<svg width="20" height="21" viewBox="0 0 20 21" fill="none" xmlns="http://www.w3.org/2000/svg">
	<path d="M4.33203 10.2738C5.47311 11.9421 7.83395 11.7941 7.83395 11.7941C7.24374 11.2215 6.86011 10.6983 6.82076 9.20761C6.78141 7.71695 5.93544 7.32207 5.93544 7.32207C7.45032 6.36449 6.90929 5.32794 6.8601 4.17292C6.83059 3.45227 7.25358 2.91919 7.58803 2.61316C5.66303 2.90254 3.92361 3.92641 2.7324 5.47131C1.54119 7.01621 0.990116 8.96291 1.19408 10.9056C1.33179 10.5206 3.27949 8.73376 4.33203 10.2738Z" fill="url(#paint0_linear_3622_26767)"/>
	<path d="M18.3101 7.30236C18.2592 7.14012 18.1967 6.98176 18.1232 6.82851V6.81864C17.7799 6.11769 17.2107 5.55371 16.5079 5.21816C15.8051 4.88261 15.01 4.79518 14.2515 4.97005C13.493 5.14492 12.8156 5.57184 12.3292 6.18156C11.8428 6.79127 11.5759 7.54801 11.5718 8.32904C11.5719 8.57468 11.5983 8.81959 11.6505 9.05957C11.6508 9.06285 11.6508 9.06615 11.6505 9.06944C11.6702 9.16816 11.6997 9.26688 11.7292 9.3656C11.9048 10.061 11.939 10.7848 11.8297 11.4938C11.7204 12.2027 11.4699 12.8823 11.0932 13.492C10.7164 14.1017 10.2211 14.6289 9.63688 15.0423C9.05263 15.4557 8.39138 15.7467 7.69261 15.8979C6.99383 16.0492 6.27185 16.0576 5.56975 15.9227C4.86766 15.7878 4.19984 15.5124 3.60616 15.1128C3.01248 14.7131 2.50511 14.1976 2.11433 13.5969C1.72354 12.9962 1.45736 12.3226 1.33167 11.6164C1.50941 12.8406 1.94135 14.0136 2.5995 15.0597C3.25766 16.1057 4.12736 17.0014 5.15232 17.6887C6.17727 18.376 7.33463 18.8396 8.54946 19.0496C9.76429 19.2596 11.0095 19.2112 12.2045 18.9075C13.3995 18.6039 14.5177 18.0518 15.4866 17.287C16.4555 16.5221 17.2535 15.5616 17.8291 14.4676C18.4047 13.3737 18.7449 12.1706 18.8277 10.9363C18.9106 9.70195 18.7342 8.46393 18.3101 7.30236Z" fill="url(#paint1_linear_3622_26767)"/>
	<defs>
	<linearGradient id="paint0_linear_3622_26767" x1="6.52547" y1="1.57533" x2="-0.921158" y2="13.2752" gradientUnits="userSpaceOnUse">
	<stop stop-color="#0AA3F9"/>
	<stop offset="1" stop-color="#B5B4FF"/>
	</linearGradient>
	<linearGradient id="paint1_linear_3622_26767" x1="21.4537" y1="19.5775" x2="9.57241" y2="4.42764" gradientUnits="userSpaceOnUse">
	<stop stop-color="#0AA3F9"/>
	<stop offset="1" stop-color="#B5B4FF"/>
	</linearGradient>
	</defs>
	</svg>
	