<svg width="17" height="16" viewBox="0 0 17 16" fill="none" xmlns="http://www.w3.org/2000/svg">
<path fill-rule="evenodd" clip-rule="evenodd" d="M15.0109 6.03363C15.0109 6.03363 14.7533 4.79202 13.4005 4.57209C13.4005 4.57209 12.7499 1.79861 10.2988 2.86222C10.2988 2.86222 8.50895 0.321821 6.6064 2.86222C6.6064 2.86222 4.3372 1.66469 3.39566 4.57636C3.39566 4.57636 1.74999 4.61839 1.73661 6.86748C1.72324 9.11659 4.96431 11.5493 5.42673 11.7616C5.42673 11.7616 4.40925 12.8655 5.65566 13.632C7.3812 14.5362 10.6415 14.2071 11.4358 13.4981C11.9283 13.0586 11.8898 12.3834 11.4358 11.8285C11.4339 11.8304 15.6109 9.37285 15.0109 6.03363ZM12.2595 4.18442C11.6313 3.16341 10.4014 3.83814 10.4014 3.83814C10.8606 7.55094 9.40345 11.1801 9.40345 11.1801C10.7846 10.7479 13.0174 5.41596 12.2595 4.18442ZM8.28708 2.73063C8.28708 2.73063 7.2848 2.79384 7.11572 4.16811C6.94664 5.54238 7.34795 10.8784 8.4195 11.2637C8.4195 11.2637 9.17528 11.4615 9.69476 6.78818C10.3813 2.24844 8.28708 2.73063 8.28708 2.73063ZM6.41983 3.83814C6.41983 3.83814 5.35106 3.09129 4.58555 4.18442C3.82977 5.41596 6.06251 10.7479 7.44166 11.1801C7.44166 11.1801 6.00868 7.93857 6.41983 3.83814ZM3.59458 5.50301C3.59458 5.50301 2.55069 5.50301 2.66247 6.95743C2.80304 8.78638 5.13881 10.7271 6.00868 11.0493C6.00663 11.0493 4.05135 8.31466 3.59458 5.50301ZM5.96882 13.005C6.26016 13.5167 9.61245 13.6711 10.9183 13.094C10.9183 13.094 11.3283 12.6776 10.7011 11.8474C10.6787 11.8177 10.4516 11.8396 10.3413 11.8334C10.231 11.8272 10.1226 11.8003 9.99423 11.774C9.99423 11.774 9.59059 12.0633 8.95323 11.8474C8.95323 11.8474 8.50283 12.0991 7.97744 11.8474C7.97744 11.8474 7.32729 12.0693 6.93645 11.774C6.93645 11.774 6.66195 11.8488 6.25919 11.774C6.25919 11.774 5.68592 12.5083 5.96882 13.005ZM13.2433 5.50601C12.7428 8.62454 10.8606 11.0519 10.8606 11.0519C11.9987 10.8108 13.9363 8.41185 14.1867 6.95743C14.4371 5.50301 13.2433 5.50601 13.2433 5.50601Z" fill="#24282C"/>
</svg>
