<svg width="20" height="21" viewBox="0 0 20 21" fill="none" xmlns="http://www.w3.org/2000/svg">
	<path d="M2.49996 3.39551H17.5C17.721 3.39551 17.9329 3.48331 18.0892 3.63959C18.2455 3.79587 18.3333 4.00783 18.3333 4.22884V17.5622C18.3333 17.7832 18.2455 17.9951 18.0892 18.1514C17.9329 18.3077 17.721 18.3955 17.5 18.3955H2.49996C2.27895 18.3955 2.06698 18.3077 1.9107 18.1514C1.75442 17.9951 1.66663 17.7832 1.66663 17.5622V4.22884C1.66663 4.00783 1.75442 3.79587 1.9107 3.63959C2.06698 3.48331 2.27895 3.39551 2.49996 3.39551ZM9.99996 13.3955V15.0622H15V13.3955H9.99996ZM7.01163 10.8955L4.65496 13.2522L5.83329 14.4313L9.36913 10.8955L5.83329 7.35967L4.65496 8.53884L7.01163 10.8955Z" fill="url(#paint0_linear_3622_26759)"/>
	<defs>
	<linearGradient id="paint0_linear_3622_26759" x1="1.66663" y1="20.3214" x2="18.3333" y2="3.3955" gradientUnits="userSpaceOnUse">
	<stop stop-color="#13243C"/>
	<stop offset="1" stop-color="#213654"/>
	</linearGradient>
	</defs>
	</svg>
	