<svg width="16" height="16" viewBox="0 0 16 16" fill="none" xmlns="http://www.w3.org/2000/svg">
	<path d="M1.33752 8.53113C1.33752 8.16294 1.636 7.86446 2.00419 7.86446H14.0011C14.3692 7.86446 14.6677 8.16294 14.6677 8.53113C14.6677 8.89932 14.3692 9.1978 14.0011 9.1978H2.00419C1.636 9.1978 1.33752 8.89932 1.33752 8.53113Z" fill="#667085"/>
	<path d="M10.0592 5.50039C10.2834 5.20832 10.7019 5.1533 10.994 5.3775L14.4093 7.99914C14.7014 8.22333 14.7564 8.64184 14.5322 8.9339C14.308 9.22597 13.8895 9.28099 13.5974 9.05679L10.1821 6.43515C9.89006 6.21096 9.83504 5.79245 10.0592 5.50039Z" fill="#667085"/>
	</svg>
	