<svg xmlns="http://www.w3.org/2000/svg" xmlns:xlink="http://www.w3.org/1999/xlink" class="icon" p-id="2405" t="1685534893766" version="1.1" viewBox="0 0 1024 1024"><path fill="#000" d="M512 384c-229.8 0-416-57.3-416-128v256c0 70.7 186.2 128 416 128s416-57.3 416-128V256c0 70.7-186.2 128-416 128z" p-id="2406"/><path fill="#000" d="M512 704c-229.8 0-416-57.3-416-128v256c0 70.7 186.2 128 416 128s416-57.3 416-128V576c0 70.7-186.2 128-416 128zM512 320c229.8 0 416-57.3 416-128S741.8 64 512 64 96 121.3 96 192s186.2 128 416 128z" p-id="2407"/></svg>