<svg width="48" height="49" viewBox="0 0 48 49" fill="none" xmlns="http://www.w3.org/2000/svg">
<path d="M20.0337 2.5419H32.0337V6.5419H20.0337V2.5419ZM40.0717 15.3199L42.9397 12.4519L40.1117 9.6239L37.2457 12.4899C34.1055 9.97353 30.2119 8.58342 26.1881 8.54208C22.1643 8.50074 18.2429 9.81057 15.0517 12.2619L17.8917 15.1419C20.2645 13.4566 23.1013 12.5483 26.0117 12.5419L26.0317 12.5439V26.5039L35.9377 36.4199C33.9821 38.3847 31.4873 39.7247 28.7694 40.2703C26.0514 40.8159 23.2327 40.5424 20.6704 39.4845C18.108 38.4266 15.9174 36.632 14.3759 34.3279C12.8345 32.0238 12.0117 29.314 12.0117 26.5419H18.0117L10.0117 18.5419L2.01172 26.5419H8.01172C8.00899 29.4182 8.69561 32.2533 10.014 34.8097C11.3325 37.366 13.2443 39.5692 15.5894 41.2347C17.9345 42.9001 20.6446 43.9793 23.4926 44.3818C26.3407 44.7843 29.2437 44.4985 31.9585 43.5482C34.6733 42.598 37.1209 41.0109 39.0961 38.9201C41.0714 36.8293 42.5168 34.2955 43.3113 31.5311C44.1059 28.7667 44.2264 25.8521 43.6627 23.0316C43.099 20.211 41.8677 17.5666 40.0717 15.3199Z" fill="url(#paint0_angular_4715_17895)"/>
<defs>
<radialGradient id="paint0_angular_4715_17895" cx="0" cy="0" r="1" gradientUnits="userSpaceOnUse" gradientTransform="translate(3.81194 44.559) rotate(-46.2662) scale(58.1503 64.6706)">
<stop stop-color="#2458A5"/>
<stop offset="1" stop-color="#3D6DB4"/>
</radialGradient>
</defs>
</svg>
