<svg width="14" height="14" viewBox="0 0 14 14" fill="none" xmlns="http://www.w3.org/2000/svg">
<path fill-rule="evenodd" clip-rule="evenodd" d="M12.7817 5.27939C12.7817 5.27939 12.5563 4.19299 11.3725 4.00055C11.3725 4.00055 10.8033 1.57375 8.65861 2.50441C8.65861 2.50441 7.09246 0.281563 5.42773 2.50441C5.42773 2.50441 3.44218 1.45657 2.61833 4.00429C2.61833 4.00429 1.17837 4.04106 1.16666 6.00901C1.15496 7.97698 3.9909 10.1056 4.39552 10.2913C4.39552 10.2913 3.50522 11.2573 4.59583 11.928C6.10568 12.7192 8.95848 12.4312 9.65348 11.8108C10.0844 11.4262 10.0507 10.8354 9.65348 10.3499C9.65181 10.3516 13.3067 8.20121 12.7817 5.27939ZM10.3742 3.66134C9.82448 2.76795 8.74839 3.35834 8.74839 3.35834C9.15012 6.60704 7.87515 9.78259 7.87515 9.78259C9.08369 9.40436 11.0373 4.73893 10.3742 3.66134ZM6.89832 2.38927C6.89832 2.38927 6.02133 2.44458 5.87338 3.64706C5.72543 4.84955 6.07658 9.51854 7.01419 9.85574C7.01419 9.85574 7.6755 10.0288 8.13004 5.93963C8.73076 1.96735 6.89832 2.38927 6.89832 2.38927ZM5.26448 3.35834C5.26448 3.35834 4.32931 2.70485 3.65948 3.66134C2.99817 4.73893 4.95182 9.40436 6.15858 9.78259C6.15858 9.78259 4.90472 6.94622 5.26448 3.35834ZM2.79238 4.8151C2.79238 4.8151 1.87898 4.8151 1.97679 6.08772C2.09979 7.68806 4.14358 9.38622 4.90472 9.6681C4.90292 9.6681 3.19206 7.2753 2.79238 4.8151ZM4.86984 11.3794C5.12477 11.8271 8.05802 11.9622 9.20061 11.4573C9.20061 11.4573 9.55941 11.0929 9.01061 10.3664C8.99101 10.3405 8.79227 10.3597 8.69575 10.3542C8.59923 10.3487 8.5044 10.3252 8.39208 10.3022C8.39208 10.3022 8.03889 10.5554 7.4812 10.3664C7.4812 10.3664 7.0871 10.5867 6.62738 10.3664C6.62738 10.3664 6.0585 10.5606 5.71652 10.3022C5.71652 10.3022 5.47633 10.3677 5.12392 10.3022C5.12392 10.3022 4.62231 10.9447 4.86984 11.3794ZM11.235 4.81773C10.7971 7.54644 9.15012 9.6704 9.15012 9.6704C10.146 9.45942 11.8414 7.36034 12.0605 6.08772C12.2796 4.8151 11.235 4.81773 11.235 4.81773Z" fill="#5A646E"/>
</svg>
