<svg width="44" height="44" viewBox="0 0 44 44" fill="none" xmlns="http://www.w3.org/2000/svg">
<g filter="url(#filter0_dd_27_16895)">
<circle cx="22" cy="20" r="18" fill="#F4F6F8"/>
<circle cx="22" cy="20" r="17.625" stroke="#FDFDFE" stroke-width="0.75"/>
</g>
<path d="M32.0287 15.3865C31.9655 15.1849 31.8878 14.9881 31.7964 14.7976V14.7854C31.3698 13.9143 30.6625 13.2134 29.7891 12.7964C28.9157 12.3794 27.9276 12.2708 26.985 12.4881C26.0424 12.7054 25.2006 13.236 24.5962 13.9937C23.9917 14.7513 23.6601 15.6918 23.655 16.6624C23.6551 16.9676 23.6879 17.272 23.7528 17.5702C23.7531 17.5743 23.7531 17.5784 23.7528 17.5824C23.7773 17.7051 23.8139 17.8278 23.8506 17.9505C24.0688 18.8147 24.1113 19.7142 23.9754 20.5952C23.8396 21.4762 23.5284 22.3208 23.0602 23.0784C22.592 23.8361 21.9765 24.4913 21.2504 25.005C20.5244 25.5187 19.7027 25.8803 18.8343 26.0683C17.9659 26.2563 17.0687 26.2668 16.1962 26.0991C15.3237 25.9315 14.4938 25.5891 13.756 25.0925C13.0183 24.5959 12.3877 23.9553 11.9021 23.2088C11.4165 22.4622 11.0857 21.6252 10.9295 20.7476C11.1504 22.2689 11.6871 23.7267 12.505 25.0266C13.3229 26.3265 14.4037 27.4395 15.6774 28.2937C16.9512 29.1478 18.3894 29.724 19.8991 29.9849C21.4088 30.2458 22.9562 30.1856 24.4413 29.8083C25.9263 29.431 27.3158 28.7449 28.5199 27.7944C29.724 26.844 30.7157 25.6504 31.431 24.2909C32.1462 22.9313 32.569 21.4363 32.672 19.9024C32.775 18.3685 32.5558 16.83 32.0287 15.3865V15.3865Z" fill="#6378FF"/>
<path d="M14.6579 19.0791C16.076 21.1524 19.0098 20.9684 19.0098 20.9684C18.2764 20.2568 17.7996 19.6066 17.7507 17.7542C17.7018 15.9017 16.6505 15.411 16.6505 15.411C18.5331 14.221 17.8607 12.9329 17.7996 11.4975C17.7629 10.602 18.2886 9.93951 18.7042 9.5592C16.312 9.91882 14.1504 11.1912 12.6701 13.1111C11.1897 15.0309 10.5049 17.4501 10.7584 19.8643C10.9295 19.3858 13.3499 17.1653 14.6579 19.0791Z" fill="#0AA3F9"/>
<path d="M32.0287 15.3865C31.9655 15.1849 31.8878 14.9881 31.7964 14.7976V14.7854C31.3698 13.9143 30.6625 13.2134 29.7891 12.7964C28.9157 12.3794 27.9276 12.2708 26.985 12.4881C26.0424 12.7054 25.2006 13.236 24.5962 13.9937C23.9917 14.7513 23.6601 15.6918 23.655 16.6624C23.6551 16.9676 23.6879 17.272 23.7528 17.5702C23.7531 17.5743 23.7531 17.5784 23.7528 17.5824C23.7773 17.7051 23.8139 17.8278 23.8506 17.9505C24.0688 18.8147 24.1113 19.7142 23.9754 20.5952C23.8396 21.4762 23.5284 22.3208 23.0602 23.0784C22.592 23.8361 21.9765 24.4913 21.2504 25.005C20.5244 25.5187 19.7027 25.8803 18.8343 26.0683C17.9659 26.2563 17.0687 26.2668 16.1962 26.0991C15.3237 25.9315 14.4938 25.5891 13.756 25.0925C13.0183 24.5959 12.3877 23.9553 11.9021 23.2088C11.4165 22.4622 11.0857 21.6252 10.9295 20.7476C11.1504 22.2689 11.6871 23.7267 12.505 25.0266C13.3229 26.3265 14.4037 27.4395 15.6774 28.2937C16.9512 29.1478 18.3894 29.724 19.8991 29.9849C21.4088 30.2458 22.9562 30.1856 24.4413 29.8083C25.9263 29.431 27.3158 28.7449 28.5199 27.7944C29.724 26.844 30.7157 25.6504 31.431 24.2909C32.1462 22.9313 32.569 21.4363 32.672 19.9024C32.775 18.3685 32.5558 16.83 32.0287 15.3865V15.3865Z" fill="#0AA3F9"/>
<path fill-rule="evenodd" clip-rule="evenodd" d="M30.2073 18.3428C30.2073 23.6886 25.8891 28.0222 20.5623 28.0222C17.7358 28.0222 15.1932 26.802 13.4291 24.8578C13.5355 24.9393 13.6446 25.0176 13.756 25.0926C14.4938 25.5892 15.3237 25.9316 16.1962 26.0992C17.0687 26.2669 17.9659 26.2564 18.8343 26.0684C19.7027 25.8804 20.5244 25.5188 21.2504 25.0051C21.9765 24.4914 22.592 23.8362 23.0602 23.0785C23.5284 22.3209 23.8396 21.4763 23.9755 20.5953C24.1113 19.7143 24.0688 18.8148 23.8506 17.9506C23.8139 17.8279 23.7773 17.7052 23.7528 17.5826C23.7531 17.5785 23.7531 17.5744 23.7528 17.5703C23.6879 17.2721 23.6551 16.9677 23.655 16.6625C23.6601 15.6919 23.9917 14.7515 24.5962 13.9938C25.2006 13.2361 26.0424 12.7055 26.985 12.4882C27.374 12.3985 27.7707 12.3644 28.164 12.3845C29.4443 14.0272 30.2073 16.0956 30.2073 18.3428Z" fill="#7ABBFD"/>
<defs>
<filter id="filter0_dd_27_16895" x="0" y="0" width="44" height="44" filterUnits="userSpaceOnUse" color-interpolation-filters="sRGB">
<feFlood flood-opacity="0" result="BackgroundImageFix"/>
<feColorMatrix in="SourceAlpha" type="matrix" values="0 0 0 0 0 0 0 0 0 0 0 0 0 0 0 0 0 0 127 0" result="hardAlpha"/>
<feOffset/>
<feGaussianBlur stdDeviation="0.5"/>
<feComposite in2="hardAlpha" operator="out"/>
<feColorMatrix type="matrix" values="0 0 0 0 0.473958 0 0 0 0 0.552499 0 0 0 0 0.625 0 0 0 0.25 0"/>
<feBlend mode="normal" in2="BackgroundImageFix" result="effect1_dropShadow_27_16895"/>
<feColorMatrix in="SourceAlpha" type="matrix" values="0 0 0 0 0 0 0 0 0 0 0 0 0 0 0 0 0 0 127 0" result="hardAlpha"/>
<feOffset dy="2"/>
<feGaussianBlur stdDeviation="2"/>
<feComposite in2="hardAlpha" operator="out"/>
<feColorMatrix type="matrix" values="0 0 0 0 0.632917 0 0 0 0 0.655278 0 0 0 0 0.7 0 0 0 0.25 0"/>
<feBlend mode="normal" in2="effect1_dropShadow_27_16895" result="effect2_dropShadow_27_16895"/>
<feBlend mode="normal" in="SourceGraphic" in2="effect2_dropShadow_27_16895" result="shape"/>
</filter>
</defs>
</svg>
