<svg xmlns="http://www.w3.org/2000/svg" width="24" height="24" viewBox="0 0 24 24" fill="none">
  <path fill-rule="evenodd" clip-rule="evenodd" d="M6.9 2.56986C6.9 2.01757 7.34772 1.56985 7.9 1.56985C8.45229 1.56985 8.9 2.01757 8.9 2.56985V4.09052H14.86V2.56986C14.86 2.01757 15.3077 1.56985 15.86 1.56985C16.4123 1.56985 16.86 2.01757 16.86 2.56985V4.09239C18.3929 4.10195 19.2627 4.16045 19.9517 4.51835C20.6457 4.87888 21.2116 5.44478 21.5722 6.13882C22 6.96243 22 8.04446 22 10.2085V15.8821C22 18.0462 22 19.1282 21.5722 19.9518C21.2116 20.6458 20.6457 21.2117 19.9517 21.5723C19.1281 22.0001 18.0461 22.0001 15.882 22.0001H8.118C5.95394 22.0001 4.8719 22.0001 4.0483 21.5723C3.35425 21.2117 2.78836 20.6458 2.42783 19.9518C2 19.1282 2 18.0462 2 15.8821V10.2085C2 8.04446 2 6.96243 2.42783 6.13882C2.78836 5.44478 3.35425 4.87888 4.0483 4.51835C4.70049 4.17956 5.51474 4.10905 6.9 4.09438V2.56986ZM14.86 6.09052V6.99154C14.86 7.54382 15.3077 7.99154 15.86 7.99154C16.4123 7.99154 16.86 7.54382 16.86 6.99154V6.09253C17.4485 6.09627 17.8901 6.10692 18.254 6.13714C18.7721 6.18016 18.951 6.25227 19.0298 6.29318C19.3585 6.46395 19.6266 6.73201 19.7973 7.06077C19.8382 7.13951 19.9104 7.31847 19.9534 7.83652C19.9984 8.37852 20 9.09292 20 10.2085V15.8821C20 16.9977 19.9984 17.7121 19.9534 18.2541C19.9104 18.7721 19.8382 18.9511 19.7973 19.0298C19.6266 19.3586 19.3585 19.6267 19.0298 19.7974C18.951 19.8383 18.7721 19.9105 18.254 19.9535C17.712 19.9985 16.9976 20.0001 15.882 20.0001H8.118C7.0024 20.0001 6.28799 19.9985 5.746 19.9535C5.22794 19.9105 5.04899 19.8383 4.97025 19.7974C4.64149 19.6267 4.37343 19.3586 4.20266 19.0298C4.16175 18.9511 4.08964 18.7721 4.04662 18.2541C4.00161 17.7121 4 16.9977 4 15.8821V10.2085C4 9.09292 4.00161 8.37852 4.04662 7.83652C4.08964 7.31847 4.16175 7.13951 4.20266 7.06077C4.37343 6.73201 4.64149 6.46395 4.97025 6.29318C5.04899 6.25227 5.22794 6.18016 5.746 6.13714C6.05865 6.11118 6.42868 6.09965 6.9 6.09455V6.99154C6.9 7.54382 7.34772 7.99154 7.9 7.99154C8.45229 7.99154 8.9 7.54382 8.9 6.99154V6.09052H14.86ZM17.5011 11C18.0534 11 18.5011 11.4477 18.5011 12C18.5011 12.5523 18.0534 13 17.5011 13H13.6817C13.1294 13 12.6817 12.5523 12.6817 12C12.6817 11.4477 13.1294 11 13.6817 11H17.5011ZM18.5011 16.1223C18.5011 15.57 18.0534 15.1223 17.5011 15.1223H7.9566C7.40432 15.1223 6.9566 15.57 6.9566 16.1223C6.9566 16.6746 7.40432 17.1223 7.9566 17.1223H17.5011C18.0534 17.1223 18.5011 16.6746 18.5011 16.1223Z" fill="#667085"/>
</svg>