<svg width="15" height="14" viewBox="0 0 15 14" fill="none" xmlns="http://www.w3.org/2000/svg">
<g opacity="0.8" clip-path="url(#clip0_553_8613)">
<path d="M14.4537 4.92708C14.4537 3.66708 13.4271 2.64042 12.1671 2.64042H8.52708L8.85375 3.94708L11.9804 4.64708C12.2604 4.69375 12.4937 4.97375 12.4937 5.25375V8.61375C12.4937 8.89375 12.2604 9.17375 11.9804 9.22042L8.85375 9.92042L8.48042 11.1804H12.1204C13.3804 11.1804 14.4071 10.1537 14.4071 8.89375C14.4537 8.89375 14.4537 4.92708 14.4537 4.92708ZM3.06708 9.17375C2.78708 9.12708 2.55375 8.84708 2.55375 8.56708V5.20708C2.55375 4.92708 2.78708 4.64708 3.06708 4.60042L6.19375 3.90042L6.52042 2.59375H2.88042C1.62042 2.59375 0.59375 3.62042 0.59375 4.88042V8.84708C0.59375 10.1071 1.62042 11.1337 2.88042 11.1337H6.52042L6.19375 9.82708C6.19375 9.87375 3.06708 9.17375 3.06708 9.17375ZM6.00708 6.28042H8.99375V7.49375H6.00708V6.28042Z" fill="#FF6B01"/>
</g>
<defs>
<clipPath id="clip0_553_8613">
<rect width="14" height="14" fill="white" transform="translate(0.5)"/>
</clipPath>
</defs>
</svg>
