<svg width="15" height="14" viewBox="0 0 15 14" fill="none" xmlns="http://www.w3.org/2000/svg">
<g opacity="0.8" clip-path="url(#clip0_553_8580)">
<path d="M9.38897 4.44838H9.81625L11.0339 3.23075L11.094 2.71358C10.3964 2.09785 9.55334 1.67012 8.64446 1.47081C7.73559 1.27149 6.79091 1.30716 5.89966 1.57445C5.0084 1.84173 4.2 2.33182 3.55081 2.9984C2.90162 3.66499 2.43308 4.48606 2.18945 5.38407C2.32487 5.32862 2.47547 5.31986 2.61673 5.35839L5.05198 4.95679C5.05198 4.95679 5.17631 4.75191 5.23994 4.76417C5.76189 4.19106 6.48317 3.83913 7.25611 3.78042C8.02905 3.72172 8.79521 3.96067 9.39773 4.44838H9.38897Z" fill="#EA4335"/>
<path d="M12.7689 5.38359C12.4887 4.35292 11.9138 3.42643 11.1147 2.71777L9.40557 4.42689C9.76165 4.71795 10.047 5.08605 10.2401 5.50344C10.4333 5.92084 10.5291 6.37663 10.5205 6.83645V7.13999C10.9239 7.13999 11.3108 7.30025 11.5961 7.58552C11.8814 7.87079 12.0416 8.25771 12.0416 8.66114C12.0416 9.06458 11.8814 9.45149 11.5961 9.73676C11.3108 10.022 10.9239 10.1823 10.5205 10.1823H7.47931L7.17578 10.4899V12.314L7.47931 12.6176H10.5205C11.3702 12.6246 12.1996 12.3578 12.8859 11.8568C13.5722 11.3557 14.079 10.647 14.3312 9.83559C14.5834 9.02414 14.5677 8.15304 14.2863 7.35123C14.0049 6.54942 13.4729 5.8595 12.7689 5.38359Z" fill="#4285F4"/>
<path d="M4.43348 12.6017H7.47579V10.1665H4.43348C4.21671 10.1663 4.0025 10.1195 3.8054 10.0293L3.37812 10.1618L2.15174 11.3794L2.04492 11.8067C2.73259 12.3261 3.57172 12.6054 4.43348 12.6017Z" fill="#34A853"/>
<path d="M4.43324 4.70022C3.60891 4.70505 2.80668 4.96724 2.13861 5.45017C1.47054 5.93309 0.969994 6.61264 0.706905 7.39387C0.443816 8.1751 0.431319 9.019 0.671161 9.80768C0.911003 10.5964 1.3912 11.2904 2.04468 11.7929L3.80925 10.0284C3.58495 9.92705 3.38858 9.77283 3.237 9.57893C3.08542 9.38504 2.98314 9.15725 2.93896 8.91514C2.89478 8.67302 2.91 8.4238 2.98332 8.18886C3.05665 7.95392 3.18588 7.74028 3.35994 7.56627C3.53399 7.39227 3.74767 7.26309 3.98263 7.18984C4.21759 7.11658 4.46682 7.10143 4.70893 7.14568C4.95103 7.18994 5.17878 7.29228 5.37263 7.44392C5.56649 7.59556 5.72065 7.79197 5.82189 8.0163L7.58646 6.25115C7.21607 5.76697 6.73871 5.37503 6.19169 5.10597C5.64468 4.83692 5.04284 4.69805 4.43324 4.70022Z" fill="#FBBC05"/>
</g>
<defs>
<clipPath id="clip0_553_8580">
<rect width="14" height="14" fill="white" transform="translate(0.5)"/>
</clipPath>
</defs>
</svg>
