<svg width="15" height="14" viewBox="0 0 15 14" fill="none" xmlns="http://www.w3.org/2000/svg">
<g opacity="0.8" clip-path="url(#clip0_553_8597)">
<path d="M12.6386 10.223C12.4159 10.4497 11.9705 10.7897 11.1911 10.7897H6.40296C7.85049 9.37296 9.07536 8.18293 9.18672 8.06959C9.29803 7.95626 9.5764 7.67293 9.85478 7.44627C10.4115 6.93623 10.857 6.87961 11.2467 6.87961C11.8035 6.87961 12.2489 7.10622 12.6386 7.44627C13.418 8.18293 13.418 9.48629 12.6386 10.223ZM13.585 6.53957C13.0283 5.91624 12.1931 5.51953 11.3024 5.51953C10.5229 5.51953 9.85483 5.80286 9.24237 6.25624C9.01965 6.4829 8.68562 6.70956 8.4073 7.04956C8.18452 7.27622 3.39648 12.0364 3.39648 12.0364C3.67486 12.093 4.00894 12.093 4.28727 12.093H10.3559C10.8013 12.093 11.1353 12.093 11.4694 12.0364C12.1931 11.9797 12.9169 11.6964 13.5294 11.1297C14.8099 9.88295 14.8099 7.78627 13.585 6.53957Z" fill="#00A3FF"/>
<path d="M5.67182 6.20548C5.05595 5.74822 4.44008 5.51953 3.71227 5.51953C2.81648 5.51953 1.97677 5.91965 1.41688 6.54846C0.1852 7.86317 0.1852 9.92092 1.47285 11.2356C2.03275 11.7501 2.59259 12.0359 3.26443 12.093L4.55208 10.8355H3.82427C3.09645 10.7783 2.64856 10.5497 2.36864 10.2639C1.58485 9.46366 1.58485 8.20609 2.31267 7.40585C2.70453 7.00573 3.15243 6.83424 3.71227 6.83424C4.04821 6.83424 4.55208 6.89138 5.05595 7.40585C5.27989 7.63448 5.89571 8.0918 6.11966 8.32044H6.17563L7.01544 7.46299V7.40585C6.62352 7.00573 6.00766 6.49126 5.67176 6.20548" fill="#00C8DC"/>
<path d="M11.6003 4.73351C10.9767 3.04803 9.33283 1.86816 7.46228 1.86816C5.25157 1.86816 3.4944 3.49746 3.1543 5.52007C3.32435 5.52007 3.4944 5.46393 3.72111 5.46393C3.94788 5.46393 4.23132 5.52007 4.45803 5.52007C4.74142 4.11551 5.98849 3.10421 7.46228 3.10421C8.70935 3.10421 9.78632 3.83458 10.2965 4.90207C10.2965 4.90207 10.3532 4.95826 10.3532 4.90207C10.75 4.84588 11.2034 4.73351 11.6002 4.73351C11.6002 4.7897 11.6002 4.7897 11.6002 4.73351" fill="#006EFF"/>
</g>
<defs>
<clipPath id="clip0_553_8597">
<rect width="14" height="14" fill="white" transform="translate(0.5)"/>
</clipPath>
</defs>
</svg>
