<?xml version="1.0" standalone="no"?><!DOCTYPE svg PUBLIC "-//W3C//DTD SVG 1.1//EN" "http://www.w3.org/Graphics/SVG/1.1/DTD/svg11.dtd"><svg t="1681452466538" class="icon" viewBox="0 0 1024 1024" version="1.1" xmlns="http://www.w3.org/2000/svg" p-id="6786" xmlns:xlink="http://www.w3.org/1999/xlink" width="48" height="48"><path d="M926.293333 396.373333l-170.666666-170.666666a42.666667 42.666667 0 0 0-60.586667 60.586666L793.173333 384H298.666667a42.666667 42.666667 0 0 0 0 85.333333h597.333333a42.666667 42.666667 0 0 0 39.253333-26.453333 42.666667 42.666667 0 0 0-8.96-46.506667zM725.333333 554.666667H128a42.666667 42.666667 0 0 0-39.253333 26.453333 42.666667 42.666667 0 0 0 8.96 46.506667l170.666666 170.666666a42.666667 42.666667 0 0 0 60.586667 0 42.666667 42.666667 0 0 0 0-60.586666L230.826667 640H725.333333a42.666667 42.666667 0 0 0 0-85.333333z" p-id="6787"></path></svg>