<svg xmlns="http://www.w3.org/2000/svg" width="16" height="16" viewBox="0 0 16 16" fill="currentColor">
  <path fill-rule="evenodd" clip-rule="evenodd" d="M3.64633 6.2931C3.64633 5.92491 3.94481 5.62644 4.313 5.62644L14.0463 5.62644C14.4145 5.62644 14.713 5.92491 14.713 6.2931C14.713 6.66129 14.4145 6.95977 14.0463 6.95977L4.313 6.95977C3.94481 6.95977 3.64633 6.66129 3.64633 6.2931Z" fill="currentColor"/>
  <path fill-rule="evenodd" clip-rule="evenodd" d="M10.9351 3.18183C11.1954 2.92148 11.6175 2.92148 11.8779 3.18183L14.5177 5.8217C14.7781 6.08205 14.7781 6.50416 14.5177 6.76451C14.2574 7.02486 13.8353 7.02486 13.5749 6.76451L10.9351 4.12464C10.6747 3.86429 10.6747 3.44218 10.9351 3.18183Z" fill="currentColor"/>
  <path d="M1.79143 9.09056C1.71269 9.1231 1.63893 9.17136 1.57493 9.23535C1.51094 9.29935 1.46267 9.37312 1.43014 9.45185C1.39762 9.53038 1.37967 9.61647 1.37967 9.70676C1.37967 9.79715 1.39766 9.88334 1.43026 9.96195C1.4618 10.0382 1.50811 10.1098 1.56917 10.1723C1.57131 10.1745 1.57346 10.1767 1.57563 10.1789L4.2148 12.818C4.47515 13.0784 4.89726 13.0784 5.15761 12.818C5.41796 12.5577 5.41796 12.1356 5.15761 11.8752L3.65581 10.3734L11.7797 10.3734C12.1479 10.3734 12.4463 10.0749 12.4463 9.70676C12.4463 9.33857 12.1479 9.04009 11.7797 9.04009H2.04634C2.04428 9.04009 2.04223 9.0401 2.04018 9.04012C1.95214 9.04092 1.86817 9.05878 1.79143 9.09056Z" fill="currentColor"/>
</svg>