<svg xmlns="http://www.w3.org/2000/svg" viewBox="0 0 20 21" fill="none">
  <path fill-rule="evenodd" clip-rule="evenodd" d="M4.55791 8.35863C4.55791 7.89839 4.931 7.52529 5.39124 7.52529L17.5579 7.52529C18.0181 7.52529 18.3912 7.89839 18.3912 8.35863C18.3912 8.81886 18.0181 9.19196 17.5579 9.19196L5.39124 9.19196C4.931 9.19196 4.55791 8.81887 4.55791 8.35863Z" fill="currentColor"/>
  <path fill-rule="evenodd" clip-rule="evenodd" d="M13.6688 4.46954C13.9942 4.1441 14.5219 4.1441 14.8473 4.46954L18.1472 7.76937C18.4726 8.09481 18.4726 8.62245 18.1472 8.94788C17.8217 9.27332 17.2941 9.27332 16.9686 8.94788L13.6688 5.64805C13.3434 5.32262 13.3434 4.79498 13.6688 4.46954Z" fill="currentColor"/>
  <path d="M2.23928 11.8554C2.14086 11.8961 2.04865 11.9564 1.96866 12.0364C1.88866 12.1164 1.82833 12.2086 1.78767 12.3071C1.74701 12.4052 1.72458 12.5128 1.72458 12.6257C1.72458 12.7387 1.74707 12.8464 1.78781 12.9447C1.82725 13.04 1.88513 13.1295 1.96146 13.2077C1.96413 13.2104 1.96682 13.2131 1.96953 13.2158L5.26849 16.5148C5.59392 16.8402 6.12156 16.8402 6.447 16.5148C6.77244 16.1893 6.77244 15.6617 6.447 15.3363L4.56976 13.459L14.7246 13.459C15.1848 13.459 15.5579 13.0859 15.5579 12.6257C15.5579 12.1655 15.1848 11.7924 14.7246 11.7924H2.55791C2.55535 11.7924 2.55278 11.7924 2.55022 11.7924C2.44016 11.7934 2.33521 11.8157 2.23928 11.8554Z" fill="currentColor"/>
</svg>