<svg xmlns="http://www.w3.org/2000/svg" viewBox="0 0 24 24" fill="none">
  <g clip-path="url(#clip0_623_2152)">
    <path fill-rule="evenodd" clip-rule="evenodd" d="M16.1453 3.2781L19.0532 6.00879C19.7719 6.68371 20.1313 7.02116 20.3871 7.42234C20.6045 7.76328 20.7661 8.13673 20.8658 8.52861C20.9831 8.98973 20.9831 9.48269 20.9831 10.4686V14.6201C20.2553 14.2695 19.4393 14.073 18.5773 14.073C15.5121 14.073 13.0273 16.5578 13.0273 19.6229C13.0273 20.6264 13.2937 21.5678 13.7596 22.3801H9.1349C6.97084 22.3801 5.88881 22.3801 5.0652 21.9522C4.37116 21.5917 3.80526 21.0258 3.44474 20.3318C3.01691 19.5082 3.01691 18.4261 3.01691 16.2621V7.73793C3.01691 5.57387 3.01691 4.49184 3.44474 3.66823C3.80526 2.97419 4.37116 2.40829 5.0652 2.04776C5.88881 1.61993 6.97084 1.61993 9.13491 1.61993H11.9573C12.8617 1.61993 13.3139 1.61993 13.7412 1.71997C14.1045 1.80503 14.4533 1.94313 14.7764 2.12983C15.1564 2.34943 15.486 2.65899 16.1453 3.2781ZM14.3329 4.65261C13.7396 4.08381 13.443 3.7994 13.1884 3.7891C12.9862 3.78091 12.7911 3.86416 12.6571 4.01578C12.4883 4.20668 12.4883 4.61761 12.4883 5.43949V6.37785C12.4883 7.58007 12.4883 8.18118 12.7223 8.64036C12.9281 9.04427 13.2565 9.37266 13.6604 9.57847C14.1196 9.81243 14.7207 9.81243 15.9229 9.81243H17.0023C17.8675 9.81243 18.3001 9.81243 18.4925 9.63783C18.6451 9.4993 18.7259 9.29844 18.7116 9.09279C18.6935 8.8336 18.3813 8.53421 17.7568 7.93543L14.3329 4.65261Z" fill="#667085"/>
    <path fill-rule="evenodd" clip-rule="evenodd" d="M17.6293 16.208C17.9176 15.0877 19.5088 15.0877 19.7971 16.208C19.9533 16.8151 20.5776 17.1755 21.1814 17.0073C22.2958 16.6968 23.0914 18.0748 22.2653 18.8847C21.8177 19.3235 21.8177 20.0443 22.2653 20.4831C23.0914 21.293 22.2958 22.671 21.1814 22.3605C20.5776 22.1923 19.9533 22.5527 19.7971 23.1597C19.5088 24.2801 17.9176 24.2801 17.6293 23.1597C17.4731 22.5527 16.8488 22.1923 16.245 22.3605C15.1305 22.671 14.3349 21.293 15.1611 20.4831C15.6087 20.0443 15.6087 19.3235 15.1611 18.8847C14.3349 18.0748 15.1305 16.6968 16.245 17.0073C16.8488 17.1755 17.4731 16.8151 17.6293 16.208ZM20.1095 19.6839C20.1095 20.455 19.4843 21.0802 18.7132 21.0802C17.942 21.0802 17.3169 20.455 17.3169 19.6839C17.3169 18.9127 17.942 18.2876 18.7132 18.2876C19.4843 18.2876 20.1095 18.9127 20.1095 19.6839Z" fill="#667085"/>
  </g>
  <defs>
    <clipPath id="clip0_623_2152">
      <rect width="24" height="24" fill="white"/>
    </clipPath>
  </defs>
</svg>