<svg xmlns="http://www.w3.org/2000/svg" width="27" height="31" fill="none" viewBox="0 0 27 31"><path fill="#999FAA" d="M2.81462 0.76062C1.33462 0.76062 0.147949 1.94729 0.147949 3.42729V24.7606C0.147949 25.4679 0.428901 26.1461 0.928998 26.6462C1.42909 27.1463 2.10737 27.4273 2.81462 27.4273H11.7213C11.1262 26.1777 10.8165 24.8114 10.8146 23.4273C10.8146 20.9519 11.7979 18.578 13.5483 16.8276C15.2986 15.0773 17.6726 14.094 20.1479 14.094C20.5944 14.0976 21.04 14.1332 21.4813 14.2006V8.76062L13.4813 0.76062H2.81462ZM12.1479 2.76062L19.4813 10.094H12.1479V2.76062ZM18.8146 16.7606C18.7331 16.7591 18.6537 16.7863 18.5903 16.8375C18.5269 16.8887 18.4836 16.9606 18.4679 17.0406L18.2146 18.8006C17.8146 18.974 17.4279 19.1873 17.0813 19.4273L15.4279 18.7606C15.2813 18.7606 15.1079 18.7606 15.0146 18.934L13.6813 21.2406C13.6013 21.3873 13.6279 21.5606 13.7613 21.6673L15.1746 22.7606C15.1214 23.2035 15.1214 23.6511 15.1746 24.094L13.7613 25.1873C13.7014 25.2387 13.6608 25.309 13.6462 25.3865C13.6317 25.4641 13.6441 25.5444 13.6813 25.614L15.0146 27.9206C15.0946 28.094 15.268 28.094 15.4279 28.094L17.0813 27.4273C17.4279 27.6673 17.8013 27.894 18.2146 28.054L18.4679 29.814C18.4946 29.974 18.628 30.094 18.8146 30.094H21.4813C21.628 30.094 21.7746 29.974 21.8013 29.814L22.0546 28.054C22.4546 27.8806 22.8146 27.6673 23.1746 27.4273L24.8146 28.094C24.9879 28.094 25.1613 28.094 25.2546 27.9206L26.5879 25.614C26.6252 25.5444 26.6375 25.4641 26.623 25.3865C26.6085 25.309 26.5679 25.2387 26.5079 25.1873L25.0813 24.094C25.108 23.8673 25.1346 23.654 25.1346 23.4273C25.1346 23.2006 25.1213 22.9873 25.0813 22.7606L26.4946 21.6673C26.5545 21.6159 26.5951 21.5456 26.6097 21.468C26.6242 21.3904 26.6118 21.3102 26.5746 21.2406L25.2413 18.934C25.1613 18.7606 24.9879 18.7606 24.8146 18.7606L23.1746 19.4273C22.8146 19.1873 22.4546 18.9606 22.0413 18.8006L21.7879 17.0406C21.7795 16.9647 21.7438 16.8944 21.6874 16.8429C21.6309 16.7913 21.5577 16.7621 21.4813 16.7606H18.8146ZM20.1479 21.4273C21.2546 21.4273 22.1479 22.3206 22.1479 23.4273C22.1479 24.534 21.2546 25.4273 20.1479 25.4273C19.028 25.4273 18.1479 24.534 18.1479 23.4273C18.1479 22.3206 19.0413 21.4273 20.1479 21.4273Z"/></svg>