<svg xmlns="http://www.w3.org/2000/svg"    viewBox="0 0 16 16" fill="currentColor">
  <path fill-rule="evenodd" clip-rule="evenodd" d="M3.27413 2.63007C3.13074 2.63007 2.99322 2.68703 2.89183 2.78842C2.79044 2.88982 2.73348 3.02733 2.73348 3.17072V8.60365C2.73348 8.74704 2.79044 8.88456 2.89183 8.98595C2.99322 9.08734 3.13074 9.14431 3.27413 9.14431H3.87779C4.24598 9.14431 4.54446 9.44278 4.54446 9.81097C4.54446 10.1792 4.24598 10.4776 3.87779 10.4776H3.27413C2.77712 10.4776 2.30046 10.2802 1.94902 9.92876C1.59758 9.57732 1.40015 9.10067 1.40015 8.60365V3.17072C1.40015 2.67371 1.59758 2.19706 1.94902 1.84562C2.30046 1.49417 2.77712 1.29674 3.27413 1.29674H8.70706C9.20407 1.29674 9.68073 1.49417 10.0322 1.84562C10.3836 2.19706 10.581 2.67371 10.581 3.17072V3.77438C10.581 4.14257 10.2826 4.44105 9.91438 4.44105C9.54619 4.44105 9.24771 4.14257 9.24771 3.77438V3.17072C9.24771 3.02733 9.19075 2.88982 9.08936 2.78842C8.98797 2.68703 8.85045 2.63007 8.70706 2.63007H3.27413ZM7.49974 6.85569C7.20115 6.85569 6.95909 7.09774 6.95909 7.39634V12.8293C6.95909 13.1279 7.20115 13.3699 7.49974 13.3699H12.9327C13.2313 13.3699 13.4733 13.1279 13.4733 12.8293V7.39634C13.4733 7.09774 13.2313 6.85569 12.9327 6.85569H7.49974ZM5.62576 7.39634C5.62576 6.36136 6.46477 5.52235 7.49974 5.52235H12.9327C13.9676 5.52235 14.8067 6.36136 14.8067 7.39634V12.8293C14.8067 13.8642 13.9676 14.7033 12.9327 14.7033H7.49974C6.46477 14.7033 5.62576 13.8642 5.62576 12.8293V7.39634Z" fill="currentColor"/>
</svg>