<svg xmlns="http://www.w3.org/2000/svg" width="16" height="16" viewBox="0 0 16 16" fill="none">
  <path fill-rule="evenodd" clip-rule="evenodd" d="M7.48249 1.18018H8.51752C8.84053 1.18016 9.1222 1.18015 9.3548 1.19916C9.60124 1.21929 9.8507 1.26404 10.092 1.38697C10.449 1.56887 10.7392 1.85911 10.9211 2.21611C11.044 2.45738 11.0888 2.70684 11.1089 2.95328C11.1249 3.14934 11.1274 3.38026 11.1278 3.64141H13.5378C13.906 3.64141 14.2044 3.93989 14.2044 4.30808C14.2044 4.67627 13.906 4.97474 13.5378 4.97474H12.9738V11.2267C12.9738 11.7205 12.9738 12.1311 12.9465 12.4662C12.9179 12.8153 12.8564 13.1407 12.7 13.4478C12.4591 13.9205 12.0747 14.3049 11.6019 14.5458C11.2949 14.7023 10.9694 14.7638 10.6204 14.7923C10.2853 14.8197 9.87466 14.8197 9.38091 14.8197H6.6191C6.12535 14.8197 5.71475 14.8197 5.37964 14.7923C5.0306 14.7638 4.70516 14.7023 4.39808 14.5458C3.9253 14.3049 3.54093 13.9205 3.30003 13.4478C3.14357 13.1407 3.08206 12.8153 3.05354 12.4662C3.02616 12.1311 3.02617 11.7205 3.02618 11.2267L3.02618 4.97474H2.46223C2.09404 4.97474 1.79556 4.67627 1.79556 4.30808C1.79556 3.93989 2.09404 3.64141 2.46223 3.64141H4.87217C4.87256 3.38026 4.87506 3.14934 4.89108 2.95328C4.91122 2.70684 4.95596 2.45738 5.0789 2.21611C5.26079 1.85911 5.55104 1.56887 5.90804 1.38697C6.1493 1.26404 6.39877 1.21929 6.6452 1.19916C6.87781 1.18015 7.15948 1.18016 7.48249 1.18018ZM4.35951 4.97474V11.1995C4.35951 11.7274 4.36003 12.0833 4.38245 12.3576C4.40423 12.6242 4.44331 12.7547 4.48804 12.8425C4.6011 13.0643 4.78151 13.2447 5.0034 13.3578C5.09119 13.4025 5.22163 13.4416 5.48821 13.4634C5.76258 13.4858 6.11842 13.4863 6.64633 13.4863H9.35368C9.88159 13.4863 10.2374 13.4858 10.5118 13.4634C10.7784 13.4416 10.9088 13.4025 10.9966 13.3578C11.2185 13.2447 11.3989 13.0643 11.512 12.8425C11.5567 12.7547 11.5958 12.6242 11.6176 12.3576C11.64 12.0833 11.6405 11.7274 11.6405 11.1995V4.97474H4.35951ZM9.79445 3.64141H6.20555C6.20603 3.38297 6.2084 3.20371 6.21999 3.06185C6.23339 2.89787 6.25571 2.84341 6.2669 2.82143C6.32097 2.71532 6.40724 2.62904 6.51336 2.57498C6.53534 2.56378 6.5898 2.54146 6.75378 2.52806C6.92554 2.51403 7.15215 2.51351 7.50776 2.51351H8.49225C8.84785 2.51351 9.07446 2.51403 9.24623 2.52806C9.41021 2.54146 9.46467 2.56378 9.48665 2.57498C9.59276 2.62905 9.67903 2.71532 9.7331 2.82143C9.7443 2.84341 9.76662 2.89787 9.78002 3.06185C9.79161 3.20371 9.79398 3.38297 9.79445 3.64141ZM6.76939 7.0256C7.13758 7.0256 7.43605 7.32408 7.43605 7.69227V10.7688C7.43605 11.137 7.13758 11.4355 6.76939 11.4355C6.4012 11.4355 6.10272 11.137 6.10272 10.7688V7.69227C6.10272 7.32408 6.4012 7.0256 6.76939 7.0256ZM9.23062 7.0256C9.59881 7.0256 9.89729 7.32408 9.89729 7.69227V10.7688C9.89729 11.137 9.59881 11.4355 9.23062 11.4355C8.86243 11.4355 8.56395 11.137 8.56395 10.7688V7.69227C8.56395 7.32408 8.86243 7.0256 9.23062 7.0256Z" fill="currentColor"/>
</svg>