<svg xmlns="http://www.w3.org/2000/svg" viewBox="0 0 18 18" fill="none">
  <path fill-rule="evenodd" clip-rule="evenodd" d="M1.34872 4.56519C1.34872 4.15097 1.70567 3.81519 2.14598 3.81519H15.854C16.2943 3.81519 16.6513 4.15097 16.6513 4.56519C16.6513 4.9794 16.2943 5.31519 15.854 5.31519H2.14598C1.70567 5.31519 1.34872 4.9794 1.34872 4.56519ZM1.34872 8.95324C1.34872 8.53903 1.70567 8.20324 2.14598 8.20324H15.854C16.2943 8.20324 16.6513 8.53903 16.6513 8.95324C16.6513 9.36745 16.2943 9.70324 15.854 9.70324H2.14598C1.70567 9.70324 1.34872 9.36745 1.34872 8.95324ZM1.34872 13.4347C1.34872 13.0204 1.70567 12.6847 2.14598 12.6847H10.9278C11.3681 12.6847 11.725 13.0204 11.725 13.4347C11.725 13.8489 11.3681 14.1847 10.9278 14.1847H2.14598C1.70567 14.1847 1.34872 13.8489 1.34872 13.4347Z" fill="currentColor"/>
</svg>