<svg  viewBox="0 0 20 20" xmlns="http://www.w3.org/2000/svg">
<path d="M1.66666 6.66659C1.66666 6.44557 1.75445 6.23361 1.91073 6.07733C2.06701 5.92105 2.27898 5.83325 2.49999 5.83325H17.5C17.721 5.83325 17.933 5.92105 18.0892 6.07733C18.2455 6.23361 18.3333 6.44557 18.3333 6.66659C18.3333 6.8876 18.2455 7.09956 18.0892 7.25584C17.933 7.41212 17.721 7.49992 17.5 7.49992H2.49999C2.27898 7.49992 2.06701 7.41212 1.91073 7.25584C1.75445 7.09956 1.66666 6.8876 1.66666 6.66659ZM1.66666 9.99992C1.66666 9.7789 1.75445 9.56694 1.91073 9.41066C2.06701 9.25438 2.27898 9.16659 2.49999 9.16659H17.5C17.721 9.16659 17.933 9.25438 18.0892 9.41066C18.2455 9.56694 18.3333 9.7789 18.3333 9.99992C18.3333 10.2209 18.2455 10.4329 18.0892 10.5892C17.933 10.7455 17.721 10.8333 17.5 10.8333H2.49999C2.27898 10.8333 2.06701 10.7455 1.91073 10.5892C1.75445 10.4329 1.66666 10.2209 1.66666 9.99992ZM2.49999 12.4999C2.27898 12.4999 2.06701 12.5877 1.91073 12.744C1.75445 12.9003 1.66666 13.1122 1.66666 13.3333C1.66666 13.5543 1.75445 13.7662 1.91073 13.9225C2.06701 14.0788 2.27898 14.1666 2.49999 14.1666H12.5C12.721 14.1666 12.933 14.0788 13.0892 13.9225C13.2455 13.7662 13.3333 13.5543 13.3333 13.3333C13.3333 13.1122 13.2455 12.9003 13.0892 12.744C12.933 12.5877 12.721 12.4999 12.5 12.4999H2.49999Z"  />
</svg>
