<svg xmlns="http://www.w3.org/2000/svg"   viewBox="0 0 18 18" fill="none">
  <path fill-rule="evenodd" clip-rule="evenodd" d="M17.1791 10.1803C17.1791 12.2588 15.5274 13.9515 13.465 14.0176V14.0196H13.1634C12.7492 14.0196 12.4134 13.6838 12.4134 13.2696C12.4134 12.8554 12.7492 12.5196 13.1634 12.5196H13.3525C14.6386 12.5128 15.6791 11.468 15.6791 10.1803C15.6791 9.0852 14.9252 8.16246 13.9062 7.90962L13.045 7.69598L12.8175 6.83844C12.3693 5.14897 10.8279 3.90576 9 3.90576C7.1721 3.90576 5.63074 5.14897 5.18249 6.83844L4.95496 7.69598L4.09386 7.90962C3.07478 8.16246 2.32092 9.0852 2.32092 10.1803C2.32092 11.4723 3.36828 12.5196 4.66026 12.5196L4.66409 12.5196L4.87712 12.5196C5.29133 12.5196 5.62712 12.8554 5.62712 13.2696C5.62712 13.6838 5.29133 14.0196 4.87712 14.0196H4.66026H4.57712V14.0187C2.4951 13.9745 0.820923 12.2729 0.820923 10.1803C0.820923 8.37972 2.06039 6.86866 3.73265 6.45376C4.35099 4.12325 6.47493 2.40576 9 2.40576C11.5251 2.40576 13.649 4.12325 14.2674 6.45376C15.9396 6.86866 17.1791 8.37972 17.1791 10.1803ZM8.99999 8.21269C8.58578 8.21269 8.24999 8.54848 8.24999 8.96269V13.3239L7.83764 12.9115C7.59165 12.6655 7.19281 12.6655 6.94682 12.9115C6.70083 13.1575 6.70083 13.5563 6.94682 13.8023L8.44361 15.2991C8.46052 15.3178 8.47836 15.3357 8.49705 15.3526L8.55359 15.4091C8.80013 15.6556 9.19985 15.6556 9.44639 15.4091L9.50294 15.3526C9.52163 15.3356 9.53946 15.3178 9.55636 15.2991L11.0522 13.8033C11.2987 13.5568 11.2987 13.1571 11.0522 12.9105C10.8056 12.664 10.4059 12.664 10.1594 12.9105L9.74999 13.3199V8.96269C9.74999 8.54847 9.4142 8.21269 8.99999 8.21269Z" fill="currentColor"/>
</svg>