<svg width="279" height="81" viewBox="0 0 279 81" fill="none" xmlns="http://www.w3.org/2000/svg">
<path d="M36.8463 19.9578C17.375 19.9578 0 28.641 0 28.641V80.5H278V8.91518C278 8.91518 268.965 2.81172 254.677 0.835213C228.925 -2.72733 225.331 23.2809 202.708 23.2809C186.091 23.281 184.944 7.02985 162.787 5.54853C140.631 4.06721 130.636 41.3864 94.919 40.9657C68.1625 40.6506 51.8933 19.9578 36.8463 19.9578Z" fill="url(#paint0_linear_1518_3722)"/>
<path d="M0.492432 28.6916C0.492432 28.6916 17.4023 20.0784 36.8716 20.0784C53.0753 20.0784 68.1846 40.7581 94.9383 41.0731C130.652 41.4935 140.645 4.19778 162.799 5.67816C184.953 7.15855 186.101 23.3994 202.716 23.3994C225.337 23.3994 228.931 -2.59249 254.68 0.967815C268.966 2.94308 278 9.0427 278 9.0427" stroke="#111824" stroke-linecap="round"/>
<defs>
<linearGradient id="paint0_linear_1518_3722" x1="139.115" y1="18.2193" x2="138.975" y2="80.4999" gradientUnits="userSpaceOnUse">
<stop stop-color="#F3F3F4"/>
<stop offset="1" stop-color="#F3F3F4" stop-opacity="0"/>
</linearGradient>
</defs>
</svg>
