<svg xmlns="http://www.w3.org/2000/svg"  viewBox="0 0 16 17" fill="none">
  <path fill-rule="evenodd" clip-rule="evenodd" d="M10 3.14327C9.63181 3.14327 9.33333 2.84479 9.33333 2.4766C9.33333 2.10841 9.63181 1.80994 10 1.80994H14C14.3682 1.80994 14.6667 2.10841 14.6667 2.4766V6.4766C14.6667 6.84479 14.3682 7.14327 14 7.14327C13.6318 7.14327 13.3333 6.84479 13.3333 6.4766V4.08608L9.80473 7.61467C9.54438 7.87502 9.12227 7.87502 8.86192 7.61467C8.60157 7.35433 8.60157 6.93221 8.86192 6.67187L12.3905 3.14327H10ZM7.13807 9.33853C7.39842 9.59888 7.39842 10.021 7.13807 10.2813L3.60947 13.8099H6C6.36818 13.8099 6.66666 14.1084 6.66666 14.4766C6.66666 14.8448 6.36818 15.1433 6 15.1433H1.99999C1.82318 15.1433 1.65361 15.073 1.52859 14.948C1.40357 14.823 1.33333 14.6534 1.33333 14.4766L1.33333 10.4766C1.33333 10.1084 1.63181 9.80994 1.99999 9.80994C2.36818 9.80994 2.66666 10.1084 2.66666 10.4766L2.66666 12.8671L6.19526 9.33853C6.45561 9.07818 6.87772 9.07818 7.13807 9.33853Z" fill="currentColor"/>
</svg>