<svg width="16" height="16" viewBox="0 0 16 16" fill="none" xmlns="http://www.w3.org/2000/svg">
<g id="icon/line/export">
<path id="Icon (Stroke)" fill-rule="evenodd" clip-rule="evenodd" d="M7.52851 1.52876C7.78886 1.26841 8.21097 1.26841 8.47132 1.52876L11.138 4.19543C11.3983 4.45577 11.3983 4.87788 11.138 5.13823C10.8776 5.39858 10.4555 5.39858 10.1952 5.13823L8.66659 3.60964V10.0002C8.66659 10.3684 8.36811 10.6668 7.99992 10.6668C7.63173 10.6668 7.33325 10.3684 7.33325 10.0002V3.60964L5.80466 5.13823C5.54431 5.39858 5.1222 5.39858 4.86185 5.13823C4.6015 4.87788 4.6015 4.45577 4.86185 4.19543L7.52851 1.52876ZM1.99992 7.3335C2.36811 7.3335 2.66659 7.63197 2.66659 8.00016V10.8002C2.66659 11.3712 2.6671 11.7594 2.69162 12.0595C2.7155 12.3517 2.75878 12.5012 2.81191 12.6055C2.93974 12.8564 3.14372 13.0603 3.3946 13.1882C3.49887 13.2413 3.64833 13.2846 3.94061 13.3085C4.24067 13.333 4.62887 13.3335 5.19992 13.3335H10.7999C11.371 13.3335 11.7592 13.333 12.0592 13.3085C12.3515 13.2846 12.501 13.2413 12.6052 13.1882C12.8561 13.0603 13.0601 12.8564 13.1879 12.6055C13.2411 12.5012 13.2843 12.3517 13.3082 12.0595C13.3327 11.7594 13.3333 11.3712 13.3333 10.8002V8.00016C13.3333 7.63197 13.6317 7.3335 13.9999 7.3335C14.3681 7.3335 14.6666 7.63197 14.6666 8.00016V10.8277C14.6666 11.3644 14.6666 11.8073 14.6371 12.168C14.6065 12.5428 14.5408 12.8872 14.3759 13.2108C14.1203 13.7126 13.7123 14.1205 13.2106 14.3762C12.887 14.541 12.5425 14.6068 12.1678 14.6374C11.807 14.6668 11.3641 14.6668 10.8275 14.6668H5.17237C4.63573 14.6668 4.19283 14.6668 3.83204 14.6374C3.4573 14.6068 3.11283 14.541 2.78928 14.3762C2.28751 14.1205 1.87956 13.7126 1.6239 13.2108C1.45904 12.8872 1.39333 12.5428 1.36271 12.168C1.33324 11.8073 1.33324 11.3643 1.33325 10.8277L1.33325 8.00016C1.33325 7.63197 1.63173 7.3335 1.99992 7.3335Z" fill="currentColor"/>
</g>
</svg>
