<svg xmlns="http://www.w3.org/2000/svg"  viewBox="0 0 20 21" fill="none">
  <path fill-rule="evenodd" clip-rule="evenodd" d="M7.34835 3.83726H12.6517C13.5814 3.83726 14.1767 3.8386 14.6284 3.87611C15.0601 3.91196 15.2092 3.97205 15.2748 4.00614C15.5488 4.14845 15.7722 4.37183 15.9145 4.6458C15.9486 4.71142 16.0086 4.86055 16.0445 5.29226C16.082 5.74392 16.0833 6.33926 16.0833 7.26893V13.7389C16.0833 14.6686 16.082 15.2639 16.0445 15.7156C16.0086 16.1473 15.9486 16.2964 15.9145 16.3621C15.7722 16.636 15.5488 16.8594 15.2748 17.0017C15.2092 17.0358 15.0601 17.0959 14.6284 17.1317C14.1767 17.1693 13.5814 17.1706 12.6517 17.1706H7.34835C6.41868 17.1706 5.82334 17.1693 5.37168 17.1317C4.93997 17.0959 4.79084 17.0358 4.72522 17.0017C4.45126 16.8594 4.22788 16.636 4.08556 16.3621C4.05147 16.2964 3.99138 16.1473 3.95553 15.7156C3.91802 15.2639 3.91668 14.6686 3.91668 13.7389V7.26893C3.91668 6.33926 3.91802 5.74392 3.95553 5.29226C3.99138 4.86055 4.05147 4.71142 4.08556 4.6458C4.22788 4.37183 4.45126 4.14845 4.72522 4.00614C4.79084 3.97205 4.93997 3.91196 5.37168 3.87611C5.82334 3.8386 6.41868 3.83726 7.34835 3.83726ZM2.25002 7.26893C2.25002 5.46554 2.25002 4.56385 2.60654 3.87751C2.90698 3.29914 3.37856 2.82756 3.95693 2.52712C4.64327 2.17059 5.54496 2.17059 7.34835 2.17059H12.6517C14.4551 2.17059 15.3568 2.17059 16.0431 2.52712C16.6215 2.82756 17.0931 3.29914 17.3935 3.87751C17.75 4.56385 17.75 5.46554 17.75 7.26893V13.7389C17.75 15.5423 17.75 16.444 17.3935 17.1303C17.0931 17.7087 16.6215 18.1803 16.0431 18.4807C15.3568 18.8373 14.4551 18.8373 12.6517 18.8373H7.34835C5.54496 18.8373 4.64327 18.8373 3.95693 18.4807C3.37856 18.1803 2.90698 17.7087 2.60654 17.1303C2.25002 16.444 2.25002 15.5423 2.25002 13.7389V7.26893ZM6.37347 6.30931C5.91324 6.30931 5.54014 6.68241 5.54014 7.14265C5.54014 7.60288 5.91324 7.97598 6.37347 7.97598L13.6265 7.97598C14.0868 7.97598 14.4599 7.60288 14.4599 7.14264C14.4599 6.68241 14.0868 6.30931 13.6265 6.30931H6.37347ZM6.37347 9.78133C5.91324 9.78133 5.54014 10.1544 5.54014 10.6147C5.54014 11.0749 5.91324 11.448 6.37347 11.448L13.6265 11.448C14.0868 11.448 14.4599 11.0749 14.4599 10.6147C14.4599 10.1544 14.0868 9.78133 13.6265 9.78133L6.37347 9.78133ZM5.54014 14.0247C5.54014 13.5645 5.91324 13.1914 6.37347 13.1914L10.9414 13.1914C11.4016 13.1914 11.7747 13.5645 11.7747 14.0247C11.7747 14.4849 11.4016 14.858 10.9414 14.858L6.37347 14.858C5.91324 14.858 5.54014 14.4849 5.54014 14.0247Z" fill="currentColor"/>
</svg>