<svg xmlns="http://www.w3.org/2000/svg"   viewBox="0 0 17 16" fill="none">
  <path fill-rule="evenodd" clip-rule="evenodd" d="M6.37604 2.00004C6.40947 2.00007 6.44334 2.00009 6.47768 2.00009H10.5223C10.5566 2.00009 10.5905 2.00007 10.6239 2.00004C11.2424 1.99963 11.7086 1.99931 12.1334 2.14584C12.5071 2.27472 12.8474 2.48506 13.1298 2.76164C13.4509 3.07606 13.6591 3.49324 13.9353 4.04658C13.9502 4.0765 13.9654 4.10681 13.9807 4.13753L15.4251 7.02628C15.4309 7.03794 15.4367 7.04944 15.4424 7.0608C15.5518 7.27951 15.6346 7.44493 15.6941 7.62186C15.7467 7.77823 15.7847 7.93913 15.8076 8.1025C15.8334 8.28737 15.8334 8.47234 15.8333 8.71688C15.8333 8.72959 15.8333 8.74247 15.8333 8.75551V10.161C15.8333 10.6976 15.8333 11.1405 15.8038 11.5013C15.7732 11.876 15.7075 12.2205 15.5427 12.5441C15.287 13.0458 14.879 13.4538 14.3773 13.7094C14.0537 13.8743 13.7093 13.94 13.3345 13.9706C12.9737 14.0001 12.5308 14.0001 11.9942 14.0001H5.00576C4.46912 14.0001 4.02622 14.0001 3.66542 13.9706C3.29069 13.94 2.94622 13.8743 2.62267 13.7094C2.1209 13.4538 1.71295 13.0458 1.45729 12.5441C1.29243 12.2205 1.22672 11.876 1.1961 11.5013C1.16662 11.1405 1.16663 10.6976 1.16664 10.161L1.16664 8.75551C1.16664 8.74246 1.16664 8.72959 1.16663 8.71688C1.16656 8.47234 1.16651 8.28737 1.19239 8.1025C1.21527 7.93913 1.25325 7.77822 1.30586 7.62186C1.36539 7.44494 1.44815 7.27953 1.55757 7.06084C1.56326 7.04947 1.56902 7.03795 1.57485 7.02628L2.17114 7.32442L2.17504 7.32637M2.17114 7.32442L1.57485 7.02628L3.01923 4.13753C3.03459 4.10682 3.04972 4.07651 3.06465 4.0466C3.34086 3.49324 3.54909 3.07607 3.87012 2.76164C4.15251 2.48506 4.49285 2.27472 4.86652 2.14584C5.29132 1.99931 5.75757 1.99963 6.37604 2.00004M2.912 7.33342L4.2118 4.73381C4.55447 4.04846 4.66248 3.85191 4.80308 3.7142C4.94428 3.57591 5.11445 3.47074 5.30128 3.4063C5.48734 3.34212 5.71144 3.33342 6.47768 3.33342H10.5223C11.2885 3.33342 11.5126 3.34212 11.6987 3.4063C11.8855 3.47074 12.0557 3.57591 12.1969 3.7142C12.3375 3.85191 12.4455 4.04847 12.7881 4.73382L14.088 7.33342H2.912ZM2.50003 8.66676C2.49999 8.6941 2.49997 8.7236 2.49997 8.75551V10.1334C2.49997 10.7045 2.50049 11.0927 2.52501 11.3927C2.54889 11.685 2.59217 11.8345 2.6453 11.9387C2.77313 12.1896 2.9771 12.3936 3.22799 12.5214C3.33225 12.5746 3.48172 12.6178 3.774 12.6417C4.07406 12.6662 4.46225 12.6668 5.03331 12.6668H11.9666C12.5377 12.6668 12.9259 12.6662 13.2259 12.6417C13.5182 12.6178 13.6677 12.5746 13.772 12.5214C14.0228 12.3936 14.2268 12.1896 14.3546 11.9387C14.4078 11.8345 14.4511 11.685 14.4749 11.3927C14.4995 11.0927 14.5 10.7045 14.5 10.1334V8.75551C14.5 8.7236 14.5 8.6941 14.4999 8.66676H2.50003ZM7.16664 11.3334H4.49997C4.13178 11.3334 3.83331 11.0349 3.83331 10.6668C3.83331 10.2986 4.13178 10.0001 4.49997 10.0001H7.16664C7.53483 10.0001 7.83331 10.2986 7.83331 10.6668C7.83331 11.0349 7.53483 11.3334 7.16664 11.3334Z" fill="currentColor"/>
</svg>