<svg xmlns="http://www.w3.org/2000/svg"   viewBox="0 0 16 16" fill="none">
  <path fill-rule="evenodd" clip-rule="evenodd" d="M7.65613 1.11922C7.88134 1.05824 8.11871 1.05824 8.34391 1.11922C8.60554 1.19006 8.82562 1.3629 8.99842 1.49862C9.01505 1.51169 9.03124 1.5244 9.04699 1.53665L13.4498 4.96107C13.4669 4.9744 13.484 4.98759 13.5008 5.00069C13.7447 5.18991 13.962 5.35853 14.124 5.57758C14.2661 5.76974 14.372 5.98622 14.4364 6.21639C14.5099 6.47875 14.5096 6.75381 14.5092 7.06246C14.5092 7.08382 14.5092 7.10535 14.5092 7.12705V11.8493C14.5092 12.191 14.5092 12.4869 14.4893 12.7307C14.4682 12.9885 14.4216 13.2463 14.295 13.4948C14.1066 13.8645 13.806 14.1651 13.4363 14.3535C13.1877 14.4801 12.9299 14.5267 12.6722 14.5478C12.4283 14.5677 12.1325 14.5677 11.7907 14.5677H4.2093C3.86756 14.5677 3.57172 14.5677 3.32784 14.5478C3.07012 14.5267 2.81229 14.4801 2.56378 14.3535C2.19405 14.1651 1.89344 13.8645 1.70505 13.4948C1.57843 13.2463 1.53184 12.9885 1.51078 12.7307C1.49086 12.4868 1.49087 12.191 1.49088 11.8493L1.49088 7.12705C1.49088 7.10535 1.49086 7.08382 1.49083 7.06245C1.49048 6.75381 1.49017 6.47875 1.56361 6.21639C1.62804 5.98622 1.73392 5.76974 1.87604 5.57758C2.03806 5.35853 2.25536 5.18991 2.4992 5.00069C2.51609 4.98759 2.5331 4.97439 2.55022 4.96107L6.95305 1.53665C6.9688 1.5244 6.98499 1.51168 7.00162 1.49862C7.17443 1.3629 7.3945 1.19006 7.65613 1.11922ZM6.7192 13.2344H9.28085V9.09722C9.28085 8.90972 9.28035 8.80574 9.27471 8.73136C9.20033 8.72571 9.09634 8.72522 8.90885 8.72522H7.09119C6.9037 8.72522 6.79972 8.72571 6.72534 8.73136C6.71969 8.80574 6.7192 8.90972 6.7192 9.09722V13.2344ZM10.6142 13.2344L10.6142 9.07614C10.6142 8.91263 10.6142 8.75242 10.6031 8.61656C10.5909 8.46708 10.562 8.28942 10.4708 8.11035C10.3446 7.86276 10.1433 7.66146 9.89572 7.53531C9.71665 7.44406 9.53899 7.41516 9.38951 7.40295C9.25364 7.39185 9.09342 7.39187 8.9299 7.39189H7.07014C6.90662 7.39187 6.7464 7.39185 6.61053 7.40295C6.46106 7.41516 6.2834 7.44406 6.10432 7.53531C5.85673 7.66146 5.65543 7.86276 5.52928 8.11035C5.43804 8.28942 5.40913 8.46708 5.39692 8.61656C5.38582 8.75243 5.38584 8.91264 5.38586 9.07615L5.38586 13.2344H4.23487C3.8603 13.2344 3.61947 13.2338 3.43642 13.2189C3.26115 13.2046 3.19832 13.1804 3.16911 13.1655C3.05025 13.105 2.95362 13.0083 2.89306 12.8895C2.87817 12.8603 2.85401 12.7974 2.83969 12.6222C2.82473 12.4391 2.82421 12.1983 2.82421 11.8237V7.12705C2.82421 6.71644 2.83 6.63863 2.84759 6.57579C2.8683 6.5018 2.90234 6.43221 2.94803 6.37044C2.98683 6.31798 3.0447 6.26563 3.36881 6.01354L7.77164 2.58912C7.88902 2.49783 7.95245 2.44897 8.00002 2.41676C8.04759 2.44897 8.11102 2.49783 8.2284 2.58912L12.6312 6.01354C12.9553 6.26563 13.0132 6.31798 13.052 6.37044C13.0977 6.43221 13.1317 6.5018 13.1524 6.57579C13.17 6.63863 13.1758 6.71644 13.1758 7.12705V11.8237C13.1758 12.1983 13.1753 12.4391 13.1604 12.6222C13.146 12.7974 13.1219 12.8603 13.107 12.8895C13.0464 13.0083 12.9498 13.105 12.8309 13.1655C12.8017 13.1804 12.7389 13.2046 12.5636 13.2189C12.3806 13.2338 12.1397 13.2344 11.7652 13.2344H10.6142Z" fill="currentColor"/>
</svg>