<svg   viewBox="0 0 20 20" xmlns="http://www.w3.org/2000/svg">
<path d="M16.8832 3.09698H2.94999C2.4275 3.09698 2 3.52448 2 4.04698V16.3969C2 16.9194 2.4275 17.3469 2.94999 17.3469H16.8832C17.4057 17.3469 17.8332 16.9194 17.8332 16.3969V4.04698C17.8332 3.52448 17.4137 3.09698 16.8832 3.09698ZM16.5666 16.0802H3.26666V4.36364H16.5666V16.0802Z" fill="#485058"/>
<path d="M14.057 12.9134H6.41747C6.07706 12.9134 5.80789 12.6363 5.80789 12.3038V12.2642C5.80789 11.9238 6.08497 11.6546 6.41747 11.6546H14.057C14.3974 11.6546 14.6666 11.9317 14.6666 12.2642V12.3038C14.6666 12.6363 14.3974 12.9134 14.057 12.9134ZM14.0333 10.0634H9.91662C9.56829 10.0634 9.28329 9.77838 9.28329 9.43005C9.28329 9.08172 9.56829 8.79672 9.91662 8.79672H14.0333C14.3816 8.79672 14.6666 9.08172 14.6666 9.43005C14.6666 9.77838 14.3895 10.0634 14.0333 10.0634ZM13.5583 5.63007C13.2099 5.63007 12.9249 5.34507 12.9249 4.99674V2.14676C12.9249 1.79843 13.2099 1.51343 13.5583 1.51343C13.9066 1.51343 14.1916 1.79843 14.1916 2.14676V4.99674C14.1916 5.34507 13.9145 5.63007 13.5583 5.63007ZM6.27497 5.63007C5.92664 5.63007 5.64164 5.34507 5.64164 4.99674V2.14676C5.64164 1.79843 5.92664 1.51343 6.27497 1.51343C6.6233 1.51343 6.9083 1.79843 6.9083 2.14676V4.99674C6.9083 5.34507 6.63122 5.63007 6.27497 5.63007Z" fill="#485058"/>
</svg>
