<svg width="16" height="17" viewBox="0 0 16 17" fill="none" xmlns="http://www.w3.org/2000/svg">
    <path
        d="M13.5733 3.77466H2.4267C2.0087 3.77466 1.6667 4.11666 1.6667 4.53465V14.4146C1.6667 14.8326 2.0087 15.1746 2.4267 15.1746H13.5733C13.9913 15.1746 14.3333 14.8326 14.3333 14.4146V4.53465C14.3333 4.11666 13.9976 3.77466 13.5733 3.77466ZM13.32 14.1613H2.68003V4.78799H13.32V14.1613Z" />
    <path
        d="M11.3123 11.6278H5.20068C4.92835 11.6278 4.71302 11.4061 4.71302 11.1401V11.1084C4.71302 10.8361 4.93468 10.6208 5.20068 10.6208H11.3123C11.5846 10.6208 11.8 10.8424 11.8 11.1084V11.1401C11.8 11.4061 11.5846 11.6278 11.3123 11.6278ZM11.2933 9.34777H8C7.72133 9.34777 7.49334 9.11977 7.49334 8.84111C7.49334 8.56244 7.72133 8.33445 8 8.33445H11.2933C11.572 8.33445 11.8 8.56244 11.8 8.84111C11.8 9.11977 11.5783 9.34777 11.2933 9.34777ZM10.9133 5.80113C10.6347 5.80113 10.4067 5.57313 10.4067 5.29446V3.01448C10.4067 2.73581 10.6347 2.50781 10.9133 2.50781C11.192 2.50781 11.42 2.73581 11.42 3.01448V5.29446C11.42 5.57313 11.1983 5.80113 10.9133 5.80113ZM5.08668 5.80113C4.80802 5.80113 4.58002 5.57313 4.58002 5.29446V3.01448C4.58002 2.73581 4.80802 2.50781 5.08668 2.50781C5.36535 2.50781 5.59335 2.73581 5.59335 3.01448V5.29446C5.59335 5.57313 5.37168 5.80113 5.08668 5.80113Z" />
</svg>