<svg xmlns="http://www.w3.org/2000/svg" width="24" height="24" viewBox="0 0 24 24" fill="currentColor">
  <path d="M3.55009 3.75589C3.55009 3.20361 3.10237 2.75589 2.55009 2.75589C1.9978 2.75589 1.55009 3.20361 1.55009 3.75589L1.55008 18.677C1.55005 18.9285 1.55001 19.1761 1.56805 19.3864C1.588 19.619 1.63533 19.8942 1.78278 20.1698C1.98604 20.5497 2.30534 20.8497 2.68681 21.0348C2.95918 21.167 3.22965 21.2093 3.46286 21.2275C3.67733 21.2442 3.93174 21.2441 4.1986 21.2441L21.45 21.2441C22.0022 21.2441 22.45 20.7964 22.45 20.2441C22.45 19.6918 22.0022 19.2441 21.45 19.2441H4.23007C3.92033 19.2441 3.74531 19.2434 3.61802 19.2335C3.59428 19.2317 3.57582 19.2297 3.56187 19.2279L3.56073 19.2154C3.55094 19.1013 3.55009 18.9415 3.55009 18.6441V3.75589Z" fill="currentColor"/>
  <path d="M20.3024 6.61259C19.9072 6.24223 19.2865 6.26244 18.9161 6.65773L15.1741 10.6516L12.1112 9.06122L12.0746 9.04183C11.9435 8.97177 11.671 8.82625 11.3674 8.7989C11.1126 8.77594 10.8563 8.81982 10.6236 8.92621C10.3464 9.05296 10.1379 9.28078 10.0375 9.39049L10.0094 9.42097L6.16576 13.5233C5.79541 13.9186 5.81562 14.5393 6.2109 14.9096C6.60619 15.28 7.22687 15.2598 7.59722 14.8645L11.3392 10.8706L14.4021 12.461L14.4387 12.4804C14.5699 12.5504 14.8423 12.696 15.1459 12.7233C15.4007 12.7463 15.6571 12.7024 15.8897 12.596C16.167 12.4692 16.3755 12.2414 16.4759 12.1317L16.504 12.1012L20.3476 7.99891C20.7179 7.60362 20.6977 6.98295 20.3024 6.61259Z" fill="currentColor"/>
</svg>