<svg xmlns="http://www.w3.org/2000/svg" width="16" height="16" viewBox="0 0 16 16" fill="none">
  <path fill-rule="evenodd" clip-rule="evenodd" d="M5.46839 2.67236C5.83658 2.67236 6.13506 2.97084 6.13506 3.33903L6.13506 12.6644C6.13506 13.0326 5.83658 13.3311 5.46839 13.3311C5.1002 13.3311 4.80173 13.0326 4.80173 12.6644L4.80173 3.33903C4.80173 2.97084 5.1002 2.67236 5.46839 2.67236Z" fill="currentColor"/>
  <path fill-rule="evenodd" clip-rule="evenodd" d="M10.5316 2.67236C10.8998 2.67236 11.1983 2.97084 11.1983 3.33903V12.6644C11.1983 13.0326 10.8998 13.3311 10.5316 13.3311C10.1634 13.3311 9.86494 13.0326 9.86494 12.6644L9.86494 3.33903C9.86494 2.97084 10.1634 2.67236 10.5316 2.67236Z" fill="currentColor"/>
</svg>