<svg width="16" height="16" viewBox="0 0 16 16" fill="none" xmlns="http://www.w3.org/2000/svg">
<g id="icon/line/refresh">
<path id="Vector" d="M6.43552 14.6379C5.14802 14.2761 4.09802 13.5683 3.28552 12.5144C2.47302 11.4605 2.06677 10.2472 2.06677 8.87441C2.06677 8.16334 2.18552 7.48644 2.42302 6.84373C2.66052 6.20101 2.99802 5.61169 3.43552 5.07576C3.57302 4.92606 3.74177 4.84797 3.94177 4.84148C4.14177 4.835 4.32302 4.91309 4.48552 5.07576C4.62302 5.21299 4.69502 5.3814 4.70152 5.581C4.70802 5.7806 4.64227 5.96773 4.50427 6.14238C4.20427 6.52911 3.97302 6.95326 3.81052 7.41483C3.64802 7.87641 3.56677 8.36294 3.56677 8.87441C3.56677 9.88489 3.86377 10.7863 4.45777 11.5788C5.05177 12.3712 5.81727 12.9106 6.75427 13.197C6.91677 13.2469 7.05102 13.3405 7.15702 13.4777C7.26302 13.6149 7.31627 13.7646 7.31677 13.9268C7.31677 14.1763 7.22927 14.3729 7.05427 14.5166C6.87927 14.6603 6.67302 14.7008 6.43552 14.6379ZM9.69802 14.6379C9.46052 14.7003 9.25427 14.6566 9.07927 14.5069C8.90427 14.3572 8.81677 14.1576 8.81677 13.9081C8.81677 13.7584 8.87002 13.6149 8.97652 13.4777C9.08302 13.3405 9.21727 13.2469 9.37927 13.197C10.3168 12.8976 11.0825 12.3549 11.6765 11.569C12.2705 10.7831 12.5673 9.88489 12.5668 8.87441C12.5668 7.62691 12.1293 6.56653 11.2543 5.69328C10.3793 4.82003 9.31677 4.3834 8.06677 4.3834H8.01052L8.31052 4.6828C8.44802 4.82003 8.51677 4.99468 8.51677 5.20675C8.51677 5.41883 8.44802 5.59348 8.31052 5.7307C8.17302 5.86793 7.99802 5.93654 7.78552 5.93654C7.57302 5.93654 7.39802 5.86793 7.26052 5.7307L5.68552 4.15885C5.61052 4.084 5.55752 4.00291 5.52652 3.91559C5.49552 3.82826 5.47977 3.7347 5.47927 3.6349C5.47927 3.5351 5.49502 3.44153 5.52652 3.35421C5.55802 3.26688 5.61102 3.1858 5.68552 3.11095L7.26052 1.53909C7.39802 1.40186 7.57302 1.33325 7.78552 1.33325C7.99802 1.33325 8.17302 1.40186 8.31052 1.53909C8.44802 1.67632 8.51677 1.85097 8.51677 2.06304C8.51677 2.27512 8.44802 2.44977 8.31052 2.58699L8.01052 2.88639H8.06677C9.74177 2.88639 11.1605 3.46648 12.323 4.62666C13.4855 5.78684 14.0668 7.20276 14.0668 8.87441C14.0668 10.2342 13.6605 11.4443 12.848 12.5047C12.0355 13.565 10.9855 14.2761 9.69802 14.6379Z" fill="currentColor"/>
</g>
</svg>
