<svg xmlns="http://www.w3.org/2000/svg"   viewBox="0 0 18 18" fill="none">
  <path fill-rule="evenodd" clip-rule="evenodd" d="M13.9071 1.69351C13.9071 1.36213 13.6385 1.09351 13.3071 1.09351H10.669C10.3377 1.09351 10.069 1.36213 10.069 1.69351V1.99351C10.069 2.32488 10.3377 2.59351 10.669 2.59351H11.2381V15.4065H10.669C10.3377 15.4065 10.069 15.6751 10.069 16.0065V16.3065C10.069 16.6379 10.3377 16.9065 10.669 16.9065H13.3071C13.6385 16.9065 13.9071 16.6379 13.9071 16.3065V16.0065C13.9071 15.6751 13.6385 15.4065 13.3071 15.4065H12.7381V14.55H13.275C14.5351 14.55 15.1652 14.55 15.6465 14.3048C16.0698 14.0891 16.414 13.7448 16.6298 13.3215C16.875 12.8402 16.875 12.2101 16.875 10.95V7.05C16.875 5.78989 16.875 5.15983 16.6298 4.67853C16.414 4.25516 16.0698 3.91096 15.6465 3.69524C15.1652 3.45 14.5351 3.45 13.275 3.45H12.7381V2.59351H13.3071C13.6385 2.59351 13.9071 2.32488 13.9071 1.99351V1.69351ZM12.7381 4.95V13.05H13.275C13.9298 13.05 14.3307 13.0488 14.6306 13.0243C14.7704 13.0129 14.8549 12.9986 14.9063 12.9865C14.9307 12.9807 14.9457 12.9759 14.9538 12.973C14.9616 12.9702 14.9655 12.9683 14.9655 12.9683C15.1066 12.8964 15.2214 12.7816 15.2933 12.6405C15.2933 12.6405 15.2952 12.6366 15.298 12.6288C15.3009 12.6207 15.3057 12.6057 15.3115 12.5813C15.3236 12.5299 15.3379 12.4454 15.3493 12.3057C15.3738 12.0057 15.375 11.6048 15.375 10.95V7.05C15.375 6.39519 15.3738 5.9943 15.3493 5.69436C15.3379 5.55463 15.3236 5.47009 15.3115 5.41875C15.3057 5.39433 15.3009 5.37931 15.298 5.37119C15.2952 5.36339 15.2933 5.35951 15.2933 5.35951C15.2214 5.21839 15.1066 5.10365 14.9655 5.03175C14.9655 5.03175 14.9616 5.02978 14.9538 5.02699C14.9457 5.02409 14.9307 5.01927 14.9063 5.01352C14.8549 5.00143 14.7704 4.98709 14.6306 4.97568C14.3307 4.95117 13.9298 4.95 13.275 4.95H12.7381Z" fill="currentColor"/>
  <path d="M9.73808 4.05C9.73808 3.71863 9.46945 3.45 9.13808 3.45H4.725C3.46488 3.45 2.83482 3.45 2.35352 3.69524C1.93016 3.91096 1.58595 4.25516 1.37024 4.67853C1.125 5.15983 1.125 5.78989 1.125 7.05001V10.95C1.125 12.2101 1.125 12.8402 1.37024 13.3215C1.58595 13.7448 1.93016 14.0891 2.35352 14.3048C2.83482 14.55 3.46488 14.55 4.725 14.55H9.13808C9.46945 14.55 9.73808 14.2814 9.73808 13.95V13.65C9.73808 13.3186 9.46945 13.05 9.13808 13.05H4.725C4.07019 13.05 3.66929 13.0488 3.36935 13.0243C3.22963 13.0129 3.14509 12.9986 3.09375 12.9865C3.06933 12.9807 3.05431 12.9759 3.04618 12.973C3.03838 12.9702 3.03451 12.9683 3.03451 12.9683C2.89339 12.8964 2.77865 12.7816 2.70675 12.6405C2.70675 12.6405 2.70477 12.6366 2.70199 12.6288C2.69909 12.6207 2.69427 12.6057 2.68852 12.5813C2.67643 12.5299 2.66209 12.4454 2.65067 12.3057C2.62617 12.0057 2.625 11.6048 2.625 10.95V7.05001C2.625 6.3952 2.62617 5.9943 2.65067 5.69436C2.66209 5.55463 2.67643 5.47009 2.68852 5.41875C2.69427 5.39433 2.69909 5.37931 2.70199 5.37119C2.70477 5.36339 2.70675 5.35951 2.70675 5.35951C2.77865 5.21839 2.89339 5.10365 3.03451 5.03175C3.03451 5.03175 3.03838 5.02978 3.04618 5.02699C3.05431 5.02409 3.06933 5.01927 3.09375 5.01352C3.14509 5.00143 3.22963 4.98709 3.36935 4.97568C3.66929 4.95117 4.07019 4.95 4.725 4.95H9.13808C9.46945 4.95 9.73808 4.68138 9.73808 4.35V4.05Z" fill="currentColor"/>
</svg>