<svg xmlns="http://www.w3.org/2000/svg"   viewBox="0 0 18 18" fill="none">
  <path d="M7.23995 16.4677C5.79151 16.0607 4.61026 15.2644 3.6962 14.0788C2.78213 12.8931 2.3251 11.5282 2.3251 9.98381C2.3251 9.18384 2.4587 8.42234 2.72588 7.69928C2.99307 6.97623 3.37276 6.31324 3.86495 5.71033C4.01963 5.54191 4.20948 5.45406 4.43448 5.44676C4.65948 5.43946 4.86338 5.52732 5.0462 5.71033C5.20088 5.8647 5.28189 6.05417 5.2892 6.27872C5.29651 6.50327 5.22254 6.71379 5.06729 6.91027C4.72979 7.34534 4.46963 7.82251 4.28682 8.34178C4.10401 8.86105 4.0126 9.4084 4.0126 9.98381C4.0126 11.1206 4.34673 12.1347 5.01498 13.0262C5.68323 13.9177 6.54442 14.5245 7.59854 14.8467C7.78135 14.9029 7.93238 15.0081 8.05163 15.1625C8.17088 15.3169 8.23079 15.4853 8.23135 15.6677C8.23135 15.9484 8.13292 16.1696 7.93604 16.3313C7.73917 16.493 7.50713 16.5384 7.23995 16.4677ZM10.9103 16.4677C10.6431 16.5379 10.411 16.4888 10.2142 16.3203C10.0173 16.1519 9.91885 15.9274 9.91885 15.6467C9.91885 15.4783 9.97876 15.3169 10.0986 15.1625C10.2184 15.0081 10.3694 14.9029 10.5517 14.8467C11.6064 14.5099 12.4678 13.8994 13.1361 13.0152C13.8043 12.1311 14.1382 11.1206 14.1376 9.98381C14.1376 8.58036 13.6454 7.38744 12.661 6.40503C11.6767 5.42262 10.4814 4.93142 9.0751 4.93142H9.01182L9.34932 5.26824C9.50401 5.42262 9.58135 5.6191 9.58135 5.85769C9.58135 6.09627 9.50401 6.29275 9.34932 6.44713C9.19463 6.60151 8.99776 6.6787 8.7587 6.6787C8.51964 6.6787 8.32276 6.60151 8.16807 6.44713L6.3962 4.6788C6.31182 4.59459 6.2522 4.50337 6.21732 4.40512C6.18245 4.30688 6.16473 4.20163 6.16417 4.08935C6.16417 3.97708 6.18188 3.87182 6.21732 3.77358C6.25276 3.67534 6.31238 3.58411 6.3962 3.4999L8.16807 1.73157C8.32276 1.57719 8.51964 1.5 8.7587 1.5C8.99776 1.5 9.19463 1.57719 9.34932 1.73157C9.50401 1.88595 9.58135 2.08243 9.58135 2.32101C9.58135 2.5596 9.50401 2.75608 9.34932 2.91046L9.01182 3.24729H9.0751C10.9595 3.24729 12.5556 3.89989 13.8634 5.20509C15.1712 6.51029 15.8251 8.10319 15.8251 9.98381C15.8251 11.5136 15.3681 12.8749 14.454 14.0678C13.5399 15.2607 12.3587 16.0607 10.9103 16.4677Z" fill="currentColor"/>
</svg>