<svg xmlns="http://www.w3.org/2000/svg"  viewBox="0 0 20 20" fill="none">
  <path d="M8.18749 17.25C6.75694 16.8472 5.59027 16.0592 4.68749 14.8858C3.78472 13.7125 3.33333 12.3617 3.33333 10.8333C3.33333 10.0417 3.46527 9.28805 3.72916 8.5725C3.99305 7.85694 4.36805 7.20083 4.85416 6.60417C5.00694 6.4375 5.19444 6.35056 5.41666 6.34333C5.63888 6.33611 5.84027 6.42306 6.02083 6.60417C6.17361 6.75694 6.25361 6.94444 6.26083 7.16667C6.26805 7.38889 6.195 7.59722 6.04166 7.79167C5.70833 8.22222 5.45138 8.69444 5.27083 9.20833C5.09027 9.72222 4.99999 10.2639 4.99999 10.8333C4.99999 11.9583 5.33 12.9619 5.99 13.8442C6.65 14.7264 7.50055 15.3269 8.54166 15.6458C8.72222 15.7014 8.87138 15.8056 8.98916 15.9583C9.10694 16.1111 9.16611 16.2778 9.16666 16.4583C9.16666 16.7361 9.06944 16.955 8.87499 17.115C8.68055 17.275 8.45138 17.32 8.18749 17.25ZM11.8125 17.25C11.5486 17.3194 11.3194 17.2708 11.125 17.1042C10.9306 16.9375 10.8333 16.7153 10.8333 16.4375C10.8333 16.2708 10.8925 16.1111 11.0108 15.9583C11.1292 15.8056 11.2783 15.7014 11.4583 15.6458C12.5 15.3125 13.3508 14.7083 14.0108 13.8333C14.6708 12.9583 15.0006 11.9583 15 10.8333C15 9.44444 14.5139 8.26389 13.5417 7.29167C12.5694 6.31944 11.3889 5.83333 10 5.83333H9.9375L10.2708 6.16667C10.4236 6.31944 10.5 6.51389 10.5 6.75C10.5 6.98611 10.4236 7.18056 10.2708 7.33333C10.1181 7.48611 9.92361 7.5625 9.6875 7.5625C9.45138 7.5625 9.25694 7.48611 9.10416 7.33333L7.35416 5.58333C7.27083 5.5 7.21194 5.40972 7.1775 5.3125C7.14305 5.21528 7.12555 5.11111 7.125 5C7.125 4.88889 7.14249 4.78472 7.1775 4.6875C7.2125 4.59028 7.27138 4.5 7.35416 4.41667L9.10416 2.66667C9.25694 2.51389 9.45138 2.4375 9.6875 2.4375C9.92361 2.4375 10.1181 2.51389 10.2708 2.66667C10.4236 2.81944 10.5 3.01389 10.5 3.25C10.5 3.48611 10.4236 3.68056 10.2708 3.83333L9.9375 4.16667H10C11.8611 4.16667 13.4375 4.8125 14.7292 6.10417C16.0208 7.39583 16.6667 8.97222 16.6667 10.8333C16.6667 12.3472 16.2153 13.6944 15.3125 14.875C14.4097 16.0556 13.2431 16.8472 11.8125 17.25Z" />
</svg>