<svg xmlns="http://www.w3.org/2000/svg"   viewBox="0 0 16 16" fill="none">
  <path d="M6.43549 14.6379C5.14799 14.2761 4.09799 13.5683 3.28549 12.5144C2.47299 11.4605 2.06674 10.2472 2.06674 8.87441C2.06674 8.16334 2.18549 7.48644 2.42299 6.84373C2.66049 6.20101 2.99799 5.61169 3.43549 5.07576C3.57299 4.92606 3.74174 4.84797 3.94174 4.84148C4.14174 4.835 4.32299 4.91309 4.48549 5.07576C4.62299 5.21299 4.69499 5.3814 4.70149 5.581C4.70799 5.7806 4.64224 5.96773 4.50424 6.14238C4.20424 6.52911 3.97299 6.95326 3.81049 7.41483C3.64799 7.87641 3.56674 8.36294 3.56674 8.87441C3.56674 9.88489 3.86374 10.7863 4.45774 11.5788C5.05174 12.3712 5.81724 12.9106 6.75424 13.197C6.91674 13.2469 7.05099 13.3405 7.15699 13.4777C7.26299 13.6149 7.31624 13.7646 7.31674 13.9268C7.31674 14.1763 7.22924 14.3729 7.05424 14.5166C6.87924 14.6603 6.67299 14.7008 6.43549 14.6379ZM9.69799 14.6379C9.46049 14.7003 9.25424 14.6566 9.07924 14.5069C8.90424 14.3572 8.81674 14.1576 8.81674 13.9081C8.81674 13.7584 8.86999 13.6149 8.97649 13.4777C9.08299 13.3405 9.21724 13.2469 9.37924 13.197C10.3167 12.8976 11.0825 12.3549 11.6765 11.569C12.2705 10.7831 12.5672 9.88489 12.5667 8.87441C12.5667 7.62691 12.1292 6.56653 11.2542 5.69328C10.3792 4.82003 9.31674 4.3834 8.06674 4.3834H8.01049L8.31049 4.6828C8.44799 4.82003 8.51674 4.99468 8.51674 5.20675C8.51674 5.41883 8.44799 5.59348 8.31049 5.7307C8.17299 5.86793 7.99799 5.93654 7.78549 5.93654C7.57299 5.93654 7.39799 5.86793 7.26049 5.7307L5.68549 4.15885C5.61049 4.084 5.55749 4.00291 5.52649 3.91559C5.49549 3.82826 5.47974 3.7347 5.47924 3.6349C5.47924 3.5351 5.49499 3.44153 5.52649 3.35421C5.55799 3.26688 5.61099 3.1858 5.68549 3.11095L7.26049 1.53909C7.39799 1.40186 7.57299 1.33325 7.78549 1.33325C7.99799 1.33325 8.17299 1.40186 8.31049 1.53909C8.44799 1.67632 8.51674 1.85097 8.51674 2.06304C8.51674 2.27512 8.44799 2.44977 8.31049 2.58699L8.01049 2.88639H8.06674C9.74174 2.88639 11.1605 3.46648 12.323 4.62666C13.4855 5.78684 14.0667 7.20276 14.0667 8.87441C14.0667 10.2342 13.6605 11.4443 12.848 12.5047C12.0355 13.565 10.9855 14.2761 9.69799 14.6379Z" fill="currentColor"/>
</svg>