<svg xmlns="http://www.w3.org/2000/svg"   viewBox="0 0 16 16" fill="none">
  <path fill-rule="evenodd" clip-rule="evenodd" d="M7.33331 2.66659C4.75598 2.66659 2.66665 4.75592 2.66665 7.33325C2.66665 9.91058 4.75598 11.9999 7.33331 11.9999C8.59061 11.9999 9.73178 11.5027 10.5709 10.6942C10.5885 10.6714 10.6077 10.6494 10.6286 10.6285C10.6495 10.6076 10.6714 10.5884 10.6942 10.5708C11.5028 9.73172 12 8.59055 12 7.33325C12 4.75592 9.91064 2.66659 7.33331 2.66659ZM12.0212 11.0784C12.8423 10.0519 13.3333 8.74993 13.3333 7.33325C13.3333 4.01954 10.647 1.33325 7.33331 1.33325C4.0196 1.33325 1.33331 4.01954 1.33331 7.33325C1.33331 10.647 4.0196 13.3333 7.33331 13.3333C8.74999 13.3333 10.052 12.8423 11.0784 12.0212L13.5286 14.4713C13.7889 14.7317 14.211 14.7317 14.4714 14.4713C14.7317 14.211 14.7317 13.7889 14.4714 13.5285L12.0212 11.0784Z" fill="currentColor"/>
</svg>