<svg xmlns="http://www.w3.org/2000/svg"  viewBox="0 0 24 24" fill="currentColor">
  <path fill-rule="evenodd" clip-rule="evenodd" d="M12 3.35022C7.22285 3.35022 3.35021 7.22286 3.35021 12C3.35021 16.7771 7.22285 20.6498 12 20.6498C16.7771 20.6498 20.6498 16.7771 20.6498 12C20.6498 7.22286 16.7771 3.35022 12 3.35022ZM1.42804 12C1.42804 6.16127 6.16127 1.42804 12 1.42804C17.8387 1.42804 22.572 6.16127 22.572 12C22.572 17.8387 17.8387 22.572 12 22.572C6.16127 22.572 1.42804 17.8387 1.42804 12ZM8.15565 9.11674C8.15565 8.58595 8.58594 8.15565 9.11674 8.15565H14.8833C15.4141 8.15565 15.8443 8.58595 15.8443 9.11674V14.8833C15.8443 15.4141 15.4141 15.8444 14.8833 15.8444H9.11674C8.58594 15.8444 8.15565 15.4141 8.15565 14.8833V9.11674ZM10.0778 10.0778V13.9222H13.9222V10.0778H10.0778Z" fill="currentColor"/>
</svg>