<svg xmlns="http://www.w3.org/2000/svg"  viewBox="0 0 24 24" fill="none">
  <path d="M5.23911 3.76461C4.87213 4.12955 4.63246 4.63018 4.1531 5.63145L1.58294 11H22.6039L19.9649 5.57522C19.4783 4.57508 19.235 4.07494 18.8649 3.71191C18.5512 3.40423 18.1738 3.16921 17.7594 3.02344C17.2703 2.85145 16.7142 2.85371 15.6019 2.85824L8.48993 2.88716C7.37984 2.89168 6.82479 2.89393 6.33787 3.06933C5.92519 3.21797 5.55013 3.45531 5.23911 3.76461Z" fill="#667085"/>
  <path fill-rule="evenodd" clip-rule="evenodd" d="M1.1001 13.7658C1.1001 13.4761 1.1001 13.2232 1.1038 13H23.0964C23.1001 13.2232 23.1001 13.4761 23.1001 13.7658V14.882C23.1001 17.0461 23.1001 18.1281 22.6723 18.9517C22.3118 19.6458 21.7459 20.2117 21.0518 20.5722C20.2282 21 19.1462 21 16.9821 21H7.21809C5.05403 21 3.972 21 3.1484 20.5722C2.45435 20.2117 1.88845 19.6458 1.52793 18.9517C1.1001 18.1281 1.1001 17.0461 1.1001 14.882V13.7658ZM6.07268 14.9978C5.52039 14.9978 5.07268 15.4455 5.07268 15.9978C5.07268 16.5501 5.52039 16.9978 6.07268 16.9978H10.1003C10.6526 16.9978 11.1003 16.5501 11.1003 15.9978C11.1003 15.4455 10.6525 14.9978 10.1003 14.9978H6.07268Z" fill="#667085"/>
</svg>