<svg xmlns="http://www.w3.org/2000/svg"  viewBox="0 0 16 17" fill="none">
  <g clip-path="url(#clip0_6894_9020)">
    <path fill-rule="evenodd" clip-rule="evenodd" d="M12.5267 2.10701C12.7382 2.14133 12.9204 2.27525 13.0162 2.46692L13.5482 3.53101L14.6123 4.06305C14.804 4.15889 14.9379 4.34102 14.9722 4.55255C15.0066 4.76408 14.9371 4.97921 14.7856 5.13074L12.8913 7.02502C12.7663 7.15004 12.5967 7.22028 12.4199 7.22028H10.8018L8.47135 9.55069C8.21099 9.81104 7.78888 9.81104 7.52854 9.55068C7.26819 9.29033 7.26819 8.86822 7.52854 8.60788L9.85897 6.27747V4.65934C9.85897 4.48253 9.92921 4.31296 10.0542 4.18793L11.9485 2.29366C12.1 2.14213 12.3152 2.07268 12.5267 2.10701ZM11.1923 5.88695H12.1438L13.1887 4.84197L12.7532 4.6242C12.6242 4.55969 12.5196 4.45507 12.4551 4.32606L12.2373 3.89051L11.1923 4.93548V5.88695ZM7.99996 3.43173C4.88089 3.43173 2.35238 5.96024 2.35238 9.07932C2.35238 12.1984 4.88089 14.7269 7.99996 14.7269C11.119 14.7269 13.6475 12.1984 13.6475 9.07932C13.6475 8.71113 13.946 8.41265 14.3142 8.41265C14.6824 8.41265 14.9809 8.71113 14.9809 9.07932C14.9809 12.9348 11.8554 16.0602 7.99996 16.0602C4.14451 16.0602 1.01904 12.9348 1.01904 9.07932C1.01904 5.22386 4.14451 2.0984 7.99996 2.0984C8.36815 2.0984 8.66663 2.39687 8.66663 2.76506C8.66663 3.13325 8.36815 3.43173 7.99996 3.43173ZM7.99996 6.58886C6.62452 6.58886 5.5095 7.70387 5.5095 9.07932C5.5095 10.4548 6.62452 11.5698 7.99996 11.5698C9.37541 11.5698 10.4904 10.4548 10.4904 9.07932C10.4904 8.71113 10.7889 8.41265 11.1571 8.41265C11.5253 8.41265 11.8238 8.71113 11.8238 9.07932C11.8238 11.1911 10.1118 12.9031 7.99996 12.9031C5.88814 12.9031 4.17617 11.1911 4.17617 9.07932C4.17617 6.96749 5.88814 5.25552 7.99996 5.25552C8.36815 5.25552 8.66663 5.554 8.66663 5.92219C8.66663 6.29038 8.36815 6.58886 7.99996 6.58886Z" fill="#485264"/>
  </g>
  <defs>
    <clipPath id="clip0_6894_9020">
      <rect width="16" height="16" fill="currentColor" transform="translate(0 0.921875)"/>
    </clipPath>
  </defs>
</svg>