<svg xmlns="http://www.w3.org/2000/svg" viewBox="0 0 18 18" fill="none">
  <path d="M5.86377 6.28091C5.57088 5.98802 5.096 5.98802 4.80311 6.28091C4.51022 6.5738 4.51022 7.04868 4.80311 7.34157L6.46161 9.00007L4.80311 10.6586C4.51022 10.9515 4.51022 11.4263 4.80311 11.7192C5.096 12.0121 5.57088 12.0121 5.86377 11.7192L8.02832 9.55468C8.18094 9.40205 8.25404 9.20001 8.2476 9.00005C8.25403 8.80011 8.18093 8.59808 8.02832 8.44546L5.86377 6.28091Z" fill="currentColor"/>
  <path d="M13.5611 11.0606C13.5611 11.4748 13.2253 11.8106 12.8111 11.8106H9.75C9.33579 11.8106 9 11.4748 9 11.0606C9 10.6464 9.33579 10.3106 9.75 10.3106H12.8111C13.2253 10.3106 13.5611 10.6464 13.5611 11.0606Z" fill="currentColor"/>
  <path fill-rule="evenodd" clip-rule="evenodd" d="M1.5 6.58343C1.5 5.07129 1.5 4.31521 1.79428 3.73765C2.05314 3.22962 2.46619 2.81657 2.97423 2.55771C3.55179 2.26343 4.30786 2.26343 5.82 2.26343H12.18C13.6921 2.26343 14.4482 2.26343 15.0258 2.55771C15.5338 2.81657 15.9469 3.22962 16.2057 3.73765C16.5 4.31521 16.5 5.07129 16.5 6.58343V11.4167C16.5 12.9289 16.5 13.6849 16.2057 14.2625C15.9469 14.7705 15.5338 15.1836 15.0258 15.4424C14.4482 15.7367 13.6921 15.7367 12.18 15.7367H5.82C4.30786 15.7367 3.55179 15.7367 2.97423 15.4424C2.46619 15.1836 2.05314 14.7705 1.79428 14.2625C1.5 13.6849 1.5 12.9289 1.5 11.4167V6.58343ZM5.82 3.76343H12.18C12.9608 3.76343 13.4562 3.76459 13.8312 3.79523C14.1887 3.82444 14.3027 3.87278 14.3448 3.89422C14.5706 4.00927 14.7542 4.19284 14.8692 4.41864C14.8906 4.46072 14.939 4.57475 14.9682 4.93222C14.9988 5.3072 15 5.80261 15 6.58343V11.4167C15 12.1975 14.9988 12.6929 14.9682 13.0679C14.939 13.4254 14.8906 13.5394 14.8692 13.5815C14.7542 13.8073 14.5706 13.9909 14.3448 14.1059C14.3027 14.1274 14.1887 14.1757 13.8312 14.2049C13.4562 14.2355 12.9608 14.2367 12.18 14.2367H5.82C5.03918 14.2367 4.54377 14.2355 4.16879 14.2049C3.81132 14.1757 3.69729 14.1274 3.65521 14.1059C3.42942 13.9909 3.24584 13.8073 3.13079 13.5815C3.10935 13.5394 3.06101 13.4254 3.0318 13.0679C3.00117 12.6929 3 12.1975 3 11.4167V6.58343C3 5.80261 3.00117 5.3072 3.0318 4.93222C3.06101 4.57475 3.10935 4.46072 3.13079 4.41864C3.24584 4.19284 3.42942 4.00927 3.65521 3.89422C3.69729 3.87278 3.81132 3.82444 4.16879 3.79523C4.54377 3.76459 5.03918 3.76343 5.82 3.76343Z" fill="currentColor"/>
</svg>