<svg xmlns="http://www.w3.org/2000/svg" viewBox="0 0 20 20" fill="none">
  <path fill-rule="evenodd" clip-rule="evenodd" d="M3.47435 4.30779C3.65798 4.12416 3.90704 4.021 4.16673 4.021H15.8334C16.0931 4.021 16.3421 4.12416 16.5258 4.30779C16.7094 4.49142 16.8126 4.74047 16.8126 5.00016V15.0002C16.8126 15.2599 16.7094 15.5089 16.5258 15.6925C16.3421 15.8762 16.0931 15.9793 15.8334 15.9793H4.16673C3.90704 15.9793 3.65798 15.8762 3.47435 15.6925C3.29072 15.5089 3.18756 15.2599 3.18756 15.0002V5.00016C3.18756 4.74047 3.29072 4.49142 3.47435 4.30779ZM4.16673 2.646C3.54236 2.646 2.94357 2.89402 2.50208 3.33552C2.06059 3.77701 1.81256 4.3758 1.81256 5.00016V15.0002C1.81256 15.6245 2.06059 16.2233 2.50208 16.6648C2.94357 17.1063 3.54236 17.3543 4.16673 17.3543H15.8334C16.4578 17.3543 17.0566 17.1063 17.498 16.6648C17.9395 16.2233 18.1876 15.6245 18.1876 15.0002V5.00016C18.1876 4.3758 17.9395 3.77701 17.498 3.33552C17.0566 2.89402 16.4578 2.646 15.8334 2.646H4.16673ZM7.15276 7.01423C6.88428 6.74574 6.44898 6.74574 6.18049 7.01423C5.912 7.28272 5.912 7.71802 6.18049 7.9865L8.19435 10.0004L6.18049 12.0142C5.912 12.2827 5.912 12.718 6.18049 12.9865C6.44898 13.255 6.88428 13.255 7.15276 12.9865L9.65276 10.4865C9.92125 10.218 9.92125 9.78272 9.65276 9.51423L7.15276 7.01423ZM10.8333 11.8129C10.4536 11.8129 10.1458 12.1207 10.1458 12.5004C10.1458 12.8801 10.4536 13.1879 10.8333 13.1879H13.3333C13.713 13.1879 14.0208 12.8801 14.0208 12.5004C14.0208 12.1207 13.713 11.8129 13.3333 11.8129H10.8333Z" fill="#485058"/>
</svg>