<svg xmlns="http://www.w3.org/2000/svg"   viewBox="0 0 17 16" fill="none">
  <g clip-path="url(#clip0_6259_7948)">
    <path d="M12.8093 12.7335C14.6426 12.6748 16.1108 11.1701 16.1108 9.32256C16.1108 7.72206 15.009 6.37888 13.5226 6.01009C12.9729 3.93852 11.085 2.41187 8.84048 2.41187C6.59597 2.41187 4.70803 3.93852 4.15839 6.01009C2.67194 6.37888 1.57019 7.72206 1.57019 9.32256C1.57019 11.1827 3.05835 12.6952 4.90903 12.7345V12.7353H5.1757C5.54389 12.7353 5.84237 12.4368 5.84237 12.0686C5.84237 11.7004 5.54389 11.402 5.1757 11.402H4.98294C3.83451 11.402 2.90352 10.471 2.90352 9.32256C2.90352 8.34915 3.57362 7.52893 4.47946 7.30419L5.24489 7.11428L5.44714 6.35202C5.84558 4.85028 7.21568 3.7452 8.84048 3.7452C10.4653 3.7452 11.8354 4.85028 12.2338 6.35202L12.4361 7.11428L13.2015 7.30419C14.1073 7.52893 14.7774 8.34915 14.7774 9.32256C14.7774 10.4672 13.8526 11.3958 12.7094 11.4019L12.5413 11.402C12.1731 11.402 11.8746 11.7004 11.8746 12.0686C11.8746 12.4368 12.1731 12.7353 12.5413 12.7353H12.8093V12.7335Z" fill="currentColor"/>
    <path d="M7.01544 8.73195L8.34597 7.40141C8.36097 7.38484 8.37678 7.36902 8.39336 7.35403L8.44367 7.30371L8.44455 7.30283C8.66307 7.08431 9.01727 7.08417 9.23597 7.30241C9.2364 7.30284 9.23684 7.30327 9.23727 7.30371L9.28749 7.35393C9.30414 7.36899 9.32002 7.38487 9.33508 7.40151L10.6646 8.73107C10.8838 8.95021 10.8838 9.30552 10.6646 9.52466C10.4455 9.74381 10.0902 9.74381 9.87103 9.52466L9.50714 9.16077V13.0339C9.50714 13.402 9.20867 13.7005 8.84048 13.7005C8.47229 13.7005 8.17381 13.402 8.17381 13.0339V9.15724L7.80727 9.52378C7.58861 9.74244 7.23409 9.74244 7.01544 9.52378C6.79678 9.30512 6.79678 8.95061 7.01544 8.73195Z" fill="currentColor"/>
  </g>
  <defs>
    <clipPath id="clip0_6259_7948">
      <rect width="16" height="16" fill="white" transform="translate(0.840454)"/>
    </clipPath>
  </defs>
</svg>