<svg xmlns="http://www.w3.org/2000/svg" xmlns:xlink="http://www.w3.org/1999/xlink" width="166" height="58.204" viewBox="0 0 166 58.204">
  <defs>
    <clipPath id="clip-path">
      <rect id="Rectangle_1" data-name="Rectangle 1" width="166" height="58.204" fill="#fff"/>
    </clipPath>
  </defs>
  <g id="CH_Logo_RGB_1" data-name="CH_Logo_RGB 1" clip-path="url(#clip-path)">
    <path id="Path_1" data-name="Path 1" d="M694.663,25.592a11.783,11.783,0,0,0-3.968-8.023,11.921,11.921,0,0,0-8.369-3.19,11.748,11.748,0,0,0-8.983,3.917V1.651A1.458,1.458,0,0,0,671.691,0c-1.1,0-1.591.545-1.591,1.651V37.393a1.44,1.44,0,0,0,1.591,1.651,1.487,1.487,0,0,0,1.651-1.651v-11.8a9.12,9.12,0,0,1,15.4-5.4,8.323,8.323,0,0,1,2.689,6.3V37.393a1.44,1.44,0,0,0,1.651,1.591,1.464,1.464,0,0,0,.64-.069,1.481,1.481,0,0,0,.545-.337,1.376,1.376,0,0,0,.337-.545,1.464,1.464,0,0,0,.069-.64v-11.8Z" transform="translate(-612.164)" fill="#ec1562"/>
    <path id="Path_2" data-name="Path 2" d="M318.732,178.681a8.753,8.753,0,0,1,.648-3.484,8.61,8.61,0,0,1,1.98-2.94,8.912,8.912,0,0,1,6.476-2.7,9.181,9.181,0,0,1,9.1,9.121,8.983,8.983,0,0,1-9.113,9.121,8.963,8.963,0,0,1-8.447-5.611A9.2,9.2,0,0,1,318.732,178.681Zm-3.234,0a12.341,12.341,0,0,0,3.605,8.776,12.3,12.3,0,0,0,8.758,3.605,11.7,11.7,0,0,0,4.738-.865,11.963,11.963,0,0,0,4-2.689,12.09,12.09,0,0,0,2.715-4.038,11.926,11.926,0,0,0,.891-4.781,12.341,12.341,0,0,0-3.605-8.776,12.23,12.23,0,0,0-4.02-2.68,12.343,12.343,0,0,0-13.47,2.68,12.455,12.455,0,0,0-3.614,8.767Z" transform="translate(-288.221 -151.922)" fill="#039ec3"/>
    <path id="Path_3" data-name="Path 3" d="M-.029,179.03A12.117,12.117,0,0,0,12.335,191.42a11.743,11.743,0,0,0,9.286-4.288,2.065,2.065,0,0,0,.476-1.1,1.92,1.92,0,0,0-1.712-1.651,1.723,1.723,0,0,0-1.228.657,8.765,8.765,0,0,1-3.069,2.343,8.621,8.621,0,0,1-3.778.787,8.977,8.977,0,0,1-9.1-9.113,8.654,8.654,0,0,1,.657-3.493,8.758,8.758,0,0,1,1.989-2.94,8.874,8.874,0,0,1,6.467-2.7,8.66,8.66,0,0,1,6.657,2.94,1.475,1.475,0,0,0,.51.441,1.541,1.541,0,0,0,.648.173,2.1,2.1,0,0,0,1.133-.579,2.044,2.044,0,0,0,.579-1.133,1.768,1.768,0,0,0-.476-1.1,11.807,11.807,0,0,0-9.035-3.986,11.855,11.855,0,0,0-4.738.908,11.337,11.337,0,0,0-3.994,2.68A11.947,11.947,0,0,0,0,179.03" transform="translate(0.029 -152.272)" fill="#039ec3"/>
    <path id="Path_4" data-name="Path 4" d="M1020.88,173a9.17,9.17,0,0,1,6.908-.553,8.4,8.4,0,0,1,6.225,7.107h-17.888A8.725,8.725,0,0,1,1020.88,173Zm-6.424,1.738a12.407,12.407,0,0,0-1.772,6.432,12.07,12.07,0,0,0,.9,4.747,12.335,12.335,0,0,0,17.975,5.706,1.614,1.614,0,0,0,.6-.536,1.57,1.57,0,0,0,.259-.752c0-.8-.8-1.833-1.53-1.833a1.952,1.952,0,0,0-1.037.363,9.2,9.2,0,0,1-4.833,1.427,8.416,8.416,0,0,1-8.084-4.963,10.227,10.227,0,0,1-.856-2.507h19.678a1.444,1.444,0,0,0,1.591-1.651,12.327,12.327,0,0,0-2.326-7.332,12.2,12.2,0,0,0-6.234-4.487,12.625,12.625,0,0,0-3.8-.553,11.58,11.58,0,0,0-10.574,5.94" transform="translate(-925.128 -154.203)" fill="#ec1562"/>
    <path id="Path_5" data-name="Path 5" d="M1585.663,172.907a9.17,9.17,0,0,1,6.908-.553,8.426,8.426,0,0,1,6.234,7.107H1580.9a8.726,8.726,0,0,1,4.755-6.554Zm-6.407,1.738a12.406,12.406,0,0,0-1.772,6.432,12.026,12.026,0,0,0,.9,4.738,11.841,11.841,0,0,0,2.689,3.994,12.129,12.129,0,0,0,8.75,3.614,11.985,11.985,0,0,0,6.536-1.9,1.613,1.613,0,0,0,.6-.536,1.569,1.569,0,0,0,.259-.752c0-.8-.8-1.833-1.53-1.833a1.952,1.952,0,0,0-1.037.363,9.168,9.168,0,0,1-4.824,1.427,8.416,8.416,0,0,1-8.084-4.963,9.878,9.878,0,0,1-.856-2.507h19.687a1.444,1.444,0,0,0,1.591-1.651,12.328,12.328,0,0,0-2.326-7.332,12.2,12.2,0,0,0-6.234-4.487,12.625,12.625,0,0,0-3.8-.553,11.58,11.58,0,0,0-10.574,5.94" transform="translate(-1441.096 -154.111)" fill="#ec1562"/>
    <path id="Path_6" data-name="Path 6" d="M1385.884,135.82l-8.084-3.908-.225-.112.259,3a12.131,12.131,0,0,0-7.582,4.124,12.255,12.255,0,0,0-2.957,8.118v10.9a1.464,1.464,0,0,0,.069.64,1.482,1.482,0,0,0,.337.545,1.376,1.376,0,0,0,.545.337,1.786,1.786,0,0,0,2.282-1.522v-10.9a9.083,9.083,0,0,1,7.582-9.009l.294,3.381Z" transform="translate(-1249.073 -120.405)" fill="#ec1562"/>
    <path id="Path_7" data-name="Path 7" d="M781.823,576.2v-9.165h-2.049v3.726h-3.208v-3.726h-2.049V576.2h2.049v-3.467h3.225V576.2Zm-18.934-7.28v-1.9h-7.971v1.9h2.957v7.28h2.066v-7.28Zm-18.217,7.28v-1.945h-4.755v-7.211h-2.032v9.165h6.787Zm-21.909-3.571h-2.239l1.124-2.862Zm3.363,3.571-3.623-9.191H720.94l-3.8,9.191h2l.709-1.712h3.631l.631,1.712Zm-20.577,0v-1.9h-4.513v-1.738h3.692v-1.833h-3.7V568.9h4.366V567h-6.389v9.165Zm-18.736,0v-9.165h-2.049v3.726h-3.208v-3.726H679.5V576.2h2.049v-3.467h3.216V576.2Z" transform="translate(-620.752 -517.978)" fill="#6d6f72"/>
    <path id="Path_8" data-name="Path 8" d="M1866.292,125.492a2.338,2.338,0,1,1-.692,1.66A2.266,2.266,0,0,1,1866.292,125.492Zm1.66,3.8a2.017,2.017,0,0,0,1.5-.622,2.088,2.088,0,0,0,.623-1.522,2.055,2.055,0,0,0-.623-1.513,2.088,2.088,0,0,0-2.991,0,2.055,2.055,0,0,0-.622,1.513,2.083,2.083,0,0,0,.622,1.513A2.02,2.02,0,0,0,1867.952,129.3Zm.986-2.559a.783.783,0,0,1-.38.718l.493.9h-.648l-.38-.761h-.294v.761h-.6v-2.4h.891a1,1,0,0,1,.666.225A.742.742,0,0,1,1868.937,126.737Zm-1.21-.233v.571h.259a.387.387,0,0,0,.259-.078.239.239,0,0,0,.1-.207c0-.19-.121-.285-.354-.285Z" transform="translate(-1704.303 -114.01)" fill="#6d6f72"/>
  </g>
</svg>