<?xml version="1.0" encoding="UTF-8"?>
<svg version="1.1" xmlns="http://www.w3.org/2000/svg" width="32" height="32">
<path d="M0 0 C4.8846525 2.26787438 7.73212562 5.1153475 10 10 C10.75381535 15.5997712 10.77303575 20.33499991 8.375 25.5 C3.80134327 30.3143755 0.6912538 32.25156236 -6 32.5 C-12.6912538 32.25156236 -15.80134327 30.3143755 -20.375 25.5 C-22.77303575 20.33499991 -22.75381535 15.5997712 -22 10 C-17.52212837 0.3553534 -9.85292056 -1.32635469 0 0 Z M-14 10 C-15.93886856 12.52895899 -16.00575405 13.72955988 -15.9375 16.9375 C-14.7374274 20.85773716 -13.22391981 22.49250682 -10 25 C-7.10293293 26.24677006 -7.10293293 26.24677006 -4 26 C-0.87766323 24.37878668 1.29268021 22.92259103 3.4375 20.125 C4.26138749 17.01253614 3.94249038 15.07880192 3 12 C0.55358796 8.8546131 -1.18391233 7.29518065 -4.9375 5.9375 C-9.06114097 6.02165594 -10.87753996 7.37429497 -14 10 Z " fill="#40BDE8" transform="translate(22,0)"/>
<path d="M0 0 C9.68731919 -0.62054002 9.68731919 -0.62054002 14.4375 1.625 C17.89977472 4.83393755 20.74549224 7.49186712 21.2421875 12.38671875 C21.24915804 14.6068347 21.17699699 16.78753759 21 19 C20.54625 18.52304687 20.0925 18.04609375 19.625 17.5546875 C18.08049785 15.89871334 18.08049785 15.89871334 16 15.125 C14 14 14 14 12.625 11.5625 C11.16542503 8.77374 11.16542503 8.77374 8.125 7.5625 C4.2101709 5.60508545 2.61655601 3.46308883 0 0 Z " fill="#E292DF" transform="translate(11,0)"/>
<path d="M0 0 C2.03833424 1.2739589 4.03852126 2.61061923 6 4 C6 4.66 6 5.32 6 6 C4.38344011 6.94763856 2.73048602 7.83362216 1.0625 8.6875 C-2.60933389 10.65616565 -2.60933389 10.65616565 -4.88671875 13.94921875 C-5.20193342 16.06915228 -5.20193342 16.06915228 -5 19 C-5.66 19 -6.32 19 -7 19 C-8.98722286 15.02555429 -8.6777807 10.30919292 -8 6 C-5.92280725 3.05358198 -3.20639579 1.60319789 0 0 Z " fill="#327BE7" transform="translate(10,0)"/>
<path d="M0 0 C1.875 0.3125 1.875 0.3125 4 1 C6 4 6 4 5.9375 6.3125 C4.65800436 9.98038749 3.29054985 12.87292005 0 15 C-4.31819333 15.66050288 -9.01824879 15.9908756 -13 14 C-13 13.34 -13 12.68 -13 12 C-12.38511719 11.90203125 -11.77023437 11.8040625 -11.13671875 11.703125 C-6.16910209 10.86160783 -6.16910209 10.86160783 -2 8.25 C-0.78539856 5.51714677 -0.33666353 2.96263909 0 0 Z " fill="#3B8DEB" transform="translate(26,15)"/>
<path d="M0 0 C2.71875 -0.29296875 2.71875 -0.29296875 6 0 C8.34375 2.01171875 8.34375 2.01171875 10.5 4.6875 C13.78467877 8.60577163 16.95517106 11.88859312 21 15 C20.67 16.32 20.34 17.64 20 19 C19.34 18.01 18.68 17.02 18 16 C17.360625 15.71125 16.72125 15.4225 16.0625 15.125 C14 14 14 14 12.625 11.5625 C11.16542503 8.77374 11.16542503 8.77374 8.125 7.5625 C4.2101709 5.60508545 2.61655601 3.46308883 0 0 Z " fill="#A489E2" transform="translate(11,0)"/>
<path d="M0 0 C4.21042648 2.10521324 6.64097131 4.73144504 9.47265625 8.37890625 C11.16559578 10.17576023 12.74830905 11.02668843 15 12 C15 12.33 15 12.66 15 13 C8.83142002 12.6298852 6.24224897 11.24224897 2 7 C0.24329531 4.28509275 0 3.28565953 0 0 Z " fill="#72F2D0" transform="translate(0,19)"/>
<path d="M0 0 C0.97744926 3.04095325 1.16271218 4.99632687 0 8 C-1.35629969 10.15412304 -2.43100616 10.86824528 -4.90625 11.44140625 C-10.5125 12.24375 -10.5125 12.24375 -13 11 C-13 10.34 -13 9.68 -13 9 C-12.38511719 8.90203125 -11.77023437 8.8040625 -11.13671875 8.703125 C-6.09506893 7.87403825 -6.09506893 7.87403825 -2 5.0625 C-0.89087006 2.8881755 -0.89087006 2.8881755 0 0 Z " fill="#1789EB" transform="translate(26,18)"/>
<path d="M0 0 C-0.66 2.31 -1.32 4.62 -2 7 C-1.34 6.67 -0.68 6.34 0 6 C-0.66 9.3 -1.32 12.6 -2 16 C-2.66 16 -3.32 16 -4 16 C-5.29004296 13.41991408 -5.20410224 11.44258426 -5.25 8.5625 C-5.27578125 7.59441406 -5.3015625 6.62632813 -5.328125 5.62890625 C-5 3 -5 3 -3.609375 1.15234375 C-2 0 -2 0 0 0 Z " fill="#2898EE" transform="translate(7,3)"/>
<path d="M0 0 C1.32 0.33 2.64 0.66 4 1 C4.36923077 6.53846154 4.36923077 6.53846154 2.5 8.875 C1.7575 9.431875 1.7575 9.431875 1 10 C-0.1577506 6.52674819 -0.06866652 3.63932552 0 0 Z " fill="#3274E5" transform="translate(26,15)"/>
<path d="M0 0 C-1.72862285 4.55727842 -4.81669715 5.90834857 -9 8 C-7.53356282 2.37865749 -7.53356282 2.37865749 -5.0625 0.625 C-3 0 -3 0 0 0 Z " fill="#127CE8" transform="translate(13,3)"/>
<path d="M0 0 C1 2 1 2 0.5 4.9375 C-0.24846895 8.02952435 -0.24846895 8.02952435 1 11 C-0.65 10.67 -2.3 10.34 -4 10 C-3.34 9.67 -2.68 9.34 -2 9 C-2.04125 7.88625 -2.0825 6.7725 -2.125 5.625 C-2 2 -2 2 0 0 Z " fill="#3AB1F2" transform="translate(7,10)"/>
<path d="M0 0 C-0.33 0.99 -0.66 1.98 -1 3 C-3.31 2.67 -5.62 2.34 -8 2 C-8 1.34 -8 0.68 -8 0 C-2.25 -1.125 -2.25 -1.125 0 0 Z " fill="#1DA7F0" transform="translate(21,27)"/>
<path d="M0 0 C2.25 0.125 2.25 0.125 5 1 C7.3125 4.0625 7.3125 4.0625 9 7 C6.62051228 6.82374165 5.29774151 6.30280227 3.62109375 4.59765625 C2.37884514 3.09350908 1.18623944 1.54870149 0 0 Z " fill="#7882E4" transform="translate(11,0)"/>
<path d="M0 0 C-1.1875 1.5 -1.1875 1.5 -3 3 C-5.6875 3.1875 -5.6875 3.1875 -8 3 C-8.33 2.34 -8.66 1.68 -9 1 C-5.92677456 0.08941469 -3.19902639 -0.08886184 0 0 Z " fill="#35ABF2" transform="translate(25,29)"/>
<path d="M0 0 C1.5 1.125 1.5 1.125 3 3 C3.1875 6.1875 3.1875 6.1875 3 9 C2.34 9 1.68 9 1 9 C-0.4783226 6.04335481 -0.06032783 3.25770263 0 0 Z " fill="#1DA8F1" transform="translate(2,10)"/>
<path d="M0 0 C2.97 0.495 2.97 0.495 6 1 C6.33 2.65 6.66 4.3 7 6 C6.5875 5.54625 6.175 5.0925 5.75 4.625 C3.93591905 2.94049626 2.24714373 2.00734029 0 1 C0 0.67 0 0.34 0 0 Z " fill="#9785E2" transform="translate(25,13)"/>
<path d="M0 0 C0.33 0.66 0.66 1.32 1 2 C-5.75 6 -5.75 6 -8 6 C-7.67 5.01 -7.34 4.02 -7 3 C-3.4375 1.3125 -3.4375 1.3125 0 0 Z " fill="#3A8CEA" transform="translate(15,4)"/>
</svg>
