<svg t="1733464388763" class="icon" viewBox="0 0 1024 1024" version="1.1" xmlns="http://www.w3.org/2000/svg" p-id="17141" width="200" height="200"><path d="M341.79584 699.65824c-29.97248 9.87648-19.968 29.62432-19.968 29.62432 19.968 79.02208 259.6352-108.64128 269.63456-138.29632 9.96864-29.6192-19.96288-19.74784-19.96288-19.74784-139.75552 118.48704-229.6064 128.41984-229.70368 128.41984zM512 1019.97056C231.44448 1019.97056 4.03456 792.56064 4.03456 512 4.03456 231.44448 231.44448 4.03456 512 4.03456c280.56064 0 507.97056 227.40992 507.97056 507.96544 0 280.56064-227.40992 507.97056-507.97056 507.97056zM490.3168 474.69568c40.73472-2.19136 81.18272-2.22208 81.18272-2.22208 89.87648 9.87648 89.87648-59.27424 89.87648-59.27424V363.8272c0-39.49056-29.97248-88.89344-119.81824-88.89344-89.87648 0-109.84448 9.87136-109.84448 9.87136-39.94112 9.87648-29.97248 29.62432-29.97248 29.62432 9.99936 19.74784 39.936 9.87136 39.936 9.87136 59.90912-19.74272 119.81824-9.87136 119.81824-9.87136 59.904 0 59.904 49.39776 59.904 49.39776v49.37216c0 29.62432-29.96736 29.62432-29.96736 29.62432H421.67808c-29.97248 0-29.97248-29.62432-29.97248-29.62432V344.05376c0-19.74784-19.968-19.74784-19.968-19.74784-19.968 0-19.968 19.74784-19.968 19.74784V432.9472c9.99936 49.39776 69.90848 49.39776 69.90848 49.39776 6.7584-1.68448 15.58528-3.08224 25.5232-4.224-12.63616 14.7968-52.63872 53.59104-125.37344 53.59104 0 0-29.97248 0-29.97248 19.74272 0 0 0 19.74784 29.97248 19.74784 29.65504 0.07168 127.78496-19.38944 168.48896-96.50688z m-136.51456 220.99456l-4.15744 1.37216c1.64352-0.512 3.13856-1.01888 4.15744-1.37216z m187.7248-213.30944s-19.968 0-19.968 19.74272c0 0 0.06656 4.60288 2.28352 9.3696-0.768 0.13312-1.53088 0.3072-2.28352 0.50688-129.81248 118.51264-199.72608 108.6464-199.72608 108.6464-19.968 0-19.968 19.74272-19.968 19.74272 9.99936 79.02208 229.66272-79.02208 239.6672-108.64128a30.06976 30.06976 0 0 0 1.81248-9.84576c10.73152 0.28672 71.68512 3.52256 108.04224 39.46496 39.936 39.49568-9.99936 128.38912-79.87712 138.2912 0 0-29.97248 0-39.94624-19.74272 0 0-19.968-9.87648-19.968 9.87648 0 0 0 59.27424 49.93536 59.27424 49.94048 0 139.82208-39.5008 149.79072-148.16768-0.03584-0.00512-0.03584-118.51776-169.79456-118.51776z m9.96864-88.89344s29.97248 0 29.97248-19.74784c0 0 0-19.74784-29.97248-19.74784H451.64544s-29.97248 0-29.97248 19.74784c0 0 0 19.74784 29.97248 19.74784h99.85024z" fill="#F30B40" p-id="17142"></path></svg>