<?xml version="1.0" encoding="UTF-8"?>
<svg version="1.1" xmlns="http://www.w3.org/2000/svg" width="16" height="16">
<path d="M0 0 C5.28 0 10.56 0 16 0 C16 5.28 16 10.56 16 16 C10.72 16 5.44 16 0 16 C0 10.72 0 5.44 0 0 Z " fill="#5FBFE0" transform="translate(0,0)"/>
<path d="M0 0 C3.03063487 0.58929011 6.0017825 1.25044562 9 2 C9 5.63 9 9.26 9 13 C4.80825346 11.95206337 3.78407039 11.08236365 1 8 C2.20381448 10.49361571 3.45428722 12.68143083 5 15 C2.33333333 14.33333333 -0.33333333 13.66666667 -3 13 C-3 9.37 -3 5.74 -3 2 C0.48763093 3.74381547 3.03368051 5.52806709 6 8 C6 7.01 6 6.02 6 5 C5.38125 4.731875 4.7625 4.46375 4.125 4.1875 C2 3 2 3 0 0 Z " fill="#030306" transform="translate(5,0)"/>
<path d="M0 0 C2.31 0 4.62 0 7 0 C7 5.28 7 10.56 7 16 C4.36 16 1.72 16 -1 16 C-1 15.01 -1 14.02 -1 13 C-2.43750191 11.31201173 -2.43750191 11.31201173 -4 10 C-3.67 9.01 -3.34 8.02 -3 7 C-2.236875 7.804375 -1.47375 8.60875 -0.6875 9.4375 C1.79430898 12.16799024 1.79430898 12.16799024 5 13 C5 9.37 5 5.74 5 2 C3.35 1.67 1.7 1.34 0 1 C0 0.67 0 0.34 0 0 Z " fill="#3479CF" transform="translate(9,0)"/>
<path d="M0 0 C3.03063487 0.58929011 6.0017825 1.25044562 9 2 C9 5.63 9 9.26 9 13 C8.34 11.68 7.68 10.36 7 9 C6.34 8.67 5.68 8.34 5 8 C5.33 7.01 5.66 6.02 6 5 C5.38125 4.731875 4.7625 4.46375 4.125 4.1875 C2 3 2 3 0 0 Z " fill="#0D1D2C" transform="translate(5,0)"/>
<path d="M0 0 C0.99 0.495 0.99 0.495 2 1 C2.33333333 2.33333333 2.66666667 3.66666667 3 5 C4.54960427 7.76233805 6.24269692 10.36404538 8 13 C5.33333333 12.33333333 2.66666667 11.66666667 0 11 C0 7.37 0 3.74 0 0 Z " fill="#080F17" transform="translate(2,2)"/>
<path d="M0 0 C1.14926266 0.95421808 2.29430541 1.91352045 3.4375 2.875 C4.07558594 3.40867187 4.71367187 3.94234375 5.37109375 4.4921875 C7 6 7 6 8 8 C4.21479387 7.45925627 2.40822445 5.92427254 0 3 C0 2.01 0 1.02 0 0 Z " fill="#327DDB" transform="translate(5,7)"/>
</svg>
