<?xml version="1.0" encoding="UTF-8"?>
<svg version="1.1" xmlns="http://www.w3.org/2000/svg" width="988" height="1002">
<path d="M0 0 C326.04 0 652.08 0 988 0 C988 330.66 988 661.32 988 1002 C661.96 1002 335.92 1002 0 1002 C0 671.34 0 340.68 0 0 Z " fill="#000000" transform="translate(0,0)"/>
<path d="M0 0 C1.02170632 -0.00679667 1.02170632 -0.00679667 2.06405318 -0.01373065 C4.3455564 -0.02638703 6.62682128 -0.02475351 8.90835571 -0.02310181 C10.54451301 -0.02908629 12.18066748 -0.03589165 13.81681824 -0.04345703 C18.26107246 -0.06113229 22.70524968 -0.06581305 27.14953566 -0.0670886 C30.85977417 -0.0689877 34.56999474 -0.07634535 38.28022635 -0.08343279 C47.03404564 -0.09972009 55.78782379 -0.10460143 64.54165649 -0.10317993 C73.57124022 -0.10197833 82.60058499 -0.12308304 91.63010824 -0.15466726 C99.38309617 -0.18081977 107.13600602 -0.19154766 114.88903773 -0.19026911 C119.51929473 -0.18975918 124.14933939 -0.19545938 128.77955246 -0.21662521 C133.13479427 -0.23599042 137.48962078 -0.23614397 141.84487724 -0.22159195 C143.44202341 -0.21950062 145.03919544 -0.2242241 146.63629723 -0.23631287 C148.81962373 -0.25176665 151.00151845 -0.24245838 153.18481445 -0.22705078 C154.40560385 -0.22814032 155.62639324 -0.22922985 156.88417625 -0.2303524 C163.60218248 0.7723043 167.32148075 5.14445796 171.21939087 10.26742554 C172.65307651 13.13479683 172.34414547 15.58850267 172.34536743 18.79330444 C172.34816963 19.79859192 172.34816963 19.79859192 172.35102844 20.82418823 C172.35503594 22.28214762 172.3571076 23.74011331 172.35749054 25.19807816 C172.36090717 28.30431297 172.38227714 31.4103387 172.40272141 34.51650047 C172.44070881 40.29987602 172.47201318 46.08303211 172.46987915 51.86654663 C172.46908914 55.88919897 172.49258247 59.91109066 172.53176117 63.93354416 C172.54218353 65.46199493 172.54377301 66.99053391 172.53610992 68.51900101 C172.41346577 80.32878861 172.41346577 80.32878861 178.21939087 90.26742554 C182.45324417 94.12770355 186.17435254 94.39298704 191.76699829 94.40927124 C192.4275824 94.41274567 193.0881665 94.41622009 193.76876831 94.4197998 C195.20269621 94.42714699 196.6366354 94.4324979 198.07057762 94.43609047 C200.34564221 94.44327239 202.62049317 94.45895342 204.89549255 94.47743225 C211.36386109 94.52980825 217.83211384 94.57782947 224.3006897 94.59335327 C228.25958621 94.60347616 232.21794618 94.63291114 236.17663002 94.67467308 C237.67995443 94.68692973 239.18335482 94.69211414 240.68672752 94.68987465 C257.56358286 94.67092718 257.56358286 94.67092718 264.05923462 101.08383179 C264.42146118 101.66004272 264.78368774 102.23625366 265.15689087 102.82992554 C265.53716431 103.4087146 265.91743774 103.98750366 266.30923462 104.58383179 C267.9794106 107.67329894 268.34618395 110.23491189 268.35640526 113.67473888 C268.36401707 115.03482249 268.36401707 115.03482249 268.37178266 116.42238253 C268.37228042 117.41983361 268.37277817 118.41728468 268.37329102 119.44496155 C268.37767327 120.50360391 268.38205552 121.56224627 268.38657057 122.6529687 C268.39997847 126.21805959 268.40614191 129.78312575 268.41226196 133.34823608 C268.42016133 135.89724337 268.42843018 138.44624954 268.43704224 140.99525452 C268.46101495 148.65743266 268.4761926 156.31960959 268.4891023 163.9818134 C268.4928146 166.14611611 268.4967878 168.31041817 268.50085497 170.47472024 C268.52609176 183.91603822 268.54814389 197.35735722 268.56058311 210.79869366 C268.56351279 213.91188752 268.56647446 217.02508136 268.56948853 220.13827515 C268.57023458 220.91204 268.57098063 221.68580485 268.57174928 222.48301712 C268.58440151 235.01608609 268.61762308 247.54901314 268.65929036 260.08201578 C268.70172287 272.95073155 268.72527966 285.81937469 268.73050368 298.68816024 C268.7339163 305.91298403 268.74565373 313.13758603 268.77860641 320.36234093 C268.80955751 327.15937418 268.81501643 333.95595348 268.80322266 340.75306892 C268.80300151 343.24757706 268.81134035 345.74210288 268.8288765 348.23654938 C268.85152128 351.64315704 268.84329318 355.04835676 268.82739258 358.45497131 C268.84127467 359.44126878 268.85515675 360.42756625 268.86945951 361.44375151 C268.77920558 369.29586308 266.09746731 373.62186205 261.34439087 379.64242554 C256.65546084 383.22807792 250.9978567 383.51666504 245.27774048 383.52279663 C244.29579964 383.52822731 244.29579964 383.52822731 243.29402161 383.5337677 C241.88581157 383.54061199 240.4775753 383.54317656 239.06934929 383.54182053 C236.83643297 383.54084766 234.60398801 383.55388459 232.37113953 383.57080078 C226.02754265 383.61685593 219.68399909 383.64168505 213.34024048 383.64828491 C209.44809099 383.65330861 205.55644115 383.67759267 201.66446114 383.7136116 C200.18738369 383.72338147 198.71023732 383.72575692 197.23313713 383.72043991 C195.16543192 383.71334195 193.09921168 383.7307012 191.03164673 383.75326538 C189.85807114 383.75611542 188.68449554 383.75896545 187.47535706 383.76190186 C182.83256653 384.48274489 179.90993985 386.64680414 176.56085205 389.85736084 C171.87144167 396.54446563 172.54541593 404.11235393 172.61782837 411.93148804 C172.61232018 413.45268893 172.60418836 414.97388236 172.59356689 416.49505615 C172.57077913 420.48114091 172.57486425 424.46667511 172.58737183 428.45278931 C172.60574367 434.8383621 172.59563489 441.22361521 172.56151199 447.60911179 C172.55543352 449.83056068 172.56863121 452.05131115 172.58349609 454.27270508 C172.58054691 455.6415525 172.57689152 457.01039865 172.57241821 458.37924194 C172.57838516 460.16172836 172.57838516 460.16172836 172.58447266 461.98022461 C171.99154917 467.318915 169.86669152 471.20569628 165.71939087 474.57992554 C165.13157837 475.07105835 164.54376587 475.56219116 163.93814087 476.06820679 C160.30769441 478.60126829 156.8941586 478.40161441 152.61045837 478.42132568 C151.93566993 478.42570794 151.26088149 478.43009019 150.56564492 478.43460524 C148.2995893 478.44798296 146.03357257 478.45416979 143.76748657 478.46029663 C142.14457524 478.46819847 140.52166566 478.47646747 138.89875793 478.4850769 C133.56424638 478.51128954 128.22972701 478.52660467 122.89517212 478.54086304 C121.05813276 478.5462232 119.22109345 478.55160071 117.38405418 478.55699539 C109.74149537 478.57862379 102.09893867 478.59735982 94.456357 478.60861778 C83.50759524 478.62485249 72.5591886 478.65801907 61.61056072 478.71501863 C53.91022657 478.75373872 46.20998732 478.77325297 38.50955838 478.77853835 C33.91156372 478.78218922 29.3139479 478.79418216 24.71605873 478.82664108 C20.38786813 478.85675792 16.06028488 478.86302083 11.7320118 478.85125732 C10.14697758 478.85103688 8.56191489 478.85931754 6.9769783 478.87691116 C-8.76980561 479.04213655 -8.76980561 479.04213655 -14.78060913 473.26742554 C-19.40633919 467.57421931 -19.90095045 462.8175633 -19.92245483 455.66049194 C-19.93300652 453.68286362 -19.93300652 453.68286362 -19.94377136 451.6652832 C-19.94558725 450.96545948 -19.94740314 450.26563576 -19.94927406 449.54460526 C-19.95648172 447.34106385 -19.97217932 445.13773973 -19.99061584 442.93426514 C-20.04288796 436.67165071 -20.0910464 430.40915979 -20.10653687 424.14633179 C-20.11664948 420.30831892 -20.14605077 416.47086109 -20.18785667 412.63306808 C-20.20011972 411.17636701 -20.20529654 409.71958743 -20.20305824 408.26283646 C-19.95895373 397.49570164 -19.95895373 397.49570164 -24.78060913 388.26742554 C-30.70037785 383.17184332 -37.4013192 383.70801191 -44.86952019 383.75100517 C-47.09482696 383.76373014 -49.3189104 383.75226036 -51.54417419 383.73497009 C-55.4685803 383.70835381 -59.3926826 383.70267098 -63.31716919 383.70407104 C-69.59354844 383.7063048 -75.86955113 383.69195585 -82.14578438 383.64848518 C-84.32609909 383.63871798 -86.50581001 383.64732644 -88.68611145 383.65718079 C-104.10914877 383.63506092 -104.10914877 383.63506092 -109.28633118 378.88630676 C-112.90904407 374.7685728 -115.02907723 371.18338183 -115.03508472 365.700243 C-115.04091692 364.78332935 -115.04674911 363.86641571 -115.05275804 362.92171681 C-115.04897871 361.91803244 -115.04519939 360.91434807 -115.04130554 359.88024902 C-115.04513109 358.811174 -115.04895664 357.74209898 -115.05289811 356.64062774 C-115.06324457 353.04628815 -115.05923278 349.45210781 -115.05526733 345.85775757 C-115.05961291 343.28565319 -115.06479553 340.71355012 -115.070755 338.14144897 C-115.08351294 331.87277661 -115.08529431 325.60414706 -115.08295474 319.3354639 C-115.08117252 314.24025838 -115.08291917 309.14506587 -115.08717918 304.04986191 C-115.08777437 303.32499156 -115.08836956 302.60012121 -115.08898279 301.8532851 C-115.09019453 300.38075162 -115.09140866 298.90821814 -115.09262516 297.43568467 C-115.10350507 283.62179476 -115.10133617 269.80792926 -115.09524032 255.99403797 C-115.09007166 243.35625566 -115.10132442 230.71855044 -115.12033854 218.08078338 C-115.13971038 205.10581809 -115.14797403 192.13088927 -115.14421529 179.15590942 C-115.14230213 171.87087269 -115.14480186 164.58590156 -115.15892982 157.30087662 C-115.1720802 150.45055737 -115.16959245 143.60039503 -115.15651894 136.75007629 C-115.15414701 134.23377811 -115.15690976 131.71746915 -115.16514206 129.20118332 C-115.17555889 125.77013111 -115.16754907 122.33960242 -115.15483093 118.90856934 C-115.16220522 117.90934641 -115.1695795 116.91012348 -115.17717725 115.88062108 C-115.13581813 110.58842303 -114.78851118 106.81987716 -111.78060913 102.26742554 C-106.13342496 96.86577112 -101.85577246 95.02038183 -94.0977478 95.01205444 C-93.12106392 95.00662376 -93.12106392 95.00662376 -92.12464905 95.00108337 C-90.71749962 94.99421625 -89.31032372 94.99167888 -87.90315819 94.99303055 C-85.66985139 94.99400051 -83.43701973 94.98099775 -81.20378113 94.96405029 C-74.85662514 94.91792606 -68.50951888 94.89318855 -62.16220093 94.88656616 C-58.27234898 94.88153039 -54.38299406 94.85717705 -50.49331093 94.82123947 C-49.01788642 94.81148931 -47.54239313 94.80908325 -46.06694603 94.81441116 C-34.68827413 95.12544569 -34.68827413 95.12544569 -24.78060913 90.26742554 C-19.62178071 84.42592355 -20.22136643 77.61702493 -20.26418877 70.17851448 C-20.27691374 67.95320771 -20.26544396 65.72912427 -20.24815369 63.50386047 C-20.2215374 59.57945437 -20.21585457 55.65535207 -20.21725464 51.73086548 C-20.2194884 45.45448623 -20.20513945 39.17848354 -20.16166878 32.90225029 C-20.15190157 30.72193558 -20.16051003 28.54222466 -20.17036438 26.36192322 C-20.14824451 10.9388859 -20.14824451 10.9388859 -15.39949036 5.76170349 C-10.32907951 1.30084154 -6.68515087 0.01836549 0 0 Z " fill="#FEFEFE" transform="translate(416.7806091308594,299.7325744628906)"/>
<path d="M0 0 C0.67141045 -0.00367669 1.34282091 -0.00735338 2.03457713 -0.01114148 C4.28915207 -0.02217318 6.54368092 -0.02602127 8.79827881 -0.02983093 C10.41296027 -0.03609597 12.02764029 -0.04274281 13.64231873 -0.04974365 C18.94917802 -0.07078151 24.2560376 -0.08114571 29.56292725 -0.09111023 C31.39008347 -0.09515787 33.21723954 -0.0992748 35.04439545 -0.10346031 C43.62848548 -0.1225113 52.21256691 -0.13674258 60.79667401 -0.14507228 C70.70426354 -0.15484506 80.61162967 -0.181166 90.51914048 -0.22157317 C98.17784764 -0.25173644 105.83649078 -0.26654135 113.49525619 -0.26985329 C118.06912505 -0.27220354 122.64275524 -0.28116055 127.21656036 -0.30631447 C131.52088672 -0.32960394 135.8248174 -0.33382499 140.12919044 -0.32355309 C141.70657226 -0.32305783 143.2839736 -0.32937542 144.8612957 -0.34310913 C160.38668331 -0.47069478 160.38668331 -0.47069478 167.16448975 5.74482727 C170.28274576 9.77705487 171.54577257 12.53848454 171.55373001 17.59130573 C171.55757116 18.50622833 171.5614123 19.42115092 171.56536984 20.36379844 C171.56450336 21.37039565 171.56363688 22.37699286 171.56274414 23.41409302 C171.56571526 24.48231362 171.56868639 25.55053421 171.57174754 26.65112513 C171.58045392 30.24852912 171.58194443 33.8458999 171.58343506 37.4433136 C171.58806184 40.01526969 171.5930863 42.58722509 171.59848022 45.15917969 C171.61206561 52.15917992 171.61808856 59.15917443 171.62249088 66.15918565 C171.6252529 70.5294108 171.62949018 74.89963375 171.63399506 79.26985741 C171.64618789 91.36802564 171.65648724 103.4661921 171.65987015 115.56436634 C171.6601995 116.72596546 171.6601995 116.72596546 171.6605355 117.91103123 C171.66075378 118.68729054 171.66097205 119.46354986 171.66119695 120.26333219 C171.66164041 121.83634683 171.66208698 123.40936146 171.66253662 124.9823761 C171.66286877 126.15278215 171.66286877 126.15278215 171.66320762 127.34683277 C171.66715597 139.99114103 171.68461104 152.63539167 171.70789614 165.27967767 C171.73160568 178.25912635 171.74407181 191.23854611 171.74523807 204.2180168 C171.74615504 211.50642801 171.75191299 218.79476414 171.77005768 226.08315468 C171.78706172 232.93755538 171.78871426 239.79181129 171.77991867 246.64622688 C171.77914606 249.16414013 171.78352033 251.68206091 171.79337692 254.19995499 C171.80603033 257.63324084 171.80025521 261.06601622 171.78979492 264.4992981 C171.80187953 265.99915566 171.80187953 265.99915566 171.81420827 267.52931339 C171.77638237 272.82590085 171.42844831 276.58854677 168.42230225 281.14717102 C162.66267393 286.7788076 157.59073269 288.39393746 149.64242554 288.40786743 C148.98549158 288.41169298 148.32855763 288.41551853 147.65171659 288.41946 C145.46399692 288.42972789 143.27654276 288.4258098 141.08880615 288.42182922 C139.5147121 288.42617917 137.94062017 288.43136326 136.36653137 288.43731689 C132.09993273 288.45068837 127.83342278 288.45128758 123.56680727 288.4487536 C120.00080702 288.44768254 116.4348246 288.45257075 112.86882818 288.45735902 C104.45337102 288.468448 96.03795849 288.46889516 87.62249756 288.46284485 C78.95081184 288.45680601 70.27928841 288.46911516 61.60763037 288.49041492 C54.15350774 288.50804857 46.69943669 288.51402946 39.24529397 288.51077718 C34.79724932 288.50896684 30.34932042 288.51157542 25.90129471 288.52549171 C21.7167897 288.53809402 17.53253707 288.53610333 13.34803581 288.52308083 C11.81623562 288.52072064 10.28441753 288.52342967 8.75263786 288.53170395 C-8.11748032 288.61622903 -8.11748032 288.61622903 -15.39019775 282.95967102 C-20.5927012 276.27073801 -21.01590185 269.64785593 -20.96537781 261.48898315 C-20.97076335 260.43902489 -20.97614888 259.38906663 -20.98169762 258.30729145 C-20.99596494 254.80140495 -20.9888763 251.29589667 -20.98175049 247.78999329 C-20.98745466 245.27142534 -20.9944191 242.75285999 -21.00254822 240.23429871 C-21.0186269 234.11085487 -21.02058141 227.98754989 -21.01533531 221.86409134 C-21.01128792 216.885325 -21.01274392 211.90658893 -21.01808357 206.92782402 C-21.01883199 206.21823861 -21.01958042 205.50865319 -21.02035152 204.77756519 C-21.02188305 203.33588004 -21.0234214 201.89419489 -21.02496649 200.45250975 C-21.03868252 186.94418759 -21.03326007 173.43592341 -21.02178127 159.92760258 C-21.01184894 147.57983482 -21.02479112 135.23221691 -21.04871546 122.88447226 C-21.07311979 110.19299067 -21.08271112 97.50157884 -21.07606274 84.81007427 C-21.07257359 77.68986238 -21.07478247 70.56976572 -21.09231377 63.44957161 C-21.10859505 56.75426115 -21.10383347 50.05928233 -21.08500862 43.36396408 C-21.08132124 40.90858833 -21.08443547 38.4531914 -21.09489441 35.99783516 C-21.10809502 32.64234115 -21.09656377 29.28779595 -21.0789032 25.93234253 C-21.0885082 24.96404135 -21.09811321 23.99574017 -21.10800928 22.99809653 C-21.04036243 16.73802932 -19.99708032 11.48797815 -16.57769775 6.14717102 C-11.50633868 1.30662481 -6.85300454 0.02430571 0 0 Z " fill="#000000" transform="translate(417.57769775390625,394.8528289794922)"/>
</svg>
