<svg xmlns="http://www.w3.org/2000/svg" width="20" height="20" viewBox="0 0 20 20" fill="none">
  <path d="M19.3482 9.94739C19.5559 10.4107 19.6877 10.9059 19.7416 11.4111C19.7935 11.9164 19.7676 12.4276 19.6597 12.9248C19.5539 13.4221 19.3702 13.8993 19.1146 14.3387C18.9468 14.6322 18.7491 14.9078 18.5215 15.1614C18.2958 15.413 18.0442 15.6407 17.7706 15.8404C17.495 16.0401 17.2015 16.2078 16.89 16.3456C16.5804 16.4814 16.2569 16.5852 15.9254 16.6531C15.7697 17.1364 15.538 17.5937 15.2385 18.0051C14.941 18.4164 14.5795 18.7779 14.1681 19.0754C13.7568 19.375 13.3015 19.6066 12.8182 19.7624C12.3349 19.9201 11.8297 19.998 11.3205 19.998C10.983 20 10.6435 19.9641 10.312 19.8962C9.98254 19.8263 9.65904 19.7204 9.34951 19.5826C9.03998 19.4449 8.74643 19.2731 8.47285 19.0734C8.20127 18.8737 7.94965 18.6441 7.72599 18.3905C7.22676 18.4983 6.71554 18.5243 6.21031 18.4723C5.70509 18.4184 5.20985 18.2866 4.74456 18.0789C4.28127 17.8733 3.85192 17.5937 3.4745 17.2522C3.09708 16.9107 2.77557 16.5113 2.52196 16.072C2.35222 15.7785 2.21243 15.4689 2.10659 15.1474C2.00076 14.8259 1.93086 14.4944 1.89492 14.1569C1.85897 13.8215 1.86097 13.482 1.89692 13.1445C1.93286 12.809 2.00675 12.4775 2.11259 12.156C1.77311 11.7786 1.49353 11.3492 1.28585 10.886C1.08017 10.4207 0.946371 9.92742 0.89445 9.42219C0.840533 8.91697 0.86849 8.40575 0.974328 7.90851C1.08017 7.41127 1.26388 6.934 1.51949 6.49467C1.68724 6.20112 1.88493 5.92355 2.11059 5.67193C2.33624 5.42032 2.58986 5.19267 2.86344 4.99297C3.13702 4.79328 3.43257 4.62354 3.74209 4.48774C4.05362 4.34995 4.37712 4.24811 4.70861 4.18021C4.86437 3.69496 5.09602 3.23965 5.39356 2.82828C5.69311 2.41691 6.05455 2.05547 6.46592 1.75593C6.87729 1.45838 7.3326 1.22674 7.81586 1.06898C8.29912 0.913215 8.80434 0.833337 9.31357 0.835334C9.65105 0.833337 9.99053 0.867285 10.322 0.937178C10.6535 1.00707 10.977 1.11091 11.2865 1.2487C11.5961 1.38849 11.8896 1.55823 12.1632 1.75792C12.4368 1.95961 12.6884 2.18726 12.9121 2.44088C13.4093 2.33504 13.9205 2.30908 14.4257 2.361C14.931 2.41292 15.4242 2.54671 15.8895 2.7524C16.3528 2.96008 16.7821 3.23766 17.1596 3.57913C17.537 3.91862 17.8585 4.31601 18.1121 4.75733C18.2818 5.04889 18.4216 5.35841 18.5275 5.68192C18.6333 6.00342 18.7052 6.33492 18.7391 6.6724C18.7751 7.00988 18.7751 7.34936 18.7371 7.68685C18.7012 8.02433 18.6273 8.35582 18.5215 8.67733C18.8629 9.05476 19.1405 9.4821 19.3482 9.94739ZM12.6944 18.4723C13.1297 18.2926 13.5251 18.027 13.8586 17.6935C14.1921 17.36 14.4577 16.9646 14.6374 16.5273C14.8171 16.092 14.911 15.6247 14.911 15.1534V10.7002C14.9097 10.6962 14.9083 10.6916 14.907 10.6863C14.9057 10.6823 14.9037 10.6783 14.901 10.6743C14.8983 10.6703 14.895 10.667 14.891 10.6643C14.887 10.6603 14.883 10.6576 14.879 10.6563L13.2675 9.72573V15.1055C13.2675 15.1594 13.2595 15.2153 13.2455 15.2672C13.2316 15.3212 13.2116 15.3711 13.1836 15.419C13.1557 15.4669 13.1237 15.5109 13.0838 15.5488C13.045 15.5875 13.0014 15.6211 12.954 15.6487L9.13783 17.8513C9.10588 17.8713 9.05196 17.8992 9.02401 17.9152C9.18177 18.049 9.3535 18.1668 9.53323 18.2706C9.71495 18.3745 9.90266 18.4624 10.0984 18.5342C10.2941 18.6041 10.4958 18.6581 10.6994 18.694C10.9051 18.7299 11.1128 18.7479 11.3205 18.7479C11.7918 18.7479 12.2591 18.6541 12.6944 18.4723ZM3.6063 15.449C3.84394 15.8583 4.15746 16.2138 4.53088 16.5014C4.90631 16.7889 5.33166 16.9986 5.78696 17.1204C6.24227 17.2422 6.71754 17.2742 7.18482 17.2123C7.65211 17.1504 8.10142 16.9986 8.51079 16.763L12.3689 14.5364L12.3789 14.5264C12.3815 14.5237 12.3835 14.5197 12.3849 14.5144C12.3875 14.5104 12.3895 14.5064 12.3909 14.5024V12.6253L7.73398 15.3192C7.68606 15.3471 7.63613 15.3671 7.58421 15.3831C7.53029 15.397 7.47638 15.403 7.42046 15.403C7.36655 15.403 7.31263 15.397 7.25871 15.3831C7.20679 15.3671 7.15487 15.3471 7.10694 15.3192L3.29078 13.1145C3.25683 13.0946 3.20691 13.0646 3.17895 13.0466C3.14301 13.2523 3.12504 13.46 3.12504 13.6677C3.12504 13.8754 3.14501 14.0831 3.18095 14.2887C3.2169 14.4924 3.27281 14.6941 3.3427 14.8898C3.41459 15.0855 3.50246 15.2732 3.6063 15.453V15.449ZM2.60383 7.12171C2.36819 7.53109 2.21643 7.9824 2.15452 8.44968C2.09262 8.91697 2.12457 9.39024 2.24638 9.84754C2.36819 10.3028 2.57787 10.7282 2.86543 11.1036C3.15299 11.477 3.51045 11.7906 3.91782 12.0262L7.77392 14.2548C7.77792 14.2561 7.78257 14.2575 7.7879 14.2588H7.80188C7.8072 14.2588 7.81186 14.2575 7.81586 14.2548C7.81985 14.2535 7.82384 14.2515 7.82784 14.2488L9.44536 13.3142L4.78849 10.6263C4.74256 10.5984 4.69863 10.5644 4.65869 10.5265C4.61999 10.4877 4.58644 10.4441 4.55884 10.3967C4.53288 10.3488 4.51092 10.2989 4.49694 10.2449C4.48296 10.193 4.47497 10.1391 4.47697 10.0832V5.54812C4.28127 5.62001 4.09156 5.70788 3.91183 5.81172C3.73211 5.91756 3.56237 6.03737 3.40261 6.17117C3.24485 6.30496 3.09708 6.45274 2.96328 6.61249C2.82949 6.77025 2.71167 6.94199 2.60783 7.12171H2.60383ZM15.8496 10.205C15.8975 10.233 15.9414 10.2649 15.9814 10.3048C16.0193 10.3428 16.0532 10.3867 16.0812 10.4346C16.1072 10.4826 16.1291 10.5345 16.1431 10.5864C16.1551 10.6403 16.1631 10.6942 16.1611 10.7502V15.2852C16.8021 15.0496 17.3612 14.6362 17.7746 14.093C18.19 13.5499 18.4396 12.9009 18.4975 12.2219C18.5554 11.5429 18.4196 10.86 18.1041 10.2549C17.7886 9.64984 17.3073 9.14661 16.7162 8.80713L12.8601 6.57854C12.8561 6.57721 12.8515 6.57588 12.8462 6.57455H12.8322C12.8282 6.57588 12.8235 6.57721 12.8182 6.57854C12.8142 6.57988 12.8102 6.58187 12.8062 6.58454L11.1967 7.51511L15.8536 10.205H15.8496ZM17.4571 7.78869H17.4551V7.79069L17.4571 7.78869ZM17.4551 7.7867C17.5709 7.11572 17.493 6.42478 17.2295 5.79574C16.9678 5.1667 16.5305 4.62553 15.9714 4.23413C15.4122 3.84473 14.7532 3.62107 14.0723 3.59112C13.3893 3.56316 12.7144 3.72891 12.1233 4.06839L8.26717 6.29498C8.26317 6.29764 8.25984 6.30097 8.25718 6.30496L8.24919 6.31695C8.24786 6.32094 8.24653 6.3256 8.2452 6.33092C8.24387 6.33492 8.2432 6.33958 8.2432 6.3449V8.20605L12.9001 5.51617C12.948 5.48821 12.9999 5.46824 13.0518 5.45227C13.1058 5.43829 13.1597 5.4323 13.2136 5.4323C13.2695 5.4323 13.3234 5.43829 13.3773 5.45227C13.4293 5.46824 13.4792 5.48821 13.5271 5.51617L17.3433 7.7208C17.3772 7.74077 17.4271 7.76872 17.4551 7.7867ZM7.36455 5.72585C7.36455 5.67193 7.37254 5.61801 7.38651 5.5641C7.40049 5.51218 7.42046 5.46026 7.44842 5.41233C7.47638 5.3664 7.50833 5.32247 7.54827 5.28253C7.58621 5.24459 7.63014 5.21064 7.67807 5.18468L11.4942 2.98205C11.5302 2.96008 11.5801 2.93213 11.6081 2.91815C11.0849 2.48082 10.4458 2.20124 9.76887 2.11537C9.0919 2.02751 8.40496 2.13534 7.7879 2.4249C7.16885 2.71446 6.64565 3.17575 6.28021 3.75087C5.91477 4.32799 5.72106 4.99497 5.72106 5.67792V10.1311C5.72239 10.1364 5.72373 10.1411 5.72506 10.1451C5.72639 10.1491 5.72838 10.1531 5.73105 10.1571C5.73371 10.1611 5.73704 10.1651 5.74103 10.169C5.74369 10.1717 5.74769 10.1744 5.75301 10.177L7.36455 11.1076V5.72585ZM8.23921 11.6108L10.314 12.809L12.3889 11.6108V9.21651L10.316 8.01834L8.24121 9.21651L8.23921 11.6108Z" fill="black"/>
</svg>