<svg xmlns="http://www.w3.org/2000/svg" width="18" height="18" viewBox="0 0 18 18" fill="none">
  <path d="M17.6523 10.8594L15.4766 7.04883L16.4102 5.25977C16.5391 5.08984 16.5723 4.83984 16.5195 4.63867L15.3223 2.47656C15.2305 2.33398 15.0723 2.24609 14.9023 2.24219H10.4512L9.45508 0.5C9.38477 0.363281 9.25 0.269531 9.09766 0.251953H6.74805C6.57422 0.255859 6.45117 0.382813 6.36523 0.533203L6.32812 0.59375L4.10547 4.4043H1.97266C1.79688 4.40039 1.63086 4.48828 1.53711 4.63867L0.308594 6.81445C0.230469 6.9707 0.230469 7.15625 0.308594 7.3125L2.51758 11.1543L1.52148 12.8965C1.44336 13.0527 1.44336 13.2363 1.52148 13.3945L2.65625 15.3867C2.74805 15.5391 2.91406 15.6348 3.0918 15.6348H7.54102L8.61328 17.5C8.69531 17.6406 8.83984 17.7324 9.00195 17.75H11.5215C11.6953 17.7461 11.8555 17.6523 11.9414 17.502L14.1367 13.6582H16.0977C16.2715 13.6426 16.4277 13.5449 16.5176 13.3945L17.6523 11.3887C17.7578 11.2266 17.7578 11.0195 17.6523 10.8594ZM14.9004 11.1094L13.7656 9.00977L9.09766 17.2363L7.82227 15.1367H3.15625L4.27734 13.0996H6.65625L1.98828 4.90234H4.42969L6.74805 0.763672L7.91406 2.80078L6.7168 4.90039H16.0508L14.8691 6.98633L17.2188 11.1074H14.9004V11.1094Z" fill="#605BEC"/>
</svg>