<svg xmlns="http://www.w3.org/2000/svg" width="20" height="20" viewBox="0 0 20 20" fill="none">
  <mask id="mask0_19_374" style="mask-type:luminance" maskUnits="userSpaceOnUse" x="7" y="9" width="12" height="9">
    <path d="M14.574 9.36775C16.0105 9.59585 18.8694 10.9358 18.3001 13.787L18.2535 13.9933C17.9674 14.9745 17.5043 15.895 16.887 16.7093C15.9732 17.8448 12.851 17.8528 10.9886 17.3485C8.96636 16.802 7.50488 15.5241 7.40015 15.4304C8.22741 16.0753 9.24605 16.4253 10.2946 16.4249C12.9205 16.4249 15.0494 14.2748 15.0494 11.6227C15.0505 10.8618 14.8716 10.1115 14.5273 9.4332C14.5195 9.41815 14.5208 9.39997 14.5306 9.38616C14.5404 9.37235 14.5572 9.36523 14.574 9.36775Z" fill="white"/>
  </mask>
  <g mask="url(#mask0_19_374)">
    <path d="M7.40015 9.36725H18.3741V17.6686H7.40015V9.36725Z" fill="#1652D8"/>
  </g>
  <mask id="mask1_19_374" style="mask-type:luminance" maskUnits="userSpaceOnUse" x="10" y="0" width="9" height="11">
    <path d="M10.3731 0.0127778L15.8734 5.42152L16.2813 5.82377C17.5369 7.14404 18.3281 8.83829 18.5349 10.6495C18.5375 10.6715 18.5237 10.6922 18.5024 10.6982C18.481 10.7042 18.4585 10.6938 18.4492 10.6736C17.751 9.16821 16.5244 8.72275 15.0502 8.39072C13.9302 8.13876 13.1968 7.77274 12.8727 7.58686L12.7684 7.52054L12.6623 7.45691C10.4581 6.11342 10.3072 3.8499 10.2973 3.60912L10.2966 0.044551C10.2969 0.0265207 10.3078 0.010357 10.3244 0.00344626C10.3411 -0.00346449 10.3602 0.000204977 10.3731 0.0127778Z" fill="white"/>
  </mask>
  <g mask="url(#mask1_19_374)">
    <path d="M10.2966 0H18.5352V10.6999H10.2966V0Z" fill="#EA0100"/>
  </g>
  <mask id="mask2_19_374" style="mask-type:luminance" maskUnits="userSpaceOnUse" x="2" y="1" width="15" height="19">
    <path d="M8.37073 1.87514C8.38821 1.88489 8.3971 1.90506 8.39251 1.92456C8.33316 2.17874 8.2389 2.73255 8.30047 3.49034C8.37252 4.38698 8.66323 5.57116 9.48744 6.89007C10.0051 7.71903 10.7334 8.60169 11.7506 9.50023L11.9365 9.66196L12.1286 9.82368C12.5937 10.3067 12.8528 10.9518 12.8512 11.6227C12.8512 13.0493 11.7062 14.2055 10.2939 14.2055C9.71555 14.2062 9.15444 14.0086 8.70385 13.6457C8.68721 13.6319 8.68262 13.6083 8.69291 13.5893C8.7032 13.5704 8.72549 13.5613 8.74606 13.5678C8.83529 13.597 8.92861 13.6118 9.02249 13.6117C9.41631 13.6073 9.76251 13.3495 9.87999 12.9732C9.98571 12.6345 9.88452 12.2691 9.62902 12.0331L9.53821 11.9595C8.98258 11.5205 8.46258 11.0382 7.9831 10.517C7.37756 9.8526 6.93198 9.20506 6.60826 8.58993C5.79676 9.59695 5.42282 10.8878 5.57024 12.1733C5.71766 13.4587 6.37412 14.6312 7.39248 15.4278C7.50324 15.5282 8.96473 16.8046 10.987 17.3511C12.8506 17.8534 15.9729 17.8455 16.8834 16.7137C15.3677 18.7116 12.9798 20 10.2955 20C5.71391 20 2.00002 16.2508 2.00002 11.6227C1.99559 9.46653 2.82086 7.3915 4.30447 5.82853L4.72245 5.41738L8.31729 1.88262C8.33143 1.86845 8.35325 1.86539 8.37073 1.87514Z" fill="white"/>
  </mask>
  <g mask="url(#mask2_19_374)">
    <path d="M2 1.86948H16.8834V20H2V1.86948Z" fill="#3CC8F9"/>
  </g>
</svg>