<?xml version="1.0" encoding="UTF-8"?>
<svg version="1.1" xmlns="http://www.w3.org/2000/svg" width="301" height="301">
<path d="M0 0 C99.33 0 198.66 0 301 0 C301 99.33 301 198.66 301 301 C201.67 301 102.34 301 0 301 C0 201.67 0 102.34 0 0 Z " fill="#D7DADE" transform="translate(0,0)"/>
<path d="M0 0 C12.54 0 25.08 0 38 0 C38.20054405 18.97592335 38.20054405 18.97592335 38.24414062 27.078125 C38.27400544 32.60213294 38.3092966 38.12572565 38.37719727 43.64941406 C38.43161055 48.10389626 38.46144011 52.55793307 38.47438622 57.01272202 C38.48360945 58.71039718 38.50162076 60.40804856 38.52865028 62.1055336 C38.56506643 64.48771669 38.5699404 66.86807066 38.56762695 69.25048828 C38.58560333 69.94892349 38.60357971 70.6473587 38.62210083 71.36695862 C38.56318674 76.99098787 36.66855813 79.07574529 33 83 C31.50594355 87.48216934 31.13101043 91.72250601 32.82421875 96.16015625 C34.10880845 98.71500938 35.46451465 101.19771115 37.05270386 103.57720947 C38.46851484 107.1982666 38.26069664 110.79296241 38.22705078 114.62402344 C38.22729185 115.5066901 38.22753292 116.38935677 38.2277813 117.2987709 C38.22629 120.15240858 38.21106562 123.00578413 38.1953125 125.859375 C38.1923715 127.62255731 38.19033141 129.38574137 38.18920898 131.14892578 C38.1787283 137.68264384 38.15080585 144.2163245 38.125 150.75 C38.08375 165.3525 38.0425 179.955 38 195 C7.64 195 -22.72 195 -54 195 C-54 166.62 -54 138.24 -54 109 C-45.09 108.67 -36.18 108.34 -27 108 C-16.36819927 105.69644318 -5.98266825 101.80070045 0.5 92.5625 C1.36740407 91.06083804 2.20394123 89.54067157 3 88 C3.61875 86.845 4.2375 85.69 4.875 84.5 C7.42731129 76.91948264 7.75986816 65.51945026 4.25 58.25 C3.5075 57.1775 2.765 56.105 2 55 C1.46375 54.13375 0.9275 53.2675 0.375 52.375 C-8.78912743 43.21087257 -22.12542113 39.70147874 -34.3125 36.5 C-41.61944699 34.57608025 -47.50884412 32.49115588 -53 27 C-53.62887111 23.92215964 -53.61265907 21.07927775 -53 18 C-49.02591299 13.65623047 -44.85568739 11.32103152 -39.01171875 10.6640625 C-24.82537775 10.49736049 -13.11088969 13.59890074 -1 21 C-0.67 14.07 -0.34 7.14 0 0 Z " fill="#EFF3FE" transform="translate(159,103)"/>
<path d="M0 0 C24.09 0 48.18 0 73 0 C73 0.66 73 1.32 73 2 C74.07507813 2.41765625 74.07507813 2.41765625 75.171875 2.84375 C78.82098936 4.33565311 82.34456551 6.06067675 85.890625 7.78125 C89.88725938 9.43999883 89.88725938 9.43999883 98 11 C98 40.04 98 69.08 98 99 C85.00625 99.103125 72.0125 99.20625 58.625 99.3125 C52.49671631 99.38078003 52.49671631 99.38078003 46.24462891 99.45043945 C41.21166992 99.47302246 41.21166992 99.47302246 38.84701538 99.47721863 C37.21405197 99.48483947 35.58111469 99.50230555 33.94833374 99.52787781 C15.43464287 99.80305289 15.43464287 99.80305289 8 94 C1.98034556 87.5763403 -0.31283813 81.81868567 -0.22705078 72.99682617 C-0.22734283 72.20605682 -0.22763489 71.41528748 -0.22793579 70.60055542 C-0.2265472 67.99791325 -0.21100829 65.39556065 -0.1953125 62.79296875 C-0.19158069 60.9840765 -0.18873451 59.17518223 -0.18673706 57.36628723 C-0.1791138 52.61351913 -0.15947654 47.86087395 -0.1373291 43.1081543 C-0.11323832 37.40126333 -0.10408346 31.69433117 -0.09242249 25.98740387 C-0.07305139 17.32485051 -0.03471971 8.66256669 0 0 Z " fill="#EFF3FE" transform="translate(4,199)"/>
<path d="M0 0 C1.29461655 0.00222061 2.58923309 0.00444122 3.92308044 0.00672913 C4.99131546 0.00651009 4.99131546 0.00651009 6.08113098 0.00628662 C8.4457143 0.00698581 10.81021979 0.01477846 13.17478943 0.02259827 C14.81003781 0.02446243 16.44528675 0.02588634 18.08053589 0.02688599 C22.39273103 0.03071134 26.7048927 0.04054177 31.01707458 0.05158997 C35.41404263 0.06180371 39.81101607 0.06638353 44.20799255 0.07142639 C52.84147149 0.08216402 61.47492317 0.09924065 70.10838318 0.12025452 C70.22458826 10.50851487 70.31325582 20.89661884 70.36744404 31.28539848 C70.39346094 36.11014249 70.42871329 40.93443955 70.48558044 45.75892639 C70.5401839 50.42090835 70.5698631 55.08246229 70.58276939 59.74473953 C70.59195869 61.51725623 70.60990282 63.28975133 70.63703346 65.0620842 C70.91016101 83.65554984 70.91016101 83.65554984 65.10838318 91.12025452 C58.40058059 97.58835865 51.42307349 99.44184988 42.15354919 99.3473053 C40.99255785 99.3476669 40.99255785 99.3476669 39.80811214 99.34803581 C37.32605042 99.34655423 34.84429675 99.33137511 32.36228943 99.31556702 C30.82058354 99.31262299 29.27887565 99.31058477 27.73716736 99.3094635 C22.04837529 99.29901784 16.35962614 99.27109529 10.67088318 99.24525452 C-2.05474182 99.20400452 -14.78036682 99.16275452 -27.89161682 99.12025452 C-27.89161682 70.08025452 -27.89161682 41.04025452 -27.89161682 11.12025452 C-24.26161682 11.12025452 -20.63161682 11.12025452 -16.89161682 11.12025452 C-11.60753749 8.47821485 -7.85384856 5.44268914 -3.89161682 1.12025452 C-2.89161682 0.12025452 -2.89161682 0.12025452 0 0 Z " fill="#EFF3FE" transform="translate(227.89161682128906,198.87974548339844)"/>
<path d="M0 0 C12.87 -0.061875 25.74 -0.12375 39 -0.1875 C43.05152344 -0.21481201 47.10304688 -0.24212402 51.27734375 -0.27026367 C56.25585938 -0.28381348 56.25585938 -0.28381348 58.5925293 -0.28633118 C60.21136962 -0.2909134 61.83020023 -0.30141348 63.44897461 -0.31672668 C65.91277633 -0.33885211 68.37595681 -0.34171255 70.83984375 -0.34057617 C71.9068174 -0.35676766 71.9068174 -0.35676766 72.99534607 -0.37328625 C79.87209507 -0.33114452 86.51038351 1.63048305 91.62763977 6.40664673 C99.18956357 15.18627744 98.66375371 25.12406715 98.48828125 36.0390625 C98.48091469 37.57770887 98.47582314 39.11636784 98.47302246 40.6550293 C98.44698322 46.31187933 98.37717692 51.96845978 98.3125 57.625 C98.209375 70.28875 98.10625 82.9525 98 96 C65.66 96 33.32 96 0 96 C0 64.32 0 32.64 0 0 Z " fill="#EFF3FE" transform="translate(200,4)"/>
<path d="M0 0 C1.77931722 0.00934107 3.55864742 0.01645106 5.33798218 0.0214386 C9.99070583 0.04040675 14.64263234 0.08941777 19.29504395 0.1449585 C24.05465923 0.19637252 28.81440501 0.21899966 33.57421875 0.24414062 C42.89097266 0.29754799 52.20713844 0.38273514 61.5234375 0.48828125 C61.80174069 11.97091732 62.01482226 23.45274897 62.14518356 34.93807316 C62.20776036 40.27169635 62.29258815 45.60300941 62.42871094 50.93530273 C62.55931454 56.08374545 62.63088714 61.2299704 62.66196442 66.37994194 C62.68410196 68.34222788 62.72733851 70.30439504 62.79219818 72.26573372 C63.26408988 87.12977688 63.26408988 87.12977688 59.47467041 92.26426697 C50.75828942 98.35943689 39.69798875 97.37775411 29.5390625 97.171875 C27.62809069 97.15879379 25.71709514 97.14884157 23.80609131 97.14186096 C18.81442657 97.11533357 13.82422335 97.04674681 8.83312988 96.96893311 C3.72489179 96.89688993 -1.38358611 96.8652623 -6.4921875 96.83007812 C-16.4876158 96.75535812 -26.48196688 96.63613398 -36.4765625 96.48828125 C-36.54622277 86.58693933 -36.59945499 76.68565618 -36.63199902 66.78411865 C-36.64762237 62.1859061 -36.66879952 57.58786182 -36.70288086 52.98974609 C-36.73559348 48.54825192 -36.75344054 44.10691912 -36.76119423 39.66531372 C-36.76671644 37.97491925 -36.77749984 36.28453312 -36.79375267 34.59420776 C-36.81568568 32.21756236 -36.81852289 29.84157486 -36.81713867 27.46484375 C-36.8279245 26.77359909 -36.83871033 26.08235443 -36.849823 25.37016296 C-36.80715647 18.55336476 -34.80158366 11.92561555 -30.06820679 6.86064148 C-21.09410446 -0.87708059 -11.1466799 -0.17283099 0 0 Z " fill="#EFF3FE" transform="translate(40.4765625,3.51171875)"/>
<path d="M0 0 C32.34 0 64.68 0 98 0 C98 30.69 98 61.38 98 93 C73.91 93 49.82 93 25 93 C23.515 87.555 23.515 87.555 22 82 C19.92153757 77.70077766 19.92153757 77.70077766 16 76 C14.700625 75.443125 14.700625 75.443125 13.375 74.875 C8.96776874 73.58172974 8.96776874 73.58172974 0 74 C0 49.58 0 25.16 0 0 Z " fill="#EFF3FE" transform="translate(200,103)"/>
<path d="M0 0 C26.73 0 53.46 0 81 0 C79.45911979 3.85220054 77.81891359 7.38282504 75.90234375 11.03515625 C72.98272658 17.39259104 72.99891616 25.1044781 74.71875 31.796875 C78.7205628 42.44686068 85.47162111 47.36664143 95.56298828 52.00195312 C101.11979307 54.27767121 106.91654359 55.89513619 112.70263672 57.47827148 C129.7592267 62.22212633 129.7592267 62.22212633 134 69 C134.4933086 72.77752753 134.11181867 76.54095721 131.76171875 79.625 C124.00107341 86.36292463 115.01315837 85.64399342 105.3515625 85.1953125 C94.60643431 84.30285999 83.19572243 78.98434544 75 72 C75 71.34 75 70.68 75 70 C74.34 70 73.68 70 73 70 C73 77.59 73 85.18 73 93 C48.91 93 24.82 93 0 93 C0 62.31 0 31.62 0 0 Z " fill="#EFF3FE" transform="translate(4,103)"/>
<path d="M0 0 C30.36 0 60.72 0 92 0 C92 31.68 92 63.36 92 96 C54 96 54 96 44 91 C29.92751335 85.49406072 14.75617252 85.89197535 0 88 C0 58.96 0 29.92 0 0 Z " fill="#EFF3FE" transform="translate(105,4)"/>
<path d="M0 0 C0 8.58 0 17.16 0 26 C-3.3103125 24.3603125 -3.3103125 24.3603125 -6.6875 22.6875 C-18.03114493 17.31107208 -32.11796781 12.82522948 -44.58984375 16.83203125 C-47.45003374 18.21299097 -49.753016 19.753016 -52 22 C-52.56108065 25.05936607 -52.50453657 27.93439191 -52 31 C-47.43748502 36.8211398 -38.06234866 38.42424738 -31.22265625 40.375 C-13.11493783 45.55523473 -13.11493783 45.55523473 -5 51 C-4.1028125 51.59748047 -4.1028125 51.59748047 -3.1875 52.20703125 C1.75279592 55.89990245 5.06956665 61.20869994 7 67 C7.94189986 79.36579953 6.7166448 88.64758311 -0.125 99.3125 C-13.90104822 112.19011029 -28.64660383 113.86801082 -46.7265625 113.37890625 C-59.9399779 112.7518489 -70.49449061 108.16790194 -82 102 C-82 92.76 -82 83.52 -82 74 C-81.34 74 -80.68 74 -80 74 C-80 74.66 -80 75.32 -80 76 C-79.24976562 76.37125 -79.24976562 76.37125 -78.484375 76.75 C-76.44434801 77.77642867 -74.41669696 78.82152553 -72.390625 79.875 C-71.01053016 80.58355444 -69.63031844 81.29188125 -68.25 82 C-67.57195312 82.35578125 -66.89390625 82.7115625 -66.1953125 83.078125 C-58.35562087 87.0724926 -51.26543961 88.36093027 -42.5 88.375 C-41.29537109 88.41173828 -41.29537109 88.41173828 -40.06640625 88.44921875 C-34.25730402 88.47746398 -29.84055286 87.28570861 -25 84 C-22.68076398 81.24590722 -22.08926705 79.53560233 -21.5 76 C-22.02004272 72.87974365 -22.70029603 71.29617603 -25.09765625 69.2109375 C-30.98004693 65.4664999 -37.98151306 63.59109494 -44.6171875 61.59765625 C-72.32742884 53.27146955 -72.32742884 53.27146955 -79.23828125 40.7578125 C-83.09929579 32.45198741 -83.22942762 24.08860221 -80.5625 15.375 C-77.1034168 6.94652967 -70.69484093 -0.01944393 -62.46484375 -3.97265625 C-61.65144531 -4.31167969 -60.83804688 -4.65070313 -60 -5 C-59.11441406 -5.39058594 -58.22882813 -5.78117187 -57.31640625 -6.18359375 C-38.61724091 -13.21097838 -16.96122751 -9.69213001 0 0 Z " fill="#926BFE" transform="translate(159,99)"/>
<path d="M0 0 C4.65332141 2.49900594 7.4651554 5.4477331 10.375 9.8125 C11.06072317 15.33815296 11.12317537 20.26072887 8.6875 25.3125 C4.4071505 29.93990487 0.48799389 33.4533084 -5.875 34.1875 C-11.70898192 33.60410181 -15.90690782 31.57580513 -20 27.375 C-23.23919927 22.26703192 -24.36828531 17.89065565 -23.625 11.8125 C-21.77580845 6.37370134 -18.24913162 3.03888275 -13.625 -0.1875 C-8.7438251 -1.8145583 -4.88094987 -1.59893185 0 0 Z " fill="#E80404" transform="translate(213.625,177.1875)"/>
<path d="M0 0 C8.25 0 16.5 0 25 0 C25 0.33 25 0.66 25 1 C23.824375 1.2475 22.64875 1.495 21.4375 1.75 C14.11589461 3.61274059 9.41551773 6.74468322 5 13 C3.05484059 16.9597888 1.66131062 20.63534993 1 25 C0.67 25 0.34 25 0 25 C0 16.75 0 8.5 0 0 Z " fill="#000000" transform="translate(0,0)"/>
<path d="M0 0 C8.25 0 16.5 0 25 0 C25 6.6 25 13.2 25 20 C23.92621773 18.3893266 22.86445188 16.76837917 21.88671875 15.09765625 C17.80950622 8.17834768 13.64116276 4.81516523 6 2 C4.01178687 1.60235737 2.01267638 1.24544834 0 1 C0 0.67 0 0.34 0 0 Z " fill="#000000" transform="translate(276,0)"/>
<path d="M0 0 C0.33 0 0.66 0 1 0 C1.226875 1.155 1.45375 2.31 1.6875 3.5 C3.41763428 10.37180095 6.98008838 16.13005682 13 20 C15.30625442 21.11220203 17.61247887 22.06371721 20 23 C20 23.33 20 23.66 20 24 C13.4 24 6.8 24 0 24 C0 16.08 0 8.16 0 0 Z " fill="#000000" transform="translate(0,277)"/>
<path d="M0 0 C0.33 0 0.66 0 1 0 C1 6.27 1 12.54 1 19 C-5.27 19 -11.54 19 -18 19 C-16.32949879 17.88633253 -14.64472804 16.79109477 -12.9140625 15.7734375 C-6.29403368 11.72911955 -2.46461148 7.39383444 0 0 Z " fill="#000000" transform="translate(300,282)"/>
<path d="M0 0 C10.23 0 20.46 0 31 0 C31.495 1.485 31.495 1.485 32 3 C21.11 3 10.22 3 -1 3 C-0.67 2.01 -0.34 1.02 0 0 Z " fill="#D8D9DF" transform="translate(159,196)"/>
<path d="M0 0 C1.32 0.33 2.64 0.66 4 1 C3.67 10.57 3.34 20.14 3 30 C2.01 29.67 1.02 29.34 0 29 C0 19.43 0 9.86 0 0 Z " fill="#D6D9DE" transform="translate(102,157)"/>
</svg>
