<svg xmlns="http://www.w3.org/2000/svg" fill="none" viewBox="0 0 18 17"><path fill-rule="evenodd" d="M6.49996 0.166626C6.05793 0.166626 5.63401 0.342221 5.32145 0.654781C5.00889 0.967342 4.83329 1.39127 4.83329 1.83329V3.49996H6.49996V1.83329H15.6666V11H14V12.6666H15.6666C16.1087 12.6666 16.5326 12.491 16.8451 12.1785C17.1577 11.8659 17.3333 11.442 17.3333 11V1.83329C17.3333 1.39127 17.1577 0.967342 16.8451 0.654781C16.5326 0.342221 16.1087 0.166626 15.6666 0.166626H6.49996ZM2.33329 4.33329C1.89127 4.33329 1.46734 4.50889 1.15478 4.82145C0.842221 5.13401 0.666626 5.55793 0.666626 5.99996V15.1666C0.666626 15.6087 0.842221 16.0326 1.15478 16.3451C1.46734 16.6577 1.89127 16.8333 2.33329 16.8333H11.5C11.942 16.8333 12.3659 16.6577 12.6785 16.3451C12.991 16.0326 13.1666 15.6087 13.1666 15.1666V5.99996C13.1666 5.55793 12.991 5.13401 12.6785 4.82145C12.3659 4.50889 11.942 4.33329 11.5 4.33329H2.33329ZM2.33329 5.99996H11.5V15.1666H2.33329V5.99996Z" clip-rule="evenodd"/></svg>