<svg xmlns="http://www.w3.org/2000/svg" width="16" height="16" viewBox="0 0 16 16" fill="#24282C"  >
  <path d="M1.33331 5.83329C1.33331 5.65648 1.40355 5.48691 1.52858 5.36189C1.6536 5.23686 1.82317 5.16663 1.99998 5.16663H14C14.1768 5.16663 14.3464 5.23686 14.4714 5.36189C14.5964 5.48691 14.6666 5.65648 14.6666 5.83329C14.6666 6.0101 14.5964 6.17967 14.4714 6.3047C14.3464 6.42972 14.1768 6.49996 14 6.49996H1.99998C1.82317 6.49996 1.6536 6.42972 1.52858 6.3047C1.40355 6.17967 1.33331 6.0101 1.33331 5.83329ZM1.33331 8.49996C1.33331 8.32315 1.40355 8.15358 1.52858 8.02855C1.6536 7.90353 1.82317 7.83329 1.99998 7.83329H14C14.1768 7.83329 14.3464 7.90353 14.4714 8.02855C14.5964 8.15358 14.6666 8.32315 14.6666 8.49996C14.6666 8.67677 14.5964 8.84634 14.4714 8.97136C14.3464 9.09639 14.1768 9.16663 14 9.16663H1.99998C1.82317 9.16663 1.6536 9.09639 1.52858 8.97136C1.40355 8.84634 1.33331 8.67677 1.33331 8.49996ZM1.99998 10.5C1.82317 10.5 1.6536 10.5702 1.52858 10.6952C1.40355 10.8202 1.33331 10.9898 1.33331 11.1666C1.33331 11.3434 1.40355 11.513 1.52858 11.638C1.6536 11.7631 1.82317 11.8333 1.99998 11.8333H9.99998C10.1768 11.8333 10.3464 11.7631 10.4714 11.638C10.5964 11.513 10.6666 11.3434 10.6666 11.1666C10.6666 10.9898 10.5964 10.8202 10.4714 10.6952C10.3464 10.5702 10.1768 10.5 9.99998 10.5H1.99998Z"/>
</svg>