<svg xmlns="http://www.w3.org/2000/svg"   viewBox="0 0 16 17" fill="none">
  <path fill-rule="evenodd" clip-rule="evenodd" d="M8.00005 2.9598C4.99385 2.9598 2.55684 5.3968 2.55684 8.403C2.55684 11.4092 4.99385 13.8462 8.00005 13.8462C11.0062 13.8462 13.4432 11.4092 13.4432 8.403C13.4432 5.3968 11.0062 2.9598 8.00005 2.9598ZM1.22351 8.403C1.22351 4.66042 4.25747 1.62646 8.00005 1.62646C11.7426 1.62646 14.7766 4.66042 14.7766 8.403C14.7766 12.1456 11.7426 15.1795 8.00005 15.1795C4.25747 15.1795 1.22351 12.1456 1.22351 8.403ZM8.14834 6.02879C7.87687 5.98223 7.59769 6.03324 7.36023 6.1728C7.12277 6.31235 6.94236 6.53144 6.85096 6.79127C6.72878 7.13859 6.34817 7.32111 6.00085 7.19893C5.65352 7.07675 5.471 6.69614 5.59318 6.34881C5.78908 5.79195 6.17572 5.32239 6.68465 5.02329C7.19358 4.72419 7.79194 4.61485 8.37375 4.71465C8.95556 4.81444 9.48328 5.11693 9.86345 5.56853C10.2435 6.02004 10.4516 6.59146 10.4508 7.18164C10.4505 8.14619 9.73585 8.77818 9.23745 9.11045C8.96791 9.29014 8.70311 9.42206 8.50833 9.50863C8.40999 9.55234 8.32711 9.58554 8.26726 9.60834C8.23728 9.61976 8.21291 9.62863 8.19509 9.63497L8.17333 9.64259L8.16632 9.64499L8.16381 9.64583L8.16281 9.64617C8.16261 9.64623 8.16199 9.64644 7.95117 9.01399L8.16199 9.64644C7.81269 9.76287 7.43514 9.5741 7.31871 9.22481C7.20232 8.87563 7.39093 8.49822 7.74 8.38165L7.74841 8.37868C7.75744 8.37547 7.77246 8.37003 7.7926 8.36236C7.83298 8.34697 7.89331 8.32289 7.96681 8.29022C8.1157 8.22404 8.30915 8.12685 8.49785 8.00105C8.91582 7.7224 9.11746 7.4381 9.11746 7.18103L9.11746 7.18003C9.11787 6.9046 9.02079 6.63791 8.84341 6.4272C8.66603 6.21649 8.41981 6.07535 8.14834 6.02879ZM7.33338 11.4579C7.33338 11.0897 7.63186 10.7913 8.00005 10.7913H8.00616C8.37435 10.7913 8.67282 11.0897 8.67282 11.4579C8.67282 11.8261 8.37435 12.1246 8.00616 12.1246H8.00005C7.63186 12.1246 7.33338 11.8261 7.33338 11.4579Z" fill="currentColor"/>
</svg>