<svg xmlns="http://www.w3.org/2000/svg"  viewBox="0 0 15 14" fill="none">
  <path fill-rule="evenodd" clip-rule="evenodd" d="M7.5004 2.0529C4.76824 2.0529 2.55339 4.26775 2.55339 6.99991C2.55339 9.73207 4.76824 11.9469 7.5004 11.9469C10.2326 11.9469 12.4474 9.73207 12.4474 6.99991C12.4474 4.26775 10.2326 2.0529 7.5004 2.0529ZM1.38672 6.99991C1.38672 3.62342 4.12391 0.88623 7.5004 0.88623C10.8769 0.88623 13.6141 3.62342 13.6141 6.99991C13.6141 10.3764 10.8769 13.1136 7.5004 13.1136C4.12391 13.1136 1.38672 10.3764 1.38672 6.99991ZM6.91706 4.78777C6.91706 4.4656 7.17823 4.20444 7.5004 4.20444H7.50593C7.82809 4.20444 8.08926 4.4656 8.08926 4.78777C8.08926 5.10994 7.82809 5.3711 7.50593 5.3711H7.5004C7.17823 5.3711 6.91706 5.10994 6.91706 4.78777ZM7.5004 6.41657C7.82256 6.41657 8.08373 6.67774 8.08373 6.99991V9.21205C8.08373 9.53421 7.82256 9.79538 7.5004 9.79538C7.17823 9.79538 6.91706 9.53421 6.91706 9.21205V6.99991C6.91706 6.67774 7.17823 6.41657 7.5004 6.41657Z" fill="currentColor"/>
</svg>