<svg xmlns="http://www.w3.org/2000/svg" viewBox="0 0 16 16"><path d="M8.66663 2C7.07533 2 5.5492 2.63214 4.42399 3.75736C3.29877 4.88258 2.66663 6.4087 2.66663 8H0.666626L3.25996 10.5933L3.30663 10.6867L5.99996 8H3.99996C3.99996 5.42 6.08663 3.33333 8.66663 3.33333C11.2466 3.33333 13.3333 5.42 13.3333 8C13.3333 10.58 11.2466 12.6667 8.66663 12.6667C7.37996 12.6667 6.21329 12.14 5.37329 11.2933L4.42663 12.24C4.98224 12.7987 5.64295 13.2418 6.37067 13.5439C7.09839 13.846 7.87871 14.001 8.66663 14C10.2579 14 11.784 13.3679 12.9093 12.2426C14.0345 11.1174 14.6666 9.5913 14.6666 8C14.6666 6.4087 14.0345 4.88258 12.9093 3.75736C11.784 2.63214 10.2579 2 8.66663 2ZM7.99996 5.33333V8.66667L10.8533 10.36L11.3333 9.55333L8.99996 8.16667V5.33333H7.99996Z"/></svg>