<svg xmlns="http://www.w3.org/2000/svg" width="16" height="16" viewBox="0 0 16 16" fill="none">
  <path fill-rule="evenodd" clip-rule="evenodd" d="M6.06777 11.1503L10.1306 8.86713C10.7459 8.52137 11.127 8.30572 11.3865 8.12729C11.4716 8.06871 11.5245 8.02651 11.5553 8.00007C11.5245 7.97363 11.4716 7.93142 11.3865 7.87284C11.127 7.69441 10.7459 7.47876 10.1306 7.133L6.06777 4.84987C5.45271 4.50424 5.06999 4.29066 4.78088 4.16089C4.66082 4.10699 4.5887 4.08297 4.55301 4.07263C4.53275 4.07884 4.51508 4.0878 4.50028 4.09819C4.49263 4.1353 4.48208 4.19815 4.47291 4.29546C4.44428 4.59917 4.44287 5.02396 4.44287 5.71695L4.44287 10.2832C4.44287 10.9762 4.44428 11.401 4.47291 11.7047C4.48208 11.802 4.49263 11.8648 4.50028 11.9019C4.51508 11.9123 4.53275 11.9213 4.55301 11.9275C4.5887 11.9172 4.66082 11.8931 4.78088 11.8392C5.06999 11.7095 5.45272 11.4959 6.06777 11.1503ZM12.7604 7.40435C12.5615 6.96961 11.969 6.63661 10.7838 5.97062L6.72096 3.6875C5.53582 3.02151 4.94326 2.68852 4.45701 2.73826C4.03288 2.78165 3.64759 2.99816 3.39692 3.33398C3.10954 3.71898 3.10954 4.38497 3.10954 5.71694L3.10953 10.2832C3.10953 11.6152 3.10953 12.2812 3.39692 12.6662C3.64759 13.002 4.03288 13.2185 4.45701 13.2619C4.94325 13.3116 5.53583 12.9786 6.72097 12.3126L10.7838 10.0295C11.969 9.36352 12.5615 9.03052 12.7604 8.59578C12.9339 8.21658 12.9339 7.78355 12.7604 7.40435Z" fill="currentColor"/>
</svg>