<svg xmlns="http://www.w3.org/2000/svg" width="48" height="49" viewBox="0 0 48 49" fill="none">
  <path d="M16.0439 22.7454C20.4639 22.7454 24.0439 19.1654 24.0439 14.7454C24.0439 10.3254 20.4639 6.74536 16.0439 6.74536C11.6239 6.74536 8.04395 10.3254 8.04395 14.7454C8.04395 19.1654 11.6239 22.7454 16.0439 22.7454Z" fill="url(#paint0_linear_5105_20483)"/>
  <path d="M41.9924 20.6454V17.4454C41.9924 17.0036 41.6343 16.6454 41.1924 16.6454H38.7924C38.3506 16.6454 37.9924 17.0036 37.9924 17.4454V20.6454H34.7924C34.3506 20.6454 33.9924 21.0036 33.9924 21.4454V23.8454C33.9924 24.2872 34.3506 24.6454 34.7924 24.6454H37.9924V27.8454C37.9924 28.2872 38.3506 28.6454 38.7924 28.6454H41.1924C41.6343 28.6454 41.9924 28.2872 41.9924 27.8454V24.6454H45.1924C45.6343 24.6454 45.9924 24.2872 45.9924 23.8454V21.4454C45.9924 21.0036 45.6343 20.6454 45.1924 20.6454H41.9924Z" fill="url(#paint1_linear_5105_20483)"/>
  <path d="M2.09497 33.7254C2.09497 28.11 11.3885 25.2811 16.0439 25.2811C20.6994 25.2811 29.9929 28.11 29.9929 33.7254V38.4586C29.9929 39.3422 29.2766 40.0586 28.3929 40.0586H3.69497C2.81132 40.0586 2.09497 39.3422 2.09497 38.4586V33.7254Z" fill="url(#paint2_linear_5105_20483)"/>
  <path d="M25.1016 6.84534C26.9416 8.96534 28.0816 11.7253 28.0816 14.7453C28.0816 17.7653 26.9416 20.5253 25.1016 22.6453C29.0216 22.1453 32.0816 18.8253 32.0816 14.7453C32.0816 10.6653 29.0216 7.34534 25.1016 6.84534Z" fill="url(#paint3_linear_5105_20483)"/>
  <path d="M33.566 33.7254C33.566 30.981 32.406 28.7855 30.626 27.0333C34.386 28.4266 37.566 30.6644 37.566 33.7254V39.2586C37.566 39.7004 37.2078 40.0586 36.766 40.0586H34.366C33.9241 40.0586 33.566 39.7004 33.566 39.2586V33.7254Z" fill="url(#paint4_linear_5105_20483)"/>
  <defs>
    <linearGradient id="paint0_linear_5105_20483" x1="9.16277" y1="40.0586" x2="37.0658" y2="4.26367" gradientUnits="userSpaceOnUse">
      <stop stop-color="#16868D"/>
      <stop offset="1" stop-color="#31ACAC"/>
    </linearGradient>
    <linearGradient id="paint1_linear_5105_20483" x1="9.16277" y1="40.0586" x2="37.0658" y2="4.26367" gradientUnits="userSpaceOnUse">
      <stop stop-color="#16868D"/>
      <stop offset="1" stop-color="#31ACAC"/>
    </linearGradient>
    <linearGradient id="paint2_linear_5105_20483" x1="9.16277" y1="40.0586" x2="37.0658" y2="4.26367" gradientUnits="userSpaceOnUse">
      <stop stop-color="#16868D"/>
      <stop offset="1" stop-color="#31ACAC"/>
    </linearGradient>
    <linearGradient id="paint3_linear_5105_20483" x1="9.16277" y1="40.0586" x2="37.0658" y2="4.26367" gradientUnits="userSpaceOnUse">
      <stop stop-color="#16868D"/>
      <stop offset="1" stop-color="#31ACAC"/>
    </linearGradient>
    <linearGradient id="paint4_linear_5105_20483" x1="9.16277" y1="40.0586" x2="37.0658" y2="4.26367" gradientUnits="userSpaceOnUse">
      <stop stop-color="#16868D"/>
      <stop offset="1" stop-color="#31ACAC"/>
    </linearGradient>
  </defs>
</svg>