<svg xmlns="http://www.w3.org/2000/svg" width="64" height="64" viewBox="0 0 25.6 25.6"><path d="M 179.1 94.9 c -3.6 -0.1 -6.3 0.3 -8.7 1.3 c -0.7 0.3 -1.7 0.3 -1.8 1.1 c 0.4 0.4 0.4 0.9 0.7 1.4 c 0.5 0.9 1.5 2.1 2.3 2.7 l 2.9 2.1 c 1.7 1.1 3.7 1.7 5.4 2.8 c 1 0.6 2 1.4 2.9 2.1 c 0.5 0.4 0.8 0.9 1.4 1.2 v -0.1 c -0.3 -0.4 -0.4 -1 -0.7 -1.4 l -1.3 -1.3 c -1.3 -1.7 -2.9 -3.3 -4.6 -4.5 c -1.4 -1 -4.5 -2.3 -5.1 -4 l -0.1 -0.1 c 1 -0.1 2.1 -0.4 3.1 -0.7 c 1.5 -0.4 2.9 -0.3 4.5 -0.7 l 2.1 -0.6 v -0.4 c -0.8 -0.8 -1.4 -1.9 -2.2 -2.6 c -2.3 -2 -4.8 -3.9 -7.4 -5.5 c -1.4 -0.9 -3.2 -1.5 -4.6 -2.2 c -0.5 -0.3 -1.4 -0.4 -1.7 -0.8 c -0.8 -1 -1.3 -2.3 -1.8 -3.4 l -3.7 -7.8 c -0.8 -1.7 -1.3 -3.5 -2.3 -5.1 c -4.6 -7.6 -9.6 -12.2 -17.3 -16.7 c -1.6 -0.9 -3.6 -1.3 -5.7 -1.8 l -3.3 -0.2 c -0.7 -0.3 -1.4 -1.2 -2.1 -1.6 c -2.5 -1.6 -9.1 -5.1 -11 -0.5 c -1.2 2.9 1.8 5.8 2.8 7.2 c 0.8 1 1.7 2.2 2.3 3.3 c 0.3 0.8 0.4 1.6 0.7 2.4 c 0.7 2 1.4 4.2 2.3 6 c 0.5 0.9 1 1.9 1.6 2.8 c 0.4 0.5 1 0.7 1.1 1.5 c -0.6 0.9 -0.7 2.2 -1 3.3 c -1.6 5 -1 11.3 1.3 15 c 0.7 1.1 2.4 3.6 4.7 2.6 c 2 -0.8 1.6 -3.3 2.1 -5.6 c 0.1 -0.5 0 -0.9 0.3 -1.3 v 0.1 l 1.8 3.7 c 1.4 2.2 3.8 4.5 5.8 6 c 1.1 0.8 1.9 2.2 3.3 2.7 v -0.1 h -0.1 c -0.3 -0.4 -0.7 -0.6 -1 -0.9 c -0.8 -0.8 -1.7 -1.8 -2.3 -2.7 c -1.9 -2.5 -3.5 -5.3 -5 -8.1 c -0.7 -1.4 -1.3 -2.9 -1.9 -4.3 c -0.3 -0.5 -0.3 -1.3 -0.7 -1.6 c -0.7 1 -1.6 1.8 -2.1 3 c -0.8 1.9 -0.9 4.3 -1.2 6.7 c -0.2 0 -0.1 0 -0.2 0.1 c -1.4 -0.4 -1.9 -1.8 -2.5 -3.1 c -1.3 -3.2 -1.6 -8.3 -0.4 -11.9 c 0.3 -0.9 1.7 -3.9 1.1 -4.8 c -0.3 -0.8 -1.2 -1.3 -1.7 -2 c -0.6 -0.8 -1.2 -1.9 -1.6 -2.9 c -1.1 -2.5 -1.6 -5.3 -2.8 -7.8 c -0.5 -1.2 -1.5 -2.4 -2.2 -3.4 c -0.8 -1.2 -1.8 -2.1 -2.5 -3.5 c -0.2 -0.5 -0.5 -1.3 -0.2 -1.8 c 0.1 -0.4 0.3 -0.5 0.6 -0.6 c 0.6 -0.5 2.2 0.1 2.8 0.4 c 1.6 0.7 3 1.3 4.4 2.2 c 0.6 0.4 1.3 1.3 2.1 1.5 h 0.9 c 1.4 0.3 3 0.1 4.4 0.5 c 2.4 0.8 4.5 1.9 6.4 3.1 c 5.8 3.7 10.7 9 13.9 15.3 c 0.5 1 0.8 2 1.3 3 c 0.9 2.2 2.1 4.4 3 6.6 c 0.9 2.1 1.8 4.2 3.2 6 c 0.7 0.9 3.3 1.4 4.5 1.9 c 0.9 0.4 2.3 0.8 3.1 1.3 c 1.5 0.9 3 2 4.5 3 c 0.7 0.5 2.9 1.6 3.1 2.5 z m -45.5 -38.8 a 7.1 7.1 0 0 0 -1.8 0.2 v 0.1 h 0.1 c 0.4 0.7 1 1.2 1.4 1.8 l 1 2.1 l 0.1 -0.1 c 0.6 -0.4 0.9 -1.2 0.9 -2.2 c -0.3 -0.3 -0.3 -0.6 -0.5 -0.9 c -0.3 -0.4 -0.8 -0.7 -1.2 -1 z" transform="matrix(0.4,0,0,0.4,-46.3,-16.9)" fill-rule="evenodd" fill="#f29111"/></svg>