<svg xmlns="http://www.w3.org/2000/svg" width="32" height="33" viewBox="0 0 32 33" fill="none">
  <path d="M27.6977 24.3243C26.1814 24.283 25.0236 24.4242 24.0336 24.8415C23.7523 24.9602 23.3034 24.9635 23.2575 25.3158C23.4121 25.4778 23.4362 25.7199 23.559 25.9192C23.7954 26.3014 24.1944 26.8144 24.5506 27.0831C24.9398 27.3769 25.3408 27.6908 25.7579 27.9451C26.4998 28.3974 27.3281 28.6558 28.0423 29.109C28.4634 29.3763 28.8816 29.7128 29.2923 30.0141C29.4956 30.1632 29.6319 30.395 29.8959 30.4884V30.4456C29.7572 30.2688 29.7214 30.0263 29.5941 29.8418L29.0336 29.2813C28.4857 28.554 27.79 27.9151 27.0506 27.3846C26.4609 26.9613 25.1413 26.3896 24.8954 25.7036L24.8523 25.6605C25.2703 25.6132 25.7597 25.4621 26.1457 25.3585C26.7939 25.1848 27.3731 25.2297 28.0423 25.0569L28.9475 24.7982V24.6259C28.6092 24.2788 28.368 23.8193 27.9992 23.5051C27.0338 22.6833 25.9804 21.8621 24.8956 21.1772C24.2938 20.7976 23.5504 20.5509 22.9126 20.229C22.6981 20.1205 22.3212 20.0642 22.1796 19.8839C21.8444 19.457 21.6621 18.9158 21.4039 18.4185C20.8628 17.3763 20.3315 16.2383 19.8521 15.1419C19.5251 14.3942 19.3115 13.6572 18.9036 12.9865C16.9462 9.76821 14.8394 7.82603 11.5757 5.91677C10.8811 5.5107 10.0449 5.35053 9.16115 5.14064C8.68726 5.11214 8.21293 5.0832 7.73881 5.05426C7.44918 4.93363 7.14827 4.57948 6.87675 4.4076C5.79553 3.72449 3.022 2.23875 2.22136 4.1922C1.71565 5.4252 2.97715 6.62793 3.42807 7.25294C3.74488 7.69082 4.15028 8.18239 4.37651 8.67528C4.52542 8.99938 4.55104 9.32437 4.67852 9.66703C4.99157 10.5114 5.26442 11.43 5.66982 12.2101C5.87462 12.6052 6.10041 13.0209 6.35956 13.374C6.51819 13.5907 6.79059 13.6862 6.83345 14.0206C6.56745 14.3931 6.55221 14.9715 6.40264 15.4434C5.72881 17.5677 5.9831 20.2082 6.96314 21.7803C7.2636 22.2633 7.97211 23.2983 8.94596 22.9011C9.79786 22.5542 9.60764 21.4788 9.85133 20.5301C9.90634 20.3151 9.87254 20.1569 9.98057 20.0129V20.056L10.7567 21.6078C11.3311 22.5328 12.35 23.4994 13.2139 24.1516C13.6617 24.4898 14.0143 25.0744 14.5933 25.2723V25.229H14.5502C14.438 25.0543 14.2624 24.9818 14.1192 24.8413C13.7819 24.5106 13.4067 24.0994 13.1279 23.7205C12.3423 22.6541 11.6481 21.4869 11.0156 20.272C10.7134 19.6917 10.4507 19.0519 10.1962 18.4613C10.0981 18.2338 10.0994 17.8893 9.89485 17.7716C9.61582 18.2042 9.20511 18.5541 8.98949 19.0649C8.64462 19.8814 8.60021 20.8774 8.47229 21.91C8.39674 21.937 8.43032 21.9184 8.38591 21.9529C7.78543 21.8082 7.57466 21.1902 7.35131 20.6598C6.78706 19.3187 6.68212 17.1598 7.17876 15.6162C7.30734 15.2165 7.88794 13.959 7.65287 13.5898C7.54064 13.2218 7.17037 13.0088 6.96336 12.7276C6.70686 12.3798 6.45102 11.922 6.27318 11.5204C5.81144 10.4752 5.59581 9.30139 5.10955 8.24447C4.87691 7.73921 4.48388 7.22776 4.1611 6.77883C3.80386 6.28108 3.40354 5.91456 3.1265 5.31297C3.02796 5.09911 2.8943 4.75667 3.04012 4.53685C3.08651 4.3886 3.15235 4.32674 3.29882 4.27836C3.54891 4.08549 4.24528 4.34243 4.50553 4.45046C5.19682 4.73767 5.77388 5.01118 6.35956 5.39913C6.64036 5.58559 6.92491 5.94593 7.2647 6.04579H7.65265C8.25954 6.18519 8.93934 6.08887 9.50646 6.26119C10.5086 6.56563 11.4067 7.03952 12.2221 7.55451C14.7067 9.12354 16.7383 11.3567 18.128 14.0209C18.3515 14.4499 18.4483 14.8591 18.6451 15.3142C19.0424 16.2317 19.5428 17.1757 19.938 18.0731C20.3326 18.9683 20.717 19.8717 21.2746 20.6167C21.5678 21.0082 22.6998 21.2183 23.2146 21.4359C23.5752 21.5881 24.1661 21.7472 24.5079 21.9529C25.1603 22.3466 25.7926 22.8152 26.4048 23.2464C26.7103 23.4618 27.6508 23.9348 27.6977 24.3243ZM8.42855 7.90026C8.1124 7.8943 7.88882 7.93473 7.65243 7.9862V8.02929H7.69551C7.84641 8.33903 8.11262 8.53875 8.29887 8.80541C8.44247 9.10742 8.58629 9.40898 8.73012 9.71055L8.77298 9.66791C9.04008 9.47946 9.16225 9.17878 9.16071 8.71925C9.05378 8.60679 9.03809 8.46584 8.9453 8.33152C8.82247 8.15234 8.58408 8.05049 8.42855 7.90026Z" fill="#0080B7"/>
</svg>