<svg xmlns="http://www.w3.org/2000/svg" width="32" viewBox="0 0 40 40" fill="#FBFF80">
    <rect width="100%" height="100%" fill="black"/>
    <g transform="translate(4 4)">
        <path d="M2.8587 0H0.91888C0.4114 0 0 0.4114 0 0.9189V33.079C0 33.587 0.4114 33.998 0.9189 33.998H2.8587C3.3662 33.998 3.7776 33.587 3.7776 33.079V0.9189C3.7776 0.4114 3.3662 0 2.8587 0Z"/>
        <path d="M10.414 0H8.4744C7.9669 0 7.5555 0.4114 7.5555 0.9189V33.079C7.5555 33.587 7.9669 33.998 8.4744 33.998H10.414C10.922 33.998 11.333 33.587 11.333 33.079V0.9189C11.333 0.4114 10.922 0 10.414 0Z"/>
        <path d="M17.97 0H16.03C15.5226 0 15.1112 0.4114 15.1112 0.9189V33.079C15.1112 33.587 15.5226 33.998 16.03 33.998H17.97C18.4774 33.998 18.8888 33.587 18.8888 33.079V0.9189C18.8888 0.4114 18.4774 0 17.97 0Z"/>
        <path d="M25.524 0H23.584C23.0763 0 22.6649 0.4114 22.6649 0.9189V33.079C22.6649 33.587 23.0763 33.998 23.584 33.998H25.524C26.0311 33.998 26.4425 33.587 26.4425 33.079V0.9189C26.4425 0.4114 26.0311 0 25.524 0Z"/>
        <path d="M33.081 13.223H31.141C30.6337 13.223 30.2223 13.634 30.2223 14.142V19.859C30.2223 20.366 30.6337 20.778 31.141 20.778H33.081C33.5885 20.778 33.9999 20.366 33.9999 19.859V14.142C33.9999 13.634 33.5885 13.223 33.081 13.223Z"/>
    </g>
</svg>