<svg xmlns="http://www.w3.org/2000/svg" width="32" height="33" viewBox="0 0 32 33" fill="none">
  <path d="M8.02985 9.86354C8.9442 8.94468 10.0311 8.21555 11.2281 7.71801C12.4251 7.22048 13.7086 6.96436 15.0048 6.96436C16.3011 6.96436 17.5846 7.22048 18.7816 7.71801C19.9786 8.21555 21.0655 8.94468 21.9798 9.86354C23.8332 11.7197 24.8741 14.2355 24.8741 16.8585C24.8741 19.4816 23.8332 21.9974 21.9798 23.8535C21.0647 24.7713 19.9774 25.4993 18.7802 25.9959C17.5831 26.4924 16.2997 26.7478 15.0036 26.7472C13.7076 26.7467 12.4244 26.4902 11.2276 25.9926C10.0309 25.495 8.94421 24.7661 8.02985 23.8475L1.73385 17.5295C1.55517 17.3503 1.45483 17.1076 1.45483 16.8545C1.45483 16.6015 1.55517 16.3587 1.73385 16.1795L8.02985 9.86354ZM20.4858 11.7195C19.8141 11.0447 19.0156 10.5092 18.1362 10.1438C17.2569 9.77838 16.3141 9.59027 15.3618 9.59027C14.4096 9.59027 13.4668 9.77838 12.5875 10.1438C11.7081 10.5092 10.9096 11.0447 10.2378 11.7195L5.61385 16.3595C5.4834 16.4917 5.41026 16.6699 5.41026 16.8555C5.41026 17.0412 5.4834 17.2194 5.61385 17.3515L10.2458 21.9975C10.9176 22.6724 11.7161 23.2079 12.5954 23.5733C13.4748 23.9387 14.4176 24.1268 15.3698 24.1268C16.3221 24.1268 17.2649 23.9387 18.1442 23.5733C19.0236 23.2079 19.8221 22.6724 20.4938 21.9975C21.853 20.6322 22.6155 18.7838 22.6144 16.8573C22.6133 14.9308 21.8486 13.0833 20.4878 11.7195H20.4858ZM15.4198 11.9835C18.1098 11.9835 20.2918 14.1975 20.2918 16.9275C20.2918 19.6595 18.1118 21.8735 15.4198 21.8735C12.7278 21.8735 10.5458 19.6595 10.5458 16.9275C10.5458 14.1975 12.7278 11.9835 15.4198 11.9835ZM30.2678 16.2555L27.4598 13.4355C27.4241 13.398 27.3769 13.3734 27.3257 13.3656C27.2744 13.3578 27.222 13.3672 27.1767 13.3923C27.1314 13.4175 27.0958 13.457 27.0753 13.5047C27.0549 13.5523 27.0509 13.6054 27.0638 13.6555C27.5479 15.8107 27.5479 18.0464 27.0638 20.2015C27.0118 20.4355 27.2958 20.5875 27.4598 20.4215L30.2678 17.6035C30.4454 17.4242 30.545 17.1819 30.545 16.9295C30.545 16.6771 30.4454 16.4349 30.2678 16.2555Z" fill="#43B6EA"/>
</svg>