<svg xmlns="http://www.w3.org/2000/svg" width="14" height="30" viewBox="0 0 14 30" fill="none">
  <path d="M7.6485 29.5222L6.86173 29.2614C6.86173 29.2614 6.96649 25.2804 5.52601 25.0007C4.58315 23.9028 5.66535 -21.871 9.11203 24.8446C8.45808 25.1763 7.9577 25.748 7.71554 26.4401C7.58576 27.4623 7.56328 28.4953 7.6485 29.5222Z" fill="#88851F"/>
  <path d="M8.07386 25.6765C10.1687 24.0996 11.7729 21.9605 12.7002 19.508C13.6274 17.0554 13.8396 14.3901 13.312 11.8217C11.772 5.02787 8.12519 2.79434 7.73233 1.94158C7.39338 1.41057 7.10406 0.849466 6.86804 0.265381L7.15823 19.1949C7.15823 19.1949 6.5569 24.9798 8.07386 25.6765Z" fill="#2D9F2C"/>
  <path d="M6.46155 25.9277C6.46155 25.9277 0.0490478 21.5602 0.419906 13.834C0.454502 11.5048 0.988561 9.21007 1.98601 7.10493C2.98346 4.99979 4.42107 3.13322 6.20174 1.6313C6.40983 1.45451 6.57516 1.23286 6.6853 0.983008C6.79543 0.733155 6.84752 0.461593 6.83765 0.188721C7.23679 1.04777 7.17184 13.0148 7.21374 14.4144C7.37613 19.8589 6.91098 24.9 6.46155 25.9277Z" fill="#5FB765"/>
</svg>