<svg class="svg-icon" viewBox="0 0 1191 1024" version="1.1" xmlns="http://www.w3.org/2000/svg">
  <path
    d="M584.192 22.016h-455.68v415.744l71.68-45.056c-14.336-28.16-9.728-63.488 13.824-87.04 29.184-29.184 77.312-29.184 106.496 0l7.168 7.168 51.2-32.256c20.48-17.408 75.776-35.84 102.4-37.376h111.616l54.272-21.504c13.824-2.56 28.16 0.512 39.936 8.192l73.216 48.64s96.256-25.6 116.736-15.36c6.656 3.072 22.016 50.688 24.576 86.528 1.024 18.432-7.68 35.84-23.04 46.08l-6.144 4.096-10.24 60.928s-192.512 141.824-284.16 314.368c-36.864 69.632-67.072 152.064-90.112 226.304h96.768c270.336 0 489.984-219.136 489.984-489.984-0.512-269.824-220.16-489.472-490.496-489.472z"
    fill="#FF6A00"
  />
  <path
    d="M482.304 338.944l110.08-10.24-22.528-27.648c-7.168-8.704-19.968-10.24-29.184-3.584l-58.368 41.472zM742.4 317.44l6.656 20.48c3.584 10.24 12.288 17.92 23.552 18.944l63.488 7.68 37.376-29.696c8.192-6.656 10.752-17.408 7.168-26.624l-10.752-26.624c-2.048-4.608-7.168-7.168-11.776-6.144l-108.544 28.672c-6.144 1.536-9.216 7.68-7.168 13.312zM237.056 426.496c-10.752-10.752-23.04-20.992-30.72-34.304-15.872-28.672-7.68-65.024 16.896-86.016 25.6-21.504 62.464-20.48 87.552 0 10.24 8.192 19.456 18.432 28.672 27.648 5.632 5.632 14.848-3.072 8.704-8.704-15.36-15.36-29.696-32.768-49.664-41.472-29.184-12.288-63.488-6.144-86.528 14.848-20.48 18.944-30.208 47.616-25.088 75.264 5.12 26.624 23.04 43.008 40.96 61.44 5.632 5.632 14.848-3.072 9.216-8.704zM712.704 269.312l6.656 19.456 40.448-10.24-39.936-15.872c-4.096-1.536-8.704 2.56-7.168 6.656z"
    fill="#FF6A00"
  />
  <path
    d="M458.752 1001.984l47.616-47.616c1.024-3.584 2.56-7.168 3.584-10.752l-58.368 58.368h7.168zM432.128 1001.984l88.576-88.576c1.536-3.584 2.56-7.68 4.096-11.264L424.96 1001.984h7.168zM406.528 1001.984l129.024-129.024c1.536-4.096 3.072-7.68 4.608-11.776L399.36 1001.984h7.168zM380.928 1001.984l172.032-172.032c2.048-4.608 4.096-9.216 6.144-13.312L373.76 1001.984h7.168zM354.816 1001.984l224.768-224.768c3.584-6.144 7.168-12.288 10.752-17.92l-243.2 243.2 7.68-0.512zM640 684.032l-317.952 317.952h7.168l302.08-302.08M291.328 1001.984h7.168L870.4 430.08l2.56-9.728zM840.704 423.936L262.656 1001.984h7.168L854.016 417.28c-4.096 2.048-8.704 4.096-13.312 6.656zM796.672 437.248L232.448 1001.984h7.168L806.912 434.176c-3.072 1.024-6.656 2.048-10.24 3.072zM743.424 460.8L228.352 975.872c-3.072 5.12-5.632 10.24-8.192 15.36L757.248 454.144c-4.608 2.048-9.216 4.608-13.824 6.656zM682.496 492.032l-412.672 412.672c-3.584 6.144-7.68 12.288-11.264 18.432l439.808-439.808c-5.632 2.56-10.752 5.632-15.872 8.704z"
    fill="#FF6A00"
  />
  <path d="M323.584 572.928l0.512 1.024 0.512-0.512z" fill="#FF6A00" />
  <path
    d="M324.608 573.44l-0.512 0.512 3.072 4.608 2.048-2.048zM343.552 585.728l-7.68 8.192 2.56 4.608L348.16 588.8zM362.496 598.016l-15.36 15.36 2.56 4.608 17.408-16.896zM381.952 610.816l-22.528 21.504c1.024 1.536 2.56 2.56 3.584 3.584l23.04-23.04c-1.024-0.512-2.56-1.536-4.096-2.048zM402.944 620.032l-27.136 27.136c1.536 1.024 3.072 1.536 4.608 2.56l28.16-28.16c-1.536-1.024-3.584-1.024-5.632-1.536zM441.344 619.008c-2.56 1.024-5.12 1.536-8.192 2.048l-34.816 34.816c2.048 0.512 4.096 0.512 6.144 1.024l38.4-38.4-1.536 0.512zM477.696 607.232l-47.104 47.104c3.584-1.024 7.68-2.56 11.264-4.096l46.592-46.592-10.752 3.584zM523.264 593.408l-27.648 27.136 16.384-9.216 22.016-21.504zM563.712 580.608l-4.608 4.608 13.312-7.168z"
    fill="#FF6A00"
  />
</svg>
