<svg xmlns="http://www.w3.org/2000/svg" width="24" height="24" fill="none" viewBox="0 0 24 24"><path fill="#24282C" d="M8.26025 5.23399C9.84882 5.23399 11.2882 5.41127 12.2982 5.68534C12.8046 5.82238 13.2036 5.9872 13.4449 6.14149C13.6853 6.29577 13.7205 6.40406 13.7205 6.42131C13.7205 6.43855 13.6853 6.54588 13.4449 6.69921C13.2036 6.85445 12.8046 7.01927 12.2991 7.15631C11.2882 7.43134 9.84882 7.60861 8.26025 7.60861C6.67074 7.60861 5.23134 7.43134 4.22043 7.15631C3.71498 7.01927 3.31594 6.85445 3.07556 6.70017C2.83424 6.54492 2.80004 6.43855 2.80004 6.42131C2.80004 6.40406 2.83424 6.29673 3.07556 6.14149C3.31594 5.9872 3.71498 5.82238 4.22043 5.68534C5.23134 5.41127 6.67169 5.23399 8.26025 5.23399Z"/><path fill="#24282C" d="M2.79909 7.43996C3.13352 7.63162 3.52116 7.79835 4.01331 7.93251C5.12303 8.23341 6.61278 8.41165 8.26025 8.41165C9.90677 8.41165 11.3975 8.23341 12.5072 7.93251C12.9305 7.82133 13.338 7.65579 13.7195 7.43996V10.4327C13.7195 10.4422 13.7195 10.4777 13.634 10.562C13.4947 10.6866 13.3366 10.7879 13.1656 10.862C12.7143 11.0738 12.0093 11.2731 11.1276 11.4111C9.36426 11.6871 7.15529 11.6871 5.39095 11.4111C4.50926 11.2731 3.80429 11.0738 3.35394 10.862C3.18256 10.788 3.02408 10.6868 2.88459 10.562C2.80099 10.4777 2.79909 10.4413 2.79909 10.4327V7.43996Z"/><path fill="#24282C" d="M2.79909 11.4475C2.87794 11.4925 2.92925 11.55 3.01761 11.5912C3.57817 11.8557 4.33825 12.0608 5.26934 12.2064C7.13153 12.4978 9.38802 12.4978 11.2502 12.2064C12.1813 12.0608 12.9414 11.8557 13.5019 11.5912C13.5903 11.55 13.6416 11.4925 13.7205 11.4475V14.444C13.7205 14.4536 13.7186 14.4891 13.635 14.5734C13.4955 14.6984 13.337 14.8 13.1656 14.8743C12.7143 15.0861 12.0093 15.2854 11.1276 15.4234C9.36426 15.6994 7.15529 15.6994 5.39095 15.4234C4.50926 15.2854 3.80429 15.0861 3.35394 14.8743C3.18248 14.8001 3.024 14.6985 2.88459 14.5734C2.80099 14.4891 2.79909 14.4527 2.79909 14.444V11.4475Z"/><path fill="#24282C" d="M2.79909 15.4598C2.87794 15.5049 2.92925 15.5624 3.01761 15.6036C3.57817 15.8671 4.33825 16.0731 5.26934 16.2188C7.13153 16.5101 9.38802 16.5101 11.2502 16.2188C12.1813 16.0722 12.9414 15.8671 13.5019 15.6036C13.5903 15.5624 13.6416 15.5049 13.7205 15.4598V18.4564C13.7205 18.466 13.7186 18.5014 13.635 18.5857C13.4955 18.7107 13.337 18.8123 13.1656 18.8866C12.7143 19.0984 12.0093 19.2977 11.1276 19.4357C9.36426 19.7117 7.15529 19.7117 5.39095 19.4357C4.50926 19.2977 3.80429 19.0984 3.35394 18.8866C3.18248 18.8124 3.024 18.7108 2.88459 18.5857C2.80099 18.5014 2.79909 18.465 2.79909 18.4564V15.4598Z"/><path fill="#24282C" fill-rule="evenodd" d="M22.3036 7.42851C22.398 7.33326 22.4511 7.20408 22.4511 7.06938C22.4511 7.0026 22.438 6.93648 22.4126 6.8748C22.3873 6.81311 22.3501 6.75708 22.3032 6.70991C22.2564 6.66273 22.2008 6.62534 22.1396 6.59987C22.0783 6.57441 22.0128 6.56136 21.9466 6.56149C21.813 6.56149 21.6849 6.615 21.5905 6.71025C21.4961 6.80549 21.443 6.93468 21.443 7.06938C21.443 7.13616 21.4561 7.20228 21.4814 7.26396C21.5068 7.32564 21.544 7.38168 21.5908 7.42885C21.6377 7.47602 21.6933 7.51341 21.7545 7.53888C21.8157 7.56435 21.8813 7.57739 21.9475 7.57727C22.0811 7.57727 22.2091 7.52376 22.3036 7.42851ZM21.0041 1.21235C21.0041 1.21235 21.1694 1.1951 21.4202 1.20277C21.7365 1.21112 22.0506 1.25745 22.3561 1.34076C22.7019 1.43851 23.0696 1.60333 23.3641 1.90615C23.6586 2.20897 23.8563 2.65457 23.8563 3.196C23.8594 3.53334 23.7382 3.85983 23.5161 4.11212C23.3147 4.33444 23.0667 4.46477 22.8378 4.54814C22.6433 4.61867 22.5571 4.62329 22.4517 4.62896C22.4196 4.63068 22.3858 4.6325 22.3466 4.6363V5.9846H21.5485V3.9013L21.9494 3.90321C21.9494 3.90321 22.2705 3.90034 22.567 3.79205C22.7022 3.7471 22.8252 3.67098 22.9261 3.56973C23.0088 3.47965 23.0582 3.38382 23.0582 3.196C23.0582 2.83568 22.9537 2.63253 22.795 2.46962C22.6354 2.30575 22.3988 2.18884 22.1404 2.11601C21.6245 1.97035 21.0763 2.01348 21.0763 2.01348L21.0041 1.21235ZM15.3225 5.13365L18.0531 2.7504L18.5747 3.35891L16.5481 5.1279L18.5813 6.8691L18.0645 7.4824L15.3225 5.13365Z" clip-rule="evenodd"/></svg>