<svg xmlns="http://www.w3.org/2000/svg" width="24" height="24" fill="none" viewBox="0 0 24 24"><path fill="#24282C" d="M2.64941 9.19496H20.4144C20.6624 9.19496 20.9002 9.29347 21.0756 9.46882C21.2509 9.64416 21.3494 9.88198 21.3494 10.13V19.48C21.3494 19.7279 21.2509 19.9658 21.0756 20.1411C20.9002 20.3165 20.6624 20.415 20.4144 20.415H3.58441C3.33644 20.415 3.09862 20.3165 2.92327 20.1411C2.74792 19.9658 2.64941 19.7279 2.64941 19.48V9.19496ZM3.58441 3.58496H17.6094V7.32496H2.64941V4.51996C2.64941 4.27198 2.74792 4.03416 2.92327 3.85882C3.09862 3.68347 3.33644 3.58496 3.58441 3.58496ZM14.8044 13.87V15.74H17.6094V13.87H14.8044Z"/></svg>