<svg xmlns="http://www.w3.org/2000/svg" width="16" height="17" fill="none" viewBox="0 0 16 17"><mask id="mask0_2760_71857" style="mask-type:alpha" width="16" height="17" x="0" y="0" maskUnits="userSpaceOnUse"><rect width="16" height="16" y=".545" fill="#D9D9D9"/></mask><g mask="url(#mask0_2760_71857)"><path fill="#000" fill-opacity=".7" d="M3.99935 15.2117C3.63268 15.2117 3.31879 15.0811 3.05768 14.82C2.79657 14.5589 2.66602 14.245 2.66602 13.8783V7.21167C2.66602 6.845 2.79657 6.53111 3.05768 6.27C3.31879 6.00889 3.63268 5.87834 3.99935 5.87834H4.66602V4.545C4.66602 3.62278 4.99102 2.83667 5.64102 2.18667C6.29102 1.53667 7.07713 1.21167 7.99935 1.21167C8.92157 1.21167 9.70768 1.53667 10.3577 2.18667C11.0077 2.83667 11.3327 3.62278 11.3327 4.545V5.87834H11.9993C12.366 5.87834 12.6799 6.00889 12.941 6.27C13.2021 6.53111 13.3327 6.845 13.3327 7.21167V13.8783C13.3327 14.245 13.2021 14.5589 12.941 14.82C12.6799 15.0811 12.366 15.2117 11.9993 15.2117H3.99935ZM3.99935 13.8783H11.9993V7.21167H3.99935V13.8783ZM7.99935 11.8783C8.36602 11.8783 8.6799 11.7478 8.94102 11.4867C9.20213 11.2256 9.33268 10.9117 9.33268 10.545C9.33268 10.1783 9.20213 9.86445 8.94102 9.60334C8.6799 9.34223 8.36602 9.21167 7.99935 9.21167C7.63268 9.21167 7.31879 9.34223 7.05768 9.60334C6.79657 9.86445 6.66602 10.1783 6.66602 10.545C6.66602 10.9117 6.79657 11.2256 7.05768 11.4867C7.31879 11.7478 7.63268 11.8783 7.99935 11.8783ZM5.99935 5.87834H9.99935V4.545C9.99935 3.98945 9.8049 3.51723 9.41602 3.12834C9.02713 2.73945 8.5549 2.545 7.99935 2.545C7.44379 2.545 6.97157 2.73945 6.58268 3.12834C6.19379 3.51723 5.99935 3.98945 5.99935 4.545V5.87834Z"/></g></svg>