<svg xmlns="http://www.w3.org/2000/svg" width="16" height="17" fill="none" viewBox="0 0 16 17"><g clip-path="url(#clip0_2082_95237)"><path fill="#219BF4" stroke="#219BF4" d="M7.12811 9.10493L5.92667 7.90271L5.92655 7.9026C5.82438 7.80042 5.70308 7.71937 5.56958 7.66408C5.43608 7.60878 5.293 7.58032 5.1485 7.58032C5.004 7.58032 4.86092 7.60878 4.72742 7.66408C4.59392 7.71937 4.47262 7.80042 4.37045 7.9026C4.16409 8.10895 4.04817 8.38883 4.04817 8.68065C4.04817 8.97248 4.16409 9.25235 4.37045 9.4587L6.34907 11.4373C6.34932 11.4376 6.34958 11.4378 6.34983 11.4381C6.45174 11.5406 6.57289 11.622 6.70633 11.6776C6.84011 11.7333 6.98359 11.762 7.1285 11.762C7.27341 11.762 7.41689 11.7333 7.55067 11.6776C7.68416 11.622 7.80534 11.5405 7.90727 11.438C7.90749 11.4378 7.90771 11.4375 7.90793 11.4373L12.0053 7.339C12.108 7.23759 12.1897 7.11694 12.2459 6.98394C12.3023 6.85016 12.3318 6.70653 12.3324 6.56132C12.3331 6.41612 12.305 6.27222 12.2498 6.13792C12.1946 6.00362 12.1133 5.88159 12.0107 5.77885C11.9081 5.67611 11.7862 5.59471 11.6519 5.53934C11.5177 5.48396 11.3738 5.45571 11.2286 5.45621C11.0834 5.45672 10.9398 5.48597 10.8059 5.54227C10.6727 5.59829 10.5519 5.67999 10.4504 5.78269C10.4498 5.78322 10.4493 5.78374 10.4488 5.78427L7.12811 9.10493ZM8 1.93115C9.72391 1.93115 11.3772 2.61597 12.5962 3.83496C13.8152 5.05394 14.5 6.70725 14.5 8.43115C14.5 10.1551 13.8152 11.8084 12.5962 13.0273C11.3772 14.2463 9.72391 14.9312 8 14.9312C6.27609 14.9312 4.62279 14.2463 3.40381 13.0273C2.18482 11.8084 1.5 10.1551 1.5 8.43115C1.5 6.70725 2.18482 5.05394 3.40381 3.83496C4.62279 2.61597 6.27609 1.93115 8 1.93115Z"/></g><defs><clipPath id="clip0_2082_95237"><rect width="16" height="16" fill="#fff" transform="translate(0 0.431152)"/></clipPath></defs></svg>