<svg xmlns="http://www.w3.org/2000/svg" width="16" height="17" fill="none" viewBox="0 0 16 17"><mask id="mask0_2764_71864" style="mask-type:alpha" width="16" height="17" x="0" y="0" maskUnits="userSpaceOnUse"><rect width="16" height="16" y=".671" fill="#D9D9D9"/></mask><g mask="url(#mask0_2764_71864)"><path fill="#000" fill-opacity=".7" d="M7.99935 8.67074C7.26602 8.67074 6.63824 8.40963 6.11602 7.8874C5.59379 7.36518 5.33268 6.7374 5.33268 6.00407C5.33268 5.27074 5.59379 4.64296 6.11602 4.12074C6.63824 3.59851 7.26602 3.3374 7.99935 3.3374C8.73268 3.3374 9.36046 3.59851 9.88268 4.12074C10.4049 4.64296 10.666 5.27074 10.666 6.00407C10.666 6.7374 10.4049 7.36518 9.88268 7.8874C9.36046 8.40963 8.73268 8.67074 7.99935 8.67074ZM2.66602 14.0041V12.1374C2.66602 11.7596 2.76324 11.4124 2.95768 11.0957C3.15213 10.7791 3.41046 10.5374 3.73268 10.3707C4.42157 10.0263 5.12157 9.76796 5.83268 9.59574C6.54379 9.42351 7.26602 9.3374 7.99935 9.3374C8.73268 9.3374 9.4549 9.42351 10.166 9.59574C10.8771 9.76796 11.5771 10.0263 12.266 10.3707C12.5882 10.5374 12.8466 10.7791 13.041 11.0957C13.2355 11.4124 13.3327 11.7596 13.3327 12.1374V14.0041H2.66602ZM3.99935 12.6707H11.9993V12.1374C11.9993 12.0152 11.9688 11.9041 11.9077 11.8041C11.8466 11.7041 11.766 11.6263 11.666 11.5707C11.066 11.2707 10.4605 11.0457 9.84935 10.8957C9.23824 10.7457 8.62157 10.6707 7.99935 10.6707C7.37713 10.6707 6.76046 10.7457 6.14935 10.8957C5.53824 11.0457 4.93268 11.2707 4.33268 11.5707C4.23268 11.6263 4.15213 11.7041 4.09102 11.8041C4.0299 11.9041 3.99935 12.0152 3.99935 12.1374V12.6707ZM7.99935 7.3374C8.36602 7.3374 8.6799 7.20685 8.94102 6.94574C9.20213 6.68462 9.33268 6.37074 9.33268 6.00407C9.33268 5.6374 9.20213 5.32351 8.94102 5.0624C8.6799 4.80129 8.36602 4.67074 7.99935 4.67074C7.63268 4.67074 7.31879 4.80129 7.05768 5.0624C6.79657 5.32351 6.66602 5.6374 6.66602 6.00407C6.66602 6.37074 6.79657 6.68462 7.05768 6.94574C7.31879 7.20685 7.63268 7.3374 7.99935 7.3374Z"/></g></svg>