<svg xmlns="http://www.w3.org/2000/svg" xmlns:xlink="http://www.w3.org/1999/xlink" id="Layer_1" x="0" y="0" version="1.1" viewBox="0 0 118.53 122.88" style="enable-background:new 0 0 118.53 122.88" xml:space="preserve"><style type="text/css">.st0{fill:#fff}.st1{fill:#336791}</style><g><path d="M113.53,75.55c-14.65,3.02-15.66-1.94-15.66-1.94c15.47-22.95,21.93-52.09,16.35-59.22 C99-5.06,72.65,4.14,72.21,4.38L72.06,4.4c-2.89-0.6-6.13-0.96-9.77-1.02c-6.63-0.11-11.66,1.74-15.47,4.63 c0,0-47.01-19.37-44.82,24.36c0.47,9.3,13.33,70.38,28.68,51.93c5.61-6.75,11.03-12.45,11.03-12.45c2.69,1.79,5.92,2.7,9.29,2.37 L51.26,74c-0.08,0.84-0.04,1.66,0.1,2.63c-3.95,4.42-2.79,5.19-10.7,6.82c-8,1.65-3.3,4.58-0.23,5.35 c3.72,0.93,12.32,2.25,18.14-5.89l-0.23,0.93c1.55,1.24,2.64,8.07,2.46,14.26c-0.18,6.19-0.3,10.44,0.92,13.76 s2.44,10.79,12.83,8.56c8.68-1.86,13.18-6.68,13.81-14.72c0.44-5.72,1.45-4.87,1.51-9.98l0.81-2.42c0.93-7.75,0.15-10.25,5.5-9.09 l1.3,0.11c3.94,0.18,9.09-0.63,12.11-2.04C116.08,79.27,119.95,74.22,113.53,75.55L113.53,75.55L113.53,75.55z" class="st1"/><path d="M57.39,79.94c0.03-1,0.86-1.79,1.86-1.76s1.79,0.86,1.76,1.86c-0.21,7.43-0.17,14.88,0.1,20.84 c0.25,5.37,0.68,9.41,1.28,10.91c0.64,1.59,1.63,3.94,3.53,5.53c1.85,1.56,4.7,2.51,9.24,1.54c3.97-0.85,6.64-2.06,8.42-3.91 c1.76-1.83,2.76-4.42,3.38-8.04c0.46-2.64,1.09-7.25,1.66-11.84c0.72-5.74,1.38-11.54,1.52-13.41c0.07-1,0.94-1.75,1.94-1.67 c1,0.07,1.75,0.94,1.67,1.94c-0.14,1.82-0.8,7.69-1.55,13.6c-0.6,4.74-1.24,9.44-1.68,11.99c-0.75,4.33-2.02,7.52-4.35,9.94 c-2.32,2.41-5.57,3.93-10.28,4.94c-5.85,1.25-9.71-0.12-12.32-2.32c-2.57-2.16-3.79-5.02-4.56-6.95c-0.76-1.89-1.27-6.35-1.54-12.1 C57.21,95.02,57.18,87.47,57.39,79.94L57.39,79.94z" class="st0"/><path d="M47.41,6.01c0.93,0.37,1.38,1.42,1.01,2.35c-0.37,0.93-1.42,1.38-2.35,1.01C45.95,9.32,1.65-8.78,3.7,32.1 c0.25,5.05,4.25,25.71,10.33,40.12c1.92,4.54,4.03,8.42,6.27,10.9c1.87,2.08,3.78,3.08,5.62,2.42c1.02-0.37,2.11-1.2,3.26-2.58 c5.63-6.77,10.75-12.12,10.77-12.13c0.69-0.72,1.83-0.75,2.55-0.06c0.72,0.69,0.75,1.83,0.06,2.55c-0.01,0.01-5.01,5.22-10.6,11.95 c-1.59,1.92-3.21,3.11-4.84,3.69c-3.46,1.23-6.64-0.21-9.52-3.41c-2.52-2.79-4.84-7.02-6.9-11.93C4.45,58.83,0.34,37.51,0.08,32.27 C-2.25-14.29,47.27,5.95,47.41,6.01L47.41,6.01z" class="st0"/><path d="M73.1,5.73l-2.69-2.94c0.22-0.08,0.44-0.15,0.66-0.21c0.59-0.19,1.23-0.38,1.92-0.58 c1.01-0.3,2.49-0.69,4.3-1.04c9.03-1.75,26.65-2.7,38.26,12.14c3.28,4.19,3.01,14.56-0.38,26.84c-3,10.87-8.41,23.4-15.89,34.5 c-0.56,0.83-1.69,1.05-2.52,0.49s-1.05-1.69-0.49-2.52c7.26-10.77,12.5-22.92,15.41-33.44c3.1-11.22,3.59-20.37,1.02-23.65 C102.28,2.01,86.21,2.91,77.96,4.52C76.27,4.85,74.92,5.2,74,5.47L73.1,5.73L73.1,5.73z" class="st0"/><path d="M99.49,72.87c0.02,0.05,0.03,0.1,0.04,0.15c0,0.01,0.62,3.24,13.53,0.58c1.83-0.38,3.13-0.3,3.97,0.11 c1.09,0.52,1.56,1.39,1.49,2.51c-0.04,0.68-0.36,1.41-0.89,2.14c-1.22,1.67-4.01,3.83-7.4,5.4c-2.54,1.18-6.41,1.97-9.96,2.17 c-2.09,0.12-4.09,0.04-5.68-0.28c-2-0.4-3.52-1.23-4.15-2.58c-0.17-0.36-0.27-0.75-0.29-1.17c-0.4-7.02,3.02-8.25,5.41-8.93 c-0.25-0.36-0.59-0.79-0.97-1.26c-1.21-1.51-2.76-3.45-3.99-6.42c-0.19-0.45-0.74-1.45-1.48-2.77c-3.13-5.61-9.29-16.67-8.08-24.22 c0.86-5.39,4.97-8.97,15.24-7.9l-0.1-0.3c-0.49-1.39-1.27-3.21-2.4-5.25c-4.48-8.16-14.25-19.54-31.6-19.82 c-26.47-0.43-25.6,32.95-25.6,33.04c0.02,1-0.78,1.82-1.78,1.84s-1.82-0.78-1.84-1.78c0-0.11-0.98-37.21,29.27-36.72 c19.1,0.31,29.82,12.77,34.72,21.69c1.22,2.22,2.09,4.24,2.64,5.81c0.62,1.76,0.85,3.14,0.75,3.75c-0.14,0.9-0.64,1.46-1.5,1.63 l-0.65,0.01c-9.42-1.51-12.98,0.8-13.58,4.56c-1.01,6.33,4.75,16.65,7.67,21.9c0.79,1.42,1.39,2.5,1.66,3.16 c1.04,2.51,2.4,4.21,3.46,5.55C98.39,70.68,99.17,71.66,99.49,72.87L99.49,72.87z M113.79,77.14c-9.57,1.98-14.03,0.53-16.08-1.03 c-0.28,0.09-0.58,0.17-0.9,0.26c-1.28,0.36-3.27,0.92-3.06,5.22c0.15,0.16,0.71,0.33,1.53,0.5c1.31,0.26,2.99,0.32,4.78,0.22 c3.13-0.18,6.5-0.85,8.65-1.85c2.21-1.03,4.06-2.27,5.2-3.35L113.79,77.14L113.79,77.14z" class="st0"/><path d="M52.6,77.67c-0.74,0.83-1.35,1.6-1.87,2.26c-2.22,2.82-2.91,3.7-9.8,5.12c-1.24,0.26-2.08,0.51-2.6,0.76 c0.64,0.46,1.6,0.84,2.44,1.05c1.7,0.43,4.52,0.94,7.54,0.43c2.94-0.5,6.11-2.01,8.68-5.61c0.08-0.12,0.15-0.25,0.21-0.38 c0.26-0.63,0.2-1.42-0.06-2.17c-0.28-0.8-0.79-1.5-1.38-1.93c-0.14-0.1-0.28-0.18-0.43-0.24l-0.09-0.04 c-0.37-0.15-0.78-0.31-1.13-0.28C53.73,76.68,53.25,76.94,52.6,77.67L52.6,77.67L52.6,77.67z M47.88,77.68 c0.49-0.62,1.06-1.34,1.92-2.31c0.07-0.09,0.15-0.18,0.23-0.26c1.33-1.44,2.6-1.98,3.77-2.08c1.16-0.1,2.06,0.23,2.82,0.55 c0.03,0.01,0.06,0.02,0.1,0.04c0.39,0.16,0.77,0.38,1.14,0.64c1.19,0.85,2.17,2.2,2.7,3.67c0.54,1.53,0.63,3.24-0.01,4.76 c-0.16,0.38-0.36,0.74-0.61,1.09c-3.24,4.54-7.28,6.44-11.02,7.08c-3.67,0.63-7.01,0.02-9.03-0.48c-1.47-0.37-3.29-1.19-4.36-2.19 c-0.63-0.59-1.06-1.29-1.18-2.07c-0.14-0.93,0.14-1.83,0.99-2.63c0.82-0.77,2.34-1.47,4.85-1.99 C45.78,80.35,46.28,79.72,47.88,77.68L47.88,77.68z" class="st0"/><path d="M52.79,76.1c0.15,0.99-0.53,1.92-1.52,2.06s-1.92-0.53-2.06-1.52c-0.04-0.24-0.06-0.48-0.08-0.73 c-0.6-0.02-1.19-0.06-1.77-0.15c-3.88-0.54-7.39-2.5-10.03-5.4c-2.61-2.86-4.37-6.64-4.78-10.86c-0.15-1.5-0.12-3.06,0.1-4.63 c0.89-6.34,0.55-12.01,0.38-14.95c-0.05-0.8-0.08-1.4-0.08-1.86c0.01-1.19,3-3.81,6.94-5.43c1.78-0.73,3.77-1.34,5.74-1.64 c2.08-0.31,4.18-0.28,6.07,0.31c2.96,0.93,5.31,3.12,6.21,7.31c3.25,15.01,0.34,21.46-1.93,26.51c-0.39,0.87-0.76,1.69-1.04,2.43 c-0.01,0.05-0.03,0.09-0.05,0.14c-0.95,2.56,0.44-1.19-0.28,0.72C53.48,71.49,52.49,74.13,52.79,76.1L52.79,76.1z M49.52,72.3 c0.39-1.61,1.03-3.31,1.71-5.14c0.54-1.44-0.87,2.33,0.26-0.72c0.02-0.05,0.04-0.1,0.06-0.15c0.35-0.93,0.73-1.76,1.12-2.64 c2.06-4.57,4.68-10.41,1.69-24.25c-0.58-2.69-1.99-4.07-3.75-4.62c-1.32-0.41-2.87-0.42-4.46-0.18c-1.7,0.26-3.4,0.78-4.92,1.4 c-2.67,1.09-4.69,2.01-4.69,2.09c0,0.26,0.03,0.85,0.08,1.64c0.18,3.05,0.53,8.96-0.4,15.66c-0.18,1.31-0.21,2.58-0.09,3.8 c0.33,3.4,1.75,6.45,3.86,8.76c2.08,2.28,4.83,3.83,7.85,4.25C48.4,72.26,48.96,72.3,49.52,72.3L49.52,72.3z" class="st0"/><path d="M46.57,37.82c-0.08,0.59,1.09,2.18,2.61,2.39c1.52,0.21,2.83-1.03,2.91-1.62c0.08-0.59-1.09-1.25-2.61-1.46 C47.96,36.92,46.65,37.23,46.57,37.82L46.57,37.82L46.57,37.82z" class="st0"/><path d="M47.17,37.9c-0.02,0.13,0.19,0.47,0.54,0.84c0.39,0.41,0.94,0.78,1.55,0.87l0.01,0 c0.6,0.08,1.16-0.12,1.58-0.41c0.39-0.26,0.63-0.54,0.66-0.7c0-0.03-0.15-0.12-0.4-0.26c-0.41-0.23-1.01-0.42-1.7-0.52l-0.02,0 c-0.68-0.09-1.31-0.07-1.76,0.04C47.35,37.83,47.17,37.88,47.17,37.9L47.17,37.9L47.17,37.9z M46.84,39.57 c-0.59-0.62-0.92-1.36-0.86-1.82l0-0.02c0.08-0.57,0.59-0.96,1.37-1.15c0.59-0.14,1.37-0.17,2.2-0.06c0.01,0,0.02,0,0.03,0 c0.84,0.12,1.59,0.36,2.12,0.66c0.7,0.39,1.09,0.92,1.01,1.48c-0.06,0.44-0.51,1.08-1.18,1.53c-0.63,0.43-1.49,0.74-2.42,0.61 l-0.01,0C48.18,40.68,47.39,40.15,46.84,39.57L46.84,39.57z" class="st0"/><path d="M93.01,36.61c0.08,0.59-1.09,2.18-2.61,2.39c-1.53,0.21-2.83-1.03-2.91-1.62c-0.08-0.59,1.09-1.25,2.62-1.46 C91.62,35.71,92.92,36.02,93.01,36.61L93.01,36.61L93.01,36.61z" class="st0"/><path d="M93.3,36.57L93.3,36.57c0.05,0.38-0.25,1.03-0.78,1.59c-0.51,0.54-1.25,1.03-2.09,1.14l-0.01,0 c-0.84,0.11-1.62-0.17-2.2-0.56c-0.6-0.4-0.99-0.95-1.05-1.32v0c-0.06-0.43,0.27-0.85,0.86-1.18c0.5-0.28,1.21-0.51,2.01-0.62 c0.8-0.11,1.55-0.08,2.11,0.05C92.81,35.82,93.24,36.13,93.3,36.57L93.3,36.57z M92.08,37.74c0.41-0.43,0.65-0.87,0.62-1.09 c-0.02-0.16-0.28-0.3-0.68-0.4h0c-0.49-0.12-1.16-0.14-1.89-0.04c-0.72,0.1-1.36,0.31-1.8,0.55c-0.36,0.2-0.57,0.41-0.55,0.57 c0.03,0.22,0.33,0.59,0.79,0.9c0.47,0.32,1.11,0.55,1.79,0.46l0.01,0C91.04,38.6,91.65,38.19,92.08,37.74L92.08,37.74z" class="st0"/><path d="M96.65,32.59c-0.05-1,0.72-1.85,1.72-1.9c1-0.05,1.85,0.72,1.9,1.72c0.15,2.8-0.19,5.02-0.55,7.35 c-0.27,1.74-0.55,3.56-0.61,5.59c-0.06,1.93,0.19,4.07,0.46,6.27c0.7,5.79,1.44,11.99-2.86,18.4c-0.56,0.83-1.68,1.05-2.51,0.5 c-0.83-0.56-1.05-1.68-0.5-2.51c3.54-5.29,2.88-10.8,2.26-15.96c-0.28-2.3-0.55-4.54-0.47-6.8c0.07-2.34,0.36-4.21,0.64-6.02 C96.47,37.05,96.78,34.99,96.65,32.59L96.65,32.59z" class="st0"/></g></svg>