<svg xmlns="http://www.w3.org/2000/svg" width="25" height="25" fill="none" viewBox="0 0 25 25"><path fill="#24282C" d="M3.88031 4.30054H20.7103C20.9583 4.30054 21.1961 4.39905 21.3715 4.57439C21.5468 4.74974 21.6453 4.98756 21.6453 5.23554V20.1955C21.6453 20.4435 21.5468 20.6813 21.3715 20.8567C21.1961 21.032 20.9583 21.1305 20.7103 21.1305H3.88031C3.63234 21.1305 3.39451 21.032 3.21917 20.8567C3.04382 20.6813 2.94531 20.4435 2.94531 20.1955V5.23554C2.94531 4.98756 3.04382 4.74974 3.21917 4.57439C3.39451 4.39905 3.63234 4.30054 3.88031 4.30054V4.30054ZM12.2953 15.5205V17.3905H17.9053V15.5205H12.2953ZM8.9424 12.7155L6.29822 15.3597L7.62031 16.6827L11.5875 12.7155L7.62031 8.74833L6.29822 10.0714L8.9424 12.7155Z"/></svg>