<svg xmlns="http://www.w3.org/2000/svg" width="9" height="5" fill="none" viewBox="0 0 9 5"><path fill="#9B9B9B" d="M4.43705 0.03339C4.52594 0.03339 4.60927 0.0473895 4.68705 0.0753899C4.76483 0.102945 4.83705 0.150056 4.90372 0.216723L7.98705 3.30006C8.10927 3.42228 8.1675 3.57517 8.16172 3.75872C8.15638 3.94183 8.09261 4.0945 7.97039 4.21672C7.84816 4.33895 7.69261 4.40006 7.50372 4.40006C7.31483 4.40006 7.15927 4.33895 7.03705 4.21672L4.43705 1.61672L1.82038 4.23339C1.69816 4.35561 1.54527 4.41406 1.36172 4.40872C1.17861 4.40295 1.02594 4.33895 0.903719 4.21672C0.781497 4.0945 0.720385 3.93895 0.720385 3.75006C0.720385 3.56117 0.781497 3.40561 0.903719 3.28339L3.97038 0.216723C4.03705 0.150056 4.10927 0.102945 4.18705 0.0753899C4.26483 0.0473895 4.34816 0.03339 4.43705 0.03339Z"/></svg>