<svg width="20" height="20" viewBox="0 0 20 20" fill="none" xmlns="http://www.w3.org/2000/svg">
<path d="M18.748 15.8395V15.948C18.748 16.6906 18.453 17.4028 17.9279 17.9279C17.4028 18.453 16.6907 18.748 15.948 18.748H4.04806C3.68036 18.748 3.31626 18.6756 2.97654 18.5349C2.63683 18.3941 2.32816 18.1879 2.06815 17.9279C1.80815 17.6679 1.6019 17.3592 1.46119 17.0195C1.32047 16.6798 1.24805 16.3157 1.24805 15.948L1.24805 4.048C1.24804 3.6803 1.32047 3.3162 1.46118 2.97648C1.60189 2.63677 1.80814 2.3281 2.06814 2.06809C2.32814 1.80809 2.63681 1.60184 2.97653 1.46112C3.31624 1.32041 3.68034 1.24799 4.04804 1.24799L15.948 1.24799C16.6907 1.24799 17.4028 1.54298 17.9279 2.06809C18.453 2.59319 18.748 3.30538 18.748 4.04798V15.8395Z" fill="#1683FE"/>
<path d="M15.6891 12.329C14.9891 12.084 14.0545 11.734 13.008 11.3525C13.6804 10.1547 14.1979 8.87627 14.548 7.54802H11.048V6.49805H15.2481V5.75603L11.0481 5.79804V3.698H9.31903C9.00754 3.698 8.94804 4.048 8.94804 4.048V5.79801H4.74805V6.49801H8.94804V7.548H5.44807V8.248H12.4481C12.1642 9.12778 11.7925 9.97673 11.3386 10.782C9.14406 10.0505 6.78858 9.45551 5.28357 9.84051C4.54942 9.99568 3.88092 10.3733 3.36907 10.922C1.73806 12.9205 2.92105 15.948 6.36507 15.948C8.41608 15.948 10.4006 14.7965 11.9336 12.91C14.2296 14.037 18.7481 15.9235 18.7481 15.9235V13.2355C18.7481 13.2355 18.1951 13.1655 15.6891 12.329ZM6.05355 14.807C3.33755 14.807 2.55355 12.6755 3.89405 11.489C4.33118 11.0899 4.86816 10.8166 5.44805 10.698C7.04756 10.523 8.69254 11.307 10.467 12.1785C9.18606 13.7955 7.61803 14.807 6.05355 14.807Z" fill="white"/>
</svg>
