<svg xmlns="http://www.w3.org/2000/svg" width="24" height="25" fill="none" viewBox="0 0 24 25"><mask id="mask0_1434_14420" style="mask-type:alpha" width="24" height="25" x="0" y="0" maskUnits="userSpaceOnUse"><rect width="24" height="24" y=".5" fill="#D9D9D9"/></mask><g mask="url(#mask0_1434_14420)"><path fill="#5A646E" d="M7 17.5H14V15.5H7V17.5ZM7 13.5H17V11.5H7V13.5ZM7 9.5H17V7.5H7V9.5ZM5 21.5C4.45 21.5 3.97917 21.3042 3.5875 20.9125C3.19583 20.5208 3 20.05 3 19.5V5.5C3 4.95 3.19583 4.47917 3.5875 4.0875C3.97917 3.69583 4.45 3.5 5 3.5H19C19.55 3.5 20.0208 3.69583 20.4125 4.0875C20.8042 4.47917 21 4.95 21 5.5V19.5C21 20.05 20.8042 20.5208 20.4125 20.9125C20.0208 21.3042 19.55 21.5 19 21.5H5ZM5 19.5H19V5.5H5V19.5Z"/></g></svg>