<svg width="24" height="25" viewBox="0 0 24 25" fill="none" xmlns="http://www.w3.org/2000/svg">
	<path fill-rule="evenodd" clip-rule="evenodd"
		d="M8.81801 4.5H15.182C16.2976 4.5 17.012 4.50161 17.554 4.54662C18.0721 4.58964 18.251 4.66175 18.3298 4.70266C18.6585 4.87343 18.9266 5.14149 19.0974 5.47025C19.1383 5.54899 19.2104 5.72794 19.2534 6.246C19.2984 6.78799 19.3 7.5024 19.3 8.618V16.382C19.3 17.4976 19.2984 18.212 19.2534 18.754C19.2104 19.2721 19.1383 19.451 19.0974 19.5298C18.9266 19.8585 18.6585 20.1266 18.3298 20.2973C18.251 20.3382 18.0721 20.4104 17.554 20.4534C17.012 20.4984 16.2976 20.5 15.182 20.5H8.81801C7.70241 20.5 6.98801 20.4984 6.44601 20.4534C5.92795 20.4104 5.749 20.3382 5.67026 20.2973C5.3415 20.1266 5.07344 19.8585 4.90267 19.5298C4.86176 19.451 4.78965 19.2721 4.74663 18.754C4.70162 18.212 4.70001 17.4976 4.70001 16.382V8.618C4.70001 7.5024 4.70162 6.78799 4.74663 6.246C4.78965 5.72794 4.86176 5.54899 4.90267 5.47025C5.07344 5.14149 5.3415 4.87343 5.67026 4.70266C5.749 4.66175 5.92795 4.58964 6.44601 4.54662C6.98801 4.50161 7.70241 4.5 8.81801 4.5ZM2.70001 8.618C2.70001 6.45394 2.70001 5.3719 3.12784 4.5483C3.48837 3.85425 4.05427 3.28836 4.74831 2.92783C5.57192 2.5 6.65395 2.5 8.81801 2.5H15.182C17.3461 2.5 18.4281 2.5 19.2517 2.92783C19.9458 3.28836 20.5117 3.85425 20.8722 4.5483C21.3 5.3719 21.3 6.45394 21.3 8.618V16.382C21.3 18.5461 21.3 19.6281 20.8722 20.4517C20.5117 21.1457 19.9458 21.7116 19.2517 22.0722C18.4281 22.5 17.3461 22.5 15.182 22.5H8.81801C6.65395 22.5 5.57192 22.5 4.74831 22.0722C4.05427 21.7116 3.48837 21.1457 3.12784 20.4517C2.70001 19.6281 2.70001 18.5461 2.70001 16.382V8.618ZM7.64816 7.46646C7.09588 7.46646 6.64816 7.91418 6.64816 8.46646C6.64816 9.01875 7.09588 9.46646 7.64816 9.46646L16.3518 9.46646C16.9041 9.46646 17.3518 9.01875 17.3518 8.46646C17.3518 7.91418 16.9041 7.46646 16.3518 7.46646H7.64816ZM7.64816 11.6329C7.09588 11.6329 6.64816 12.0806 6.64816 12.6329C6.64816 13.1852 7.09588 13.6329 7.64816 13.6329L16.3518 13.6329C16.9041 13.6329 17.3518 13.1852 17.3518 12.6329C17.3518 12.0806 16.9041 11.6329 16.3518 11.6329L7.64816 11.6329ZM6.64816 16.7249C6.64816 16.1726 7.09588 15.7249 7.64816 15.7249L13.1296 15.7249C13.6819 15.7249 14.1296 16.1726 14.1296 16.7249C14.1296 17.2772 13.6819 17.7249 13.1296 17.7249L7.64816 17.7249C7.09588 17.7249 6.64816 17.2772 6.64816 16.7249Z"
		fill="#485264" />
</svg>