<!-- <svg width="16" height="14" viewBox="0 0 16 14" fill="none" xmlns="http://www.w3.org/2000/svg">
  <path
    d="M0 14V12.4444H16V14H0ZM0.8 11.6667V6.22222H3.2V11.6667H0.8ZM4.8 11.6667V2.33333H7.2V11.6667H4.8ZM8.8 11.6667V4.66667H11.2V11.6667H8.8ZM12.8 11.6667V0H15.2V11.6667H12.8Z"
    fill="#7B838B" />
</svg> -->
<svg width="20" height="20" viewBox="0 0 20 20" fill="none" xmlns="http://www.w3.org/2000/svg">
  <mask id="mask0_347_743" style="mask-type:alpha" maskUnits="userSpaceOnUse" x="0" y="0" width="20"
    height="20">
    <rect width="20" height="20" fill="#D9D9D9" />
  </mask>
  <g mask="url(#mask0_347_743)">
    <path
      d="M2 17V15.4444H18V17H2ZM2.8 14.6667V9.22222H5.2V14.6667H2.8ZM6.8 14.6667V5.33333H9.2V14.6667H6.8ZM10.8 14.6667V7.66667H13.2V14.6667H10.8ZM14.8 14.6667V3H17.2V14.6667H14.8Z"
      fill="#7B838B" />
  </g>
</svg>