<svg xmlns="http://www.w3.org/2000/svg" width="13" height="14" fill="none" viewBox="0 0 13 14"><path fill="#7B838B" d="M2.07992 13.6667C1.71325 13.6667 1.39925 13.5362 1.13792 13.2753C0.877026 13.014 0.746582 12.7 0.746582 12.3333V3C0.746582 2.63333 0.877026 2.31956 1.13792 2.05867C1.39925 1.79733 1.71325 1.66667 2.07992 1.66667H2.74658V0.983333C2.74658 0.794445 2.81036 0.638889 2.93792 0.516667C3.06592 0.394445 3.22436 0.333333 3.41325 0.333333C3.60214 0.333333 3.76058 0.397111 3.88858 0.524667C4.01614 0.652667 4.07992 0.811111 4.07992 1V1.66667H9.41325V0.983333C9.41325 0.794445 9.47725 0.638889 9.60525 0.516667C9.7328 0.394445 9.89103 0.333333 10.0799 0.333333C10.2688 0.333333 10.427 0.397111 10.5546 0.524667C10.6826 0.652667 10.7466 0.811111 10.7466 1V1.66667H11.4132C11.7799 1.66667 12.0939 1.79733 12.3552 2.05867C12.6161 2.31956 12.7466 2.63333 12.7466 3V12.3333C12.7466 12.7 12.6161 13.014 12.3552 13.2753C12.0939 13.5362 11.7799 13.6667 11.4132 13.6667H2.07992ZM2.07992 12.3333H11.4132V5.66667H2.07992V12.3333ZM2.07992 4.33333H11.4132V3H2.07992V4.33333ZM2.07992 4.33333V3V4.33333Z"/></svg>