<svg width="18" height="18" viewBox="0 0 18 18" fill="none" xmlns="http://www.w3.org/2000/svg">
	<path fill-rule="evenodd" clip-rule="evenodd" d="M8.99999 2.77783C5.56355 2.77783 2.77777 5.56362 2.77777 9.00005C2.77777 12.4365 5.56355 15.2223 8.99999 15.2223C12.4364 15.2223 15.2222 12.4365 15.2222 9.00005C15.2222 5.56362 12.4364 2.77783 8.99999 2.77783ZM1.27777 9.00005C1.27777 4.73519 4.73513 1.27783 8.99999 1.27783C13.2649 1.27783 16.7222 4.73519 16.7222 9.00005C16.7222 13.2649 13.2649 16.7223 8.99999 16.7223C4.73513 16.7223 1.27777 13.2649 1.27777 9.00005ZM8.99999 4.06672C9.41421 4.06672 9.74999 4.40251 9.74999 4.81672V8.53653L12.1243 9.72368C12.4948 9.90892 12.6449 10.3594 12.4597 10.7299C12.2745 11.1004 11.824 11.2506 11.4535 11.0653L8.66458 9.67087C8.41049 9.54383 8.24999 9.28413 8.24999 9.00005V4.81672C8.24999 4.40251 8.58578 4.06672 8.99999 4.06672Z" fill="#485264"/>
	</svg>
	