<svg width="20" height="20" viewBox="0 0 20 20" fill="none" xmlns="http://www.w3.org/2000/svg">
	<path fill-rule="evenodd" clip-rule="evenodd"
		d="M7.25006 2.08309C7.25006 1.62285 7.62316 1.24976 8.0834 1.24976C8.54363 1.24976 8.91673 1.62285 8.91673 2.08309V3.39138H11.0834V2.08309C11.0834 1.62285 11.4565 1.24976 11.9167 1.24976C12.377 1.24976 12.7501 1.62285 12.7501 2.08309V3.39138H13.4421C15.191 3.39138 16.6088 4.80914 16.6088 6.55804V7.25019H17.9172C18.3774 7.25019 18.7505 7.62328 18.7505 8.08352C18.7505 8.54376 18.3774 8.91685 17.9172 8.91685H16.6088V11.0835H17.9172C18.3774 11.0835 18.7505 11.4566 18.7505 11.9168C18.7505 12.3771 18.3774 12.7502 17.9172 12.7502H16.6088V13.4423C16.6088 15.1912 15.191 16.6089 13.4421 16.6089H12.7501V17.9172C12.7501 18.3775 12.377 18.7506 11.9167 18.7506C11.4565 18.7506 11.0834 18.3775 11.0834 17.9172V16.6089H8.91673V17.9172C8.91673 18.3775 8.54363 18.7506 8.0834 18.7506C7.62316 18.7506 7.25006 18.3775 7.25006 17.9172V16.6089H6.5579C4.809 16.6089 3.39123 15.1912 3.39123 13.4423V12.7502H2.08297C1.62273 12.7502 1.24963 12.3771 1.24963 11.9168C1.24963 11.4566 1.62273 11.0835 2.08297 11.0835H3.39123V8.91685H2.08297C1.62273 8.91685 1.24963 8.54376 1.24963 8.08352C1.24963 7.62328 1.62273 7.25019 2.08297 7.25019H3.39123V6.55804C3.39123 4.80914 4.809 3.39138 6.5579 3.39138H7.25006V2.08309ZM6.5579 5.05804C5.72947 5.05804 5.0579 5.72962 5.0579 6.55804V13.4423C5.0579 14.2707 5.72947 14.9423 6.5579 14.9423H13.4421C14.2706 14.9423 14.9421 14.2707 14.9421 13.4423V6.55804C14.9421 5.72962 14.2706 5.05804 13.4421 5.05804H6.5579Z"
		fill="#485264" />
</svg>