<svg width="18" height="18" viewBox="0 0 18 18" fill="none" xmlns="http://www.w3.org/2000/svg">
	<path d="M7.4764 13.4999H10.5236C10.495 13.5 10.4667 13.5 10.4393 13.5H7.56075C7.53325 13.5 7.50501 13.5 7.4764 13.4999Z" fill="#485264"/>
	<path d="M7.26559 12.3442C7.84659 12.6592 8.55359 12.8167 9.38659 12.8167C9.77159 12.8167 10.1601 12.7817 10.5521 12.7117C10.9441 12.6417 11.2976 12.5507 11.6126 12.4387C11.7806 12.3827 11.8996 12.2917 11.9696 12.1657C12.0396 12.0397 12.0746 11.8857 12.0746 11.7037V9.26766C12.0746 9.05766 12.0186 8.89666 11.9066 8.78466C11.8016 8.67266 11.6441 8.61666 11.4341 8.61666H9.78559C9.57559 8.61666 9.41459 8.66916 9.30259 8.77416C9.19059 8.87216 9.13459 9.01566 9.13459 9.20466C9.13459 9.38666 9.19059 9.53016 9.30259 9.63516C9.41459 9.74016 9.57559 9.79266 9.78559 9.79266H10.7306V11.244C10.5709 11.2895 10.4099 11.3273 10.2476 11.3572C9.98159 11.4062 9.72259 11.4307 9.47059 11.4307C8.72159 11.4307 8.15459 11.2277 7.76959 10.8217C7.39159 10.4157 7.20259 9.81716 7.20259 9.02616C7.20259 8.50116 7.28309 8.06016 7.44409 7.70316C7.61209 7.33916 7.86409 7.06616 8.20009 6.88416C8.53609 6.69516 8.95259 6.60066 9.44959 6.60066C9.75759 6.60066 10.0411 6.63216 10.3001 6.69516C10.5591 6.75116 10.8041 6.84216 11.0351 6.96816C11.2101 7.05216 11.3641 7.08016 11.4971 7.05216C11.6371 7.01716 11.7491 6.94716 11.8331 6.84216C11.9241 6.73016 11.9801 6.60416 12.0011 6.46416C12.0291 6.31716 12.0151 6.18066 11.9591 6.05466C11.9101 5.92166 11.8121 5.81316 11.6651 5.72916C11.3151 5.53316 10.9511 5.39316 10.5731 5.30916C10.1951 5.22516 9.81709 5.18316 9.43909 5.18316C8.82309 5.18316 8.27009 5.27416 7.78009 5.45616C7.29709 5.63816 6.88409 5.89716 6.54109 6.23316C6.20509 6.56216 5.94609 6.96466 5.76409 7.44066C5.58909 7.90966 5.50159 8.43816 5.50159 9.02616C5.50159 9.78916 5.65209 10.4542 5.95309 11.0212C6.25409 11.5882 6.69159 12.0292 7.26559 12.3442Z" fill="#485264"/>
	<path fill-rule="evenodd" clip-rule="evenodd" d="M5.81903 1.5H12.181C12.7847 1.49999 13.283 1.49999 13.6889 1.53315C14.1104 1.56759 14.498 1.64151 14.862 1.82698C15.4265 2.1146 15.8854 2.57354 16.173 3.13803C16.3585 3.50203 16.4324 3.88956 16.4669 4.31113C16.5 4.71702 16.5 5.21529 16.5 5.81901V12.181C16.5 12.7847 16.5 13.283 16.4669 13.6889C16.4324 14.1104 16.3585 14.498 16.173 14.862C15.8854 15.4265 15.4265 15.8854 14.862 16.173C14.498 16.3585 14.1104 16.4324 13.6889 16.4669C13.283 16.5 12.7847 16.5 12.181 16.5H5.81908C5.21533 16.5 4.71704 16.5 4.31113 16.4669C3.88956 16.4324 3.50203 16.3585 3.13803 16.173C2.57354 15.8854 2.1146 15.4265 1.82698 14.862C1.64151 14.498 1.56759 14.1104 1.53315 13.6889C1.49998 13.283 1.49999 12.7847 1.5 12.181V5.81901C1.49999 5.2153 1.49998 4.71702 1.53315 4.31113C1.56759 3.88956 1.64151 3.50203 1.82698 3.13803C2.1146 2.57354 2.57354 2.1146 3.13803 1.82698C3.50203 1.64151 3.88956 1.56759 4.31113 1.53315C4.71702 1.49998 5.21531 1.49999 5.81903 1.5ZM4.43328 3.02816C4.10447 3.05503 3.93632 3.10372 3.81902 3.16349C3.53677 3.3073 3.3073 3.53677 3.16349 3.81902C3.10372 3.93632 3.05503 4.10447 3.02817 4.43328C3.00058 4.77085 3 5.20757 3 5.85V12.15C3 12.7924 3.00058 13.2292 3.02816 13.5667C3.05503 13.8955 3.10372 14.0637 3.16349 14.181C3.3073 14.4632 3.53677 14.6927 3.81902 14.8365C3.93632 14.8963 4.10447 14.945 4.43328 14.9718C4.77085 14.9994 5.20757 15 5.85 15H12.15C12.7924 15 13.2292 14.9994 13.5667 14.9718C13.8955 14.945 14.0637 14.8963 14.181 14.8365C14.4632 14.6927 14.6927 14.4632 14.8365 14.181C14.8963 14.0637 14.945 13.8955 14.9718 13.5667C14.9994 13.2292 15 12.7924 15 12.15V5.85C15 5.20757 14.9994 4.77085 14.9718 4.43328C14.945 4.10447 14.8963 3.93632 14.8365 3.81902C14.6927 3.53677 14.4632 3.3073 14.181 3.16349C14.0637 3.10373 13.8955 3.05503 13.5667 3.02817C13.2292 3.00059 12.7924 3 12.15 3L5.85 3C5.20757 3 4.77085 3.00058 4.43328 3.02816Z" fill="#485264"/>
	</svg>