<svg xmlns="http://www.w3.org/2000/svg" width="17" height="16" fill="none" viewBox="0 0 17 16"><path fill="#fff" d="M12 11.4333L12.96 10.4733L9.70667 7.21999L7.51333 9.41332C7.45166 9.47512 7.3784 9.52415 7.29775 9.55761C7.2171 9.59106 7.13065 9.60828 7.04333 9.60828C6.95602 9.60828 6.86957 9.59106 6.78892 9.55761C6.70827 9.52415 6.63501 9.47512 6.57333 9.41332L2.57333 5.40665C2.44868 5.282 2.37865 5.11294 2.37865 4.93665C2.37865 4.76037 2.44868 4.5913 2.57333 4.46665C2.69799 4.342 2.86705 4.27197 3.04333 4.27197C3.21962 4.27197 3.38868 4.342 3.51333 4.46665L7.04 7.99999L9.23333 5.80665C9.29501 5.74485 9.36827 5.69582 9.44892 5.66236C9.52957 5.62891 9.61602 5.61169 9.70333 5.61169C9.79065 5.61169 9.8771 5.62891 9.95775 5.66236C10.0384 5.69582 10.1117 5.74485 10.1733 5.80665L13.9 9.52665L14.86 8.56665C14.9066 8.52097 14.9656 8.48997 15.0296 8.47749C15.0937 8.46501 15.1599 8.4716 15.2203 8.49644C15.2806 8.52129 15.3323 8.56329 15.369 8.61725C15.4057 8.67121 15.4258 8.73474 15.4267 8.79999V11.66C15.4267 11.8467 15.28 11.9933 15.0933 11.9933H12.2333C11.94 12 11.7933 11.64 12 11.4333Z"/></svg>