<svg xmlns="http://www.w3.org/2000/svg" width="20" height="20" fill="none" viewBox="0 0 20 20"><path fill="#24282C" d="M16.25 2.91663L15 1.66663L13.75 2.91663L12.5 1.66663L11.25 2.91663L10 1.66663L8.75 2.91663L7.5 1.66663L6.25 2.91663L5 1.66663L3.75 2.91663L2.5 1.66663V18.3333L3.75 17.0833L5 18.3333L6.25 17.0833L7.5 18.3333L8.75 17.0833L10 18.3333L11.25 17.0833L12.5 18.3333L13.75 17.0833L15 18.3333L16.25 17.0833L17.5 18.3333V1.66663L16.25 2.91663ZM15.8333 15.8333H4.16667V4.16663H15.8333V15.8333ZM5 12.5H15V14.1666H5M5 9.16663H15V10.8333H5M5 5.83329H15V7.49996H5V5.83329Z"/></svg>