<svg width="20" height="20" viewBox="0 0 20 20" fill="none" xmlns="http://www.w3.org/2000/svg">
	<path d="M2.95842 3.12996C2.95842 2.66973 2.58532 2.29663 2.12509 2.29663C1.66485 2.29663 1.29175 2.66973 1.29175 3.12996L1.29175 15.5642C1.29172 15.7738 1.29169 15.9802 1.30672 16.1554C1.32335 16.3492 1.36279 16.5786 1.48567 16.8082C1.65505 17.1248 1.92113 17.3748 2.23903 17.529C2.466 17.6392 2.69139 17.6745 2.88573 17.6896C3.06446 17.7035 3.27647 17.7035 3.49885 17.7035L17.875 17.7035C18.3352 17.7035 18.7083 17.3304 18.7083 16.8701C18.7083 16.4099 18.3352 16.0368 17.875 16.0368H3.52508C3.26695 16.0368 3.1211 16.0362 3.01503 16.028C2.99525 16.0264 2.97986 16.0248 2.96824 16.0233L2.96729 16.0129C2.95913 15.9178 2.95842 15.7846 2.95842 15.5368V3.12996Z" fill="#24282C"/>
	<path d="M16.9187 5.51055C16.5893 5.20192 16.0721 5.21876 15.7634 5.54816L12.6451 8.87638L10.0927 7.55107L10.0622 7.53492C9.95291 7.47653 9.72588 7.35527 9.47288 7.33247C9.26055 7.31334 9.0469 7.34991 8.85302 7.43856C8.62201 7.54419 8.44824 7.73404 8.36456 7.82547L8.34116 7.85086L5.13815 11.2695C4.82952 11.5989 4.84636 12.1161 5.17577 12.4247C5.50517 12.7334 6.0224 12.7165 6.33104 12.3871L9.44936 9.0589L12.0018 10.3842L12.0323 10.4004C12.1416 10.4588 12.3686 10.58 12.6216 10.6028C12.8339 10.622 13.0476 10.5854 13.2415 10.4967C13.4725 10.3911 13.6463 10.2012 13.7299 10.1098L13.7533 10.0844L16.9563 6.66581C17.265 6.33641 17.2481 5.81918 16.9187 5.51055Z" fill="#24282C"/>
	</svg>
	