<svg width="16" height="17" viewBox="0 0 16 17" fill="none" xmlns="http://www.w3.org/2000/svg">
<path d="M9.96661 8.48002C9.96661 8.56891 9.95261 8.65224 9.92461 8.73002C9.89705 8.8078 9.84994 8.88002 9.78328 8.94669L6.69994 12.03C6.57772 12.1522 6.42483 12.2105 6.24128 12.2047C6.05817 12.1994 5.9055 12.1356 5.78328 12.0134C5.66105 11.8911 5.59994 11.7356 5.59994 11.5467C5.59994 11.3578 5.66105 11.2022 5.78328 11.08L8.38328 8.48002L5.76661 5.86335C5.64439 5.74113 5.58594 5.58824 5.59128 5.40469C5.59705 5.22158 5.66105 5.06891 5.78328 4.94669C5.9055 4.82447 6.06105 4.76335 6.24994 4.76335C6.43883 4.76335 6.59439 4.82447 6.71661 4.94669L9.78328 8.01335C9.84994 8.08002 9.89705 8.15224 9.92461 8.23002C9.95261 8.3078 9.96661 8.39113 9.96661 8.48002Z" fill="#5A646E"/>
</svg>
