<svg xmlns="http://www.w3.org/2000/svg" width="20" height="20" fill="none" viewBox="0 0 20 20"><path fill="#24282C" d="M12.25 17.5834L5.22917 10.5834C5.14583 10.5 5.08694 10.4097 5.0525 10.3125C5.0175 10.2153 5 10.1111 5 10C5 9.88891 5.0175 9.78474 5.0525 9.68752C5.08694 9.5903 5.14583 9.50002 5.22917 9.41669L12.25 2.39585C12.4444 2.20141 12.6875 2.10419 12.9792 2.10419C13.2708 2.10419 13.5208 2.20835 13.7292 2.41669C13.9375 2.62502 14.0417 2.86808 14.0417 3.14585C14.0417 3.42363 13.9375 3.66669 13.7292 3.87502L7.60417 10L13.7292 16.125C13.9236 16.3195 14.0208 16.5589 14.0208 16.8434C14.0208 17.1284 13.9167 17.375 13.7083 17.5834C13.5 17.7917 13.2569 17.8959 12.9792 17.8959C12.7014 17.8959 12.4583 17.7917 12.25 17.5834V17.5834Z"/></svg>