<svg width="20" height="21" viewBox="0 0 20 21" fill="none" xmlns="http://www.w3.org/2000/svg">
	<path d="M16.3342 13.2709C16.5421 13.2709 16.748 13.3119 16.9401 13.3915C17.1322 13.471 17.3068 13.5877 17.4538 13.7347C17.6009 13.8817 17.7175 14.0563 17.7971 14.2484C17.8767 14.4405 17.9176 14.6464 17.9176 14.8543V17.2295C17.9176 17.4374 17.8767 17.6433 17.7971 17.8354C17.7175 18.0275 17.6009 18.2021 17.4538 18.3491C17.3068 18.4961 17.1322 18.6128 16.9401 18.6923C16.748 18.7719 16.5421 18.8129 16.3342 18.8129H3.66691C3.45897 18.8129 3.25307 18.7719 3.06096 18.6923C2.86885 18.6128 2.6943 18.4961 2.54727 18.3491C2.40023 18.2021 2.2836 18.0275 2.20403 17.8354C2.12445 17.6433 2.0835 17.4374 2.0835 17.2295V14.8543C2.0835 14.6464 2.12445 14.4405 2.20403 14.2484C2.2836 14.0563 2.40023 13.8817 2.54727 13.7347C2.6943 13.5877 2.86885 13.471 3.06096 13.3915C3.25307 13.3119 3.45897 13.2709 3.66691 13.2709H16.3342ZM11.2673 15.4085H8.73382C8.56584 15.4085 8.40474 15.4753 8.28597 15.594C8.16719 15.7128 8.10046 15.8739 8.10046 16.0419C8.10046 16.2099 8.16719 16.371 8.28597 16.4898C8.40474 16.6085 8.56584 16.6753 8.73382 16.6753H11.2673C11.4353 16.6753 11.5964 16.6085 11.7151 16.4898C11.8339 16.371 11.9006 16.2099 11.9006 16.0419C11.9006 15.8739 11.8339 15.7128 11.7151 15.594C11.5964 15.4753 11.4353 15.4085 11.2673 15.4085ZM16.3342 6.93729C16.5421 6.93729 16.748 6.97824 16.9401 7.05782C17.1322 7.13739 17.3068 7.25402 17.4538 7.40106C17.6009 7.54809 17.7175 7.72265 17.7971 7.91475C17.8767 8.10686 17.9176 8.31276 17.9176 8.5207V10.8958C17.9176 11.1038 17.8767 11.3097 17.7971 11.5018C17.7175 11.6939 17.6009 11.8684 17.4538 12.0155C17.3068 12.1625 17.1322 12.2791 16.9401 12.3587C16.748 12.4383 16.5421 12.4792 16.3342 12.4792H3.66691C3.45897 12.4792 3.25307 12.4383 3.06096 12.3587C2.86885 12.2791 2.6943 12.1625 2.54727 12.0155C2.40023 11.8684 2.2836 11.6939 2.20403 11.5018C2.12445 11.3097 2.0835 11.1038 2.0835 10.8958V8.5207C2.0835 8.31276 2.12445 8.10686 2.20403 7.91475C2.2836 7.72265 2.40023 7.54809 2.54727 7.40106C2.6943 7.25402 2.86885 7.13739 3.06096 7.05782C3.25307 6.97824 3.45897 6.93729 3.66691 6.93729H16.3342ZM11.2673 9.07489H8.73382C8.56584 9.07489 8.40474 9.14162 8.28597 9.2604C8.16719 9.37918 8.10046 9.54028 8.10046 9.70826C8.10046 9.87624 8.16719 10.0373 8.28597 10.1561C8.40474 10.2749 8.56584 10.3416 8.73382 10.3416H11.2673C11.4353 10.3416 11.5964 10.2749 11.7151 10.1561C11.8339 10.0373 11.9006 9.87624 11.9006 9.70826C11.9006 9.54028 11.8339 9.37918 11.7151 9.2604C11.5964 9.14162 11.4353 9.07489 11.2673 9.07489ZM6.388 2.97876H13.6131C13.8453 2.97873 14.0747 3.02978 14.285 3.12829C14.4953 3.2268 14.6813 3.37036 14.83 3.54879L16.3342 5.35388H3.66691L5.17115 3.54879C5.31977 3.37036 5.50582 3.2268 5.71611 3.12829C5.9264 3.02978 6.15578 2.97873 6.388 2.97876Z" fill="url(#paint0_linear_3622_26966)"/>
	<defs>
	<linearGradient id="paint0_linear_3622_26966" x1="10.0006" y1="2.97876" x2="10.0006" y2="18.8129" gradientUnits="userSpaceOnUse">
	<stop stop-color="#DC91FF"/>
	<stop offset="1" stop-color="#BE54F0"/>
	</linearGradient>
	</defs>
	</svg>
	