<svg xmlns="http://www.w3.org/2000/svg" width="20" height="20" fill="none" viewBox="0 0 20 20"><mask id="mask0_347_755" style="mask-type:alpha" width="20" height="20" x="0" y="0" maskUnits="userSpaceOnUse"><rect width="20" height="20" fill="#D9D9D9"/></mask><g mask="url(#mask0_347_755)"><path fill="#7B838B" d="M5 18C4.30556 18 3.71528 17.7667 3.22917 17.3C2.74306 16.8333 2.5 16.2667 2.5 15.6V13.2H5V2L6.25 3.2L7.5 2L8.75 3.2L10 2L11.25 3.2L12.5 2L13.75 3.2L15 2L16.25 3.2L17.5 2V15.6C17.5 16.2667 17.2569 16.8333 16.7708 17.3C16.2847 17.7667 15.6944 18 15 18H5ZM15 16.4C15.2361 16.4 15.434 16.3233 15.5938 16.17C15.7535 16.0167 15.8333 15.8267 15.8333 15.6V4.4H6.66667V13.2H14.1667V15.6C14.1667 15.8267 14.2465 16.0167 14.4062 16.17C14.566 16.3233 14.7639 16.4 15 16.4ZM7.5 7.6V6H12.5V7.6H7.5ZM7.5 10V8.4H12.5V10H7.5ZM14.1667 7.6C13.9306 7.6 13.7326 7.52333 13.5729 7.37C13.4132 7.21667 13.3333 7.02667 13.3333 6.8C13.3333 6.57333 13.4132 6.38333 13.5729 6.23C13.7326 6.07667 13.9306 6 14.1667 6C14.4028 6 14.6007 6.07667 14.7604 6.23C14.9201 6.38333 15 6.57333 15 6.8C15 7.02667 14.9201 7.21667 14.7604 7.37C14.6007 7.52333 14.4028 7.6 14.1667 7.6ZM14.1667 10C13.9306 10 13.7326 9.92333 13.5729 9.77C13.4132 9.61667 13.3333 9.42667 13.3333 9.2C13.3333 8.97333 13.4132 8.78333 13.5729 8.63C13.7326 8.47667 13.9306 8.4 14.1667 8.4C14.4028 8.4 14.6007 8.47667 14.7604 8.63C14.9201 8.78333 15 8.97333 15 9.2C15 9.42667 14.9201 9.61667 14.7604 9.77C14.6007 9.92333 14.4028 10 14.1667 10ZM5 16.4H12.5V14.8H4.16667V15.6C4.16667 15.8267 4.24653 16.0167 4.40625 16.17C4.56597 16.3233 4.76389 16.4 5 16.4Z"/></g></svg>