<svg width="16" height="16" viewBox="0 0 16 16" fill="none" xmlns="http://www.w3.org/2000/svg">
<g clip-path="url(#clip0_1076_558)">
<path d="M15.1435 10.9579C14.7342 11.9034 14.1806 12.7249 13.483 13.4224C12.7855 14.12 11.9666 14.6738 11.027 15.0829C10.0871 15.4924 9.08099 15.697 8.00853 15.697C6.93634 15.697 5.92734 15.4924 4.98154 15.0829C4.03599 14.6738 3.21449 14.12 2.51705 13.4224C1.81937 12.7249 1.26562 11.9034 0.856539 10.9579C0.446974 10.0121 0.242432 9.00309 0.242432 7.93087C0.242432 6.85842 0.446974 5.85227 0.856539 4.91241C1.26562 3.97278 1.81937 3.15388 2.51705 2.45644C3.21449 1.75876 4.03599 1.20525 4.98154 0.795931C5.92734 0.386615 6.93634 0.181824 8.00853 0.181824C9.08099 0.181824 10.0871 0.386614 11.027 0.795931C11.9666 1.20526 12.7855 1.75876 13.483 2.45644C14.1806 3.15389 14.7341 3.97279 15.1435 4.91241C15.5528 5.85227 15.7576 6.85842 15.7576 7.93087C15.7576 9.00309 15.5528 10.0121 15.1435 10.9579Z" fill="#FF2E00"/>
<path d="M8 11.0815C7.38019 11.0815 6.87817 11.5836 6.87817 12.2034C6.87817 12.8232 7.38019 13.3252 8 13.3252C8.6198 13.3252 9.12182 12.8232 9.12182 12.2034C9.12182 11.5836 8.6198 11.0815 8 11.0815Z" fill="white"/>
<path d="M8 9.99543C7.69037 9.99543 7.43909 9.47179 7.43909 8.8253L6.87817 3.55972C6.87817 2.91322 7.38019 2.38959 8 2.38959C8.6198 2.38959 9.12182 2.91322 9.12182 3.55972L8.56091 8.8253C8.56091 9.47179 8.30962 9.99543 8 9.99543Z" fill="white"/>
</g>
<defs>
<clipPath id="clip0_1076_558">
<rect width="16" height="16" fill="white"/>
</clipPath>
</defs>
</svg>
