<svg width="20" height="20" viewBox="0 0 20 20" fill="none" xmlns="http://www.w3.org/2000/svg">
	<path fill-rule="evenodd" clip-rule="evenodd"
		d="M7.34514 2.49981C7.38693 2.49984 7.42927 2.49987 7.47219 2.49987H12.5279C12.5708 2.49987 12.6132 2.49984 12.655 2.49981C13.4281 2.49929 14.0109 2.49889 14.5419 2.68205C15.009 2.84316 15.4344 3.10609 15.7874 3.45181C16.1887 3.84484 16.449 4.3663 16.7942 5.05798C16.8129 5.09538 16.8318 5.13327 16.851 5.17167L18.6565 8.78261C18.6637 8.79718 18.6709 8.81156 18.678 8.82576C18.8148 9.09915 18.9183 9.30592 18.9927 9.52708C19.0585 9.72254 19.1059 9.92367 19.1345 10.1279C19.1669 10.359 19.1668 10.5902 19.1667 10.8959C19.1667 10.9117 19.1667 10.9278 19.1667 10.9441V12.701C19.1667 13.3718 19.1667 13.9254 19.1299 14.3764C19.0916 14.8448 19.0095 15.2754 18.8034 15.6798C18.4838 16.307 17.9739 16.817 17.3467 17.1366C16.9422 17.3426 16.5117 17.4248 16.0432 17.463C15.5923 17.4999 15.0386 17.4999 14.3678 17.4999H5.63229C4.96149 17.4999 4.40786 17.4999 3.95687 17.463C3.48846 17.4248 3.05787 17.3426 2.65342 17.1366C2.02622 16.817 1.51628 16.307 1.1967 15.6798C0.990628 15.2754 0.908491 14.8448 0.87022 14.3764C0.833372 13.9254 0.833381 13.3718 0.833391 12.7009L0.833392 10.9441C0.833392 10.9278 0.833387 10.9117 0.833383 10.8959C0.833297 10.5902 0.833233 10.359 0.865585 10.1279C0.894176 9.92366 0.941656 9.72253 1.00741 9.52709C1.08182 9.30593 1.18528 9.09916 1.32205 8.8258C1.32916 8.81159 1.33637 8.79719 1.34366 8.78261L2.08902 9.15529L2.09389 9.15772M2.08902 9.15529L1.34366 8.78261L3.14913 5.17167C3.16833 5.13328 3.18724 5.09539 3.2059 5.058C3.55117 4.3663 3.81146 3.84484 4.21275 3.45181C4.56573 3.10608 4.99116 2.84316 5.45824 2.68205C5.98924 2.49889 6.57205 2.49929 7.34514 2.49981M3.01509 9.16653L4.63984 5.91702C5.06819 5.06034 5.20319 4.81464 5.37895 4.6425C5.55544 4.46964 5.76815 4.33818 6.00169 4.25763C6.23426 4.17741 6.51439 4.16653 7.47219 4.16653H12.5279C13.4857 4.16653 13.7659 4.17741 13.9984 4.25763C14.232 4.33818 14.4447 4.46964 14.6212 4.6425C14.7969 4.81464 14.9319 5.06034 15.3603 5.91703L16.985 9.16653H3.01509ZM2.50013 10.8332C2.50008 10.8674 2.50006 10.9043 2.50006 10.9441V12.6665C2.50006 13.3804 2.50071 13.8656 2.53135 14.2407C2.5612 14.606 2.61531 14.7929 2.68171 14.9232C2.8415 15.2368 3.09647 15.4918 3.41007 15.6515C3.54041 15.718 3.72724 15.7721 4.09259 15.8019C4.46766 15.8326 4.95291 15.8332 5.66673 15.8332H14.3334C15.0472 15.8332 15.5325 15.8326 15.9075 15.8019C16.2729 15.7721 16.4597 15.718 16.59 15.6515C16.9036 15.4918 17.1586 15.2368 17.3184 14.9232C17.3848 14.7929 17.4389 14.606 17.4688 14.2407C17.4994 13.8656 17.5001 13.3804 17.5001 12.6665V10.9441C17.5001 10.9043 17.5 10.8674 17.5 10.8332H2.50013ZM8.33339 14.1665H5.00006C4.53982 14.1665 4.16673 13.7934 4.16673 13.3332C4.16673 12.873 4.53982 12.4999 5.00006 12.4999H8.33339C8.79363 12.4999 9.16673 12.873 9.16673 13.3332C9.16673 13.7934 8.79363 14.1665 8.33339 14.1665Z"
		fill="#485264" />
</svg>