<svg width="16" height="16" viewBox="0 0 16 16" fill="none" xmlns="http://www.w3.org/2000/svg">
	<path fill-rule="evenodd" clip-rule="evenodd" d="M7.01865 1.55654C7.31817 1.38791 7.65611 1.29932 7.99984 1.29932C8.34358 1.29932 8.68151 1.38791 8.98104 1.55654C9.28056 1.72518 9.53157 1.96817 9.70984 2.26206L9.71176 2.26523L15.3584 11.6919L15.3638 11.7011C15.5385 12.0035 15.6309 12.3464 15.6318 12.6956C15.6328 13.0448 15.5423 13.3882 15.3694 13.6916C15.1965 13.995 14.9471 14.2479 14.6461 14.425C14.3451 14.6021 14.003 14.6973 13.6538 14.7011L13.6465 14.7012L2.34585 14.7011C1.99664 14.6973 1.65454 14.6021 1.35356 14.425C1.05257 14.2479 0.803209 13.995 0.630274 13.6916C0.457338 13.3882 0.366858 13.0448 0.367836 12.6956C0.368814 12.3464 0.461216 12.0035 0.635847 11.7011L0.641263 11.6919L6.28983 2.26206C6.4681 1.96816 6.71912 1.72518 7.01865 1.55654ZM7.99984 2.63265C7.88526 2.63265 7.77262 2.66218 7.67278 2.71839C7.57338 2.77435 7.49002 2.85487 7.43065 2.95224L1.7883 12.3717C1.73151 12.4716 1.70149 12.5844 1.70116 12.6994C1.70084 12.8158 1.731 12.9302 1.78864 13.0314C1.84629 13.1325 1.92941 13.2168 2.02974 13.2758C2.12919 13.3343 2.2421 13.366 2.35744 13.3678H13.6422C13.7576 13.366 13.8705 13.3343 13.9699 13.2758C14.0703 13.2168 14.1534 13.1325 14.211 13.0314C14.2687 12.9302 14.2988 12.8158 14.2985 12.6994C14.2982 12.5844 14.2682 12.4716 14.2114 12.3717L8.56984 2.95356C8.56957 2.95312 8.5693 2.95268 8.56903 2.95224C8.50966 2.85487 8.4263 2.77435 8.32691 2.71839C8.22706 2.66218 8.11442 2.63265 7.99984 2.63265ZM7.99984 5.36781C8.36803 5.36781 8.66651 5.66629 8.66651 6.03448V8.70115C8.66651 9.06934 8.36803 9.36781 7.99984 9.36781C7.63165 9.36781 7.33317 9.06934 7.33317 8.70115V6.03448C7.33317 5.66629 7.63165 5.36781 7.99984 5.36781ZM7.33317 11.3678C7.33317 10.9996 7.63165 10.7011 7.99984 10.7011H8.00651C8.3747 10.7011 8.67317 10.9996 8.67317 11.3678C8.67317 11.736 8.3747 12.0345 8.00651 12.0345H7.99984C7.63165 12.0345 7.33317 11.736 7.33317 11.3678Z" fill="#F79009"/>
	</svg>
	