<svg xmlns="http://www.w3.org/2000/svg" width="6" height="12" fill="none" viewBox="0 0 6 12"><path fill="#7B838B" d="M0.229904 3.55C0.107681 3.42778 0.0465698 3.26667 0.0465698 3.06667C0.0465698 2.86667 0.107681 2.70556 0.229904 2.58333L2.2799 0.533334C2.34657 0.466667 2.41879 0.419334 2.49657 0.391334C2.57435 0.363778 2.65768 0.35 2.74657 0.35C2.83546 0.35 2.92168 0.363778 3.00524 0.391334C3.08835 0.419334 3.15768 0.466667 3.21324 0.533334L5.2799 2.6C5.40213 2.72222 5.46035 2.88044 5.45457 3.07467C5.44924 3.26933 5.38546 3.42778 5.26324 3.55C5.14101 3.67222 4.9799 3.73333 4.7799 3.73333C4.5799 3.73333 4.41879 3.67222 4.29657 3.55L2.74657 2L1.1799 3.56667C1.05768 3.68889 0.899459 3.74733 0.705236 3.742C0.51057 3.73622 0.352126 3.67222 0.229904 3.55ZM2.74657 11.7167C2.65768 11.7167 2.57435 11.7 2.49657 11.6667C2.41879 11.6333 2.34657 11.5889 2.2799 11.5333L0.229904 9.48333C0.107681 9.36111 0.0465698 9.2 0.0465698 9C0.0465698 8.8 0.107681 8.63889 0.229904 8.51667C0.352126 8.39445 0.513236 8.33333 0.713237 8.33333C0.913236 8.33333 1.07435 8.39445 1.19657 8.51667L2.74657 10.0667L4.31324 8.5C4.43546 8.37778 4.59368 8.31956 4.7879 8.32533C4.98257 8.33067 5.14101 8.39445 5.26324 8.51667C5.38546 8.63889 5.44657 8.8 5.44657 9C5.44657 9.2 5.38546 9.36111 5.26324 9.48333L3.21324 11.5333C3.15768 11.5889 3.08835 11.6333 3.00524 11.6667C2.92168 11.7 2.83546 11.7167 2.74657 11.7167Z"/></svg>