<svg width="88" height="32" viewBox="0 0 88 32" fill="none" xmlns="http://www.w3.org/2000/svg">
<g filter="url(#filter0_d_11_8261)">
<path d="M26.2233 11.2596C26.1673 11.081 26.0986 10.9068 26.0176 10.7382V10.7273C25.6399 9.95605 25.0136 9.33548 24.2403 8.96627C23.467 8.59706 22.5921 8.50086 21.7575 8.69328C20.9229 8.88569 20.1776 9.35544 19.6424 10.0263C19.1072 10.6972 18.8136 11.5298 18.8091 12.3892C18.8092 12.6595 18.8382 12.929 18.8957 13.193C18.8959 13.1966 18.8959 13.2003 18.8957 13.2039C18.9173 13.3125 18.9498 13.4211 18.9823 13.5298C19.1755 14.2949 19.213 15.0913 19.0928 15.8714C18.9726 16.6515 18.6969 17.3993 18.2824 18.0701C17.8679 18.741 17.3229 19.3211 16.68 19.7759C16.0372 20.2308 15.3096 20.551 14.5407 20.7174C13.7719 20.8838 12.9774 20.8931 12.2049 20.7447C11.4324 20.5962 10.6976 20.2931 10.0444 19.8534C9.39112 19.4138 8.83285 18.8465 8.40286 18.1855C7.97288 17.5245 7.67999 16.7834 7.54169 16.0063C7.73727 17.3533 8.21253 18.6441 8.93671 19.795C9.66088 20.946 10.6178 21.9315 11.7456 22.6878C12.8734 23.444 14.1468 23.9542 15.4835 24.1852C16.8202 24.4162 18.1904 24.363 19.5052 24.0289C20.8201 23.6948 22.0504 23.0873 23.1165 22.2457C24.1826 21.4042 25.0608 20.3474 25.6941 19.1436C26.3274 17.9399 26.7017 16.6161 26.7929 15.258C26.884 13.8999 26.69 12.5376 26.2233 11.2596Z" fill="#6378FF"/>
<path d="M10.8429 14.529C12.0985 16.3648 14.6962 16.2018 14.6962 16.2018C14.0467 15.5718 13.6246 14.9961 13.5813 13.3559C13.538 11.7157 12.6072 11.2812 12.6072 11.2812C14.274 10.2276 13.6787 9.08707 13.6246 7.81618C13.5921 7.02324 14.0576 6.43668 14.4256 6.09995C12.3075 6.41836 10.3936 7.54494 9.08284 9.24482C7.77214 10.9447 7.16579 13.0867 7.39021 15.2242C7.54174 14.8006 9.68482 12.8345 10.8429 14.529Z" fill="#0AA3F9"/>
<path d="M26.2233 11.2596C26.1673 11.081 26.0986 10.9068 26.0176 10.7382V10.7273C25.6399 9.95605 25.0136 9.33548 24.2403 8.96627C23.467 8.59706 22.5921 8.50086 21.7575 8.69328C20.9229 8.88569 20.1776 9.35544 19.6424 10.0263C19.1072 10.6972 18.8136 11.5298 18.8091 12.3892C18.8092 12.6595 18.8382 12.929 18.8957 13.193C18.8959 13.1966 18.8959 13.2003 18.8957 13.2039C18.9173 13.3125 18.9498 13.4211 18.9823 13.5298C19.1755 14.2949 19.213 15.0913 19.0928 15.8714C18.9726 16.6515 18.6969 17.3993 18.2824 18.0701C17.8679 18.741 17.3229 19.3211 16.68 19.7759C16.0372 20.2308 15.3096 20.551 14.5407 20.7174C13.7719 20.8838 12.9774 20.8931 12.2049 20.7447C11.4324 20.5962 10.6976 20.2931 10.0444 19.8534C9.39112 19.4138 8.83285 18.8465 8.40286 18.1855C7.97288 17.5245 7.67999 16.7834 7.54169 16.0063C7.73727 17.3533 8.21253 18.6441 8.93671 19.795C9.66088 20.946 10.6178 21.9315 11.7456 22.6878C12.8734 23.444 14.1468 23.9542 15.4835 24.1852C16.8202 24.4162 18.1904 24.363 19.5052 24.0289C20.8201 23.6948 22.0504 23.0873 23.1165 22.2457C24.1826 21.4042 25.0608 20.3474 25.6941 19.1436C26.3274 17.9399 26.7017 16.6161 26.7929 15.258C26.884 13.8999 26.69 12.5376 26.2233 11.2596Z" fill="#0AA3F9"/>
<path fill-rule="evenodd" clip-rule="evenodd" d="M24.6107 13.8773C24.6107 18.6105 20.7872 22.4476 16.0708 22.4476C13.5676 22.4476 11.316 21.3668 9.75397 19.6448C9.84851 19.7172 9.94535 19.7867 10.0444 19.8534C10.6976 20.2931 11.4324 20.5962 12.2049 20.7446C12.9775 20.8931 13.7719 20.8838 14.5408 20.7174C15.3096 20.5509 16.0372 20.2307 16.6801 19.7759C17.3229 19.3211 17.8679 18.7409 18.2824 18.0701C18.697 17.3992 18.9726 16.6515 19.0928 15.8714C19.2131 15.0913 19.1755 14.2949 18.9823 13.5297C18.9498 13.4211 18.9174 13.3125 18.8957 13.2038C18.896 13.2002 18.896 13.1966 18.8957 13.193C18.8382 12.9289 18.8092 12.6595 18.8091 12.3892C18.8136 11.5298 19.1072 10.6971 19.6424 10.0263C20.1776 9.35539 20.923 8.88565 21.7576 8.69323C22.1019 8.61385 22.4531 8.58359 22.8011 8.60136C23.9349 10.0559 24.6107 11.8874 24.6107 13.8773Z" fill="#7ABBFD"/>
</g>
<path d="M43.7568 13.0571C43.5841 12.1397 42.9365 11.681 41.814 11.681C41.2635 11.681 40.8318 11.7943 40.5187 12.0209C40.2165 12.2368 40.0654 12.5013 40.0654 12.8143C40.0654 13.1273 40.1625 13.3756 40.3568 13.559C40.5619 13.7317 40.8749 13.8936 41.2959 14.0448L43.5787 14.9352C44.3559 15.2375 44.9549 15.6206 45.3759 16.0848C45.7968 16.5381 46.0073 17.1102 46.0073 17.8009C46.0073 18.7508 45.6511 19.5063 44.9387 20.0676C44.2264 20.6181 43.2118 20.8933 41.8949 20.8933C40.7292 20.8933 39.7848 20.6073 39.0616 20.0352C38.2521 19.4092 37.8257 18.5241 37.7825 17.38H39.6768C39.6768 18.2435 40.1248 18.7886 41.0206 19.0152C41.2905 19.0908 41.6467 19.1286 42.0892 19.1286C42.5318 19.1286 42.9419 19.0206 43.3197 18.8048C43.6975 18.5781 43.8864 18.2813 43.8864 17.9143C43.8864 17.5365 43.7838 17.2505 43.5787 17.0562C43.3737 16.8511 43.0391 16.6622 42.5749 16.4895L40.4864 15.6638C39.6768 15.3508 39.0562 14.9838 38.6244 14.5629C38.1927 14.1419 37.9768 13.559 37.9768 12.8143C37.9768 11.94 38.3168 11.2492 38.9968 10.7419C39.6876 10.213 40.6213 9.94857 41.7978 9.94857C42.9851 9.94857 43.8971 10.2238 44.534 10.7743C45.1816 11.314 45.554 12.0749 45.6511 13.0571H43.7568ZM51.2805 14.1095C50.7408 14.1095 50.3198 14.2876 50.0176 14.6438C49.7154 14.9892 49.5373 15.4371 49.4833 15.9876H52.8348C52.8348 15.1349 52.5595 14.5629 52.009 14.2714C51.8148 14.1635 51.5719 14.1095 51.2805 14.1095ZM53.79 13.7371C54.0706 14.0825 54.2757 14.4819 54.4052 14.9352C54.5455 15.3886 54.6157 15.8041 54.6157 16.1819C54.6157 16.5597 54.5941 16.8997 54.5509 17.2019H49.4671C49.4887 17.8387 49.6452 18.3568 49.9367 18.7562C50.2281 19.1556 50.6706 19.3552 51.2643 19.3552C52.0522 19.3552 52.5217 19.0098 52.6728 18.319H54.5995C54.4592 19.107 54.0976 19.7276 53.5148 20.1809C52.8995 20.6559 52.1494 20.8933 51.2643 20.8933C50.2281 20.8933 49.3592 20.5156 48.6576 19.76C47.9344 18.9721 47.5728 17.9629 47.5728 16.7324C47.5728 15.4695 47.9344 14.4549 48.6576 13.6886C49.3376 12.9546 50.2065 12.5876 51.2643 12.5876C52.3544 12.5876 53.1963 12.9708 53.79 13.7371ZM61.6371 17.5905C61.0002 17.4178 60.4066 17.3314 59.8561 17.3314C58.8199 17.3314 58.3018 17.6768 58.3018 18.3676C58.3018 18.659 58.4206 18.9127 58.658 19.1286C58.8955 19.3336 59.2733 19.4362 59.7913 19.4362C60.3202 19.4362 60.752 19.2635 61.0866 18.9181C61.432 18.5619 61.6155 18.1194 61.6371 17.5905ZM59.4675 16.0686C60.0936 16.0686 60.8167 16.1711 61.6371 16.3762V15.599C61.6371 15.0486 61.5237 14.6438 61.2971 14.3848C61.0812 14.1149 60.7196 13.98 60.2123 13.98C59.7158 13.98 59.3326 14.0825 59.0628 14.2876C58.7929 14.4819 58.658 14.7625 58.658 15.1295H56.5694C56.5694 14.2336 56.8825 13.586 57.5085 13.1867C58.1453 12.7873 59.0304 12.5876 60.1637 12.5876C61.7828 12.5876 62.8298 13.1543 63.3047 14.2876C63.4666 14.6762 63.5475 15.1349 63.5475 15.6638V20.6667H61.8799L61.7342 19.6143C61.2269 20.467 60.4498 20.8933 59.4028 20.8933C58.3882 20.8933 57.6002 20.6451 57.039 20.1486C56.5209 19.6736 56.2618 19.0746 56.2618 18.3514C56.2618 17.6175 56.5479 17.0562 57.1199 16.6676C57.692 16.2683 58.4745 16.0686 59.4675 16.0686ZM66.332 9.56H68.2425V20.6667H66.332V9.56ZM76.2359 16.7324C76.2359 15.9013 76.074 15.2806 75.7502 14.8705C75.4264 14.4495 74.9731 14.239 74.3902 14.239C73.8182 14.239 73.3486 14.4495 72.9817 14.8705C72.6147 15.2806 72.4312 15.9013 72.4312 16.7324C72.4312 17.5635 72.5931 18.1895 72.9169 18.6105C73.2515 19.0206 73.7048 19.2257 74.2769 19.2257C74.849 19.2257 75.3185 19.0206 75.6855 18.6105C76.0524 18.1895 76.2359 17.5635 76.2359 16.7324ZM74.3417 12.5876C74.8705 12.5876 75.367 12.674 75.8312 12.8467C76.2953 13.0086 76.6947 13.2622 77.0293 13.6076C77.774 14.3632 78.1464 15.4102 78.1464 16.7486C78.1464 18.0654 77.774 19.1016 77.0293 19.8571C76.3601 20.5479 75.4642 20.8933 74.3417 20.8933C73.2191 20.8933 72.3124 20.5479 71.6217 19.8571C70.8769 19.1124 70.5045 18.0762 70.5045 16.7486C70.5045 15.3994 70.8769 14.3524 71.6217 13.6076C72.3017 12.9276 73.2083 12.5876 74.3417 12.5876ZM81.4882 18.2705C81.5098 19.0152 82.0549 19.3876 83.1235 19.3876C83.5336 19.3876 83.8682 19.3013 84.1273 19.1286C84.3971 18.9451 84.532 18.7346 84.532 18.4971C84.532 18.2597 84.4511 18.0762 84.2892 17.9467C84.1273 17.8171 83.8736 17.6984 83.5282 17.5905L81.812 16.9752C80.5384 16.5327 79.9016 15.8095 79.9016 14.8057C79.9016 14.1365 80.1984 13.6022 80.792 13.2029C81.3965 12.7927 82.2006 12.5876 83.2044 12.5876C84.219 12.5876 84.9962 12.8089 85.5358 13.2514C86.0863 13.694 86.3724 14.2498 86.3939 14.919H84.5968C84.5752 14.66 84.4511 14.4549 84.2244 14.3038C83.9977 14.1527 83.6739 14.0771 83.253 14.0771C82.832 14.0771 82.5028 14.1635 82.2654 14.3362C82.0387 14.4981 81.9254 14.687 81.9254 14.9029C81.9254 15.2806 82.2438 15.5613 82.8806 15.7448L84.7425 16.4409C85.3578 16.646 85.8273 16.9105 86.1511 17.2343C86.4857 17.5473 86.653 17.9575 86.653 18.4648C86.653 19.1124 86.3454 19.6736 85.7301 20.1486C85.0933 20.6451 84.2514 20.8933 83.2044 20.8933C82.1574 20.8933 81.3155 20.6667 80.6787 20.2133C80.0419 19.7492 79.7181 19.1016 79.7073 18.2705H81.4882Z" fill="white"/>
<defs>
<filter id="filter0_d_11_8261" x="0.598389" y="0.0622538" width="32.9624" height="31.7184" filterUnits="userSpaceOnUse" color-interpolation-filters="sRGB">
<feFlood flood-opacity="0" result="BackgroundImageFix"/>
<feColorMatrix in="SourceAlpha" type="matrix" values="0 0 0 0 0 0 0 0 0 0 0 0 0 0 0 0 0 0 127 0" result="hardAlpha"/>
<feOffset dy="0.708333"/>
<feGaussianBlur stdDeviation="3.37302"/>
<feComposite in2="hardAlpha" operator="out"/>
<feColorMatrix type="matrix" values="0 0 0 0 1 0 0 0 0 1 0 0 0 0 1 0 0 0 0.25 0"/>
<feBlend mode="normal" in2="BackgroundImageFix" result="effect1_dropShadow_11_8261"/>
<feBlend mode="normal" in="SourceGraphic" in2="effect1_dropShadow_11_8261" result="shape"/>
</filter>
</defs>
</svg>
