<svg width="24" height="24" viewBox="0 0 24 24" fill="none" xmlns="http://www.w3.org/2000/svg">
<path fill-rule="evenodd" clip-rule="evenodd" d="M1.5 4.55992C1.5 3.93032 2.0104 3.41992 2.64 3.41992H21.36C21.9896 3.41992 22.5 3.93032 22.5 4.55992V19.4399C22.5 20.0695 21.9896 20.5799 21.36 20.5799H2.64C2.01039 20.5799 1.5 20.0695 1.5 19.4399V4.55992ZM3.3 5.21992V18.7799H20.7V5.21992H3.3ZM4.60635 7.73H5.50635H10.1588H11.0588V9.53H10.1588H5.50635H4.60635V7.73ZM4.60635 11.33H5.50635H8.7353H9.6353V13.13H8.7353H5.50635H4.60635V11.33ZM5.50635 14.93H4.60635V16.73H5.50635H11.3461H12.2461V14.93H11.3461H5.50635ZM16.1411 6.05415L16.5841 6.39978L17.2928 6.9528L18.1849 7.06289L18.7425 7.13169L18.8113 7.68929L18.9214 8.58147L19.4745 9.29018L19.8201 9.73311L19.4745 10.176L18.9214 10.8848L18.8113 11.7769L18.7425 12.3345L18.2473 12.3956V16.3476V17.3506C18.2473 17.4626 18.1165 17.5236 18.0307 17.4517L17.2619 16.8075L16.2317 15.9443C16.1829 15.9034 16.1119 15.9032 16.0629 15.9438L15.018 16.8096L14.2512 17.445C14.1653 17.5163 14.0352 17.4551 14.0352 17.3435V16.3476V12.3957L13.5397 12.3345L13.4709 11.7769L13.3608 10.8848L12.8078 10.176L12.4622 9.73311L12.8078 9.29018L13.3608 8.58147L13.4709 7.68929L13.5397 7.13169L14.0973 7.06289L14.9895 6.9528L15.6982 6.39978L16.1411 6.05415ZM16.5841 13.0664L17.0473 12.705L17.0473 14.7795C17.0473 14.8915 16.9165 14.9525 16.8307 14.8806L16.535 14.6328L16.236 14.3823C16.1872 14.3414 16.1162 14.3412 16.0672 14.3818L15.7668 14.6307L15.4512 14.8922C15.3653 14.9634 15.2352 14.9023 15.2352 14.7906V12.7052L15.6982 13.0664L16.1411 13.4121L16.5841 13.0664ZM16.1411 7.88068L15.7183 8.21062L15.5612 8.33317L15.3635 8.35756L14.8313 8.42324L14.7656 8.95553L14.7412 9.15324L14.6186 9.31029L14.2887 9.73311L14.6186 10.1559L14.7412 10.313L14.7656 10.5107L14.8313 11.043L15.3635 11.1087L15.5612 11.1331L15.7183 11.2556L16.1411 11.5855L16.5639 11.2556L16.721 11.1331L16.9187 11.1087L17.451 11.043L17.5167 10.5107L17.5411 10.313L17.6636 10.1559L17.9936 9.73311L17.6636 9.31029L17.5411 9.15324L17.5167 8.95553L17.451 8.42324L16.9187 8.35756L16.721 8.33317L16.5639 8.21062L16.1411 7.88068Z" fill="#485058"/>
</svg>
