<svg width="13" height="13" viewBox="0 0 13 13" fill="none" xmlns="http://www.w3.org/2000/svg">
<rect x="1" y="1" width="11" height="11" fill="#605E5C" stroke="#605E5C" stroke-width="1.5" stroke-linecap="round" stroke-linejoin="round"/>
<path d="M4.93803 3.52456C4.93803 3.23462 5.17708 3 5.47163 3H6.75421C8.52032 3 9.96667 4.38752 9.96667 6.11686C9.96667 7.84544 8.52032 9.23333 6.75421 9.23333H5.47124C5.17631 9.23333 4.93764 8.99833 4.93764 8.70877V3.52418L4.93803 3.52456ZM6.00523 8.13652C6.00523 8.16284 6.02696 8.18421 6.05374 8.18421H6.75421C7.94714 8.18421 8.89947 7.25068 8.89947 6.11648C8.89947 4.98228 7.94714 4.04874 6.75421 4.04874H6.05335C6.04695 4.04874 6.04061 4.04999 6.0347 4.05241C6.02879 4.05483 6.02342 4.05838 6.01891 4.06285C6.0144 4.06731 6.01084 4.07262 6.00842 4.07845C6.00601 4.08428 6.00479 4.09052 6.00484 4.09681V8.13652H6.00523ZM3.53282 3.03891C3.60291 3.03876 3.67234 3.0522 3.73714 3.07845C3.80194 3.1047 3.86084 3.14325 3.91048 3.1919C3.96011 3.24055 3.9995 3.29834 4.02639 3.36197C4.05328 3.4256 4.06715 3.49381 4.0672 3.56271L4.07263 8.66909C4.07279 8.80822 4.01672 8.9417 3.91676 9.04018C3.8168 9.13867 3.68113 9.19408 3.53961 9.19423C3.3981 9.19438 3.26231 9.13926 3.16213 9.04099C3.06195 8.94273 3.00559 8.80936 3.00543 8.67024L3 3.56386C2.9999 3.49497 3.0136 3.42674 3.04032 3.36306C3.06704 3.29938 3.10626 3.24149 3.15574 3.19271C3.20522 3.14393 3.26398 3.10521 3.32868 3.07875C3.39338 3.0523 3.46275 3.03863 3.53282 3.03853V3.03891Z" fill="#F0F3F7"/>
</svg>
