<svg width="48" height="49" viewBox="0 0 48 49" fill="none" xmlns="http://www.w3.org/2000/svg">
<path d="M16.5205 10.5412C19.6976 10.5412 22.5764 10.8958 24.5963 11.4439C25.6091 11.718 26.4072 12.0476 26.8899 12.3562C27.3706 12.6648 27.4409 12.8814 27.4409 12.9159C27.4409 12.9504 27.3706 13.165 26.8899 13.4717C26.4072 13.7821 25.6091 14.1118 24.5982 14.3859C22.5764 14.9359 19.6976 15.2905 16.5205 15.2905C13.3415 15.2905 10.4627 14.9359 8.44087 14.3859C7.42996 14.1118 6.63188 13.7821 6.15113 13.4736C5.66848 13.1631 5.60007 12.9504 5.60007 12.9159C5.60007 12.8814 5.66848 12.6667 6.15113 12.3562C6.63188 12.0476 7.42996 11.718 8.44087 11.4439C10.4627 10.8958 13.3434 10.5412 16.5205 10.5412Z" fill="url(#paint0_angular_4808_18015)"/>
<path d="M5.59817 14.9532C6.26704 15.3365 7.04232 15.6699 8.02662 15.9383C10.2461 16.5401 13.2256 16.8965 16.5205 16.8965C19.8135 16.8965 22.795 16.5401 25.0144 15.9383C25.8611 15.7159 26.6759 15.3848 27.439 14.9532V20.9386C27.439 20.9577 27.439 21.0287 27.268 21.1973C26.9895 21.4464 26.6732 21.6489 26.3312 21.7972C25.4286 22.2208 24.0187 22.6194 22.2553 22.8954C18.7285 23.4474 14.3106 23.4474 10.7819 22.8954C9.01853 22.6194 7.60858 22.2208 6.70789 21.7972C6.36511 21.6493 6.04816 21.4468 5.76919 21.1973C5.60197 21.0287 5.59817 20.9558 5.59817 20.9386V14.9532Z" fill="url(#paint1_angular_4808_18015)"/>
<path d="M5.59817 22.9682C5.75589 23.0583 5.8585 23.1733 6.03522 23.2557C7.15633 23.7847 8.67649 24.1948 10.5387 24.4861C14.2631 25.0688 18.776 25.0688 22.5004 24.4861C24.3626 24.1948 25.8828 23.7847 27.0039 23.2557C27.1806 23.1733 27.2832 23.0583 27.4409 22.9682V28.9613C27.4409 28.9805 27.4371 29.0514 27.2699 29.2201C26.991 29.47 26.674 29.6732 26.3312 29.8219C25.4286 30.2454 24.0187 30.6441 22.2553 30.92C18.7285 31.472 14.3106 31.472 10.7819 30.92C9.01853 30.6441 7.60858 30.2454 6.70789 29.8219C6.36497 29.6734 6.04801 29.4702 5.76919 29.2201C5.60197 29.0514 5.59817 28.9786 5.59817 28.9613V22.9682Z" fill="url(#paint2_angular_4808_18015)"/>
<path d="M5.59817 30.9929C5.75589 31.083 5.8585 31.1979 6.03522 31.2804C7.15633 31.8074 8.67649 32.2195 10.5387 32.5108C14.2631 33.0934 18.776 33.0934 22.5004 32.5108C24.3626 32.2176 25.8828 31.8074 27.0039 31.2804C27.1806 31.1979 27.2832 31.083 27.4409 30.9929V36.986C27.4409 37.0051 27.4371 37.0761 27.2699 37.2447C26.991 37.4947 26.674 37.6979 26.3312 37.8465C25.4286 38.2701 24.0187 38.6687 22.2553 38.9447C18.7285 39.4967 14.3106 39.4967 10.7819 38.9447C9.01853 38.6687 7.60858 38.2701 6.70789 37.8465C6.36497 37.6981 6.04801 37.4949 5.76919 37.2447C5.60197 37.0761 5.59817 37.0032 5.59817 36.986V30.9929Z" fill="url(#paint3_angular_4808_18015)"/>
<path fill-rule="evenodd" clip-rule="evenodd" d="M44.6072 14.9303C44.796 14.7398 44.9021 14.4814 44.9021 14.212C44.9021 14.0784 44.876 13.9462 44.8253 13.8228C44.7746 13.6995 44.7002 13.5874 44.6065 13.4931C44.5128 13.3987 44.4015 13.3239 44.2791 13.273C44.1567 13.2221 44.0255 13.196 43.8931 13.1962C43.626 13.1962 43.3699 13.3032 43.181 13.4937C42.9921 13.6842 42.886 13.9426 42.886 14.212C42.886 14.3456 42.9121 14.4778 42.9629 14.6012C43.0136 14.7245 43.0879 14.8366 43.1817 14.9309C43.2754 15.0253 43.3866 15.1001 43.509 15.151C43.6314 15.2019 43.7626 15.228 43.895 15.2278C44.1621 15.2278 44.4183 15.1208 44.6072 14.9303ZM42.0081 2.49795C42.0081 2.49795 42.3388 2.46345 42.8404 2.47878C43.473 2.49549 44.1013 2.58813 44.7121 2.75477C45.4038 2.95026 46.1392 3.27991 46.7282 3.88554C47.3173 4.49118 47.7125 5.38238 47.7125 6.46524C47.7188 7.13992 47.4763 7.7929 47.0322 8.29748C46.6294 8.74212 46.1335 9.00277 45.6755 9.16951C45.2865 9.31058 45.1142 9.31983 44.9034 9.33115C44.8393 9.3346 44.7716 9.33824 44.6931 9.34584V12.0424H43.0969V7.87583L43.8988 7.87967C43.8988 7.87967 44.5411 7.87392 45.1339 7.65734C45.4044 7.56745 45.6503 7.41521 45.8522 7.2127C46.0175 7.03254 46.1164 6.84089 46.1164 6.46524C46.1164 5.74461 45.9073 5.3383 45.59 5.01248C45.2708 4.68475 44.7976 4.45093 44.2808 4.30527C43.249 4.01395 42.1525 4.1002 42.1525 4.1002L42.0081 2.49795ZM30.6449 10.3405L36.1061 5.57404L37.1493 6.79106L33.0962 10.329L37.1626 13.8114L36.1289 15.038L30.6449 10.3405Z" fill="url(#paint4_angular_4808_18015)"/>
<defs>
<radialGradient id="paint0_angular_4808_18015" cx="0" cy="0" r="1" gradientUnits="userSpaceOnUse" gradientTransform="translate(5.87737 40.9739) rotate(-42.6219) scale(56.8539 63.0727)">
<stop stop-color="#B05858"/>
<stop offset="1" stop-color="#BD6767"/>
</radialGradient>
<radialGradient id="paint1_angular_4808_18015" cx="0" cy="0" r="1" gradientUnits="userSpaceOnUse" gradientTransform="translate(5.87737 40.9739) rotate(-42.6219) scale(56.8539 63.0727)">
<stop stop-color="#B05858"/>
<stop offset="1" stop-color="#BD6767"/>
</radialGradient>
<radialGradient id="paint2_angular_4808_18015" cx="0" cy="0" r="1" gradientUnits="userSpaceOnUse" gradientTransform="translate(5.87737 40.9739) rotate(-42.6219) scale(56.8539 63.0727)">
<stop stop-color="#B05858"/>
<stop offset="1" stop-color="#BD6767"/>
</radialGradient>
<radialGradient id="paint3_angular_4808_18015" cx="0" cy="0" r="1" gradientUnits="userSpaceOnUse" gradientTransform="translate(5.87737 40.9739) rotate(-42.6219) scale(56.8539 63.0727)">
<stop stop-color="#B05858"/>
<stop offset="1" stop-color="#BD6767"/>
</radialGradient>
<radialGradient id="paint4_angular_4808_18015" cx="0" cy="0" r="1" gradientUnits="userSpaceOnUse" gradientTransform="translate(5.87737 40.9739) rotate(-42.6219) scale(56.8539 63.0727)">
<stop stop-color="#B05858"/>
<stop offset="1" stop-color="#BD6767"/>
</radialGradient>
</defs>
</svg>
