<svg width="33" height="33" viewBox="0 0 33 33" fill="none" xmlns="http://www.w3.org/2000/svg">
<g clip-path="url(#clip0_1117_1302)">
<path d="M29.1835 8.42676L17.1085 1.47676C16.9085 1.35176 16.6335 1.30176 16.3335 1.30176C16.0335 1.30176 15.7585 1.37676 15.5585 1.47676L3.5585 8.45176C3.1335 8.70176 2.8335 9.32676 2.8335 9.80176V23.7268C2.8335 24.0018 2.8835 24.3268 3.0835 24.6018L29.7835 9.10176C29.6335 8.80176 29.4085 8.57676 29.1835 8.42676Z" fill="#659AD3"/>
<path d="M3.0083 24.5767C3.1333 24.7767 3.3083 24.9517 3.4833 25.0517L15.5333 32.0267C15.7333 32.1517 16.0083 32.2017 16.3083 32.2017C16.6083 32.2017 16.8833 32.1267 17.0833 32.0267L29.0833 25.0517C29.5083 24.8017 29.8083 24.1767 29.8083 23.7017V9.77666C29.8083 9.55166 29.7833 9.30166 29.6583 9.07666L3.0083 24.5767Z" fill="#03599C"/>
<path d="M21.6585 19.7767C20.6085 21.6267 18.6085 22.8767 16.3335 22.8767C12.9585 22.8767 10.2085 20.1267 10.2085 16.7517C10.2085 13.3767 12.9585 10.6267 16.3335 10.6267C18.6085 10.6267 20.6085 11.8767 21.6585 13.7517L24.9085 11.8767C23.2085 8.90171 20.0085 6.87671 16.3335 6.87671C10.8835 6.87671 6.4585 11.3017 6.4585 16.7517C6.4585 22.2017 10.8835 26.6267 16.3335 26.6267C19.9835 26.6267 23.1835 24.6267 24.8835 21.6767L21.6585 19.7767Z" fill="white"/>
</g>
<defs>
<clipPath id="clip0_1117_1302">
<rect width="32" height="32" fill="white" transform="translate(0.333496 0.751709)"/>
</clipPath>
</defs>
</svg>
