<svg width="23" height="29" viewBox="0 0 23 29" fill="none" xmlns="http://www.w3.org/2000/svg">
<path d="M19.8237 15.8222C20.1996 16.0819 21.0295 16.4663 21.0698 15.6355C21.5159 15.4281 21.0886 14.8997 20.8608 14.7341C20.4184 14.4127 19.8315 14.2842 19.292 14.3331C19.278 14.581 19.2967 14.8283 19.3155 15.0754C19.321 15.1482 19.3265 15.2211 19.3312 15.2939C19.3521 15.6168 19.405 15.6352 19.5424 15.6831C19.6122 15.7074 19.7036 15.7392 19.8237 15.8222Z" fill="#F6D2A2"/>
<path fill-rule="evenodd" clip-rule="evenodd" d="M20.8608 14.734C21.0886 14.8996 21.5159 15.428 21.0698 15.6354C21.0295 16.4662 20.1996 16.0818 19.8237 15.8221C19.7036 15.7391 19.6122 15.7073 19.5425 15.683C19.405 15.6351 19.3521 15.6167 19.3312 15.2938C19.3266 15.221 19.321 15.1481 19.3155 15.0753C19.2968 14.8282 19.278 14.5809 19.292 14.333C19.8315 14.2841 20.4184 14.4126 20.8608 14.734ZM21.1971 15.7176C21.2975 15.6534 21.3624 15.5663 21.3872 15.4609C21.4156 15.3399 21.3856 15.2177 21.3398 15.1148C21.2488 14.9103 21.0678 14.7196 20.9393 14.6261L20.9392 14.6261C20.4665 14.2827 19.8461 14.1489 19.28 14.2002L19.1654 14.2106L19.1589 14.3254C19.1444 14.5822 19.1637 14.8369 19.1822 15.0812L19.1826 15.0854C19.1881 15.1583 19.1936 15.2304 19.1982 15.3023L19.1982 15.3024C19.2085 15.4614 19.227 15.5803 19.2812 15.6641C19.3396 15.7542 19.4275 15.7844 19.4883 15.8054C19.4918 15.8066 19.4953 15.8078 19.4986 15.8089C19.5647 15.832 19.6427 15.8591 19.7479 15.9318L19.7479 15.9318C19.9414 16.0655 20.2659 16.2424 20.56 16.2704C20.7099 16.2847 20.8709 16.2618 20.9979 16.1527C21.1107 16.0559 21.176 15.9088 21.1971 15.7176Z" fill="black"/>
<path d="M2.17608 15.9277C1.80018 16.1874 0.970244 16.5718 0.929977 15.7411C0.483927 15.5336 0.911084 15.0052 1.13898 14.8396C1.58134 14.5182 2.42048 14.3982 2.96001 14.447C2.97404 14.6948 2.95529 14.9418 2.93656 15.1887C2.93102 15.2617 2.92548 15.3348 2.92078 15.4078C2.9012 15.7122 2.75442 15.7427 2.55993 15.7832C2.44341 15.8075 2.30976 15.8353 2.17608 15.9277Z" fill="#F6D2A2"/>
<path fill-rule="evenodd" clip-rule="evenodd" d="M2.17614 15.9276C1.80024 16.1873 0.970296 16.5717 0.930029 15.741C0.48398 15.5335 0.911136 15.0051 1.13904 14.8395C1.58139 14.5181 2.42053 14.3981 2.96007 14.4469C2.97409 14.6947 2.95534 14.9417 2.93661 15.1886C2.93107 15.2616 2.92553 15.3347 2.92084 15.4077C2.90125 15.7121 2.75447 15.7426 2.55998 15.7831C2.44346 15.8074 2.30981 15.8352 2.17614 15.9276ZM0.80279 15.8231C0.823882 16.0143 0.889187 16.1614 1.00199 16.2583C1.12896 16.3673 1.28992 16.3902 1.43986 16.3759C1.73392 16.3479 2.05843 16.171 2.25193 16.0373L2.25195 16.0373C2.36108 15.9618 2.47017 15.938 2.58715 15.9137C2.59127 15.9128 2.59546 15.9119 2.59972 15.9111C2.68685 15.8931 2.80039 15.8696 2.88927 15.7985C2.99314 15.7155 3.04279 15.5889 3.0539 15.4163L3.0539 15.4163C3.05853 15.3441 3.06401 15.2719 3.06956 15.1987L3.06988 15.1945C3.0884 14.9504 3.10771 14.696 3.09319 14.4394L3.08668 14.3245L2.97209 14.3141C2.68846 14.2885 2.33119 14.3073 1.98788 14.3735C1.64663 14.4392 1.30446 14.5545 1.06068 14.7316L1.06064 14.7316C0.932074 14.8251 0.750973 15.0158 0.659981 15.2203C0.614231 15.3232 0.584204 15.4454 0.612668 15.5664C0.637458 15.6718 0.702338 15.759 0.80279 15.8231Z" fill="black"/>
<path d="M0.930176 15.741C1.05095 15.696 1.17896 15.6642 1.2609 15.5549L0.930176 15.741Z" fill="#C6B198"/>
<path d="M2.84804 5.84407C-0.332222 4.94973 2.10413 0.460677 4.7854 2.75545L2.84804 5.84407ZM16.7896 2.37806C19.4421 0.256054 21.9235 4.54405 18.6876 5.53242L16.7896 2.37806Z" fill="#6AD7E5"/>
<path fill-rule="evenodd" clip-rule="evenodd" d="M4.7854 2.75545L2.84804 5.84407C-0.332222 4.94973 2.10413 0.460677 4.7854 2.75545ZM4.61035 2.78359L2.78898 5.6873C2.08985 5.466 1.71154 5.06106 1.55801 4.61783C1.39586 4.14969 1.47664 3.6166 1.73412 3.17049C1.99138 2.72478 2.41799 2.3783 2.93067 2.27487C3.41604 2.17696 3.99774 2.29314 4.61035 2.78359ZM16.965 2.41105L18.7473 5.37309C19.4609 5.13057 19.8465 4.72005 20.0036 4.27942C20.1691 3.81487 20.089 3.29359 19.8318 2.85647C19.5747 2.41958 19.1466 2.07739 18.6322 1.96709C18.1463 1.86287 17.5682 1.96246 16.965 2.41105ZM16.7896 2.37806C19.4421 0.256054 21.9235 4.54405 18.6876 5.53242L16.7896 2.37806Z" fill="black"/>
<path d="M17.4244 25.9067C18.0638 26.3023 19.3272 27.5573 18.368 28.1373C17.4463 28.9812 16.8359 27.1525 16.0269 26.9073C16.3754 26.4341 16.8169 26.0027 17.4244 25.9067ZM6.36058 27.0991C5.61006 27.2152 4.92284 28.1104 4.29718 28.4543C3.70758 28.8059 3.48205 28.3418 3.42898 28.2475C3.33659 28.2054 3.34432 28.2868 3.20166 28.1432C2.65512 27.2806 4.03595 26.4319 4.61707 26.0035C5.42653 25.8398 5.93378 26.5416 6.36058 27.0991Z" fill="#F6D2A2"/>
<path fill-rule="evenodd" clip-rule="evenodd" d="M18.368 28.1373C19.3272 27.5573 18.0638 26.3023 17.4244 25.9067C16.8652 25.9951 16.4467 26.3675 16.1119 26.7952C16.083 26.8322 16.0547 26.8696 16.0269 26.9073C16.07 26.9203 16.1124 26.9378 16.1544 26.9592C16.4077 27.0881 16.6434 27.3568 16.8783 27.6246C17.3363 28.1468 17.7912 28.6655 18.368 28.1373ZM16.237 26.852C16.4057 26.9429 16.5596 27.0827 16.7005 27.2292C16.7947 27.3271 16.8874 27.4328 16.9776 27.5356L16.9804 27.5388C17.0723 27.6436 17.1615 27.7452 17.2512 27.8381C17.4339 28.0275 17.6008 28.1612 17.7636 28.2074C17.9102 28.249 18.0747 28.2251 18.278 28.039L18.2877 28.0301L18.299 28.0232C18.5045 27.899 18.577 27.7509 18.5819 27.5955C18.5871 27.4287 18.5148 27.2323 18.383 27.0242C18.132 26.6278 17.7017 26.2457 17.3965 26.047C16.9201 26.139 16.5487 26.46 16.237 26.852ZM4.29718 28.4543C4.53164 28.3254 4.77474 28.1192 5.02657 27.9055C5.40366 27.5855 5.80034 27.2489 6.21692 27.1307C6.26454 27.1172 6.31243 27.1065 6.36058 27.0991C6.3478 27.0824 6.33494 27.0655 6.322 27.0486C6.30472 27.026 6.2873 27.0032 6.26973 26.9803C5.86131 26.4476 5.36989 25.8513 4.61707 26.0035C4.56056 26.0451 4.49649 26.0908 4.42736 26.14C3.78561 26.5971 2.70827 27.3645 3.20166 28.1432C3.29363 28.2358 3.32309 28.2348 3.35717 28.2338C3.37596 28.2332 3.39615 28.2326 3.42898 28.2475C3.43094 28.251 3.43314 28.255 3.43558 28.2595C3.49923 28.375 3.72939 28.7929 4.29718 28.4543ZM3.30663 28.0595C3.33189 28.0841 3.34692 28.0956 3.35416 28.1005C3.35985 28.1003 3.36959 28.1001 3.37951 28.1004C3.41097 28.1016 3.44495 28.1083 3.48428 28.1262L3.52383 28.1443L3.54516 28.1821C3.5472 28.1858 3.54935 28.1896 3.55162 28.1937C3.58288 28.2499 3.63642 28.3461 3.7316 28.4045C3.77924 28.4337 3.83836 28.4536 3.91458 28.4504C3.99222 28.4471 4.09551 28.4193 4.22889 28.3398L4.23292 28.3374L4.23296 28.3375C4.37839 28.2575 4.53104 28.1434 4.69364 28.0106C4.77457 27.9444 4.85664 27.8748 4.94082 27.8034L4.94084 27.8033C5.02471 27.7322 5.11059 27.6593 5.19763 27.5881C5.48211 27.3553 5.79511 27.1259 6.13028 27.0177C5.95166 26.7862 5.76446 26.557 5.54912 26.385C5.29569 26.1826 5.0141 26.0685 4.6716 26.1288C4.61854 26.1676 4.56064 26.2089 4.49945 26.2525C4.21334 26.4564 3.85518 26.7117 3.58385 27.0016C3.4156 27.1814 3.2916 27.3639 3.23834 27.5432C3.18808 27.7123 3.19905 27.8829 3.30663 28.0595Z" fill="black"/>
<path d="M2.98049 4.72663C2.56092 4.50467 2.2531 4.20325 2.50975 3.71795C2.74737 3.26867 3.18877 3.31748 3.60842 3.5394L2.98049 4.72663ZM18.1813 4.30467C18.6009 4.08271 18.9087 3.78129 18.652 3.29599C18.4144 2.84674 17.973 2.89552 17.5534 3.11744L18.1813 4.30467Z" fill="black"/>
<path d="M21.0695 15.6355C20.9487 15.5905 20.8207 15.5587 20.7388 15.4495L21.0695 15.6355Z" fill="#C6B198"/>
<path d="M10.6814 0.583984C13.8652 0.583984 16.8499 1.03937 18.4058 4.09829C19.8024 7.52692 19.3057 11.2241 19.5188 14.8478C19.7017 17.9592 20.1071 21.5539 18.6637 24.4372C17.1453 27.4707 13.3509 28.2338 10.2247 28.122C7.76922 28.0342 4.80298 27.2331 3.4172 24.9896C1.79126 22.3577 2.56108 18.4442 2.67908 15.5157C2.81897 12.0466 1.73954 8.56713 2.87911 5.17261C4.06134 1.65133 7.2498 0.855522 10.6814 0.583984Z" fill="#6AD7E5"/>
<path fill-rule="evenodd" clip-rule="evenodd" d="M18.6637 24.4372L18.5445 24.3775C19.2542 22.9598 19.512 21.3618 19.5679 19.7235C19.613 18.3988 19.5262 17.0565 19.4428 15.7667C19.423 15.4597 19.4033 15.1557 19.3857 14.8556C19.3322 13.9458 19.3233 13.032 19.318 12.1224C19.3176 12.0401 19.3171 11.958 19.3167 11.8758C19.3122 11.0481 19.3078 10.2242 19.2729 9.40559C19.1962 7.6081 18.9727 5.84594 18.2844 4.15376C16.7668 1.17597 13.8634 0.717823 10.6867 0.717318C8.97688 0.85289 7.34453 1.11844 5.9954 1.77938C4.65087 2.43808 3.58437 3.49094 3.00551 5.21505C2.44411 6.88734 2.42767 8.58491 2.53728 10.3077C2.56873 10.8021 2.61074 11.2997 2.65293 11.7994C2.7571 13.0334 2.86235 14.2801 2.8123 15.5211C2.78859 16.1097 2.73864 16.7382 2.68724 17.3849C2.67443 17.5462 2.66153 17.7085 2.64892 17.8716C2.5856 18.691 2.52946 19.5328 2.52749 20.3642C2.52355 22.0297 2.73744 23.6356 3.53063 24.9196L3.4172 24.9896C2.11648 22.8842 2.34897 19.9585 2.55443 17.3731C2.6058 16.7266 2.65548 16.1015 2.67908 15.5157C2.72877 14.2835 2.62462 13.0499 2.52072 11.8194C2.33211 9.5855 2.14432 7.36138 2.87911 5.17261C4.06134 1.65133 7.2498 0.855522 10.6814 0.583984C13.8652 0.583984 16.8499 1.03937 18.4058 4.09829C19.4216 6.59224 19.4358 9.2283 19.45 11.8748C19.4553 12.8666 19.4607 13.8599 19.5188 14.8478C19.5363 15.1462 19.5559 15.449 19.5757 15.7552C19.7625 18.6421 19.9687 21.8304 18.6637 24.4372ZM18.6637 24.4372L18.5444 24.3775C17.8046 25.8556 16.5085 26.7859 15.0016 27.3338C13.4934 27.8822 11.7815 28.0443 10.2295 27.9888C7.78568 27.9013 4.87987 27.1038 3.53063 24.9196L3.4172 24.9896C4.80298 27.2331 7.76922 28.0342 10.2247 28.122C13.3509 28.2338 17.1453 27.4707 18.6637 24.4372Z" fill="black"/>
<path d="M11.9224 9.29734C11.9107 9.14277 11.9158 8.86607 11.9149 8.72053L10.8612 8.36292C10.8558 8.53227 10.8465 8.86566 10.8335 9.03264C10.806 9.38306 10.7788 9.73071 10.8236 10.086C10.9271 10.3272 11.1439 10.4966 11.4018 10.5371C11.4475 10.5164 11.4951 10.4995 11.5424 10.4826C11.688 10.4308 11.8316 10.3797 11.9149 10.2223C11.9691 9.91755 11.9453 9.6016 11.9224 9.29734Z" fill="white"/>
<path fill-rule="evenodd" clip-rule="evenodd" d="M11.7816 8.81608L10.9888 8.54703C10.9834 8.71585 10.9759 8.92159 10.9664 9.04305C10.9393 9.38887 10.9141 9.71705 10.9536 10.05C11.0365 10.2294 11.196 10.3572 11.3864 10.3986C11.4241 10.3832 11.4614 10.3699 11.4955 10.3578L11.4977 10.357C11.6405 10.3062 11.7308 10.2698 11.7874 10.1769C11.8333 9.8982 11.812 9.60677 11.7894 9.30736C11.7803 9.18579 11.781 8.99184 11.7815 8.84476C11.7815 8.83498 11.7816 8.82541 11.7816 8.81608ZM11.9149 10.2223C11.8316 10.3797 11.688 10.4308 11.5424 10.4826C11.4951 10.4995 11.4475 10.5164 11.4018 10.5371C11.1439 10.4966 10.9271 10.3272 10.8236 10.086C10.7788 9.73071 10.806 9.38306 10.8335 9.03264C10.8435 8.90418 10.8513 8.67722 10.8568 8.50224C10.8576 8.4776 10.8583 8.45398 10.859 8.43182C10.8598 8.4068 10.8605 8.38363 10.8612 8.36292L11.9149 8.72053C11.9152 8.75711 11.915 8.80196 11.9148 8.85109C11.9143 8.99743 11.9136 9.18162 11.9224 9.29734C11.9453 9.6016 11.9691 9.91755 11.9149 10.2223Z" fill="black"/>
<path d="M4.75234 5.39563C5.49323 8.28863 10.125 7.54794 9.95047 4.64597C9.74118 1.17046 4.04399 1.84108 4.75234 5.39563Z" fill="white"/>
<path fill-rule="evenodd" clip-rule="evenodd" d="M9.81738 4.65398C9.76751 3.82587 9.39336 3.25448 8.87612 2.90777C8.35483 2.55834 7.67895 2.43143 7.02452 2.51674C6.37017 2.60204 5.75006 2.89782 5.33732 3.37717C4.92828 3.85223 4.7142 4.51721 4.8824 5.36603C5.23227 6.72467 6.49342 7.24118 7.67469 7.06209C8.85828 6.88264 9.89922 6.01508 9.81738 4.65398ZM4.75234 5.39563C5.49323 8.28863 10.125 7.54794 9.95047 4.64597C9.74118 1.17046 4.04399 1.84108 4.75234 5.39563Z" fill="black"/>
<path d="M11.2434 4.85812C11.815 8.18113 17.2468 7.30251 16.4665 3.95109C15.7671 0.945766 11.0534 1.77766 11.2434 4.85812Z" fill="white"/>
<path fill-rule="evenodd" clip-rule="evenodd" d="M16.3367 3.98132L16.3367 3.98131C16.1703 3.26663 15.7683 2.78665 15.2642 2.50849C14.7573 2.22876 14.1401 2.14954 13.5444 2.25377C12.3529 2.46228 11.2902 3.39136 11.376 4.84267C11.5134 5.62991 11.9351 6.16196 12.4769 6.47404C13.0238 6.78904 13.6999 6.88327 14.3399 6.77601C14.98 6.66873 15.5722 6.36194 15.9566 5.88981C16.3378 5.42145 16.5228 4.78078 16.3367 3.98132ZM11.2434 4.85812C11.815 8.18113 17.2468 7.30251 16.4665 3.95109C15.7671 0.945766 11.0534 1.77766 11.2434 4.85812Z" fill="black"/>
<path d="M5.24756 4.92381C5.24756 5.14849 5.32996 5.36396 5.47664 5.52284C5.62332 5.68171 5.82226 5.77096 6.02969 5.77096C6.23713 5.77096 6.43607 5.68171 6.58275 5.52284C6.72943 5.36396 6.81183 5.14849 6.81183 4.92381C6.81183 4.69913 6.72943 4.48366 6.58275 4.32478C6.43607 4.16591 6.23713 4.07666 6.02969 4.07666C5.82226 4.07666 5.62332 4.16591 5.47664 4.32478C5.32996 4.48366 5.24756 4.69913 5.24756 4.92381Z" fill="black"/>
<path d="M6.20119 5.11496C6.20088 5.14345 6.20542 5.17174 6.21455 5.19817C6.22368 5.2246 6.23722 5.24865 6.25437 5.26893C6.27152 5.28921 6.29195 5.30531 6.31447 5.3163C6.337 5.32728 6.36116 5.33294 6.38557 5.33294C6.40998 5.33294 6.43415 5.32728 6.45667 5.3163C6.47919 5.30531 6.49962 5.28921 6.51677 5.26893C6.53393 5.24865 6.54746 5.2246 6.55659 5.19817C6.56572 5.17174 6.57026 5.14345 6.56996 5.11496C6.57026 5.08646 6.56572 5.05818 6.55659 5.03175C6.54746 5.00531 6.53393 4.98126 6.51677 4.96098C6.49962 4.94071 6.47919 4.92461 6.45667 4.91362C6.43415 4.90263 6.40998 4.89697 6.38557 4.89697C6.36116 4.89697 6.337 4.90263 6.31447 4.91362C6.29195 4.92461 6.27152 4.94071 6.25437 4.96098C6.23722 4.98126 6.22368 5.00531 6.21455 5.03175C6.20542 5.05818 6.20088 5.08646 6.20119 5.11496Z" fill="white"/>
<path d="M11.814 4.71287C11.814 4.93755 11.895 5.15303 12.0392 5.3119C12.1835 5.47077 12.3791 5.56002 12.5831 5.56002C12.787 5.56002 12.9827 5.47077 13.1269 5.3119C13.2711 5.15303 13.3522 4.93755 13.3522 4.71287C13.3522 4.48819 13.2711 4.27272 13.1269 4.11385C12.9827 3.95498 12.787 3.86572 12.5831 3.86572C12.3791 3.86572 12.1835 3.95498 12.0392 4.11385C11.895 4.27272 11.814 4.48819 11.814 4.71287Z" fill="black"/>
<path d="M9.66354 8.79865C9.32228 9.62566 9.85382 11.2794 10.7797 10.0596C10.7135 9.53504 10.8089 8.93348 10.8256 8.40869L9.66354 8.79865Z" fill="white"/>
<path fill-rule="evenodd" clip-rule="evenodd" d="M10.641 10.0208C10.6139 9.76212 10.6219 9.49045 10.6385 9.22589C10.6452 9.11978 10.6531 9.01597 10.6608 8.91419C10.669 8.80632 10.6771 8.70073 10.6833 8.59709L9.76586 8.90495C9.70581 9.07919 9.68296 9.29298 9.69683 9.50751C9.71222 9.74557 9.77194 9.97084 9.86252 10.1311C9.95448 10.2938 10.0602 10.3623 10.164 10.3602C10.2707 10.358 10.4327 10.2822 10.641 10.0208ZM9.66354 8.79865C9.32228 9.62566 9.85382 11.2794 10.7797 10.0596C10.7346 9.70226 10.7645 9.30917 10.7934 8.92897C10.8032 8.80104 10.8128 8.67457 10.8194 8.55141C10.822 8.5033 10.8241 8.45569 10.8256 8.40869L9.66354 8.79865Z" fill="black"/>
<path fill-rule="evenodd" clip-rule="evenodd" d="M21.7071 8.2923C21.6561 8.23174 21.6274 8.1496 21.6274 8.06395H21.6275C21.627 8.0212 21.6337 7.97877 21.6472 7.93912C21.6607 7.89947 21.6806 7.86339 21.7059 7.83297C21.7312 7.80255 21.7614 7.7784 21.7946 7.76191C21.8278 7.74543 21.8635 7.73694 21.8995 7.73694C21.9355 7.73694 21.9711 7.74543 22.0044 7.76191C22.0376 7.7784 22.0677 7.80255 22.093 7.83297C22.1183 7.86339 22.1383 7.89947 22.1518 7.93912C22.1652 7.97877 22.1719 8.0212 22.1715 8.06395C22.1715 8.1496 22.1428 8.23174 22.0918 8.2923C22.0408 8.35286 21.9716 8.38689 21.8995 8.38689C21.8273 8.38689 21.7581 8.35286 21.7071 8.2923Z" fill="white"/>
<path d="M9.78041 7.20596C9.1444 7.26019 8.62448 8.01642 8.95518 8.6147C9.39312 9.40711 10.3706 8.54461 10.9794 8.6254C11.6802 8.63974 12.2542 9.36629 12.8169 8.75673C13.4429 8.07878 12.5475 7.41848 11.8477 7.12329L9.78041 7.20596Z" fill="#F6D2A2"/>
<path fill-rule="evenodd" clip-rule="evenodd" d="M9.07187 8.5502L9.07188 8.55021C9.16368 8.7163 9.27486 8.78472 9.39621 8.80846C9.5271 8.83406 9.68427 8.81044 9.86683 8.75864C9.95673 8.73313 10.0488 8.70204 10.1434 8.6694C10.1567 8.66481 10.1701 8.66019 10.1835 8.65555C10.2644 8.62755 10.3472 8.59891 10.4284 8.57373C10.6118 8.51683 10.8083 8.47021 10.9894 8.49227C11.184 8.49746 11.3652 8.55093 11.53 8.61289C11.6065 8.64169 11.6816 8.67316 11.7529 8.70305C11.7593 8.70571 11.7656 8.70836 11.7719 8.711C11.8499 8.74364 11.9232 8.77398 11.9946 8.79941C12.1387 8.85066 12.2617 8.87669 12.375 8.86301C12.4831 8.84996 12.5966 8.79885 12.719 8.66629L12.719 8.66628C12.8562 8.51761 12.8998 8.38251 12.8948 8.26265C12.8895 8.139 12.8316 8.01043 12.726 7.88058C12.5184 7.62523 12.1567 7.4021 11.823 7.25772L9.78887 7.33906C9.52034 7.36303 9.26761 7.53674 9.11853 7.77668C8.96992 8.01587 8.93488 8.30236 9.07187 8.5502ZM9.78041 7.20596C9.1444 7.26019 8.62448 8.01642 8.95518 8.6147C9.23671 9.12409 9.7412 8.9496 10.2274 8.78145C10.4975 8.68802 10.762 8.59655 10.9794 8.6254C11.2352 8.63064 11.4741 8.73076 11.7017 8.82616C12.0977 8.99212 12.4596 9.1438 12.8169 8.75673C13.4429 8.07878 12.5475 7.41848 11.8477 7.12329L9.78041 7.20596Z" fill="black"/>
<path d="M9.7 7.17277C9.6529 6.07093 11.7538 5.93314 12.0018 6.85549C12.2493 7.77561 9.80343 7.98935 9.7 7.17277Z" fill="black"/>
</svg>
