<svg width="33" height="33" viewBox="0 0 33 33" fill="none" xmlns="http://www.w3.org/2000/svg">
<path d="M13.0233 24.2904C13.0233 24.2904 11.8983 24.9075 13.8249 25.1157C16.1594 25.3671 17.3523 25.331 19.9242 24.8728C19.9242 24.8728 20.6017 25.2721 21.5461 25.6182C15.7787 27.9473 8.49389 25.4832 13.0233 24.2904ZM12.3181 21.2506C12.3181 21.2506 11.0561 22.1313 12.9843 22.3195C15.4781 22.5622 17.447 22.582 20.8556 21.9636C20.8556 21.9636 21.326 22.414 22.0667 22.6601C15.0951 24.582 7.32998 22.8113 12.3181 21.2506Z" fill="#408FC1"/>
<path d="M18.0553 16.2842C19.4978 17.8463 17.677 19.2507 17.677 19.2507C17.677 19.2507 21.3375 17.4733 19.6568 15.2466C18.0864 13.171 16.8826 12.1401 23.4001 8.58398C23.4001 8.58421 13.1695 10.9873 18.0553 16.2842Z" fill="#EF5859"/>
<path d="M25.0263 26.5543C25.0263 26.5543 25.7934 27.1965 24.1812 27.6928C21.1157 28.6356 11.4199 28.9198 8.72709 27.7306C7.75956 27.3029 9.57464 26.7099 10.1457 26.5848C10.7411 26.4539 11.081 26.4777 11.081 26.4777C10.0044 25.7082 4.12222 27.9894 8.09366 28.6438C18.9235 30.426 27.835 27.8411 25.0263 26.5543ZM13.6769 18.1827C13.6769 18.1827 8.74557 19.3719 11.9308 19.8042C13.2759 19.987 15.9561 19.945 18.4544 19.7323C20.4956 19.5582 22.5439 19.1863 22.5439 19.1863C22.5439 19.1863 21.8248 19.4995 21.304 19.8601C16.2952 21.1976 6.6216 20.5747 9.40682 19.2073C11.7614 18.0511 13.6769 18.1827 13.6769 18.1827ZM22.5235 23.2026C27.6146 20.5175 25.2604 17.937 23.6173 18.2846C23.2156 18.3696 23.0354 18.4435 23.0354 18.4435C23.0354 18.4435 23.1849 18.2054 23.4701 18.103C26.7205 16.9433 29.2199 21.5243 22.4217 23.3387C22.4217 23.3383 22.4998 23.2666 22.5235 23.2026Z" fill="#408FC1"/>
<path d="M19.3087 2.58398C19.3087 2.58398 22.2637 5.48935 16.5052 9.95555C11.8872 13.5393 15.4522 15.5822 16.5036 17.9173C13.8077 15.5276 11.8302 13.4236 13.1566 11.4655C15.1045 8.59198 20.5007 7.19818 19.3087 2.58398Z" fill="#EF5859"/>
<path d="M13.9638 30.4957C18.9278 30.8197 26.5526 30.3154 26.7331 27.9174C26.7331 27.9174 26.3861 28.8264 22.6302 29.5477C18.3929 30.362 13.1657 30.2671 10.0664 29.7447C10.0664 29.745 10.7014 30.2816 13.9638 30.4957Z" fill="#408FC1"/>
</svg>
