<svg width="33" height="33" viewBox="0 0 33 33" fill="none" xmlns="http://www.w3.org/2000/svg">
<g clip-path="url(#clip0_1120_1674)">
<path d="M24.4245 30.0896C24.3055 30.1526 24.3155 30.1726 24.4295 30.1146C24.4646 30.1003 24.4968 30.0796 24.5245 30.0536C24.5245 30.0326 24.5245 30.0326 24.4245 30.0896ZM24.6645 29.9596C24.6075 30.0066 24.6075 30.0066 24.6755 29.9756C24.7006 29.9638 24.7236 29.948 24.7435 29.9286C24.7435 29.9016 24.7275 29.9076 24.6645 29.9596ZM24.8205 29.8656C24.7635 29.9126 24.7635 29.9126 24.8315 29.8816C24.8567 29.8696 24.8797 29.8534 24.8995 29.8336C24.8995 29.8086 24.8835 29.8136 24.8205 29.8656ZM24.9785 29.7726C24.9215 29.8196 24.9215 29.8196 24.9875 29.7876C25.0245 29.7676 25.0554 29.7466 25.0554 29.7406C25.0554 29.7156 25.0394 29.7206 24.9785 29.7726ZM25.1914 29.6316C25.0824 29.7046 25.0444 29.7516 25.1444 29.6996C25.2114 29.6586 25.3254 29.5686 25.3054 29.5686C25.2624 29.5846 25.2264 29.6116 25.1904 29.6316H25.1914ZM15.6293 0.0984138C15.5563 0.103413 15.3374 0.123411 15.1454 0.13941C10.5978 0.551371 6.3432 2.99914 3.64646 6.76979C2.15616 8.83784 1.18744 11.2353 0.822721 13.7581C0.693733 14.638 0.677734 14.898 0.677734 16.0909C0.677734 17.2828 0.693733 17.5388 0.822721 18.4187C1.69364 24.4291 5.96924 29.4747 11.7647 31.3445C12.8076 31.6775 13.9005 31.9074 15.1454 32.0484C15.6293 32.1004 17.7221 32.1004 18.2061 32.0484C20.3579 31.8084 22.1747 31.2775 23.9725 30.3606C24.2485 30.2206 24.3005 30.1836 24.2635 30.1526C23.3865 28.9933 22.5169 27.8284 21.6548 26.6579L19.098 23.2052L15.8953 18.4607C14.83 16.8721 13.7537 15.2909 12.6666 13.7171C12.6556 13.7171 12.6416 15.8259 12.6356 18.3977C12.6246 22.9023 12.6246 23.0853 12.5676 23.1892C12.513 23.3149 12.415 23.4167 12.2916 23.4762C12.1927 23.5232 12.1037 23.5332 11.6307 23.5332H11.0898L10.9488 23.4452C10.8605 23.3886 10.7887 23.3096 10.7408 23.2162L10.6728 23.0753L10.6778 16.8048L10.6888 10.5344L10.7878 10.4094C10.851 10.3326 10.9288 10.269 11.0168 10.2225C11.1478 10.1595 11.1997 10.1495 11.7407 10.1495C12.3756 10.1495 12.4806 10.1745 12.6476 10.3575C13.945 12.2871 15.2313 14.2243 16.5062 16.1689C18.5851 19.3206 21.4228 23.6212 22.8177 25.731L25.3544 29.5697L25.4794 29.4867C26.6985 28.6765 27.8033 27.7063 28.7641 26.6019C30.7795 24.2952 32.0872 21.4565 32.5307 18.4257C32.6597 17.5458 32.6757 17.2848 32.6757 16.0929C32.6757 14.9 32.6597 14.645 32.5307 13.7651C31.6598 7.7547 27.3842 2.70917 21.5888 0.838344C20.5057 0.495298 19.3908 0.261816 18.2611 0.14141C17.9581 0.110413 15.8903 0.0734161 15.6303 0.100414L15.6293 0.0984138ZM22.1757 9.77451C22.2501 9.81104 22.3165 9.86205 22.3709 9.92454C22.4253 9.98704 22.4667 10.0598 22.4927 10.1385C22.5197 10.2225 22.5247 11.9613 22.5197 15.8779L22.5087 21.5014L21.5198 19.9815L20.5249 18.4607V14.3781C20.5249 11.7313 20.5359 10.2475 20.5499 10.1745C20.5988 10.0071 20.7111 9.86541 20.8628 9.7795C20.9868 9.71651 21.0348 9.71151 21.5298 9.71151C21.9927 9.71151 22.0707 9.71651 22.1747 9.77451H22.1757Z" fill="black"/>
</g>
<defs>
<clipPath id="clip0_1120_1674">
<rect width="32" height="32" fill="white" transform="translate(0.666504 0.0874023)"/>
</clipPath>
</defs>
</svg>
