<svg width="32" height="33" viewBox="0 0 32 33" fill="none" xmlns="http://www.w3.org/2000/svg">
<path d="M16.6313 3.26316C16.4352 3.15079 16.2131 3.09167 15.987 3.09167C15.761 3.09167 15.5389 3.15079 15.3428 3.26316L4.70572 9.44107C4.30112 9.66995 4.07373 10.1019 4.07373 10.5599V22.9409C4.07373 23.3984 4.32631 23.8306 4.70529 24.0597L15.3424 30.2374C15.5385 30.3498 15.7607 30.4089 15.9867 30.4089C16.2128 30.4089 16.4349 30.3498 16.6311 30.2374L27.2682 24.0594C27.6726 23.8306 27.8997 23.3984 27.8997 22.9407V10.5599C27.8997 10.1021 27.6471 9.67016 27.2682 9.44107L16.6313 3.26316Z" fill="url(#paint0_linear_1263_314)"/>
<path d="M27.294 9.44118L16.6065 3.26327C16.5017 3.20971 16.3916 3.16714 16.278 3.13623L4.30176 23.7545C4.40097 23.8761 4.5207 23.9794 4.65554 24.0598L15.3432 30.2375C15.6464 30.4153 16 30.4664 16.3286 30.3645L27.572 9.67006C27.4982 9.57338 27.403 9.49505 27.294 9.44118Z" fill="url(#paint1_linear_1263_314)"/>
<path d="M27.2941 24.0591C27.5973 23.8812 27.8247 23.5761 27.9257 23.2456L16.2275 3.11015C15.9243 3.05934 15.5957 3.08474 15.3179 3.26281L4.70605 9.41531L16.1515 30.4151C16.3031 30.3895 16.4803 30.3386 16.6319 30.2624L27.2941 24.0591Z" fill="url(#paint2_linear_1263_314)"/>
<defs>
<linearGradient id="paint0_linear_1263_314" x1="20.3188" y1="7.86377" x2="10.6044" y2="27.558" gradientUnits="userSpaceOnUse">
<stop stop-color="#3F873F"/>
<stop offset="0.33" stop-color="#3F8B3D"/>
<stop offset="0.637" stop-color="#3E9638"/>
<stop offset="0.934" stop-color="#3DA92E"/>
<stop offset="1" stop-color="#3DAE2B"/>
</linearGradient>
<linearGradient id="paint1_linear_1263_314" x1="14.371" y1="18.1963" x2="41.4752" y2="-1.70656" gradientUnits="userSpaceOnUse">
<stop offset="0.138" stop-color="#3F873F"/>
<stop offset="0.402" stop-color="#52A044"/>
<stop offset="0.713" stop-color="#64B749"/>
<stop offset="0.908" stop-color="#6ABF4B"/>
</linearGradient>
<linearGradient id="paint2_linear_1263_314" x1="3.68456" y1="16.7463" x2="28.298" y2="16.7463" gradientUnits="userSpaceOnUse">
<stop offset="0.092" stop-color="#6ABF4B"/>
<stop offset="0.287" stop-color="#64B749"/>
<stop offset="0.598" stop-color="#52A044"/>
<stop offset="0.862" stop-color="#3F873F"/>
</linearGradient>
</defs>
</svg>
