<svg width="33" height="33" viewBox="0 0 33 33" fill="none" xmlns="http://www.w3.org/2000/svg">
<path d="M30.1176 16.4174L28.9726 15.7085C28.9629 15.5973 28.9521 15.4861 28.94 15.375L29.924 14.4572C29.9732 14.4114 30.0099 14.3539 30.0305 14.2899C30.0511 14.226 30.055 14.1579 30.0418 14.092C30.0288 14.0262 29.9992 13.9647 29.9557 13.9135C29.9123 13.8624 29.8564 13.8232 29.7935 13.7997L28.5356 13.3293C28.504 13.2207 28.4711 13.1124 28.437 13.0046L29.2217 11.9147C29.261 11.8602 29.2857 11.7966 29.2935 11.7299C29.3013 11.6632 29.2919 11.5956 29.2662 11.5335C29.2405 11.4714 29.1994 11.4169 29.1467 11.3753C29.094 11.3336 29.0316 11.306 28.9653 11.2953L27.6388 11.0795C27.5872 10.9789 27.5335 10.8799 27.4794 10.7816L28.0367 9.55819C28.0648 9.49715 28.0768 9.42991 28.0714 9.36293C28.066 9.29595 28.0435 9.23148 28.0061 9.1757C27.9689 9.11974 27.918 9.07426 27.8582 9.04363C27.7984 9.013 27.7318 8.99823 27.6647 9.00075L26.3184 9.04763C26.2489 8.96054 26.178 8.87455 26.1057 8.78969L26.4151 7.47835C26.4306 7.41295 26.429 7.34469 26.4106 7.28006C26.3922 7.21543 26.3576 7.15657 26.3101 7.10907C26.2626 7.06157 26.2038 7.02699 26.1392 7.00861C26.0746 6.99022 26.0064 6.98864 25.941 7.00402L24.63 7.3131C24.5449 7.24094 24.4587 7.17005 24.3715 7.10044L24.4186 5.75426C24.4212 5.68714 24.4065 5.62049 24.3759 5.5607C24.3453 5.5009 24.2998 5.44997 24.2439 5.41279C24.1881 5.37539 24.1236 5.35291 24.0567 5.3475C23.9897 5.34209 23.9225 5.35393 23.8614 5.38189L22.6383 5.93954C22.5396 5.88509 22.4403 5.83181 22.3404 5.77972L22.1241 4.45304C22.1133 4.3868 22.0857 4.32441 22.044 4.2718C22.0023 4.21919 21.9479 4.17809 21.8859 4.15241C21.8239 4.12673 21.7563 4.1173 21.6896 4.12504C21.623 4.13277 21.5594 4.1574 21.5049 4.19659L20.4143 4.98129C20.307 4.94712 20.199 4.91438 20.0902 4.88305L19.6198 3.62488C19.5964 3.56185 19.5572 3.50587 19.506 3.4623C19.4548 3.41872 19.3933 3.38901 19.3273 3.37599C19.2615 3.36307 19.1935 3.36711 19.1297 3.38773C19.0659 3.40834 19.0083 3.44485 18.9625 3.49383L18.0446 4.47861C17.9336 4.46617 17.8225 4.4553 17.7112 4.44601L17.0023 3.30067C16.967 3.24359 16.9177 3.19649 16.8591 3.16383C16.8004 3.13116 16.7344 3.11401 16.6673 3.11401C16.6002 3.11401 16.5342 3.13116 16.4755 3.16383C16.4169 3.19649 16.3676 3.24359 16.3323 3.30067L15.6234 4.44601C15.512 4.45529 15.4007 4.46615 15.2896 4.47861L14.3716 3.49383C14.3258 3.44465 14.2682 3.40799 14.2043 3.38735C14.1404 3.36671 14.0722 3.36277 14.0063 3.3759C13.9405 3.38904 13.879 3.41881 13.8279 3.46239C13.7768 3.50597 13.7377 3.56191 13.7143 3.62488L13.244 4.88305C13.135 4.91427 13.0272 4.94741 12.9196 4.98129L11.8292 4.19659C11.7747 4.15725 11.7111 4.13252 11.6443 4.12478C11.5776 4.11704 11.5099 4.12654 11.4479 4.15238C11.3859 4.17808 11.3315 4.21918 11.2898 4.2718C11.2481 4.32441 11.2206 4.3868 11.2098 4.45304L10.9935 5.77972C10.8933 5.83161 10.7943 5.88499 10.6956 5.93954L9.47236 5.38178C9.41129 5.35388 9.3441 5.34208 9.27718 5.34751C9.21026 5.35294 9.14585 5.37541 9.09008 5.41279C9.0341 5.44995 8.98862 5.50087 8.95798 5.56066C8.92735 5.62046 8.91259 5.68712 8.91513 5.75426L8.96201 7.10044C8.87491 7.17018 8.78875 7.24107 8.70354 7.3131L7.39252 7.00412C7.32712 6.9888 7.25889 6.99039 7.19428 7.00876C7.12967 7.02712 7.0708 7.06164 7.02324 7.10907C6.9757 7.15657 6.9411 7.21543 6.92272 7.28006C6.90433 7.34469 6.90277 7.41295 6.91818 7.47835L7.22705 8.78969C7.15532 8.87464 7.08461 8.96062 7.01493 9.04763L5.66864 9.00075C5.60159 8.99863 5.53511 9.01355 5.4754 9.04413C5.4157 9.07471 5.36473 9.11994 5.32727 9.17559C5.28995 9.23143 5.26752 9.29587 5.26209 9.36281C5.25666 9.42975 5.26843 9.49697 5.29627 9.55808L5.85392 10.7816C5.79969 10.8799 5.7461 10.9789 5.6941 11.0795L4.36774 11.2953C4.30146 11.3061 4.23904 11.3336 4.1864 11.3753C4.13376 11.417 4.09264 11.4715 4.06695 11.5336C4.04127 11.5956 4.03185 11.6632 4.03961 11.7299C4.04737 11.7966 4.07205 11.8602 4.11129 11.9147L4.89599 13.0047C4.86175 13.1122 4.8289 13.2204 4.79743 13.3293L3.53937 13.7997C3.47654 13.8233 3.42077 13.8625 3.37734 13.9137C3.33392 13.9649 3.30427 14.0263 3.2912 14.0921C3.27813 14.158 3.28208 14.226 3.30267 14.2899C3.32325 14.3538 3.3598 14.4114 3.40885 14.4572L4.39299 15.3749C4.38074 15.4857 4.36987 15.5973 4.3605 15.7085L3.21526 16.4174C3.15823 16.4527 3.11117 16.5021 3.07855 16.5607C3.04592 16.6193 3.0288 16.6853 3.02881 16.7524C3.02881 16.8892 3.09945 17.0159 3.21537 17.0873L4.3605 17.7961C4.36987 17.9078 4.38071 18.019 4.39299 18.1297L3.40874 19.0478C3.35961 19.0936 3.32298 19.1511 3.30235 19.215C3.28171 19.2789 3.27775 19.347 3.29083 19.4129C3.30392 19.4787 3.33362 19.5401 3.37712 19.5913C3.42062 19.6424 3.47647 19.6816 3.53937 19.7051L4.79743 20.1755C4.82876 20.2844 4.86189 20.3925 4.89599 20.5001L4.11129 21.5902C4.07197 21.6446 4.04725 21.7083 4.03947 21.775C4.03169 21.8418 4.04112 21.9094 4.06685 21.9714C4.09259 22.0335 4.13378 22.088 4.1865 22.1296C4.23922 22.1713 4.30173 22.1987 4.36806 22.2094L5.69421 22.4251C5.7461 22.5257 5.79926 22.6248 5.85403 22.7235L5.29627 23.9466C5.26833 24.0077 5.25651 24.0749 5.26194 24.1419C5.26736 24.2088 5.28986 24.2733 5.32727 24.3291C5.36444 24.385 5.41535 24.4305 5.47512 24.4611C5.53489 24.4917 5.60153 24.5065 5.66864 24.5039L7.01429 24.4568C7.0845 24.5443 7.15514 24.6301 7.22705 24.7153L6.91818 26.0269C6.9027 26.0921 6.90423 26.1603 6.92262 26.2248C6.94101 26.2894 6.97566 26.3481 7.02324 26.3954C7.07065 26.443 7.12952 26.4777 7.19418 26.496C7.25885 26.5144 7.32715 26.5158 7.39252 26.5001L8.70354 26.1914C8.78877 26.2638 8.87507 26.3341 8.96212 26.4034L8.91524 27.75C8.91282 27.8171 8.92761 27.8837 8.95819 27.9435C8.98878 28.0032 9.03415 28.0542 9.08998 28.0915C9.14582 28.1288 9.21026 28.1511 9.27719 28.1565C9.34412 28.1618 9.4113 28.15 9.47236 28.122L10.6956 27.5647C10.7941 27.6194 10.8934 27.6727 10.9935 27.7244L11.2098 29.0504C11.2204 29.1167 11.2479 29.1792 11.2896 29.2319C11.3313 29.2846 11.3858 29.3257 11.4479 29.3513C11.5099 29.3771 11.5775 29.3866 11.6443 29.3789C11.711 29.3712 11.7747 29.3466 11.8292 29.3073L12.919 28.5221C13.0267 28.5562 13.1348 28.5895 13.2437 28.6209L13.7141 29.8785C13.7375 29.9414 13.7767 29.9973 13.8279 30.0408C13.8791 30.0842 13.9405 30.1139 14.0064 30.1269C14.0723 30.1401 14.1404 30.1362 14.2043 30.1156C14.2682 30.095 14.3257 30.0583 14.3713 30.009L15.2894 29.0248C15.4002 29.0376 15.5117 29.0482 15.6232 29.0581L16.3321 30.2033C16.3674 30.2603 16.4167 30.3073 16.4753 30.3399C16.5339 30.3725 16.5999 30.3897 16.6669 30.3897C16.734 30.3897 16.8 30.3726 16.8587 30.34C16.9173 30.3073 16.9666 30.2603 17.002 30.2033L17.7108 29.0581C17.8224 29.0482 17.9337 29.0376 18.0444 29.0248L18.9623 30.009C19.0079 30.0583 19.0654 30.0949 19.1293 30.1156C19.1932 30.1362 19.2613 30.1401 19.3271 30.1269C19.393 30.1139 19.4545 30.0842 19.5056 30.0408C19.5568 29.9973 19.596 29.9414 19.6195 29.8785L20.0899 28.6209C20.1987 28.5895 20.307 28.5562 20.4146 28.5221L21.5047 29.3073C21.5592 29.3465 21.6228 29.3712 21.6895 29.3789C21.7563 29.3866 21.8238 29.3771 21.8859 29.3514C21.9479 29.3256 22.0023 29.2844 22.044 29.2318C22.0856 29.1791 22.1131 29.1166 22.1239 29.0504L22.3402 27.7244C22.4402 27.6725 22.5392 27.6186 22.638 27.5646L23.8612 28.122C23.9222 28.1501 23.9894 28.162 24.0564 28.1567C24.1234 28.1514 24.1879 28.129 24.2437 28.0917C24.2996 28.0544 24.345 28.0034 24.3756 27.9436C24.4061 27.8838 24.4209 27.8171 24.4184 27.75L24.3715 26.4035C24.4587 26.3341 24.5448 26.2634 24.6297 26.1914L25.9408 26.5001C26.074 26.5314 26.2136 26.4927 26.3098 26.3954C26.3573 26.3481 26.392 26.2894 26.4104 26.2248C26.4288 26.1603 26.4303 26.0921 26.4148 26.0269L26.1061 24.7153C26.178 24.6301 26.2488 24.5443 26.3181 24.4568L27.6644 24.5039C27.7315 24.5065 27.7981 24.4917 27.8579 24.4611C27.9176 24.4305 27.9686 24.3851 28.0057 24.3292C28.0432 24.2733 28.0656 24.2089 28.071 24.1418C28.0764 24.0748 28.0645 24.0076 28.0365 23.9465L27.4791 22.7236C27.5335 22.6248 27.587 22.5257 27.6386 22.4253L28.965 22.2094C29.0314 22.1988 29.0939 22.1713 29.1465 22.1296C29.1992 22.0878 29.2402 22.0333 29.2657 21.9712C29.2914 21.9091 29.3008 21.8416 29.2931 21.7749C29.2853 21.7082 29.2607 21.6447 29.2215 21.5902L28.4368 20.5002C28.4708 20.3925 28.5037 20.2843 28.5354 20.1755L29.7932 19.7051C29.8562 19.6817 29.9121 19.6425 29.9556 19.5913C29.9991 19.5401 30.0287 19.4786 30.0416 19.4126C30.0548 19.3468 30.0509 19.2787 30.0303 19.2148C30.0096 19.151 29.973 19.0935 29.9237 19.0478L28.9398 18.1297C28.9517 18.0189 28.9627 17.9075 28.9723 17.7963L30.1174 17.0873C30.1745 17.0521 30.2216 17.0028 30.2543 16.9442C30.2869 16.8855 30.304 16.8195 30.304 16.7524C30.304 16.616 30.2337 16.4891 30.1176 16.4174ZM22.4537 25.9164C22.0165 25.8221 21.7384 25.3911 21.8323 24.9525C21.9258 24.5144 22.3565 24.2355 22.7936 24.3298C23.2309 24.4235 23.5094 24.8552 23.4156 25.293C23.3219 25.7309 22.8908 26.01 22.4537 25.9164ZM22.0646 23.2848C21.9698 23.2645 21.8718 23.2631 21.7764 23.2806C21.6809 23.2982 21.5899 23.3344 21.5085 23.3871C21.427 23.4399 21.3568 23.5082 21.3018 23.5881C21.2467 23.668 21.208 23.758 21.1878 23.8529L20.7812 25.7502C19.5267 26.3195 18.1336 26.6359 16.6664 26.6359C15.1656 26.6359 13.7422 26.3039 12.4654 25.7102L12.059 23.8131C11.9736 23.4139 11.5811 23.1596 11.1824 23.2452L9.50751 23.6049C9.19618 23.2846 8.90685 22.9436 8.64153 22.5842H16.7911C16.8832 22.5842 16.9447 22.5675 16.9447 22.4835V19.6008C16.9447 19.5169 16.8832 19.5002 16.7909 19.5002H14.4077V17.673H16.9855C17.2207 17.673 18.2437 17.7401 18.5707 19.0476C18.6731 19.4497 18.898 20.7576 19.0518 21.1763C19.205 21.646 19.8288 22.5841 20.4937 22.5841H24.5546C24.6007 22.5841 24.6499 22.5789 24.7018 22.5695C24.42 22.9522 24.1114 23.3142 23.7782 23.6531L22.0646 23.2848ZM10.7934 25.8767C10.356 25.9711 9.92549 25.6923 9.83141 25.2542C9.73786 24.8153 10.0159 24.3846 10.4532 24.2903C10.6634 24.2454 10.8828 24.2858 11.0632 24.4027C11.2436 24.5196 11.3702 24.7034 11.4151 24.9136C11.5086 25.3515 11.2304 25.783 10.7934 25.8767ZM7.70181 13.3408C7.88326 13.7501 7.69862 14.2299 7.28981 14.411C6.881 14.5927 6.40251 14.4078 6.22118 13.9982C6.13401 13.8016 6.12844 13.5785 6.20569 13.3778C6.28294 13.1771 6.4367 13.0153 6.63318 12.928C6.73044 12.8848 6.83525 12.8613 6.9416 12.8587C7.04796 12.8562 7.15378 12.8746 7.25303 12.9129C7.35227 12.9512 7.44299 13.0087 7.51999 13.0821C7.597 13.1555 7.65878 13.2435 7.70181 13.3408ZM6.75166 15.593L8.49642 14.8177C8.67557 14.7381 8.81576 14.5906 8.88617 14.4076C8.95657 14.2246 8.95143 14.0212 8.87188 13.842L8.51261 13.0295H9.92581V19.3995H7.07459C6.82185 18.5098 6.69398 17.5893 6.69466 16.6643C6.69466 16.3023 6.71415 15.9446 6.75166 15.593ZM14.4081 14.9742V13.0968H17.7734C17.9473 13.0968 19.0008 13.2978 19.0008 14.0855C19.0008 14.7396 18.1927 14.9741 17.5282 14.9741L14.4081 14.9742ZM26.6385 16.6642C26.6385 16.9133 26.6293 17.16 26.6111 17.4045H25.5879C25.4855 17.4045 25.4443 17.4718 25.4443 17.5721V18.0419C25.4443 19.1479 24.8207 19.3884 24.2743 19.4497C23.7539 19.5083 23.1769 19.2318 23.1058 18.9134C22.7987 17.1867 22.2872 16.818 21.4794 16.1807C22.482 15.5441 23.525 14.6049 23.525 13.3477C23.525 11.9904 22.5945 11.1354 21.9601 10.7161C21.0703 10.1295 20.085 10.0119 19.8191 10.0119H9.23807C10.6729 8.4105 12.6175 7.27613 14.8169 6.86338L16.0641 8.17174C16.131 8.24197 16.2111 8.29831 16.2998 8.33754C16.3886 8.37676 16.4841 8.39811 16.5811 8.40034C16.6781 8.40258 16.7746 8.38567 16.865 8.35057C16.9554 8.31547 17.038 8.26289 17.1081 8.19582L18.5036 6.86104C21.4277 7.40547 23.9035 9.22567 25.3302 11.7229L24.3748 13.8808C24.2099 14.2542 24.3782 14.6909 24.7506 14.8564L26.59 15.6734C26.6217 15.9999 26.6385 16.3298 26.6385 16.6642ZM16.0646 5.75053C16.3878 5.44102 16.9004 5.45327 17.2098 5.77685C17.5185 6.10138 17.5068 6.61449 17.1829 6.92379C16.8598 7.23341 16.3472 7.22137 16.0378 6.89715C15.8895 6.74144 15.8091 6.53325 15.8141 6.31829C15.8191 6.10333 15.9092 5.89914 16.0646 5.75053ZM25.5452 13.3801C25.5882 13.2828 25.65 13.1949 25.7269 13.1215C25.8039 13.0481 25.8946 12.9906 25.9939 12.9523C26.0931 12.914 26.1989 12.8956 26.3053 12.8982C26.4116 12.9008 26.5164 12.9244 26.6136 12.9676C27.0225 13.1489 27.2071 13.6285 27.0256 14.0378C26.9827 14.1352 26.9209 14.2231 26.8439 14.2965C26.7669 14.37 26.6762 14.4276 26.577 14.4659C26.4777 14.5043 26.3718 14.5226 26.2655 14.52C26.1591 14.5174 26.0543 14.4938 25.957 14.4507C25.5486 14.2692 25.3641 13.7901 25.5452 13.3801Z" fill="black"/>
</svg>
