<svg width="30" height="31" viewBox="0 0 30 31" fill="none" xmlns="http://www.w3.org/2000/svg">
<g clip-path="url(#clip0_1120_1667)">
<path d="M27.0623 2.49817C26.645 3.51255 26.1054 4.41184 25.5083 5.21759C22.8752 2.53414 19.1917 0.829102 15.127 0.829102C7.14139 0.829102 0.616211 7.31831 0.616211 15.3327C0.616211 19.5197 2.40758 23.2895 5.2493 25.9514L5.78887 26.4334C8.29966 28.5557 11.5658 29.8435 15.1198 29.8435C22.7457 29.8435 29.0263 23.8939 29.5659 16.3831C29.9975 12.7356 28.8896 8.06651 27.0623 2.49817ZM7.35002 26.0737C6.93276 26.6133 6.15578 26.6708 5.61621 26.2536C5.07664 25.8363 5.01909 25.0593 5.43635 24.5198C5.85362 23.9802 6.6306 23.9226 7.17017 24.3399C7.68096 24.7572 7.76729 25.5341 7.35002 26.0737ZM26.9759 21.7356C23.4148 26.491 15.7601 24.8795 10.8824 25.1169C10.8824 25.1169 10.0119 25.1744 9.14858 25.2967C9.14858 25.2967 9.47952 25.1457 9.89679 24.9946C13.3356 23.8003 14.9543 23.5557 17.0479 22.4838C20.9687 20.4766 24.8824 16.0809 25.6666 11.5341C24.1702 15.901 19.6234 19.6708 15.4939 21.196C12.6522 22.2464 7.53707 23.2608 7.53707 23.2608L7.32844 23.1385C3.86081 21.4334 3.73851 13.8938 10.0838 11.4694C12.868 10.3903 15.5011 10.9874 18.5227 10.2751C21.7241 9.52694 25.4364 7.13126 26.9256 3.99457C28.5874 9.05212 30.6234 16.8867 26.9759 21.7356Z" fill="#6CB52D"/>
<path d="M7.35019 26.0738C6.93292 26.6133 6.15594 26.6709 5.61637 26.2536C5.07681 25.8364 5.01925 25.0594 5.43652 24.5198C5.85378 23.9802 6.63076 23.9227 7.17033 24.34C7.68112 24.7572 7.76745 25.5342 7.35019 26.0738Z" fill="#6CB52D"/>
<path d="M26.9758 21.7356C23.4147 26.491 15.76 24.8795 10.8823 25.1169C10.8823 25.1169 10.0118 25.1745 9.1485 25.2968C9.1485 25.2968 9.47943 25.1457 9.8967 24.9946C13.3355 23.8004 14.9543 23.5558 17.0478 22.4838C20.9686 20.4766 24.8823 16.081 25.6665 11.5342C24.1701 15.9011 19.6233 19.6709 15.4938 21.1961C12.6521 22.2464 7.53699 23.2608 7.53699 23.2608L7.32835 23.1385C3.86073 21.4335 3.73843 13.8939 10.0837 11.4694C12.8679 10.3903 15.501 10.9874 18.5226 10.2752C21.724 9.527 25.4363 7.13132 26.9255 3.99463C28.5873 9.05218 30.6233 16.8867 26.9758 21.7356Z" fill="white"/>
</g>
<defs>
<clipPath id="clip0_1120_1667">
<rect width="28.9928" height="30" fill="white" transform="translate(0.666504 0.411865)"/>
</clipPath>
</defs>
</svg>
