<svg
  xmlns="http://www.w3.org/2000/svg"
  width="49"
  height="49"
  viewBox="0 0 49 49"
  fill="none">
  <path
    d="M40.923 34.6254L33.7962 30.5635L26.1049 34.956V43.0862L40.923 34.6254ZM23.5835 43.0862V34.9512L15.889 30.5619L8.76531 34.6254L23.5835 43.0862ZM24.8361 32.7963L32.5371 28.4023V19.6237L24.8426 15.2376L17.1513 19.6237V28.407L24.8394 32.7947L24.8361 32.7963ZM7.50942 15.565V32.4753L14.6363 28.4086V19.6285L7.50781 15.5618L7.50942 15.565ZM39.0513 17.3464L35.0569 19.6285V28.4039L42.1805 32.4705V15.5586L39.0513 17.3464ZM8.76531 13.4069L15.897 17.4736L23.5851 13.0843V4.95093L8.76531 13.4069ZM33.7962 17.4736L40.9263 13.4069L26.1017 4.94617V13.0843L33.7962 17.4736Z"
    fill="#1E3249"
  />
</svg>