<svg
xmlns="http://www.w3.org/2000/svg"
width="43"
height="44"
viewBox="0 0 43 44"
fill="none">
<path
  d="M34.9045 32.1707C34.9045 35.9169 28.8326 38.9511 21.3436 38.9511C13.8546 38.9511 7.78271 35.9169 7.78271 32.1707V25.3462C8.63366 26.3921 9.84227 27.26 11.1865 27.9312C13.8512 29.2636 17.4448 30.0518 21.3436 30.0518C25.2424 30.0518 28.836 29.2636 31.5007 27.9329C32.8449 27.26 34.0535 26.3904 34.9045 25.3462V32.1707Z"
  fill="#1E3249"
/>
<path
  d="M21.3436 19.8811C25.2424 19.8811 28.836 19.0929 31.5007 17.7623C32.8449 17.0893 34.0535 16.2197 34.9045 15.1755V22C34.9045 22.8476 31.877 24.697 30.3633 25.6581C28.1207 26.7785 24.9338 27.5091 21.3436 27.5091C17.7534 27.5091 14.5665 26.7802 12.3239 25.6581C10.3254 24.658 7.78271 22.8476 7.78271 22V15.1755C8.63366 16.2214 9.84227 17.0893 11.1865 17.7606C13.8512 19.0929 17.4448 19.8811 21.3436 19.8811Z"
  fill="#1E3249"
/>
<path
  d="M30.3633 15.4874C28.1207 16.6079 24.9338 17.3385 21.3436 17.3385C17.7534 17.3385 14.5665 16.6096 12.3239 15.4874C11.4509 15.145 9.488 14.0584 8.12343 12.3023C8.00866 12.1547 7.92525 11.9852 7.87832 11.8041C7.83139 11.6231 7.82193 11.4344 7.85052 11.2496C7.88951 10.9988 7.94375 10.7394 8.01325 10.5784C9.18627 7.43225 14.7089 5.04892 21.3436 5.04892C27.9783 5.04892 33.5009 7.43225 34.674 10.5784C34.7435 10.7394 34.7977 10.9988 34.8367 11.2496C34.865 11.4345 34.8553 11.6233 34.8081 11.8043C34.7609 11.9853 34.6772 12.1548 34.5621 12.3023C33.1992 14.0584 31.2363 15.145 30.3633 15.4874Z"
  fill="#1E3249"
/>
</svg>