<svg width="29" height="29" viewBox="0 0 29 29" fill="none" xmlns="http://www.w3.org/2000/svg">
<path fill-rule="evenodd" clip-rule="evenodd" d="M16.6557 23.7679C16.0418 23.8805 15.409 23.9394 14.7625 23.9394C9.00462 23.9394 4.33691 19.2717 4.33691 13.5138C4.33691 7.75584 9.00462 3.08813 14.7625 3.08813C20.5204 3.08813 25.1882 7.75584 25.1882 13.5138C25.1882 17.0107 23.4665 20.1055 20.8246 21.9968L17.4597 26.3108C17.3533 26.4473 17.1355 26.3938 17.1044 26.2235L16.6557 23.7679ZM11.6562 9.93556C11.2284 9.93556 10.8277 10.1451 10.5836 10.4964L8.50789 13.4837L8.49246 13.4918L8.49739 13.4988L8.49246 13.5059L8.5079 13.514L10.5839 16.5014C10.8281 16.8527 11.2287 17.0621 11.6565 17.0621L13.2916 17.0621L11.44 13.4988L13.2916 9.93556H11.6562ZM16.9901 17.0919C16.3067 17.0919 15.7526 16.5379 15.7526 15.8544C15.7526 15.171 16.3067 14.617 16.9901 14.617H19.7951C20.4786 14.617 21.0326 15.171 21.0326 15.8544C21.0326 16.5379 20.4786 17.0919 19.7951 17.0919H16.9901Z" fill="#00C1B4"/>
</svg>
