<svg width="21" height="21" viewBox="0 0 21 21" fill="none" xmlns="http://www.w3.org/2000/svg">
<g clip-path="url(#clip0_1071_4035)">
<path fill-rule="evenodd" clip-rule="evenodd" d="M12.7961 14.8684C12.5737 14.9226 12.3498 14.9708 12.1247 15.0127C10.9031 15.2426 9.64884 15.2379 8.42899 14.9988C8.21535 14.9572 7.91292 14.8837 7.5231 14.7796L6.24542 16.4402C3.09216 16.3389 1.89355 14.2261 1.89355 14.2261C1.89355 9.53574 3.9481 5.73323 3.9481 5.73323C6.00265 4.16146 7.95731 4.20446 7.95731 4.20446L8.51639 4.93278C8.56791 4.92556 8.61977 4.92093 8.67176 4.91891C9.73747 4.77764 10.8175 4.78231 11.8819 4.93278L12.4951 4.20446C12.4951 4.20446 14.4511 4.16146 16.5043 5.73462C16.5043 5.73462 18.5602 9.53574 18.5602 14.2261C18.5602 14.2261 17.3464 16.3375 14.1931 16.4402L12.7961 14.8684ZM7.47122 9.90186C6.63747 9.90186 5.97852 10.5261 5.97852 11.2891C5.97852 12.0521 6.65134 12.6764 7.47122 12.6764C8.30358 12.6764 8.96253 12.0521 8.96253 11.2891C8.97641 10.5261 8.30497 9.90186 7.47122 9.90186ZM12.8094 9.90186C11.9771 9.90186 11.3181 10.5261 11.3181 11.2891C11.3181 12.0521 11.9909 12.6764 12.8094 12.6764C13.6432 12.6764 14.3021 12.0521 14.3021 11.2891C14.3021 10.5261 13.6432 9.90186 12.8094 9.90186Z" fill="#6688FF"/>
</g>
<defs>
<clipPath id="clip0_1071_4035">
<rect width="20" height="20" fill="white" transform="translate(0.226562 0.0375977)"/>
</clipPath>
</defs>
</svg>
