<svg width="29" height="29" viewBox="0 0 29 29" fill="none" xmlns="http://www.w3.org/2000/svg">
<path fill-rule="evenodd" clip-rule="evenodd" d="M18.3593 21.5012C18.0479 21.5772 17.7344 21.6445 17.4193 21.7032C15.709 22.0251 13.9531 22.0185 12.2453 21.6838C11.9462 21.6255 11.5228 21.5226 10.9771 21.3769L9.18832 23.7017C4.77375 23.5599 3.0957 20.602 3.0957 20.602C3.0957 14.0355 5.97207 8.71198 5.97207 8.71198C8.84844 6.51149 11.585 6.5717 11.585 6.5717L12.3677 7.59134C12.4398 7.58123 12.5124 7.57474 12.5852 7.57192C14.0772 7.37415 15.5892 7.38068 17.0794 7.59134L17.9378 6.5717C17.9378 6.5717 20.6763 6.51149 23.5507 8.71392C23.5507 8.71392 26.429 14.0355 26.429 20.602C26.429 20.602 24.7296 23.558 20.3151 23.7017L18.3593 21.5012ZM10.9052 14.548C9.73797 14.548 8.81543 15.422 8.81543 16.4902C8.81543 17.5584 9.75739 18.4323 10.9052 18.4323C12.0705 18.4323 12.9931 17.5584 12.9931 16.4902C13.0125 15.422 12.0725 14.548 10.9052 14.548ZM18.3787 14.548C17.2134 14.548 16.2909 15.422 16.2909 16.4902C16.2909 17.5584 17.2328 18.4323 18.3787 18.4323C19.546 18.4323 20.4685 17.5584 20.4685 16.4902C20.4685 15.422 19.546 14.548 18.3787 14.548Z" fill="#6688FF"/>
</svg>
