<svg width="36" height="36" viewBox="0 0 36 36" fill="none" xmlns="http://www.w3.org/2000/svg">
<path d="M13.4064 15.1183L13.5642 15.1099C15.773 15.2313 17.996 15.2964 20.1937 15.3671C21.2897 15.3898 22.4111 15.4069 23.5071 15.4296L25.1638 15.4608C25.2962 15.458 25.4286 15.4552 25.6174 15.4665C25.6991 15.475 25.8062 15.4778 25.9245 15.5313C26.0428 15.5848 26.1921 15.658 26.2765 15.7988C26.3863 15.9339 26.4256 16.1112 26.403 16.2491C26.4057 16.3814 26.3719 16.4687 26.3634 16.5503C26.321 16.7192 26.2279 16.8993 26.1489 17.0232C25.9713 17.3018 25.757 17.5354 25.5878 17.7324C25.5032 17.8309 25.4186 17.9294 25.3594 18.0223C25.3002 18.1151 25.241 18.208 25.2071 18.2953C25.145 18.4951 25.1223 18.633 25.2012 18.7484C25.2546 18.8695 25.4151 18.9934 25.663 19.151C26.5727 19.7732 27.4824 20.3954 28.4174 21.012C28.685 21.1387 28.9018 21.2767 29.1609 21.485C29.2905 21.5892 29.4256 21.7187 29.5213 21.9101C29.617 22.1015 29.6676 22.3295 29.6308 22.5237C29.5941 22.7179 29.5517 22.8868 29.4727 23.0107L29.2922 23.3963L28.9564 24.1618C28.488 25.1694 27.9126 26.1742 27.1767 27.0551C27.1372 27.117 27.0668 27.1592 26.9907 27.1761C26.892 27.3309 26.6693 27.4069 26.4891 27.3139L24.0978 26.0103L22.912 25.343L22.3093 25.0249C22.098 24.9122 21.9121 24.794 21.7375 24.7264C21.5572 24.6335 21.3938 24.6166 21.2924 24.6391C21.2416 24.6503 21.1656 24.6672 21.1205 24.7038C21.0753 24.7404 21.0302 24.777 21.0161 24.8333C20.9372 24.9571 20.8807 25.1823 20.8185 25.3821C20.7621 25.6073 20.6802 25.8381 20.5674 26.0492C20.4602 26.2856 20.3473 26.4967 20.133 26.7303C20.0231 26.8344 19.868 26.9751 19.6398 27.0257C19.4115 27.0764 19.1805 26.9947 19.051 26.8905C18.989 26.8511 18.8905 26.7666 18.8229 26.7019C18.7553 26.6371 18.7385 26.5611 18.6962 26.4908L18.5217 26.1839L18.2037 25.59L15.6935 20.751L14.4158 18.3498C13.9965 17.5391 13.6026 16.7228 13.017 16.0021C12.9438 15.912 12.9213 15.8107 12.8988 15.7093C12.9075 15.3885 13.1162 15.1295 13.4064 15.1183ZM15.2219 17.9052L18.9196 25.2185L19.2376 25.8125L19.3812 26.0996C19.3924 26.1503 19.4234 26.17 19.429 26.1953C19.46 26.215 19.4346 26.2207 19.46 26.215C19.491 26.2348 19.5163 26.2291 19.5163 26.2291C19.5163 26.2291 19.5417 26.2235 19.6065 26.156C19.7165 26.0518 19.8096 25.8717 19.9027 25.6916C19.9957 25.5114 20.0579 25.3116 20.1143 25.0864C20.2018 24.881 20.2273 24.6361 20.3853 24.3884C20.4642 24.2646 20.5883 24.1042 20.7292 24.0197C20.8702 23.9353 21.0167 23.8762 21.1943 23.8369C21.5296 23.7891 21.8169 23.8848 22.0535 23.9918C22.2901 24.0988 22.476 24.2171 22.6872 24.3297L23.29 24.6478L26.6812 26.5005C27.0195 26.1065 27.3269 25.6928 27.6033 25.2593C27.8741 24.8006 28.1392 24.3165 28.3734 23.8127L28.7148 23.0725L28.87 22.6925C28.9236 22.5743 28.9518 22.4617 28.9659 22.4054C28.9744 22.3238 28.9632 22.2731 28.9266 22.2281C28.8844 22.1577 28.8168 22.0929 28.7239 22.0338C28.5577 21.8846 28.2845 21.7326 28.0677 21.5946C27.1382 21.0034 26.1834 20.4177 25.2596 19.8518C25.0428 19.7139 24.7132 19.5478 24.4909 19.1452C24.3952 18.9538 24.3446 18.7258 24.356 18.5372C24.3618 18.3233 24.4042 18.1544 24.4719 17.9799C24.5876 17.6618 24.816 17.372 24.9852 17.175C25.1741 16.947 25.3489 16.7753 25.4674 16.5896C25.5266 16.4967 25.5605 16.4094 25.5943 16.3222C25.5943 16.3222 25.5943 16.3222 25.5887 16.2969L25.5633 16.3025C25.4816 16.294 25.3239 16.3024 25.1858 16.2799L23.5291 16.2487C22.4331 16.226 21.3173 16.2342 20.2213 16.2115C18.3054 16.2112 16.3641 16.2165 14.4341 16.2725C14.6647 16.8327 14.9462 17.3816 15.2219 17.9052Z" fill="white"/>
<path d="M16.9154 13.3034C16.7857 13.4385 16.5828 13.4835 16.4279 13.3849C16.2673 13.261 16.2168 13.033 16.3155 12.8782C16.9134 11.9748 17.4295 11.0629 17.895 10.1623C17.8894 10.1369 17.9147 10.1313 17.9091 10.106C18.0671 9.8583 18.3968 9.78517 18.6446 9.94284C18.8925 10.1005 18.9655 10.4298 18.8076 10.6775C18.2407 11.6007 17.6062 12.4591 16.9154 13.3034Z" fill="white"/>
<path d="M10.427 21.6002C11.0981 20.7869 11.6509 19.92 12.0995 18.9434C12.1672 18.7689 12.3898 18.6929 12.5645 18.7605C12.7645 18.8224 12.8658 19.0392 12.7783 19.2446C12.3973 20.286 11.8782 21.3049 11.2606 22.2393L11.2408 22.2703C11.0519 22.4982 10.7363 22.5151 10.5082 22.3264C10.2858 22.1631 10.2381 21.8282 10.427 21.6002Z" fill="white"/>
<path d="M7.72785 16.9892C8.75081 16.6826 9.81599 16.4463 10.8783 16.317C11.0614 16.3029 11.2473 16.4212 11.2867 16.5985C11.3316 16.8012 11.2188 17.0123 11.0159 17.0573C10.0324 17.302 9.04604 17.6537 8.12726 18.0701C8.1019 18.0758 8.07654 18.0814 8.05118 18.087C7.75246 18.1799 7.44827 18.0081 7.35548 17.7097C7.25707 17.386 7.42913 17.082 7.72785 16.9892Z" fill="white"/>
<path d="M11.3079 14.175C11.0713 14.068 10.8291 13.9357 10.5924 13.8287L9.21229 13.1248L8.87712 12.9333L8.69686 12.8404C8.64051 12.8263 8.57855 12.7869 8.60968 12.5674C8.6352 12.3225 8.77339 12.1058 8.94257 11.9088C9.09762 11.7681 9.15396 11.7821 9.21592 11.8216L9.75672 12.1003C9.99894 12.2326 10.2158 12.3706 10.4383 12.5339C10.6608 12.6972 10.8776 12.8351 11.1001 12.9984C11.3226 13.1617 11.5197 13.3306 11.7225 13.5249C11.8267 13.6347 11.866 13.812 11.818 13.9556C11.7361 14.1864 11.5135 14.2623 11.3079 14.175Z" fill="white"/>
<path d="M14.0533 12.3966C14.0926 12.5739 14.0052 12.7794 13.8079 12.8497C13.6106 12.92 13.3994 12.8074 13.329 12.6104C12.8903 11.3521 12.5276 10.077 12.2354 8.75961C12.2298 8.73427 12.2298 8.73427 12.2242 8.70894C12.2187 8.44435 12.4218 8.16009 12.7317 8.11792C13.0163 8.08138 13.3008 8.28408 13.3428 8.59371C13.4914 9.86319 13.747 11.1355 14.0533 12.3966Z" fill="white"/>
</svg>
