<svg width="16" height="16" viewBox="0 0 16 16" fill="none" xmlns="http://www.w3.org/2000/svg">
<path d="M13.3333 2.6665H2.66668C1.93334 2.6665 1.34001 3.2665 1.34001 3.99984L1.33334 11.9998C1.33334 12.7332 1.93334 13.3332 2.66668 13.3332H13.3333C14.0667 13.3332 14.6667 12.7332 14.6667 11.9998V3.99984C14.6667 3.2665 14.0667 2.6665 13.3333 2.6665ZM13.0667 5.49984L8.35334 8.4465C8.14001 8.57984 7.86001 8.57984 7.64668 8.4465L2.93334 5.49984C2.8665 5.46231 2.80796 5.41161 2.76127 5.35081C2.71458 5.29 2.68072 5.22036 2.66173 5.14608C2.64274 5.07181 2.63901 4.99446 2.65078 4.91871C2.66255 4.84296 2.68957 4.77038 2.7302 4.70537C2.77083 4.64036 2.82423 4.58427 2.88716 4.5405C2.9501 4.49673 3.02126 4.46618 3.09634 4.4507C3.17142 4.43523 3.24887 4.43515 3.32398 4.45047C3.39909 4.46579 3.47032 4.49619 3.53334 4.53984L8.00001 7.33317L12.4667 4.53984C12.5297 4.49619 12.6009 4.46579 12.676 4.45047C12.7512 4.43515 12.8286 4.43523 12.9037 4.4507C12.9788 4.46618 13.0499 4.49673 13.1129 4.5405C13.1758 4.58427 13.2292 4.64036 13.2698 4.70537C13.3105 4.77038 13.3375 4.84296 13.3492 4.91871C13.361 4.99446 13.3573 5.07181 13.3383 5.14608C13.3193 5.22036 13.2854 5.29 13.2388 5.35081C13.1921 5.41161 13.1335 5.46231 13.0667 5.49984Z" fill="#454A76"/>
</svg>
