<svg width="29" height="29" viewBox="0 0 29 29" fill="none" xmlns="http://www.w3.org/2000/svg">
<g clip-path="url(#clip0_1071_3809)">
<path d="M14.7624 3.07153C8.31654 3.07153 3.0957 8.29237 3.0957 14.7382C3.09438 17.1874 3.86432 19.5747 5.29629 21.5617C6.72826 23.5486 8.74954 25.0341 11.0734 25.8075C11.6567 25.909 11.8749 25.559 11.8749 25.2522C11.8749 24.9757 11.8597 24.0575 11.8597 23.0799C8.92904 23.62 8.1707 22.3659 7.93737 21.709C7.80554 21.373 7.23737 20.3382 6.74154 20.0605C6.3332 19.8424 5.74987 19.3022 6.72637 19.2882C7.6457 19.273 8.30137 20.134 8.5207 20.484C9.5707 22.248 11.2484 21.7522 11.918 21.4465C12.0207 20.6882 12.3264 20.1784 12.6624 19.8867C10.0665 19.595 7.35404 18.5882 7.35404 14.1257C7.35404 12.8564 7.80554 11.8075 8.54987 10.9897C8.4332 10.698 8.02487 9.5022 8.66654 7.89803C8.66654 7.89803 9.64304 7.59237 11.8749 9.09503C12.8246 8.83144 13.8059 8.69877 14.7915 8.7007C15.7832 8.7007 16.7749 8.83137 17.7082 9.09387C19.9389 7.5772 20.9165 7.8992 20.9165 7.8992C21.5582 9.50337 21.1499 10.6992 21.0332 10.9909C21.7764 11.8075 22.229 12.8424 22.229 14.1257C22.229 18.6034 19.5025 19.595 16.9067 19.8867C17.329 20.2507 17.6942 20.9507 17.6942 22.045C17.6942 23.6049 17.679 24.859 17.679 25.2534C17.679 25.559 17.8984 25.923 18.4817 25.8064C20.7976 25.0245 22.8099 23.536 24.2356 21.5505C25.6612 19.5651 26.4284 17.1825 26.429 14.7382C26.429 8.29237 21.2082 3.07153 14.7624 3.07153Z" fill="white" fill-opacity="0.8"/>
</g>
<defs>
<clipPath id="clip0_1071_3809">
<rect width="28" height="28" fill="white" transform="translate(0.762695 0.738159)"/>
</clipPath>
</defs>
</svg>
