<svg width="26" height="26" viewBox="0 0 26 26" fill="none" xmlns="http://www.w3.org/2000/svg">
<g clip-path="url(#clip0_1071_4030)" filter="url(#filter0_d_1071_4030)">
<path d="M13.2269 1.70435C8.62272 1.70435 4.89356 5.43351 4.89356 10.0377C4.89261 11.7871 5.44257 13.4924 6.4654 14.9116C7.48824 16.3308 8.93201 17.3919 10.5919 17.9443C11.0086 18.0168 11.1644 17.7668 11.1644 17.5477C11.1644 17.3502 11.1536 16.6943 11.1536 15.996C9.06022 16.3818 8.51856 15.486 8.35189 15.0168C8.25772 14.7768 7.85189 14.0377 7.49772 13.8393C7.20606 13.6835 6.78939 13.2977 7.48689 13.2877C8.14356 13.2768 8.61189 13.8918 8.76856 14.1418C9.51856 15.4018 10.7169 15.0477 11.1952 14.8293C11.2686 14.2877 11.4869 13.9235 11.7269 13.7152C9.87272 13.5068 7.93522 12.7877 7.93522 9.60018C7.93522 8.69351 8.25772 7.94435 8.78939 7.36018C8.70606 7.15185 8.41439 6.29768 8.87272 5.15185C8.87272 5.15185 9.57022 4.93351 11.1644 6.00685C11.8428 5.81856 12.5437 5.7238 13.2477 5.72518C13.9561 5.72518 14.6644 5.81851 15.3311 6.00601C16.9244 4.92268 17.6227 5.15268 17.6227 5.15268C18.0811 6.29851 17.7894 7.15268 17.7061 7.36101C18.2369 7.94435 18.5602 8.68351 18.5602 9.60018C18.5602 12.7985 16.6127 13.5068 14.7586 13.7152C15.0602 13.9752 15.3211 14.4752 15.3211 15.2568C15.3211 16.371 15.3102 17.2668 15.3102 17.5485C15.3102 17.7668 15.4669 18.0268 15.8836 17.9435C17.5377 17.385 18.9752 16.3218 19.9935 14.9036C21.0118 13.4854 21.5597 11.7836 21.5602 10.0377C21.5602 5.43351 17.8311 1.70435 13.2269 1.70435Z" fill="white" fill-opacity="0.8"/>
</g>
<defs>
<filter id="filter0_d_1071_4030" x="-0.773438" y="0.0375977" width="28" height="28" filterUnits="userSpaceOnUse" color-interpolation-filters="sRGB">
<feFlood flood-opacity="0" result="BackgroundImageFix"/>
<feColorMatrix in="SourceAlpha" type="matrix" values="0 0 0 0 0 0 0 0 0 0 0 0 0 0 0 0 0 0 127 0" result="hardAlpha"/>
<feOffset dy="4"/>
<feGaussianBlur stdDeviation="2"/>
<feComposite in2="hardAlpha" operator="out"/>
<feColorMatrix type="matrix" values="0 0 0 0 0 0 0 0 0 0 0 0 0 0 0 0 0 0 0.25 0"/>
<feBlend mode="normal" in2="BackgroundImageFix" result="effect1_dropShadow_1071_4030"/>
<feBlend mode="normal" in="SourceGraphic" in2="effect1_dropShadow_1071_4030" result="shape"/>
</filter>
<clipPath id="clip0_1071_4030">
<rect width="20" height="20" fill="white" transform="translate(3.22656 0.0375977)"/>
</clipPath>
</defs>
</svg>
