<svg width="20" height="20" viewBox="0 0 20 20" fill="none" xmlns="http://www.w3.org/2000/svg">
<path d="M10.0003 1.66675C5.39616 1.66675 1.66699 5.39592 1.66699 10.0001C1.66605 11.7495 2.216 13.4548 3.23884 14.874C4.26167 16.2932 5.70545 17.3543 7.36533 17.9067C7.78199 17.9792 7.93783 17.7292 7.93783 17.5101C7.93783 17.3126 7.92699 16.6567 7.92699 15.9584C5.83366 16.3442 5.29199 15.4484 5.12533 14.9792C5.03116 14.7392 4.62533 14.0001 4.27116 13.8017C3.97949 13.6459 3.56283 13.2601 4.26033 13.2501C4.91699 13.2392 5.38533 13.8542 5.54199 14.1042C6.29199 15.3642 7.49033 15.0101 7.96866 14.7917C8.04199 14.2501 8.26033 13.8859 8.50033 13.6776C6.64616 13.4692 4.70866 12.7501 4.70866 9.56258C4.70866 8.65592 5.03116 7.90675 5.56283 7.32258C5.47949 7.11425 5.18783 6.26008 5.64616 5.11425C5.64616 5.11425 6.34366 4.89591 7.93783 5.96925C8.61621 5.78097 9.31713 5.6862 10.0212 5.68758C10.7295 5.68758 11.4378 5.78092 12.1045 5.96842C13.6978 4.88508 14.3962 5.11508 14.3962 5.11508C14.8545 6.26091 14.5628 7.11508 14.4795 7.32342C15.0103 7.90675 15.3337 8.64592 15.3337 9.56258C15.3337 12.7609 13.3862 13.4692 11.532 13.6776C11.8337 13.9376 12.0945 14.4376 12.0945 15.2192C12.0945 16.3334 12.0837 17.2292 12.0837 17.5109C12.0837 17.7292 12.2403 17.9892 12.657 17.9059C14.3112 17.3474 15.7486 16.2842 16.7669 14.866C17.7852 13.4478 18.3332 11.746 18.3337 10.0001C18.3337 5.39592 14.6045 1.66675 10.0003 1.66675Z" fill="white"/>
</svg>
