<svg width="22" height="23" viewBox="0 0 22 23" fill="none" xmlns="http://www.w3.org/2000/svg">
<path d="M1.18484 15.9546L1.18232 15.9395C1.16487 15.8347 1.10974 15.7391 1.02636 15.6697C0.942992 15.6004 0.836832 15.5618 0.726704 15.5612C0.726642 15.5612 0.726581 15.5612 0.726519 15.5612L0.724712 15.5612C0.601336 15.5612 0.48327 15.6088 0.396354 15.6932C0.309486 15.7775 0.260825 15.8916 0.260581 16.0104L0.260581 16.0105C0.259155 16.2739 0.428466 16.5106 0.635445 16.6998C0.840997 16.8877 1.07446 17.0204 1.18165 17.076L1.19245 17.0816L1.19149 17.0827C1.74211 17.5626 2.17537 18.1578 2.4611 18.8217L2.46222 18.8243L2.46214 18.8243C2.63826 19.3067 2.99461 19.9199 3.72581 20.3609C4.45714 20.802 5.56948 21.0746 7.26446 20.864L7.32015 20.8571L7.32062 20.9132C7.3237 21.2779 7.32884 21.4655 7.33294 21.6093L7.33296 21.6098L7.3381 21.9039L7.33811 21.9047C7.3381 22.0236 7.38666 22.138 7.47355 22.2225C7.56049 22.307 7.6787 22.3548 7.80224 22.3548C7.92577 22.3548 8.04398 22.307 8.13092 22.2225C8.21772 22.1381 8.26626 22.0239 8.26637 21.9051C8.26637 21.905 8.26637 21.9049 8.26637 21.9047L8.26124 21.5841C8.26124 21.584 8.26124 21.5839 8.26124 21.5838L1.18484 15.9546ZM1.18484 15.9546L1.19535 15.9657C1.31821 16.0953 1.4634 16.2029 1.62431 16.2838C2.37722 16.8736 2.96433 17.6391 3.33109 18.5088C3.64032 19.3523 4.32743 19.7708 5.13646 19.9409C5.94412 20.1107 6.87896 20.0347 7.69882 19.8868C7.76593 19.875 7.83488 19.8777 7.90079 19.8946C7.96671 19.9116 8.02791 19.9423 8.0801 19.9847C8.1323 20.027 8.17421 20.0799 8.20298 20.1395C8.23172 20.199 8.24667 20.2639 8.24683 20.3296L1.18484 15.9546ZM19.8833 4.68735C19.8508 4.64735 19.8179 4.60767 19.7846 4.56834L19.8833 4.68735ZM19.8833 4.68735C20.764 5.75829 21.2331 7.09447 21.2097 8.46565L19.8833 4.68735ZM19.8445 4.71887L19.8447 4.71911C20.7179 5.78098 21.1829 7.10563 21.1597 8.4648L21.1597 8.46614C21.1628 8.78112 21.1465 9.09619 21.1127 9.40937L21.1126 9.41102C20.9407 11.7218 20.0832 13.1945 18.9396 14.1453C17.7944 15.0975 16.3572 15.5305 15.0197 15.7509L14.949 15.7626L14.9843 15.8249C15.155 16.1265 15.2803 16.4503 15.3564 16.7864L15.3564 16.7864L15.3569 16.7883C15.4658 17.1933 15.5171 17.611 15.5094 18.0295V18.0304V20.4972C15.4992 21.1735 15.4992 21.6747 15.4992 21.9047C15.4992 22.0236 15.4506 22.138 15.3637 22.2225C15.2768 22.307 15.1586 22.3548 15.035 22.3548C14.9115 22.3548 14.7933 22.307 14.7063 22.2225C14.6194 22.138 14.5709 22.0236 14.5709 21.9047V21.9047C14.5709 21.6727 14.5709 21.166 14.5812 20.4914V20.4906V18.0309C14.5884 17.687 14.5469 17.3442 14.4587 17.0114C14.371 16.5342 14.1282 16.0982 13.766 15.7664L13.766 15.7664L13.7645 15.7651C13.6966 15.7076 13.6476 15.6322 13.6232 15.5483C13.5988 15.4645 13.6 15.3756 13.6267 15.2923C13.6534 15.2091 13.7046 15.1351 13.7741 15.0793C13.8436 15.0236 13.9285 14.9886 14.0183 14.9789L14.0184 14.9789C15.4429 14.8212 16.9036 14.5136 18.0495 13.6909C19.1981 12.8663 20.024 11.5288 20.1881 9.32628C20.2191 9.04083 20.2335 8.75338 20.2315 8.46594C20.2531 7.3109 19.8599 6.18484 19.1199 5.28171L19.1198 5.28154C19.0397 5.18471 18.9493 5.07555 18.8576 4.97727L18.8576 4.97725C18.7999 4.91541 18.761 4.83935 18.7452 4.75759C18.7294 4.67589 18.7372 4.59153 18.7678 4.51381C18.8645 4.27243 18.9363 4.02232 18.9824 3.76716L18.9826 3.76553C19.1002 2.96428 19.0157 2.14724 18.7364 1.38488L18.7226 1.34729L18.6829 1.35251C17.4531 1.51431 16.2923 2.0009 15.3267 2.75953C15.2712 2.7956 15.2083 2.81967 15.1423 2.83004C15.0756 2.84052 15.0073 2.83673 14.9423 2.81897L14.9419 2.81885C12.6465 2.21325 10.2267 2.21325 7.93138 2.81885L7.9309 2.81898C7.86606 2.83679 7.79797 2.84059 7.73144 2.83012C7.6655 2.81974 7.60275 2.7956 7.54748 2.75945C6.57517 2.00949 5.41425 1.5265 4.18533 1.36053L4.14548 1.35515L4.13168 1.39292C3.84899 2.16646 3.76621 2.9958 3.89066 3.80785L3.89063 3.80786L3.89097 3.80962C3.93664 4.04962 4.00424 4.28516 4.09296 4.51345L4.09308 4.51373C4.12381 4.59141 4.13178 4.67579 4.11614 4.75754C4.1005 4.83929 4.06183 4.91539 4.00424 4.97732L4.0042 4.97737C3.99934 4.98261 3.99447 4.98785 3.9896 4.9931C3.9094 5.0795 3.82691 5.16836 3.75172 5.26643C3.01374 6.17647 2.62122 7.30659 2.64074 8.46587C2.63842 8.74714 2.65187 9.02833 2.68104 9.30818C2.8466 11.5201 3.67035 12.8626 4.81516 13.6897C5.95719 14.5148 7.4123 14.8221 8.83118 14.9789L8.83119 14.9789C8.92099 14.9888 9.00573 15.0238 9.07512 15.0796C9.1445 15.1354 9.1955 15.2095 9.22212 15.2927C9.24874 15.3759 9.24989 15.4647 9.22544 15.5485C9.201 15.6323 9.15194 15.7076 9.08405 15.7651L9.08402 15.7651L9.08248 15.7665C8.72568 16.0951 8.48195 16.5238 8.38395 16.9935C8.35235 17.1061 8.27677 17.2027 8.17274 17.2625C8.06821 17.3225 7.94347 17.3405 7.82532 17.3123C7.70719 17.2842 7.60547 17.2123 7.54165 17.1125C7.47794 17.0128 7.4569 16.8931 7.48278 16.7788C7.56456 16.4455 7.69287 16.1246 7.86415 15.8251L7.89982 15.7627L7.82892 15.7509C6.49706 15.53 5.06587 15.0968 3.92461 14.1421C2.78504 13.1889 1.92945 11.7114 1.75553 9.39099L1.75555 9.39099L1.75541 9.3896C1.72373 9.08244 1.70941 8.77424 1.71147 8.46599L1.71145 8.46484C1.68946 7.10943 2.14843 5.78788 3.01134 4.72282L3.01135 4.72284L3.01218 4.72176C3.04499 4.67895 3.0788 4.63686 3.11357 4.59553L3.13108 4.57472L3.12313 4.54872C3.06404 4.35548 3.01416 4.16047 2.97548 3.96265C2.80783 2.8833 2.94676 1.77987 3.37734 0.771668L3.37755 0.771161C3.40324 0.709119 3.44282 0.653276 3.49352 0.60771C3.54411 0.562238 3.60453 0.528142 3.67045 0.507959C3.80325 0.470114 5.10905 0.138941 7.86905 1.88736L7.88708 1.89878L7.9078 1.89366C10.2225 1.32146 12.6476 1.32146 14.9624 1.89366L14.9832 1.89882L15.0013 1.88722C17.7656 0.115824 19.0786 0.469362 19.2057 0.510569L19.2059 0.510653C19.2707 0.53125 19.3299 0.565396 19.3794 0.610589C19.4289 0.655777 19.4675 0.710897 19.4925 0.772002L19.4928 0.772614C19.9156 1.7658 20.0555 2.85137 19.8977 3.9152C19.859 4.13072 19.8051 4.34522 19.7371 4.55275L19.7283 4.57932L19.7464 4.60066C19.7795 4.63973 19.8122 4.67913 19.8445 4.71887ZM19.5388 0.753029C19.5109 0.685007 19.468 0.623775 19.4131 0.57366C19.3582 0.523544 19.2926 0.48577 19.2211 0.463006C19.0761 0.416002 17.7476 0.0679736 14.9744 1.84512L19.5388 0.753029ZM4.13957 4.49533C4.05194 4.26988 3.98518 4.03727 3.94009 3.80028C3.81691 2.99657 3.89883 2.17574 4.17864 1.41008L4.13957 4.49533Z" fill="#ffffff" stroke="#FCFCFF" stroke-width="0.1"/>
</svg>
