<svg xmlns="http://www.w3.org/2000/svg" width="50" height="48" viewBox="0 0 50 48" fill="none">
  <g filter="url(#filter0_d_1389_155)">
    <path d="M38.4256 17.2081C38.3426 16.9435 38.2408 16.6852 38.1208 16.4352V16.4191C37.5608 15.2759 36.6324 14.356 35.4862 13.8087C34.3399 13.2614 33.043 13.1188 31.8058 13.404C30.5686 13.6892 29.4638 14.3855 28.6704 15.38C27.8771 16.3745 27.4418 17.6088 27.4352 18.8827C27.4353 19.2833 27.4783 19.6828 27.5635 20.0742C27.5639 20.0796 27.5639 20.0849 27.5635 20.0903C27.5956 20.2513 27.6438 20.4123 27.6919 20.5734C27.9783 21.7076 28.034 22.8882 27.8557 24.0445C27.6775 25.2009 27.2689 26.3094 26.6544 27.3038C26.0399 28.2982 25.2321 29.1582 24.2792 29.8324C23.3262 30.5066 22.2477 30.9813 21.108 31.228C19.9682 31.4747 18.7906 31.4885 17.6455 31.2684C16.5003 31.0484 15.4111 30.5991 14.4427 29.9473C13.4744 29.2955 12.6469 28.4546 12.0095 27.4748C11.3721 26.495 10.9379 25.3964 10.7329 24.2445C11.0228 26.2412 11.7273 28.1546 12.8008 29.8607C13.8743 31.5668 15.2928 33.0277 16.9646 34.1488C18.6364 35.2698 20.5241 36.026 22.5055 36.3685C24.487 36.711 26.518 36.632 28.4671 36.1367C30.4162 35.6415 32.24 34.741 33.8203 33.4935C35.4007 32.2461 36.7024 30.6794 37.6411 28.8951C38.5799 27.1107 39.1348 25.1484 39.2699 23.1352C39.4051 21.122 39.1175 19.1027 38.4256 17.2081Z" fill="#6378FF"/>
    <path d="M15.6265 22.0549C17.4876 24.7761 21.3383 24.5346 21.3383 24.5346C20.3756 23.6007 19.7499 22.7473 19.6857 20.316C19.6215 17.8846 18.2417 17.2405 18.2417 17.2405C20.7126 15.6787 19.8301 13.988 19.7499 12.1041C19.7018 10.9287 20.3917 10.0592 20.9372 9.56006C17.7974 10.0321 14.9603 11.702 13.0174 14.2219C11.0745 16.7417 10.1756 19.9169 10.5083 23.0855C10.7329 22.4575 13.9097 19.5431 15.6265 22.0549Z" fill="#0AA3F9"/>
    <path d="M38.4256 17.2081C38.3426 16.9435 38.2408 16.6852 38.1208 16.4352V16.4191C37.5608 15.2759 36.6324 14.356 35.4862 13.8087C34.3399 13.2614 33.043 13.1188 31.8058 13.404C30.5686 13.6892 29.4638 14.3855 28.6704 15.38C27.8771 16.3745 27.4418 17.6088 27.4352 18.8827C27.4353 19.2833 27.4783 19.6828 27.5635 20.0742C27.5639 20.0796 27.5639 20.0849 27.5635 20.0903C27.5956 20.2513 27.6438 20.4123 27.6919 20.5734C27.9783 21.7076 28.034 22.8882 27.8557 24.0445C27.6775 25.2009 27.2689 26.3094 26.6544 27.3038C26.0399 28.2982 25.2321 29.1582 24.2792 29.8324C23.3262 30.5066 22.2477 30.9813 21.108 31.228C19.9682 31.4747 18.7906 31.4885 17.6455 31.2684C16.5003 31.0484 15.4111 30.5991 14.4427 29.9473C13.4744 29.2955 12.6469 28.4546 12.0095 27.4748C11.3721 26.495 10.9379 25.3964 10.7329 24.2445C11.0228 26.2412 11.7273 28.1546 12.8008 29.8607C13.8743 31.5668 15.2928 33.0277 16.9646 34.1488C18.6364 35.2698 20.5241 36.026 22.5055 36.3685C24.487 36.711 26.518 36.632 28.4671 36.1367C30.4162 35.6415 32.24 34.741 33.8203 33.4935C35.4007 32.2461 36.7024 30.6794 37.6411 28.8951C38.5799 27.1107 39.1348 25.1484 39.2699 23.1352C39.4051 21.122 39.1175 19.1027 38.4256 17.2081Z" fill="#0AA3F9"/>
    <path fill-rule="evenodd" clip-rule="evenodd" d="M36.0343 21.089C36.0343 28.1054 30.3667 33.7932 23.3753 33.7932C19.6632 33.7932 16.3243 32.1898 14.0088 29.6355C14.1501 29.7438 14.2949 29.8479 14.4429 29.9475C15.4112 30.5993 16.5005 31.0486 17.6456 31.2687C18.7908 31.4887 19.9684 31.4749 21.1081 31.2282C22.2479 30.9815 23.3264 30.5069 24.2793 29.8326C25.2323 29.1584 26.0401 28.2984 26.6546 27.304C27.2691 26.3096 27.6777 25.2011 27.8559 24.0448C28.0342 22.8884 27.9784 21.7079 27.6921 20.5736C27.6439 20.4126 27.5958 20.2516 27.5637 20.0906C27.5641 20.0852 27.5641 20.0798 27.5637 20.0745C27.4785 19.683 27.4354 19.2836 27.4354 18.8829C27.442 17.609 27.8773 16.3747 28.6706 15.3803C29.464 14.3858 30.5688 13.6895 31.806 13.4042C32.316 13.2866 32.8362 13.2418 33.3518 13.268C35.0326 15.4242 36.0343 18.1392 36.0343 21.089Z" fill="#7ABBFD"/>
  </g>
  <defs>
    <filter id="filter0_d_1389_155" x="0.440429" y="0.610058" width="48.8618" height="47.0176" filterUnits="userSpaceOnUse" color-interpolation-filters="sRGB">
      <feFlood flood-opacity="0" result="BackgroundImageFix"/>
      <feColorMatrix in="SourceAlpha" type="matrix" values="0 0 0 0 0 0 0 0 0 0 0 0 0 0 0 0 0 0 127 0" result="hardAlpha"/>
      <feOffset dy="1.05"/>
      <feGaussianBlur stdDeviation="5"/>
      <feComposite in2="hardAlpha" operator="out"/>
      <feColorMatrix type="matrix" values="0 0 0 0 1 0 0 0 0 1 0 0 0 0 1 0 0 0 0.25 0"/>
      <feBlend mode="normal" in2="BackgroundImageFix" result="effect1_dropShadow_1389_155"/>
      <feBlend mode="normal" in="SourceGraphic" in2="effect1_dropShadow_1389_155" result="shape"/>
    </filter>
  </defs>
</svg>