<svg width="50" height="48" viewBox="0 0 50 48" fill="none" xmlns="http://www.w3.org/2000/svg">
<g filter="url(#filter0_d_1324_173)">
<path d="M38.4256 17.4703C38.3426 17.2057 38.2408 16.9474 38.1208 16.6974V16.6813C37.5608 15.5381 36.6324 14.6182 35.4862 14.0709C34.3399 13.5236 33.043 13.381 31.8058 13.6662C30.5686 13.9514 29.4638 14.6477 28.6704 15.6422C27.8771 16.6367 27.4418 17.871 27.4352 19.1449C27.4353 19.5455 27.4783 19.945 27.5635 20.3364C27.5639 20.3418 27.5639 20.3472 27.5635 20.3525C27.5956 20.5135 27.6438 20.6745 27.6919 20.8356C27.9783 21.9698 28.034 23.1504 27.8557 24.3067C27.6775 25.4631 27.2689 26.5716 26.6544 27.566C26.0399 28.5604 25.2321 29.4204 24.2792 30.0946C23.3262 30.7688 22.2477 31.2435 21.108 31.4902C19.9682 31.7369 18.7906 31.7507 17.6455 31.5306C16.5003 31.3106 15.4111 30.8613 14.4427 30.2095C13.4744 29.5577 12.6469 28.7168 12.0095 27.737C11.3721 26.7573 10.9379 25.6586 10.7329 24.5067C11.0228 26.5034 11.7273 28.4168 12.8008 30.1229C13.8743 31.8291 15.2928 33.2899 16.9646 34.411C18.6364 35.532 20.5241 36.2883 22.5055 36.6307C24.487 36.9732 26.518 36.8942 28.4671 36.399C30.4162 35.9037 32.24 35.0032 33.8203 33.7557C35.4007 32.5083 36.7024 30.9416 37.6411 29.1573C38.5799 27.3729 39.1348 25.4106 39.2699 23.3974C39.4051 21.3842 39.1175 19.3649 38.4256 17.4703V17.4703Z" fill="#6378FF"/>
<path d="M15.6265 22.3172C17.4876 25.0383 21.3383 24.7968 21.3383 24.7968C20.3756 23.8629 19.7499 23.0095 19.6857 20.5782C19.6215 18.1468 18.2417 17.5028 18.2417 17.5028C20.7126 15.9409 19.8301 14.2502 19.7499 12.3663C19.7018 11.1909 20.3917 10.3214 20.9372 9.82227C17.7974 10.2943 14.9603 11.9642 13.0174 14.4841C11.0745 17.0039 10.1756 20.1791 10.5083 23.3477C10.7329 22.7197 13.9097 19.8053 15.6265 22.3172Z" fill="#0AA3F9"/>
<path d="M38.4256 17.4703C38.3426 17.2057 38.2408 16.9474 38.1208 16.6974V16.6813C37.5608 15.5381 36.6324 14.6182 35.4862 14.0709C34.3399 13.5236 33.043 13.381 31.8058 13.6662C30.5686 13.9514 29.4638 14.6477 28.6704 15.6422C27.8771 16.6367 27.4418 17.871 27.4352 19.1449C27.4353 19.5455 27.4783 19.945 27.5635 20.3364C27.5639 20.3418 27.5639 20.3472 27.5635 20.3525C27.5956 20.5135 27.6438 20.6745 27.6919 20.8356C27.9783 21.9698 28.034 23.1504 27.8557 24.3067C27.6775 25.4631 27.2689 26.5716 26.6544 27.566C26.0399 28.5604 25.2321 29.4204 24.2792 30.0946C23.3262 30.7688 22.2477 31.2435 21.108 31.4902C19.9682 31.7369 18.7906 31.7507 17.6455 31.5306C16.5003 31.3106 15.4111 30.8613 14.4427 30.2095C13.4744 29.5577 12.6469 28.7168 12.0095 27.737C11.3721 26.7573 10.9379 25.6586 10.7329 24.5067C11.0228 26.5034 11.7273 28.4168 12.8008 30.1229C13.8743 31.8291 15.2928 33.2899 16.9646 34.411C18.6364 35.532 20.5241 36.2883 22.5055 36.6307C24.487 36.9732 26.518 36.8942 28.4671 36.399C30.4162 35.9037 32.24 35.0032 33.8203 33.7557C35.4007 32.5083 36.7024 30.9416 37.6411 29.1573C38.5799 27.3729 39.1348 25.4106 39.2699 23.3974C39.4051 21.3842 39.1175 19.3649 38.4256 17.4703V17.4703Z" fill="#0AA3F9"/>
<path fill-rule="evenodd" clip-rule="evenodd" d="M36.0343 21.3512C36.0343 28.3676 30.3667 34.0555 23.3753 34.0555C19.6632 34.0555 16.3243 32.452 14.0088 29.8977C14.1501 30.006 14.2948 30.1101 14.4429 30.2097C15.4112 30.8615 16.5005 31.3108 17.6456 31.5309C18.7908 31.7509 19.9684 31.7372 21.1081 31.4904C22.2479 31.2437 23.3264 30.7691 24.2793 30.0948C25.2323 29.4206 26.0401 28.5606 26.6546 27.5662C27.2691 26.5718 27.6777 25.4633 27.8559 24.307C28.0342 23.1506 27.9784 21.9701 27.6921 20.8358L27.692 20.8357C27.6439 20.6748 27.5958 20.5138 27.5637 20.3528C27.5641 20.3474 27.5641 20.342 27.5637 20.3367C27.4785 19.9453 27.4354 19.5458 27.4354 19.1451C27.442 17.8712 27.8773 16.6369 28.6706 15.6425C29.464 14.648 30.5688 13.9517 31.806 13.6664C32.316 13.5488 32.8362 13.504 33.3518 13.5302C35.0326 15.6864 36.0343 18.4014 36.0343 21.3512Z" fill="#7ABBFD"/>
</g>
<defs>
<filter id="filter0_d_1324_173" x="0.440429" y="0.872265" width="48.8618" height="47.0176" filterUnits="userSpaceOnUse" color-interpolation-filters="sRGB">
<feFlood flood-opacity="0" result="BackgroundImageFix"/>
<feColorMatrix in="SourceAlpha" type="matrix" values="0 0 0 0 0 0 0 0 0 0 0 0 0 0 0 0 0 0 127 0" result="hardAlpha"/>
<feOffset dy="1.05"/>
<feGaussianBlur stdDeviation="5"/>
<feComposite in2="hardAlpha" operator="out"/>
<feColorMatrix type="matrix" values="0 0 0 0 1 0 0 0 0 1 0 0 0 0 1 0 0 0 0.25 0"/>
<feBlend mode="normal" in2="BackgroundImageFix" result="effect1_dropShadow_1324_173"/>
<feBlend mode="normal" in="SourceGraphic" in2="effect1_dropShadow_1324_173" result="shape"/>
</filter>
</defs>
</svg>
