<svg width="43" height="43" viewBox="0 0 43 43" fill="none" xmlns="http://www.w3.org/2000/svg">
<path d="M28.2021 24.0653V28.3045H30.4774C30.9148 27.063 32.0981 26.1732 33.4893 26.1732C35.2524 26.1732 36.6816 27.6025 36.6816 29.3656C36.6816 31.1287 35.2524 32.558 33.4893 32.558C32.0981 32.558 30.9148 31.6681 30.4774 30.4266H27.1411C26.5551 30.4266 26.0801 29.9516 26.0801 29.3656C26.0801 29.3506 26.0804 29.3356 26.081 29.3208L26.0801 24.0653H22.9019V32.6958C24.1434 33.1332 25.0332 34.3165 25.0332 35.7076C25.0332 37.4707 23.6039 38.9 21.8408 38.9C20.0777 38.9 18.6484 37.4707 18.6484 35.7076C18.6484 34.3165 19.5383 33.1332 20.7798 32.6958V24.0653H17.6016V29.3208C17.6022 29.3356 17.6016 29.3506 17.6016 29.3656C17.6016 29.9516 17.1265 30.4266 16.5405 30.4266L16.5195 30.4264L13.2042 30.4266C12.7668 31.6681 11.5835 32.558 10.1924 32.558C8.42928 32.558 7 31.1287 7 29.3656C7 27.6025 8.42928 26.1732 10.1924 26.1732C11.5835 26.1732 12.7668 27.063 13.2042 28.3045H15.4795V24.0653H13.1206V24.06C9.717 23.9221 7 21.1192 7 17.6817C7 14.1562 9.85801 11.2982 13.3835 11.2982C13.4455 11.2982 13.5072 11.2991 13.5686 11.3008C14.5661 7.6686 17.8918 5 21.8408 5C25.7898 5 29.1155 7.6686 30.113 11.3008C30.1745 11.2991 30.2362 11.2982 30.2981 11.2982C33.8236 11.2982 36.6816 14.1562 36.6816 17.6817C36.6816 21.1671 33.8885 24 30.4185 24.0642V24.0653H28.2021Z" fill="#1E3249"/>
</svg>
