<svg width="48" height="48" viewBox="0 0 48 48" fill="none" xmlns="http://www.w3.org/2000/svg">
<path d="M31.7395 17.612C31.1035 17.9011 30.4179 18.0911 29.7075 18.1819C30.4344 17.7441 30.9961 17.0503 31.2604 16.216C30.5748 16.629 29.8149 16.9181 29.0137 17.0833C28.3611 16.373 27.4443 15.96 26.4035 15.96C24.4624 15.96 22.8765 17.5459 22.8765 19.5035C22.8765 19.7844 22.9095 20.0569 22.9673 20.313C20.0267 20.1643 17.4083 18.7519 15.6654 16.6125C15.3598 17.1329 15.1864 17.7441 15.1864 18.3884C15.1864 19.6192 15.8059 20.7095 16.764 21.329C16.1776 21.329 15.6324 21.1638 15.1533 20.916V20.9408C15.1533 22.6589 16.3758 24.0961 17.9948 24.4182C17.475 24.5605 16.9293 24.5803 16.4006 24.4761C16.6249 25.1802 17.0643 25.7964 17.6569 26.2379C18.2496 26.6794 18.9657 26.9241 19.7046 26.9376C18.4521 27.9291 16.8995 28.4651 15.302 28.4574C15.0212 28.4574 14.7403 28.4409 14.4595 28.4078C16.0289 29.4156 17.8956 30.002 19.8946 30.002C26.4035 30.002 29.9801 24.6 29.9801 19.9165C29.9801 19.7596 29.9801 19.6109 29.9718 19.454C30.6657 18.9584 31.2604 18.3306 31.7395 17.612Z" fill="#454A76"/>
<circle cx="23.28" cy="23.28" r="16.992" stroke="#454A76" stroke-width="0.576"/>
</svg>
