<svg width="16" height="16" viewBox="0 0 16 16" fill="none" xmlns="http://www.w3.org/2000/svg">
<path d="M2.87843 8.38875L8.70018 2.84208C9.90593 1.69334 11.8608 1.69334 13.0666 2.84208C14.2722 3.99082 14.2722 5.85331 13.0666 7.00205L6.15317 13.5887C5.55032 14.163 4.57288 14.163 3.97001 13.5887C3.36716 13.0143 3.36716 12.083 3.97001 11.5087L10.1556 5.6154C10.3566 5.42393 10.3566 5.11352 10.1556 4.92207C9.95471 4.73061 9.62888 4.73061 9.42789 4.92207L3.2423 10.8153C2.23753 11.7726 2.23753 13.3248 3.2423 14.282C4.24707 15.2393 5.87613 15.2393 6.8809 14.282L13.7943 7.69538C15.4019 6.16372 15.4019 3.68041 13.7943 2.14875C12.1866 0.617084 9.5801 0.617084 7.97248 2.14875L2.15072 7.69538C1.94976 7.88684 1.94976 8.19726 2.15072 8.38875C2.35167 8.58015 2.67748 8.58015 2.87843 8.38875Z" fill="#333333"/>
</svg>
