<svg width="173" height="90" viewBox="0 0 173 90" fill="none" xmlns="http://www.w3.org/2000/svg">
<g filter="url(#filter0_d_1329_4397)">
<g clip-path="url(#clip0_1329_4397)">
<rect x="2" y="1" width="169" height="86" rx="4" fill="white"/>
<rect x="18.9734" y="21.2749" width="40.3799" height="3.81763" rx="1.90882" fill="#EAEBF0"/>
<rect x="18.8605" y="31.0925" width="122.506" height="27.5291" rx="4.48844" fill="#018CF1"/>
<path d="M41.2961 42.0207C41.2554 41.8911 41.2055 41.7646 41.1468 41.6422V41.6343C40.8725 41.0743 40.4178 40.6237 39.8563 40.3557C39.2949 40.0876 38.6596 40.0177 38.0536 40.1574C37.4477 40.2971 36.9065 40.6382 36.5179 41.1253C36.1293 41.6124 35.9161 42.217 35.9129 42.841C35.9129 43.0372 35.934 43.2329 35.9757 43.4246C35.9759 43.4272 35.9759 43.4298 35.9757 43.4325C35.9915 43.5113 36.015 43.5902 36.0386 43.6691C36.1789 44.2246 36.2062 44.8029 36.1189 45.3693C36.0316 45.9357 35.8314 46.4786 35.5305 46.9657C35.2295 47.4528 34.8338 47.874 34.367 48.2042C33.9003 48.5345 33.372 48.767 32.8137 48.8878C32.2555 49.0087 31.6787 49.0154 31.1178 48.9076C30.5569 48.7998 30.0233 48.5798 29.549 48.2605C29.0748 47.9413 28.6694 47.5294 28.3572 47.0495C28.045 46.5696 27.8324 46.0315 27.7319 45.4672C27.8739 46.4453 28.219 47.3824 28.7448 48.2181C29.2706 49.0538 29.9654 49.7693 30.7843 50.3184C31.6031 50.8675 32.5277 51.2379 33.4983 51.4057C34.4688 51.5734 35.4636 51.5347 36.4183 51.2922C37.373 51.0496 38.2663 50.6085 39.0404 49.9975C39.8144 49.3865 40.452 48.6191 40.9118 47.7451C41.3717 46.8711 41.6435 45.91 41.7097 44.9239C41.7758 43.9378 41.635 42.9487 41.2961 42.0207Z" fill="#6378FF"/>
<path d="M30.1289 44.3945C31.0405 45.7274 32.9266 45.6091 32.9266 45.6091C32.4551 45.1517 32.1486 44.7337 32.1172 43.5428C32.0857 42.3519 31.4099 42.0364 31.4099 42.0364C32.6201 41.2714 32.1879 40.4433 32.1486 39.5205C32.125 38.9448 32.463 38.5189 32.7302 38.2744C31.1923 38.5056 29.8026 39.3236 28.851 40.5578C27.8993 41.792 27.459 43.3473 27.622 44.8993C27.732 44.5917 29.288 43.1642 30.1289 44.3945Z" fill="white"/>
<path d="M41.2961 42.0207C41.2554 41.8911 41.2055 41.7646 41.1468 41.6422V41.6343C40.8725 41.0743 40.4178 40.6237 39.8563 40.3557C39.2949 40.0876 38.6596 40.0177 38.0536 40.1574C37.4477 40.2971 36.9065 40.6382 36.5179 41.1253C36.1293 41.6124 35.9161 42.217 35.9129 42.841C35.9129 43.0372 35.934 43.2329 35.9757 43.4246C35.9759 43.4272 35.9759 43.4298 35.9757 43.4325C35.9915 43.5113 36.015 43.5902 36.0386 43.6691C36.1789 44.2246 36.2062 44.8029 36.1189 45.3693C36.0316 45.9357 35.8314 46.4786 35.5305 46.9657C35.2295 47.4528 34.8338 47.874 34.367 48.2042C33.9003 48.5345 33.372 48.767 32.8137 48.8878C32.2555 49.0087 31.6787 49.0154 31.1178 48.9076C30.5569 48.7998 30.0233 48.5798 29.549 48.2605C29.0748 47.9413 28.6694 47.5294 28.3572 47.0495C28.045 46.5696 27.8324 46.0315 27.7319 45.4672C27.8739 46.4453 28.219 47.3824 28.7448 48.2181C29.2706 49.0538 29.9654 49.7693 30.7843 50.3184C31.6031 50.8675 32.5277 51.2379 33.4983 51.4057C34.4688 51.5734 35.4636 51.5347 36.4183 51.2922C37.373 51.0496 38.2663 50.6085 39.0404 49.9975C39.8144 49.3865 40.452 48.6191 40.9118 47.7451C41.3717 46.8711 41.6435 45.91 41.7097 44.9239C41.7758 43.9378 41.635 42.9487 41.2961 42.0207Z" fill="white"/>
<path d="M40.1252 43.9211C40.1252 47.3578 37.3492 50.1438 33.9247 50.1438C32.1073 50.1438 30.4725 49.3591 29.3384 48.1089C29.407 48.1614 29.4773 48.2119 29.5491 48.2603C30.0234 48.5795 30.5569 48.7996 31.1178 48.9074C31.6787 49.0151 32.2555 49.0084 32.8138 48.8876C33.3721 48.7667 33.9003 48.5342 34.3671 48.204C34.8338 47.8737 35.2295 47.4525 35.5305 46.9654C35.8315 46.4784 36.0316 45.9354 36.1189 45.369C36.2062 44.8026 36.1789 44.2244 36.0387 43.6688L36.0387 43.6688C36.0151 43.5899 35.9915 43.5111 35.9758 43.4322C35.976 43.4296 35.976 43.427 35.9758 43.4243C35.9341 43.2326 35.913 43.037 35.9129 42.8407C35.9162 42.2167 36.1294 41.6122 36.518 41.1251C36.9066 40.638 37.4477 40.2969 38.0537 40.1572C38.3037 40.0996 38.5587 40.0776 38.8115 40.0905C39.6346 41.1466 40.1252 42.4764 40.1252 43.9211Z" fill="white"/>
<path d="M49.2069 41.4863H51.9013C53.0988 41.4863 53.997 41.8166 54.6164 42.4773C55.2048 43.0967 55.5042 43.9948 55.5042 45.1717C55.5042 46.3383 55.2048 47.2364 54.6164 47.8661C53.997 48.5268 53.0988 48.8572 51.9013 48.8572H49.2069V41.4863ZM50.4147 42.5186V47.8248H51.6742C52.593 47.8248 53.264 47.608 53.6873 47.1848C54.1002 46.7512 54.3067 46.0802 54.3067 45.1717C54.3067 44.2426 54.1002 43.5613 53.6873 43.1483C53.264 42.7251 52.593 42.5186 51.6742 42.5186H50.4147ZM58.8049 43.3754C59.6823 43.3754 60.3534 43.6645 60.8179 44.2633C61.2412 44.8001 61.458 45.5537 61.458 46.5138H57.4628C57.5041 47.0093 57.6383 47.3913 57.8654 47.6493C58.0925 47.9074 58.4229 48.0416 58.8461 48.0416C59.2075 48.0416 59.4965 47.959 59.7236 47.7939C59.8991 47.6597 60.054 47.4429 60.1985 47.1435H61.3754C61.2515 47.639 61.0037 48.0623 60.6321 48.3926C60.1572 48.7952 59.5688 49.0017 58.8565 49.0017C58.0616 49.0017 57.4318 48.7539 56.9673 48.2687C56.4718 47.7629 56.224 47.0712 56.224 46.1834C56.224 45.3885 56.4511 44.7278 56.926 44.191C57.3802 43.6438 58.0099 43.3754 58.8049 43.3754ZM58.8358 44.3355C58.4435 44.3355 58.1442 44.4388 57.917 44.6659C57.7002 44.8827 57.5557 45.2027 57.4835 45.6259H60.2295C60.1263 44.7588 59.6617 44.3355 58.8358 44.3355ZM65.0958 43.3754C65.8804 43.3754 66.4998 43.6542 66.954 44.2116C67.3669 44.7278 67.5734 45.3885 67.5734 46.2144C67.5734 46.999 67.3669 47.6493 66.9643 48.1655C66.5307 48.723 65.9216 49.0017 65.1577 49.0017C64.5383 49.0017 64.0015 48.7023 63.5679 48.1242V50.9012H62.391V43.52H63.4853V44.0878C63.857 43.6129 64.3938 43.3754 65.0958 43.3754ZM64.9203 44.3252C64.4557 44.3252 64.1047 44.5007 63.857 44.8723C63.6298 45.1924 63.5266 45.6156 63.5266 46.1524V46.235C63.5266 46.7925 63.6608 47.2467 63.9395 47.5874C64.1873 47.8971 64.497 48.052 64.879 48.052C65.3951 48.052 65.7874 47.8765 66.0352 47.5461C66.252 47.2364 66.3656 46.7925 66.3656 46.2144C66.3656 45.6363 66.2623 45.1924 66.0662 44.8827C65.8184 44.511 65.4364 44.3252 64.9203 44.3252ZM68.7045 41.3417H69.8813V48.8572H68.7045V41.3417ZM73.7 43.3754C74.5052 43.3754 75.1556 43.6335 75.6511 44.1703C76.1363 44.6968 76.3841 45.3679 76.3841 46.1937C76.3841 47.0093 76.1363 47.6803 75.6615 48.1965C75.1659 48.7333 74.5052 49.0017 73.7 49.0017C72.8845 49.0017 72.2341 48.7333 71.7386 48.1965C71.2534 47.6803 71.0159 47.0093 71.0159 46.1937C71.0159 45.3679 71.2534 44.6968 71.7489 44.1703C72.2341 43.6335 72.8845 43.3754 73.7 43.3754ZM73.7 44.3355C73.2045 44.3355 72.8329 44.5213 72.5644 44.9136C72.3373 45.244 72.2238 45.6776 72.2238 46.1937C72.2238 46.7099 72.3373 47.1332 72.5644 47.4635C72.8329 47.8455 73.2045 48.0416 73.7 48.0416C74.1852 48.0416 74.5672 47.8455 74.8356 47.4635C75.0627 47.1228 75.1866 46.6996 75.1866 46.1937C75.1866 45.6776 75.0627 45.244 74.8356 44.9136C74.5672 44.5213 74.1852 44.3355 73.7 44.3355ZM76.8446 43.52H78.1247L79.539 47.319L80.8914 43.52H82.1715L79.281 50.9012H78.0215L78.9609 48.7333L76.8446 43.52ZM88.7617 43.3754C89.567 43.3754 90.2173 43.6335 90.7129 44.1703C91.1981 44.6968 91.4458 45.3679 91.4458 46.1937C91.4458 47.0093 91.1981 47.6803 90.7232 48.1965C90.2277 48.7333 89.567 49.0017 88.7617 49.0017C87.9462 49.0017 87.2958 48.7333 86.8003 48.1965C86.3151 47.6803 86.0776 47.0093 86.0776 46.1937C86.0776 45.3679 86.3151 44.6968 86.8106 44.1703C87.2958 43.6335 87.9462 43.3754 88.7617 43.3754ZM88.7617 44.3355C88.2662 44.3355 87.8946 44.5213 87.6262 44.9136C87.399 45.244 87.2855 45.6776 87.2855 46.1937C87.2855 46.7099 87.399 47.1332 87.6262 47.4635C87.8946 47.8455 88.2662 48.0416 88.7617 48.0416C89.2469 48.0416 89.6289 47.8455 89.8973 47.4635C90.1244 47.1228 90.2483 46.6996 90.2483 46.1937C90.2483 45.6776 90.1244 45.244 89.8973 44.9136C89.6289 44.5213 89.2469 44.3355 88.7617 44.3355ZM95.2305 43.3754C96.5622 43.3754 97.2332 44.0981 97.2332 45.564V48.8572H96.0564V45.6672C96.0564 44.7897 95.6537 44.3562 94.8485 44.3562C94.5595 44.3562 94.3014 44.4594 94.0846 44.6659C93.8368 44.893 93.6923 45.2233 93.651 45.6466V48.8572H92.4741V43.52H93.651V44.1394C93.8575 43.8916 94.0949 43.6955 94.353 43.5716C94.6214 43.4374 94.9105 43.3754 95.2305 43.3754ZM104.615 41.3417C105.482 41.3417 106.164 41.5172 106.649 41.8785C107.165 42.2605 107.464 42.8593 107.537 43.6645H106.339C106.236 43.2103 106.04 42.8799 105.771 42.6838C105.503 42.4773 105.09 42.3844 104.553 42.3844C104.089 42.3844 103.738 42.4463 103.49 42.5805C103.18 42.7354 103.036 42.9935 103.036 43.3445C103.036 43.6542 103.201 43.9123 103.552 44.0981C103.707 44.1807 104.13 44.3355 104.811 44.5523C105.813 44.862 106.453 45.1098 106.742 45.2749C107.382 45.6569 107.702 46.1834 107.702 46.8648C107.702 47.5255 107.444 48.052 106.928 48.4339C106.411 48.8056 105.678 49.0017 104.739 49.0017C103.831 49.0017 103.118 48.8262 102.612 48.4752C101.993 48.0416 101.652 47.3603 101.601 46.4208H102.798C102.881 46.9783 103.077 47.3809 103.397 47.6184C103.686 47.8248 104.13 47.9384 104.739 47.9384C105.276 47.9384 105.709 47.8455 106.019 47.67C106.329 47.4842 106.494 47.2467 106.494 46.937C106.494 46.5447 106.257 46.235 105.802 46.0079C105.658 45.9356 105.183 45.7705 104.367 45.5227C103.459 45.2337 102.891 45.0272 102.674 44.9033C102.107 44.5626 101.828 44.0671 101.828 43.4167C101.828 42.7664 102.096 42.2502 102.654 41.8785C103.17 41.5172 103.82 41.3417 104.615 41.3417ZM110.906 43.3754C111.783 43.3754 112.454 43.6645 112.919 44.2633C113.342 44.8001 113.559 45.5537 113.559 46.5138H109.564C109.605 47.0093 109.739 47.3913 109.966 47.6493C110.194 47.9074 110.524 48.0416 110.947 48.0416C111.308 48.0416 111.598 47.959 111.825 47.7939C112 47.6597 112.155 47.4429 112.3 47.1435H113.476C113.353 47.639 113.105 48.0623 112.733 48.3926C112.258 48.7952 111.67 49.0017 110.957 49.0017C110.163 49.0017 109.533 48.7539 109.068 48.2687C108.573 47.7629 108.325 47.0712 108.325 46.1834C108.325 45.3885 108.552 44.7278 109.027 44.191C109.481 43.6438 110.111 43.3754 110.906 43.3754ZM110.937 44.3355C110.545 44.3355 110.245 44.4388 110.018 44.6659C109.801 44.8827 109.657 45.2027 109.584 45.6259H112.331C112.227 44.7588 111.763 44.3355 110.937 44.3355ZM116.918 43.3754C117.703 43.3754 118.291 43.5716 118.663 43.9639C118.993 44.3045 119.158 44.8001 119.158 45.4504V48.8572H118.064V48.1552C117.857 48.4236 117.599 48.6197 117.3 48.7643C116.959 48.9191 116.557 49.0017 116.092 49.0017C115.535 49.0017 115.101 48.8572 114.781 48.5784C114.451 48.2894 114.286 47.9281 114.286 47.4842C114.286 46.8854 114.513 46.4208 114.988 46.1008C115.421 45.7911 116.03 45.6259 116.815 45.6053L117.981 45.5743V45.3679C117.981 44.6659 117.599 44.3252 116.835 44.3252C116.505 44.3252 116.247 44.3768 116.051 44.5007C115.824 44.6349 115.669 44.8414 115.607 45.1201L114.44 45.0272C114.554 44.4388 114.843 44.0052 115.308 43.7368C115.7 43.489 116.237 43.3754 116.918 43.3754ZM117.981 46.4208L116.897 46.4518C115.958 46.4725 115.493 46.8028 115.493 47.4429C115.493 47.6287 115.566 47.7835 115.731 47.9074C115.896 48.0313 116.103 48.1036 116.361 48.1036C116.815 48.1036 117.197 47.9694 117.507 47.7113C117.816 47.4429 117.981 47.1022 117.981 46.6893V46.4208ZM120.503 41.3417H121.68V48.8572H120.503V41.3417ZM125.499 43.3754C126.304 43.3754 126.954 43.6335 127.45 44.1703C127.935 44.6968 128.183 45.3679 128.183 46.1937C128.183 47.0093 127.935 47.6803 127.46 48.1965C126.965 48.7333 126.304 49.0017 125.499 49.0017C124.683 49.0017 124.033 48.7333 123.537 48.1965C123.052 47.6803 122.815 47.0093 122.815 46.1937C122.815 45.3679 123.052 44.6968 123.547 44.1703C124.033 43.6335 124.683 43.3754 125.499 43.3754ZM125.499 44.3355C125.003 44.3355 124.631 44.5213 124.363 44.9136C124.136 45.244 124.022 45.6776 124.022 46.1937C124.022 46.7099 124.136 47.1332 124.363 47.4635C124.631 47.8455 125.003 48.0416 125.499 48.0416C125.984 48.0416 126.366 47.8455 126.634 47.4635C126.861 47.1228 126.985 46.6996 126.985 46.1937C126.985 45.6776 126.861 45.244 126.634 44.9136C126.366 44.5213 125.984 44.3355 125.499 44.3355ZM131.224 43.3754C132.628 43.3754 133.402 43.9329 133.526 45.0685H132.38C132.298 44.8001 132.174 44.6039 132.009 44.5007C131.833 44.3871 131.565 44.3355 131.203 44.3355C130.894 44.3355 130.656 44.3768 130.501 44.4697C130.316 44.5626 130.233 44.7072 130.233 44.9136C130.233 45.0788 130.367 45.2337 130.656 45.3575C130.832 45.4298 131.183 45.533 131.72 45.6672C132.318 45.8118 132.773 45.9769 133.062 46.1731C133.485 46.4415 133.702 46.8235 133.702 47.2983C133.702 48.4339 132.896 49.0017 131.296 49.0017C129.81 49.0017 129.015 48.372 128.901 47.1228H130.047C130.109 47.4635 130.233 47.701 130.409 47.8455C130.584 47.9694 130.863 48.0416 131.255 48.0416C132.081 48.0416 132.494 47.8145 132.494 47.3809C132.494 47.1332 132.339 46.937 132.029 46.7925C131.864 46.7099 131.513 46.617 130.976 46.4931C130.347 46.3486 129.903 46.1937 129.645 46.0286C129.232 45.7705 129.025 45.4092 129.025 44.9446C129.025 44.4491 129.221 44.0671 129.634 43.7987C130.037 43.5096 130.563 43.3754 131.224 43.3754Z" fill="white"/>
<rect x="18.9734" y="64.6055" width="138.927" height="3.81763" rx="1.90882" fill="#EAEBF0"/>
<rect x="18.9734" y="74.4231" width="67.1846" height="3.81763" rx="1.90882" fill="#EAEBF0"/>
<circle cx="12.1669" cy="7.65534" r="2.26887" fill="#FF7871"/>
<circle cx="18.9736" cy="7.65534" r="2.26887" fill="#FFCC00"/>
<circle cx="25.78" cy="7.65534" r="2.26887" fill="#34C759"/>
<line x1="2" y1="13.7723" x2="171.278" y2="13.7723" stroke="#EFF0F1" stroke-width="0.956371"/>
</g>
<rect x="2.4807" y="1.4807" width="168.039" height="85.0386" rx="3.5193" stroke="#EFF0F1" stroke-width="0.9614"/>
</g>
<defs>
<filter id="filter0_d_1329_4397" x="0" y="0" width="173" height="90" filterUnits="userSpaceOnUse" color-interpolation-filters="sRGB">
<feFlood flood-opacity="0" result="BackgroundImageFix"/>
<feColorMatrix in="SourceAlpha" type="matrix" values="0 0 0 0 0 0 0 0 0 0 0 0 0 0 0 0 0 0 127 0" result="hardAlpha"/>
<feOffset dy="1"/>
<feGaussianBlur stdDeviation="1"/>
<feComposite in2="hardAlpha" operator="out"/>
<feColorMatrix type="matrix" values="0 0 0 0 0.734236 0 0 0 0 0.768321 0 0 0 0 0.808333 0 0 0 0.25 0"/>
<feBlend mode="normal" in2="BackgroundImageFix" result="effect1_dropShadow_1329_4397"/>
<feBlend mode="normal" in="SourceGraphic" in2="effect1_dropShadow_1329_4397" result="shape"/>
</filter>
<clipPath id="clip0_1329_4397">
<rect x="2" y="1" width="169" height="86" rx="4" fill="white"/>
</clipPath>
</defs>
</svg>
