<svg xmlns="http://www.w3.org/2000/svg" width="24" height="24" viewBox="0 0 24 24" fill="none">
  <path fill-rule="evenodd" clip-rule="evenodd" d="M9.03102 3.54451C10.1066 0.869604 13.8934 0.869604 14.969 3.54451C15.0321 3.70141 15.1115 3.97997 15.2205 4.36242C15.2294 4.39369 15.2385 4.42566 15.2478 4.45831C15.2959 4.62656 15.3078 4.66674 15.3176 4.69451C15.5146 5.25121 16.0873 5.58187 16.6679 5.4741C16.6969 5.46872 16.7377 5.459 16.9074 5.41646C16.9403 5.4082 16.9726 5.40011 17.0041 5.3922C17.3898 5.29539 17.6708 5.22489 17.8382 5.20107C20.6925 4.79509 22.5859 8.07455 20.8072 10.3435C20.7028 10.4766 20.5013 10.6846 20.2246 10.9703C20.202 10.9936 20.1789 11.0175 20.1552 11.0419C20.0335 11.1676 20.0047 11.1981 19.9856 11.2205C19.602 11.6694 19.602 12.3307 19.9856 12.7796C20.0047 12.802 20.0335 12.8325 20.1552 12.9582C20.1789 12.9826 20.202 13.0064 20.2246 13.0298C20.5013 13.3155 20.7028 13.5235 20.8072 13.6566C22.5859 15.9255 20.6925 19.205 17.8382 18.799C17.6708 18.7752 17.3898 18.7047 17.004 18.6079C16.9725 18.6 16.9403 18.5919 16.9074 18.5836C16.7377 18.5411 16.6969 18.5314 16.6679 18.526C16.0873 18.4182 15.5146 18.7489 15.3176 19.3056C15.3078 19.3333 15.2959 19.3735 15.2478 19.5418C15.2385 19.5744 15.2294 19.6064 15.2205 19.6377C15.1115 20.0201 15.0321 20.2987 14.969 20.4556C13.8934 23.1305 10.1066 23.1305 9.03102 20.4556C8.96793 20.2987 8.88851 20.0201 8.77948 19.6376C8.77057 19.6064 8.76146 19.5744 8.75214 19.5418C8.70413 19.3735 8.69216 19.3333 8.68233 19.3056C8.48536 18.7489 7.91265 18.4182 7.33204 18.526C7.30308 18.5314 7.26229 18.5411 7.09258 18.5836C7.05962 18.5919 7.02736 18.6 6.9958 18.6079C6.61011 18.7047 6.32919 18.7752 6.16177 18.799C3.30745 19.205 1.41405 15.9255 3.1928 13.6566C3.29713 13.5235 3.49866 13.3155 3.77535 13.0298C3.79798 13.0065 3.82111 12.9826 3.84473 12.9582C3.96643 12.8325 3.99524 12.802 4.01438 12.7796C4.39802 12.3307 4.39802 11.6694 4.01438 11.2205C3.99524 11.1981 3.96643 11.1676 3.84473 11.0419C3.82112 11.0175 3.79799 10.9936 3.77537 10.9703C3.49867 10.6846 3.29714 10.4766 3.1928 10.3435C1.41405 8.07455 3.30745 4.7951 6.16177 5.20107C6.3292 5.22489 6.61015 5.29539 6.99587 5.3922C7.02741 5.40011 7.05965 5.4082 7.09258 5.41646C7.26229 5.459 7.30308 5.46872 7.33204 5.4741C7.91265 5.58187 8.48536 5.25121 8.68233 4.69451C8.69216 4.66674 8.70413 4.62655 8.75214 4.45831C8.76146 4.42567 8.77057 4.39371 8.77948 4.36245C8.88851 3.97999 8.96793 3.70142 9.03102 3.54451ZM13.1134 4.29065C12.71 3.28756 11.29 3.28756 10.8866 4.29065C10.8866 4.29065 10.8868 4.29013 10.8866 4.29065C10.8866 4.29066 10.8825 4.30165 10.8725 4.33228C10.8618 4.36549 10.8478 4.41084 10.8293 4.47287C10.7922 4.59778 10.7434 4.76862 10.6754 5.00717C10.6728 5.01614 10.6703 5.025 10.6678 5.03376C10.6314 5.1614 10.6012 5.2671 10.5678 5.36161C10.0426 6.84615 8.51531 7.7279 6.96703 7.44051C6.86846 7.42221 6.76186 7.39547 6.63312 7.36317C6.62428 7.36095 6.61535 7.35871 6.6063 7.35644C6.36567 7.29612 6.19334 7.25294 6.0666 7.22264C6.00367 7.20759 5.9574 7.19703 5.92324 7.18976C5.89174 7.18305 5.8793 7.18105 5.87931 7.18103C5.87876 7.18095 5.87931 7.18102 5.87931 7.18103C4.80894 7.02879 4.09975 8.2587 4.76678 9.10955C4.76418 9.10623 4.77097 9.11501 4.79579 9.14257C4.81916 9.16851 4.85144 9.2033 4.89594 9.25028C4.98555 9.34489 5.10911 9.47254 5.28167 9.65077C5.28816 9.65748 5.29458 9.66411 5.30092 9.67066C5.39325 9.76599 5.46972 9.84493 5.53484 9.92114C6.55787 11.1183 6.55787 12.8818 5.53484 14.0789C5.46971 14.1552 5.39323 14.2341 5.30088 14.3295C5.29455 14.336 5.28815 14.3426 5.28167 14.3493C5.10911 14.5275 4.98555 14.6552 4.89594 14.7498C4.85144 14.7968 4.81916 14.8316 4.79579 14.8575C4.77423 14.8814 4.76628 14.8912 4.76626 14.8912C4.76592 14.8916 4.76626 14.8912 4.76626 14.8912C4.09923 15.7421 4.80977 16.9712 5.88014 16.8189C5.87597 16.8195 5.88697 16.818 5.92324 16.8103C5.95739 16.8031 6.00366 16.7925 6.0666 16.7774C6.19334 16.7471 6.36567 16.704 6.6063 16.6436L6.63313 16.6369C6.76186 16.6046 6.86847 16.5779 6.96703 16.5596C8.51531 16.2722 10.0426 17.1539 10.5678 18.6385C10.6012 18.733 10.6314 18.8387 10.6678 18.9663L10.6754 18.9929C10.7434 19.2315 10.7922 19.4023 10.8293 19.5272C10.8478 19.5892 10.8618 19.6346 10.8725 19.6678C10.8825 19.6984 10.887 19.7102 10.8869 19.7102C10.8869 19.7102 10.8871 19.7107 10.8869 19.7102C11.2903 20.7133 12.71 20.7125 13.1134 19.7094C13.1118 19.7133 13.116 19.7031 13.1274 19.6678C13.1382 19.6346 13.1522 19.5892 13.1706 19.5272C13.2078 19.4023 13.2565 19.2315 13.3246 18.9929L13.3322 18.9663C13.3686 18.8387 13.3987 18.733 13.4322 18.6385C13.9574 17.1539 15.4847 16.2722 17.033 16.5596C17.1315 16.5779 17.2381 16.6046 17.3669 16.6369C17.3757 16.6391 17.3846 16.6414 17.3937 16.6436C17.6343 16.704 17.8066 16.7471 17.9334 16.7774C17.9963 16.7925 18.0426 16.8031 18.0767 16.8103C18.1082 16.817 18.1207 16.819 18.1207 16.8191C18.1207 16.8191 18.1212 16.8191 18.1207 16.8191C19.191 16.9713 19.9002 15.7414 19.2332 14.8905C19.2332 14.8905 19.2335 14.891 19.2332 14.8905C19.2332 14.8906 19.2257 14.8814 19.2042 14.8575C19.1808 14.8316 19.1485 14.7968 19.104 14.7498C19.0144 14.6552 18.8909 14.5275 18.7183 14.3493L18.699 14.3294C18.6067 14.2341 18.5303 14.1551 18.4651 14.0789C17.4421 12.8818 17.4421 11.1183 18.4651 9.92114C18.5303 9.84493 18.6067 9.76599 18.6991 9.67066L18.7183 9.65077C18.8909 9.47254 19.0144 9.34489 19.104 9.25028C19.1485 9.2033 19.1808 9.16851 19.2042 9.14257C19.2257 9.11864 19.2337 9.10887 19.2337 9.10888C19.2337 9.10889 19.2341 9.10845 19.2337 9.10888C19.9008 8.25803 19.1902 7.0289 18.1198 7.18114C18.124 7.18055 18.113 7.18204 18.0767 7.18976C18.0426 7.19703 17.9963 7.20759 17.9334 7.22264C17.8066 7.25294 17.6343 7.29612 17.3937 7.35644L17.3669 7.36316C17.2381 7.39546 17.1315 7.42221 17.0329 7.44051C15.4847 7.7279 13.9574 6.84615 13.4322 5.36161C13.3988 5.26711 13.3686 5.16143 13.3322 5.03382L13.3246 5.00717C13.2565 4.76862 13.2078 4.59778 13.1706 4.47287C13.1522 4.41085 13.1382 4.36549 13.1274 4.33228C13.1175 4.30165 13.1133 4.29066 13.1134 4.29065C13.1134 4.29065 13.1131 4.29013 13.1134 4.29065Z" fill="#111824"/>
  <path fill-rule="evenodd" clip-rule="evenodd" d="M12 13.8918C13.0448 13.8918 13.8918 13.0448 13.8918 12C13.8918 10.9553 13.0448 10.1083 12 10.1083C10.9552 10.1083 10.1082 10.9553 10.1082 12C10.1082 13.0448 10.9552 13.8918 12 13.8918ZM12 15.8918C14.1494 15.8918 15.8918 14.1494 15.8918 12C15.8918 9.85069 14.1494 8.10828 12 8.10828C9.85063 8.10828 8.10823 9.85069 8.10823 12C8.10823 14.1494 9.85063 15.8918 12 15.8918Z" fill="#111824"/>
</svg>